<?xml version="1.0" standalone="no"?>
<svg width="512" height="512" viewBox="0 0 512 512" xmlns="http://www.w3.org/2000/svg">
    <path fill="rgb(223,226,236)" d="M 214.269 509.106 C 188.27 507.477 170.149 497.702 157.544 472.449 C 139.424 435.791 111.061 403.207 92.94 366.55 C 62.214 304.639 33.852 241.1 7.853 176.746 C -11.844 127.869 7.065 114.021 47.245 101.802 C 139.424 75.734 352.931 8.122 370.263 4.049 C 463.23 -15.502 522.318 37.448 510.501 126.24 C 501.834 187.336 497.107 248.431 487.653 309.527 C 482.138 342.111 470.32 373.881 461.654 406.466 C 458.503 417.87 457.715 429.275 456.927 441.494 C 453.775 487.926 437.231 505.848 386.808 511.55 C 371.839 513.179 241.844 509.921 214.269 509.106 Z"/>
    <path fill="rgb(49,72,99)" d="M 251.54 255.309 C 250.945 271.883 244.536 281.143 235.615 284.183 C 226.693 287.222 209.022 287.183 204.732 274.305 C 193.065 252.269 183.457 227.195 177.281 202.88 C 173.163 187.683 186.203 176.285 201.301 176.285 C 211.595 176.285 228.066 181.604 231.497 188.443 C 237.863 194.111 250.945 225.029 251.54 255.309 Z"/>
    <path fill="rgb(49,72,99)" d="M 331.008 284.183 C 296.008 254.549 279.537 202.88 294.635 167.927 C 299.439 156.53 310.419 145.892 321.4 139.813 C 333.753 132.215 347.479 137.534 348.165 153.49 C 348.851 191.482 346.106 229.474 344.047 266.706 C 343.361 272.025 339.847 291.326 331.008 284.183 Z"/>
    <path fill="rgb(49,72,99)" d="M 219.649 492.089 C 197.002 490.569 181.217 481.451 170.237 457.896 C 154.453 423.703 129.746 393.31 113.962 359.117 C 87.197 301.369 62.491 242.102 39.844 182.074 C 22.687 136.484 39.157 123.567 74.158 112.169 C 154.453 87.854 340.434 24.788 355.533 20.988 C 436.514 2.752 487.985 52.142 477.69 134.964 C 470.142 191.952 466.024 248.94 457.788 305.928 C 452.985 336.322 442.69 365.956 435.141 396.349 C 432.396 406.987 431.71 417.625 431.023 429.022 C 428.278 472.333 413.866 489.05 369.944 494.369 C 356.905 495.888 243.669 492.849 219.649 492.089 Z  M 355.533 437.381 C 382.298 432.821 392.592 415.345 396.023 389.511 C 398.082 367.475 423.474 201.07 429.651 138.004 C 435.828 76.457 400.141 48.343 341.807 65.059 C 308.179 74.937 164.06 121.287 126.315 135.724 C 93.373 147.882 87.197 162.319 96.119 195.752 C 101.609 217.027 108.472 237.543 113.962 258.818 C 130.433 324.164 169.55 376.593 210.727 427.503 C 216.218 434.341 225.825 439.66 234.747 441.94 C 283.949 454.201 332.885 441.18 355.533 437.381 Z"/>
</svg>
