<?xml version="1.0"?>
<!-- 24.1.30 valle -->
<svg xmlns="http://www.w3.org/2000/svg" xml:space="preserve"
	 width="1000" height="600"
	 viewBox="0 0 1000 600">
<rect opacity="0" width="1000" height="600"/>
<path d="M796.1,580.4c-1.5-12.2-2.7-24.5-4.7-36.6c-1.3-8-3.6-15.8-6-23.5c-4.1-13.5-8.8-26.7-12.8-40.2c-2.2-7.5-3.3-14.8-0.3-23
	c4.7-12.7,8.9-25.8,10.3-39.5c0.5-5.1-1-6.9-6.1-6c-9.8,1.8-19.6,4.1-29.4,6.1c-2.6,0.5-5.5,2.1-7.5-1.1c-1.9-3-1.5-6.1,1.2-9.2
	c6.7-7.7,13.5-15.3,20-23.2c2.3-2.7,3.8-6.1,5.7-9.2c2.7-4.6,5.3-9.2,8-13.8c2.8-4.8,5.8-9.5,8.4-14.3c1.8-3.4,1-5.2-2.7-6.3
	c-1.6-0.5-3.4-0.5-5-0.7c-12.5-1.6-24.9-3.1-37.3-4.9c-2.3-0.3-4.5-1.6-6.9-2.5c0.6-1.1,0.8-1.8,1-1.8c6.5-0.2,13-0.5,19.6-0.4
	c6.2,0,12.4,1,18.5,0.5c5.4-0.4,10.8-2,16.1-3.5c1.2-0.3,2.5-2.4,2.8-3.8c2-8.1,7.1-13.5,13.6-18.7c6.1-4.9,11-11.2,16.4-17
	c0.3-0.4,0.2-1.2,0.3-1.8c-1.9-2.7-4.3-1.3-6.5-0.8c-3.8,0.8-7.4,2.1-11.2,2.7c-6.5,1-12.6-0.1-16.1-6.4c-1.4-2.4-2-5.6-1.9-8.4
	c0.2-3.8,1-7.7,2.4-11.2c4-9.8,6.4-19.8,5.9-31.2c11.9-5.9,24.9-6.2,37.7-7.7c13.2-1.6,25.7,1.5,38.8,4.2c7.3-5.5,15.9-5.6,24.8-3.3
	c5.3,1.4,10.5,3.3,15.8,4.9c3.4,1,7.6-1.1,9.2-5.1c1.1-2.5,1.6-5.3,2.1-8c0.5-2.6,2-3.8,4.5-3.3c14.1,3,27.6,7.3,38.7,17.1
	c1.3,1.1,2.4,2.5,3.3,3.9c1.9,3.3,1.3,6-1.7,8.4c-1,0.8-2.1,1.5-3.3,2c-9.6,3.4-19,7.5-29.6,7.3c-7-0.1-11.9,2.5-15.9,7.9
	c1.7,1.3,3.3,3.2,5.3,3.9c4.9,1.7,7.5,5.2,9.6,9.6c2.5,5.6,4.8,11.5,10.3,15.1c2.1,1.4,4.2,2.9,6.5,4.1c8.9,4.8,16.7,11.1,23.9,18.1
	c1.7,1.6,2.9,3.8,4.5,6c-1.3,0.4-1.9,0.7-2.1,0.5c-11.8-9.7-25.4-16.4-38.3-24.2c-6.9-4.1-13.9-8.3-20.4-13
	c-4.8-3.4-9.3-7.4-13.6-11.5c-1.7-1.6-3.2-4.4-3.2-6.6c0-4.7-2.6-6.9-6.3-8.6c-0.8-0.3-1.6-0.6-2.3-1.1c-2.2-1.5-2.4-3.9,0-5.1
	c3-1.5,6.4-2.3,9.7-3c4.5-0.9,9.3-1.2,12.9-4.5c-3.1-5.7-7.5-7.6-12.5-3.4c-5.6,4.7-11.9,5.2-18.3,6.3c-3.9,0.6-6.1,2.5-7.4,6
	c-2.5,6.5-6.3,12.6-7.3,19.6c-0.4,2.5-0.7,5-1,7.5s-0.5,5-0.8,7.5c-0.1,1.1-1,2.3-0.6,3.1c3.2,7.2,2.7,16.6,11.4,20.6
	c7.2,3.3,12.2,8.7,16.5,15.9c-6.9,1.9-12.3-1.2-17.6-4.1c-4.8-2.6-9.4-5.7-14.4-8.8c-4.5,3.8-9.1,2.2-13.7,0.6
	c-4.7-1.7-5.5-0.9-6.2,3.8c-1.3,8.3,2.7,14.5,6.9,21.1c9.2,14.3,22.1,25.2,33,37.9c5.7,6.6,11.5,13.1,17.2,19.7
	c0.8,0.9,1.2,2.1,1.1,4c-1.3-0.8-2.8-1.3-3.9-2.3c-8.4-7.5-17.6-14.1-24.7-23.1c-3.4-4.3-7.7-8-11.9-11.6
	c-10.5-8.8-18.5-19.3-23.4-32.1c-0.1-0.3-0.6-0.5-1.5-1.2c-0.5,1.7-1.3,3.1-1.4,4.6c-0.9,11.5,1.3,22.2,7.4,32.4
	c4.5,7.5,9.5,14.6,14.6,21.7c4.2,5.8,6.6,12.7,5.1,20.7c-1.3-0.4-2.1-0.6-2.8-0.8c-12.9-4.5-19.8-1.8-25.8,8.1
	c-5.6,9.2-12.3,18-14.9,28.8c-1.9,7.9-3.8,15.7-5.7,23.6c-0.1,0.4-0.2,0.9-0.1,1.3c0.7,5.6,5,10.9,1.7,17c1.6,5.8,3.4,11.5,4.6,17.3
	c2.3,11,7.4,21.4,7.7,32.9c0.1,2.3,0,4.5-1.2,7.1c-0.8-0.8-1.7-1.6-2.3-2.5c-0.6-0.9-1-1.9-1.3-2.9c-7.1-19.4-14.6-38.7-18-59.2
	c-1.1-6.6-1.6-13.1,0.9-20c4.2-11.6,6.7-23.7,9.9-35.7c0.4-1.6,0.7-3.4,0.6-5.1c-0.2-2-0.9-5.5-1.6-5.5c-2.5-0.2-5.8,0.1-7.6,1.5
	c-2.6,2-4.8,5.1-5.9,8.2c-4.2,10.9-7.8,22.1-11.8,33.1c-1.7,4.6-3.4,9.2-5.7,13.5c-2.2,4-1.6,7.9-0.3,11.8
	c4.4,12.7,9,25.3,13.5,37.9c0.4,1.2,1,2.3,1.7,3.4c2.2,3.6,3.3,6.9,2.4,11.7c-0.9,4.8,1.1,10.5,2.9,15.5c1.2,3.4,1.6,6.2,1,9.7
	c-1,6.1-1,12.3-1.7,18.5c-0.3,2.3-1.4,4.6-2.1,6.9C796.6,580.8,796.4,580.6,796.1,580.4z"/>
<path d="M509.4,460.3c-3.1-4.3-3.3-9-3.5-13.5c-0.7-19.4-1.6-38.8,0.7-58.2c1.3-10.9,2.4-21.8,3.8-32.7c0.7-5.7-0.3-7.4-6-8.6
	c-9.5-1.9-18.7-0.2-27.8,2.4c-24.8,7.2-49.6,14.4-74.3,22c-7.4,2.2-14.4,5.5-21.5,8.5c-5.4,2.2-6.5,3.8-6.1,10.1
	c0.4,6.2,1.3,12.3,1.9,18.4c0.6,5.7,1.3,11.4,1.5,17.1c0.4,8.5,3.6,16,7.1,23.5c0.8,1.8,2,3.7,3.5,4.9c3.5,2.9,3.5,7,3.7,10.6
	c0.1,1.8-2.4,4.1-4.4,5.3c-0.7,0.4-3.7-1.6-4.5-3.1c-2.8-5.7-5.5-11.6-7.5-17.7c-2.9-8.4-4.5-17.3-7.8-25.5
	c-5.4-13.2-7.3-27.3-11.8-40.7c-0.7-2.1-1.1-4.5-1.1-6.7c0.1-12.7-2.4-25-5.2-37.3c-0.3-1.3-0.6-2.7-0.7-4.1c-1.5-18-2.9-36-4.5-54
	c-0.4-4.3,0.9-7.2,4.9-8.5c8.9-2.9,17.8-5.9,26.8-8.3c4.8-1.3,6.5,0.6,6.6,5.9c0.1,4.3-0.4,8.7-0.4,13c0,5.3,1,6.3,6,7.6
	c36.3,9.7,72.9,11.6,110,5.5c4.7-0.8,9.5-1.4,14.2-2.2c4.3-0.7,6.7-3,7.6-7.5c1.4-7,3.5-13.9,9.8-18.2c2.5-1.7,5.6-3.2,8.7-3.6
	c4.1-0.6,6,2.7,4.9,6.7c-1.4,4.8-2.6,9.7-3.8,14.5c-2.1,8.2-4.3,16.4-6.1,24.6c-3.6,16.5-7.1,33-10.2,49.6
	c-2.7,14.6-5,29.2-7.3,43.9c-0.5,2.9-0.4,5.9-0.6,8.9c-0.7,10-1.5,20-2.1,30.1c-0.2,3.6-0.4,7.3-0.1,11
	C514,457.2,513.2,459.2,509.4,460.3z"/>
<path d="M614.9,473c-0.5-1.6-1.1-3.2-1.4-4.8c-3.3-20.8-8.7-41.1-15.5-61c-3-8.6-5.8-17.3-9-25.8c-1.7-4.5-3.9-8.8-6.5-12.8
	c-1-1.6-3.7-2.7-5.7-2.9c-3.6-0.4-7.3,0.2-10.9,0.2c-2.6,0-5.3-0.3-8.5-0.5c0.4-2.3,0.3-3.9,0.9-5.2c4.3-10.8,8.6-21.6,13.1-32.4
	c3.9-9.5,8.2-18.9,12.1-28.4c1.9-4.5,2.6-9,1.1-14c-8-27.2-7.7-54.7-0.8-82c3.8-14.8,8.9-29.3,13.6-43.8c0.8-2.5,2.3-4.8,4.6-6.7
	c-0.7,3.5-1.2,7.1-2.3,10.5c-7,22.5-12.7,45.4-14.8,69c-1.1,12.9,0.1,25.6,2.6,38.2c0.3,1.5,1,3.1,1.8,4.4c4.6,7.1,9.9,6.9,13.8-0.6
	c2.1-4,4-8.1,6.2-12.5c-2.1-1.4-4.3-2.8-6.4-4.1c0-5,4.6-3.1,7.2-5.6c-0.8-1.2-1.5-2.7-2.6-3.9c-3.5-3.6-7.3-6.9-10.6-10.7
	c-6.8-7.9-6.5-16,1.8-21.8c11.5-8.1,23-16.6,37.6-18.6c5.2-0.7,10.2-1.3,15.6-0.7c5.3,0.7,10.9-0.4,16.4-0.6c5-0.2,10-0.6,14.8,2.7
	c-0.7,2.2-1.4,4.3-2.1,6.4c1.4,3.3,4,2.9,6.9,2.6c10.2-1,20.5-1.8,30.7-2.5c2.7-0.2,5.6,0.5,8.3,0.8c0,0.6,0,1.2,0,1.8
	c-4.2,0.6-8.4,1.2-12.6,1.9c-4.7,0.7-9.6,1.2-14.2,2.3c-7.2,1.7-10.4,9.4-6.6,15.7c0.8,1.3,3,1.7,4.6,2.4c2.2,1,5.7,0.8,5.4,4.2
	c-0.3,3.5-3.8,2.4-6.1,2.9c-1.3,0.3-2.7,0.4-3.9,0.6c-2.1,6.6-2.1,6.6-11.3,8.8c1.1,1.1,1.9,1.9,2.8,2.6c0.3,0.3,0.9,0.3,1.3,0.3
	c13,0.7,26,1.4,39,1.9c3.8,0.1,7.3,0.1,9.7,3.7c2.1,3.2,5.6,2.6,8.7,2.7c6.1,0.3,12.2,0.6,18.3,1.7c-3.7,2.8-8,2.7-12,3.3
	c-6.6,1-13.1,2-19.6-1.1c-1.3-0.6-3.1-0.2-4.7-0.2c-1.3,0-3.1,0.5-4-0.1c-7-4.9-14.8-2.5-22-1.7c-10,1.1-19.8,3.6-29.6,5.4
	c-0.7,0.1-1.4,0.3-2,0.3c-5.8-0.2-10.9,0.6-15.1,5.6c-1.8,2.2-5.7,2.6-8.6,4c-1.1,0.6-2,1.6-3.5,2.9c3.3,1.8,6,3.4,8.8,4.9
	c-0.1,0.6-0.2,1.1-0.3,1.7c-5.1,0.6-10.3,1.2-15.4,1.8c0,0.5-0.1,1-0.1,1.5c2.3,1.1,4.6,2.1,6.8,3.2c-8,3-15.9,4.4-24.1,2.9
	c-2-0.4-4-1.1-6-1.4c-3.6-0.6-5.9,1.7-5.1,5.1c0.6,2.8,2,5.2,5.1,5.8c3.4,0.6,6.8,1.2,10.2,1.5c13.3,1,26.4,0.4,39.3-4.1
	c5.3-1.9,11.1-2.6,16.7-3.5c2.2-0.4,4.6,0.4,7,0.6c0.1,0.6,0.2,1.2,0.2,1.8c-1.7,0.8-3.4,1.8-5.2,2.3c-10.1,2.9-20.3,5.3-30.4,8.4
	c-7.6,2.4-15.3,2.3-23.1,1.8c-5.2-0.3-10.5-0.9-15.7-1.3c-5.3-0.4-6.6,0.8-5.8,6.3c1.9,14.1,8.8,25.3,20,33.9
	c3.6,2.8,7.5,5.1,12.3,5.7c2.3,0.3,4.4,2,6.3,2.9c-0.3,4.6-3,4.8-5.8,5c-5.6,0.4-11.3,0.9-17.8,1.4c1.8,7.2,4.4,13,8.3,18
	c9.4,12.2,10.4,12.4,24.5,7.1c16.2-6,32.5-12.6,50.1-13.7c7.5-0.5,15.1-0.4,22.6-0.4c1.7,0,3.4,0.8,5,1.3c0,0.5,0.1,1,0.1,1.5
	c-2.3,0.4-4.5,1.1-6.8,1.2c-22.4,0.7-43.7,7-64.8,13.8c-1.9,0.6-3.7,1.9-5.6,2.5c-4.3,1.4-8.6,2.9-13.1,3.9c-4,0.8-7.4-0.7-10.4-3.8
	c-7.3-7.6-12.6-16.2-15.1-26.5c-0.8-3.3-2.1-6-5.9-6.6c-4.6-0.8-9.1-1.5-13.3,1.2c-2.4,1.6-1.8,4-1.1,6.2c2.2,6.5,4.6,12.9,6.7,19.5
	c6.7,20.9,13.8,41.7,16.8,63.5c0.6,4.7,0.5,9.6,0.5,14.4c0,1.4-0.9,2.8-1.4,4.2C615.7,473,615.3,473,614.9,473z"/>
<path d="M289.1,261.9c-5.3,6.2-11.4,11.1-18.4,14.9c-11.3,6.1-22.7,10.8-35.9,8.7c-3.7-0.6-5.9,1.1-6.4,4.5
	c-0.5,3.1-0.8,6.4-0.3,9.5c0.9,6.5,3.9,9.6,10.4,9.6c7,0,14.1-0.6,21.1-1.9c9.2-1.7,18.3-4.3,27.4-6.4c1.7-0.4,3.5-0.5,5.4,0
	c-9.1,6.3-19.7,8.8-30.1,11.4c-10.3,2.6-21,4-31.9,6c0,1.8-0.3,3.5,0.1,4.9c3.2,12.4,8.1,23.8,19.7,31c3.7,2.3,7.2,4.8,10.7,7.3
	c3.1,2.1,3.8,6.3,0.6,7.9c-14.8,7.2-18.4,21.5-22.7,35c-3.7,11.7-6.5,23.8-8.5,35.9c-1.9,11.7-3.1,23.6-0.9,35.5
	c0.8,4.2,1.9,8.3,3.1,12.9c-3.6-0.7-4.7-2.9-5.6-5.2c-3-7.5-4.4-15.3-3.8-23.5c1.4-20.1,4.5-40,9.4-59.6c0.6-2.4,0.9-4.9,1.1-7.4
	c0.1-0.6-0.4-1.3-0.6-1.9c-6.1,0.4-10.5,3.9-12.6,10.5c-4.9,15.5-9.4,31-14.5,46.4c-3.5,10.8-7.6,21.5-12,33.6
	c-1.5-4.1-0.3-6.6,0.4-9c4.1-14.5,8.4-29,12.5-43.5c2-7.3,3.8-14.6,5.4-22c0.3-1.5-0.5-3.3-0.8-5c-1.6,0.4-3.5,0.5-4.9,1.3
	c-4.5,2.4-5.9,2.5-7.6-1.5c-4.2-10.4-8.4-20.8-11.5-31.5c-1.5-5-1-10.9-0.4-16.3c1.8-16.1,7.2-31.1,14.1-45.7
	c5.5-11.6,10.5-23.3,15.6-35.1c0.9-2.1,1.7-4.3,2.1-6.5c0.6-3-0.6-4.3-3.7-4c-1.8,0.1-3.5,0.6-5.3,0.9c-0.5-0.6-0.9-0.9-1-1.2
	c-0.7-2.2,0.9-5.2-2.1-6.7c-3.3-1.7-6.6-2.8-10.5-1.9c-10.5,2.3-21,4.4-31.5,6.4c-1.9,0.4-3.9,0.1-6.2,0.1c-0.3-7.7,8-5.7,10.1-11
	c0,0,0.1-1-0.2-1.7c-1.9-4.1-0.3-7,2.9-9.5c3.7-2.9,7.5-5.9,11.8-9.2c-2.4-1.8-4.3-3.2-6.2-4.5c-0.7-3.7,1.8-4.9,4.4-6
	c5.2-2.3,10.6-4.3,15.7-6.8c2-0.9,4.6-2.3,5.2-4.1c1.9-6.2,7.3-7,12.1-8.9c2.3-0.9,4.9-1.2,7.3-1.9c1.3-0.4,2.9-0.8,3.7-1.7
	c10.7-12,24.6-11.1,38.6-9.7c1.5,0.2,3.1,0.8,4.5,1.5c4.1,1.9,8.1,4.1,12.2,6c5.4,2.6,7.4,5.8,5.9,11.6c-0.8,3.2-2.5,6.4-4.5,9
	c-2.2,2.9-5.2,5.1-7.9,7.5c-1.4,1.2-3.2,2.1-4.1,3.6c-6.9,10.6-17.6,17.1-26.8,25.3c-5.7,5.1-8.5,11.9-10.4,19
	c-1.5,5.6,0.8,8.7,6.4,10c8,1.9,15.5,0.1,22.7-3.2c7.1-3.3,13.9-6.9,20.9-10.3C284.7,264,286.9,263,289.1,261.9z"/>
<path d="M555.4,117.7c-2-0.1-4.1,0-6.1-0.4c-9.3-1.7-13.8-11.3-9.7-20.9c1.8-4.2,4.4-8.1,5.8-12.4c4.1-12.9,30.2-23.4,41.9-18.6
	c7.3,3,13.4,7.9,18.3,13.9c3.3,4,2.6,11.1-1.6,14.3c-10.1,7.7-19.1,17.2-31.9,20.8c-5.5,1.5-11.1,2.5-16.6,3.8
	C555.5,118,555.5,117.9,555.4,117.7z"/>
<path fill="white" d="M849.8,396.7c-33.4,2.3-65.9,5.1-99,12.8c0.9-2.6,1.1-4.1,1.8-5.1c2.7-3.6,5.2-7.4,8.4-10.4
	c5.2-5,8.3-11.2,12.3-17c7-10.4,14.4-20.6,22.3-30.3c2.7-3.3,4-6.5,3.6-10.4c-0.6-6.6,2.1-12,5.8-17.1c0.4-0.5,0.8-1.1,1.3-1.4
	c7.7-5.2,15.4-10.3,23.2-15.6c2.2,2.7,0.8,4.7,0.3,6.6c-1.8,8.3-4.6,16.6-5.2,25c-0.9,12.2,0.3,24.3,7.4,35c0.6,0.9,0.9,2.1,1.7,2.7
	c7,4.9,8.9,13.4,13.9,19.7C848.5,392.4,848.8,394.2,849.8,396.7z"/>
<path fill="white" d="M846,246.6c-1.9,2.6-2.8,4.7-4.4,5.7c-4,2.7-4.1,6.1-2.6,10.1c0.4,1,0.6,2.1,1.1,3c2.8,5.2,0.1,6.7-4.5,7.7
	c-8.1,1.8-16.1,4.1-24.2,5.8c-4.5,0.9-9.3,1.3-13.9,1.1c-4-0.1-5.6-2.5-4.9-6.5c1.2-7.1,2-14.3,5.6-20.9c1.5-2.7,2-6,2.5-9.1
	s1.9-5.2,4.8-6.2c4.6-1.5,8.6-2.7,13.7,0.7c5.1,3.4,11.9,4.2,17.9,6.1C839.7,244.9,842.3,245.5,846,246.6z"/>
<path fill="white" d="M490.7,319.6c-1.4-2.7-2.1-4.7-3.3-6.3c-2.3-2.9-6.3-2.4-6.7,1.1c-0.9,6.7-5.4,7.8-10.6,8.6
	c-2.5,0.4-5,0.9-7.5,1.1c-5.3,0.4-6.3-0.6-6.2-6.1c0-0.7,0-1.4,0-2c0-0.2-0.2-0.4-0.4-0.9c-2.9-2-5.8-0.7-6.4,2.1
	c-2,9.6-9.4,10.8-17,11.9c-2.4,0.4-4.9,0.7-7.9,1.1c-0.9-4.5-1.7-8.6-2.6-13.3c-4.9,2.9-8.6,5.6-8.7,11.2c-0.1,3.8-2.5,4.8-5.7,5.6
	c-4.5,1.1-9,2.6-13.5,4c0.2,4.5,2.9,4.5,5.3,4.3c2.9-0.3,5.8-1.1,8.7-1.6c3.3-0.6,5.2,0.5,6,3.9c1,4.4,2.4,8.7,3.8,13.6
	c-1.3,0.4-2.7,0.9-4.2,1.2c-6.8,1.8-13.7,3.4-20.5,5.4c-2.3,0.7-4.3,2.3-6.4,3.6c-1.1,0.7-2.1,1.8-3.3,2.4c-6.5,2.8-8.9,1.1-8.3-6
	c1.1-11.6,1.6-23.2,4.8-34.5c1.3-4.5,1.1-9.5,1.7-14.3c0.9-7.4,3.3-9.6,10.6-9.6c2.1,0,4.2-0.4,6.2,0c16.5,3.7,33.3,1.5,49.9,2.6
	c11.5,0.7,23.2-1.1,34.8-2.2c8.4-0.8,16.7-2.5,25.1-3.5c7.9-0.9,10.6,2.4,8.8,10.1c-0.6,2.3-1.8,3.6-4.1,3.9
	C505.8,317.7,498.3,318.6,490.7,319.6z"/>
<path fill="white" d="M451.8,348.9c-8.7,3.4-17,5.4-25.4,7.1c-2.3,0.5-4.1-0.9-4.3-3.3c-0.3-3.6-0.7-7.3-0.3-10.9
	c0.2-1.6,2-3.9,3.5-4.3c5.2-1.5,10.6-2.6,15.9-3.4c3.2-0.5,5.6,0.8,6.6,4.4C448.7,341.6,450.2,344.7,451.8,348.9z"/>
<path fill="white" d="M486.1,339.7c-0.5-1.8-0.7-2.3-0.7-2.7c0.6-9.7,0.7-9.9,10.5-11.6c4.2-0.7,8.5-1.3,12.8-1.7
	c2.7-0.2,4.9,0.5,5.2,3.9c0.4,4-1,8.1-3.7,8.6C502.3,337.5,494.3,338.5,486.1,339.7z"/>
<path fill="white" d="M481,341.2c-6.8,1.7-13.1,3.5-19.5,4.7c-1.2,0.2-3.5-1.2-4.2-2.5c-1.2-2.1-1.6-4.7-2.1-7.2
	c-0.6-2.8,0.8-4.4,3.4-4.9c4.9-0.9,9.9-1.7,14.8-2.5c3.3-0.5,5.2,1,5.8,4.2C479.7,335.3,480.2,337.5,481,341.2z"/>
<path fill="white" d="M653.7,223.8c-3.4,2.6-6.7,5.3-10.4,8.1c3.7,3.8,5.5,7.1,5.6,11.4c0.1,4.7-3.5,8.2-8.1,7.1
	c-4.9-1.2-9.7-2.5-14.6-3.4c-9.9-1.8-17.9-6.7-24.2-14.3c-4.5-5.4-4.2-9.3,1.3-13.4c6.1-4.6,12.8-7.9,20.6-8.4c0.7,0,1.5,0.1,2-0.1
	c7.8-3.7,14.5,0.1,21.4,3C651.7,215.6,652,219.4,653.7,223.8z"/>
<path fill="white" d="M567.7,356.8c1.9-4.9,3.4-9.1,5.1-13.3c5-12.2,9.9-24.5,15.1-36.6c1.6-3.8,4-7.4,9-10c0.4,2.5,0.9,4.4,0.9,6.3
	c0.1,5-0.1,10,0.1,15c0.6,12.2,6.3,22.2,13.6,31.4c1.1,1.4,2.1,2.8,3.4,4.6c-5.5,2.3-10.4,0.2-15.3,0.6c-5.2,0.5-10.5,0.7-15.7,1.2
	C579.2,356.6,574.4,358.6,567.7,356.8z"/>
<path fill="white" d="M221.1,289.1c-4,30.4,5.4,55.6,26.2,77.1c-13.3,8.8-26,17.1-38.6,25.4c-3.3-3-8.6-13.6-10.5-19.7
	c-5.5-17.8-2.5-34.7,4.9-51.3c3.5-7.9,7-15.8,10.7-23.7C215.1,294.2,216,291,221.1,289.1z"/>
<path fill="white" d="M243.6,232c-5.1-1.9-9.9-3.6-14.6-5.6c-2.4-1-2.4-3.6-1.2-5.3c3.4-4.4,3.9-11.5,11-12.6
	c7-7.6,17.5-6.9,26.2-10.7c3.1-1.4,7.9,0.5,11.8,1.6c2.6,0.7,3.4,3.4,1.5,5.5c-7.7,8.2-13.6,18.5-24.3,23.6
	C250.8,230,247.3,230.8,243.6,232z"/>
<path fill="white" d="M560.2,103.6c-0.3-0.1-2.1-0.3-3.8-0.9c-5-2-6.2-6.3-2.6-10.3c5.1-5.6,11.6-9.3,19.3-8.9c3.9,0.2,7-0.1,9.8-3.1
	c2.2-2.3,9.9-1.2,11.9,1.2c1.8,2.1,1.6,5.8-1.1,8c-3.7,2.9-7.7,5.8-12.1,7.7C575.3,100.1,569.1,104,560.2,103.6z"/>
</svg>
