<?xml version="1.0"?>
<!-- 24.1.30 valle -->
<svg xmlns="http://www.w3.org/2000/svg" xml:space="preserve"
	 width="1000" height="600"
	 viewBox="0 0 1000 600">
<rect opacity="0" width="1000" height="600"/>
<path d="M755.8,238.1c-8.7,0.6-16.5-1.7-23.8-5.6c-7.7-4-13.5-10.3-18.9-18.2c-2.4,6.2-3.4,11.6-3.4,17c0,6-2,10.6-6.9,14.2
	c-3.9,3-7.3,6.6-9.1,11.5c-0.4,1.2-1.5,2.2-2.5,3.1c-8.3,8.2-15.5,17.2-20.2,28.1c-1.3,3.1-3.6,5.8-5.2,8.8
	c-1.8,3.5-1.3,4.6,2.5,5.8c2.7,0.8,5.6,1.3,8.3,2.2c2.5,0.8,5.2,1.4,6.9,4.8c-4.4,1.2-8.3-0.2-12.3-0.6c-3.9-0.3-7.9-0.1-11.9-0.1
	c-0.9,2.3-1.8,4.3-3.1,7.6c-0.6-3.4-1-5.5-1.4-8.2c-4.9,1.4-9.4,2.7-14.5,4.2c0.3-1.3,0.3-2.6,0.9-3.2c3.2-3,6.5-5.8,9.8-8.6
	c2.6-2.2,5.4-4.2,8.1-6.4c0.9-0.7,1.9-1.5,2.3-2.5c5.2-13.7,15.8-23.6,24.4-34.8c4.1-5.3,8.5-10.3,12.3-15.7c1.4-2,2.4-5,2.2-7.4
	c-0.9-10.4,0.5-20.5,1.5-30.7c0.7-7.3-0.6-14.8-0.7-22.1c-0.1-4.7,0.4-9.4,0.5-14.1c0-2.1-0.4-4.3-0.7-6.4
	c-0.4-0.1-0.8-0.1-1.1-0.2c-1.7,2.6-3.4,5.1-5.5,8.3c-1-1.5-2.1-2.3-2.1-3.2c0-6.8-0.8-13.7,3.3-19.9c2.6-4.1,4-8.7,0.9-14.2
	c-2.4,1.6-5.1,2.7-6.9,4.6c-3.3,3.6-6.4,7.5-9.1,11.6c-3.5,5.2-6.7,10.6-9.7,16.1c-1.7,3.2-3.6,6.6-3.8,10.1
	c-0.5,6.7-1.8,13.5-0.2,20.3c0.3,1.1,0.7,2.2,1.2,3.2c2.5,5.1,5.1,10.1,7.8,15.5c-4,1.4-6.7-0.4-9.4-2.5
	c-8.5-6.8-9.6-15.9-8.1-25.9c1.9-13.3,6.7-25.8,12.1-38c1.9-4.1,3.1-8.6,4-13c1.1-5.7-1.4-8.4-7.3-7.9c-2.6,0.2-4.5,0.1-5.7-2.3
	c-1.1-2.2-0.2-4.1,1.3-5.8c1.2-1.5,2.2-3.2,3.8-4.3c4.4-3.1,5.8-7.9,7.6-12.4c1.3-3.3,0.5-4.9-3.1-5.9c-2.7-0.8-5.6-1.1-8.4-1.6
	c-3.6-0.6-7.2-1-10.7-1.6c-2.5-0.5-5-1.3-5.5-4.2s1.7-4.5,3.8-5.9c9.5-6.5,20-11,30.9-14.6c2.2-0.7,4.2-1.6,6.7-2.6
	c-1-5.2,2.4-6.9,6.2-8.6c4.2-1.9,8.2-4.1,12.1-6.5c5.6-3.3,11.3-3.3,16.9-0.7c2.9,1.4,5.7,1.4,8.2-0.1c6.6-4,12.4-1.1,18.3,1.6
	c1,0.5,1.8,1.5,2.8,2c3.1,1.7,4.8,1.4,7.7-1c3.1-2.5,6.3-4.9,9.6-7.2c1.5-1,3.3-1.6,5.5-2.7c0.2,3.3-1.7,4.8-3.2,6.3
	c-1.9,1.9-3.8,3.8-5.7,5.6c-2.1,2.1-1.7,4.1,0.2,6c4,4,8.3,7.1,14.6,5.3c2.9-0.8,6-0.8,9.1-0.9c1.1,0,2.2,0.7,4.3,1.5
	c-4.3,2.7-8.1,3.6-11.9,4.5c-5,1.3-5.3,1.3-4.6,6.4c0.8,5.6-2.6,8.8-6.3,12.1c0.8,3.5,2.9,5.8,5.7,7.6c2.9,1.9,5.7,3.9,2.7,7.5
	c1.8,1.9,3.1,3.4,4.5,4.8c-0.1,0.4-0.2,0.8-0.4,1.2c-1.7-0.1-3.5-0.3-5.2-0.3c-4.4,0.1-8.7,0-13,0.5c-3.7,0.4-6.4,2-9.2,5.4
	c-3.3,3.9-9,6-13.9,8.4c-2.1,1.1-5.2,0.5-5.9,3.6c-0.7,3.3-0.3,6.4,2.6,8.8c1,0.8,1.7,1.8,2.7,2.9c-2.7,2.9-5.7,0-8.7,1
	c2.7,5.4,5.6,9.8,11.9,11.2c8.3,1.9,16.2,0.6,24.4-0.5c8.9-1.3,16.6-4.8,23.7-10.4c8.6-6.8,18.6-11.2,28.6-15.4
	c4-1.7,7.9-3.5,11.8-5.3c0-0.4-0.1-0.8-0.1-1.2c-5.3-0.9-10.5-1.9-15.8-2.8c-0.7-0.1-1.6,0-2.3-0.3c-10.9-3.9-12.3-4.9-8.8-15.3
	c0.8-2.5,1.4-5.2,2.6-7.6c1.2-2.3,3.1-4.2,4.7-6.2c1.1-1.3,2.4-2.5,3.4-3.8c6.1-8.8,14.6-12.4,25.2-11.4c4.2,0.4,8.3,0.9,12.1,2.9
	c2,1,4.3,1.8,6.5,2.1c7,0.9,12.2,4.1,15,10.8c0.6,1.5,1.6,2.9,2.4,4.3c-6.6,8.2-13.2,18.6-12.1,26.9c-0.6,0.2-1.4,0.8-2,0.7
	c-5.4-1.1-9.8,1.2-14.6,3.3c-6.4,2.9-13.3,4.6-19.9,7c-3.2,1.2-6.4,2.5-9.4,4.2c-8,4.4-15.9,8.9-23.8,13.5
	c-3.9,2.3-7.7,4.8-11.5,7.3c-3.5,2.4-7.1,3.8-11.6,3.5c-3.2-0.2-6.4,0.6-9.6,1.3c-5,1-10.1,2.1-15.1,3.3c-5.9,1.4-6.8,4-3,8.8
	c1.3,1.6,2.8,3.1,4.3,4.6c10.8,10.5,22.8,17.6,38.7,16.2c6.2-0.6,12.5,0.3,18.8,0.4c2.6,0,5.3-0.3,8-0.5c2.8-0.2,5.7-0.7,8.1,1.6
	c-0.4,0.6-0.6,1.4-1,1.4c-6.2,1-10,5.9-15,8.8c-2.5,1.5-2.3,3.6-1.1,5.9c5.4,10.3,10.2,20.9,16.2,30.8c4.3,7.1,10.4,13.1,15.7,19.5
	c1.9,2.3,4.2,4.5,5.9,6.9c1.6,2.3,2.7,4.9,1.3,7.8c-0.8-0.1-1.3,0-1.5-0.2c-8.3-9.2-16.9-18.1-24.6-27.7
	c-4.4-5.4-7.4-11.9-10.8-18.1c-2.7-4.8-5-9.8-7.5-14.7c-1.2-2.4-3.2-3.7-5.6-2.4c-6,3.2-13.2,4.3-17.8,9.8c-1,1.2-2.2,2.8-2.2,4.3
	c-0.1,7.1-2.7,13.4-5.1,19.8c-2.5,6.8-5.1,13.5-7.8,20.3c-6,15-8.5,30.8-10.8,46.7c-0.8,5.4-0.1,11-0.1,16.8
	c-3.2-0.1-3.5-2.2-4.1-4.1c-4.1-12.4-1.5-24.8,0.2-37.1c1-7.1,2.8-14.2,4.9-21.1c2.1-6.9,4.8-13.6,7.6-20.3
	c1.2-2.9,1.3-5.2-0.6-7.9L755.8,238.1z"/>

<path d="M482.2,124.6c-2.3-2.5-4.6-5.2-7.4-8.3c-10.4,2.7-21.3,6.2-31.7,12.9c-0.2-4,1.6-5.9,3.9-7.1c5.9-3,11.9-5.8,18-8.5
	c2.8-1.2,5.8-1.9,8.7-2.8c4.9-1.5,4.9-1.6,4.6-6.7c0-0.9,0-1.9,0-3.5c-3.2-0.3-6.4-0.6-9.5-0.7c-3.8-0.2-7.6-0.3-11.3-0.2
	c-4.2,0.2-7.3-2.2-9.1-5c-2.1-3.3-4.5-4.9-7.9-5.8c-0.4-0.1-0.8-0.7-1.7-1.6c4.4-1,8.2-0.4,12,0.3c3,0.5,6,1.3,9,1.4
	c2.2,0.1,4.8-0.3,6.5-1.4c3.9-2.7,8.3-3.7,12.8-4.3c4.3-0.6,8.7-1.3,13-1.8c5.4-0.7,6.3-1.6,6.6-6.6c0.3-5.8-0.9-7.5-6.3-8.7
	c-0.8,3.1,2.4,6.6-0.9,9.6c-0.6-0.4-1.3-0.7-1.5-1.1c-5.1-13.5-15.6-21.8-27.7-28.3c-8.1-4.3-16.3-8.2-24.5-12.4
	c-1.6-0.8-3.2-1.8-4.8-2.6c0.1-0.4,0.3-0.8,0.4-1.2c2.7,0.6,5.5,0.8,7.9,1.8c6.7,2.7,13.5,5.4,19.8,8.9c5.2,2.9,10,3.8,15.6,0.3
	c-3.3-3.6-7.9-5.1-11.8-7.6c-1.8-1.1-3.7-2.1-5.7-2.6c-5.2-1.4-8-5.4-10.7-10.3c1.7,0.4,3.4,0.8,5,1.3c5.1,1.4,10.3,2.7,15.3,4.4
	c2.7,0.9,5.2,2.3,7.7,3.7c7.7,4.3,16,5.7,24.9,5.4c-6.1-3.6-12.2-7.2-18.3-10.8c-6.1-3.6-12.3-7.3-18.4-10.9
	c0.2-0.4,0.3-0.8,0.5-1.1c1,0.2,2.1,0.2,3.1,0.6c8.8,3.1,17.2,7.2,25.3,11.9c9.7,5.7,19.7,10.7,30.5,14c0.9,0.3,1.9,0.6,2.5,1.3
	c3.6,4.4,8.4,4,13,3.2c5.5-1,8.8,0,11.9,4.7c1.3,2,2.5,4.2,3.7,6.3c-3.9,4.6-3.5,9.2,1.6,14.1c4.9,4.6,9.3,9.5,12.1,15.8
	c3.1,7,0.4,11.1-6.9,13.4c-4.9,1.5-11,1.4-14.3,6.8c-0.7,1.2-2.9,1.5-4.5,2.1c-4.7,1.7-9.3,3.2-11.4,8.6c-0.8,2.1-2.9,3.7-5.2,6.4
	c2.7,0.4,4.4,0.8,6.2,0.9c15.1,0.5,30,2.3,44.9,4.8c16.2,2.7,32.1,6.5,48,10.5c4.1,1,8.1,2.4,12,3.8c1,0.4,1.6,1.8,2.3,2.7
	c-1.3,0.6-2.5,1.3-3.8,1.8c-0.3,0.1-0.7-0.2-1.1-0.3c-16.7-6.2-34-10.1-51.5-12.5c-13.4-1.9-26.9-2.7-40.3-4.2
	c-4.5-0.5-8.9,2-13.4,0.1c-0.5-0.2-1.3,0.6-2,0.9c-3.1,1.6-6.3,2.8-9.9,1.5c-0.5-0.2-1.2-0.2-1.7,0c-9.2,3.4-19.4,5.2-24.5,15.2
	c0.5,2.3,2.2,2.9,4.3,2.6c17.8-2.1,35.8-1.9,53.7-1.7c15.2,0.2,30.5,0.5,45.7,1.2c5.3,0.2,10.5,1.6,15.8,2.4c0.7,0.1,1.6,0.4,2,0.9
	c0.6,0.8,1.2,1.9,1.2,2.9c0,0.5-1.4,1.4-2.2,1.4c-2.5,0-4.9-0.3-7.4-0.6c-5.1-0.7-10.1-2-15.2-2c-15.8-0.3-31.6-0.5-47.4,0
	c-10.6,0.3-21.4,1-31.7,3c-7.8,1.6-15.6,2.9-23.5,3.5c-1.1,0.1-2.4,0.4-3.2,1c-12,10.3-23.6,21-31.3,35.2
	c-3.3,6.2-7.5,11.9-11.2,17.9c-1.7,2.7-3.4,5.5-4.7,8.5c-3.1,7.1-6.1,14.3-8.9,21.6c-0.8,2-1.2,4.5-0.9,6.6c0.4,2.9-0.4,4.9-2.6,6.5
	c-3.9,2.8-7.7,5.6-11.6,8.3c-4.6,3.3-9.3,6.6-13.9,10c-1.5,1.1-2.5,2.8-4,4c-1.8,1.6-3.7,3.1-5.7,4.4c-1.2,0.9-2.9,1.1-4,2.1
	c-6.3,5.8-12.7,11.5-18.8,17.5c-4.6,4.5-8.7,9.5-13,14.2c-1,1.1-2.1,2.2-2.9,3.5c-1.7,2.7-2.6,6.1-4.8,8.2c-2.4,2.2-4.7,4.2-6.5,6.9
	c-0.8,1.2-2.1,2.6-3.3,2.9c-14.6,2.7-26,11.5-37.6,19.8c-14.1,10.1-27.9,20.6-41.8,30.9c-3.2,2.4-6.6,4.6-10,6.6
	c-1.1,0.6-2.8,0.2-4.2,0.3c0-1.6-0.6-3.6,0.1-4.7c2.1-2.9,4.6-5.7,7.3-7.9c8.4-6.9,16.9-13.6,25.5-20.3c3.1-2.4,6.6-4.5,9.9-6.6
	c10.2-6.6,20.5-13.2,30.7-19.8c5.1-3.3,10.6-6.1,15.3-9.8c5.9-4.7,11.8-9.8,16.7-15.5c9-10.8,17.4-22.2,25.9-33.4
	c3.8-5,7.6-10,11.3-15.1c1.1-1.5,2-3.1,3.5-5.3c-2.1-0.8-3.6-1.5-5.2-1.9c-13.7-3.3-27.4-6.4-41-9.8c-3.4-0.9-6.8-2.5-9.9-4.3
	c-4-2.5-6.8-6.1-7.1-11.1c-0.2-2.9-1.9-4.2-4.5-3.9c-13.1,1.2-26.2-0.5-39.3,1.7c-11.6,2-23.4,3.1-34.9,5.9
	c-11.3,2.7-22.6,5.2-33.9,7.6c-3.6,0.8-7.4,0.9-12.4,1.5c0.9,0.4,0.4,0.3,0.3,0.1c-3.5-7.6-11.7-10.4-16.7-16.7
	c-4.8-6-11-11.1-16.7-16.4c-9.3-8.7-18.7-17.4-28.3-25.8c-5.1-4.6-10.6-8.7-15.8-13.1c-1.9-1.6-4.8-3.2-2.9-5.9
	c1.9-2.9,4.6-0.6,6.5,0.6c2.8,1.9,5.2,4.4,7.8,6.6c8.8,7.3,17.7,14.5,26.5,21.8c8.4,6.9,16.5,14.1,25.2,20.7c4,3,8.8,5.2,13.5,7.2
	c14.8,6.5,30.3,4.5,45.5,2.9c7.7-0.8,15.4-2.6,22.9-4.7c4.9-1.4,9.4-4.1,13.9-6.5c1.1-0.6,2.2-1.7,2.7-2.9c3.5-7.4,9.7-12.5,15.3-18
	c6.7-6.5,13.8-12.6,21.1-18.3c6.9-5.3,13.8-10.6,23-12c9.6-1.4,19-4,28.6-5.6c6.6-1.1,13.2-1.7,19.9-1.9c15.2-0.6,30.5-0.8,45.7-1.5
	c3.1-0.1,6.4-1.3,9.1-2.8c6-3.6,11.7-7.8,17.5-11.8c0.6-0.4,1.2-0.9,1.9-1.3C472.6,135.4,477.7,130.8,482.2,124.6z"/>
<path d="M634.1,451.4c-0.8,1.9-1.6,3.7-2.3,5.6c-1.5,3.9-3,7.8-4.3,11.8c-1.5,4.8-4.9,7.5-9.1,9.7c-16.4,8.1-32.6,16.5-48,26.5
	c-2.1,1.4-4.6,2.3-7,3.4c-0.3-0.3-0.6-0.7-0.8-1c0.8-1.1,1.4-2.4,2.5-3.2c7.6-5.4,15.1-11,22.9-16s16-9.5,24.1-14.2
	c4.2-2.4,7-5.9,8-10.6c1.3-5.9,2.8-11.9,3.6-17.9c0.6-4.6-0.3-4.9-4.6-6.5c-5.1-2-10-4.4-15.9-7c2.5-1.9,4.3-2.9,5.6-4.4
	c3.6-3.6,7.2-7.3,10.4-11.2c9.5-11.9,14.5-26.3,21-39.8c2.4-5,4.9-9.9,7.2-14.9c1.5-3.2,1.4-3.2-0.6-7.2c-4.5,2.8-7.2,7.2-10.9,10.6
	c-3.6,3.3-5,9-10.6,10.1c-2.1-2.7-0.7-4.6,0.5-6.2c3.6-5.4,7.6-10.5,11.1-15.9c2.4-3.8,4.3-7.9,6.2-11.3c-2-3.5-3.4-6-4.9-8.8
	c-4.1-1-9.2,5.2-12.4-1.8c-2.7,0.9-5,1.7-7.3,2.5c-2,0.7-3.8,1.5-6,0.1c-2.3-1.5-3.8,0.6-5.6,1.6c-1.9,1-3.9,3.7-6,1.5
	c-2.4-2.6,0.7-4.4,2.2-6.1c2.1-2.4,4.5-4.7,6.8-6.9c1.8-1.8,3.1-3.6,3.3-6.4c0.1-1.6,1.4-3.5,2.8-4.6c3.4-2.7,7.1-5.1,10.7-7.6
	c3.3-2.2,6.5-4.3,8.4-8.2c1.1-2.4,3.5-4.8,5.8-6.1c9-5.1,16.5-12.2,24.7-18.3c6.6-4.9,13.7-9,20.6-13.3c0.8-0.5,2-0.5,3.6-0.9
	c-1,3.7-3.5,5.1-5.6,6.9c-1.9,1.6-4,3-5.7,4.7c-0.8,0.8-1.6,2.7-1.2,3.4c0.6,1.1,2.2,1.9,3.5,2.4c1,0.3,2.2-0.1,3.4-0.2
	c1.5-0.2,3-0.5,4.5-0.5c7.9-0.2,12.6,4.8,11.9,12.5c-0.2,2-0.6,4.3-1.7,6c-3.7,5.8-7.4,11.5-11.6,16.9c-3.2,4.2-7.2,7.8-10.7,11.9
	c-1.7,2-3,4.3-4.2,6.7c-1.1,2.2-1.9,4.6-2.6,6.9c-0.5,1.5-0.6,3.1-1.2,5.6c2.1-0.9,3.3-1.2,4.1-1.8c5.8-4.7,11.7-9.1,17.1-14.2
	c11.5-10.9,22.6-22.2,33.9-33.2c3.5-3.4,7.1-6.8,10.9-10.4c1.1,2.2-0.1,3.8-1.5,5.3c-5.9,6.5-11.8,13-17.8,19.4
	c-8.7,9.3-17.6,18.5-26.3,27.9c-7.8,8.3-15.4,16.9-23.3,25.2c-4.5,4.7-4.9,10.2-4.7,17.1c6.7-3.1,11.3-7.3,15.6-11.8
	c7.9-8.2,15.8-16.5,23.8-24.6c10.2-10.4,21.7-19.1,33.3-27.9c4.5-3.4,9.1-6.6,15.3-7.6c-0.7,1-1.1,2.2-2,2.9
	c-11.7,9.4-24,18.2-35.1,28.3c-12.1,11-23,23.3-34.4,35.1c-4.1,4.2-7.8,8.9-12.3,12.8c-5.6,4.9-8,11.1-8.3,18.2
	c-0.6,14.5-0.2,29,2.6,43.3c0.8,4.1,0.3,4.8-3.7,4.9c-8.5,0.3-8.9,0.3-9.3,8.9c-0.6,12.9-0.9,25.9-1,38.8c0,6.5-1.4,12.2-5.3,17.7
	c-3.6,5.1-6.4,10.8-9.5,16.3c-10.4,17.9-20.8,35.7-31.4,54.1c-0.1-1.2-0.4-2.3-0.1-3.1c1.8-4.8,3.3-9.8,5.6-14.3
	c6.4-12.4,13.2-24.5,19.7-36.8c7.2-13.6,13-27.6,12.9-43.4c0-3.2-0.4-6.4-0.6-9.7c-0.4-7.8-0.8-15.6-1.2-23.3c-0.1-1.3,0-2.6,0-3.8
	C635.1,451.7,634.6,451.5,634.1,451.4z"/>
<path fill="white" d="M838,79.1c7.8-0.5,19.9,8.8,19.2,19c-0.1,0.9-0.1,2.2-0.7,2.7c-3.9,3.1-7.4,7.2-13.2,6.9
	c-2.6-0.2-5.3-0.4-7.9-0.5c-7.6-0.4-12.4-9.6-8.5-16.3c1.4-2.5,3.2-4.8,4.3-7.4C832.5,80.1,834.9,78.9,838,79.1z"/>
<path fill="white" d="M742.6,102.8c-3.8-4.1-4.2-8.6-4.6-12.8c-0.4-3.5,1.8-6,5.3-6.9c4.2-1.1,6.4-4.6,9-7.5c1.7-2,2.9-4.4,6.1-4.5
	c4-0.2,7.5,1,10.6,3.4c1.7,1.3,2.3,3.2,0.8,5C762.1,88.8,753.4,96.7,742.6,102.8z"/>
<path fill="white" d="M292.6,216.1c3.9-6.2,6.2-13.1,12.1-17.8c4.3-3.4,8-7.6,12.3-11.1c8.4-6.9,18.6-10.3,28.7-13.8
	c6.3-2.2,12.7-4,19.2-5.6c12.3-3,24.8-4.1,37.4-4.5c10.9-0.3,21.7-0.7,32.6-1.1c7.1-0.2,13.9-2.1,20.5-4.6c1.6-0.6,3.1-1.5,4.4-2.7
	c5.7-5.3,11.3-10.7,16.9-16.2c5-4.9,9.9-10,15.1-14.7c5.1-4.8,12-4.7,19.5-7.2c-1.2,2.3-1.5,3.4-2.1,4c-4.8,4.6-9.8,9.1-14.5,13.8
	c-5.9,6-13.1,10.7-17.7,18.2c-3.6,5.9-9.1,10.7-14.1,15.7c-11.1,11-19,24.3-27.2,37.3c-7.6,12-11.1,25.9-16.9,38.7
	c-0.7,1.5-0.7,3.3-1,5c-0.8,4.7-3.5,6.9-8.3,6.6c-1.5-0.1-3-0.6-4.4-1.1c-10.5-3.5-21-6.9-31.4-10.5c-6.9-2.4-13.9-3.6-21.3-2.3
	c-7.4,1.3-14.3-3.3-15.8-9.9c-0.5-2.1-0.3-4.6,0.4-6.6c1.8-5.4-1-9.9-6.6-9.9c-7.2,0-14.4,0.1-21.6,0.2c-2.8,0.1-5.7,0.5-8.5,0.9
	C297.7,217.4,295.2,218,292.6,216.1z"/>
<path fill="white" d="M517.2,100.1c-2.9-4.8-5.2-8.5-7.7-12.6c1.7-0.7,3.3-1.2,4.7-1.9c2.8-1.4,3.3-3.6,1.3-6c-2.1-2.4-5.7-4.3-5-7.8
	c0.6-2.8,2.8-5.3,4.2-8c0.5-1,0.8-2.1,1.3-3.3c-1.6-1.4-3.1-2.6-5-4.1c3.7-2.8,6.9-1,9.8,0.3c3,1.3,5.6,3.2,8.5,4.6
	c2.1,1,4.4,1.6,6.7,2.3c0.2-0.3,0.4-0.6,0.6-1c-0.8-1.5-1.6-3.1-2.5-4.7c2.2-1.2,3.6-0.1,4.9,1.4c3.3,3.9,6.7,7.8,10.1,11.6
	c3.5,4,7.2,7.9,10.6,11.9c1.4,1.6,2.3,3.7,3.8,6.3c-2.6,0-4.1-0.2-5.5,0.1c-1.4,0.3-3.2,0.7-4,1.7c-2.6,3-6,4.2-9.5,4.8
	C535.4,97.4,526.1,98.7,517.2,100.1z"/>
<path fill="white" d="M659.1,351.7c-5.5,29.1-10.5,58-5.6,88.7c-3.9-1-7-0.9-8.8-2.3c-5.3-4.4-11.7-5.4-17.8-7.2
	c-1.1-0.3-2.1-0.7-3.9-1.3c5.8-13.4,11.5-26.6,17.1-39.8C645.5,376.7,651.1,363.7,659.1,351.7z"/>
<path fill="white" d="M666.5,323.2c-3.2-3.7-5-7.3-2.7-11.7c2.1-3.8-0.8-5.9-2.9-8.2c0.4-3.5,3.3-4.6,5.4-6.5
	c2.5-2.3,5.6-4.1,4.1-8.5c-0.3-0.8,1.7-3.2,2.9-3.5c4.9-1.3,9.9-2.7,15-2.9c5.1-0.2,6.9,3.3,4.8,8.1c-5.2,12.1-13.1,22.2-22.9,30.9
	C669.2,321.8,667.8,322.4,666.5,323.2z"/>
<path fill="white" d="M758.3,231.5c0.4-1.8,1.6-3.6,3.6-5.2c4.6-3.9,9-8.1,13.5-12.2c3.5-3.2,7.1-6.4,10.8-9.4
	c1.4-1.2,3.3-1.8,4.9-2.7c2.1-1.1,4.3-2.2,6.8-3.5c-2.5-2.4-4.8-1.5-7-1.6c-5.7-0.1-11.5,0.1-17.1-0.6c-7.1-0.9-13.2-4.6-19-8.8
	c-8.8-6.5-16.4-14.3-22.9-23c-1.3-1.7-1.8-4.2-2.3-6.4c-1.3-5.3-2.4-10.8-3.8-16.1c-0.7-2.6-0.5-4.8,0.7-7.1
	c1.1-2.2,1.1-4.4-2.3-5.8c-3.5,7.7-11.3,12.1-14.6,19.9c-1,2.4-1.7,5.1-1.9,7.6c-0.6,12.8,0.5,25.5,3.7,38
	c1.7,6.8,4.2,13.4,9.4,18.7c2.6,2.7,4.6,6.1,7.2,8.7c6.8,6.5,15.5,9.5,24.2,12.4c0.8,0.3,1.3,0.4,1.7,0.7L758.3,231.5z"/>
</svg>
