<?xml version="1.0"?>
<!-- 24.1.30 valle -->
<svg xmlns="http://www.w3.org/2000/svg" xml:space="preserve"
	 width="1000" height="600"
	 viewBox="0 0 1000 600">
<rect opacity="0" width="1000" height="600"/>
<path d="M872.5,244.9c-3.9,2.6-7.2,1.6-9.1-0.3c-4.8-4.8-9.2-9.8-9.7-17.3c-1.1-15-2.7-30-4.1-45.3c-6.6,1.9-8.1,10-14.7,14.7
	c-0.6-8.5-2.1-15.4-0.8-22.6c0.8-4.5,1-9.3,0.6-13.9c-0.4-4.7-2.3-5.9-6.9-5c-2.7,0.5-5.3,1.6-7.8,2.6c-2.6,1-5,2.5-7.5,3.5
	c-3,1.2-4.8,0.2-4.6-3c0.1-3.1,0.9-6.3,1.8-9.3c1.1-3.4,3-6.6,4.2-10c1.1-2.9,1.7-6,2.5-9c-0.4-0.3-0.8-0.6-1.2-0.9
	c-2.7,1.7-5.6,3.2-8.2,5.2c-2.8,2.2-5.7,4.6-9.1,2.6c-3.5-2-2.5-6-2.2-9.4c0.5-4.8,1-9.6,1.6-15.1c-10.6,4.6-17.5-0.5-24.6-6.6
	c-2.4,3.1-1.8,6.6-0.9,10c0.8,2.9,1.8,5.7,2.5,8.6c1.3,5.6-1.7,10.3-7.3,11c-4.8,0.6-8,3.1-11.1,6.7c-4.7,5.6-9,11.2-10.7,18.6
	c-1.2,5.1-5.5,7.2-11.3,7.9c0.9-4.7,1.9-9.3,2.9-14.5c-3.1,0-5.5,0-8.3,0c-0.7,4.6-1.1,9,0.4,13.3c1.2,3.4,2.5,6.8,3.6,10.3
	c2.3,7.3,4.2,14.8,6.8,22c3.6,9.8,4.9,20.1,7.8,30c3.1,10.5,7.1,20.5,12.5,30c6.4,11.4,13.3,22.6,19.9,33.9c2.2,3.9,4.5,7.8,6,12
	c3.5,9.6,7.9,18.9,9.5,29.1c0.3,1.7,1,3.3,1,5c-0.2,11.6,4.6,21.5,10.2,31.2c2.9,4.9,6.2,9.6,9.1,14.6c2.1,3.7,3.7,7.7,5.9,11.3
	c1.2,1.9,3.2,3.2,4.8,4.8c1.2,1.1,2.5,2.2,3.6,3.4c4.8,5.6,9.3,11.5,14.4,16.9c4.2,4.5,9.4,8,13.6,12.5c6.6,7.2,12.8,14.8,19.1,22.3
	c2,2.4,4.1,4.7,6.4,7.4c-4.2,2.7-7.6,1.9-10.4-0.7c-4.2-3.9-8.4-7.9-12-12.3c-8.6-10.4-18-19.8-28.4-28.4c-9-7.4-18.3-14.6-24-25.3
	c-2.8-5.2-7.1-9.6-10-14.7c-8.1-14.3-15.8-28.7-23.7-43.1c-3-5.4-11.1-14-15.6-16.6c-0.4,0.8-0.9,1.5-1,2.2
	c-1.9,14.6-3.9,29.2-3.3,43.9c0.3,6.2,1,12.3,2,18.4c0.6,3.5,1.4,7.3,3.2,10.3c11.7,20.9,19.4,43.6,28.9,65.5
	c1.5,3.5,3.2,7,4.7,10.5c0.5,1.3,0.8,2.7,1.4,4.6c-9-5.3-11.9-13.8-15.4-21.9c-7.5-17.4-13.9-35.3-23.2-51.9
	c-4.6-8.2-7.8-16.8-9.3-26.3c-3-19.1-7-38.1-11-57.1c-1-5-2.7-10.1-5.4-14.3c-2.3-3.6-6-6.8-9.8-8.8c-4.4-2.3-5.6-5.4-5.6-9.7
	c-0.1-10.9-0.1-21.7-0.5-32.6c-0.3-7.2-1.2-14.4-2.2-21.6c-0.7-5-3.2-8.6-8-11.5c-14-8.6-27.9-17.4-39.3-29.3
	c-6.3-6.6-11.8-14-16.9-21.6c-2.9-4.3-4.7-9.6-6.2-14.7c-1.1-4-0.9-8.3,2.5-11.6c7.8,19.7,20,35.7,36.1,48.6
	c10.1,8.1,20.9,15.3,31.7,23.1c0.7-1.5,1.3-2.2,1.4-2.9c0.3-6,0.5-11.9,0.8-17.9c0.1-2.9-1.2-4.9-3.1-7.2
	c-8.3-10-20.4-15.2-29.5-24.1c-4.5-4.5-9.6-8.4-14.5-12.5c-4-3.5-7.9-7.1-12.1-10.4c-10.9-8.8-19.7-19.4-27.1-31.2
	c-2.1-3.4-1.2-4.6,4.5-6.7c9.3,15.7,23.1,27,37.3,37.9c2,1.6,4.1,3.1,5.8,5.1c4.2,5.1,9.9,8.1,15.6,10.8c7.8,3.8,14.8,8.3,20.3,15
	c0.4,0.4,1,0.6,2.5,1.6c-0.4-7.4-0.6-14.1-1.8-20.7c-0.5-2.6-2.6-3.8-5.2-4c-2.5-0.3-5.1-0.3-7.6-0.7c-8.8-1.4-12.3-6.5-9.7-14.8
	s5.9-16.4,8.8-24.7c0.8-2.2,2-4.5,1.9-6.7c-0.5-7,4.2-10.7,8.5-14.6c3.9-3.6,8.9-3.6,13.8-3.6c2.5,0,5.2,0.5,7.6,0
	c7.4-1.8,14.8-1.5,22.3-1.2c4.3,0.1,8.5,0,12.8,0.2c5,0.3,9.9,0.9,12.2,6.4c0.4,0.9,1.5,1.5,2.4,2.4c1-0.4,2.2-0.6,2.9-1.2
	c4.4-4.3,9.3-3.3,13.5-0.5c3.9,2.7,6.6,1.7,9.8-0.6c7.1-5,14.3-10,21.5-15c1.9-1.3,4-2.5,6-3.6c7.8-4.1,12.9-1,17.2,3.6
	c3.2,3.5,5.1,8.2,7.6,12.4c1.7,2.9,3.3,5.8,4.8,8.5c-4.5,2.1-8.8,3.7-12.7,6c-6.7,3.9-6.5,12-0.5,16.8c5,4,10.6,3.7,16.3,3.7
	c2.8,0,5.6-0.5,8.3-0.2c5.1,0.5,8.3,4.2,7.3,9.3c-1.1,5.6-2.9,11.1-4.7,16.6c-2.9,8.9-6.3,17.6-8.9,26.6c-2.1,7.1-4.3,14.4-5.1,21.7
	c-1.1,10.3-1.8,20.8,1.6,31c0.5,1.6,1.1,3.2,1.5,4.9C867,237.4,868.4,241.5,872.5,244.9z"/>
<path d="M329.7,167.6c2.7,0.9,4.6,1.6,6.6,2.3c0.1,0.4,0.2,0.8,0.3,1.3c-1.8,0.7-3.6,1.6-5.4,2.2c-2.2,0.8-4.5,1.3-6.7,2.1
	c-2.6,0.8-4,2.7-3.4,5.4c1,4.3,2.4,8.4,4,13.7c3.2-2.8,5.6-4.5,7.6-6.6c10.7-11.3,21-22.9,32-34c8.5-8.6,17.6-16.7,26.6-24.9
	c8.6-7.9,17.3-15.8,26.1-23.5c2.5-2.2,5.5-3.6,8.3-5.4c2.5,3.1,0.5,4.3-1,5.7c-6.7,6-13.4,11.9-19.9,18c-6,5.7-11.9,11.5-17.8,17.4
	c-16,16.2-31.9,32.5-47.8,48.9c-2.5,2.6-4.8,5.5-6.5,8.6c-3.1,5.8-3.7,11.8-2,18.5c2.7,10.1,5.1,20.2,10.6,29.3
	c1.6,2.7,2.4,5.9,3.9,8.8c1.6,3,3.8,5.6,5.3,8.6c3.1,6,6,12.1,8.9,18.3c0.8,1.7,0.9,3.7,1.7,5.4c2.3,4.7,2.4,4.7-1.2,9.5
	c-7.6,0-15.4,0-24.1,0c-0.4,1.8-1.4,4.2-1.6,6.6c-0.8,11.3-5.5,21.4-10.1,31.4c-6.1,13.2-8.7,27.2-10.6,41.3
	c-0.9,7.1-4.1,13.1-7.2,19.6c-0.5-4.3-1.6-8.6-1.3-12.8c0.8-15.6,3.8-30.9,9.1-45.5c2-5.6,4.7-11,7.6-16.2c2.1-3.8,2.2-7,0.4-10.9
	c-1.7-3.9-3.1-7.9-4.3-12c-1.2-4.3-3.6-6.6-8-6.9c-1.9-0.1-3.9-0.2-5.7-0.6c-3.3-0.8-4.8,0.7-6.4,3.5c-1.8,3.2-4.5,6.3-7.5,8.3
	c-13.4,9.1-26.9,17.9-40.6,26.6c-6.8,4.3-13.5,9-22.4,9c4-3.1,7.8-6.5,11.9-9.4c9.4-6.7,18.9-13.1,28.3-19.7
	c4.7-3.3,9.6-6.4,13.9-10.2c5.2-4.6,4.5-12.3-1.1-16.1c-3-2-6.2-3.9-9.5-5.2c-5.4-2.1-6.6-4.7-5.3-10.5c2-8.9,7.4-16.2,11.2-24.3
	c4.4-9.4,8.5-19,12.7-28.6c0.3-0.7,0.3-1.6,0.6-3.3c-2,0.2-3.7-0.1-5,0.5c-3.1,1.4-5.9,3.3-9,4.9c-5.1,2.7-10.1,5.4-15.3,7.9
	c-5.9,2.8-12.1,4.9-17.8,8.4c-6.6,4-14.2,6.8-23.8,5.7c1.9-1.7,2.8-2.8,3.9-3.3c11.9-5.7,24-11.2,35.8-16.9
	c11-5.3,21.7-11,30.5-19.6c1.1-1,2.1-2.1,3.1-3.2c0.4-0.5,0.4-1.2,1-2.9c-1.6-0.9-3.6-2.1-5.9-3.4c3.1-3.3,5.3-5.7,8.4-9
	c-2.9-1.2-4.9-2.7-6.8-2.6c-5.1,0.1-10.2,0.7-15.1,1.6c-3.3,0.6-6.4,2.4-9.7,3.2c-2.4,0.6-5.3,1.2-7.5,0.4c-4.6-1.6-8.3-0.6-12,1.9
	c-1.2,0.7-2.6,1-3.9,1.5c-1.8-2.2-0.6-3.5,0.7-4.6c4-3.5,8.1-6.9,12.1-10.4c4.7-4,9.4-8,14-12.1c0.9-0.8,1.3-1.9,2.1-3.1
	c-5.3-3.5-10.4,3.4-15.8-0.7c1.2-1.3,2-2.5,3.1-3.2c3.2-2.1,6.4-4.5,9.9-5.8c7.4-2.7,12.4-7.9,16.8-14.7c-0.8-1.4-1.7-3-2.6-4.6
	c-5.6,1.6-10.8,3.1-16.9,4.8c0.6-2,0.6-3,1-3.5c8.1-9.7,17.6-17.7,29-23.2c5.3-2.6,10.5-5.6,13-11.7c0.7-1.8,3-3,4.4-4.5
	c3.4-3.5,6.8-7,10-10.6c3.5-3.9,5.5-4.3,10.5-2.5c1.5,0.6,3.4,0.9,4.9,0.5c3.5-0.8,5.9,0.5,7.7,3.2c2.2,3.3,5.4,4.3,9.1,5.2
	c7.6,1.9,15.2,4.1,22.7,6.4c3.8,1.1,6.8,3.5,8.6,7.1c2.9,5.7,2.8,9.1-1.7,13.8c-6.6,7-13.7,13.4-20.2,20.4
	c-7.1,7.6-15.7,12.8-24.3,18.3C332.8,154.4,330.7,160.5,329.7,167.6z"/>
<path d="M597.3,150.7c-5,3.2-9.7,5.3-13.3,8.7c-11.9,11.2-25.2,21.1-35.9,33.6c-2.3,2.7-5.5,4.7-8,7.4
	c-10.3,11.1-20.5,22.3-30.6,33.5c-4,4.4-7.7,9.1-11.8,13.4c-2.7,2.9-4.8,6-4.1,10.5c-6.5,0.6-10.4,5-14,9.4
	c-16.4,19.3-31.6,39.7-45.9,60.6c-3,4.4-5.6,8.9-6.7,14.3c-0.8,3.7-3.7,7-5.8,10.4c-8.9,13.9-9.9,29.6-10.4,45.4
	c-0.2,4.3-0.8,8.5-0.7,12.8c0.2,7.6,0.7,15.3,1.2,22.9c0.1,2.1,0.8,4.3,0.7,6.3c-0.7,10.5,1.8,20.8,2.6,31.1
	c0.1,1.7,0.5,3.4,0.5,5.1c-0.1,4.3-1.4,5.7-5.6,6.2c-2.8,0.3-5.5,0.7-8.3,0.8c-3.5,0.2-5-1-4.7-4.4c1-10.8,2.3-21.6,3.4-32.4
	c0.2-1.9,0.8-3.8,0.8-5.7c0-22,0.2-43.9-0.1-65.9c-0.2-16.2-1.1-32.4-1.4-48.6c-0.1-4.7,0.4-9.4,0.6-14c0.2-7.7,0.3-15.3,0.7-23
	c0.7-12.1,1.8-24.2,2.3-36.4c0.5-10.7,0.9-21.3,0.4-32c-0.6-13.5,8.2-18.7,20.6-21.9c3.9-1,5.3,0.9,4.4,5.3
	c-1.4,6.9-2.9,13.8-4.2,20.7c-0.4,2.4-0.1,4.9-0.1,8.3c2.3-0.8,3.9-1.1,5.2-2c3.9-2.6,7.7-5.3,11.5-8.1
	c13.7-9.7,27.4-19.6,41.2-29.2c13.9-9.6,26.7-20.5,39.2-31.8c15.2-13.7,30.3-27.6,46-40.6c7.6-6.3,14.2-13.3,20.8-20.7
	c3-3.4,4-6.8,3.7-11c-0.4-5.5-0.6-11.1-0.8-16.6c-0.2-5.3,0.7-6.2,6-6.9c3.2-0.4,6.3-1.1,9.4-1.5c2.1-0.2,4.3-0.4,6.3,0
	c7.2,1.5,8.4,3.7,4.8,10.2c-9.7,17.4-12.6,36-10.5,55.6c0.9,8,2.2,16,3.2,24.1c0.4,2.9,0.7,6,0.4,8.9c-0.2,1.5-1.7,3.5-3.1,4.1
	c-0.8,0.4-3.1-1.2-3.8-2.4c-1.6-2.7-2.6-5.8-3.8-8.8C598.8,154.9,598.4,153.5,597.3,150.7z"/>
<path d="M85,395.4c7,2.4,12.3,4.7,17,8.6c9.2,7.7,20.1,12,31.7,14.3c5.5,1.1,11.5,0.5,17.2,0.6c3.9,0,5.4-2.8,6.6-5.9
	c1.3-3.4-0.7-4.9-2.9-6.9c-3.1-2.8-5.9-6.1-8.6-9.3c-9.8-11.4-17.9-23.8-24.5-37.3c-1.4-2.8-2.1-5.8-3.1-8.8
	c5.6-1.4,7.1-0.8,9.3,2.5c7.1,10.8,13.9,21.8,21.4,32.2c3.6,5,7.5,10.3,14.4,13.3c1.3-2,2.6-3.9,3.6-5.8c2.2-3.9,3.9-8.1,6.6-11.6
	c1.8-2.4,4.8-4.7,7.6-5.3c13.1-2.7,26.7,0.8,34.4,13.6c3.2,5.3,5.8,10.9,8.6,16.3c3.1,0.8,6.2,1.6,10.1,2.6
	c4.8-3.4,9.9-7.5,12.8-13.7c0.6-1.3,1.2-2.9,2.3-3.8c1.1-1,2.7-1.5,4.2-2.1c0.7,1.5,1.9,2.9,2,4.4c0.2,5.1-0.3,10.2-0.2,15.3
	c0.1,5.8,1.9,6.8,7.1,4.4c6.4-2.9,12.8-5.8,19.3-8.4c3.4-1.4,3.6-1.1,7.4,1.8c-2.2,1.3-4,2.5-6,3.5c-6.5,3.1-11.9,6.8-14.3,14.4
	c-1.5,4.6-5.5,8.5-8.3,12.6c1.2,3.8,3.5,6.3,6.7,8.4c3.5,2.3,6.8,5.2,9.9,8.1c4.1,3.8,3.4,6.1-2,8c-1.2,0.4-2.4,0.8-3.9,1.3
	c1.4,5.4,4.9,9,8.3,12.8c3.9,4.5,8,8.9,12.1,13.2c1.7,1.8,2.4,3.6,1.9,6.3c-2.2,11.1-4.1,22.2-6.2,33.3c-0.4,2.1-0.8,4.2-1.4,6.2
	s-2,3.8-4.1,2.9c-1.2-0.5-2.6-2.5-2.6-3.8c0.2-5.9,0.5-11.9,1.3-17.7c0.9-5.9,2.7-11.6,3.5-17.5c0.3-2.3-0.4-5.3-1.8-7
	c-5.9-7.6-12.1-14.8-18.3-22.1c-1.5-1.8-3.1-3.4-4.6-5c-4.3,3.4-4.8,5.9-1.6,9.7c1.2,1.4,3.1,2.2,4.5,3.5c1.3,1.2,3.1,2.8,3.1,4.2
	c-0.1,2.9-2.9,2.6-5,2.6c-2.6,0.1-5.1-0.2-7.7-0.3c-6.5-0.2-8.8,2.7-7.2,9.2c0.3,1,0.9,2,1.1,3c0.4,1.9-0.3,3.4-2.4,3.8
	c-9.6,1.8-19.1,4.1-28.8,5.1c-5.5,0.5-11.4-1.1-17-2.1c-3.4-0.6-6.4-2.3-8.3-5.5c-1.8-3-4.3-3.3-7.1-1.5c-4,2.5-8.1,4.8-11.8,7.7
	c-3.6,2.8-4,4.8-2.1,8.9c1.2,2.7,2.7,5.4,4.5,7.7c6.5,8.1,13.3,16.1,20,24.1c1.9,2.3,3.8,4.5,3.3,8.6c-1.7-0.4-3.3-0.3-4.1-1.1
	c-4.4-4-8.7-8.1-12.8-12.5c-4.2-4.5-7.8-9.6-12-14.2c-4.6-5.1-6.2-11.6-8.2-17.9c-0.4-1.4,0.7-3.7,1.7-5.1c2.3-3.3,5-6.3,7.6-9.5
	c-2.2-3-4.5-1.8-6.9-1c-5.2,1.7-10.5,2.2-15.5-0.3c-1.2-0.6-2.8-1.9-2.8-2.9c0-1.1,1.4-2.6,2.6-3.1c4.7-2,9.5-3.8,14.4-5.3
	c3.8-1.2,6.7-3.3,9.3-6.4c3-3.5,6.4-6.6,10.3-10.5c-1.5-3.3-3.1-7.1-4.9-10.9c-0.6-1.3-1.6-2.5-2-3.9c-0.2-0.8,0.1-2.3,0.7-2.8
	s2.1-0.6,2.9-0.3c1.1,0.5,1.9,1.7,3,2.2c1.8,1,3.7,2.1,5.7,2.5c3.9,0.8,5.3,0,5.7-3.9c1.5-11.9,2.2-23.8-2.2-35.3
	c-0.7-1.8-0.6-3.8-1.2-5.6c-1.1-3.6-3.1-4.9-6.2-3.3c-3.1,1.6-6.4,3.8-8.3,6.6c-3.6,5.2-6.2,11-9.2,16.5c-2.7,5-3,5-8.4,4.3
	c-7-0.9-14-1.1-20.9-2c-12.6-1.7-24.3-6.4-35.1-13.1C95,411,90.1,407.1,87,401.5C86.2,400,85.9,398.3,85,395.4z"/>
<path d="M527.4,48.2c-1.3,6.2-1.6,12-5.6,16.7c-1.2,1.4-2.3,3.1-3,4.9c-4,9.8-12.8,12.9-21.7,15.9c-1.4,0.5-2.9,0.5-4.4,0.8
	c-12.2,2.2-23.8-3.6-30.3-15c-6-10.6-4.3-23.2,3.5-32.7c6-7.3,14.2-8.7,22.6-10.1c2-0.4,4.5-0.3,6-1.4c9.9-6.9,27.1,0,30.8,12.2
	C526.2,42.4,526.8,45.6,527.4,48.2z"/>
<path fill="white" d="M724.1,177.9c2.6,8.1,5.7,16,7.6,24.2c3.9,16.6,8.1,33.2,15,48.8c6.2,13.7,13.9,26.8,21.5,39.8
	c5.1,8.6,10.8,16.8,13.9,26.5c1.6,4.9,1.7,5.9,0.3,11.6c-4.4-3.4-8.6-6.8-13-10.1c-10.6-7.8-21.2-15.7-31.8-23.3
	c-2-1.5-4.5-2.3-6.8-3.4c-3.2-1.4-5-3.5-5.2-7.3c-1.1-18.2-2.7-36.5-3.4-54.7c-0.5-13.1,0.3-26.3,0.4-39.4c0-2.1-0.3-4.2-0.4-6.4
	c-0.1-2,0-4,0-6.1C722.8,178.1,723.5,178,724.1,177.9z"/>
<path fill="white" d="M734,102.5c-4.3,9.7-1.3,16.6,5.8,22.6c1.5,1.3,2.2,4.2,2.2,6.4c0,4-0.7,8-2.7,10.9c-6.7,0.4-12.8,1.1-18.9,1
	c-7.2-0.1-14.4-0.8-21.6-1.5c-3.5-0.4-4.3-1.6-3.6-5.3c0.6-2.9,1.7-5.7,2.8-8.4c1.9-4.7,4.3-9.2,6.1-14c1.8-4.7,3-9.6,4.7-15
	C716.4,100.9,724.8,99.4,734,102.5z"/>
<path fill="white" d="M788.7,107.6c-1-0.2-2.1-0.4-3.1-0.6c-4.1-1-4.8-3.1-2-6.1c0.7-0.8,1.4-1.7,2.3-2.2c1.8-1,4-2.7,5.4-2.2
	c1.5,0.5,2.6,3.1,3.1,5C795.4,105.2,793,107.7,788.7,107.6z"/>
<path fill="white" d="M346.5,286.5c-27.7,0.2-54.4-4.1-79.2-18c7.7-10.4,12.4-21.9,18.3-32.8c8.3-15.3,13.5-31.7,19.7-47.7
	c0.3-0.8,0.4-1.7,0.9-2.4c1.2-2,2.5-4.2,5.4-3.7c2.7,0.4,3,2.8,3.4,4.8c2.1,9.1,4,18.3,6.2,27.4c4.3,18.3,11.5,35.6,20.1,52.3
	c2.9,5.7,4.4,12.2,6.6,18.4C347.5,285.4,347,286,346.5,286.5z"/>
<path fill="white" d="M334.9,145.1c-3.2-6.3-6.4-11.5-2.8-17.7c0.6-1.1,1.2-2.7,2.1-3.1c6.3-2.4,6.2-8.4,8-13.3
	c-0.3-0.6-0.4-1.1-0.7-1.4c-5.2-4.9-5.2-5.5,0.5-10c9.8-7.8,21.9-8.4,32.5-1.7c4.1,2.6,5.3,6.4,2.9,11c-1.6,3-3.4,6.1-5.8,8.4
	c-6.9,6.5-13,14.1-21.7,18.6c-3,1.5-5.5,4-8.4,5.8C339.6,142.9,337.5,143.7,334.9,145.1z"/>
<path fill="white" d="M459.7,281.9c-2.8,3.7-5.5,7.6-8.6,11.1c-10.2,11.5-19.2,23.9-27,37.1c-2.7,4.6-5.9,8.8-9.1,13.1
	c-1.2,1.6-2.8,3-4.6,5c-2-6.6-1.2-12.5-1-18.4c0.3-8.1,0.5-16.2,1.4-24.2c1.2-11,3-21.9,4.6-32.9c0.3-2.1,0.6-4.2,0.5-6.3
	c-0.2-5.1,2.4-9.1,5.5-12.5c7.1-7.6,14.5-14.9,21.8-22.3c1.7-1.7,3.7-3.2,6.6-5.7c0.7,2.9,1.3,4.6,1.4,6.4
	c0.5,6.6,0.7,13.2,1.2,19.7c0.4,4.8-2.8,7.7-5.4,11.1c-6.4,8.5-12.7,17-18.9,25.6c-0.8,1.2-0.9,2.9-1.5,4.8c3.8,0.1,4.7-2.1,6-3.9
	c4.9-6.4,9.9-12.7,15-19c1.3-1.5,3-2.7,5.7-5c0.4,3.9,0.8,6.3,1,8.8c0.3,3.7,1.6,6.6,5.4,7.8V281.9z"/>
<path fill="white" d="M591.4,107.8c0.8,3,1.4,4.6,1.7,6.2c1,7.2,1.8,14.4,2.9,21.5c0.6,4.2-0.7,7-4.1,9.8
	c-11.8,10.1-23.2,20.7-34.8,31c-3,2.7-6.2,5-9.3,7.5c-3.7-4.4-4.4-8.3-0.9-12.2c4.1-4.6,9-8.3,13.8-12.2c1-0.8,2.8-0.5,4.5-0.7
	c0.8-5.4,4.9-8.1,8.7-11.3c3.1-2.6,6.1-5.3,9-8.1c1.9-1.9,2.7-4.3,0.4-7.1c-6.7,3-10.8,9.5-17.8,13.7c-0.5-4.3-1.3-7.4-1.2-10.5
	c0.1-1.9,1.2-4.2,2.6-5.5c5-4.9,10.2-9.6,15.4-14.3C584.8,113.3,587.5,111,591.4,107.8z"/>
<path fill="white" d="M460.9,247.2c-2.5-2.7-2.3-4.8-1.7-7.3c1.6-6.2,3.5-12.4,3.7-18.7c0.1-5.3,2.4-8.4,6.2-11
	c4-2.8,8.1-5.4,12.1-8.2c6.7-4.8,13.4-9.7,20.1-14.4c0.8-0.6,1.9-0.7,3.6-1.3c0.9,3.6,2.1,6.7,2.4,10c0.2,1.6-0.6,3.9-1.7,5.1
	c-4.3,4.7-8.9,9.1-13.5,13.6c-1.6,1.6-3.2,2.3-5.7,1.2c-4.4-1.9-5.7-1.2-5.5,3.3c0.3,5.7-2,9.7-6.1,13.3c-3.3,3-6.1,6.6-9.2,9.8
	C464.3,244.1,462.7,245.5,460.9,247.2z"/>
<path fill="white" d="M555,139.8c4.8,9.8,4.2,13.5-2.7,19c-2.8,2.2-6,3.8-9,5.7c-1,0.7-1.9,1.6-2.6,2.5c-2.5,2.9-4.6,6.1-7.3,8.8
	c-4.7,4.6-9.8,8.9-14.8,13.2c-1.1,0.9-2.4,1.4-3.7,2.1c-4.3-6.9-3.6-13.6,2.4-17.7c11-7.5,19.2-18.1,30-25.8
	c1.2-0.8,1.7-2.4,2.7-3.5C551.4,142.8,553,141.6,555,139.8z"/>
<path fill="white" d="M459.8,282c-0.1-7-0.3-14-0.1-21c0.1-2,1.2-4.2,2.5-5.8c5-5.8,10.2-11.4,15.4-17.1c0.5-0.6,1.4-0.8,2.1-1.2
	c4.3,5.5,5,11.3,1.4,16.2c-5.6,7.7-11.6,15.3-17.3,22.9c-1.4,1.9-2.7,3.8-4.1,5.7C459.7,281.9,459.8,282,459.8,282z"/>
<path fill="white" d="M515.9,213.6c-8.5,9.3-16.6,18.2-24.8,27.1c-4-5.6-4.7-10.5-1.1-14.8c5-6.1,10.6-11.6,16-17.2
	c1.9-2,4.1-2,6,0.4C513,210.4,514.1,211.6,515.9,213.6z"/>
<path fill="white" d="M537.9,181.5c0.7,3.4,1.4,5.9,1.5,8.4c0,1.5-0.6,3.5-1.7,4.5c-4.9,4.7-10.1,9.1-15.3,13.5
	c-0.6,0.5-1.5,0.8-2.2,1.1c-4.6-5-4.9-8.4-0.7-12.6c4.5-4.5,9.3-8.7,14.1-12.9C534.4,182.7,535.7,182.5,537.9,181.5z"/>
<path fill="white" d="M215,498.2c-4.2-0.6-8.9-1.1-13.5-1.8c-3.4-0.5-5.8-2.5-7.3-5.6c-2.3-4.8-1.1-7.2,4-9.1c4-1.5,7.6-3.7,11.6-5.2
	c6-2.2,12-4.3,18.1-6c4.3-1.2,7.6,1.2,7.9,5.7c0.2,2.7-0.5,5.5-1.4,8.1c-1,3-2.3,5.9-4.1,8.5c-1.2,1.8-3.3,3.4-5.3,4
	C222,497.8,218.7,497.7,215,498.2z"/>
<path fill="white" d="M200.6,440.4c-0.2-4.2-0.4-7.3-0.4-10.4c0.3-11.9-1.8-23.3-7.7-33.8c-2.3-4-5.4-7.5-8.4-11.5
	c3.5-2.4,7.3-2.1,10.8-0.8c7.2,2.5,13.3,6.6,17,13.6c0.7,1.3,1.5,2.6,1.8,4.1c2.3,11.6,1.8,22.7-5.1,32.9
	C206.9,437,204.8,438.9,200.6,440.4z"/>
<path fill="white" d="M518.2,50.4c0.7,14.5-12.9,26.9-27.1,27.2c-6.5,0.1-11.7-3-14.7-8.5c-3.3-6-1.6-12,1.5-17.6
	c1.3-2.4,2.8-4.9,4.7-6.7c1.7-1.7,4.1-2.9,6.5-3.6c4.8-1.5,9.9-2.4,14.7-3.8c7.9-2.3,14.1,1.9,14.5,9.9
	C518.3,48.3,518.2,49.3,518.2,50.4z"/>
</svg>
