<?xml version="1.0"?>
<!-- 24.1.30 valle -->
<svg xmlns="http://www.w3.org/2000/svg" xml:space="preserve"
	 width="1000" height="600"
	 viewBox="0 0 1000 600">
<rect opacity="0" width="1000" height="600"/>
<path d="M799.1,273.1c-2,1.8-3.3,2.4-3.9,3.4c-3.7,6.5-9.3,11.7-11.6,19c-0.3,1-0.8,2-1.5,2.8c-6.3,7.8-6.8,17-5.7,26.2
	c0.7,5.4,2.6,10.8,5,15.7c5.1,10.3,5.5,21.5,6,32.5c0.2,4.1-2.8,9-5.6,12.5c-12,14.7-24.5,28.9-39.3,41c-0.5,0.4-1.1,0.5-2,0.9
	c-1.7-2.9,0.5-4.5,1.9-6c7.7-8.6,15.5-17,23.2-25.6c2.7-3,5.4-6.1,8.1-9.1c2.9-3.3,3.8-7.1,3.1-11.3c-1.8-10.1-3.4-20.2-5.4-30.2
	c-0.5-2.6-2.4-4.9-3.2-7.4c-1.6-4.8-2.8-9.7-4.3-14.6c-1-3.4-1.9-6.9-3.3-10.2c-0.6-1.3-2.4-3-3.6-3c-3.5,0-4.5-2-5-4.7
	c-0.7-3.7-2.1-5.6-6.5-5c-3.4,0.5-4.8-1-4.4-4.6c1.4-12.2-1.7-23.7-4.4-35.3c-0.8-3.5-2.2-6.4-6.3-7.3c-5.3,2.9-4.7,11.1-11,12.9
	c-2.3-1.9-1.4-3.8-0.7-5.5c1.1-2.8,2.4-5.5,3.5-8.2c1-2.6,2.9-5.2,2.7-7.8c-0.5-7,2.8-12.8,4.9-19c1.5-4.4,2.7-8.8,2.6-13.4
	c-3-1.5-4.5,0.5-5.7,2c-3.3,4.2-6.3,8.6-9.5,12.8c-2,2.6-3.1,6.2-8,7c-0.1-2.1-0.4-3.8-0.2-5.5c0.1-1,0.9-1.9,1.4-2.8
	c5.7-10.2,11.5-20.4,17.1-30.6c2.2-4,5-7.9,3.1-13.2c-0.4-1.2,1.1-3.4,2.2-4.8c1.2-1.6,3-2.9,5.1-4.8c-2.1-1.5-3.5-2.7-5-3.7
	c-2.6-1.8-3-3.6-1.3-6.4c1.9-3.2,3.1-6.8,4.6-10.1c-2.8-3.2-5.5-3.1-7.5-0.6c-2.9,3.6-5.8,7.4-8,11.4c-1.9,3.5-2.9,7.6-4.4,11.3
	c-0.5,1.2-1.5,2.3-2.4,3.7c-3.7-2.9-2.7-6.1-1.9-9c1.3-4.7,3.1-9.3,4.5-14c1.8-5.7,3.5-11.4,5-17.2c0.6-2.5,0.4-5.2,0.7-8.7
	c-10.3,4.2-9.8,14.8-15.3,21.1c-1-0.9-1.9-1.3-1.9-1.6c0.1-5.8-1.3-11.9,2.7-17.2c0.9-1.2,1.4-3.2,1.4-4.8c0-4.2-2.2-5.7-6.2-4.7
	c-11.4,3-14.7,7.1-14.8,19c0,3.5-0.4,6.8-3,9.5c-2.8,2.8-3.1,6-1.4,9.4c1.6,3.3,1,6.5,0.6,10c-2.5,19.1-9.3,37.2-14.1,55.8
	c-1.6,6.4-2.7,12.9-4,19.4c-0.2,1.2-0.5,2.4-1.3,3.6c-2.3-4-2.5-8.1-1.8-12.6c2.5-14.7,5.3-29.4,7.4-44.1c1-7,2.3-13.9,5.6-20.2
	c1.4-2.6,1.2-5-0.8-7.1c-5-5.4-3.1-10.5,0.3-15.7c0.6-0.9,1.3-1.7,2-2.5c3.1-4.2,3-4.9-0.3-8.8c-2.1-2.4-4-5-5.7-7.7
	c-2.3-3.7-2.1-6.2,0.8-9.3c10.6-11.5,23.5-19.6,38.1-25c7-2.6,9-0.8,8.9,7c0,0.6,0.2,1.2,0.6,2.7c2.1-0.1,4.4,0.1,6.5-0.5
	c6.8-1.9,13.2-2.6,19.9,0.9c2,1.1,5.5,0.4,7.9-0.5c8-3.2,16.1-5.6,24.7-6.1c6.8-0.4,13.6-0.9,20.4-0.6c2.9,0.2,6.2,1.9,8.4,3.9
	c5.4,5.1,11,10.3,15.3,16.3c3.5,5.1,5.6,11.3,7.7,17.2c1.2,3.3,0.5,7-2.6,9.3c-4.7,3.6-9.6,7-14.6,10.3c-2.8,1.9-6.1,3.1-9.1,4.7
	c-7.3,4-13.9,8.8-18.5,16.2c-1.6,2.5-4.5,4.4-7.2,5.9c-3.3,1.9-7,3.1-10.4,4.9c-3.5,1.9-4.2,3.9-3.2,7.4
	c2.2,8.4,10.6,14.9,19.3,15.1c8.3,0.2,15.8-3.3,23.6-5.1c21.2-4.9,41-14.5,62.6-18c5.4-0.9,10.7-2.3,17.9-0.6
	c-2.7,1.2-4,2.2-5.5,2.5c-19.7,4.1-38.6,10.7-57.3,18.2c-9.9,4-20.1,7.2-30,11c-2.8,1.1-5.3,3.1-8.5,5.1c2.6,3.3,4.3,6,6.6,8.1
	c1.2,1.1,3.4,1.5,5.2,1.6c10.2,0.2,19.8-2.4,29.4-5.5c13.4-4.4,26.8-8.6,40.3-12.6c2.9-0.9,6.1-0.6,9.1-0.9c0.1,0.6,0.3,1.1,0.4,1.7
	c-2.8,1.2-5.7,2.4-8.5,3.5c-10.5,4.1-21,8.3-31.5,12.4c-1.4,0.5-2.9,1-4,2c-7.2,6.3-14.7,12.3-21.3,19.3c-5.4,5.7-5,8.3-0.8,15.3
	c0.9,1.5,1.8,3,2.4,4.5c4.3,11.3,8.4,22.8,12.9,34c3.3,8.3,7.2,16.4,10.9,24.6c6.8,15,9.1,31,10.4,47.2c0.4,4.9-2.1,13.4-5.2,18.2
	c-0.2-6-0.3-11.3-0.6-16.6c-1.1-19.4-6.3-37.7-15-55.1c-3-5.9-5-12.3-8.1-18.1c-4.2-7.9-9-15.4-13.7-23
	C804.2,279.6,801.8,276.7,799.1,273.1z"/>
<path d="M602.1,376.6c-1.7,0.8-3.2,1.2-4,2.1c-6.1,7.1-12.5,14-17.8,21.7c-3.4,5-5.6,10.9-5.8,17.3c-0.5,15.5,0.7,18.2,12.7,27.8
	c10.7,8.5,21.4,16.9,31.7,25.8c4,3.4,7.2,7.8,10.5,12c1.8,2.2,1.1,4.5-0.9,6.3c-1.9,1.7-3.5,0.6-5-0.8c-6-5.4-12.5-10-17.9-16.3
	c-4.5-5.3-10.6-9.2-15.8-13.9c-6.4-5.9-12.6-12-19-18c-1-1-2.3-2.2-3.6-2.3c-4.1-0.4-4.8-3-4.5-6.3c0.4-4.2,1.4-8.5,1.3-12.7
	c-0.3-13.4-0.8-26.8-1.7-40.2c-0.2-3-1.9-6-3.4-8.7c-5.1-8.8-12.1-15.9-20.1-22.1c-1.2-0.9-3.4-1.9-4.4-1.4
	c-1.1,0.6-1.8,2.7-1.9,4.3c-0.4,3.4-0.3,6.8-0.4,10.2c0,1.1,0.4,2.4-0.1,3.2c-3.1,5-2.2,10.7-2.9,16c-0.8,6-1.8,12,1.7,18
	c2.1,3.5,2.2,8.1,3,12.3c0.5,2.4-0.7,3.8-2.9,5c-5.4,2.8-7.1,2.3-8.4-3.8c-0.8-3.9-1.5-8-1.6-12c-0.2-13.8-0.3-27.7-0.1-41.6
	c0.1-5.9,0.2-12.1,1.5-17.8c1.4-5.6-0.7-8.5-5.1-10.9c-5.8,1.7-8.5,5.3-7.9,11.3c0.1,1.2,0,2.7-0.6,3.7c-5.7,10.7-5.7,22.6-7.3,34.1
	c-0.7,4.9-0.8,9.8-1.7,14.6c-0.5,2.6,0.2,6.6-4.2,6.8c-2.4,0.1-3.4-2-3.1-7.3c0.5-7.2,1.1-14.5,2-21.6c1.9-14.2,4.1-28.3,6.2-42.4
	c0.2-1,0.1-2.1,0.2-3c-7.4-3.7-11.5-2.4-21.6,6.3c0,2.5,0,5.1,0,8.3c-2.6-0.6-4.5-1.1-7.4-1.8c-1.5,4.4-3.3,8.7-4.4,13.2
	c-3.1,12.8-10.3,22.7-20.1,31.2c-2.9,2.5-4.9,6.4-6.7,9.9c-1.8,3.5-3.6,6.7-7.1,8.8c-3.3,2-3.7,3.7-1.6,6.8c1.5,2.2,2.4,4.1,2.2,6.9
	c-0.2,4.2,1.5,5.9,5.8,5.9c6.8,0,13.6-0.6,20.4-1c2.3-0.1,4.7-0.3,7-0.8c5.3-1.2,8.8,1.2,10.6,5.8c1.2,2.9,2.6,4.7,5.7,5.2
	c3.9,0.7,3,4,3.2,6.8c1.9,1,3.7,2,6.4,3.4c-1.3,1.5-2.1,3.1-3.3,3.8c-2.8,1.5-5.8,2.7-8.9,3.6c-4.3,1.3-7.5,4.1-10.2,7.4
	c-1.1,1.3-1.8,3.7-1.4,5.2c1.6,6.5,2.7,13.5,9.9,16.9c1.6,0.7,3.1,2.5,3.8,4.1c3.5,7.9,7.6,15.2,13.7,21.3c0.4,0.4,0.3,1.2,0.5,2
	c-2.4,1.8-4.4,0.5-6.4-0.7c-6.1-3.9-12.2-7.8-18.3-11.7c-0.9-0.6-1.7-1.3-2.7-1.6c-12-3.7-15.5-13.9-17.6-24.5
	c-0.8-4-2.1-6.2-6.1-6.8c-0.2,0-0.4-0.1-0.6-0.1c-1.9-0.5-4.2-1.1-3.7-3.5c0.2-1.2,2-2.5,3.3-3.2c2.3-1.2,4.9-1.7,7.1-2.8
	c1.7-0.9,3.2-2.3,4.8-3.5c-0.7-1.1-0.9-1.7-1.1-1.7c-6.1-0.4-12.2-1.3-18.3-0.9c-13.2,0.9-26.3,2.5-39.4,3.8c-0.6,0.1-1.3,0.1-1.9,0
	c-2.2-0.6-5.2-0.7-5.2-3.7c0-2.7,2.7-2.9,4.7-3.3c1.6-0.4,3.2-0.6,4.9-1.9c-1.1-0.2-2.2-0.5-3.2-0.5c-11.9,0.4-23.9,1-35.8,1.4
	c-8.3,0.3-16.6,0.4-24.9,0.5c-1.3,0-2.7,0.1-3.8-0.4c-1.2-0.6-2.8-1.7-2.9-2.8c-0.1-1,1.4-2.2,2.2-3.3c0.1-0.1,0.4-0.2,0.6-0.2
	c9.5-2.1,18.4-6.7,28.5-6.1c4.6,0.3,9.3-0.6,14-1.2c4.5-0.5,8.3-2.3,12.2-5c4.4-3.1,9.9-4.9,14.9-7.2c3.8-1.7,7.9-3,9.7-7.9
	c-1.1-0.6-2-1-2.8-1.6c-3.1-2.1-3.3-3.1-1.1-6.1c4.8-6.8,4.2-12.2-2-17.1c-2.3-1.8-5.2-3-5.6-6.5c-0.4-4.9-1.9-9.8,0.7-14.4
	c1.6-2.8,1.6-5.4,1-8.5c-0.9-4.4-0.7-8.8,2.5-12.7c1.7-2.1,2.7-4.9,3.3-7.5c0.7-2.9,2.1-4.7,4.9-5.2c7.1-1.1,13.8-3.9,21.3-3.4
	c5.4,0.4,11-0.9,16.4-2.3c9.7-2.5,19.5-5,28.8-8.6c9.2-3.5,18.1-7.3,28-8.3c3-0.3,5.9-2.4,8.8-3.6c9.1-3.7,18-7.8,27.3-10.7
	c5.1-1.5,10.9-0.9,16.4-0.9c1.8,0,3.7,1,5.2,2.1c10.5,7.6,21.1,15.2,31.3,23.2c4.7,3.6,8.8,8,12.8,12.4c4,4.4,7.9,9,11.2,14
	c3.3,4.9,5.8,10.4,8.5,15.7c0.4,0.9,0,2.5-0.5,3.5c-2.4,4-5.2,7.8-7.6,11.8c-2.4,4-4.5,8.2-6.7,12.3c-1.5,2.8-2.8,5.7-4.1,8.6
	c-2,4.4-0.4,7.2,4.5,7.2c10.2,0.1,20.5-0.1,30.7-0.2c1.9,0,3.9-0.4,5.7,0c9.1,2.2,18.3,1,27.4,0.7c3-0.1,6,0.1,8.9,0.5
	c3.9,0.6,6,2.4,5.6,4.8c-0.5,3.7-3.6,3.9-6.4,3.9c-8.7,0.1-17.6,0.8-26.2-0.3c-13-1.6-26-0.6-39-0.8c-4.5-0.1-9,0-13.4,0.1
	c-2.1,0-4.2,0.2-6.3,0.5c-4.5,0.8-6.5-0.7-5.6-5.4c0.9-5,2.5-9.9,4-14.8C601.7,385.3,602.7,381.4,602.1,376.6z"/>
<path d="M239,297c-3.8,0.7-6.4,0.8-8.6,1.7c-9.7,3.8-18.3,9.3-23.8,18.3c-4.5,7.3-7.8,15.3-4.4,24.3c0.5,1.3,0.4,2.9,0.4,4.4
	c0,5.7,0,11.5,0,17.7c-5,1.9-5,6.4-4.6,10.9c0.5,4.7,0.7,9.4,1.8,14c2.3,9.5-0.2,17.7-6.2,25.1c-9.8,12.1-18.1,25.3-25.7,38.9
	c-4.2,7.4-8.8,14.6-13.3,21.8c-0.6,0.9-1,2.1-1.8,2.6c-1,0.6-2.5,1.2-3.4,0.8s-2-2-1.9-2.9c0.6-3.1,1.3-6.3,2.8-9.1
	c8.3-15.8,16.8-31.5,25.2-47.3c3-5.7,6.7-10.9,11.9-14.9c3.1-2.4,4.4-5.6,4-9.6c-1.3-13.4-2.5-26.7-3.7-40.1c-0.2-2.6-0.8-5-3.3-6.5
	c-7.1-4.3-14.1-8.8-21.3-12.8c-4-2.2-4.9-1.4-6.4,2.9c-2.3,6.8-2,13.1,0.9,19.9c3.2,7.6,5.5,15.7,7.9,23.7c0.5,1.6,0.3,4-0.7,5.3
	c-3,4.1-6.3,8.1-10,11.6c-10.4,9.8-21,19.4-31.6,29c-2.5,2.3-5.2,4.5-8.1,6.2c-1.2,0.7-3.4,0.8-4.6,0.2c-1.9-1-1.2-3-0.1-4.4
	c1.5-2,2.9-4.2,4.7-6c6-6,12.2-11.9,18.4-17.8c6.1-5.7,12.3-11.2,18.4-16.9c7.4-7,5.4-6.5,3-13c-4.2-11.6-9.5-22.8-12-35
	c-1.1-5.4-3.3-10.5-5.2-16.1c-0.6,0-1.4-0.1-2.2-0.1c-4-0.3-5-1.5-4.2-5.2c1.3-6.4,5-11.5,10.4-14.7c14.7-8.6,29.4-17.2,44.5-25.2
	c11.3-6,23.5-9.8,36.5-10.7c6.7-0.4,12.6,2,18.6,4.1c7.2,2.6,14.1,6.2,19.2,12.3c3.2,3.9,7.2,5.9,12.3,5.5c1.5-0.1,3,0.4,4.5,0.2
	c3.6-0.5,6,1.3,6.9,4.4c2.7,9.1,10,13.4,17.6,17.5c2.2,1.2,3.5,2.6,4.4,5c1.7,4.6,3.8,9,5.7,13.5c0.3,0.6,0.9,1.3,0.7,1.7
	c-2.2,4.4,0.5,9.8-3.4,13.9c-2.7,2.9-3.2,6.9-2.5,10.9c0.3,1.4,0.2,2.9,0.3,4.7c-0.9,0.6-1.7,1.3-2.6,1.7c-3.3,1.3-4.4,3.8-4.3,7.1
	c0.4,7.9,0.9,15.7,1.4,23.6c0.1,1,0,2.1,0,3.5c-4.7-0.7-6.2-4-6.9-7.4c-1.6-7.3-3-14.6-3.9-22c-0.7-6.1-2.6-11.1-8.9-14.1
	c-3.7,1.4-5.7,4.6-6.4,8.5c-0.9,5.5-1.3,11-2,16.5c-0.5,3.9-1.1,7.9-1.7,12.1c-3.6-0.7-3.6-3-3.8-5c-0.3-3.2-0.5-6.4-0.6-9.6
	c-0.2-5.6-1-10.9-4.7-15.5c-1.6-2-1.7-5.2-2.4-7.8c-1.2-4.9-2.2-10-3.7-14.8c-0.4-1.5-1.8-2.8-3.1-3.9c-6-5.3-6.8-9.7-2.8-16.8
	c1.4-2.6,3.3-5,4.3-7.8c0.8-2.3,1.1-5,0.8-7.4c-0.3-2.7-2.5-3.6-4.7-2.1c-2.1,1.5-4.2,3.7-5.2,6c-1.3,2.8-1.7,6.2-2.3,9.3
	c-3.8,19.9-8,39.7-11.3,59.7c-2.2,13.2-3,26.7-4.4,40c-0.2,1.6-0.3,3.1-0.5,5.1c-3.6-1.2-3-3.8-3.4-6c-2.3-14.4-0.2-28.6,2.1-42.6
	c3-18.3,6.8-36.5,10.1-54.7C237.1,311.1,237.8,304.8,239,297z"/>
<path d="M294,460.3c0.5,11-4.1,19.7-9.7,28c-0.7,1-1.6,1.9-2.4,2.7c-2.1,2.1-4.4,2.3-7.1,1c-3.1-1.5-6.4-2.8-9.6-4.2
	c-7.9-3.5-14.2-8.9-18.5-16.4c-2.3-4.1-1.5-8.7,0-12.9c3.1-8.8,9.9-14,18.2-17.5c1.6-0.7,3.6-1.1,5.3-1c4.1,0.3,8.2,0.7,12.2,1.5
	c1.8,0.4,3.7,1.5,5.1,2.9C292,448.8,296.1,453.6,294,460.3z"/>
<path fill="white" d="M767.1,308c-1.5-2.5-2.9-4.3-3.7-6.4c-3.7-9.7-7.6-19.4-10.8-29.3c-1.5-4.6-1.9-9.5-2.4-14.4
	c-0.6-5-0.3-10.2-1.3-15.2c-1.7-8.9-2.1-17.6,0.5-26.5c1.4-4.8,1.6-10,4.3-14.6s4.5-4.6,7.9-0.4c8.5,10.6,17.3,21,25.7,31.7
	c3.8,4.8,7.1,10.1,10.6,15.1c1.4,2,1,3.9-0.2,5.9c-3.4,5.7-6.6,11.4-9.9,17.1c-4.6,7.9-9.4,15.6-14,23.6
	C771.5,298.7,769.6,302.9,767.1,308z"/>
<path fill="white" d="M787.8,142.6c-1.7-0.8-3.5-1.7-4.8-2.3c3.1-7.5,7.6-11.8,14.7-13.3c2.3-0.5,4.5-1.2,6.8-1.9
	c7.8-2.3,17.3,2.9,19.7,10.6c0.7,2.2,0.4,4-1.5,5.7c-6.5,6.2-13.3,11.8-22.1,14.7c-6.2,2.1-12,5.3-18,8c-1.5,0.7-3.1,1.6-4.7,1.8
	c-2.3,0.4-4-1-3.7-3.2c0.7-4.3,1-8.9,5.4-11.7c2.8-1.8,5.2-4.2,7.7-6.4C787.5,144,787.7,143.3,787.8,142.6z"/>
<path fill="white" d="M507.7,316.7c2.2-3.2,5.7-4.7,9.1-5.3c3.2-0.6,5.5-1.4,7.8-4.2c2.4-2.8,6.7-4.4,10.5-5.5
	c5.4-1.6,11.1-2.1,16.6-3.4c3.1-0.8,5.8-0.5,8.6,1c10.7,5.7,21,11.9,30.3,19.9c7.8,6.7,14.3,14.6,20.7,22.6c2.2,2.8,4.1,6,5.9,9.1
	c1.5,2.6,0.8,5-1.6,6.8c-1.9,1.4-3.9,2.6-6,3.6c-8.3,3.8-16.8,7.3-25,11.3c-3.9,1.9-7.6,4.4-12,7c-0.6-1.1-1.8-2.5-2.3-4.2
	c-4.2-12.4-12.6-21.5-22.6-29.6c-4.5-3.7-9.6-7.1-11.4-13.4c-0.3-1.1-2.1-2.6-3.2-2.6c-3.8-0.1-5.9-3-8.8-4.7
	C519.1,322.1,513.7,319.7,507.7,316.7z"/>
<path fill="white" d="M440,341.9c5.3,7.2,8.4,7.2,13,0.4c4-6,5.7-7.2,12-8.1c0,2.3,0.6,4.7-0.1,6.7c-2.6,7.6-5.4,15.2-8.6,22.6
	s-10.2,11.1-17,13.5c-10.7,3.8-23.8-8.8-21.1-19.8c0.6-2.3,2.1-4.7,3.7-6.4c3.3-3.4,7.1-2.6,9.3,1.6c0.7,1.3,1,2.8,1.5,4.2
	c0.9,2.2,1.6,4.9,4.6,4.2c2.6-0.7,2.1-3.3,2-5.4c-0.1-2.1-0.7-4.2-0.6-6.3C438.9,346.5,439.6,344.2,440,341.9z"/>
<path fill="white" d="M421.5,381.4c4.3,1.6,7.6,2.4,10.3,4.1c1.1,0.7,1.7,3.5,1.3,5c-0.9,3.1-4,3.4-6.8,3.6c-2.8,0.2-3.7-1.8-4-4
	C421.9,387.7,421.8,385.2,421.5,381.4z"/>
<path fill="white" d="M143,316.8c3.7-6,8.4-8.8,13.2-11.7c11.6-6.8,22.6-14.4,35.3-19.2c5.9-2.3,11.8-4.9,17.9-6.5
	c10.4-2.7,20.6,0,30.8,2.6c2.7,0.7,5.3,1.6,7.9,2.6c2.8,1,5.3,2.5,6.3,5.6c-2.7,3.2-5.8,1.7-8.5,1.3c-8.6-1.2-17-1.5-24.9,2.9
	c-9,5-17.3,10.6-22.9,19.7c-4.1,6.6-5.6,13.7-6.1,21.2c-0.1,1.8-0.2,3.6-0.4,6.9c-5.9-3.8-10.7-7.2-15.7-10.2
	c-5.2-3-10.5-5.6-15.9-8.1C154.3,321.3,148.8,319.2,143,316.8z"/>
<path fill="white" d="M277.4,328.4c-7.4,2.5-13.7,1.3-19.9-1c-2.1-0.8-2.2-3.1-1.4-4.9c0.8-1.7,1.7-3.5,3-4.8
	c3.1-3.1,5.9-6.5,9.8-8.5C275.8,313.9,274.6,321.4,277.4,328.4z"/>
<path fill="white" d="M272.8,451.6c1.1,0,2.1,0,3.2,0c5.1,0,5.5,0.3,6.8,5.3c0.8,3.2,1.6,6.5,2,9.8c0.2,1.8-0.3,4-1.1,5.6
	c-1.1,2.1-2.7,4-4.2,5.9c-1.3,1.5-3.1,2.3-4.9,1.4c-5.5-2.8-11.5-4.9-15.7-9.9c-2-2.4-3.3-4.7-1.1-7.8c0.6-0.8,0.7-2,1-3
	c1.8-5.3,4.1-7.2,9.6-7.5c1.5-0.1,3,0,4.6,0C272.8,451.6,272.8,451.6,272.8,451.6z"/>
</svg>
