<?xml version="1.0"?>
<!-- 24.1.30 valle -->
<svg xmlns="http://www.w3.org/2000/svg" xml:space="preserve"
	 width="1000" height="600"
	 viewBox="0 0 1000 600">
<rect opacity="0" width="1000" height="600"/>
<path d="M914.7,373.1c0.8,0.3,1.8,0.6,2.8,0.9c2.1,0.7,3.9,1.8,4,4.4c0.1,2.5-1.2,4.1-3.4,4.9c-3.8,1.4-6.1,4.4-8.6,7.3
	c-3.5,4-7.3,7.7-11.3,11.2c-9.6,8.4-19.7,16.2-29,25c-8.3,7.9-16.9,15.7-21.6,26.5c-0.2,0.5-0.9,0.8-1.9,1.7c-1.5-1.5-3-3.1-4.6-4.7
	c-3.9,2.6,0.1,6.8-2.9,10.1c-1-0.2-3.1,0.1-4-0.7c-3.6-3.2-8-5.4-10.9-9.6c-2.7-3.9-7-6.8-10-10.6c-9.3-11.6-18-23.7-27.6-35.1
	c-6-7-11.4-14.7-20.1-19.2c-4.3-2.3-9.1-5.3-10.6-11.5c-3.9,0.2-7.8,0.3-11.6,0.5c-1.4,23.4,6.1,43.5,17.2,63
	c1.1-0.4,2.3-0.6,3.4-1.2c4.4-2.5,9.1-3.4,14.2-2.6c2.3,0.4,4.7,0.1,7,0c5.9-0.3,6.7,0.6,6.2,7.2c-5.2,0.7-10.5,1.2-15.7,2.2
	c-3.3,0.7-6.4,1.9-9.5,3.3c-2.9,1.3-5.5,3.2-8.2,4.7c-2.6,1.4-4.4,0.8-5.5-2.2c-3.9-10.8-7.7-21.6-11.7-32.4
	c-1.8-4.8-4.2-9.3-6.2-14c-3-7.3-6.4-14.4-8.6-21.9c-1.2-4.1-2.6-7.8-5-11.3c-1.4-2-1.6-4.8-1.9-7.3c-1.9-13.8-1.6-27.6-0.4-41.5
	c1-11.1,1.8-22.1,5.1-32.8c0.2-0.7,0-1.6-0.1-2.9c-4.6,1-8.9,1.9-13.2,2.8c-0.6,0.1-1.1,0.6-1.5,1.1c-5.7,7.3-12.8,12.9-20.1,18.4
	c-6.4,4.8-12.2,10.4-18.1,15.8c-1.5,1.4-2.8,3.3-3.5,5.2c-2.5,6.7-7.3,11.8-12.1,16.9c-1.3,1.3-3.1,2.1-4.6,3.1
	c-3.9-4.4-4.1-9.2-1-13.3c10.5-13.8,22.9-25.8,36.1-36.9c11.6-9.7,23.2-19.3,34.2-29.7c5.2-4.9,9-11.3,13.1-17.2
	c2.1-3.1,1.7-5.9-0.8-9.3c-13.1-17.6-27.2-34.4-38.4-53.3c-5.7-9.7-11.6-19.4-17.4-29.1c-1.2-2-2.3-4.2-2.8-6.4
	c-0.2-1.1,0.8-2.8,1.8-3.5c0.6-0.4,2.4,0.2,3.3,0.9c1.3,1.1,2.3,2.5,3.2,3.9c6.2,10.2,12.1,20.6,18.5,30.6
	c6,9.3,12.2,18.5,18.8,27.3c4,5.2,9,9.7,13.7,14.3c2.8,2.7,6.1,4.7,10.8,4.9c2.4-3.9,4.9-8,7.6-12.6c-2-1-3.3-1.9-4.8-2.5
	c-10-3.9-11.8-6.5-11.1-17.3c0.7-9.8,1.8-19.5,2.5-29.3c0.2-3.1,0-6.3-0.7-9.3c-1.1-5-0.6-6,3.4-9c4.2-3.2,9.1-3.7,13.8-4
	c12.5-0.7,25.1-1.3,37.6-0.6c8.2,0.5,16.1-0.2,24.1-1.1c1.2-0.1,2.5,0,4.2,0c0.1,1.4,0.6,2.6,0.3,3.7c-0.8,3.1-0.9,5.9,1.6,8.3
	c0.4,0.4,0.9,1.2,0.8,1.7c-1.1,8.3,6.1,13.5,7.7,20.8c0.2,1,1.4,2.1,2.4,2.6c4.1,2.2,8.2,4.4,12.5,6.3c6,2.7,10.6,7.1,16.5,12.1
	c-2.4,0.6-3.4,1.1-4.2,0.9c-6.8-1.5-13.6-0.1-20.3-0.3c-4.6-0.2-5.4,4.3-9.2,5.2c0.9,3.5,1.7,6.5,2.3,8.7c-2.4,3.2-4.5,5.7-6.3,8.5
	c-0.7,1.1-0.8,2.9-0.6,4.3c0.8,5.9,9.6,13.7,15.6,14c1.7,0.1,3.5-0.1,5.1,0.2c1.4,0.3,3.3,0.9,3.7,2c2.8,6.6,9,9.3,14.4,13
	c2.4,1.6,4.4,3.9,6.2,6.2c0.7,0.9,0.5,2.9-0.1,4c-0.3,0.6-2.5,0.9-3.4,0.5c-5.2-2.2-11.1-2.4-15-7.7c-2.8-3.8-6.8-5.5-12.4-2.8
	c-3.6,1.7-8.7,0.5-13,0.3c-1.6-0.1-3.2-0.9-6.1-1.9c1.3,2.2,1.7,3.8,2.7,4.2c4.2,1.7,4.2,4.9,3.7,8.5c-0.2,1.3-0.3,2.5-0.6,3.8
	c-0.7,2.8,0,4.7,2.7,6.3c2,1.2,4.1,3.3,5,5.5c3.7,9,11.3,13.4,19.4,17.3c1.5,0.7,3.1,1.3,4.7,1.9c0,2.3,0,4.4,0,6.6
	c-5,1.5-9.5,1.5-14.4-0.6c-8.6-3.7-17.5-6.5-26.5-9.8c-0.8,0.7-1.3,1.5-2,1.7c-6.4,1.8-6.1,6.8-5.7,11.8c0.3,4,0.8,8.1,1.2,12.1
	c0.3,2.8,0.7,5.5,3.4,7.2c0.8,0.5,1.6,1.6,1.8,2.5c1.9,8.1,7.7,14.2,11.6,21.2c1.1,1.9,1.9,3.9,2.3,6.2c-4.2-2.2-6.7-5.8-9.2-9.4
	c-2.4-3.6-4.3-7.8-9.5-8.8c-1.6-0.3-2.9-2.9-4-4.7c-2.8-4.6-7.5-4.7-13.3-6.4c2.5,6.5,4.5,11.6,6.5,16.7c0.4,1,1,2,1.8,2.6
	c6.2,4.1,9.9,10.5,14.9,15.7c4.8,5,10.5,8.7,17.2,10.7c1,0.3,1.8,0.9,2.9,1.3c-0.8,3.8-3.1,4.1-5.8,3.2c-6.5-2.2-12.6-5-17.9-9.6
	c-7.4-6.4-15.1-12.4-23.8-16.8c-2.5,1.3-2.3,3-1.1,4.9c3.5,5.3,3.5,5.3-2,8.7c-0.2,0.1-0.2,0.4-0.5,0.9c1.1,5,9.4,4.1,9.4,11.2
	c-3.5-0.9-6.5-1.7-9.7-2.6c-1.3,3.1-0.7,5.5,0.9,7.7c3.5,5,7.1,10.1,10.6,15.2c1.7,2.4,3.3,4.9,5.1,7.2c2,2.7,4,5.5,6.2,8
	c3,3.3,5.7,6.5,8,10.5c2.9,5,7.8,8.9,11.8,13.2c1.8,2,3.8,1.6,5.8,0.2c9.6-6.7,19.1-13.4,28.6-20.3c12.1-8.8,22.6-19.4,33.6-29.5
	c4.1-3.8,7.8-7.7,11.3-12C908.3,377.7,911.6,375.7,914.7,373.1z"/>
<path d="M327.9,150.3c3.4,0,6.8,0.4,10-0.1c8.3-1.1,13.1,1.4,15.8,9.3c1.1,3.4,1.3,7.1,1.6,10.7c1,9.1,1.6,18.2,3.1,27.3
	c0.5,2.9,2.8,5.6,4.6,8.2c2.5,3.4,2.5,4.2-1.3,6.1c-3.8,1.9-7.6,3.8-12.1,6.1c4.2,4.3,8.1,8.4,12.7,13.1c2.4-5.4,4.3-10.1,6.5-14.6
	c5.9-12.3,12.5-24.3,17.8-36.8c4.8-11.4,10.7-22.2,16.1-33.3c0.9-1.8,2.2-3.3,3.3-5c0.5,0.2,0.9,0.3,1.4,0.5c0,1.3,0.3,2.8-0.1,4
	c-2.1,6.4-4.1,13-6.8,19.2c-4.7,11-9.5,21.9-14.8,32.6c-4.5,9-9.2,17.8-11.5,27.6c-1.3,5.3-2.2,10.8-2.6,16.3
	c-0.1,1.7,1.6,3.8,2.8,5.5c6.4,8.8,11.5,18.2,12.1,29.1c0.3,5.6-0.9,11.4-1.7,17c-1.7,11.8-3.7,23.5-5.2,35.3
	c-0.6,5-0.7,10.2-0.2,15.2c0.6,6.5,2.9,12.8,6.2,18.5c2.2,3.9,4.9,7.5,7.4,11.2c4.3,6.3,4,9-2.5,12.9c-6.4,3.9-12.8,7.7-19.5,11
	c-14,6.9-25.2,17.4-36.8,27.4c-3,2.6-5.1,6.3-7.6,9.4c-3.7,4.5-7.5,8.9-12.1,14.2c-0.2-2.4-0.8-3.7-0.4-4.6c1.2-2.9,2.3-6,4.1-8.6
	c9.2-13.5,20.8-24.7,33.5-34.9c7.2-5.7,14.4-11.4,21.6-17c1.8-1.4,4-2.4,6-3.7c1.7-1.1,3.4-2.3,5-3.4c-3-4-5.5-7.3-8.1-10.6
	c-2.2-2.8-4.7-3.6-7.9-2.1c-5.6,2.7-11.4,5.1-16.3,8.7c-13,9.4-26.8,17.3-40.9,24.9c-3.1,1.7-6.7,2.7-10.3,3.3
	c-7.5,1.2-9.7-0.1-13.4-6.6c-3.5-6.2-7.5-7.3-13.7-3.8c-10.2,5.7-20.7,11.1-30.8,17c-9.4,5.5-18.4,11.5-27.6,17.3
	c-3.1,1.9-6.1,3.9-9.3,5.5c-1.7,0.9-3.8,0.9-5.7,1.3c-0.3-0.4-0.5-0.9-0.8-1.3c0.9-1.3,1.5-3,2.6-3.9c5.9-4.5,11.9-9.1,18-13.2
	c6.7-4.5,13.9-8.4,20.4-13.2c2.9-2.2,4.6-6,6.1-8.1c-2.5,0.2-6.8,0.6-11.1,1c-1.3,0.1-2.6,0.4-3.8,0.3c-2.4-0.2-5.2-0.8-5.2-3.6
	c0-1.7,1.5-4,3.1-5c7.4-5,15.1-9.6,22.7-14.3c16.7-10.5,32.4-22.3,46.6-35.8c15.9-15.1,27.1-33.3,33.6-54.4c0.2-0.8,0.3-1.7,0.4-2.5
	c0-0.2-0.2-0.4-0.8-1.3c-1.7,0.9-3.6,1.5-5,2.8c-6.4,5.8-14.1,7.7-22.4,7.9c-17.9,0.5-35.8-0.5-53.6-2.7c-3.1-0.4-6.4,0.1-9.6-0.2
	c-6.3-0.6-12.6-1.5-20-2.3c1.3-1.3,1.8-2.4,2.5-2.6c5.2-1.1,10.3-2.3,15.8-1.8c21,1.9,42.1,3.3,63.3,2.2c11.7-0.6,21.6-4.8,27.3-16
	c0.5-0.9,1-2,1.8-2.6c5.2-3.7,4.7-8.5,3-13.7c-2.7-8.6-5.9-16.9-10.7-24.5c-3.3-5.2-4-4.5-10.2-4.2c-7.1,0.4-12.5,2.5-16.3,8.6
	c-0.4,0.6-1.4,0.8-2.4,1.3c-4.3-3-8.2-6.4-10-11.3c-5.2-14.9-6.1-29.6,3-43.5c3.3-5,6.5-10,9.7-15c1.2-2,2.8-4,0.8-6.4s-4.5-2.3-7-1
	c-5.7,3-11.3,6-16.9,9c-2.3,1.2-3.5,3.1-3.2,5.8c0.6,4.9-1.6,8.7-5,11.9c-6,5.7-11.4,11.9-17.9,17.2c-6,4.9-10.9,11.4-15.8,17.5
	c-6.8,8.4-13.3,17.1-20.1,25.5c3.4-8,6.6-16.1,12.1-23.1c8.8-11,17.4-22.1,26-33.1c0.5-0.7,1-1.4,1.5-2.1c3.4-5.4,2.7-8.8-2.4-12.6
	c-2.6-1.9-5.2-3.7-7.5-5.8c-3.8-3.5-3.6-6.8,1.1-9c7.7-3.5,15.7-6.5,23.8-9.2c4.2-1.4,8.9-1.2,13.2-2.3c6.9-1.8,13.4,0,20,1.6
	c1.5,0.4,3.7,0.7,4.7-0.1c5.9-4.5,11.9-0.5,17.9-0.5c1.2,0,2.7,2.4,3.5,4C327.7,146.3,327.6,147.9,327.9,150.3z"/>
<path d="M627.5,298.9c-4.7,3.6-10.2,5.6-15.6,8c-11.1,5-22.1,10.1-33.1,15.1c-3.5,1.6-7,3-10.5,4.6c-2.7,1.2-5.4,1.3-7.9-0.3
	c-3-1.9-5.1-0.8-7,1.9c-2.4,3.4-4.3,6.8-4.6,11c-0.3,4.4-1.3,8.8-1.7,13.3c-0.9,10.3,3.4,19.6,6.3,29.2c1.7,5.9,3.1,12,3.7,18.1
	c0.3,2.9-1.7,5.9-2.9,9.7c-3.6-3.9-6-2.1-9,0.4c-11.3,9.6-13.3,22.3-12.3,36c0.2,2.8,2.2,5.4,3.4,8.2c7.2,16.6,14.8,33,23.9,48.8
	c4.8,8.3,9,17,10.4,26.7c0.5,3.3,1.2,6.7-2.5,10c-0.9-2.2-1.8-3.8-2.2-5.5c-2.9-11-8.4-20.8-13.8-30.8
	c-7.5-13.9-14.1-28.2-20.8-42.4c-2.3-4.8-4.3-9.7-5.5-14.8c-1.3-5.5-3.3-10.9-1.9-16.9c1.1-4.7,0.9-9.8-1.3-14.3
	c-16.8-2-23.1,4.9-24.9,17.5c-1,7-1.8,14-3.3,20.8c-0.9,4.1-3.4,7.8-4.7,11.8c-4.9,15.5-9.5,31-14.2,46.5c-0.6,1.8-1.1,3.7-2,5.4
	c-0.5,1-1.7,1.6-2.6,2.3c-0.8-1.1-2.4-2.1-2.4-3.2c-0.1-3.2,0.1-6.4,0.9-9.5c1-4.1,2.8-8,4.1-12c3.9-12.4,7.7-24.8,11.7-37.2
	c1.4-4.5,2.1-8.9,1.5-13.8c-0.6-4.8,0.2-9.7,0.3-14.6c0-1.6-0.3-3.2-0.5-5.9c-5.4,2.2-10,4.1-14.5,6c-2.7,1.1-5.6,4.1-8.1,1.6
	c-1.4-1.5-1.3-5.2-0.9-7.7c2.1-14.1,4.8-28.2,10.8-41.2c3.4-7.3,7.8-14.2,11.6-21.3c5.1-9.6,10.5-19,15.1-28.8
	c3.7-7.9,7.1-15.9,9-24.5c1.2-5.4,0.5-9.4-3.6-13.8c-13-13.8-25.4-28.1-37.8-42.4c-4.6-5.3-8.3-11.3-12.6-16.9
	c-2.5-3.2-4.8-6.7-8-9.1c-5.5-4.2-7.7-10.6-11.7-15.7c-0.3-0.4,0-1.2,0-2.1c3.1-0.9,4.9,1,6.6,2.8c6.4,6.9,12.8,13.7,18.8,20.8
	c6.8,8.2,12.9,17,19.8,25c6.5,7.6,13.5,14.7,20.7,21.8c3.8,3.7,4.9,3.6,10.6,1.9c0.6-4,0.3-8.2,3.8-11.6c2.2-2.2-0.4-9-3.6-11.1
	c-4.1-2.6-8.3-5.1-12.5-7.6c-4.9-3-8.4-6.9-10.5-12.4c-2.7-7.1-6.2-14-9.3-21c-0.5-1.2-0.8-2.4-1.1-3.7c-2.3-11,1.2-16.4,12.2-18.1
	c14.2-2.2,27.6-6.7,40.6-12.7c3.7-1.7,13.8,1,16.2,4.6c0.7,1,0.7,2.9,0.3,4.1c-1.1,2.9,0.2,4.8,2.3,6c3.1,1.7,6.5,3,9.9,4.1
	c2.6,0.8,5.5,0.8,8.1,1.6c5,1.5,5.1,1.9,4.6,7.1c5.4,4,13.7,2.4,17.8,8.7c-0.2,0.5-0.4,1.1-0.5,1.6c-3.7-0.4-7.5-0.4-11-1.4
	c-4.7-1.4-7.8-0.1-10.2,4.1c0.6,4.7,3.7,6.8,8.2,7.2c6.4,0.5,12.7,1,19.1,1.4c6.2,0.4,12.3,0.8,18.5,1.2c0.9,0.1,1.8,0.6,4,1.4
	c-2.3,0.8-3.4,1.5-4.4,1.6c-10.6,0.5-21.3,1-32,1.2c-4.5,0.1-8.9,0-13.2,1.7c-2.3,0.9-5,1.2-7.5,1.5c-6,0.5-10.9,3.2-15.1,7.3
	c-1.4,1.3-2.9,3-4.6,3.3c-6.1,1.2-8.9,5.9-12.2,10.6c2.2,3.9,5.4,6.7,9.5,8.7c2.1,1,5.1,1.6,4.7,5.7c-2.9,0-5.7,0-8.9,0
	c-0.6,4.2,0.8,7.6,2.2,10.7c3.7,7.9,6.9,16.2,11.9,23.3c3.2,4.6,9.1,7.4,13.9,10.6c0.9,0.6,2.9,0,4.2-0.6
	c8.4-3.6,16.7-7.4,25.2-10.9c10.2-4.2,20.3-8.9,31.6-9.9c1-0.1,2,0.1,3,0.1C627.2,297.9,627.3,298.4,627.5,298.9z"/>
<path d="M424.6,90.1c-0.2-8.2,3.1-15.9,11.5-20.9c4.2-2.5,8.6-4.8,13.1-6.6c2.4-1,5.6-1.4,8.1-0.7c8.4,2.2,16.8,4.7,25,7.8
	c8.4,3.1,14.9,8.7,19.4,16.8c2.3,4.1,2.3,8,1.2,12.3c-2.1,8.2-8,13.4-14.1,18.4c-5.9,4.8-12.5,6.1-20.3,5.5
	c-9.3-0.7-18.2-2.9-26.6-6.3C431.2,111.8,424.6,105.6,424.6,90.1z"/>
<path fill="white" d="M733.3,281c0.9,2,2.5,3.9,2.7,5.9c1.2,13.1,2.2,26.3,3.2,39.5c0,0.2,0,0.4-0.1,0.6c-0.2,2.2-0.2,4.6,2.4,5.2
	c2.5,0.6,4.6-0.8,5.7-3.1c0.9-1.9,1.5-3.9,2.9-7.3c4.2,8.7,7.6,16.3,11.5,23.7c3.9,7.4,7.7,14.9,10.2,22.8c-1.4,0.6-1.7,1-2.1,1
	c-10.1-1.1-20.3-2.3-30.4-3.3c-2.9-0.3-6-0.1-8.8,0.5c-4.9,1-5.6,0.9-6.1-4.1c-0.6-6.4-1.1-12.8-1-19.1c0.2-11.1,0.6-22.2,1.7-33.2
	c1-9.9,3.2-19.6,6.6-28.9C732.4,281.1,732.8,281.1,733.3,281z"/>
<path fill="white" d="M799.3,186.4c0.2,4-2,5.5-4.1,6.8c-10.4,6.4-21.5,11.3-33.2,14.8c-5.9,1.8-11.4-0.3-16.4-3.4
	c-1.2-0.8-2.2-3.3-2-4.9c1.1-8.4,2.2-16.9,4.1-25.1c1.8-7.6,3.3-7.9,11.5-8.4c13-0.8,24.9,2.5,36.3,8.2c0.7,0.4,1.5,0.9,2.1,1.4
	c0.3,0.2,0.3,0.7,0.8,1.8c-1.3,0.7-2.7,1.4-4.1,2.1c-1.8,0.9-4.8,0.7-4.2,3.7c0.5,2.5,2.9,1.8,4.8,2
	C796.3,185.7,797.7,186.1,799.3,186.4z"/>
<path fill="white" d="M338.3,289.4c-0.3,5-0.9,10.1-1,15.1c-0.1,4.6-2.3,9.5,1.3,15.1c6.3-19.8,3.9-39.6,7.5-59.5
	c-0.6-1.5-2-3.9-2.5-6.5c-3.4-18.1-6.2-25.5-15-39.9c0.8,0.7,1.6,1.5,2.4,2.1c3.4,2.5,6.6,5.6,10.4,7.2c4.3,1.8,7.7,4.4,10.5,8
	c5.9,7.8,11.7,15.7,17.9,23.3c4.9,5.9,8.1,12.7,9.9,19.9c1.1,4.4,1.2,9.4,0.4,13.9c-1.3,7.5-3.8,14.9-5.7,22.3c-2,7.8-4,15.7-6,23.5
	c-0.3,1.4-0.2,2.9,0.6,4.6c0.9-1.8,1.7-3.5,2.6-5.3c0.3,0,0.6,0,1,0c-0.3,6.1-0.7,12.1-1,17.8c-7.8,5.1-15.3,10-22.8,14.9
	c-7.1,4.7-14.1,9.6-21.4,14c-7.3,4.3-14.9,8.1-22.5,12.1c-1.3,0.7-2.8,1.1-4.2,1.4c-3.8,0.7-4.8,0.1-6.2-3.6
	c-0.4-1.2-0.7-2.5-1.2-3.6c-2.6-6.7-5.6-8.1-12.6-8.3c-6.3-0.2-12.1,1.1-18,3.2c-3.8,1.3-7.9,1.8-11.9,2.4c-0.9,0.1-1.9-0.5-2.8-0.7
	c-0.4-0.6-0.8-1.2-1.2-1.8c1.2-0.5,2.5-0.8,3.5-1.6c14.7-10.9,29.9-21.2,43.9-33c17.9-15.1,32.4-33.2,41-55.4
	c0.3-0.7,0.9-1.3,1.3-1.9C337.2,289.1,337.8,289.3,338.3,289.4z"/>
<path fill="white" d="M330,200c-4.7,1-9.5,1.9-14.2,3.1c-5.4,1.4-9.4-1.1-10-6.5c-1-9.2,2.1-18,3-27c0.1-0.6,0.3-1.4,0.7-1.7
	c3.9-2.4,7.6-6.2,11.8-6.8c5.5-0.8,10.8-1.7,16.2-3.2c6.3-1.7,8.3-0.4,10.1,6c1.5,5.2,0.5,10.2-0.8,15.1c-1.4,5.5-3.4,11-5.2,16.4
	c-1.8,5.3-2.2,5.5-7.8,5.5c-1.3,0-2.5,0-3.8,0C330.1,200.6,330.1,200.3,330,200z"/>
<path fill="white" d="M316.6,153c-4.7,0.4-7.4-0.8-8.4-5.1c2.8-1.4,5.5-2,7.7,0C316.8,148.8,316.4,151.1,316.6,153z"/>
<path fill="white" d="M474.2,419c-1.6-6.4-0.6-11.5,0.9-16.3c3.8-12,7.6-24,13.8-35c1.9-3.3,4.4-6.3,6.2-9.6
	c9.1-16.2,17-32.8,22.7-50.6c2.4-7.6,3.9-15.2,5.5-22.9c0.5-2.5,0.8-5,3.8-6.6c0.6,1.3,1.4,2.3,1.6,3.4c2.1,10.7,7.4,19.9,13.1,28.9
	c0.6,0.9,1.1,1.8,1.7,2.7c3.1,4.5,3.6,8.8,1.2,14.2c-8.1,18.4-6,36.9,1.1,55.2c1.1,2.9,2,5.9,2.9,8.6c-8.8,3.2-16.7,7.2-25.2,9
	c-8.7,1.9-16.4,5.9-24.7,8.6C490.6,411.5,482.9,416.1,474.2,419z"/>
<path fill="white" d="M519.5,247.1c-1.1-7.3-5.5-9.9-10.8-11.5c-3.5-1.1-6.9-2.6-7.2-7.4c2-1,4-2.1,6.3-3.2
	c-0.8-4.2-1.5-8.4-2.4-13.1c4.5-4.4,9.4-9,14.3-13.8c1.8,0.7,3.6,0.8,4.4,1.8c4.6,5.5,11.4,7.1,17.3,10.4c2.4,1.3,5.1,2.3,5.6,5.1
	C537.9,225.8,527,234.1,519.5,247.1z"/>
<path fill="white" d="M468,111.6c-6.6,1-12.6-0.4-18.2-3.1c-4.7-2.2-9.8-12.3-8.8-17.2c0.1-0.4,0.1-0.9,0.4-1.2
	c3.1-3.2,4.5-6.3,1.3-10.5c-0.6-0.8,0.6-3.8,1.8-4.8c2.6-2.2,5.8-3.6,9.4-3.1c5.5,0.9,11.2,1,16.3,2.8c4.9,1.7,9.3,5,13.5,8.1
	c2.5,1.8,4.4,4.6,6.3,7.2c3.2,4.3,3,8.5-0.4,12.7C483.8,109.5,476.8,113.2,468,111.6z"/>
</svg>
