<?xml version="1.0" encoding="utf-8"?>
<!-- Generator: Adobe Illustrator 16.0.0, SVG Export Plug-In . SVG Version: 6.00 Build 0)  -->
<!DOCTYPE svg PUBLIC "-//W3C//DTD SVG 1.1//EN" "http://www.w3.org/Graphics/SVG/1.1/DTD/svg11.dtd">
<svg version="1.1" id="Layer_1" xmlns="http://www.w3.org/2000/svg" xmlns:xlink="http://www.w3.org/1999/xlink" x="0px" y="0px"
	 width="150px" height="300px" viewBox="0 0 150 300" style="enable-background:new 0 0 150 300;" xml:space="preserve">
<style type="text/css">
<![CDATA[
	.st0{fill-rule:evenodd;clip-rule:evenodd;}
	.st1{fill-rule:evenodd;clip-rule:evenodd;fill:#FFFFFF;}
]]>
</style>
<path class="st0" d="M86.9,103.9c19.4-14.3,35.2-31.4,54.4-44.9c2.1,4.5-0.7,6.4-2.5,8c-11.6,10.4-23.4,20.6-35,30.9
	c-2.7,2.4-5.6,4.8-7.9,7.6c-6.5,8.1-5,20.9,3.6,28.9c7.3-6,14.6-12.2,22-18.1c7.3-5.8,13.2-13.6,23.2-18.6c-1.3,7-5.3,10.3-8.8,13.6
	c-9.6,9.1-19.6,18-29.5,26.8c-4.7,4.2-5.1,5.2-1.8,10.8c10.4,17.5,20.7,35.1,31.6,52.3c3.9,6.2,9.5,11.3,8,20.2
	c-11.6-4.8-23.8-5.5-36.8-7c-1.3,5.8-2.3,11-3.5,16.1c-1.6,6.9-3.7,13.7-4.8,20.6c-1.6,9.4-2.9,19-3.6,28.5
	c-0.2,3.7,1.8,7.5,2.8,11.2c-6.2,3.9-9.7,3-9.7-3.4c-0.1-9.3,0.7-18.6,2.1-27.8c1.8-11.7,4.6-23.3,7.1-34.9
	c0.9-4.2-0.1-7.9-2.8-11.1c-3.1-3.5-6.4-3.1-8.8,1c-0.7,1.2-1.2,2.6-1.7,3.9c-7.9,20.6-15.9,41.1-23.7,61.8
	c-0.9,2.3-1.5,4.9-1.4,7.3c0.3,7.6-0.5,8.9-9,11.6c-2.7-3.5-0.7-7,0.6-10.3c6.4-17.2,13.2-34.3,19.4-51.6c2.6-7.1,4.7-14.6,5.9-22
	c1.3-7.9-0.6-9.9-8.1-12.2c-8.8-2.7-10.1-4.1-9.9-14.1c0.6-25.8,4.3-51.3,8-76.8c0.7-4.8,1.8-9.5,2.5-14.2c0.2-1.7-0.5-3.5-1-7.1
	c-2.9,3.4-4.7,5.4-6.4,7.4c-7.9,9.5-13.8,19.9-13.8,32.8c0,8.3-6.9,10.7-12.6,11.4c-6.9,0.9-11.4,4.2-15.5,9
	c-1.9,2.2-3.9,4.5-7.2,2.9c-3.2-1.5-3.3-4.6-2.6-7.4c0.8-3.2,2.3-6.3,3.8-9.3c1.9-3.7,2-3.7,0.3-9.9c-2.5,0.4-5.1,0.8-8.7,1.4
	c1-7.8,2.9-13.9,7.5-19.8c7.5-9.5,14.1-19.8,21.1-29.7c2.2-3.1,2.7-6,0.2-9.3c-2.3-2.8-1.5-5.8,0.1-8.7c3.7-6.5,6.4-13.2,4-21
	c-1.2-3.9,1.4-6.6,4.3-8.5c4-2.7,5.7-6.3,7.3-10.8c3.2-9.2,10.6-15,19.1-19.4c4.5-2.3,6.5,1.6,9.2,4.5c5.1-2,9.8-2.8,14.7,1.6
	c2.2,1.9,7,1.1,10.6,1.3c4.8,0.2,6.7,1.7,5.3,6.1c-1.2,4-0.1,7.1,1.2,10.6c4.2,11.9,3.1,23-6.4,32c-4,3.9-8.7,7.2-13.5,10.1
	c-3.4,2.1-5.9,4.4-6.7,8.3C81.5,85.5,83.1,94.5,86.9,103.9z"/>
<path class="st1" d="M77.4,94.9c-0.7,0-1.4-0.1-2-0.1c-2.7,19.5-5.7,39-8,58.6c-1.2,10.6-1.3,21.4-1.8,32.1c-0.2,3.8,0.1,7.9,4,9.5
	c7.7,3.3,15.5,6.9,23.6,8.8c10.7,2.5,21.7,3.7,32.6,5.2c1.5,0.2,3-0.4,5.4-0.8c-1.5-2.9-2.5-5.2-3.8-7.3c-8.6-14-17-28-25.9-41.8
	c-7.2-11.2-13-22.9-16.1-36C83.1,113.7,80.1,104.3,77.4,94.9z"/>
<path class="st1" d="M107.8,38.2c0.2-10.4-2.9-15.4-10.1-17.9c-7.2-2.5-20.7-0.1-24,4.4c-3.3,4.5-6.5,9-9.6,13.7
	c-0.9,1.4-1.6,3-1.9,4.6c-1.4,8.1,3.4,15.1,4.1,22.9c0.1,1.2,2.9,2.9,4.5,3.1c3.3,0.3,7,0.4,10-0.7c8.3-3,15.7-7.8,21.3-14.8
	C106.1,48.7,108.1,43.3,107.8,38.2z"/>
<path class="st0" d="M102.9,30.1c0,2.2-1.3,3.7-3.2,3.7c-2.7,0-5-2-4.9-4.2c0.1-1.7,2.3-3.5,4.4-3.6C101.1,26.1,102.9,28,102.9,30.1
	z"/>
<path class="st0" d="M87.6,31.4c0,2.2-1.3,3.7-3.2,3.7c-2.7,0-5-2-4.9-4.2c0.1-1.7,2.3-3.5,4.4-3.6C85.8,27.3,87.6,29.2,87.6,31.4z"
	/>
</svg>
