<?xml version="1.0" encoding="utf-8"?>
<!-- Generator: Adobe Illustrator 16.0.0, SVG Export Plug-In . SVG Version: 6.00 Build 0)  -->
<!DOCTYPE svg PUBLIC "-//W3C//DTD SVG 1.1//EN" "http://www.w3.org/Graphics/SVG/1.1/DTD/svg11.dtd">
<svg version="1.1" id="Layer_1" xmlns="http://www.w3.org/2000/svg" xmlns:xlink="http://www.w3.org/1999/xlink" x="0px" y="0px"
	 width="170px" height="300px" viewBox="0 0 170 300" style="enable-background:new 0 0 170 300;" xml:space="preserve">
<style type="text/css">
<![CDATA[
	.st0{fill-rule:evenodd;clip-rule:evenodd;}
	.st1{fill-rule:evenodd;clip-rule:evenodd;fill:#FFFFFF;}
]]>
</style>
<path class="st0" d="M78.5,211.3c-20.3-7.8-19.5-8.2-20.7-29.9c-0.5-9.3,1.2-18.6,1.9-28.9c-12.9,12.1-15.6,30.5-29.8,41.3
	c0.4-1.9,0.5-3.9,1.4-5.5c4.7-8.8,9.7-17.5,14.5-26.4c11.3-21,22.3-42.1,29.6-64.8c0.4-1.1,0.4-2.4,0.7-3.7
	c-9.5,1-13.3,4.1-17.7,11.8c-1.7,3-5.2,5.5-8.5,6.8c-5.9,2.3-10.5,5.2-11.9,12c-0.4,2-1.9,4.1-3.6,5.3c-5.4,3.6-7.8,8.5-8.3,14.9
	c-0.2,3.3-2.1,6.5-3.6,9.5c-3.9,7.5-8.3,14.8-11.9,22.4c-2,4.3-2.8,9.3-4.8,13.9c-0.8-8.2-1.3-16.3,1.2-24.4c1-3.4,1.8-7.5,0.9-10.8
	c-1.8-6.7-0.2-12.3,3.1-17.9c6.5-11,12.9-22.1,19.4-33.4c-2.2-3-4-5.4-5.8-7.7c4.7-5.7,9.1-11.2,14.2-17.4
	c-5.1-2.5-9.4-4.6-14.7-7.2C28.4,58.7,41.4,56.5,49.5,48c-2.5-4-5.2-8.3-8.6-13.6c5-2.5,9-4.9,13.3-6.4c12.4-4.4,24.8-8.7,37.3-12.4
	c10.6-3.1,21-2.7,30.1,4.9c2.2,1.8,4.4,3.8,6.9,4.8c12.8,5.2,15.1,16.3,14.6,27.7c-0.5,12.4-8.8,20.4-19.6,25.6
	c-3.4,1.6-7.1,2.9-10.8,3.2c-7.6,0.8-10.9,5.9-12.5,12.2c-1.2,4.8-0.9,9.9-1.2,14.9c-0.3,4.8,2.3,7.1,6.9,6.6
	c10.3-1.2,20.5-2.4,30.7-4.1c8.3-1.4,16.5-3.5,24.8-5.2c1.1-0.2,2.3-0.1,3.6,0.8c-20.4,7.5-40.8,14.7-63,15.3
	c-2.1,6.7,0.3,12.3,2.5,17.6c8.5,20.6,17.4,40.9,26,61.5c0.7,1.7,1.2,4.6,0.2,5.8c-1,1.3-3.8,1.7-5.7,1.6c-4.4-0.2-8.7-0.9-13.1-1.3
	c-4.2-0.4-6.8,1.5-7.3,5.6c-0.6,4.3-0.6,8.7-0.8,13.1c-1.1,20.9,2.9,41.1,9.2,60.9c1.8,5.7-2.2,7.6-5.4,11.3
	c-1.1-1.5-2.2-2.3-2.4-3.3c-4.2-23.8-8.9-47.5-9-71.8c0-3.4-0.3-6.9-1.1-10.2c-0.4-1.4-2.4-3.2-3.7-3.3c-1.4-0.1-3.8,1.5-4.2,2.8
	c-0.9,3.2-1.5,6.8-1.3,10.1c1.2,17.2,2.6,34.3,4.1,51.5c0.2,2.1,1.3,4.2,1.7,6.3c0.7,3.6-0.6,6.1-5.4,7.2
	c-4.5-7.5-2.2-16.3-3.8-24.3c-1.8-8.5-1.7-17.4-2.4-26.2C79.5,228.7,79,220.2,78.5,211.3z"/>
<path class="st1" d="M91.4,89.2c-1.9,2.2-2.8,3.1-3.6,4c-8.3,10.4-11.3,23.2-14.9,35.3c-4.1,13.7-5.9,28.1-7.7,42.4
	c-0.9,6.7,0.1,13.8,1.2,20.5c0.7,4.3,3.2,7.7,9.1,7.4c11.6-0.7,23.2-0.4,34.7-0.7c2.3-0.1,4.6-0.8,7.8-1.5
	c-1.2-4.2-1.8-7.5-3.1-10.7c-4.8-11.9-9.3-23.8-14.7-35.4c-4.4-9.6-6.8-19.6-7.7-29.8C91.7,110.7,91.8,100.7,91.4,89.2z"/>
<path class="st1" d="M92.4,33.3c-0.6,4.6,1.9,9-3.4,12.2C78.8,51.6,77.9,61,86.3,68.8c3.1,2.8,7.1,5.2,11.1,6.4
	c13.8,4,25.3-1.5,34.8-10.9c6-5.9,7.6-13.6,3.9-21.6c-3.5-7.7-11.7-12.4-20.5-11.9c-2.2,0.1-4.9,1.1-6.4,0.1
	C103,26.7,98.2,30.5,92.4,33.3z"/>
<path class="st0" d="M131.2,45c0,2.1-1.1,3.5-2.9,3.5c-2.4,0-4.4-1.9-4.3-3.9c0.1-1.6,2.1-3.3,3.8-3.4C129.6,41.2,131.1,43,131.2,45
	z"/>
<path class="st0" d="M116.1,44.6c0,2.1-1.2,3.5-3,3.5c-2.5,0-4.7-1.9-4.6-3.9c0.1-1.6,2.2-3.3,4.1-3.4
	C114.4,40.8,116.1,42.6,116.1,44.6z"/>
</svg>
