<?xml version="1.0"?>
<!-- 24.1.28  -->
<svg xmlns="http://www.w3.org/2000/svg"
     width="1000" height="160"
     viewBox="0 0 1000 160">
<g>
	<path class="black" fill="#000000" d="M758.4,67.8c2.8,0.2,6.5,1.9,9.4,4.9c2.5,2.6,5.2,4.6,8.4,6.3c2.6,1.3,4.1,4,4.5,7c0.2,1.7,0.7,2.6,2.5,2.4
		c0.4,0,0.8,0.2,1.2,0.3c3.1,0.9,3.5,0.7,3.9-2.5c0.1-0.4,0.1-0.8,0.1-1.3c0.1-3,0.6-3.9,3.4-3.5c3.2,0.5,6.4,1.5,9.4,2.8
		c1.9,0.8,1.5,3-0.6,3.9c-1.7,0.7-3.5,0.9-5.3,1.3c-0.8,0.2-1.7,0.2-2.5,0.4c-2.6,0.8-2.8,1.4-1.2,3.6c0.7,1,1.3,1.9,1.9,3
		c2.9,5,0.4,10.6-5.3,11.9c-2.3,0.6-2.3,0.6-2.1,3.1c0.3,2.8-0.2,5.1-3.1,6.4c-1.1,0.5-1.5,1.4-1.3,2.6c0.2,1.4,0.4,2.8,0.4,4.1
		c0,0.9-0.1,1.9-0.4,2.8c-0.4,1-1.3,1.5-2.2,0.5c-1.2-1.2-2.4-2.5-3.5-3.7c-1.7-1.9-1.7-2-3.7-0.5c-0.6,0.4-1.2,1-1.9,1.2
		c-3.5,1.2-5.4,4-6.7,7.3c-0.3,0.8-0.8,1.5-1.4,2.1c-1.4,1.3-2.2,1.3-2.9-0.4c-0.8-1.9-1.6-4.1-1.6-6.1c0-2.2-1.5-3.2-2.7-4.4
		c-0.3-0.3-1.2-0.4-1.8-0.3c-2.3,0.4-4.6,1-6.9,1.4c-1.8,0.3-2.7,1.6-3.4,3.1c-0.4,1-0.7,2-1.2,3c-0.7,1.2-2,1.2-2.8,0
		c-0.2-0.3-0.2-0.6-0.3-0.9c-1.1-3.1-1.8-6.3-3.9-9c-1.3-1.7-1.5-3.9-1-6.1c0.7-2.8,0.3-5.1-2.2-7.2c-2.8-2.3-3-7-1-10.3
		c1.7-2.8,2.5-5.7,0.6-8.9c-1.5-2.7-0.6-7,1.5-9.3c2.2-2.4,4.7-3.8,7.8-4.6c2.1-0.5,4-1.9,5.8-3.2C749.9,68.9,753.2,67.7,758.4,67.8
		z"/>
	<path class="black" fill="#000000" d="M765.3,5.5c2.7,0,5.2,0.8,7.3,2.3c2.3,1.6,4.6,1.8,7.2,1c2-0.6,4.1-1,6.3-1.3c3.9-0.4,6.8,1.4,8.1,5.2
		c0.5,1.5,0.6,3.1,0.8,4.7c0.1,1.4,0.5,2.2,1.8,3c4.6,2.6,7.4,6.6,7.8,12.1c0.1,1.8-0.1,3.5-1.3,4.8c-1.9,2.1-1.5,4.4-0.8,6.6
		c1.2,4-0.1,7-4.1,8.6c-1,0.4-2,0.9-3,1c-2.4,0.3-4.3,1.4-6.1,3c-2,1.9-4.8,1.6-7.3,1.3c-0.8-0.1-1.7-0.4-2.5-0.6
		c-1.1-0.2-1.7,0.1-2.2,1.2c-1.6,3.4-3.4,4.3-7.2,3.7c-2.3-0.4-4.4-1.2-5.7-3.2c-0.9-1.4-1.9-1.5-3.3-1.1c-4,1.2-7.4-0.1-10.5-2.5
		c-1-0.8-2-2.1-2.3-3.3c-0.8-3.4-2.6-5.7-6.1-6.7c-0.8-0.2-1.6-0.7-2.4-1c-4-1.8-5.2-6.3-2.7-9.9c0.3-0.4,0.6-0.9,1-1.2
		c1.3-1.1,1.4-2.3,0.4-3.7c-2.4-3.3-1.6-6.4,0.6-9.5c2-2.7,4.1-5.1,7.8-5.6c0.9-0.1,1.7-1.1,2.4-1.8c1-0.9,1.9-1.9,3-2.7
		c3-1.9,6-3.6,9.6-4C763.1,5.8,764.2,5.6,765.3,5.5z"/>
	<path class="black" fill="#000000" d="M788.7,71.7c0.5,2.1-2.2,4.5-4.4,4.4c-3.8,0-5.6-1.7-5.8-4.9c-0.2-2.6,3.3-5,6-5.1
		C786.6,66.2,788.7,68.9,788.7,71.7z"/>
	<path class="black" fill="#000000" d="M765.7,140c2.2,0,3,1.1,2.8,3.1c0,0.3-0.4,0.8-0.6,0.8c-2,0-4.1-1.3-3.7-2.5
		C764.4,140.7,765.4,140.3,765.7,140z"/>
	<path class="black" fill="#000000" d="M747.9,138.8c-0.2-0.1-0.4-0.1-0.6-0.2c-0.6-0.5-0.4-2.2,0.4-3.2c0.7-0.8,1.6-1.1,2.5-0.4
		c0.3,0.2,0.5,0.7,0.5,1.1C750.7,137.1,748.9,138.8,747.9,138.8z"/>
	<path class="black" fill="#000000" d="M790,135.8c-0.8,0.5-1.6,1.2-2.4,1.3c-1.1,0.2-1.8-0.7-1.7-1.8c0.1-1.1,1.1-1.5,2.1-1.2c0.7,0.2,1.3,0.6,2,0.9
		C790,135.2,790,135.5,790,135.8z"/>
	<path class="black" fill="#000000" d="M734,139.2c-0.2-0.2-0.9-0.5-1-1.1c-0.3-0.9,1.9-2.6,2.9-2.3c0.4,0.1,0.9,0.9,1,1.4
		C736.9,138.5,736,139.2,734,139.2z"/>
	<path class="black" fill="#000000" d="M773.5,137.3c-1.7-0.1-3-1.3-2.6-2.3c0.1-0.4,1-1,1.4-0.9c1,0.2,2.3,0.4,2.2,1.8
		C774.4,136.5,773.8,137,773.5,137.3z"/>
	<path class="black" fill="#000000" d="M743.9,143.5c-0.2,1.8-1.3,2-2.2,1.9c-0.5-0.1-1.3-0.8-1.4-1.3c-0.2-1.2,0.6-1.8,1.8-1.6
		C742.7,142.8,743.3,143.3,743.9,143.5z"/>
	<path class="black" fill="#000000" d="M782.5,142.6c-1,0.6-1.5,1.1-2.1,1.2c-1.3,0.3-2.6-0.6-2.3-1.4c0.3-0.7,1.3-1.5,2-1.5
		C780.7,140.8,781.4,141.8,782.5,142.6z"/>
	<path class="black" fill="#000000" d="M750.8,144c1.2-0.7,1.8-1.3,2.4-1.3c1-0.1,2,0.4,2,1.5c0,0.4-1,1.2-1.5,1.2C752.9,145.3,752.2,144.7,750.8,144
		z"/>
	<path class="black" fill="#000000" d="M771.4,150c-0.3-0.4-1-1.1-0.9-1.3c0.6-0.8,1.4-1.4,2.2-2c0.3,0.4,0.8,0.8,0.7,1.1
		C773.4,148.9,773.1,149.9,771.4,150z"/>
	<path class="white" fill="#FFFFFF" d="M750.6,91.2c1.6,0.2,3.2,0.3,4.8,0.5c1.7,0.3,1.9,0.7,0.8,2c-1.2,1.5-1.8,3.1-2,5c-0.6,4.4,1.4,8.1,5.4,9.8
		c0.7,0.3,1.4,0.6,2.1,0.7c4.8,0.8,9.7,1.4,14.6,0.4c0.9-0.2,1.9-0.4,2.8-0.5c0.9-0.1,2.3-0.4,2.7,0c0.9,1,1.5,2.4,1.6,3.7
		c0.1,1-0.6,2.4-1.4,2.9c-1.3,0.9-3,1.7-4.4,1.6c-2.3-0.1-3.4,1.3-4.9,2.4c-1.8,1.4-3.8,2.9-5.9,3.6c-3.5,1.2-7,0.7-9.6-2.5
		c-0.4-0.5-0.9-1-1.3-1.4c-0.7-0.7-1.3-0.7-2.2-0.1c-4.3,2.8-9,3.3-13.7,1.7c-3-1-4.1-4.6-2.6-7.5c0.3-0.5,0.4-1.1,0.6-1.7
		c0.3-0.7,0.5-1.3,0.9-1.9c0.4-0.5,1-0.9,1.5-1.3c-0.7-0.3-1.3-0.6-2-0.9c-0.3-0.1-0.6-0.1-0.9-0.2c-5.5-1.6-6.1-6.8-3.7-10.1
		c1.3-1.8,2.7-3.6,4-5.4c0.3-0.5,0.3-1.1,0.5-1.7c-0.5-0.1-0.9-0.1-1.4-0.3c-0.6-0.2-1.4-0.4-1.8-0.9c-1.7-1.9-1.8-5.2-0.4-7.5
		c2.4-4,7.1-5.9,11.6-4.8c0.4,0.1,0.8,0.4,1.2,0.4c0.5,0,1.2-0.1,1.4-0.4c0.2-0.3,0-1-0.2-1.4c-1.1-2-1-2.6,0.7-4
		c3.1-2.6,8.7-2.9,12.4-0.5c1.3,0.9,2.6,1.9,3.8,2.9c1.6,1.4,2.6,3.1,2.7,5.3c0,0.7,0.1,1.5,0.4,2.2c0.5,1.3,1.4,1.4,2.5,0.5
		c2.1-1.8,3.7-1.7,5.1,0.6c0.6,0.9,1.1,1.8,1.5,2.8c0.8,2.6-0.2,4.3-2.9,4.9c-2.3,0.5-4.6,0.8-7,0.4c-2.1-0.3-4.3,0-6.4,0.2
		c-1.2,0.1-1.6-0.3-1.5-1.4c0.2-1.5,0.4-3,0.4-4.5c0-1.7-0.8-2.3-2.5-2c-0.4,0.1-0.8,0.2-1.2,0.4c-3.3,1.6-6.5,3.2-9.8,4.8
		c-0.4,0.2-0.8,0.4-1.1,0.7c-0.9,0.9-0.8,1.8,0.4,2.1c1.4,0.4,2.9,0.5,4.4,0.7C750.6,91.5,750.6,91.3,750.6,91.2z"/>
	<path class="white" fill="#FFFFFF" d="M766.2,106.8c-1.3-0.2-2.6-0.2-3.7-0.7c-2.7-1.2-5.2-2.5-5.3-6.1c-0.1-4.7,1.2-6.5,5.9-6.9c2-0.2,4,0.2,6,0.3
		c0.8,0.1,1.7,0.4,2.5,0.3c1.7-0.2,2.9,0.6,4,1.6c2.3,2,2.5,3.9,0.8,6.5C774.3,105,771,106.5,766.2,106.8z"/>
	<path class="white" fill="#FFFFFF" d="M783.1,91.2c1.4,0.8,3,1.5,4.5,2.5c0.9,0.7,1.6,1.7,2.3,2.6c2.2,3,2.5,5.5,0.9,7.6c-1.4,1.9-5.2,2.9-7.9,2.1
		c-0.2-0.1-0.4-0.2-0.6-0.3c-3.4-0.9-3.4-0.9-2.3-4.1c0.9-2.6,0.3-5.1-1.3-7.2c-0.9-1.3-0.7-1.9,0.6-2.3
		C780.4,91.9,781.6,91.7,783.1,91.2z"/>
	<path class="white" fill="#FFFFFF" d="M748.9,16.6c1.8-0.8,2.3,0.4,2.5,2c0.1,0.4,0.6,0.8,0.9,1.2c0.4-0.4,0.9-0.8,1.2-1.3c0.2-0.3,0.1-0.8,0.1-1.3
		c-0.2-4.1,2.1-6.4,5.6-7.7c3.9-1.5,7.8-1.8,11.8-0.1c2.4,1,2.7,1.6,2.2,4c-0.1,0.6-0.2,1.3,0,1.8c0.3,0.9,1.4,1.1,1.7,0.3
		c1.8-4.3,5.9-4.5,9.6-5.3c4.3-1,7.9,2,7.9,6.5c0,2-0.3,4-0.5,6c-0.1,0.8,0.1,1.5,1,0.7c1.3-1.1,2.4-0.5,3.5,0.2
		c3.4,2.1,4.7,5.5,4.9,9.3c0.1,2.1-1.3,3.3-3,4.2c-2,1.1-3.9,2.2-5.8,3.4c-0.6,0.4-1.1,1.1-1.6,1.7c0.7-0.1,1.4-0.2,2.1-0.4
		c1.3-0.3,3.2-1.3,3.8-0.8c1.4,1.1,2.4,3,3.2,4.7c0.3,0.7-0.2,2.1-0.8,2.9c-1.6,2.2-4.2,2.8-6.7,3.6c-0.3,0.1-0.7-0.2-1.1-0.4
		c-1.6-1-2.1-1-2.7,0.7c-0.9,2.7-3,3.3-5.3,3.1c-3.1-0.2-6.1-0.5-8.8-2.5c-1.2-0.9-3.2-0.9-4.9-1.3c-0.8-0.2-1.7-0.1-2.5,0
		c-0.8,0.1-1.7,0.3-2.2,0.8c-2.9,2.9-6.8,3.8-10.4,2.1c-0.8-0.4-1.6-0.7-2.3-1.2c-2.1-1.4-2.2-2.3-0.5-4.3c1.7-1.9,1.3-3.6-1.1-4.3
		c-3.2-1-6.4-1.8-9.5-3c-2.5-1-3.4-3.5-2.1-5.8c0.5-0.9,1.9-1.3,2.6-2.2c0.9-1.2,1.7-2.1,3.4-1.5c1.3,0.4,1.7-0.7,1.8-1.6
		c0.1-1.1-0.6-1.4-1.6-1.5c-1-0.2-2.1-0.4-2.9-1c-2.7-1.9-3-3-1.4-5.9c0.7-1.4,1.7-2.7,2.7-3.9C745,17,746.7,16.1,748.9,16.6z"/>
	<path class="white" fill="#FFFFFF" d="M768.2,56.3c-1.3-1.6,0-1.8,1.3-1.9c2.4-0.2,4.5,1.1,4.7,2.9c0.2,1.4-0.8,2.2-2.8,2.3c-0.6,0-1.3,0-1.9-0.3
		c-0.6-0.2-1.3-0.6-1.5-1C767.8,57.7,768.1,57,768.2,56.3z"/>
	<path class="white" fill="#FFFFFF" d="M784.5,73.5c-1.4-0.4-3-0.2-2.7-1.7c0.2-1.1,1.1-2.5,2-3.1c0.9-0.6,2.5,1.6,2.2,3.2
		C785.9,72.6,784.9,73.1,784.5,73.5z"/>
	<path class="black" fill="#000000" d="M762,98.6c0.1-1.8,0.8-2.8,2-2.8c1.3,0,2.4,1.5,2.3,2.9c-0.1,1.2-1.4,2.5-2.5,2.5
		C762.7,101.1,762,100.1,762,98.6z"/>
	<path class="black" fill="#000000" d="M782.8,99.6c0.4-0.3,1-1.3,1.8-1.4c1.3-0.2,2.5,1.1,2.4,2.4c-0.1,1.2-1.5,2.2-2.8,2.1
		C782.8,102.5,782.7,101.4,782.8,99.6z"/>
	<path class="heart" fill="#AD0000" d="M759.7,24.9c3.8,0,7.2,0.7,9.6,3.9c0.8,1.1,1.3,0.3,1.7-0.2c2.3-3.1,5.6-4.5,9-5.9c1.6-0.7,3.3-1.3,4.8,0.2
		c1,1,1,3.9-0.1,5.4c-1.5,2.3-3.1,4.6-4.8,6.8c-1.3,1.8-2.1,3.7-2,5.9c0,0.5-0.1,1-0.3,1.5c-0.9,2.8-0.9,2.8-3.5,1.3
		c-4.3-2.4-8.6-4.7-12.9-7.1c-2.3-1.3-4.1-3.1-5.3-5.4c-0.5-0.9-0.9-2-1-3c-0.4-2.3,0.5-3.4,2.9-3.5
		C758.5,24.9,759.1,24.9,759.7,24.9z"/>
</g>
<g>
	<path class="black" fill="#000000" d="M849.3,68c1.4-0.2,2.8-0.3,4.1-0.6c3.3-0.9,6.8-1.4,10.1-2.5c5.5-1.8,12.4,2,14.1,7.7c1,3.4,2.9,6,5.3,8.2
		c1.6,1.5,2.6,3,3.2,5c1.5,4.5,2.9,9,1.2,13.8c-0.2,0.6-0.1,1.5,0.2,2.1c2,3.6,0.7,7.3,0.4,11c-0.1,1-0.3,2.1-0.8,3.1
		c-0.5,1-1.1,2.2-2,2.8c-2.3,1.4-3.4,3.4-3.9,6c-0.2,1.2-0.4,2.4-1,3.4c-0.6,0.9-1.6,1.5-2.5,2.2c-0.6-0.8-1.3-1.6-1.8-2.5
		c-0.4-1-0.5-2.1-0.9-3.1c-0.7-2.1-2.6-2.8-4.5-1.5c-3.2,2.3-6.3,4.8-9.6,7c-1.6,1.1-2.3,2.4-2.8,4.1c-0.2,0.5-0.2,1.1-0.5,1.5
		c-0.8,1-1.7,1.8-2.5,2.7c-0.7-0.9-1.6-1.6-2.1-2.6c-1.4-3-3-5.5-6.3-6.9c-1.3-0.6-2.3-2.1-3.2-3.4c-1.5-2.2-5.1-2.8-6.7-0.6
		c-1.2,1.6-2,3.5-2.6,5.4c-0.3,1-0.5,1.9-1.7,2c-1.3,0.1-1.5-1-1.8-1.9c-0.3-1-0.6-2.1-0.8-3.1c-0.5-2.5-0.9-4.9-3-6.8
		c-1.6-1.4-1.5-3.7-1.3-5.8c0.1-1.3-0.1-2.2-1.7-2.5c-1.3-0.2-2.4-0.8-3.7-1.1c-2.9-0.7-4.4-2.6-4.7-5.4c-0.6-4.2,1-7.5,4.2-10.2
		c1.8-1.5,2.3-3.7,0.7-5.3c-1-1-2.3-0.6-3.2,0.2c-1.4,1.2-2.9,1.3-4.5,1c-0.2,0-0.4-0.1-0.6-0.1c-1.2-0.3-1.5-1.2-0.9-2.2
		c2.3-3.9,5.7-6.6,10.1-8c1.8-0.6,3.1,0.7,2.9,2.7c-0.2,2.1-0.5,4.2-0.8,6.3c-0.2,2,0.5,2.7,2.2,2.3c1.1-0.2,1.4-0.8,1.2-1.8
		c-0.1-0.5-0.3-1-0.5-1.5c-1.2-4.1-0.4-5.9,3.5-7.7c0.6-0.3,1.2-0.5,1.8-0.7c2.2-0.7,3.5-2.2,4.4-4.3C838.3,71,843.7,67.5,849.3,68z
		"/>
	<path class="black" fill="#000000" d="M883.2,31.6c-0.1,2-0.3,3.9-1.7,5.7c-1.6,1.9-1.9,4.4-0.8,6.9c1.3,3.3,0.6,5.2-2,7.7
		c-3.2,3.2-6.8,3.7-10.9,2.6c-1.6-0.4-2.9-0.3-4.5,0.3c-3.2,1.1-6.6,1.7-10,2.2c-1.4,0.2-3-1-4.3-0.7c-1.2,0.2-1.9,2-3.1,2.5
		c-2.4,1.1-4.9,2.1-7.5,2.6c-2.6,0.6-3.8-0.2-4.6-2.8c-0.4-1.3-1-1.8-2.2-2.4c-2.8-1.4-5.4-3-8-4.6c-1.3-0.8-1.3-1.8-0.4-2.9
		c0.3-0.3,0.6-0.6,0.9-0.9c1.1-1,0.7-1.9-0.3-2.7c-0.7-0.5-1.4-0.9-2.1-1.5c-6-4.7-4.1-9.8,0.5-13.2c2.7-2,4-3.9,3.6-7.1
		c-0.6-4.2,2.4-6.1,5.4-7.8c0.9-0.5,2-0.9,3-1.1c4.5-0.8,8.7-2.8,13.4-2.7c1.8,0,3.7-1,5.5-1.6c4.7-1.6,9-0.6,13.3,1.4
		c3.1,1.5,5.3,3.7,6.3,7.2c0.7,2.3,2.3,4.1,4.9,5C881.9,25.1,883.4,27.4,883.2,31.6z"/>
	<path class="black" fill="#000000" d="M830.1,64.6c1.6,0.2,2.9,0.6,3.5,2.1c0.6,1.4-0.1,4.3-1.5,5.2c-1.5,1-3.1,1.8-4.8,2.4
		c-1.7,0.6-3.2-0.2-4.3-1.5c-1-1.1-0.7-2.8,0.5-4.4C825.2,66.1,827.7,65.3,830.1,64.6z"/>
	<path class="black" fill="#000000" d="M867,140.2c-0.1,1.1-1.6,2.3-2.5,1.9c-0.6-0.3-1.4-1.1-1.5-1.7c0-1.2,0.8-1.9,2.1-1.8
		C866.1,138.8,866.9,139.1,867,140.2z"/>
	<path class="black" fill="#000000" d="M830.5,138.7c0,1.9-1.3,3.2-2.4,2.9c-0.6-0.1-1.3-0.8-1.4-1.4c-0.2-1,1.4-2.9,2.3-2.7
		C829.7,137.8,830.2,138.5,830.5,138.7z"/>
	<path class="black" fill="#000000" d="M887.4,137.1c-0.1-0.2-0.6-0.5-0.6-0.9c-0.1-1.1,1.4-3,2.1-2.7c0.5,0.3,1,1,1.1,1.6
		C890.1,136.4,889.1,137.2,887.4,137.1z"/>
	<path class="black" fill="#000000" d="M842,135.9c0.8,0.8,1.9,1.4,1.8,1.8c-0.2,1.5-1.6,1.6-2.7,1.6c-0.5,0-1-0.8-1.5-1.2
		C840.3,137.5,841,136.8,842,135.9z"/>
	<path class="black" fill="#000000" d="M841.3,146.6c-1.1,0.7-1.8,1.5-2.7,1.5c-0.5,0.1-1.1-1-1.7-1.5c0.9-0.5,1.9-1.2,2.9-1.6
		C840,145,840.6,145.8,841.3,146.6z"/>
	<path class="black" fill="#000000" d="M851.8,146.4c-1.3,0.9-2,1.9-2.6,1.8c-0.7,0-1.3-1.1-1.9-1.6c0.7-0.5,1.3-1.3,2.1-1.5
		C849.9,145,850.6,145.7,851.8,146.4z"/>
	<path class="black" fill="#000000" d="M827.4,145.7c0.8,1.1,1.3,1.8,1.8,2.5c-0.6,0.4-1.2,1.1-1.9,1.2c-0.9,0.2-1.7-0.6-1.5-1.5
		C825.8,147.3,826.6,146.8,827.4,145.7z"/>
	<path class="black" fill="#000000" d="M872.7,146.5c-1.3,0.7-2.1,1.2-3,1.5c-0.7,0.2-1.6-0.1-1.4-1.1c0.2-1.3,1.4-1.4,2.4-1.5
		C871.2,145.3,871.7,145.8,872.7,146.5z"/>
	<path class="black" fill="#000000" d="M896.4,141.4c-0.9,0.6-1.4,1.1-2,1.5c-0.4-0.6-1.3-1.3-1.2-1.9c0.1-0.6,1.1-1.1,1.8-1.3
		C895.2,139.6,895.7,140.6,896.4,141.4z"/>
	<path class="black" fill="#000000" d="M816.2,137.4c0.9,0.9,1.8,1.6,1.6,1.8c-0.3,0.6-1,1.2-1.6,1.6c-0.2,0.1-1.2-0.7-1.1-1
		C815.1,139.2,815.6,138.5,816.2,137.4z"/>
	<path class="black" fill="#000000" d="M861.4,148.8c-0.9,0.7-1.4,1.5-1.9,1.5c-0.5,0-1.3-0.8-1.3-1.3c0-0.5,0.7-1.3,1.3-1.4
		C859.9,147.5,860.5,148.2,861.4,148.8z"/>
	<path class="black" fill="#000000" d="M884.3,147.1c-0.6-0.9-1-1.5-1.4-2.2c0.6-0.3,1.2-0.9,1.7-0.9c0.5,0.1,1,0.8,1.4,1.3
		C885.6,145.9,885.1,146.4,884.3,147.1z"/>
	<path class="black" fill="#000000" d="M877.2,137.6c-0.8,0.6-1.3,1.2-1.9,1.2c-0.3,0-1.2-0.9-1.1-1.1c0.2-0.5,0.8-1.1,1.3-1.3
		C875.9,136.3,876.4,137,877.2,137.6z"/>
	<path class="white" fill="#FFFFFF" d="M848.8,70.5c0.9,0.1,1.9,0.1,2.7,0.4c2.7,0.9,2.7,1.1,1.9,3.8c-0.2,0.5-0.3,1-0.4,1.5c0,0.3,0.2,0.7,0.4,0.8
		c0.2,0.1,0.7,0,0.8-0.2c1.1-1.5,2.2-2.9,3.1-4.5c2.2-3.6,5.6-5.1,9.7-5c3.2,0.1,5.4,1.9,7.2,4.3c1.7,2.3,2.8,4.8,1.1,7.7
		c-0.1,0.3,0.2,1.2,0.4,1.2c7,1.1,7.6,6.9,8.9,12.2c0.9,3.8,0.1,7.2-2.8,10c-0.2,0.2-0.5,0.4-0.7,0.7c-0.2,0.5-0.3,1.1-0.4,1.6
		c0.5-0.1,1,0,1.4-0.2c0.4-0.1,0.7-0.6,1-0.7c1.6-0.5,3,0.6,2.8,2.2c-0.3,2.3-0.8,4.6-1.2,6.9c-0.4,1.8-1.5,3-3.3,3.7
		c-1.9,0.7-3.7,1.7-5.7,2.2c-2.2,0.6-4.4,0.1-6.6-0.7c-0.7-0.2-1.8-0.3-2.3,0.1c-0.9,0.7-0.1,1.5,0.5,2.1c0.8,0.8,0.6,1.4-0.2,2.1
		c-4,3.5-8.7,5.1-13.8,5.1c-3.5,0-6.9-2-7.8-6c-0.4-2-0.5-1.5-2.7-1.1c-3.8,0.8-7.8,1.2-11.6-0.5c-1-0.5-2-1.7-2.4-2.8
		c-1.5-3.7-0.2-5.2,3.7-4.6c4.8,0.7,9.6,1,14.3-0.3c4.7-1.3,7.5-4.3,8.8-8.8c0.7-2.4,0-4-2.1-5.5c-0.9-0.6-2.5-0.8-2.1-2.4
		c0.4-1.8,1.7-2.5,3.4-3c2.1-0.5,4.1-1.1,6-2.1c1.1-0.6,2-1.8,2.8-2.9c0.6-0.7,0.3-1.6-0.5-1.8c-3.5-0.8-6.9-2.4-10.7-1.3
		c-3.6,1-4.3,2.2-3.7,5.8c0.2,1.2,0.3,2.3,0.3,3.5c0,1-0.6,1.5-1.7,1.4c-1.6-0.3-3.2-0.5-4.7-0.8c-3.4-0.7-6.8-1.3-10.2-2.3
		c-2.2-0.6-4-4.2-3.8-6.5c0.2-2.1,3.7-3.9,5.6-3c0.8,0.4,1.5,0.8,2.2,1.2c0.5,0.2,1.5,0.7,1.6,0.5c0.4-0.6,1.1-1.7,0.9-2.1
		c-1.7-3-0.7-5.7,1.1-8C842.5,72.2,845.3,70.6,848.8,70.5z"/>
	<path class="white" fill="#FFFFFF" d="M840,96.6c5.2,0.3,8.6,1.7,11.7,4c1.7,1.3,1.7,2.3,0.9,4.2c-2.5,5.6-11.8,7.5-16.2,3.3
		c-1.5-1.5-2.6-5.2-1.6-6.8C836.2,98.8,837.7,96.2,840,96.6z"/>
	<path class="white" fill="#FFFFFF" d="M829.5,109.7c-1.7-0.2-3.8-0.4-5.8-0.8c-3.9-0.7-5.3-2.8-4.5-6.6c0.9-4.7,6.5-8.5,11.2-7.5
		c2.7,0.6,3.8,2.5,2.3,4.7c-1.9,2.8-1.7,5.6-0.6,8.5c0.7,1.8,0.6,1.8-1.4,1.7C830.4,109.7,830.1,109.7,829.5,109.7z"/>
	<path class="white" fill="#FFFFFF" d="M843.9,18.6c0-0.1-0.2,0.6,0.1,0.9c0.3,0.3,1,0.5,1.4,0.4c0.4-0.2,0.8-0.8,0.9-1.3c0.8-4.1,4.3-5.3,7.5-6.1
		c5-1.2,9.8-0.2,13.9,3.2c2.3,1.9,3,3.7,1.8,6.4c-0.7,1.6-0.3,2.1,1.2,2.4c1.4,0.3,2.7,0.5,4.1,0.9c4.1,1.2,6.2,4,5.7,8.1
		c-0.1,1-0.6,2.1-1.3,2.8c-1.7,2-3.5,3.8-5.3,5.7c-0.2,0.2-0.2,0.6-0.2,0.9c0.3,0.1,0.6,0.2,0.9,0.2c2.3-0.4,2.9,1.4,3.7,2.9
		c0.8,1.5,0.3,2.9-0.9,4.1c-2.1,2.1-4.5,3.2-7.5,2.6c-0.7-0.1-1.5-0.4-2.1-0.8c-2.6-1.7-3.1-1.6-5.7,0.1c-1.7,1.1-3.6,1.9-5.5,2.4
		c-2.3,0.6-4.6,0.5-6.7-1.1c-1.5-1.1-3.3-1.7-5-2.5c-1.6-0.8-3-0.4-4.6,0.4c-1.6,0.8-3.3,1.5-5,2.1c-3.5,1.2-6.2-0.7-8.7-2.7
		c-0.9-0.7-0.7-1.8,0.4-2.3c0.3-0.1,0.7,0,0.9-0.2c0.6-0.5,1.4-0.9,1.6-1.6c0.4-1-0.4-1.5-1.2-1.9c-1.8-1.1-3.8-2-5.5-3.3
		c-3.3-2.4-3.3-5.2-0.4-8c1.6-1.5,2.4-1.7,4.4-0.4c1.2,0.7,1.6,0.3,1.7-0.8c0.1-1.3,0.4-2.8,0.2-4.1c-1.1-6.8-0.3-8.5,6.1-11
		c0.9-0.3,1.8-0.6,2.7-0.9c1.1-0.3,2-0.4,3,0.4c0.5,0.4,1.3,0.5,1.9,0.4C844.1,16.4,844.1,16.3,843.9,18.6z"/>
	<path class="white" fill="#FFFFFF" d="M838.9,59.3c-1.3-0.4-2.2-0.7-2-2c0.3-2.2,3.4-4.8,5.5-4.5c0.9,0.1,1.9,0.8,2.6,1.5c0.3,0.3,0.1,1.7-0.2,1.9
		C842.9,57.3,840.9,58.3,838.9,59.3z"/>
	<path class="white" fill="#FFFFFF" d="M829.2,66.9c0.9,0.6,1.8,0.9,1.9,1.4c0.2,0.5-0.2,1.5-0.7,1.8c-1,0.7-2.2,1.2-3.4,1.6
		c-0.4,0.1-1.2-0.4-1.5-0.8c-0.2-0.3-0.2-1.2,0.1-1.4C826.7,68.5,828,67.8,829.2,66.9z"/>
	<path class="black" fill="#000000" d="M843,102.4c0,1.3-1.8,2.7-2.8,2.6c-1.1-0.1-1.3-0.9-1.4-1.8c0-1.1,1.2-2.7,2-2.4
		C841.7,101.2,842.4,102,843,102.4z"/>
	<path class="heart" fill="#AD0000" d="M845.7,25.2c1.8,0.3,3.8,1.1,5.2,3.1c0.4,0.5,0.6,1.1,1,1.6c0.7,0.9,1.3,0.9,1.9-0.2c1.3-2.3,3.4-3.6,5.8-4.2
		c0.9-0.2,1.9-0.3,2.8-0.1c1.9,0.3,2.6,1.1,2.5,3c-0.1,2.8-0.8,5.5-2.5,7.8c-1.7,2.3-3.8,4.4-4.6,7.2c-0.4,1.2-2,1.5-3.6,1
		c-5.7-2-10.2-5.7-14.6-9.6c-1.4-1.3-2.5-2.9-2.2-5.1c0.3-2.5,0.8-3.3,3.3-4c0.5-0.1,1-0.3,1.6-0.3
		C843.2,25.3,844.2,25.3,845.7,25.2z"/>
	<path class="black" fill="#000000" d="M827.7,99.1c0,0,0.9,0.5,1,1.1c0.2,1.2-1.2,2.6-2.4,2.2c-0.7-0.2-1.4-1.3-1.5-2
		C824.8,99.1,825.7,98.6,827.7,99.1z"/>
</g>
<g>
	<path class="black" fill="#000000" d="M600.1,83.4c0-0.6,0-1.3,0.1-1.9c0.3-4.1,1.8-5.7,5.9-5.3c2.1,0.2,4.2,0.8,6.1,1.6c2.1,0.9,2.2,3.3,0.2,4.5
		c-1.3,0.8-2.9,1.5-4.5,1.7c-2.6,0.2-3.4,2.3-4.7,3.9c-0.2,0.2,0.1,1,0.4,1.3c0.8,1.1,1.9,2.1,2.6,3.2c1.8,2.7,2.1,5.5,0.5,8.5
		c-0.8,1.5-1.6,2.7-3.4,3.2c-0.9,0.2-1.7,0.9-2.6,1.2c-0.9,0.4-1.4,0.8-1.3,1.9c0.3,2.1-0.5,3.8-2.1,5.1c-1.1,0.9-1.2,2-1.1,3.2
		c0.2,2,0.5,4,0.8,6c0.1,0.7,0.4,1.5,0.4,2.2c0,0.6-0.3,1.4-0.8,1.6c-0.4,0.2-1.2-0.1-1.7-0.4c-0.4-0.3-0.6-0.8-0.9-1.3
		c-1.2-1.7-2.5-2.2-4.6-1.6c-4,1.1-4,1-4.8,5.1c-0.1,0.7-0.2,1.5-0.4,2.2c-0.2,0.5-0.6,1.3-1,1.4c-0.5,0.1-1.3-0.2-1.7-0.7
		c-0.6-0.7-1-1.6-1.5-2.5c-0.3-0.6-0.4-1.2-0.7-1.8c-0.6-1.3-1-3.1-2.1-3.8c-0.8-0.5-2.5,0.7-3.8,0.9c-2.2,0.4-4.4,0.8-6.6,0.8
		c-2.1,0-3.5,0.7-4.1,2.7c-0.3,0.9-0.6,1.9-1.2,2.6c-0.6,0.6-1.6,1-2.5,1.1c-0.3,0-0.8-1.1-1.1-1.7c-1.4-4.1-1.6-8.4-1.6-12.6
		c0-2.7-0.2-2.9-2.7-3.4c-0.8-0.2-1.7-0.4-2.5-0.6c-3.9-1.2-5.5-3.6-5.2-7.6c0.2-2.9,0.8-5.7,2.5-8.2c1.1-1.5,1.1-3.4,0.4-5.2
		c-1.8-4.5-1.1-8.3,2.7-11.4c1.9-1.6,4-2.9,6.2-3.8c2.6-1.1,4.9-2.3,7.2-4c5.7-4.3,11.7-3.7,16.6,1.5c1.8,1.9,3.9,3.3,6.6,3.3
		c1.8,0,3.1,1,4.1,2.2c1.7,2.2,3,4.6,2.7,7.6c-0.2,1.9-0.1,2,2.1,1.7c0.3,0,0.6-0.1,1,0c1.5,0.1,2.1-0.7,2.1-2.1
		C600.2,84.8,600.2,84.1,600.1,83.4C600.2,83.4,600.2,83.4,600.1,83.4z"/>
	<path class="black" fill="#000000" d="M619.8,65.1c-3.1-1.2-5.3,0-7.4,1.7c-2.3,1.8-5,2.4-7.9,1.7c-1.6-0.4-2.6,0-3.6,1.2c-1.8,2.1-4.2,2.5-6.7,2
		c-2.5-0.4-3-0.8-3.3-3.5c-0.2-1.4-0.9-1.9-2.1-1.8c-3.4,0.3-5.8-1.7-8.3-3.6c-1.1-0.8-1.3-1.7-1-3.1c0.5-2.6,0.4-2.5-2.1-3.9
		c-2.5-1.4-4.9-3-7.2-4.8c-1.1-0.8-1.9-2-2.6-3.2c-1.3-2.4-1.1-4.4,1.2-5.9c3-2,4-4.7,4.3-8.1c0.5-4.9,4.4-8.5,9.5-9.6
		c3.2-0.7,6.4-1.5,9.6-2.4c1-0.3,1.9-1,2.8-1.4c2.6-1.1,5.3-2.3,8-3.2c2.1-0.6,4.2-0.4,6.2,0.6c1.1,0.6,2.2,1.2,3.6,0.9
		c1.4-0.3,2.1,1,2.4,2.1c0.4,1.6,1.5,2.2,2.9,2.6c5.4,1.9,7.8,5.4,8.3,12c0.2,2.4,0.9,4.4,2.4,6.2c1.3,1.7,2.9,3.2,4.1,4.9
		c2.6,3.7,1.9,6.4-2,8.4c-1.7,0.9-2.8,2-3.6,3.8c-0.9,2-1.8,4.1-4.2,5C621.8,64.3,620.7,64.8,619.8,65.1z"/>
	<path class="black" fill="#000000" d="M590,136.4c-0.3-0.2-1.1-0.7-1.3-1.3c-0.3-0.7,1.7-2.8,2.6-2.7c1.1,0.1,1.7,0.7,1.8,1.9
		C593.2,135.6,592.3,136.4,590,136.4z"/>
	<path class="black" fill="#000000" d="M585.3,140c-0.2,1.9-1.3,2.4-2.3,2.2c-0.8-0.2-1.4-1-2-1.6c0.9-0.8,1.7-1.8,2.7-2.2
		C583.9,138.3,584.9,139.6,585.3,140z"/>
	<path class="black" fill="#000000" d="M573.4,133c-1.1,0.9-1.8,1.8-2.7,2c-0.3,0.1-1.7-1.1-1.6-1.5c0.3-1,1.1-1.9,1.7-2.8
		C571.5,131.4,572.2,132,573.4,133z"/>
	<path class="black" fill="#000000" d="M545,139.1c-0.2-0.2-0.9-0.5-0.9-0.9c-0.2-1.2,0.8-2.4,1.9-2.3c0.9,0.1,2,0.1,2.2,1.4
		C548.3,138.3,547.1,139.1,545,139.1z"/>
	<path class="black" fill="#000000" d="M575.8,140.4c0.2,0.2,0.7,0.6,0.7,1.1c0.2,1.4-0.6,2.2-1.9,2.3c-1,0-1.9-0.3-2-1.5
		C572.5,141.1,573.6,140.5,575.8,140.4z"/>
	<path class="black" fill="#000000" d="M610,129.1c-0.3,0.2-0.7,0.8-1.2,0.9c-1.4,0.3-2.9-0.5-2.7-1.4c0.2-0.7,0.8-1.5,1.4-1.7
		C608.4,126.5,609.9,127.8,610,129.1z"/>
	<path class="black" fill="#000000" d="M579.1,146.3c0.6,0.5,1.7,1.1,1.6,1.6c-0.1,1.4-1.4,1.6-2.6,1.8c-1.2,0.2-1-0.8-1.1-1.5
		C577,147,577.5,146.3,579.1,146.3z"/>
	<path class="black" fill="#000000" d="M557.9,147.9c1-0.9,1.7-1.5,2.4-2.2c0.5,0.6,1.3,1.1,1.4,1.8c0.2,1.1-0.8,2.1-1.9,1.9
		C559.2,149.3,558.7,148.7,557.9,147.9z"/>
	<path class="black" fill="#000000" d="M605.5,136.6c-0.9,0.8-1.5,1.2-2.1,1.7c-0.6-0.7-1.4-1.3-1.6-2.1c-0.1-0.6,0.8-1.3,1.3-1.9
		C603.8,135,604.5,135.7,605.5,136.6z"/>
	<path class="black" fill="#000000" d="M566.7,139.9c-0.8,0.7-1.3,1.4-1.9,1.6c-1.1,0.2-1.4-0.7-1.4-1.6c0-1.2,0.7-1.9,1.8-1.7
		C565.6,138.1,566,139,566.7,139.9z"/>
	<path class="black" fill="#000000" d="M593.5,144.8c-0.2-0.3-0.8-0.8-1-1.4c-0.2-0.7,1.7-2.2,2.4-2c0.3,0.1,0.6,0.8,0.7,1.2
		C595.7,144.1,595,144.8,593.5,144.8z"/>
	<path class="black" fill="#000000" d="M554.8,137.7c0.2,0.2,1,0.8,1.1,1.4c0.2,1.2-0.9,1.5-1.9,1.5c-0.8,0-1.4-0.4-1.2-1.4
		C552.9,138.4,553,137.5,554.8,137.7z"/>
	<path class="white" fill="#FFFFFF" d="M588,109.1c2.5-0.5,5-1,7.5-1.5c0.4-0.1,0.8,0.1,1.1,0.3c0.1,0.1,0,0.6-0.1,0.9c-0.6,1.8-2,2.9-3.6,4
		c-0.9,0.6-2.7,1.3-0.8,2.8c0.1,0.1,0,0.8-0.3,1.1c-0.7,0.8-1.5,1.6-2.4,2.1c-2.8,1.7-8.3,0.9-10.7-1.3c-0.2-0.1-0.3-0.3-0.4-0.5
		c-1.1-1-1.9-0.9-1.9,0.4c0.1,2.2-1.3,2.5-2.8,2.8c-2.7,0.6-5.4,1.3-8.2,0.1c-2.6-1.1-4.7-2.5-4.9-5.7c0-0.1-0.1-0.2-0.1-0.3
		c-0.8-3.5-0.8-3.4-4.3-3.9c-1.5-0.2-3.1-0.8-4.5-1.6c-1.8-1-2.7-2.6-2.7-4.8c0-3.6,1-6.7,3.7-9.2c0.4-0.4,0.8-0.7,1.2-1.1
		c1.2-1.3,1.1-1.6-0.5-2.4c-2.2-1.1-3.1-3-2.4-5.3c1.7-5.1,6.2-9,11.2-8.3c0.6,0.1,1.3,0,1.9-0.1c0.9-0.2,1.7-0.7,0.9-1.8
		c-0.6-0.9-0.6-1.6,0.3-2.2c3.1-1.9,6-3.9,10.1-2.2c3.2,1.4,5,3.5,5.5,6.9c0.1,0.5-0.1,1.1,0.1,1.6c0.2,0.5,0.5,1.3,0.9,1.4
		c0.4,0.1,1.4-0.2,1.6-0.6c0.9-2.4,2.7-2.5,4.7-2c2,0.5,4,3.2,4.2,5.2c0.3,3-0.7,4.9-3.5,6c-1.6,0.7-3.4,1-5.1,1.5
		c-1.5,0.4-3,0.9-4.5,1.4c-2.4,0.8-3.3,0.2-3.8-2.2c-0.2-0.9-0.4-1.9-0.5-2.8c-0.4-2.4-0.9-2.9-3.3-2.2c-3.1,0.9-5.9,2.6-8.1,4.9
		c-1.3,1.3-1,2.7,0.8,3.2c1.8,0.5,3.8,0.4,5.7,0.5c1,0.1,2.2-0.2,3.1,0.1c2.5,0.7,2.6,1.3,2.3,3.9c-0.8,6.2,2.9,11.3,9.4,10.6
		c1-0.1,1.9,0,2.9,0C588,108.8,588,108.9,588,109.1z"/>
	<path class="white" fill="#FFFFFF" d="M593.8,100.6c-0.1,0.2-0.3,1-0.8,1.7c-2.2,2.9-7.3,4.4-10.7,3.1c-2.9-1.1-4.3-4.3-3.4-8
		c0.7-2.7,2.6-3.9,5.9-3.6c1.7,0.2,3.4,0.2,5,0.6C593.2,95.3,594,96.5,593.8,100.6z"/>
	<path class="white" fill="#FFFFFF" d="M597.5,90.3c4.2,0.1,7.9,4.5,7.3,8.2c-0.2,1.5-1,2.6-2.5,3c-0.4,0.1-0.8,0.2-1.2,0.3c-3.8,1.1-3.7,1.1-4.4-2.8
		c-0.3-1.7-0.9-3.5-1.7-5.1c-1-2-1.2-1.9,0.9-3C596.5,90.6,597.2,90.4,597.5,90.3z"/>
	<path class="white" fill="#FFFFFF" d="M579,38.7c-2.5,0.1-4.2-2.2-3.5-5.1c0.9-3.6,3.4-5.6,6.7-6.7c0.8-0.3,1.7-0.4,2.5-0.5c3.1-0.6,3.6-0.3,5.5,2.4
		c0.3,0.5,1,1.1,1.4,1c0.5-0.1,1-0.8,1.1-1.4c1.4-5.9,6.1-7.5,11.2-8.4c3.1-0.6,5.7,0.5,7.1,3.6c0.6,1.3,1.4,1.8,3.1,2.1
		c6.2,1,9.1,3.8,9.3,8.8c0.1,1.8-0.5,3.1-1.9,4.1c-1.4,1-2.8,1.9-4.2,3c-0.3,0.2-0.3,0.7-0.5,1c0.3,0.1,0.7,0.2,0.9,0.1
		c0.9-0.3,1.8-0.6,2.7-1.1c1.5-0.9,2.8-0.7,4.1,0.5c1.9,1.9,3.9,3.7,5.5,5.8c2,2.6,1.4,4.6-1.4,6.4c-1.5,0.9-3,1.7-4.4,2.6
		c-1,0.6-2.4,0.9-0.9,2.7c1,1.2-1.1,3.3-2.9,3.2c-1.8-0.1-3.9-2.1-4.3-4c-0.1-0.4-0.4-0.8-0.7-1.2c-0.5,0.3-1.2,0.6-1.4,1
		c-0.5,1-0.7,2-0.9,3.1c-0.6,2.7-2.4,3.9-4.9,4.4c-2.4,0.5-4.4,0.3-6-1.9c-1.6-2.2-3.9-2.3-6.4-1.7c-2.1,0.5-4.1,1.1-6.2,1.4
		c-2.6,0.4-4.8-0.6-6.9-2.1c-0.8-0.6-1-1.2-0.5-2.2c1.8-3.4,0.8-5.1-3.1-5.8c-3.4-0.6-6.2-2.4-8.2-5.2c-2.1-2.9-1.7-4.8,1.5-6.5
		c2-1,4.2-1.7,6.3-2.4c0.4-0.1,0.9-0.1,1.2-0.3c0.3-0.1,0.5-0.5,0.8-0.8c-0.3-0.1-0.6-0.2-0.9-0.2C579.4,38.5,579.2,38.6,579,38.7z"
		/>
	<path class="white" fill="#FFFFFF" d="M599.9,66.4c0,1.3-1.7,2.9-2.9,2.8c-1.3-0.1-1.8-0.9-1.8-2.1c0-1.7,0.8-2.6,2.5-2.5
		C599.1,64.7,599.9,65.3,599.9,66.4z"/>
	<path class="heart" fill="#AD0000" d="M602.7,54.8c-1.7,1.6-2.7-0.3-4-0.9c-1.8-0.9-3.6-1.8-5.4-2.7c-4.5-2.3-6.6-5.7-6.2-10.2
		c0.4-4.5,3.7-6.1,7.4-3.6c1.1,0.8,2.2,1.7,3.3,2.6c1.1,0.9,1.5,0.8,1.8-0.6c0.2-0.6,0.2-1.3,0.3-1.9c0.6-2.7,2.9-5,6.1-4.3
		c3.8,0.8,5.9,3.2,5.3,6.6c-0.3,1.5-0.9,3.1-1.9,4.3c-2.3,2.9-3.2,6.4-4.6,9.8C604.4,54.9,604.2,55.8,602.7,54.8z"/>
	<path class="black" fill="#000000" d="M601.2,94.9c0,0,0.9,0.5,1,1.1c0.2,1.2-1.2,2.6-2.4,2.2c-0.7-0.2-1.4-1.3-1.5-2
		C598.2,94.9,599.2,94.4,601.2,94.9z"/>
	<path class="black" fill="#000000" d="M589.6,97.8c0,0,0.9,0.5,1,1.1c0.2,1.2-1.2,2.6-2.4,2.2c-0.7-0.2-1.4-1.3-1.5-2
		C586.6,97.8,587.6,97.3,589.6,97.8z"/>
</g>
<g>
	<path class="black" fill="#000000" d="M650.9,82.3c0.4,2.4,0.8,4.8,1.2,7.2c0.1,0.8,0.5,1,1.3,0.8c1.7-0.5,3.1-2.7,2.6-4.3
		c-1.5-5.6,0.2-9.6,4.9-12.9c2-1.4,3.5-3.6,5-5.6c3.7-5.3,9.2-6.7,15.1-6.9c4.5-0.1,8.8-0.2,13.1-2c8.1-3.3,17.6-0.2,21.2,7.9
		c1.8,4.1,3.9,8.2,6.6,11.9c2.7,3.8,2.6,8.3-0.3,11.9c-1.6,2-1.6,3.9-0.8,6c1.1,2.8,1.2,5.7,0.6,8.5c-0.4,1.9-1.4,3.9-2.8,5.2
		c-2.2,2.1-3.5,4.6-5,7.2c-1.8,3.3-1.4,6.8-2.2,10.2c-0.1,0.5,0,1.1-0.2,1.6c-0.3,0.5-0.8,1-1.3,1.2c-0.3,0.1-1-0.4-1.2-0.7
		c-0.4-0.6-0.5-1.4-0.9-2c-0.7-1.1-1.3-2.2-2.2-3.1c-1.8-1.7-2.9-1.6-5-0.2c-4.2,2.8-6.9,6.6-7.4,11.8c-0.1,1.2-0.6,1.6-1.7,1.9
		c-1.3,0.3-1.5-0.7-1.8-1.4c-0.8-2-1.4-4-2.3-6c-0.4-0.8-0.9-1.8-1.6-2.3c-2.1-1.4-4.4-2.7-6.7-3.8c-3.2-1.5-5.1-1-7.2,1.6
		c-1,1.2-1.7,2.7-2.5,4.1c-0.4,0.7-0.7,1.6-1.3,2.2c-1.4,1.6-3,1.2-3.6-0.8c-0.5-1.8-0.6-3.8-1.3-5.6c-0.5-1.5-1.2-3.1-2.3-4
		c-2.8-2.3-4-5.3-4.4-8.6c-0.2-1.9-0.8-2.6-2.6-2.9c-3.9-0.5-6-2.9-6.5-6.8c-0.4-3.4-0.3-6.8,1.3-10c1.3-2.7,0.4-3.9-2.6-4.3
		c-3.3-0.4-6.3,0.9-9.4,1.6c-1.1,0.3-2.3,0.5-3.4,0.4c-1.5-0.2-1.9-1-1.5-2.5c0.8-2.5,2.3-4.4,4.7-5.5c3.3-1.5,6.6-3,10-4.3
		C650.4,77.8,651.2,78.5,650.9,82.3z"/>
	<path class="black" fill="#000000" d="M693.3,49.3c-1.9-0.6-3.6,0.2-5.5,1.9c-3.4,3.1-7.6,3.6-12,2.4c-0.7-0.2-1.5-0.4-2.1-0.7
		c-1.3-0.7-2.3-0.8-3.2,0.8c-0.9,1.6-2.5,2.2-4.3,2.6c-3.1,0.6-5.5-0.5-6.3-3.5c-0.5-2-1.7-2.5-3.4-2.7c-0.7-0.1-1.5-0.2-2.2-0.3
		c-3.2-0.8-4.2-2.1-3.5-5.3c0.2-1.2,0-1.8-0.8-2.5c-2.3-2.2-4.7-4.4-7-6.6c-3.3-3.1-3.3-5.8,0-8.9c1.3-1.2,1.5-2.4,0.7-4
		c-0.7-1.3-1.1-2.8-1.4-4.2c-0.1-1,0.1-2.1,0.6-3c2.4-4.1,6.3-5.9,10.9-6.4c2.1-0.2,4-0.5,6-1.6c3.4-2,7.2-3.7,11-4.9
		c4.7-1.5,9.5-1.1,13.8,1.9c1.3,0.9,2.4,1.1,3.9,0.6c7.8-2.4,13.8,3.5,16.7,8.8c0.6,1.2,0.8,2.5-0.2,3.6c-1.5,1.8-0.5,3.3,0.6,4.9
		c0.8,1.2,1.7,2.5,2.3,3.8c1.6,3.5,1.1,6.3-1.7,9c-1.5,1.4-2.2,2.7-1.8,5c1,5.4-2.3,9-7.9,9.3C695.5,49.3,694.6,49.3,693.3,49.3z"/>
	<path class="black" fill="#000000" d="M654.6,60.2c2.2,0.1,3.9,1.2,4.2,2.3c0.3,1.6-0.5,2.7-1.8,3.5c-0.9,0.6-1.9,0.9-2.9,1.3
		c-2.2,0.7-3,0.4-3.7-1.2c-0.9-1.9-0.5-3.7,1.3-4.7C652.8,60.9,654,60.5,654.6,60.2z"/>
	<path class="black" fill="#000000" d="M702.2,140.1c-1-1.2-1.9-1.8-2.2-2.7c-0.3-0.8,1.2-2.4,2.1-2.4c1,0,2.1,1.2,1.9,2.1
		C703.7,138,703,138.8,702.2,140.1z"/>
	<path class="black" fill="#000000" d="M716.2,138.9c-0.5,0.4-1.1,1.2-1.8,1.4c-1.1,0.3-2.5-0.9-2.4-2c0-0.6,0.6-1.4,1.1-1.5
		C714.2,136.4,716.1,137.6,716.2,138.9z"/>
	<path class="black" fill="#000000" d="M683.2,146c-1.6,0.7-2.4,1.3-3.2,1.5c-1.1,0.1-1.8-0.7-1.7-1.8c0.1-1,0.8-1.9,1.9-1.7
		C681,144.2,681.8,145,683.2,146z"/>
	<path class="black" fill="#000000" d="M694.3,148.5c-0.5-1.2-1.1-1.9-0.9-2.4c0.3-0.9,0.9-1.8,1.5-2.6c0.6,0.6,1.9,1.5,1.7,1.9
		C696.3,146.4,695.3,147.2,694.3,148.5z"/>
	<path class="black" fill="#000000" d="M657.2,131.5c-1.4,0.9-2.2,1.7-3,1.9c-0.9,0.2-1.6-0.6-1.5-1.6c0-1.1,0.6-2,1.7-1.8
		C655.1,130.1,655.8,130.7,657.2,131.5z"/>
	<path class="black" fill="#000000" d="M657.7,140.8c1.5-0.1,2.9,1.1,2.7,2.1c-0.1,0.6-0.8,1.2-1.4,1.4c-1,0.3-2.2-0.9-2.2-2.2
		C656.8,141.6,657.5,141.1,657.7,140.8z"/>
	<path class="black" fill="#000000" d="M673.7,142.2c-1.4,1-2.1,1.8-3,2c-1.1,0.4-1.8-0.4-1.8-1.5c0-1.1,0.5-1.9,1.7-1.7
		C671.4,141.1,672.2,141.6,673.7,142.2z"/>
	<path class="black" fill="#000000" d="M648.6,137.7c0.7,0.8,1.4,1.2,1.6,1.8c0.3,0.9-0.8,1.9-2.1,1.8c-0.6-0.1-1.2-0.6-1.8-0.9
		C646.9,139.5,647.6,138.7,648.6,137.7z"/>
	<path class="black" fill="#000000" d="M678.1,139c-0.7-1.1-1.2-1.6-1.3-2.2c-0.2-1.1,1.2-2.6,2.1-2.2c0.5,0.2,1,1.4,0.9,2
		C679.8,137.3,679,137.9,678.1,139z"/>
	<path class="black" fill="#000000" d="M709.5,145c-0.8,0.6-1.3,1.4-1.8,1.4c-0.7,0.1-1.6-0.2-2.1-0.7c-0.3-0.4-0.2-1.3,0-1.9
		c0.1-0.2,1.1-0.3,1.6-0.1C707.8,143.9,708.5,144.4,709.5,145z"/>
	<path class="black" fill="#000000" d="M722.2,133c-0.9,0.5-1.6,1.2-2,1c-0.5-0.2-1-1.1-0.9-1.6c0-0.5,0.7-1,1.1-1.5
		C720.9,131.5,721.4,132.1,722.2,133z"/>
	<path class="white" fill="#FFFFFF" d="M685.6,100.9c-0.1-2.9-0.1-5.8-2.5-8c-0.2-0.2-0.3-1,0-1.3c1.7-2.4,3.9-4,6.9-4.7c2.3-0.5,4.4-1.6,6.5-2.5
		c0.5-0.2,0.9-0.6,1.2-1c1.4-1.6,1.4-2.4-0.5-3.2c-3.4-1.3-6.8-2.7-10.3-3.4c-3.8-0.8-6.3,1.4-6.9,5.3c-0.4,2.2-1.2,4.3-0.7,6.6
		c0.4,1.7-0.5,2.3-2.3,2c-2.8-0.5-5.7-1.7-8.5-1.6c-4.1,0.1-6.5-2.7-9.7-4.2c-1.2-0.6-1.7-2.8-1.1-4.3c1-2.6,2.6-4.6,5.3-5.7
		c1.2-0.5,2.1-0.6,3,0.7c0.5,0.8,2,1.9,2.3,1.7c1.3-0.9,0.4-2-0.3-3c-0.9-1.5-0.7-3.1,0.1-4.6c1.2-2.1,2.7-3.8,5.2-4.6
		c3.6-1.2,7.1-2.5,10.9-1.3c0.8,0.3,1.4,0.4,1.1,1.5c-0.1,0.7,0,1.5,0.2,2.2c0.1,0.4,0.7,0.7,1.1,0.9c0.1,0.1,0.7-0.5,0.8-0.9
		c0.9-4.5,4.8-5.6,8.3-6.6c4.1-1.1,8.1-0.8,12,1.6c3.3,2,4.9,4.9,6.2,8.3c0.3,0.8,0,1.2-0.8,1.2c-0.5,0-1.2,0.1-1.5,0.4
		c-0.4,0.4-0.8,1-0.9,1.5c0,0.2,0.7,0.7,1.1,0.8c4.3,1.4,7.3,4.1,8.4,8.5c0.7,2.6,0.4,5-2,7.2c-1.7,1.6-3.4,3.1-5.3,4.5
		c-0.3,0.2-0.3,0.7-0.4,1c0.2,0,0.4,0.1,0.6,0.1c1-0.3,2-1.4,2.9-0.4c1,1.2,2,2.6,2.3,4.1c0.6,2.5,0.3,5.1-0.8,7.5
		c-1.3,2.8-3.9,3.7-6.7,4.3c-1.5,0.4-3.1,0.8-4.6,1.3c-0.3,0.1-0.5,0.6-0.7,1c0.4,0.1,0.8,0.4,1.3,0.4c0.4,0,0.8-0.2,1.3-0.2
		c1-0.1,2.2-0.9,2.8,0.6c0.5,1.2-0.1,3.1-1.2,3.7c-0.7,0.4-1.6,0.6-2.4,0.7c-1.5,0.2-3,0.3-4.5,0.6c-2.3,0.5-4.4,1.1-5.8,3.5
		c-1.5,2.5-7.2,3.7-10.2,2.1c-1.7-0.9-3.1-2.5-4.6-3.8c-0.5-0.4-0.7-1.1-1.1-1.6c-1.1-1.3-1.9-1.3-2.6,0.2c-0.6,1.3-1.4,1.5-2.5,1.5
		c-3.1-0.2-6.2-0.3-9.3-0.7c-3.2-0.4-5.6-2.9-6.3-6c-0.4-2-0.2-2.1,1.8-2.2c4-0.1,8.1,0,12.1-0.6c3.2-0.5,6.4-1.4,8.8-4.1
		C685,105.8,685.8,103.6,685.6,100.9z"/>
	<path class="white" fill="#FFFFFF" d="M682.7,100.2c0.2,3.3-1,5.7-3.8,7c-2,0.9-4.1,1.7-6.3,2.2c-3.2,0.6-6.1-1.2-7.3-4.4c-1.2-3.2-0.7-6.3,1.6-9
		c2-2.3,4.6-3.4,7.7-2.9c0.7,0.1,1.5,0.3,2.2,0.4C681.2,94.3,682.7,96,682.7,100.2z"/>
	<path class="white" fill="#FFFFFF" d="M661.2,90.6c0.7,0.1,1.6,0.2,2.5,0.5c3.2,1,3.6,2.2,1.2,4.6c-2.8,2.8-3.5,5.9-2.9,9.7c0.3,2.1,0,2.4-2.1,2.2
		c-1.7-0.2-3.4-0.8-5-0.7c-2,0.1-2.9-1.1-3.7-2.5c-1.5-2.9-0.4-8.8,1.9-11.2C655.3,91,658.2,90.9,661.2,90.6z"/>
	<path class="white" fill="#FFFFFF" d="M657.7,10.9c0.4,0,1-0.1,1.6-0.1c1.6-0.1,2.7,0.3,2.7,2.2c0,0.4,0.5,0.8,0.8,1.2c0.3-0.4,0.8-0.7,1-1.1
		c0.3-0.6,0.6-1.2,0.6-1.8c0.2-2.6,1.9-3.9,4-5c2.3-1.2,4.8-1.8,7.4-1.6c4.3,0.3,8,1.5,10.1,5.6c0.2,0.3,0.6,0.5,0.9,0.8
		c0.3-0.3,0.6-0.5,0.8-0.9c0.8-2.5,1.2-2.9,3.6-2.9c4.2,0,9.5,3.9,10.9,7.8c0.5,1.6,0,2.8-1,3.8c-1.2,1.2-2.6,2.2-3.8,3.4
		c-0.3,0.3-0.3,1.1-0.4,1.6c0.5-0.1,1,0,1.4-0.3c2.6-1.6,3.8-1.3,5.2,1.2c0.7,1.2,1.3,2.5,1.7,3.8c0.3,1,0.3,2.3-0.2,3
		c-0.9,1.5-2.1,2.9-3.4,4.1c-1.2,1.1-2.3,1.7-0.8,3.8c1.7,2.5,0,5.8-3.1,6.9c-2.3,0.8-4.6,0.7-7,0.1c-0.9-0.2-1.9-0.5-2.8-0.7
		c-1.9-0.3-1.8-0.3-1.6,1.7c0.1,0.6-0.4,1.4-0.8,1.8c-3,2.4-9,2.7-12.2,0.7c-0.7-0.4-1.2-1.2-1.6-1.9c-1.6-3-4.7-4.2-7.8-2.9
		c-1.1,0.5-2.1,1-3.3,1.3c-1.2,0.3-2.5,0.7-3.8,0.6c-1.1,0-2.6-0.3-3.1-1.1c-0.8-1.2,0.4-2,1.3-2.8c1-0.8,0.9-1.5-0.4-2
		c-4.4-1.8-7.2-5.6-10.7-8.5c-1.6-1.3-1.3-3.8,0.6-4.5c2.3-0.9,3.5-3.6,6.2-3.7c0.1,0,0.3-0.3,0.4-0.4c-0.2-0.1-0.4-0.4-0.6-0.4
		c-1.4,0.1-2.6-0.2-3.4-1.4c-0.7-1.2-1.6-2.3-1.9-3.6c-0.6-2.6,0.9-5,3.7-6.5C651.6,11.1,654.5,10.9,657.7,10.9z"/>
	<path class="white" fill="#FFFFFF" d="M669.5,50.1c0,1.7-2.2,3.6-3.9,3.6c-1.6-0.1-3-1.5-2.9-2.8c0.1-1.7,2-3.6,3.5-3.5
		C667.8,47.4,669.5,48.8,669.5,50.1z"/>
	<path class="white" fill="#FFFFFF" d="M656.5,63.8c-1.4,0.5-2,0.8-2.8,0.9c-0.2,0-0.6-0.6-0.9-1c0.6-0.3,1.1-0.8,1.8-0.9
		C655,62.7,655.5,63.2,656.5,63.8z"/>
	<path class="black" fill="#000000" d="M671.1,97.7c0.9,0,1.8,1.1,1.7,2.3c0,1.3-0.8,1.9-2.1,2c-1.4,0.1-1.9-0.4-1.8-1.9
		C669.1,98.7,669.8,97.7,671.1,97.7z"/>
	<path class="heart" fill="#AD0000" d="M662.8,21.2c2.8,0.7,6.7,0.7,9.3,4c0.8,1,1.2,0.5,1.6-0.2c1.7-2.6,4.5-3.9,7.2-5.2c0.9-0.4,2.1-0.7,3.1-0.5
		c3,0.6,5.3,2.2,2.4,5.8c-0.7,0.8-1.4,1.6-2.1,2.4c-3,3-5.3,6.4-6.8,10.4c-1,2.7-1.3,2.8-4,1.6c-0.8-0.3-1.6-0.7-2.3-1.2
		c-2.8-2.1-5.6-4.3-8.3-6.5c-1.8-1.5-3.5-3.1-4.5-5.3C657.1,23.5,657.9,20.7,662.8,21.2z"/>
	<path class="black" fill="#000000" d="M657.9,95.6c0,0,0.9,0.5,1,1.1c0.2,1.2-1.2,2.6-2.4,2.2c-0.7-0.2-1.4-1.3-1.5-2
		C655,95.6,655.9,95.1,657.9,95.6z"/>
</g>
<g>
	<path class="black" fill="#000000" d="M499.7,88c-0.2-4.5,0.4-5.4,4.5-5.5c2.6,0,5.2,0.8,7.8,1.5c0.9,0.3,2.2,1.7,2.1,2.4c-0.1,1.1-1.1,2.4-2.1,2.9
		c-1.6,0.9-3.4,1.1-5.1,1.7c-1.3,0.4-2.6,1-3.9,1.4c-1.1,0.4-1.2,0.8-0.3,1.8c1.4,1.4,2.8,2.9,3.9,4.6c0.6,1,1.1,2.5,0.9,3.6
		c-0.7,4.4-2.6,9.7-9,10.5c-2.1,0.3-2.2,0.5-1.9,2.7c0.2,1.4,0,2.6-1.3,3.3c-1.3,0.7-1.4,1.9-1.1,3c0.6,2.7-0.4,5.6,1.2,8.2
		c0.2,0.2-0.3,1.2-0.7,1.5c-0.4,0.2-1.3,0.1-1.7-0.2c-0.6-0.5-1-1.4-1.5-2c-0.8-1-1.7-1.9-2.6-2.8c-0.9-0.9-1.9-1-3.2-0.5
		c-3.5,1.3-5.9,3.8-7.2,7.2c-0.1,0.2-0.2,0.4-0.2,0.6c-0.5,1.3-0.7,3.4-2.5,3.2c-0.9-0.1-1.8-1.9-2.3-3.1c-1-2.2-1.9-4.5-2.7-6.8
		c-0.6-1.9-1.5-3.3-3.6-3.6c-2.2-0.3-4,0.3-5.3,2.1c-1,1.4-1.8,2.9-2.8,4.3c-0.5,0.6-1.5,1.2-2.3,1.2c-0.5,0-0.9-1.2-1.4-1.9
		c-0.1-0.2-0.1-0.4-0.1-0.6c0.5-5.4-2.1-10.1-3.7-15c-0.4-1.3-1-1.9-2.3-2.1c-4.2-0.9-4.8-1.9-4.5-6.2c0.3-3.7,1.1-7.2,4-9.7
		c1.1-1,1.2-1.9,0.6-3.1c-0.3-0.7-0.7-1.3-0.9-2.1c-0.6-2.6-0.7-5.1,1.7-7c1.7-1.4,3.3-2.9,5.7-3.4c0.9-0.2,1.9-1.1,2.4-1.9
		c3.5-4.9,9.4-7.5,15-6.3c0.7,0.2,1.7,0.2,2.1,0.7c2.1,2.3,5.1,2.4,7.7,3.2c1.1,0.4,2.3,0.6,3.5,0.4c2-0.2,3.3,0.6,4.3,2.2
		c2,3.2,4.3,6.2,3.4,10.4c-0.3,1.2,0.2,1.9,1.5,1.9c0.1,0,0.2,0,0.3,0.1C499.8,92.3,499.8,92.3,499.7,88z"/>
	<path class="black" fill="#000000" d="M492.8,32.9c2.7,0.5,5-1.1,7.1-2.7c5.3-4,11.8-4.4,16.5-0.4c2,1.6,4.1,1.7,6.6,1.5c5-0.3,9.8,0.7,12.6,5.6
		c1.3,2.3,2.2,4.6,1.3,7.3c-0.3,1-0.6,2.1-0.8,3.1c-0.6,2.3-0.8,4.6,0.3,6.9c0.7,1.4,0.9,3.1,1.1,4.7c0.2,1.8-0.4,3.3-1.7,4.7
		c-0.7,0.7-1.2,1.7-1.8,2.6c-1,1.3-1.1,2.5-0.7,4.1c0.9,4.3-1.3,7-5.7,7.6c-2.2,0.3-4.2,0.1-6.3-0.7c-1.6-0.6-3.3-0.9-5-1.1
		c-3.3-0.4-6.6-0.6-9.8-1c-1.4-0.2-2.5-0.2-3.9,0.7c-1.7,1.1-3.9,1.7-6,2c-2.7,0.3-3.9-1.2-3.6-3.9c0.2-2.4,0.2-2.3-2.1-3
		c-1.4-0.4-2.9-0.8-4.2-1.4c-2-1-3.8-2.1-3.1-4.9c0.1-0.6-0.5-1.6-1-2.2c-1.6-1.4-3.4-2.6-5-4c-1-0.9-1.9-2.1-2.3-3.3
		c-0.6-1.6-0.3-3.2,1.2-4.3c0.8-0.7,1.6-1.5,2.4-2.1c0.9-0.7,1.1-1.4,0.7-2.5c-0.4-1.3-0.7-2.7-0.7-4c-0.1-2.9,1-5.2,3.7-6.6
		C485.8,33.8,489,32.4,492.8,32.9z"/>
	<path class="black" fill="#000000" d="M495.5,142.6c-0.8-0.1-1.6,0-2-0.4c-0.5-0.5-0.7-1.4-1-2.1c0.5-0.2,1-0.4,1.6-0.6c0.6-0.1,1.2,0,1.7-0.3
		c0.8-0.4,1.5-0.9,2,0.3c0.4,1,0.3,1.9-0.7,2.4C496.6,142.3,495.9,142.4,495.5,142.6z"/>
	<path class="black" fill="#000000" d="M503,137c-0.2,0-0.4,0-0.6-0.2c-0.6-0.5-0.5-2.3,0.3-3.2c0.7-0.9,1.5-1.5,2.7-0.6c1.2,0.9,1.1,2-0.1,2.8
		c-0.6,0.4-1.3,0.7-1.9,1.1C503.2,137,503.1,137,503,137z"/>
	<path class="black" fill="#000000" d="M464.9,138.4c-1.4,0.9-2.1,1.6-3,1.8c-1.3,0.3-1.8-0.9-2.1-1.9c-0.3-0.9,1-2.3,1.9-2.1
		C462.7,136.5,463.5,137.4,464.9,138.4z"/>
	<path class="black" fill="#000000" d="M488.7,147.3c-1.4,0.7-2.3,1.3-3.2,1.4c-0.4,0.1-1.4-0.7-1.4-1.2c-0.1-1.1,1.3-2.1,2.5-1.8
		C487.2,145.9,487.7,146.5,488.7,147.3z"/>
	<path class="black" fill="#000000" d="M485.7,137.4c0.6,1.3,1.1,2,1.1,2.7c0,1.3-1.2,1.4-2.1,1.3c-0.4,0-1.2-1.1-1-1.5
		C483.9,139.2,484.7,138.6,485.7,137.4z"/>
	<path class="black" fill="#000000" d="M452.6,139.7c-0.8,0.7-1.3,1.3-1.7,1.3c-1-0.1-2.3-0.2-2.2-1.7c0.1-0.8,0-2.1,1.1-1.8
		C450.8,137.7,451.5,138.7,452.6,139.7z"/>
	<path class="black" fill="#000000" d="M471.7,147.3c-0.8-0.8-1.5-1.2-1.7-1.7c-0.3-1,0.8-2,2-1.8c0.5,0.1,1.5,1,1.4,1.2
		C473.1,145.7,472.5,146.3,471.7,147.3z"/>
	<path class="black" fill="#000000" d="M464.6,145.7c-1,0.7-1.8,1.4-2.7,1.6c-0.3,0.1-1-0.9-1.4-1.3c0.9-0.6,1.7-1.3,2.6-1.8
		C463.2,144.1,463.8,145,464.6,145.7z"/>
	<path class="white" fill="#FFFFFF" d="M480.7,114.1c2.9,0,6.6,0,10.3,0c1.1,0,2.2,0,2.4,1.5c0.2,1.4-0.5,2.2-1.9,2.5c-0.8,0.2-1.6,0.5-2.5,0.7
		c-1.2,0.2-1.8,0.6-2,2c-0.1,1-1.1,2.1-2,2.8c-2.9,2.2-7.3,4.3-10.5,1.7c-0.6-0.5-1.3-1.1-1.6-1.9c-0.8-2-2.7-3-5-2.5
		c-2,0.4-4,0.7-6,0.8c-3.8,0.1-5.2-1-6.2-4.6c-0.5-1.7-0.7-3.4,0.3-5c0.8-1.3,0.1-1.8-0.9-2c-1-0.2-2.1-0.2-3.2-0.3
		c-3.3-0.2-4.4-1.5-4.3-4.7c0.1-3.4,1.4-6.3,3.9-8.5c1.3-1.2,1.5-2.2,0.7-3.9c-1.1-2.2-2.3-4.6-0.2-6.9c0.7-0.8,1.5-1.6,2.5-1.9
		c2-0.7,4-1.4,6.1-1.8c1.5-0.3,2.1-0.9,2.1-2.5c0-3.9,1.4-5.1,5.4-5.3c4.1-0.2,7.7,0.8,9.9,4.6c0.6,1.1,0.9,2.3,1.3,3.5
		c0.2,0.4,0.4,0.9,0.7,1.3c0.5-0.4,0.9-0.7,1.4-1.1c0.1-0.1,0.1-0.4,0.2-0.6c0.7-0.8-1.2-2.5,0.6-2.6c2.4-0.1,5.1-1.4,7,1.6
		c1.9,3,2.3,6.2,1.4,9.5c-0.2,0.6-0.7,1.3-1.3,1.5c-1.9,0.7-3.9,1.2-5.8,1.7c-1.6,0.4-3.4,0.6-5,1c-3,0.8-5.4-0.7-5.9-3.7
		c-0.1-0.6,0.1-1.3,0-1.9c-0.3-1.5-1-2-2.5-1.7c-0.2,0-0.4,0.1-0.6,0.2c-4.1,1.9-7.7,4.5-9.4,9c-0.5,1.5-0.2,2.4,1.3,2.5
		c1.2,0.1,2.5-0.3,3.7-0.6c2.3-0.6,4.5-1.2,6.8-1.8c0.2-0.1,0.7,0.1,0.8,0.2c0.1,0.2,0,0.7-0.2,0.8c-1.7,1.4-2.9,3.2-3.4,5.3
		c-0.2,1-0.4,2.1-0.2,3.1C470.1,111.5,475.3,114.3,480.7,114.1z"/>
	<path class="white" fill="#FFFFFF" d="M480.7,111c-5,0.2-8.2-3.3-8.8-6.1c-0.3-1.7-0.1-3.3,1.1-4.4c1.5-1.4,3.3-2.6,5.1-3.8c0.5-0.3,1.3-0.5,1.8-0.3
		c2.5,0.8,5.1,1.5,7.3,2.8c2.6,1.4,3.1,4.8,1.5,7.3C486.9,109.3,484.2,111.1,480.7,111z"/>
	<path class="white" fill="#FFFFFF" d="M493.5,94.2c3.4,0.6,6.5,1.5,8.8,4.2c2.2,2.6,2.4,5.6,0.9,8.3c-1.5,2.8-5.1,4.6-8.3,4.2
		c-0.7-0.1-1.4-0.4-2.2-0.5c-1.4-0.3-1.7-1.2-1.1-2.3c2.4-4.3,1.5-8-1.9-11.2c-0.9-0.9-0.7-1.5,0.4-1.8
		C491.2,94.6,492.3,94.4,493.5,94.2z"/>
	<path class="white" fill="#FFFFFF" d="M524.4,75.8c-1-0.2-2.6-0.5-4.3-1c-0.5-0.2-1.3-0.7-1.3-1.2c-0.3-1.8-1-1.7-2.4-0.9c-2.5,1.4-5.2,1.7-8.1,1.2
		c-1.8-0.3-3.2-1-4.1-2.7c-1.6-2.9-3.7-3.6-6.9-3.1c-3,0.5-6.1,0.3-8.9-0.7c-2.2-0.8-2.4-1.6-1-3.5c0.2-0.3,0.7-0.5,1-0.8
		c0.4-0.4,0.7-0.9,1-1.4c-0.6-0.1-1.1-0.2-1.7-0.2c-0.2,0-0.5,0.1-0.6,0.1c-3.5-1.4-6.5-3.6-9-6.4c-1.4-1.6,0.2-4.6,2.7-5.6
		c1-0.4,1.9-0.6,2.5-1.7c0.6-1.1,2-1.5-0.3-2.7c-2.4-1.3-1.7-5.8,0.9-7.4c2.5-1.5,5.2-2.7,8.1-2.7c1.7,0,3.8,0.4,4.9,2
		c1,1.5,1.4,1,1.9-0.2c0.7-1.8,1.6-3.4,3.3-4.6c4.5-3.5,9.8-3.3,13.8,0.7c0.9,0.9,1.8,1.7,2.8,2.4c0.3,0.2,0.9,0,1.3-0.2
		c0.5-0.2,0.8-0.7,1.2-0.9c4.8-1.7,11.6,1.3,13.3,6.1c1,2.6-0.1,4.9-1.7,6.8c-0.9,1.1-2.3,1.9-3.4,2.8c-0.3,0.3-0.5,0.6-0.8,0.9
		c0.3,0.1,0.7,0.3,1,0.4c0.3,0.1,0.7-0.1,0.9,0c3.2,1.5,3.5,4.7,4.2,7.5c0.5,1.9-0.8,3.7-2.9,4.8c-0.4,0.2-0.8,0.4-1.1,0.6
		c-2.3,1.3-2.3,1.3-1,3.8c0.1,0.2,0.2,0.4,0.2,0.6C532.3,74.3,529.4,75.8,524.4,75.8z"/>
	<path class="white" fill="#FFFFFF" d="M498.3,75c-1.9,0-2.9-1.3-2.3-2.6c0.5-1.1,2.9-2.4,4-1.9c0.7,0.3,1.6,1,1.7,1.6c0.1,0.6-0.6,1.5-1.2,1.9
		C499.7,74.6,498.7,74.8,498.3,75z"/>
	<path class="heart" fill="#AD0000" d="M500.8,43.5c3.5-0.2,6.4,0.8,7.9,4.3c0.3,0.8,0.7,0.7,1.4,0.3c2.5-1.5,4.9-2.9,7.5-4.1c2-0.9,3-0.3,4.2,1.2
		c1.1,1.4,1.2,2.9,0.3,4.5c-0.7,1.1-1.3,2.2-2.3,3.1c-3,2.8-5.7,5.7-7.4,9.5c-0.4,1-1.4,2.2-2.5,0.3c-2.6,1-4.4-1-6.4-2
		c-5.1-2.7-7.1-7.5-8.2-12.8c-0.6-2.9,0.8-4.1,3.7-4.2C499.8,43.5,500.3,43.5,500.8,43.5z"/>
	<path class="black" fill="#000000" d="M499,100.3c0,0,0.9,0.5,1,1.1c0.2,1.2-1.2,2.6-2.4,2.2c-0.7-0.2-1.4-1.3-1.5-2C496,100.4,497,99.9,499,100.3z"
		/>
	<path class="black" fill="#000000" d="M483.8,106.3c-1,0-2.1-1.4-2.1-2.8c0-1.4,0.9-2.3,2.5-2.1c1.2,0.1,2.1,1.1,2,2.4
		C486.1,105.1,484.9,106.3,483.8,106.3z"/>
</g>
<g>
	<path class="black" fill="#000000" d="M305,70.9c2.9,0.2,6,0.8,8,4.1c1.2,2,3.4,2.4,5.5,2.8c0.5,0.1,1.1,0,1.6,0.1c3.5,0.3,4.7,1.2,5.7,4.6
		c0.3,0.9,0.5,1.9,0.6,2.8c0.1,1.7,0.9,2.5,2.6,2.6c2.4,0.2,2.8-0.1,3-2.5c0-0.4,0-0.9,0-1.3c0.1-4-0.1-4,4.5-4.3
		c2.1-0.1,4.2,0.7,6.3,1.1c1.1,0.2,1.4,1.1,0.8,1.9c-0.7,0.9-1.6,1.7-2.6,2.2c-1.6,0.8-3.4,1.3-5.1,1.9c-2,0.8-2.2,1.9-0.9,3.7
		c0.6,0.9,1.2,1.7,1.7,2.7c2.7,5.1,1.6,9.5-3.5,12.5c-1.5,0.9-2,1.8-2.3,3.4c-0.3,1.7-0.8,3.8-2,5c-2.8,3-2,6.2-1.6,9.6
		c0.1,0.5,0.3,1,0.5,1.5c0.3,0.7,0.6,1.6-0.4,1.8c-0.7,0.2-1.7,0-2.2-0.4c-0.7-0.5-1.2-1.5-1.8-2.2c-0.9-1.1-2-1.6-3.3-0.4
		c-0.6,0.6-1.4,1.1-2.2,1.3c-2.8,0.6-4.1,2.4-4.6,5.1c-0.1,0.6-0.2,1.4-0.6,1.8c-0.8,0.7-1.9,1.3-2.9,1.6c-0.2,0.1-1-1.2-1.3-1.9
		c-1-2.1-1.2-4.5-3-6.3c-1.8-1.8-2.1-1.7-4.5-1c-3.7,1.1-6.7,2.7-8.4,6.5c-0.9,2.1-2,2.1-3-0.2c-1.8-4.3-3.1-8.8-6.2-12.4
		c-0.3-0.4-0.2-1-0.3-1.5c-0.6-2.9-0.5-2.9-3.6-3.4c-3.5-0.5-5.6-2.6-6.2-6c-0.8-4.1,0-7.9,3.3-10.8c0.5-0.4,0.9-0.9,1.4-1.3
		c1.1-0.9,1.4-1.8,0.9-3.4c-1.5-4.7,1.2-10.2,5.7-12.3c2.5-1.1,4.8-3,7.4-3.6c2-0.4,2.9-1.7,4.2-2.9C298.7,71.3,301.5,70.9,305,70.9
		z"/>
	<path class="black" fill="#000000" d="M322.7,31.5c1.8-0.2,3.6-0.2,5.4-0.6c0.9-0.2,1.8-0.6,2.4-1.3c2.7-2.7,6.1-3.5,9.6-3.7c3.9-0.2,6.7,2,8.6,5.2
		c0.9,1.4,1.9,2.4,3.4,3.2c2.7,1.3,4.6,3.4,6.3,5.8c1.5,2.1,1.7,4.3,1.3,6.7c-0.4,2-0.9,3.9-1.2,5.9c-0.1,0.6,0.2,1.2,0.3,1.8
		c0.4,2,1,4,1,5.9c0,0.9-0.8,2.2-1.7,2.8c-2.7,1.8-4.9,3.9-6.4,6.9c-1.2,2.5-4.7,3.6-7.6,2.2c-3.1-1.5-6.4-1.4-9.6-2.2
		c-0.5-0.1-1.3,0.3-1.8,0.7c-1.7,1.3-3.5,2.1-5.6,2.1c-2.6,0-3.9-0.7-4.3-3.3c-0.3-1.7-1.2-2-2.6-2.1c-2.3-0.3-4.7-0.4-7-1
		c-2.8-0.6-3.1-1.1-2.8-4c0.2-1.5-0.3-2.4-1.5-3.2c-0.8-0.5-1.5-1.2-2.2-1.8c-4.1-3.8-3.7-9.4,1.2-12.2c2.4-1.4,3.2-3.2,3.3-5.7
		c0.1-5.2,2.5-7.8,7.6-8.4c1.3-0.1,2.6-0.1,3.8-0.2C322.7,31.3,322.7,31.4,322.7,31.5z"/>
	<path class="black" fill="#000000" d="M336.4,131.9c0.2,0.4,0.7,1.1,0.8,1.8c0.1,1.5-1.2,2.4-2.7,2.4c-1.3,0-1.6-0.9-1.6-1.9
		C332.9,133,334.5,131.9,336.4,131.9z"/>
	<path class="black" fill="#000000" d="M327.4,136.6c-0.2,1.8-1.7,3.2-2.8,2.8c-0.5-0.2-1-0.8-1-1.3c0-1.6,1.3-2.8,2.6-2.5
		C326.7,135.8,327.1,136.4,327.4,136.6z"/>
	<path class="black" fill="#000000" d="M321.4,146.1c0.3,0.4,0.8,0.8,0.8,1.2c0,1.1-0.1,2.4-1.6,2.2c-0.9-0.1-2.4-0.1-2.4-1.5
		C318.3,145.9,320.2,146.9,321.4,146.1z"/>
	<path class="black" fill="#000000" d="M296,148.6c-1-1-1.9-1.5-2.3-2.4c-0.4-0.8,1.2-2.5,1.7-2.1c0.8,0.6,1.4,1.5,1.7,2.4
		C297.3,147,296.6,147.7,296,148.6z"/>
	<path class="black" fill="#000000" d="M317.1,142.1c-1.5,0.8-2.3,1.4-3.2,1.6c-0.2,0.1-1-0.9-1.1-1.4c-0.2-1.1,0.4-2,1.6-1.9
		C315.1,140.4,315.8,141.2,317.1,142.1z"/>
	<path class="black" fill="#000000" d="M288,141.8c-1.1,0.9-1.8,1.9-2.2,1.8c-0.7-0.2-1.3-1-2-1.6c0.6-0.5,1.1-1.4,1.8-1.5
		C286.2,140.4,286.9,141.1,288,141.8z"/>
	<path class="black" fill="#000000" d="M306.6,143.1c-0.1,1.4-1.7,2.6-2.8,2.4c-0.3-0.1-0.7-0.7-0.7-1.1c0.2-1.2,0.7-2.3,2.1-2.3
		C305.8,142.1,306.3,142.9,306.6,143.1z"/>
	<path class="black" fill="#000000" d="M297.8,140.1c-0.5-1-0.8-1.5-0.8-1.9c0-0.9,0-2.1,1.3-2.2c0.4,0,1.3,0.8,1.2,1
		C299.2,138,298.6,138.8,297.8,140.1z"/>
	<path class="black" fill="#000000" d="M334.1,143.5c-1.2,0.8-1.8,1.3-2.4,1.5c-0.2,0.1-0.7-0.5-1.1-0.8c0.4-0.5,0.8-1.1,1.3-1.4
		C332.2,142.7,332.9,143.1,334.1,143.5z"/>
	<path class="white" fill="#FFFFFF" d="M286.3,112.4c0-0.4,0.1-0.9,0.1-1.3c0-1.1-0.8-1.8-1.6-1.2c-2.6,2.3-4.8,1.1-6.6-0.8c-2.1-2.3-2.4-5.1-1.1-8.1
		c0.9-2,2.2-3.4,3.9-4.6c0.9-0.6,1.8-1.2,2.5-1.9c0.3-0.3,0.3-1.3,0.1-1.5c-2.9-2.7-3.2-4.6-1.2-7.6c2.8-4.1,6.4-6.2,11.5-5.2
		c1.5,0.3,2.1,0.1,1.9-1.7c-0.2-2.1,1.4-3.5,3.1-4.5c3.1-1.8,6.5-1.3,9.6-0.1c1.6,0.6,2.7,2.1,2.9,4c0.2,1.6,0.4,3.2,0.7,4.7
		c0.1,0.4,0.3,0.7,0.4,1.1c0.4-0.2,1.2-0.3,1.3-0.6c1.1-3.3,3.9-3,6.4-3c2,0,2.9,0.8,3.3,2.8c0.3,1.1,0.5,2.3,0.4,3.5
		c-0.1,1.4-0.6,2.5-2.3,3c-3,0.8-5.7,2.4-8.9,2.2c-1.2-0.1-2.5,0.6-3.7,1c-2.7,1-4,0.8-5.9-1.3c-3.4-3.7-5-3.7-8.4,0.2
		c-1.2,1.4-2.1,3-3,4.5c-0.6,1.1-0.3,2,1,2c1.2,0,2.5-0.1,3.7-0.5c1.6-0.5,3.1-1.4,4.8-1.8c2.1-0.6,2.6,0.1,2.4,2.2
		c-0.3,2.7-0.8,5.4,0.8,8.1c1.4,2.5,3.4,3.7,6.2,3.9c3.2,0.2,6.1-0.7,8.9-2.3c1.7-1,3.6-1.4,5.5-1.3c2.4,0.1,3.7,0.9,4.1,2.4
		c0.4,1.3-0.9,4-2.6,4.8c-0.9,0.4-2,0.5-3,0.8c-1.6,0.4-1.7,0.8-1.1,2.4c0.2,0.5,0.2,1.3,0,1.5c-1.3,1.3-2.6,2.6-4,3.7
		c-0.6,0.5-1.5,0.5-2.3,0.7c-0.8,0.2-1.6,0.3-2.4,0.6c-2.7,1.1-5.5,0.4-7.2-2.1c-0.3-0.4-0.7-0.8-1-1.2c-1.4-1.6-1.4-1.5-2.6,0.3
		c-0.3,0.4-0.5,1-1,1.2c-5.3,2.1-10.8,1.1-14.1-3.4c-1.1-1.5-1.2-3.7-1.8-5.6C286,112.5,286.1,112.5,286.3,112.4z"/>
	<path class="white" fill="#FFFFFF" d="M328,104.4c-0.9-0.2-2.2-0.5-3.5-0.9c-0.3-0.1-0.6-0.7-0.5-0.9c1.3-2.7-0.3-4.5-1.8-6.3
		c-0.3-0.4-0.8-0.8-0.9-1.3c-0.1-0.5-0.2-1.3,0.1-1.7c2.2-2.5,7.6-3.4,10.3-1.6c2.4,1.5,3.7,3.8,3.9,6.6c0.2,3.2-2.1,5.5-5.8,5.9
		C329.3,104.3,328.9,104.3,328,104.4z"/>
	<path class="white" fill="#FFFFFF" d="M310.9,107.5c-1.3-0.9-2.4-1.4-3.3-2.2c-2.4-2.2-1.7-4.9-0.8-7.4c0.8-2.4,2.9-2.5,5-2.5c1.3,0,2.6-0.1,3.8,0
		c0.8,0.1,1.8,0.2,2.4,0.6c3.6,2.8,4.9,5.3,0.3,8.6C316.3,106.1,313.5,106.6,310.9,107.5z"/>
	<path class="white" fill="#FFFFFF" d="M346.4,70.4c-1.4-0.7-2.8-1.3-4.1-2.1c-0.9-0.6-1.5-1.5-2.4-2.2c-0.3-0.2-1.1-0.2-1.4,0
		c-0.6,0.4-0.1,1.9-1.5,1.7c-1.5-0.3-3.1-0.7-4.6-1.2c-0.6-0.2-1-0.9-1.6-1.1c-1.2-0.4-2.6-1-3.7-0.7c-4.1,1-8-0.1-11.9-0.6
		c-2.6-0.3-2.7-1.1-1.2-3.4c0.2-0.4,0.5-0.7,0.7-1.1c0.4-0.9,0.4-1.5-0.9-1.8c-1.4-0.3-2.9-0.8-4.2-1.5c-4.1-2.4-4.1-8,0.2-10.2
		c1.1-0.6,2.5-1.1,3.6,0c1.3,1.3,1.6,0.6,1.6-0.6c0-0.8-0.1-1.7-0.3-2.5c-0.1-0.6-0.4-1.2-0.6-1.8c-1.1-4.1-0.5-5.7,3.5-7.2
		c2.8-1.1,5.9-2.2,8.9-0.5c0.4,0.2,0.8,0.3,1.1,0.5c0.4,0.4,0.8,1,1.1,1.5c0.5-0.7,1.1-1.2,1.5-2c2-3.6,8-6.1,11.9-4.9
		c2.6,0.8,4.3,2.7,5,5.4c0.3,1.4,0.4,2.8,2.7,2.4c1-0.2,2.4,1.2,3.4,2c1.7,1.4,3.1,3,3.4,5.2c0.4,2.8-0.4,4.6-3,5.7
		c-1.8,0.8-3.8,1.3-5.8,1.9c-0.3,0.1-0.5,0.6-0.8,0.9c0.3,0.2,0.7,0.4,1,0.4c0.5,0,1-0.2,1.6-0.3c3.8-0.7,4.2-0.5,5.9,3
		c0.4,0.8,0.7,1.6,0.9,2.4c0.8,2.7,0.2,3.9-2.3,5.1c-0.6,0.3-1.2,0.5-1.8,0.7c-2.5,0.9-2.5,0.9-2.8,3.7
		C349.7,69.4,348.9,70,346.4,70.4z"/>
	<path class="white" fill="#FFFFFF" d="M329.9,68.4c-0.3,1.8-1.3,2.1-2.3,2.2c-0.9,0.1-2,0.2-2.1-1.2c-0.1-1.2,0.6-2.1,1.9-2
		C328.3,67.5,329.1,68,329.9,68.4z"/>
	<path class="black" fill="#000000" d="M330.4,94.6c1.1,0,1.8,1,1.7,2.2c-0.1,1.2-1.5,2.1-3,2.2c-1,0-1.6-0.5-1.7-1.5C327.2,96,328.9,94.5,330.4,94.6
		z"/>
	<path class="heart" fill="#AD0000" d="M322.1,45.8c0-4.4,2-5.8,5.5-4.5c1.1,0.4,2.1,1.1,3,1.8c1.2,0.9,2.2,0.9,3.5,0.1c1.5-1,3.1-1.8,4.8-2.3
		c1-0.3,2.3-0.1,3.3,0.3c1.6,0.7,2.1,1.9,1.2,3.4c-0.7,1.4-1.9,2.6-3,3.7c-0.9,0.9-1.9,1.7-2.9,2.4c-1.9,1.5-3.3,3.3-3.5,5.9
		c0,0.5-0.6,1-0.9,1.5c-0.5-0.3-1-0.6-1.5-1c-1.1-0.9-2-2-3.1-2.6c-2.5-1.4-4-3.8-5.7-6C322.3,47.7,322.2,46.4,322.1,45.8z"/>
	<path class="black" fill="#000000" d="M314.3,97.6c1.1,0,1.8,1,1.7,2.2c-0.1,1.2-1.5,2.1-3,2.2c-1,0-1.6-0.5-1.7-1.5C311.2,99,312.8,97.5,314.3,97.6
		z"/>
</g>
<g>
	<path class="black" fill="#000000" d="M373.9,99.9c0-1.4,0.6-3.2,1.9-4.7c1.3-1.7,0.8-3.1-1.3-3.3c-1.5-0.1-3,0.2-4.4,0.4c-1.7,0.2-3.4,0.6-5.1,0.6
		c-2.5,0-3.7-2.2-2.3-4.3c1.9-3,4.4-5.5,7.8-6.9c2.7-1,3.3-0.6,4.6,2c1.2,2.3,2.7,4.6,4.2,6.7c0.4,0.5,1.4,0.6,2.1,0.8
		c0.2-0.8,0.4-1.5,0.5-2.3c0-0.6-0.3-1.2-0.4-1.9c-0.9-4.8,1.9-8.1,6.8-8.2c0.4,0,0.8,0.1,1.3,0.1c1,0.1,1.3-0.2,1.3-1.3
		c-0.3-7.9,8.2-13,15.2-9.2c0.9,0.5,1.6,0.7,2.6,0c1.3-0.9,2.8-1.6,4.2-2.3c6.1-3,12.7-0.3,15,6.2c0.6,1.7,1.3,2.9,2.9,3.9
		c2.5,1.6,4.5,3.9,5.4,6.6c1,3.1,0.4,6.4-1.8,9c-1.7,2.1-1.8,2-0.5,4.5c1.6,3.2,2.2,6.3-0.6,9.2c-2.5,2.5-2,5.6-1.8,8.7
		c0.1,0.8,0.6,1.7,0.5,2.5c0,0.6-0.5,1.4-1,1.7c-0.3,0.2-1.2-0.2-1.6-0.5c-3.3-2.7-3.2-2.7-6.4,0.1c-1.7,1.5-2.8,3.5-3.5,5.6
		c-0.2,0.6-0.1,1.3-0.5,1.9c-0.7,1.1-1.3,2.8-2.4,3.1c-1.5,0.4-1.5-1.7-2.4-2.6c-0.2-0.2-0.4-0.5-0.4-0.9c-0.9-3.6-3.3-5.3-6.9-6.2
		c-2.3-0.6-4,0.5-5.8,1.1c-0.8,0.3-1.4,1.7-1.8,2.7c-0.7,1.7-1,3.5-1.7,5.2c-0.2,0.6-1,1.5-1.4,1.4c-0.7-0.2-1.4-0.9-1.9-1.5
		c-0.3-0.4-0.3-1-0.5-1.5c-0.8-2.9-2.7-5-4.8-7c-2-1.9-3.7-3.9-4.5-6.5c-0.3-1.2-0.9-1.8-2.1-2c-5.9-1-8-3.4-8.4-9.3
		C373.9,101.3,373.9,100.9,373.9,99.9z"/>
	<path class="black" fill="#000000" d="M398.3,17.5c1.1-2.6,3.2-2.7,5.7-3.5c4.8-1.5,9.5-1.1,14,1.1c1.8,0.9,3,2.5,2.9,4.6c-0.1,1.7,0.5,2.4,2.1,3
		c3.9,1.2,6.5,3.9,8.4,7.5c0.8,1.6,1.2,3.3,0.5,4.9c-0.9,2.1-0.5,4.2,0.1,6.2c0,0.1,0.1,0.2,0.1,0.3c2.4,8.3-2.3,14.3-11.2,14.1
		c-1.8-0.2-3.5-0.1-5,2c-1.2,1.8-3.5,2.4-5.7,2.4c-2.6,0-5.2,0.1-7.5-1.2c-0.9-0.5-1.7-0.5-2.5,0.4c-1.9,2.1-4.6,2.2-7.1,2.1
		c-1.7-0.1-3.2-1.1-3.4-2.9c-0.2-1.9-1.4-2.2-2.9-2.4c-1.3-0.2-2.6-0.2-3.8-0.4c-3.5-0.5-5.3-3-4.4-6.4c0.5-1.9-0.1-2.7-1.6-3.6
		c-3-1.7-4.2-4.6-4.7-7.7c-0.6-3.5,1.4-7,4.9-8c2.6-0.8,3-2.1,2.7-4.4c-0.7-5.6,8-13.7,15-10.5c0.3,0.1,0.7,0.1,0.9,0.4L398.3,17.5z
		"/>
	<path class="black" fill="#000000" d="M375.2,68.5c0-3.8,5.7-7.2,9.1-5.3c2.4,1.3,2.8,4.7,0.6,6.5c-1.2,1-2.7,1.8-4.1,2.5
		C377.9,73.5,375.1,71.7,375.2,68.5z"/>
	<path class="black" fill="#000000" d="M378.4,131.8c1.4,0.4,2.6,0.7,3.6,1.2c0.3,0.1,0.5,1,0.4,1.4c-0.2,0.5-0.6,1.2-1.1,1.4
		c-1.5,0.6-3.7-1.5-3.4-3.1C378.1,132.2,378.4,131.9,378.4,131.8z"/>
	<path class="black" fill="#000000" d="M419.1,136.4c-1.3,1-2.1,1.9-3,2.2c-0.4,0.1-1.6-0.8-1.7-1.4c-0.3-1,1.4-2.6,2.4-2.4
		C417.4,135,418,135.6,419.1,136.4z"/>
	<path class="black" fill="#000000" d="M426.2,132.1c-1.8-0.2-2.1-1.1-2-2.2c0.2-1.4,1.3-1.8,2.3-1.5c0.7,0.2,1.1,1,1.7,1.5
		C427.5,130.8,426.7,131.6,426.2,132.1z"/>
	<path class="black" fill="#000000" d="M437.5,132.5c-1.1,0.6-1.7,1.1-2.4,1.3c-0.8,0.2-1.6-0.2-1.4-1.2c0.2-0.9-0.2-2.6,1.3-2.5
		C435.7,130.1,436.4,131.4,437.5,132.5z"/>
	<path class="black" fill="#000000" d="M410.3,141.2c-1.3,0.8-2,1.4-2.8,1.6c-1.1,0.3-2-0.4-1.8-1.5c0.1-0.7,1.1-1.6,1.8-1.7
		C408.1,139.5,408.9,140.4,410.3,141.2z"/>
	<path class="black" fill="#000000" d="M408.6,131.8c-1.4,1-2.3,1.8-3.3,2.5c-0.3-0.7-0.8-1.5-0.9-2.2c-0.2-1.2,0.7-1.8,1.8-1.7
		C406.9,130.5,407.6,131.1,408.6,131.8z"/>
	<path class="black" fill="#000000" d="M397.5,139.7c-0.2-0.3-1.3-1-1.1-1.3c0.3-0.9,1.1-1.6,1.6-2.4c0.6,0.6,1.6,1.1,1.7,1.9
		C400,139,399.2,139.6,397.5,139.7z"/>
	<path class="black" fill="#000000" d="M428.7,135.2c0.6,0.5,1.1,0.8,1.2,1.1c0.2,0.9-1.2,2.4-2.2,2.1c-0.7-0.2-1.2-0.9-1.8-1.4
		C426.8,136.5,427.7,135.9,428.7,135.2z"/>
	<path class="black" fill="#000000" d="M389.6,140.3c-0.9,0.7-1.4,1.4-2,1.5c-0.5,0-1-0.8-1.5-1.2c0.6-0.5,1.1-1.1,1.8-1.5
		C388.1,139.1,388.7,139.7,389.6,140.3z"/>
	<path class="white" fill="#FFFFFF" d="M404.3,87.9c0,1.2-0.1,1.7,0,2.2c0.7,3.5-1.2,3.8-3.9,3.2c-3.4-0.7-6.9-1.2-10.3-1.6c-4.1-0.5-6.4-2.8-6.1-6.7
		c0.1-0.9,0.5-1.9,1.1-2.5c2.5-2.5,5.7-2.1,7.7,0.8c0.3,0.5,1.1,0.7,1.7,1c0.2-0.7,0.5-1.4,0.4-2c-0.3-1.1-0.8-2.2-1.2-3.3
		c-1.7-3.9,0.6-6.6,3.6-8.1c1.1-0.6,2.4-0.8,3.7-1.1c1.8-0.4,3.4-0.4,4.1,1.9c0.5,1.4,1.5,0.7,2.3,0.3c2-1.1,3.8-2.3,5.9-3.3
		c4.4-2.1,9.2-0.5,11.6,3.7c0.4,0.7,1.1,1.7,0.9,2.3c-0.7,2.1,0.6,2.6,2,3.5c3,1.8,5.4,4.3,5.5,8.1c0.1,2.4-0.5,4.4-2.6,5.9
		c-1,0.7-1.9,1.3-2.9,2c-0.7,0.5-0.8,1,0.2,1.2c3.2,0.7,3.6,3.4,3.7,6c0.1,2.8-1.8,4.4-4.1,5.6c-2.1,1.1-4.2,2.1-6.3,3.1
		c-0.2,0.1-0.4,0.5-0.5,0.7c0.3,0.1,0.7,0.4,1,0.4c1-0.3,2.3-1.1,2.8,0.1c0.3,0.5-0.7,1.9-1.3,2.6c-2.6,3-6.1,3.9-9.9,3.4
		c-2.4-0.3-4.8-1-7.2-1.6c-1.1-0.3-2-0.6-2.7,0.8c-0.2,0.4-1,0.7-1.6,0.8c-2.1,0.3-4.3,0.4-6.4,0.7c-4.1,0.5-6.5-1.7-8.4-5.6
		c-0.4-0.9-0.6-1.7,1-1.4c1,0.2,2.1,0,3.2,0c0.9,0,2-0.1,2.8,0.3c2.2,1,4.4,0.8,6.6,0.1c0.6-0.2,1.2-0.5,1.8-0.6
		c4.5-0.4,6.2-3.6,7.6-7.3c0.9-2.4-0.5-4.3-1.6-6.3c-0.5-0.9-1.4-2-1.2-2.7c0.4-0.9,1.5-1.7,2.5-2.2c1.7-0.9,3.6-1.4,5.4-2.2
		c0.9-0.4,1.8-0.8,2.5-1.5c1.8-1.7,1.7-3.6-0.6-4.6c-2.5-1.1-5.2-2-7.9-2.3c-3.9-0.5-5.5,1.4-5.2,5.2
		C404.2,87.7,404.3,88.1,404.3,87.9z"/>
	<path class="white" fill="#FFFFFF" d="M407.6,102.5c-0.1,3.1-1.9,5-5.8,6.2c-2.8,0.8-5.7,0.7-7.7-1.5c-2.1-2.3-3.4-5.1-2.2-8.5
		c0.7-2,1.9-3.1,3.8-3.4c3.5-0.4,6.8,0.1,9.7,2.3C407.1,98.9,407.7,100.3,407.6,102.5z"/>
	<path class="white" fill="#FFFFFF" d="M385.6,108.5c-0.8,0-1.1,0-1.5,0c-5.1,0.2-7.8-2.9-7.7-8.6c0-4.5,5.4-7.4,9.2-6.9c2.1,0.3,3.8,2.3,3.4,4.6
		c-0.6,3.2-0.3,6.1,0.9,9c0.4,1-0.1,1.4-1,1.5C387.7,108.3,386.4,108.4,385.6,108.5z"/>
	<path class="white" fill="#FFFFFF" d="M394.8,59.2c-0.8-0.3-1.4-0.5-1.9-0.9c-0.3-0.2-0.5-0.9-0.4-1c1.1-0.8,1.6-1.6,0.7-2.9c-0.1-0.1,0-0.5,0.1-0.6
		c1.2-0.4,2.4-0.8,3.6-0.9c1.2-0.1,2,1,2.1,2.1c0.1,1.3,0.1,2.7-1.3,3.3C396.8,58.8,395.7,58.9,394.8,59.2z"/>
	<path class="white" fill="#FFFFFF" d="M384.4,67.2c-0.2,0.3-0.3,0.7-0.6,0.9c-0.9,0.7-1.9,1.4-2.9,1.9c-1.8,0.9-3.4-0.4-3.1-2.4
		c0.2-1.3,1.6-2.5,3.1-2.7c1.4-0.2,2.4,0.5,3.2,1.6C384.2,66.6,384.2,66.8,384.4,67.2z"/>
	<path class="black" fill="#000000" d="M397.3,104.4c-1,0-2.1-1.4-2.1-2.8c0-1.4,0.9-2.3,2.5-2.1c1.2,0.1,2.1,1.1,2,2.4
		C399.7,103.1,398.5,104.4,397.3,104.4z"/>
	<path class="black" fill="#000000" d="M382.6,103.7c-1,0-2.1-1.4-2.1-2.8c0-1.4,0.9-2.3,2.5-2.1c1.2,0.1,2.1,1.1,2,2.4
		C384.9,102.5,383.7,103.8,382.6,103.7z"/>
	<path class="white" fill="#FFFFFF" d="M394.9,17.5c-2.8-0.7-5.5-0.6-8.1,0.8c-4,2.1-5.6,6.4-3.8,10.6c0.3,0.8,0.6,1.6,0.6,2.4c0,0.6-0.4,1.1-0.6,1.7
		c-0.4-0.4-1-0.7-1.2-1.2c-0.6-1.1-1.3-1.2-2.4-0.9c-4,1-5.9,4.7-4.2,8.5c1.7,3.8,3.9,5,8.3,4.7c0.4,0,0.9,0.3,1.4,0.5
		c-0.2,0.5-0.3,1.2-0.7,1.6c-0.4,0.4-1.2,0.5-1.7,0.8c-1.3,0.8-1.8,2.1-1.6,3.6c0.2,1.6,1.2,2.7,2.7,2.8c3.4,0.2,6.8,1,9.8-1.6
		c0.6-0.5,1.5-0.8,2.3-1.1c2.4-0.7,4.1-0.1,5,2.2c1.8,4.4,5.1,5.6,10.6,4.8c1.4-0.2,2.7-0.8,3.4-2.1c0.8-1.6,2.2-1.7,3.8-1.6
		c2.4,0.2,4.8,0.1,7.2-1c3.4-1.6,4.5-5.4,3.9-8.6c-0.1-0.6-0.4-1.2-0.6-1.8c-0.8-2.2-0.8-2.2-3.1-1.5c-0.4,0.1-0.9,0-1.4,0
		c0.1-0.4,0.2-0.8,0.5-1.1c0.6-0.6,1.2-1.2,1.9-1.8c2.1-1.8,2.6-3.8,1.7-6.3c-1.5-4-5.6-6.8-10-6.6c-1.3,0.1-1.1-0.5-1-1.3
		c0.7-4.6-0.5-6.6-5.1-7.6c-4.8-1-9.4-0.6-13,3.3L394.9,17.5z"/>
	<path class="heart" fill="#AD0000" d="M396.1,27.2c2,0.6,4.1,1.1,6.1,1.9c1.7,0.7,2.8,0.9,4.1-0.8c1.3-1.6,3-2.5,5.4-1.5c3.5,1.4,4.9,4.3,3.2,7.6
		c-0.8,1.7-1.8,3.4-2.9,5c-1.2,1.6-2.4,3.2-2.7,5.3c-0.2,1.4-1.2,1.8-2.3,1.3c-3.3-1.8-6.8-3.5-9.9-5.7c-2.1-1.4-3.9-3.3-5.4-5.3
		c-2.9-3.9-1.4-6.9,3.4-7.4c0.3,0,0.6,0,1-0.1C396,27.3,396,27.2,396.1,27.2z"/>
</g>
<g>
	<path class="black" fill="#000000" d="M141.8,77.3c3,0,5.1,1.4,7,3.5c2.2,2.4,4.7,4.3,8.2,4.5c2.7,0.2,4.7,2.2,5.2,4.9c0.2,0.9,0.3,1.9,0.3,2.9
		c0,2.8,0,2.8,1.9,3.1c2.2,0.3,2.6,0,3.2-2.5c1.2-4.6,4.4-6.5,8.9-5.3c1.8,0.4,3.1,1.5,3.8,3.1c0.4,0.9-2,2.9-3.8,3.4
		c-2,0.5-3.9,1-5.8,1.7c-1.5,0.6-1.6,1.2-0.4,2.2c2.3,2,3.2,4.4,3.3,7.4c0.3,4.8-2.8,9.5-7.4,11c-3.3,1.1-6.4,2.5-7.6,6.2
		c-0.2,0.6-0.6,1.1-1,1.6c-1.3,2.1-2.7,4.1-2.8,6.7c0,0.8-0.4,1.7-0.7,2.5c-0.4,1.1-0.9,2.4-2.3,2.4c-1.5,0-1.3-1.5-1.6-2.4
		c-1.4-4.2-1.5-4.2-5.8-2.9c-1.4,0.4-2.2,1.1-2.5,2.6c-0.2,1.4-0.6,2.7-1,4c-0.2,0.7-0.6,1.4-1,1.9c-0.9,1-1.7,0.8-2.2-0.5
		c-0.6-1.6-1-3.3-1.4-4.9c-0.6-2.4-1-2.5-3.3-1.9c-2.5,0.7-4.9,2.1-7.7,1.9c-0.6,0-1.4,1.4-1.9,2.2c-0.7,0.9-1.1,2-1.9,2.9
		c-0.7,0.9-1.5,0.8-1.7-0.5c-0.4-2.5-0.8-5-1.1-7.6c-0.3-3.3-1.8-5.3-5.1-6.2c-2.3-0.6-3.8-2.1-4.3-4.7c-0.6-3.1-1.5-6.1,0.6-8.9
		c0.7-1,0.3-2-0.5-2.6c-2.3-1.7-1.7-3.7-0.8-5.7c0.8-1.8,1.9-3.7,3.2-5.2c1.1-1.3,1.6-2.6,1.3-4.1c-0.5-2.6,0.6-4.5,2.4-6.3
		c2.7-2.7,6-4.5,9.6-5.6c2.6-0.8,5.1-2.1,7.8-2.9C135.7,78.3,138.7,77.9,141.8,77.3z"/>
	<path class="black" fill="#000000" d="M167.6,19.4c2,0.2,3.3,0.2,4.6,0.4c2.3,0.4,4.1,1.6,5.3,3.8c1.7,3.2,4.1,5.1,7.9,4.6c1.6-0.2,3,0.6,3.7,2
		c2.4,4.7,2.8,9.7,2.1,14.8c-0.1,0.9-0.8,1.7-1.1,2.6c-0.3,0.9-0.5,1.8-0.8,2.7c-0.2,0.6-0.1,1.5-0.4,1.8c-2,1.4-2.1,3.6-3,5.5
		c-1.2,2.6-2.8,4.8-5.7,5.7c-1.8,0.6-3.6,1.3-5.4,2c-0.7,0.3-1.5,0.5-1.9,1c-3.1,3.7-7.2,4.4-11.6,4.1c-1.7-0.1-3.3-0.2-5,0.6
		c-2.9,1.2-4.3,0.7-5.9-2c-0.6-1.1-1-1.1-1.9-0.6c-3.9,2.5-8.2,1.9-12.5,1.8c-1.7,0-2.9-1.2-3.2-2.8c-0.5-2.6-2.3-4.4-4.1-5.8
		c-2.8-2.4-3.2-5.3-2.6-8.4c0.6-3.2,1.9-6.1,3.9-8.7c2.5-3.3,4.5-6.9,6-10.8c1.4-3.7,3.7-6.5,7.3-8.1c3.5-1.6,7-3,10.9-3.4
		c2.9-0.3,5.7-0.8,8.4-1.9C164.4,19.5,166.4,19.5,167.6,19.4z"/>
	<path class="black" fill="#000000" d="M165.3,83.3c-1.4-0.1-2.8-0.1-3.4-1.7c-0.8-1.8-0.9-3.7,0.5-5.1c0.8-0.8,2.4-1,3.7-1.1c1,0,2,0.5,3,1
		c1.9,0.9,2.5,2.4,1.3,4.1C169.1,82.1,167.6,83.4,165.3,83.3z"/>
	<path class="black" fill="#000000" d="M174,144.8c0.8,0.3,2.3-0.4,2.3,1.3c0,1.3-1.5,2.5-2.8,2.5c-1.4-0.1-1.8-0.9-1.7-2.1
		C171.9,145.1,172.3,144.8,174,144.8z"/>
	<path class="black" fill="#000000" d="M165.2,137.8c-0.1,2-2.5,3.7-4.2,2.8c-0.3-0.2-0.5-1.3-0.3-1.5c0.9-0.8,2-1.6,3.1-2.2
		C164.6,136.5,165.2,136.9,165.2,137.8z"/>
	<path class="black" fill="#000000" d="M122.2,156.2c-1.3,0.8-2.2,1.4-3.1,2c-0.3-0.6-0.9-1.1-0.9-1.7c-0.1-1.3,1.2-2.6,2-2.2
		C120.9,154.6,121.3,155.3,122.2,156.2z"/>
	<path class="black" fill="#000000" d="M107.8,153.5c-0.3,1.8-1.4,2.2-2.5,2.3c-0.5,0-1.4-0.5-1.6-0.9c-0.4-1,0.8-2.2,2.1-2.2
		C106.4,152.8,107.1,153.3,107.8,153.5z"/>
	<path class="black" fill="#000000" d="M148.7,149.4c-0.2-0.3-1.1-0.8-1.1-1.4c0-1.4,1.3-1.5,2.3-1.6c0.4,0,1.1,0.6,1.2,1
		C151.5,148.7,150.6,149.4,148.7,149.4z"/>
	<path class="black" fill="#000000" d="M144.1,155.9c0.2,0.2,0.9,0.5,1,1.1c0.2,0.8-1.5,1.8-2.7,1.5c-0.3-0.1-0.8-0.7-0.8-1.1
		C141.6,156.2,142.4,155.7,144.1,155.9z"/>
	<path class="black" fill="#000000" d="M162.8,149c0.5,1.1,1,1.7,1,2.3c0,1.3-1,1.6-2,1.4c-0.5-0.1-0.9-0.7-1.3-1C161.2,150.9,161.8,150.2,162.8,149z
		"/>
	<path class="black" fill="#000000" d="M133.1,149.4c-1.1,0.7-1.9,1.3-2.8,1.7c-0.2,0.1-1-0.7-1-1.2c-0.2-0.9,1.5-1.8,2.6-1.5
		C132.2,148.5,132.5,148.9,133.1,149.4z"/>
	<path class="white" fill="#FFFFFF" d="M147.9,98.5c-1.6,0.2-3.2,0.3-4.8,0.6c-1.3,0.2-2.3-0.1-3-1.3c-0.4-0.6-0.9-1.2-1.4-1.7c-2-2-4-2.3-6.4-0.8
		c-1.9,1.2-3.6,2.7-5.3,4.2c-0.7,0.7-1.2,1.8-1.6,2.8c-0.8,2.3,0,3.4,2.5,2.8c3.3-0.7,6.6-1.8,9.9-2.7c0.5-0.1,1-0.1,1.5-0.1
		c-0.1,0.5-0.1,1-0.4,1.4c-2,3.2-2.3,6.7-0.8,10.1c1.3,2.9,3.5,4.9,6.7,5.3c3.7,0.5,7.4,0.9,11.1,1.3c1.1,0.1,1.4,0.7,0.8,1.5
		c-1.4,1.8-2.5,3.9-4.8,4.5c-3.3,0.9-6.6,1.8-9.9,2.4c-1.6,0.3-3.3-0.4-5-0.7c-1.7-0.3-3-0.4-4.5,1.2c-2.1,2.4-6.5,3.4-9,0.1
		c-0.5-0.6-0.9-1.4-1.1-2.2c-0.5-1.4-0.8-2.9-1.3-4.3c-0.3-0.8-0.8-1.5-1.6-0.6c-1.4,1.5-2.9,0.7-4.2,0.2c-1.2-0.5-2.5-1.5-3.1-2.6
		c-2.2-3.8-0.9-7.9,2.9-10.2c0.4-0.2,0.7-0.7,1-1.1c-0.3-0.2-0.7-0.5-1-0.7c-0.2-0.1-0.4-0.1-0.6-0.1c-3.7-0.8-4.1-1.6-2.5-5
		c1-2.2,2.4-4,4.3-5.5c1.2-1,2.2-2,0.5-3.7c-0.6-0.6-0.6-2.1-0.3-3c1.3-3.6,7.3-7.2,11.1-6.7c1.2,0.2,2.5,0.7,3.6,1.3
		c2,1,1.9,1.1,2.8-0.9c1.5-3.3,4.5-5.2,7.9-5.1c3.1,0.1,4.9,1.8,5.9,4.8c0.6,1.8,1.6,3.5,1.2,5.5c0,0.1,0.6,0.5,0.9,0.4
		c0.4-0.1,0.7-0.5,1-0.7c0.6-0.5,1.1-1.5,1.7-1.5c1.5-0.1,3.2-0.2,4.6,0.4c2.3,0.8,3.3,3.4,2.7,5.9c-0.4,1.9-1.2,2.6-3.2,3
		c-1.8,0.4-3.4,1-5.2,1.4c-1.1,0.3-2.3,0.3-3.4,0.4C148,98.7,148,98.6,147.9,98.5z"/>
	<path class="white" fill="#FFFFFF" d="M156.5,106.4c0,3.2-1.6,5.3-4.1,6.3c-1.4,0.5-2.7,1.3-3.9,2.1c-3.6,2.3-5.6,1.6-7.1-2.6c-0.6-1.6-1-3.2-0.6-5
		c1-4.5,4.5-6.7,9-5.6c1.9,0.4,3.8,0.6,5.1,2.2C155.7,104.8,156.2,105.8,156.5,106.4z"/>
	<path class="white" fill="#FFFFFF" d="M170.6,107c0.6,4.1-2.2,6-4.8,7.5c-2.4,1.4-5.3,1.5-8.1,1c-1.9-0.3-2.2-1-1.1-2.5c2.3-3.1,2.8-6.3,1.4-9.9
		c-0.2-0.5-0.1-1.5,0.2-1.9c1.5-1.8,5.1-2.3,7.4-1.4C169,101.1,171,103.4,170.6,107z"/>
	<path class="white" fill="#FFFFFF" d="M137.5,43.9c1.1,0,1.5,0.1,1.9,0.1c0.8-0.1,1.6-0.4,2.3-0.6c-0.6-0.5-1.2-0.9-1.7-1.5
		c-0.7-0.9-1.7-1.8-1.9-2.8c-1.6-7.7,6.6-14.9,14.1-12.6c1,0.3,2.1,0.6,2.1,2c0,0.2,0.3,0.4,0.5,0.6c0.2-0.2,0.5-0.4,0.6-0.6
		c3.5-6.1,9-7.8,15.5-6.8c3,0.4,4.1,1.7,4.8,4.6c0.4,1.6,1.1,3.1,1.9,4.5c0.1,0.3,0.9,0.5,1.3,0.4c1.2-0.2,2.3-0.5,3.4-0.8
		c3.7-0.8,6.4,1,6.8,4.8c0.5,3.7,1.1,7.4-0.8,11c-0.8,1.6-1.6,3.1-3.8,2.6c-0.5-0.1-1.1,0.1-1.5,0.3c-0.4,0.2-0.7,0.7-1,1.1
		c0.4,0.1,0.8,0.3,1.2,0.3c1.9,0.4,1.7,2,1.7,3.2c-0.1,3.9-5.5,8.6-9.4,8.2c-0.6-0.1-1.2-0.9-1.8-1.5c-0.3-0.3-0.6-0.7-0.9-1.1
		c-0.2,0.5-0.5,0.9-0.6,1.4c-0.2,0.6-0.3,1.2-0.5,1.8c-1.4,4.1-6.8,6.5-10.7,4.8c-0.5-0.2-1-0.8-1.3-1.3c-1.7-2.4-4.2-2.9-6.9-1.6
		c-4.2,2.2-8.7,3.4-13.5,3.4c-3.4,0-5-2.2-3.9-5.5c0.8-2.2,0.8-2.2-1.2-2.4c-3.6-0.4-4.9-1.6-5.1-5.3c-0.2-3,0.4-5.7,2.4-8.1
		C133.2,44.6,135.3,43.3,137.5,43.9z"/>
	<path class="white" fill="#FFFFFF" d="M157,67.3c-0.2,1-2.6,1.8-3.4,1.1c-0.1-0.1-0.3-0.5-0.2-0.5c0.6-0.5,1.2-1.2,1.9-1.5c0.5-0.2,1.1,0.1,1.7,0.3
		C157,66.8,157,67.1,157,67.3z"/>
	<path class="white" fill="#FFFFFF" d="M168.2,79.8c-0.9,0.3-1.8,0.8-2.8,0.9c-1.2,0.2-1.8-0.7-1.8-1.7c0-1.1,0.7-1.6,1.7-1.3c1,0.3,2,0.9,3,1.3
		C168.2,79.2,168.2,79.5,168.2,79.8z"/>
	<path class="heart" fill="#AD0000" d="M152.9,43.6c2.9,0.4,5.2,1.4,7.1,0.9c1.8-0.4,3-2.5,4.7-3.6c1.3-0.8,2.9-1.3,4.4-1.7c3.4-0.9,7.5,3,5.8,6.7
		c-1.8,4-4.7,6.8-7.5,9.8c-1.2,1.3-2.4,2.7-3.4,4.1c-0.8,1.2-1.4,1.1-2.3,0.3c-3.2-2.9-7-4.4-11.1-5.3c-2.2-0.5-4.2-1.5-5-4.1
		c-0.7-2.3-0.3-3.7,1.8-4.9C149.3,44.8,151.5,44.1,152.9,43.6z"/>
	<path class="black" fill="#000000" d="M164.7,105.8c-0.1,1.5-1.3,2.8-2.3,2.4c-0.5-0.2-1.1-1-1.1-1.5c0-1.4,1.2-1.6,2.2-1.7
		C163.9,105.1,164.4,105.6,164.7,105.8z"/>
	<path class="black" fill="#000000" d="M151,106.3c0,0,0.9,0.5,1,1.1c0.2,1.2-1.2,2.6-2.4,2.2c-0.7-0.2-1.4-1.3-1.5-2C148,106.4,149,105.8,151,106.3z
		"/>
</g>
<g>
	<path class="black" fill="#000000" d="M202.2,111.2c0.6-2.6,1.2-6,3.8-8.5c0.9-0.8,1-1.4,0.6-2.5c-0.5-1.2-1.4-1.2-2.4-1.1c-1.8,0.3-3.6,0.7-5.4,1
		c-0.6,0.1-1.3,0.3-1.9,0.3c-1.7-0.1-2.6-1.4-1.8-2.9c2-3.6,5.2-5.9,9.2-7c1.4-0.4,2.6,0.3,3.1,1.6c0.6,1.8,1,3.7,1.5,5.5
		c0.2,0.7,0.5,1.8,0.8,1.8c1.1,0.1,2.3-0.2,3.4-0.5c0.2,0,0.2-0.9,0.1-1.4c-0.1-1.6-0.5-3.2-0.5-4.8c0.1-3.7,2.1-5.9,5.8-6.5
		c2-0.3,3.4-1.2,4.7-2.9c2.3-3,5.5-5,9.2-6.2c2.3-0.7,4.6-0.9,6.6,1c1.2,1.2,2.6,0.7,3.9,0.1c4.7-2.3,9.5-2.1,14.4-0.7
		c2.9,0.8,5.1,2.5,5.9,5.3c0.8,2.5,2.3,4.8,1.8,7.7c-0.1,0.6,0.6,1.3,0.9,1.9c0.7,1.2,1.3,2.4,2.1,3.6c2,3,0.7,6,0,9
		c-0.2,0.9-1.3,1.8-2.2,2.2c-1.7,0.7-1.8,1.6-1.4,3.2c0.3,1.7,0.3,3.7,0,5.4c-0.5,2.7-1.5,5.2-4.1,6.6c-1.4,0.8-2,2-2,3.4
		c0,1.8,0.2,3.6,0.6,5.3c0.4,1.4-0.1,2.1-1.2,2.6c-1.2,0.5-1.7-0.2-2-1.3c-0.5-1.5-1.3-2.9-2-4.4c-0.4-0.9-1.1-1.3-2-0.7
		c-2.8,1.9-5.8,3.1-9.1,3.9c-1.9,0.5-2.5,2-2.9,3.9c-0.3,1.6-0.6,3.2-1.3,4.5c-0.8,1.5-1.7,1.5-2.5-0.1c-0.9-1.9-1.6-4-2.4-5.9
		c-0.1-0.4-0.1-0.9-0.3-1.2c-0.6-1.1-1.1-2.8-2-3.1c-1.5-0.4-3.4-0.2-5,0.3c-0.6,0.2-1.1,1.5-1.3,2.3c-0.3,1.2-0.3,2.5-0.6,3.8
		c-0.2,0.7-0.4,1.4-0.9,2c-0.9,1.1-1.9,0.9-2.3-0.5c-0.5-1.5-0.8-3.1-1.5-4.6c-0.8-1.8-1.8-3.4-2.7-5.1c-1-2-2.2-3.9-3-5.9
		c-0.4-1.1-0.9-1.3-2-1.5c-2.1-0.3-4.2-0.7-6.2-1.5C203.1,117.6,202.2,115.6,202.2,111.2z"/>
	<path class="black" fill="#000000" d="M229.3,73.2c-0.4,0-0.9,0-1.3-0.1c-2.4-0.5-4.1-0.3-5.4,2.4c-1.3,2.7-5.8,3.7-8.5,2.4
		c-0.8-0.4-1.8-1.5-1.9-2.3c-0.2-2-1.4-2.2-2.9-2.1c-2.5,0-4.6-0.8-6.4-2.5c-2.5-2.3-3-4.4-0.9-7c1.1-1.5,0.7-2.1-0.4-3.1
		c-3.2-2.8-3.5-6.7-3.9-10.5c-0.2-1.8,1.2-3.3,2.8-4c1.8-0.7,1.8-1.9,1.4-3.3c-0.1-0.3-0.2-0.6-0.3-0.9c-1.2-4.1,0.3-7.7,4.3-9.4
		c2.1-0.9,4.6-1.5,6.8-1.4c4.6,0.3,8.7-0.7,12.8-2.6c5.8-2.6,13.3-0.4,16.6,4.6c0.2,0.3,0.5,0.5,0.5,0.8c0.5,3.4,3.1,4.5,5.7,5.8
		c4.9,2.3,5.7,6.2,2.6,10.7c-1.3,1.9-2.1,4-1.6,6.5c1.4,6.5-2.4,12-8.9,12.9c-2.1,0.3-3.9,0.9-5.7,1.9c-1.6,0.9-3.6,1.1-5.4,1.7
		C229.4,73.5,229.4,73.4,229.3,73.2z"/>
	<path class="black" fill="#000000" d="M250.8,139.6c1.1-0.1,2.4-0.7,2.4,1.1c0,1.2-1.5,3.2-2.1,2.7c-1.1-0.8-2-1.8-2.7-2.9
		C248.1,140.1,249,139.6,250.8,139.6z"/>
	<path class="black" fill="#000000" d="M206.2,146.9c-0.2-0.3-0.9-0.7-1-1.3c-0.2-0.9,2.3-2.5,3.7-2.3c0.5,0.1,1.2,0.7,1.2,1.1
		C210.3,145.5,208.3,146.9,206.2,146.9z"/>
	<path class="black" fill="#000000" d="M221.1,149.5c0.2,0.2,1.1,0.7,1.1,1.3c0.1,0.9-1.6,2.1-2.8,2c-1-0.1-1.6-0.5-1.5-1.6
		C218.1,149.5,219.4,149.6,221.1,149.5z"/>
	<path class="black" fill="#000000" d="M255.9,148.9c0.2,0.4,0.9,0.9,1,1.6c0.1,1-1.9,2.1-3.3,1.8c-0.3-0.1-0.7-0.7-0.7-1.1
		C253,149.7,254,148.8,255.9,148.9z"/>
	<path class="black" fill="#000000" d="M262.4,140.9c1,1.1,1.8,1.6,2.2,2.3c0.4,0.8-1,2-2,1.9c-1.1-0.1-1.5-0.8-1.4-1.7
		C261.3,142.7,261.8,142,262.4,140.9z"/>
	<path class="black" fill="#000000" d="M244.7,146.5c-0.1,1.5-1.3,2.8-2.3,2.4c-0.5-0.2-1.1-1-1.1-1.5c0-1.4,1.2-1.6,2.2-1.6
		C244,145.7,244.4,146.3,244.7,146.5z"/>
	<path class="black" fill="#000000" d="M232,143.9c-1.2,0.8-1.7,1.4-2.4,1.6c-1.1,0.2-1.9-0.6-1.9-1.6c0-0.5,1.1-1.2,1.8-1.3
		C230.1,142.5,230.7,143.2,232,143.9z"/>
	<path class="black" fill="#000000" d="M233.4,155.8c-0.6-1.2-1.1-1.8-1.1-2.3c0.1-1.2,1-2,2.2-1.8c0.4,0,1,1,0.9,1.3
		C235,153.8,234.3,154.5,233.4,155.8z"/>
	<path class="black" fill="#000000" d="M268.5,137.9c-0.7-0.9-1.2-1.5-1.7-2c0.5-0.4,1-1,1.6-1.1c0.8-0.1,1.9,0.2,1.7,1.3
		C270,136.7,269.3,137.1,268.5,137.9z"/>
	<path class="white" fill="#FFFFFF" d="M234,98.1c0,0.1,0,0.8-0.2,1.5c-0.5,2.1-0.8,2.1-3.1,2c-2.8-0.2-5.5-0.2-8.3-0.2c-5.2-0.1-7.1-2.2-7.6-7.9
		c-0.2-2.7,2-4.9,4.5-4.8c1.4,0.1,2.8,0.3,3,2.2c0,0.4,0.3,0.7,0.5,1.1c0.4-0.3,0.9-0.6,1.1-1c0.6-1.6,1.1-3.2,1.5-4.8
		c0.5-2,1.9-3,3.4-4c1.2-0.8,2.4-1.4,3.7-2c1.5-0.7,3.1-0.9,4.5,0.2c1.1,0.8,1.9,1.7,1.2,3.2c-0.2,0.4,0.2,1.2,0.3,1.8
		c0.5-0.2,1.2-0.3,1.5-0.7c4.4-5.7,11.2-6,16.8-4.1c2.1,0.7,3.6,2.3,4.3,4.5c0.5,1.6,0,3-1.1,4.1c-1,1.1-0.8,1.9,0.5,2.5
		c2.5,1.2,3.7,3.4,4.9,5.7c0.9,1.8,0.9,3.5,0.6,5.3c-0.3,1.9-1.1,3.4-3.1,4c-0.8,0.2-1.6,0.7-2.3,1.1c-1.8,1.1-1.8,1.2,0.1,2.7
		c0.3,0.2,0.6,0.6,0.8,1c2.2,4-1.1,9.7-5.7,10c-2,0.1-3.9,0.6-5.9,1.2c-0.9,0.2-0.9,1,0,1.2c1.2,0.3,1.2,0.9,0.3,1.5
		c-2.8,1.8-5.5,3.7-9.1,3.3c-1.4-0.2-2.9,0.3-4.4,0c-1.6-0.2-3-1.1-3.9-2.6c-0.2-0.3-1.4-0.2-1.4-0.1c-0.4,1.6-1.7,1-2.7,1
		c-2.1,0-4.2-0.2-6.4-0.3c-1.8-0.1-3.5-0.7-4.3-2.3c-0.6-1.2-0.7-2.6-1-3.9c1.2-0.1,2.5-0.4,3.7-0.3c2.3,0.3,4.6,1,6.9,1.2
		c5.7,0.5,12.1-5.9,11.7-11.6c-0.2-2-1.4-3.5-2.7-5c-1.6-1.7-1.5-2.3,0.7-3.1c1.8-0.6,3.7-1,5.6-1.5c1.7-0.5,3.5-1,5.2-1.7
		c0.5-0.2,1-1.2,1-1.8c-0.1-0.5-0.8-1.3-1.4-1.4c-3.4-0.6-6.7-1.2-10.1-1.6C234.5,93.5,234,94.1,234,98.1z"/>
	<path class="white" fill="#FFFFFF" d="M236.2,110.9c-0.1,3.5-2,5.7-6.2,7.2c-2.4,0.9-6.5-0.2-8.2-2.2c-2.2-2.5-2.5-7.1-0.4-9.5
		c0.9-0.9,2.2-1.6,3.5-2c1.4-0.4,2.9-0.4,4.4-0.5C231.9,103.8,236.3,108.1,236.2,110.9z"/>
	<path class="white" fill="#FFFFFF" d="M212.5,117.5c-0.8-0.1-1.5-0.2-2.2-0.3c-4.5-0.8-5.6-2.7-4.9-7.2c0.5-3.4,1.8-6.1,4.9-7.7c1.9-1,6.9,0,8.3,1.7
		c0.5,0.6,0.7,1.2,0.1,2c-1.8,2.5-1.9,5.4-1.1,8.3c0.5,1.7-0.1,2.4-1.6,2.7C214.9,117.1,213.7,117.3,212.5,117.5z"/>
	<path class="white" fill="#FFFFFF" d="M204.4,48c1.9,0,2.2-0.4,1.6-2.2c-0.4-1-0.9-1.9-1.4-2.9c-1.5-3.2-1-5.4,2-7.4c2.8-1.9,5.9-2.5,9.2-1.5
		c0.7,0.2,1.6,0.9,1.8,1.5c0.6,2,1.4,1.1,2.2,0.3c2.8-2.8,6.1-4.6,10.1-5.1c3.4-0.4,6.3,1.1,8.8,3.1c0.8,0.6,1.1,2,1.6,3
		c0.6,1.4-0.4,2.2-1.2,3c-0.3,0.3-0.3,0.7-0.4,1.1c0.5,0,1,0.2,1.4,0.1c3.2-1.1,8.8,1.2,10,4.2c0.7,1.7,0.5,3.5-0.9,4.7
		c-1.5,1.3-3.3,2.2-5,3.3c-0.5,0.3-1.2,0.5-1.7,0.8c-0.2,0.1-0.4,0.5-0.3,0.8c0,0.2,0.5,0.4,0.7,0.4c2.6-0.5,3.3,1.7,4.2,3.2
		c1,1.8,0.8,3.7-0.3,5.5c-2.2,3.3-5.3,4.9-9.3,4.3c-1.1-0.2-1.8-0.1-2.6,0.5c-3.8,3.2-8.1,2.6-12,0.6c-2.9-1.5-5.1-1.4-7.7,0.4
		c-2.2,1.5-7.7,1.6-9.4,0.2c-2.7-2.1-2.5-4.7,0.6-6.3c1.9-1,1.9-1.4,0.2-2.7c-1-0.8-2.1-1.5-3.1-2.3c-2.3-1.8-2.9-4.5-2.9-7.2
		C200.2,49,201.6,47.9,204.4,48z"/>
	<path class="white" fill="#FFFFFF" d="M221.4,73.1c-0.5,0.6-1.1,1.4-1.9,1.8c-0.9,0.4-2,0.4-3,0.6c-0.1,0-0.3-0.1-0.2-0.2c0.5-1.4,0.9-3,1.7-4.2
		c0.7-0.9,2.3-0.4,2.9,0.7C221.1,72.2,221.2,72.5,221.4,73.1z"/>
	<path class="heart" fill="#AD0000" d="M218.2,45.3c1.5,0.6,3.5,1.3,5.4,2.3c0.9,0.5,1.3,0.5,2.2,0c2-1,4-1.9,6.2-2.4c2.2-0.5,3.3,1,2.3,3.1
		c-0.8,1.7-2,3.3-3.2,4.7c-1.6,1.9-3,3.8-3.5,6.3c-0.5,2.2-1.9,2.5-3.7,1.3c-1.9-1.3-4-2.4-5.9-3.7c-1.8-1.3-3.8-2.5-5.2-4.1
		c-2.5-2.9-1.5-5.6,2.2-6.7C215.7,45.8,216.7,45.6,218.2,45.3z"/>
	<path class="black" fill="#000000" d="M211.6,109.8c-0.1,1.5-1.3,2.8-2.3,2.4c-0.5-0.2-1.1-1-1.1-1.5c0-1.4,1.2-1.6,2.2-1.7
		C210.9,109.1,211.3,109.6,211.6,109.8z"/>
	<path class="black" fill="#000000" d="M226.5,110.3c0,0,0.9,0.5,1,1.1c0.2,1.2-1.2,2.6-2.4,2.2c-0.7-0.2-1.4-1.3-1.5-2
		C223.5,110.4,224.5,109.8,226.5,110.3z"/>
</g>
</svg>
