<svg xmlns="http://www.w3.org/2000/svg"
     width="1000" height="120"
     viewBox="0 0 1000 120">
<path class="slope"
fill="white"
d="M0,120v-9.873c4.8-4.587,8.2-10.471,10.1-16.454c0.8-2.691,1.9-4.287,4.9-4.686c4.9-0.698,8.7-3.092,10.7-7.978
c1.1-2.594,2.6-5.086,3.8-7.679c0.9-2.095,2.2-3.49,4.7-3.391c2.9,0,5.3-0.897,6.8-3.689c0.9-1.596,2.4-1.895,4.4-1.695
c4.9,0.599,9.5-0.3,13-4.488c2.2-2.592,4.5-4.985,6.7-7.479c1.2-1.296,2.6-1.695,4.2-1.396c3.8,0.599,6.2-1.097,7.1-4.487
c1.5-6.582,6.1-10.47,10.8-14.459c3.4-2.792,7-5.385,10.5-8.078c1.6-1.296,3.1-1.296,5.1-0.897c2.4,0.499,4.9,0.698,7.3,0.399
c3.7-0.499,6.8-2.293,9.1-5.385c2.1-2.892,3.9-3.091,7.1-1.496c0.8,0.399,1.6,0.897,2.3,1.496c3.6,2.792,7.1,5.684,10.8,8.376
c1.7,1.296,3.8,2.194,5.8,2.892c1.6,0.599,2.2,1.596,2.5,3.091c0.7,3.391,1.3,6.881,2.2,10.271c0.3,1.296,1.2,2.493,2.1,3.589
c1.1,1.396,2.5,2.693,3.8,3.89c0.7,0.698,1.6,1.396,2.5,1.695c5.2,1.596,9.2,4.687,12.2,9.174c3.6,5.286,7.3,10.471,11.3,15.357
c2.1,2.592,4.8,4.687,7.5,6.78c3.6,2.692,7.8,1.496,11.7,0.798c3.6-0.599,6.7-2.193,8.2-5.784c0.4-0.896,1.1-1.794,1.6-2.692
c0.7-1.496,1.8-2.393,3.6-2.691c1.5-0.199,3.1-0.799,4.6-0.897c2.7-0.1,4.6-1.596,6.4-3.392c3.4-3.39,6.8-6.78,10.2-10.171
c4.5-4.288,11.3-4.986,16.4-1.695c0.8,0.499,1.6,1.196,2.4,1.296c5,0.598,9,2.991,13,5.783c3.7,2.493,7.8,4.487,11.9,6.481
c3.8,1.795,7,4.487,9.9,7.479c0.4,0.399,0.7,0.798,1.1,1.098c3.2,2.691,6.4,1.794,7.9-2.095c0.4-1.097,0.7-2.194,1-3.391
c0.6-3.19,2.6-4.687,5.7-4.886c0.5,0,1-0.2,1.6-0.1c5.1,0.598,8-2.692,10.3-6.383c2-3.29,3.7-6.88,5.2-10.47
c1.3-2.892,3.2-4.886,6.1-6.183c1.601-0.698,3.101-1.695,4.5-2.792c2-1.496,3.801-3.291,6.5-3.091c5.301,0.299,9.5-2.293,13.5-5.185
c0.601-0.499,1.2-0.997,1.801-1.496c3.5-2.693,6.199-1.995,8.1,1.994c0.1,0.099,0.2,0.199,0.2,0.399
c0.6,7.978,7.2,10.669,12.5,14.559c0.2,0.199,0.5,0.299,0.6,0.398c3.601,3.789,8.101,3.49,12.601,2.692
c3.199-0.598,6.3-1.396,9.5-1.995c2.5-0.499,4.1-2.094,5.3-4.188c0.899-1.595,1.8-3.191,3.1-4.387c1.7-1.596,2.9-3.291,3.601-5.385
c0.6-1.795,1.699-3.191,3.8-3.589c1.7-0.3,3.1,0,4.3,1.296c0.3,0.299,0.6,0.599,0.8,0.897c4.5,8.476,13.2,11.866,20.7,16.653
c0.6,0.398,1.5,0.698,2.2,0.698c2.1,0.1,3.899,0.698,5.8,1.895c2.3,1.396,4.9,1.595,7.3-0.399c1-0.797,2-1.695,3.101-2.293
c3.6-2.194,6.899-5.085,11.399-5.783c1.8-0.3,3.5-1.596,5.101-2.693c3.5-2.194,7.199-3.49,11.399-3.291c1.601,0,3.4-0.499,4.8-1.296
c4.5-2.593,8.7-5.584,13.2-8.276c2.4-1.496,5-2.892,7.601-3.989c4.5-1.895,8-4.587,9.699-9.474c1.601-4.487,4.601-7.479,9.9-7.279
c1.6,0,3.1,0,4.7-0.1c2-0.1,3.5,0.499,4.8,1.995c1.7,1.994,3.8,3.689,6.6,3.589c1.101,0,2.5,0,3.4-0.499
c2.6-1.595,4.8-0.897,6.8,0.898c1.5,1.396,3,2.991,3.9,4.786c1.5,2.792,3.399,5.186,5.899,7.18c2.4,1.995,4.4,4.487,7,6.183
c5,3.191,10.2,6.183,15.601,8.676c4.7,2.193,9.8,3.59,14.7,5.285c1.5,0.499,3.1,0.599,4.5,1.097c2.199,0.698,4.5,1.396,6.399,2.593
c5.7,3.49,12.3,2.991,17.101-1.596c2.1-2.094,4.199-4.288,6.3-6.382c1.5-1.396,3.1-2.792,4.8-3.989c2.9-1.995,4.6-1.695,7.1,0.897
c0.4,0.499,0.801,0.997,1.2,1.595c2.9,3.689,6.2,6.282,11.3,6.781c2.9,0.2,5.801,1.596,8.4,2.992c6.5,3.39,13.1,3.69,20.1,2.194
c0.9-0.2,1.801-0.398,2.7-0.598c3.601-0.897,7-1.696,9.3-5.485c1.7-2.692,5-4.487,7.5-6.681c2.301-2.094,4.7-4.188,6.9-6.282
c2.2-1.994,4.2-4.188,7.2-5.285c1.1-0.399,1.899-1.695,2.7-2.593c1.399-1.795,2.899-2.593,5.399-1.895
c3.5,0.897,6.7,2.094,8.7,5.385c1.6,2.692,4,3.989,7.2,3.19c4.1-0.997,7.6,0.399,10.899,2.693c3.301,2.293,7,4.088,10.301,6.382
c2.1,1.496,4.199,3.191,5.6,5.186c3.7,5.285,8,9.473,14.1,11.866c2,0.798,4,2.094,5.4,3.789c3.3,3.989,8.1,4.887,12.6,7.081
c1-1.597,1.9-2.793,2.601-4.089c1-1.995,2.399-2.693,4.399-1.995c2.7,0.997,4.4,0.399,5.5-2.393c0.7-1.695,2.301-2.194,4.2-2.194
c3.4,0.099,6.8-0.1,10.101-0.2c2.899-0.1,5.3-1.097,7.699-3.091c3.5-2.792,7.601-4.886,11.601-6.98c2.6-1.396,5.5-2.293,8.1-3.689
c1.5-0.898,3-2.194,3.7-3.69c0.7-1.695,1.5-2.892,2.9-3.989C873.8,34.939,879,31.35,883.6,27.161c3.2-2.892,5.9-6.582,8.4-10.072
c2.1-2.991,2.2-3.39,5.5-1.695c2.9,1.496,5.7,3.091,8.2,5.086c2,1.595,4.1,2.393,6.5,2.193c3.3-0.199,4.899,1.994,6.399,4.288
c1,1.595,2,3.291,2.801,4.986c0.6,1.296,1.3,2.592,1.6,3.989c2,10.969,8.6,18.348,18.6,22.835c1.5,0.698,3,1.496,4.601,2.194
c2.399,1.196,4.7,2.193,7.5,1.695c2.3-0.299,3.8,0.798,5.2,2.692c3.1,4.387,6.1,9.273,11.3,11.567c4.2,1.795,7.399,4.587,10.5,7.679
c1.2,1.196,2.7,2.093,4.1,2.991c3.8,2.394,11.4,6.671,15.2,9.163V120H0z"
/>
<path class="range"
fill="hsl(212,  4%, 20%)"
d="M1000,101.042c-4.5-5.285-12.2-9.373-18.5-12.465c-1.7-0.798-3.1-2.293-4.5-3.689c-2.1-2.094-4.4-3.789-7.2-5.185
c-4.7-2.394-9.1-5.484-12-10.272c-1.8-2.991-4.8-3.988-8-5.085c-6.6-2.394-13.3-4.288-19.2-8.376
c-3.199-2.293-5.199-5.384-6.899-8.775c-1-2.094-2.101-4.188-3.4-6.083c-1.899-2.792-2.899-5.784-3.399-9.074
c-0.7-4.487-1.4-5.086-5.801-4.587c-2.3,0.2-3.899-0.2-5.199-2.393c-1-1.795-2.601-3.191-4-4.787c-3.2-3.391-7.7-3.49-10.301,0.399
c-3.699,5.484-9,8.775-14.1,12.564c-2.1,1.496-3.9,3.391-5.9,5.086c-1.8,1.496-2.8,3.39-2.6,5.784c0.2,1.995-0.9,3.39-2.8,3.589
c-5.2,0.499-9.3,3.291-13.3,6.083c-0.601,0.399-1.4,0.798-1.801,1.396c-2,2.892-4.899,4.587-7.899,6.183
c-1,0.498-1.8,1.296-3.101,2.293c4.801,2.792,9.5,3.789,14.101,5.484c-2.3,0.898-4.601,0.798-6.8,0.2
c-6.2-1.896-12.301-4.089-18.5-6.083c-0.2-0.101-0.5-0.199-0.7-0.3c-4-1.595-4.601-1.195-4.8,3.292c0,0.498-0.2,0.997-0.4,1.994
c-1.6-0.399-3-0.698-4.5-0.997c-4.2-0.997-4.8-0.6-7.5,2.792c-2.5,2.991-5.4,5.583-8.2,8.276c-0.5,0.498-1.399,0.498-2.5,0.797
c0.101-1.196,0.101-2.094,0.101-2.891c0.199-1.695,0.6-3.391,0.399-4.986c-0.1-0.997-0.8-2.194-1.6-2.793
c-1.8-1.396-3.8-2.592-5.8-3.889c-2.301-1.495-4.801-2.394-7.301-3.489c-6.199-2.493-11.8-6.083-14.899-12.465
c-1.4-2.792-3.2-4.887-6.101-6.183c-2-0.897-3.699-2.393-5.399-3.789c-4.5-3.69-6.7-3.89-11.5-0.698
c-1.7,1.097-3.101,1.197-4.5-0.299c-1.3-1.396-3-2.792-3.601-4.488c-1.5-4.188-4.5-5.784-9-6.183
c-1.399,3.191-4.199,4.587-7.6,5.784c-2,0.698-3.5,2.593-5.2,4.088c-2.399,2.094-4.8,4.288-7.2,6.482c-2,1.795-3.8,3.49-2.3,6.681
c0.7,1.596-0.3,2.892-2.2,2.593c-4.3-0.598-7.8,1.695-11.699,2.592c-2.7,0.698-3.801,2.992-4.7,5.285
c-2.8,7.28-9.2,9.971-15.5,12.864c-0.2-0.199-0.5-0.498-0.7-0.698c0.7-0.598,1.2-1.496,2-1.795c4.2-1.595,6.1-5.085,8-8.676
c1.1-2.193,0.3-3.689-1.9-4.686c-0.5-0.2-1-0.299-1.5-0.399c-7.699-2.394-15.399-4.687-23-7.379
c-2.699-0.997-4.899-3.291-7.199-5.085c-0.7-0.499-1.101-1.396-1.801-1.994c-2-1.695-3.199-1.695-5.1,0c-3.7,3.39-7.4,6.88-11,10.47
c-3.1,3.091-2.5,7.08,1.4,9.473c1.8,1.097,3.699,1.994,5.399,3.091c1.101,0.698,2,1.795,3.4,3.092c-1.101,0.199-1.5,0.499-1.7,0.299
c-4-2.193-7.9-4.388-11.9-6.681c-2-1.197-3.899-2.593-6-3.59c-5.899-2.792-11.699-5.584-17.699-8.077
c-2.601-1.097-5.4-1.795-8.2-2.393c-4.8-0.997-9-3.291-13.2-5.584c-4.1-2.193-7.9-4.986-12.8-5.385c-0.9-0.1-2-1.196-2.4-2.193
c-0.899-2.294-2.399-3.989-4.6-5.086c-2.4-1.296-3.7-3.39-4.601-5.983c-0.699-2.194-1.899-4.288-3.3-6.083
c-1.399-1.895-2.399-1.795-4.2-0.2c-0.399,0.3-0.699,0.698-1.1,1.097c-2.9,3.091-4.7,2.892-7.4-0.499
c-1.5-1.795-3.1-3.391-4.6-5.185c-1.4-1.496-3-1.895-5-1.596c-0.5,0.1-1,0.199-1.6,0.199c-6.301,0.499-7.801,1.795-9,7.978
c-0.4,1.994-1.301,3.091-2.9,4.288c-4.6,3.19-9.7,5.484-14.6,8.077c-3.9,2.094-8,4.986-8.9,10.171c-0.1,0.599-0.5,1.097-0.9,1.895
c-2.8-0.598-5.399-1.097-8.1-1.695c-5.1-1.097-9.8-0.2-14,3.091c-0.7,0.598-1.5,1.296-2.3,1.496c-6.5,1.296-10.601,6.382-15.7,9.672
c-3.6,2.294-5.7,5.286-6.3,9.672c-0.5,3.988-2.7,7.479-4.7,10.87c-2-0.2-2.2-1.496-1.4-2.395c3.301-3.29,1.9-6.58,0.801-10.271
c-1.5-5.285-4.2-9.473-8.601-12.564c-3.1-2.094-6.6-3.69-9.899-5.285c-2.7-1.296-4.7-2.992-6-5.784
c-0.801-1.695-2.2-3.191-3.601-4.487c-1.2-1.097-2.5-0.997-3.6,0.598c-2.8,4.088-5.8,7.978-8.5,12.066
c-2,2.991-5.3,3.689-8.101,5.186c-0.399,0.2-1,0.2-1.5,0.398c-3.699,1.297-4.1,3.092-1,5.684c1.4,1.197,2.9,2.094,4.4,3.191
c0.7,0.599,1.3,1.396,2.6,2.594c-1.399,0.099-2.1,0.299-2.5,0.099c-3-1.595-5.899-3.191-8.899-4.887c-1.2-0.697-2.4-1.495-3.7-2.193
c-1.7-0.997-3.4-1.895-5-2.991c-3.6-2.493-7.2-5.086-10.7-7.678c-2.7-1.994-5.5-3.989-7.899-6.283c-1-0.997-1.4-2.692-1.9-4.088
c-0.5-1.396-0.7-2.892-1.2-4.786c-3.6,2.094-6.399,3.989-7.3,7.978c-1.2-0.1-2.3-0.1-3.5-0.2s-2.3-0.499-3.5-0.499
c-3.4-0.199-6.7-0.1-7.4,4.388c-0.8,0.199-1.399,0.499-2,0.399c-4.1-0.299-6.6,1.795-8.399,5.086c-1.4,2.493-3.4,4.687-4.5,7.279
c-1.4,3.49-2.2,7.279-3.4,11.468c-0.399,0-1.399,0.199-2.399,0.199c-3.101,0.199-6.2,0.499-9.301,0.598
c-2.1,0.101-3.2,1.297-4,3.191c-1.1,2.493-2.3,4.986-3.9,7.18c-1.9,2.693-4.6,4.587-8,4.787c-2.8-6.383-7.8-10.57-13.6-13.762
c-5-2.792-10.2-5.086-15.5-7.777c-0.8,0.498-1.8,0.997-2.9,1.694c-2.2-1.994-4.2-3.989-6.3-5.883c-4.2-3.69-11.1-3.59-15.3,0.199
c-1.3,1.196-2.6,2.493-3.8,3.889c-2.5,2.893-2.5,2.991-0.5,6.682c-0.9,0.199-1.7,0.498-2.5,0.698c-5,1.196-10.3,1.894-14.8,4.687
c-1.9,1.196-3.5,2.992-5,4.687c-1.1,1.196-2,2.692-2.8,4.188c-2.5,4.587-6.5,6.78-12.2,7.18c0.7-0.798,1.2-1.197,1.6-1.795
c0.4-0.599,1.2-1.496,1.1-1.795c-0.4-0.698-1.3-1.396-2-1.396c-8.9-0.897-14.7-6.481-20-12.864c-4.3-5.185-8.3-10.669-12.6-15.854
c-2.3-2.692-5.2-4.587-8.6-5.884c-2.6-0.997-5-2.692-7.3-4.387c-0.8-0.599-1.3-1.895-1.5-2.992c-0.3-1.097-0.2-2.293-0.2-3.49
c0-5.484-2.9-9.374-7.3-12.165c-3.4-2.194-6.7-4.488-9.3-7.579c-0.8-0.997-1.9-1.795-3-2.493c-2.2-1.297-4.3-0.997-6,0.897
c-3.5,4.288-8,5.883-13.4,5.384c-1.4-0.1-2.9,0-4.3-0.1c-1.4-0.099-2.4,0.299-3.4,1.396c-1,1.097-2.2,2.393-3.6,2.792
c-5.5,1.895-8.7,6.382-12.3,10.47c-1.3,1.496-2.5,2.992-3.5,4.687c-0.8,1.396-1.7,3.091-1.8,4.587c-0.1,2.593-1.4,3.889-3.7,4.188
c-4.3,0.499-7.4,3.59-11.1,5.385c-1.2,0.599-2.1,1.895-2.9,3.091c-1,1.496-2.2,2.294-4,2.692c-7.5,1.396-14.4,4.089-20.7,8.477
c-3.9,2.692-6.4,6.382-8,10.77c-1,2.692-2.6,4.287-5.3,5.186c-2.5,0.896-5.1,2.094-7.2,3.789c-2,1.595-3.6,3.789-4.9,5.884
C9.2,101.241,1.5,108.82,0,111.513v-2.393c4.8-4.588,8.5-10.471,10.4-16.454c0.8-2.692,1.9-4.288,4.9-4.687
c4.9-0.698,8.7-3.092,10.7-7.978c1.1-2.594,2.6-5.087,3.8-7.679c0.9-2.094,2.2-3.49,4.7-3.391c2.9,0,5.3-0.897,6.8-3.689
c0.9-1.596,2.4-1.895,4.4-1.695c4.9,0.599,9.5-0.299,13-4.487c2.2-2.593,4.5-4.986,6.7-7.479c1.2-1.297,2.6-1.695,4.2-1.396
c3.8,0.598,6.2-1.097,7.1-4.487c1.2-5.883,5.8-9.772,10.5-13.761c3.4-2.792,7-5.384,10.5-8.077c1.6-1.296,3.1-1.296,5.1-0.897
c2.4,0.499,4.9,0.698,7.3,0.399c3.7-0.499,6.8-2.293,9.1-5.385c2.1-2.892,3.9-3.091,7.1-1.496c0.8,0.398,1.6,0.897,2.3,1.496
c3.6,2.792,7.1,5.684,10.8,8.376c1.7,1.296,3.8,2.194,5.8,2.892c1.6,0.599,2.2,1.596,2.5,3.091c0.7,3.391,1.3,6.88,2.2,10.271
c0.3,1.296,1.2,2.493,2.1,3.589c1.1,1.396,2.5,2.692,3.8,3.889c0.7,0.698,1.6,1.396,2.5,1.695c5.2,1.595,9.2,4.687,12.2,9.174
c3.6,5.286,7.3,10.471,11.3,15.356c2.1,2.593,4.8,4.688,7.5,6.781c3.6,2.692,7.8,1.496,11.7,0.798c3.6-0.599,6.7-2.193,8.2-5.784
c0.4-0.896,1.1-1.795,1.6-2.692c0.7-1.496,1.8-2.393,3.6-2.691c1.5-0.2,3.1-0.799,4.6-0.898c2.7-0.099,4.6-1.595,6.4-3.391
c3.4-3.39,6.8-6.78,10.2-10.171c4.5-4.288,11.3-4.986,16.4-1.695c0.8,0.499,1.6,1.196,2.4,1.296c5,0.598,9,2.991,13,5.783
c3.7,2.493,7.8,4.487,11.9,6.481c3.8,1.795,7,4.487,9.9,7.479c0.4,0.399,0.7,0.797,1.1,1.098c3.2,2.691,6.4,1.794,7.9-2.095
c0.4-1.097,0.7-2.194,1-3.391c0.6-3.19,2.6-4.687,5.7-4.886c0.5,0,1-0.2,1.6-0.1c5.1,0.598,8-2.692,10.3-6.383
c2-3.29,3.7-6.88,5.2-10.47c1.3-2.892,3.2-4.886,6.1-6.183c1.601-0.698,3.101-1.695,4.5-2.792c2-1.496,3.801-3.291,6.5-3.091
c5.301,0.299,9.5-2.293,13.5-5.185c0.601-0.499,1.2-0.998,1.801-1.496c3.5-2.692,6.199-1.994,8.1,1.995
c0.1,0.099,0.2,0.199,0.2,0.399c0.6,7.977,7.2,10.669,12.5,14.559c0.2,0.199,0.5,0.299,0.6,0.399
c3.601,3.789,8.101,3.49,12.601,2.692c3.199-0.598,6.3-1.396,9.5-1.995c2.5-0.499,4.1-2.094,5.3-4.188
c0.899-1.596,1.8-3.191,3.1-4.387c1.7-1.596,2.9-3.291,3.601-5.385c0.6-1.795,1.699-3.191,3.8-3.59c1.7-0.299,3.1,0,4.3,1.296
c0.3,0.299,0.6,0.599,0.8,0.897c4.5,8.476,13.2,11.866,20.7,16.653c0.6,0.398,1.5,0.698,2.2,0.698c2.1,0.1,3.899,0.698,5.8,1.895
c2.3,1.396,4.9,1.595,7.3-0.399c1-0.798,2-1.695,3.101-2.293c3.6-2.194,6.899-5.085,11.399-5.783c1.8-0.3,3.5-1.596,5.101-2.693
c3.5-2.194,7.199-3.49,11.399-3.291c1.601,0,3.4-0.499,4.8-1.296c4.5-2.593,8.7-5.584,13.2-8.277c2.4-1.496,5-2.892,7.601-3.988
c4.5-1.895,8-4.587,9.699-9.474c1.601-4.487,4.601-7.479,9.9-7.28c1.6,0,3.1,0,4.7-0.099c2-0.1,3.5,0.499,4.8,1.994
c1.7,1.995,3.8,3.689,6.6,3.59c1.101,0,2.5,0,3.4-0.499c2.6-1.595,4.8-0.897,6.8,0.897c1.5,1.396,3,2.992,3.9,4.787
c1.5,2.792,3.399,5.186,5.899,7.18c2.4,1.995,4.4,4.487,7,6.182c5,3.191,10.2,6.183,15.601,8.676c4.7,2.194,9.8,3.59,14.7,5.285
c1.5,0.499,3.1,0.598,4.5,1.097c2.199,0.698,4.5,1.396,6.399,2.593c5.7,3.49,12.3,2.992,17.101-1.595
c2.1-2.094,4.199-4.288,6.3-6.382c1.5-1.396,3.1-2.792,4.8-3.989c2.9-1.995,4.6-1.696,7.1,0.897c0.4,0.499,0.801,0.998,1.2,1.596
c2.9,3.689,6.2,6.282,11.3,6.781c2.9,0.2,5.801,1.596,8.4,2.992c6.5,3.39,13.1,3.689,20.1,2.194c0.9-0.2,1.801-0.399,2.7-0.599
c3.601-0.897,7-1.695,9.3-5.484c1.7-2.692,5-4.487,7.5-6.681c2.301-2.094,4.7-4.188,6.9-6.282c2.2-1.994,4.2-4.188,7.2-5.285
c1.1-0.399,1.899-1.696,2.7-2.593c1.399-1.795,2.899-2.593,5.399-1.895c3.5,0.897,6.7,2.093,8.7,5.384c1.6,2.692,4,3.989,7.2,3.191
c4.1-0.997,7.6,0.399,10.899,2.692c3.301,2.293,7,4.089,10.301,6.382c2.1,1.496,4.199,3.191,5.6,5.186
c3.7,5.285,8,9.473,14.1,11.866c2,0.798,4,2.094,5.4,3.789c3.3,3.989,8.1,4.887,12.6,7.081c1-1.597,1.9-2.793,2.601-4.09
c1-1.994,2.399-2.692,4.399-1.994c2.7,0.997,4.4,0.399,5.5-2.393c0.7-1.695,2.301-2.194,4.2-2.194c3.4,0.099,6.8-0.1,10.101-0.2
c2.899-0.1,5.3-1.097,7.699-3.091c3.5-2.792,7.601-4.886,11.601-6.98c2.6-1.396,5.5-2.293,8.1-3.689c1.5-0.898,3-2.194,3.7-3.69
c0.7-1.695,1.5-2.892,2.9-3.989C873.8,34.63,879,31.04,883.6,26.852c3.2-2.892,5.9-6.582,8.4-10.072c2.1-2.992,2.2-3.39,5.5-1.695
c2.9,1.496,5.7,3.091,8.2,5.085c2,1.595,4.1,2.394,6.5,2.194c3.3-0.199,4.899,1.994,6.399,4.288c1,1.595,2,3.291,2.801,4.986
c0.6,1.296,1.3,2.592,1.6,3.989c2,10.969,8.6,18.348,18.6,22.835c1.5,0.698,3,1.496,4.601,2.194c2.399,1.196,4.7,2.193,7.5,1.695
c2.3-0.299,3.8,0.797,5.2,2.692c3.1,4.387,6.1,9.273,11.3,11.567c4.2,1.794,7.399,4.587,10.5,7.678c1.2,1.197,2.7,2.094,4.1,2.992
c3.8,2.394,11.4,6.78,15.2,9.273V101.042L1000,101.042z"/>
</svg>
