<?xml version="1.0"?>
<!-- 24.1.28  -->
<svg xmlns="http://www.w3.org/2000/svg"
     width="1000" height="180"
     viewBox="0 0 1000 180">
<g>
	<path class="black" fill="#000000" d="M251.2,91.3c-0.1-4.1,0.4-4.7,3.6-4.4c3.5,0.3,7,0.5,10.5,0.9c1,0.1,2.6-0.2,2.8,1.4c0.2,1.7-1.1,2.4-2.5,2.8
		c-3,0.8-6,1.7-8.9,2.6c-0.7,0.2-1.5,0.4-2.1,0.7c-2.4,1-2.6,2-0.8,3.9c3.1,3.3,4.1,7.2,2.9,11.5c-1.1,3.8-3.4,6.6-7.4,7.7
		c-2.2,0.6-2.4,1.3-2,3.5c0.7,4,0.6,7.7-3.4,10.1c-0.7,0.4-1.2,1.5-1.4,2.4c-0.8,3.2-1.3,6.5-2,9.7c-0.1,0.6-0.7,1.2-1.1,1.8
		c-0.6-0.4-1.6-0.7-1.9-1.3c-0.9-1.7-1.5-3.5-2.3-5.3c-1-2.4-1.7-2.6-4.2-1.7c-2,0.7-4.2,0.9-6.1,1.7c-1.4,0.5-3.1,1.2-4,2.3
		c-2.5,2.9-5,5.9-6.4,9.6c-0.3,0.7-0.7,1.4-1.2,1.8c-1.5,1.2-2.9,0.8-3.3-1.1c-0.5-2.1-0.8-4.2-1-6.3c-0.2-2.9-1.2-4.9-4.3-5.9
		c-4.6-1.5-7.5-5.1-9.2-9.6c-0.4-1.1-0.3-3-1.9-2.9c-0.7,0-1.5,1.6-2,2.6c-0.6,1.1-0.7,2.5-1.3,3.6c-0.3,0.6-1.2,1-1.8,1.5
		c-0.4-0.6-1.1-1.1-1.1-1.7c-0.3-2.7-0.6-5.3-0.7-8c-0.1-1.8-0.7-3.2-2.1-4.4c-5.8-5.1-6.9-11.1-3.2-17.8c2.1-3.7,2.4-7.7,1.5-11.6
		c-1.5-6,0.9-10.1,5.4-13.6c3.5-2.8,7.6-3.7,12-4c1.5-0.1,3-0.2,4.5-0.2c1.8-0.1,3.4-0.6,5.1-1.5c4.9-2.5,9.9-3.4,14.9-0.3
		c2.7,1.6,4.5,4.1,5.2,7c0.7,3.2,2.7,4.6,5.8,5.1c2.7,0.4,5.1,1.4,6.9,3.6c1.4,1.7,2.2,3.6,2,5.9c-0.2,2.1-0.1,2.2,2.2,2.2
		c0.4,0,0.9,0.1,1.3,0.1c2,0,2.7-0.5,3-2.4C251.2,92.4,251.2,91.5,251.2,91.3z"/>
	<path class="black" fill="#000000" d="M262.9,57.7c-1.8,0.3-4.3,0.1-6,2.7c-2.7,4-6.9,4.8-11.4,4.5c-1.7-0.1-3,0.2-4.5,1c-3.4,1.8-6.8,2.7-9.9-0.8
		c-0.6-0.6-1.7-0.8-2.6-1c-1.7-0.4-3.4-0.6-5-1.1c-2-0.7-3.5-1.8-4.2-4c-0.7-2.1-2.3-3.3-4.6-4c-3.3-1-6.4-2.4-9.4-3.9
		c-4.5-2.3-5.6-5.5-3.1-10.8c1.9-4,2.8-7.8,1.8-12.3c-1.6-6.5,0.6-10.9,6.7-14c4-2,8.3-2.8,12.6-3.5c2.2-0.4,4.3-1.2,6.4-1.9
		c1.3-0.4,2.6-1,3.9-1.5c1.7-0.6,3.5-1.1,5.1-1.9c5.5-2.7,10.6-1.6,15.5,1.3c2.1,1.2,4.1,2.6,5.6,4.7c1.3,1.8,3.2,2.9,5.7,2.9
		c3.6,0,7,0.9,9.5,3.9c1,1.2,2.2,2.4,3.2,3.6c3.1,3.7,4.1,8.3,0.4,13.8c-1.1,1.6-1.6,3.2-1.5,5.1c0,3.6,0.1,7.2-2,10.5
		C272.6,54.9,267.5,58.1,262.9,57.7z"/>
	<path class="black" fill="#000000" d="M247.3,80.5c-2.4,0.1-4.2-1.2-4.6-3.1c-0.5-2.4,0.3-3.7,3.1-4.8c1.1-0.4,2.2-0.9,3.3-1.1
		c1.6-0.2,3.2,0,4.2,1.6c0.9,1.5,0.7,3.1-0.7,4.7C251.5,79.2,248.9,80.5,247.3,80.5z"/>
	<path class="black" fill="#000000" d="M236.5,158.7c-0.1,1.8-2.3,3.7-3.4,3.5c-1.2-0.2-1.7-1.2-1.7-2.4c0-1.2,1.9-2.7,3.2-2.4
		C235.4,157.6,236,158.3,236.5,158.7z"/>
	<path class="black" fill="#000000" d="M226.3,152.1c0.1,1.4-2.1,4.2-3.1,4c-0.6-0.1-1.2-1.1-1.4-1.8c-0.4-1.7,1.7-3.7,3.3-3.2
		C225.6,151.3,226,151.9,226.3,152.1z"/>
	<path class="black" fill="#000000" d="M179.4,144.2c0.3-0.4,1-1.1,1.6-1.8c0.8,0.9,1.8,1.6,2.3,2.7c0.3,0.7-1.4,2.2-2.4,2.1
		C179.6,147,179.4,145.9,179.4,144.2z"/>
	<path class="black" fill="#000000" d="M200.1,152.8c0,1.9-1.3,3.6-2.2,3.6c-1.5-0.1-1.5-1.3-1.6-2.3c-0.1-1,1.5-2.6,2.4-2.4
		C199.3,151.9,199.8,152.6,200.1,152.8z"/>
	<path class="black" fill="#000000" d="M247.4,150.9c0.3,0.3,0.9,0.7,1,1.2c0.3,1.1-1.3,3.5-2,3.2c-0.6-0.2-1.2-0.9-1.3-1.5
		C244.8,152.5,246,151,247.4,150.9z"/>
	<path class="black" fill="#000000" d="M256.4,144.2c-1,1-1.6,1.7-2.4,2.2c-0.1,0.1-1.2-0.7-1.3-1.2c-0.3-1.2,0.6-2.8,1.5-2.6
		C254.9,142.7,255.4,143.4,256.4,144.2z"/>
	<path class="black" fill="#000000" d="M197,143.4c-0.6,0.7-1.2,1.6-1.3,1.5c-0.9-0.4-1.7-1-2.6-1.6c0.7-0.7,1.4-1.4,2.1-2.1
		C195.7,141.8,196.2,142.5,197,143.4z"/>
	<path class="black" fill="#000000" d="M213.6,163.5c-0.8-0.6-1.5-0.9-1.7-1.3c-0.3-0.7,1.2-2,2.1-1.8c0.4,0.1,1.1,0.8,1.1,0.9
		C214.8,162,214.2,162.7,213.6,163.5z"/>
	<path class="white" fill="#FFFFFF" d="M216.6,137.9c-5.1-0.1-8.7-0.3-12.1-1.9c-3.4-1.6-5.2-4.4-5.9-7.9c-0.5-2.5-0.3-5.1-0.4-7.6
		c0-0.8,0.2-1.7,0.2-2.5c0-0.4-0.3-1.1-0.4-1.1c-0.5,0-1.2,0.1-1.4,0.4c-0.6,1.2-1.1,2.5-1.4,3.9c-0.3,1.4-0.6,1.9-2,0.9
		c-2.3-1.5-4.8-2.8-7-4.4c-3.9-2.7-5-10.2-2.3-14.3c1.9-2.8,3.9-5.3,6.5-7.4c0.5-0.4,1.1-0.7,1.4-1.3c0.2-0.4,0.2-1,0-1.4
		c-0.1-0.2-0.7-0.3-1.1-0.4c-0.2,0-0.4,0.1-0.6,0.2c-2.7,0.9-3.8,0.4-4.5-2.4c-1-3.8,0-7,2.8-9.7c3.8-3.6,8.4-5,13.6-4.3
		c1.2,0.2,2.3,0.2,2.4,1.9c0.1,1.8,1.1,0.9,1.5,0.2c1.4-2.3,3.5-3.6,5.8-4.9c3.4-1.9,8.5-1.9,11.3,0.2c4.2,3.2,5.5,6.8,4.5,11.8
		c-0.4,1.9-0.3,2,1.5,1.5c1.5-0.4,3.1-0.9,4.7-1.1c4.9-0.7,9.2,4.2,7.9,8.8c-0.4,1.3-0.9,1.9-2.4,1.9c-2.7,0-5.3,0.4-8,0.8
		c-4.4,0.7-8.8,1.4-13.2,2.2c-1.4,0.2-2-0.2-2.1-1.6c-0.1-1.4-0.2-2.8-0.5-4.1c-0.6-3.1-1.9-4.2-5.1-4.2c-2.9,0-5.5,0.7-7.4,3.1
		c-1.4,1.9-2.9,3.7-4.2,5.6c-0.3,0.4-0.5,0.9-0.7,1.4c-0.6,2.4,0.5,3.6,2.9,2.7c1.6-0.6,3.1-1.5,4.6-2.2c1.6-0.8,3.2-1.6,4.9-2.4
		c1-0.5,2.2-1,2.8,0.3c0.4,0.9,0.4,2.6-0.2,3.2c-2.5,2.8-2.3,6.1-2.1,9.4c0.3,3.7,2.5,6.2,6,7.2c3.1,0.9,6.3,1.2,9.4,1.7
		c2.3,0.4,4.6,0.7,6.9,0.9c1.9,0.2,3.9,0.1,5.6-0.9c0.2-0.1,0.4-0.2,0.6-0.2c1.5-0.2,3.1-0.9,4.3,0.4c1.3,1.4,1.7,3.3,1,5.1
		c-0.7,2.2-1.9,3.9-4.3,4.8c-4.5,1.7-8.9,2.9-13.7,2c-0.5-0.1-1.5,0.2-1.6,0.6c-0.2,0.5,0,1.4,0.4,1.9c0.8,0.9,0.4,1.2-0.4,1.6
		C221.8,137.9,218.5,138,216.6,137.9z"/>
	<path class="white" fill="#FFFFFF" d="M244.3,115.8c-1.5-0.3-4.4-0.8-7.2-1.4c-0.9-0.2-1.2-0.8-0.7-1.6c0.3-0.5,0.7-1.1,1-1.7
		c0.9-1.8,1.4-3.7,0.4-5.5c-0.8-1.5-0.2-2.3,0.8-3.3c6.1-6,12.4-3.5,14.8,2.3C255.7,110.4,251.3,116.1,244.3,115.8z"/>
	<path class="white" fill="#FFFFFF" d="M222.3,116.2c-5.1,0-8.4-3-8.6-7.8c-0.1-3.6,2.8-6.3,6.4-5.9c0.7,0.1,1.5,0.1,2.2,0c3.4-0.5,6.6,0.4,9.7,1.6
		c3.4,1.3,3.9,4.4,1.7,7.2C230.3,115.5,228.1,115.3,222.3,116.2z"/>
	<path class="white" fill="#FFFFFF" d="M257.6,17.7c0,0.1,0,0.2,0,0.3c0.1,0.8,0.2,1.6,0.3,2.4c0.6-0.5,1.4-0.9,1.7-1.6c0.6-1.2,1.6-1.4,2.6-1.5
		c5.6-0.7,10,1.3,13.2,6c0.5,0.7,0.9,1.5,1.3,2.2c1.9,3.8,1.2,7.3-2.2,9.9c-1.6,1.2-3.3,2.3-5,3.4c-0.3,0.2-0.4,0.7-0.5,1
		c0.3,0.1,0.7,0.4,1,0.4c1.1,0.1,2.7-0.4,3.3,0.2c1.1,1.1,1.1,2.8,0.8,4.5c-0.8,3.7-2.6,6.6-5.9,8.7c-2.8,1.7-5.5,1.5-8.2,0.3
		c-2.8-1.2-2.8-1.2-3.7,1.8c-1.1,3.6-7.3,6.9-10.7,5.7c-0.6-0.2-1.2-1.1-1.5-1.9c-1.9-3.9-5.2-4.6-8.6-1.8c-0.3,0.3-0.7,0.5-0.9,0.9
		c-2.6,4.2-6.5,2.7-10,2c-2.5-0.5-3.2-2.5-2.6-5.6c0.4-2.1,0.4-2.2-1.6-2.1c-5,0.2-9.4-1.7-13.7-4c-4-2.2-4.4-5.5-1.5-9.1
		c0.6-0.8,1.2-1.5,1.9-2.2c1.7-1.5,2.2-1.5,4.1-0.2c0.8,0.6,1.8,1.3,2.4,0.2c0.3-0.6,0-1.8-0.4-2.5c-0.5-0.8-1.4-1.3-2.2-1.8
		c-3.3-2-4.7-5-4.9-8.8c-0.1-3,1.2-5.2,3.7-6.6c2.1-1.2,4.4-2.2,6.8-2.9c3-0.8,6-1.4,9.1-1.8c2.3-0.3,2.5,0,2,2.2
		c-0.1,0.5-0.4,1.1-0.3,1.5c0.1,0.5,0.5,1.4,0.9,1.4c0.4,0.1,1.2-0.4,1.5-0.8c0.7-1.1,0.9-2.5,1.7-3.4c3.1-3.9,7.2-6.3,12.1-7.1
		c3.1-0.5,5.8,1.1,8.5,2.3c1.5,0.7,3,1.7,4.1,2.9C257.7,14,257.8,15,257.6,17.7z"/>
	<path class="white" fill="#FFFFFF" d="M236.2,64.6c-0.6-0.4-1.2-0.6-1.4-0.9c-0.2-0.4,0-1.1,0.3-1.4c1.1-1.2,2.9-1.5,3.6-3.3c0-0.1,1.5,0.1,1.9,0.5
		c0.9,1,1,2.3-0.2,3C239.2,63.4,237.6,63.9,236.2,64.6z"/>
	<path class="white" fill="#FFFFFF" d="M249.2,74.3c0.2,0.1,0.8,0.6,1.5,1c-0.5,0.6-1,1.2-1.5,1.8c-0.1,0.1-0.4,0.2-0.6,0.2c-1.4,0.4-2.7-0.1-3-1.1
		c-0.3-1,0.7-1.8,2.4-2C248.2,74.3,248.4,74.3,249.2,74.3z"/>
	<path class="black" fill="#000000" d="M243.3,106.8c0.2-2.1,1-3.1,2.2-2.9c1.2,0.2,1.9,1.1,1.7,2.6c-0.2,1.5-1.2,2.4-2.5,2.3
		C243.5,108.6,243.1,107.9,243.3,106.8z"/>
	<path class="black" fill="#000000" d="M226.9,107.7c-0.1,1.8-3.1,3.4-4.5,2.8c-0.3-0.1-0.7-0.5-0.6-0.6c0.3-1.1,0.4-2.4,1.2-3
		c0.7-0.6,2.1-0.5,3.2-0.5C226.5,106.4,226.7,107.4,226.9,107.7z"/>
	<path class="heart" fill="#AD0000" d="M232,26.6c3.3,0,6,0.8,8.1,3c1.6,1.6,1.7,1.6,3-0.2c3.3-4.7,7.5-5.6,13-3.9c3,0.9,4.3,3.3,2.8,6.2
		c-1.5,2.8-3.8,4.7-6.3,6.2c-4.1,2.3-7.4,5.4-10.6,8.6c-0.5,0.5-1.1,1.2-1.7,1.4c-0.8,0.2-2.1,0.2-2.6-0.3c-3.5-3-6.9-6-10.1-9.3
		c-2.9-2.9-3-5.7-1.2-9C227.6,26.8,229.9,26.7,232,26.6z"/>
</g>
<g>
	<path class="black" fill="#000000" d="M897.8,100.7c-0.8,2.5,0.3,3.9,1.4,5.4c1.6,2,3.4,3.8,4.5,6.1c2.4,4.7,2.7,9.4-1.2,13.7c-0.9,1-1.2,2.6-1.8,4
		c-2.4,5.1-2,10.6-2.1,16c0,0.6,0,1.3-0.2,1.9c-0.3,1.2-1.5,1.6-2.5,0.8c-1.3-1-2.7-1.9-3.6-3.1c-1-1.4-1.9-1.6-3.3-0.7
		c-2.6,1.7-5.7,1.8-8.6,2.3c-2.8,0.5-2.8,0.4-3.5,3.1c-0.3,1.2-0.5,2.6-1.1,3.7c-0.4,0.8-1.4,1.4-2.2,2c-0.6-0.7-1.3-1.3-1.6-2.1
		c-1.2-2.8-2.3-5.7-3.6-8.5c-0.6-1.4-1.9-1.8-3.4-1.4c-2.8,0.8-5.5,1.6-8.3,2.3c-1.4,0.3-2.3,0.8-2.6,2.4c-0.3,2.1-0.8,4.2-1.3,6.2
		c-0.2,0.7-0.7,1.8-1.2,1.9c-0.6,0.1-1.8-0.4-2.1-1c-1.4-2.4-2.7-4.8-3.8-7.4c-0.9-2.2-1.9-4.1-4.1-5.5c-3-1.8-4.4-4.8-4.7-8.3
		c0-0.1,0-0.2,0-0.3c0.1-2.3,0.1-2.5-2.1-2.5c-5.1-0.1-8.7-2.4-11-6.9c-2.5-4.7-2.2-7.4,1.5-11.2c1-1,1.3-1.8,0.7-3.1
		c-0.3-0.7-0.5-0.8-1.4-0.6c-3.7,0.8-7.5,1.5-11.3,2.1c-1,0.2-2.4,0.6-2.8-0.7c-0.2-0.7,0.1-1.9,0.6-2.6c3.4-4.5,7.5-8.1,13.1-9.7
		c2.4-0.6,3.3,0,3.6,2.5c0.2,2,0.3,4.1,0.5,6.1c0.3,2.4,0.9,2.7,3.1,1.9c0.6-0.2,1.2-0.5,1.8-0.7c2.6-0.9,2.4-0.8,2.1-3.6
		c-0.7-5.3,0.4-8.8,5.5-12.3c3.9-2.7,7.5-5.6,10.1-9.6c1.7-2.7,4.4-4.2,7.3-5.5c4.3-1.9,8.8-3.4,13.5-3.8c1.1-0.1,2.4,0,3.4,0.5
		c2.5,1.4,4.8,3.1,7.3,4.6c1.1,0.7,2.1,1.5,3.3,1.8c2.7,0.6,4.4,2.3,6,4.4c2.1,2.9,3.9,5.9,4.8,9.4C897.3,96.8,897.5,99,897.8,100.7
		z"/>
	<path class="black" fill="#000000" d="M825.5,57.6c0.6-2.1-0.2-2.9-1.2-3.6c-5.3-3.6-5.5-9-5.2-14.6c0-0.6,0.3-1.3,0.8-1.7c2.4-2.1,2.5-5.4,4.3-7.9
		c0.7-1.1,0.9-2.6,1.1-4c0.6-4.2,3.5-6.7,6.7-8.8c1.3-0.9,2.8-1.7,4.3-2.2c1.5-0.5,3.4-1,4.6-0.5c3.2,1.3,5.8-0.1,8.6-1
		c1.9-0.6,3.8-1.5,5.7-2.2c4.3-1.5,8.2,0,12,1.8c2,0.9,3.8,2.4,5.7,3.5c3,1.8,4.6,4.7,6.2,7.5c1.5,2.7,3.4,5,5.5,7.3
		c3.4,3.6,5.6,12.2,0.6,16.9c-0.4,0.4-1,0.8-1,1.2c0,2.6-1.4,4.8-2.1,7.2c-1.2,3.7-5.2,7.4-9,7.4c-2.5,0-4.1,0.7-5.6,2.8
		c-3,4-6.8,4.9-11.7,3.1c-1.8-0.6-3.3-0.8-5.1,0.4c-2.4,1.6-5.1,2.2-7.8,0.3c-0.1-0.1-0.2-0.1-0.3-0.1c-1.9-4-6.1-3.8-9.5-4.9
		c-2.7-0.9-4.8-2.4-6.2-4.7C826.1,59.7,825.8,58.3,825.5,57.6z"/>
	<path class="black" fill="#000000" d="M829.4,82.5c0-0.1,0.1-0.2,0.1-0.3c-0.3-1.7-0.7-3.3,1.6-4.2c2.6-1,5-1.2,7.3,0.4c1.7,1.2,1.9,4.3,0.2,5.6
		c-1.5,1.1-3.2,2.1-5,2.7c-2.7,0.9-4.5-0.7-4.2-3.6C829.2,82.9,829.3,82.7,829.4,82.5z"/>
	<path class="black" fill="#000000" d="M832.3,163.3c-1.1,0-2.3-1-2.3-2.2c0-1.1,1.6-2.4,3.3-2.4c0.9,0,2-0.1,2.1,1.3
		C835.4,161.4,833.6,163.3,832.3,163.3z"/>
	<path class="black" fill="#000000" d="M906.9,149.6c0.2-2.6,0.9-3.3,2.4-3.2c1.2,0.1,2.1,0.5,2,1.9c-0.1,1.1-2.1,2.6-3.4,2.3
		C907.4,150.6,907,149.8,906.9,149.6z"/>
	<path class="black" fill="#000000" d="M851.8,170.1c0,1.6-2.9,3.4-4.1,2.8c-0.3-0.2-0.9-0.7-0.8-0.8c0.5-1,1-2.1,1.8-2.8c0.5-0.4,1.6-0.3,2.3-0.2
		C851.4,169.1,851.6,169.9,851.8,170.1z"/>
	<path class="black" fill="#000000" d="M922.7,150.4c-0.2-0.3-0.7-0.8-0.8-1.4c-0.1-1.5,1.1-3.2,2-3.3c0.8-0.1,1.9,1.4,2,2.6
		C925.9,149.5,924.8,150.4,922.7,150.4z"/>
	<path class="black" fill="#000000" d="M886,158.7c-0.7,1.1-1.2,2.2-2,2.8c-0.4,0.3-1.6-0.3-2.3-0.7c-0.2-0.1,0.2-1.3,0.5-1.9
		c0.1-0.4,0.4-0.7,0.7-1.1c0.4-0.5,0.6-1.6,1.6-0.9C885,157.4,885.4,158,886,158.7z"/>
	<path class="black" fill="#000000" d="M862.7,162.5c0,1.2-1.7,3-2.6,2.6c-0.6-0.3-1.1-1.2-1.2-2c-0.2-1.2,1-2.1,2.2-2.2
		C862.1,161,862.7,161.5,862.7,162.5z"/>
	<path class="black" fill="#000000" d="M915.7,161.7c-0.2,0.7-0.3,1.2-0.5,1.7c-0.5,0.9-1.2,1.9-2.1,1.1c-0.6-0.5-0.4-1.9-0.4-2.9
		c0-0.3,0.6-0.6,0.9-0.8c0.4-0.3,1.2-0.7,1.3-0.6C915.3,160.6,915.4,161.2,915.7,161.7z"/>
	<path class="black" fill="#000000" d="M896.8,164.5c-0.2-0.3-0.8-0.7-0.8-1.2c-0.2-1.3,0.9-3,1.9-2.9c0.4,0.1,1,0.7,1.1,1.2
		C899.3,163.1,898.4,164.3,896.8,164.5z"/>
	<path class="black" fill="#000000" d="M872.7,171.2c-1.5,0.9-2.3,1.7-3.3,1.9c-1,0.2-1.2-0.9-1.1-1.8c0.2-1.3,1.1-1.9,2.2-1.8
		C871.1,169.6,871.6,170.4,872.7,171.2z"/>
	<path class="black" fill="#000000" d="M831.4,169.2c0.5,1.3,0.8,2,0.9,2.7c0.1,1-0.7,1.4-1.4,1.1c-0.7-0.2-1.2-1-1.7-1.5
		C829.7,170.9,830.3,170.3,831.4,169.2z"/>
	<path class="black" fill="#000000" d="M889.1,170.2c-1.1,0.8-1.9,1.7-2.2,1.6c-0.7-0.3-1.3-1.1-1.7-1.9c-0.1-0.2,0.9-1.4,1.3-1.3
		C887.2,168.7,887.9,169.4,889.1,170.2z"/>
	<path class="white" fill="#FFFFFF" d="M872.6,95.8c-2.7,0.4-5.3,0.6-7.8,1c-4,0.7-5,2-5.7,6.1c-0.3,1.6-0.6,3.2-1,4.7c-0.2,0.5-1,1.2-1.5,1.2
		c-3.2-0.2-6.5-0.4-9.7-0.9c-1.8-0.3-3.4-0.8-5.2,0c-0.4,0.2-1.4-0.3-1.7-0.8c-2.7-4-1.3-9.6,2.9-11.9c0.4-0.2,0.8-0.4,1.1-0.6
		c3.1-1.4,3.1-1.4,4.1,1.8c0,0.1,0.1,0.2,0.1,0.3c0.2,0.9,0.3,2.2,1.6,1.9c1.2-0.3,1.9-1.3,1.4-2.7c-1.6-5.3,0.8-9.5,4.5-12.8
		c3.2-2.9,7.4-4.2,11.6-5.2c1.1-0.3,2.3-0.5,3.5-0.7c2.7-0.4,5.1,0.3,6.9,2.4c0.7,0.8,0.8,1.5-0.2,2c-0.5,0.3-1,0.5-1.3,0.9
		c-0.4,0.5-0.7,1.2-1,1.8c0.7,0.1,1.3,0.5,1.9,0.4c1.3-0.1,2.5-0.6,3.8-0.8c3.7-0.6,6.5,0.6,8.8,3.8c4.4,6.2,5.5,12.9,3.6,20.1
		c-0.4,1.4-1.3,2.7-1.9,4c-0.1,0.2,0,0.6,0,0.9c0.3,0,0.6,0.1,0.9,0c0.8-0.5,1.7-0.9,2.3-1.6c1.7-1.7,2.9-1.9,4.5,0.1
		c3.6,4.3,4.3,9.9-0.7,14.2c-2.3,2-5.1,3.4-7.7,5.2c-0.4,0.3-0.7,0.7-1,1c0.6,0.1,1.1,0.4,1.7,0.4c1-0.2,2.1-0.6,3.1-0.8
		c0.6-0.1,1.2-0.2,1.7-0.2c-0.1,0.6-0.1,1.3-0.3,1.8c-1.2,3.5-3.9,6-6.9,7.8c-3.4,2.1-7.2,3.9-11.5,2.4c-0.2-0.1-0.4-0.1-0.6,0
		c-5.2,1.3-7.7-2.2-10.3-5.6c-0.4-0.5-0.5-1.2-0.9-1.7c-0.5-0.4-1.3-1-1.8-0.8c-0.5,0.2-0.8,1.1-1.2,1.7c-0.1,0.1,0,0.4,0.1,0.6
		c0.2,1,0.8,2.5,0.4,2.9c-1.2,1.2-2.7,2.5-4.2,2.6c-4.8,0.4-9.5,0.5-14.2-1.6c-2.7-1.2-3.9-3.2-4.7-5.7c-0.8-2.5-0.5-2.8,2.3-2.5
		c0.4,0.1,0.9,0.2,1.3,0.1c5.3-1.2,10.6-2.4,15.8-3.7c3.4-0.8,7.2-8.1,6.7-11.6c-0.2-1.5-1.5-3-2.4-4.4c-0.2-0.4-0.6-0.6-0.9-0.9
		c-0.6-0.8-1.9-1.8-1.7-2.3c0.4-1.1,1.4-2.3,2.4-2.8c2.8-1.3,5.8-2.2,8.6-3.4c2.3-0.9,4.6-1.8,6.7-3c0.8-0.4,1.4-1.6,1.5-2.6
		c0.2-1.3-1.1-1.8-2.1-2C876.5,96.1,874.5,96,872.6,95.8z"/>
	<path class="white" fill="#FFFFFF" d="M843.2,120c0-5.2,2.5-7.9,6.6-8.7c4.8-1,8.3,0.9,11.4,4.1c2.1,2.1,2.1,4.3,0.7,6.9c-2.8,5.3-10,6.8-14.9,3.4
		C844.7,124.1,843.3,121.8,843.2,120z"/>
	<path class="white" fill="#FFFFFF" d="M839.3,128.6c-2.7-0.4-5-0.7-7.3-1.2c-3.5-0.7-6.6-5.1-6.2-8.7c0.1-1,0.5-2.2,1.2-2.9c3.2-3.1,6.9-5,11.5-4.1
		c1.9,0.4,2.7,1.6,2.1,3.5c-1.2,3.8-0.8,7.3,1.6,10.5c1.1,1.5,1,1.8-0.8,2.4C840.6,128.4,839.8,128.5,839.3,128.6z"/>
	<path class="white" fill="#FFFFFF" d="M869.7,61.6c-2.1-0.3-4.2-0.7-6.3-1.1c-0.6-0.1-1.2-0.5-1.8-0.5c-0.6,0-1.1,0.3-1.7,0.5
		c0.3,0.6,0.4,1.5,0.8,1.9c0.9,0.6,2,0.8,3,1.2c0.5,0.2,1,0.5,1.6,0.7c-0.4,0.5-0.7,1-1.2,1.4c-2.8,2.6-5.9,2-9,0.8
		c-0.8-0.3-1.3-1.3-1.8-2.1c-2.5-4.3-7.1-5.1-10.7-1.5c-0.9,0.9-1.7,1.1-2.8,0.8c-2.5-0.7-5-1.2-7.4-2.1c-4.1-1.6-4.5-5.4-1.1-8.2
		c0.3-0.3,0.8-0.5,1-0.8c0.3-0.4,0.3-0.9,0.5-1.4c-0.4-0.1-0.8-0.2-1.2-0.2c-0.5,0-1.1,0.2-1.6,0.3c-2.9,0.7-5.1-0.3-6.3-2.9
		c-1-2.2-1.7-4.6-1.5-7.1c0.3-3.4,1.3-4.8,4.4-5.8c0.5-0.2,1-0.3,1.5-0.5c0.9-0.3,1-0.9,0.6-1.8c-2-3.8-1.4-8.9,1.8-11.6
		c2.2-1.8,4.8-3.4,7.4-4.3c2.9-1,5.6,0.5,7.9,2.5c0.8,0.7,1.5,1.5,2.3,2.2c0.2,0.2,0.6,0.2,0.8,0.2c0.1-0.4,0.2-0.8,0.2-1.2
		c0-0.2-0.2-0.4-0.3-0.6c-0.5-0.6-1.6-1.5-1.4-1.8c0.4-0.9,1.3-1.6,2.1-2.3c5.8-4.4,11.7-3.9,18.8,0.5c1.3,0.8,2.4,1.8,3.6,2.7
		c2.3,1.8,3.9,4,4.1,7c0.1,1.2,0.7,1.8,1.8,2.6c4.3,2.8,8,7.5,7.1,13c-0.4,2.5-1.6,4.4-3.9,5.5c-1.5,0.7-3.1,1.5-4.6,2.4
		c-0.4,0.2-0.8,0.8-0.8,1.2c0.1,0.3,0.7,0.7,1.2,0.8c0.7,0.1,1.4,0,2-0.1c0,0.7,0.1,1.5,0.1,2.2c-0.1,3.2-3.1,6.4-6.5,6.8
		c-0.9,0.1-1.9,0-2.9,0C869.7,61.4,869.7,61.5,869.7,61.6z"/>
	<path class="white" fill="#FFFFFF" d="M846.5,69.1c-1-0.7-2.1-1-2.4-1.7c-0.3-0.5,0.2-1.6,0.6-2.2c0.8-1.1,1.7-2.3,3.4-1.7c1.5,0.5,3,2.3,2.4,2.9
		C849.4,67.5,847.9,68.1,846.5,69.1z"/>
	<path class="white" fill="#FFFFFF" d="M834.3,79.9c0.4,0.3,1.4,0.9,2.1,1.7c0.4,0.6-2.3,2.6-3.6,2.6c-1.7,0-1.2-1.5-1.4-2.4
		C831,80.7,832,80,834.3,79.9z"/>
	<path class="black" fill="#000000" d="M851.3,116.7c0,1.7-1.8,4.1-3.1,4c-0.7-0.1-2.1-1.9-2.1-2.9c0-1.6,0.7-2.5,2.1-2.5
		C850.1,115.2,851.2,115.8,851.3,116.7z"/>
	<path class="black" fill="#000000" d="M833.8,115.5c0.2,0.4,0.9,1,0.9,1.7c0.1,1.9-1.4,3.5-3,3.4c-1.5-0.1-1.5-1.4-1.5-2.4
		C830.1,116.8,831.9,115.4,833.8,115.5z"/>
	<path class="heart" fill="#AD0000" d="M867.5,31.7c-0.5,1.2-0.7,2.4-1.3,3.4c-2.5,4-5.1,7.9-7.7,11.8c-0.3,0.4-0.6,0.9-1,1.3c-2.8,3.3-3.6,3.2-7,0.4
		c-2-1.6-4.5-2.9-7-3.8c-2.8-1-4.9-2.4-6.3-5.1c-0.1-0.2-0.3-0.4-0.3-0.6c-1.1-3.3,1.2-5.4,2.9-7.7c1.2-1.6,2.7-2.7,5-1.8
		c2.1,0.8,4.3,1.2,6.4,2c1,0.4,1.5,0.3,2.2-0.5c1-1.1,2-2.2,3.2-3.2c2.7-2.4,7.6-2,9.7,0.8C866.8,29.6,867,30.7,867.5,31.7z"/>
</g>
<g>
	<path class="black" fill="#000000" d="M707.7,96.6c0.3,3.1-0.8,5.8-3.1,7.8c-2.2,1.9-2.8,4.2-2.5,6.8c0.5,3.7-0.6,6.9-3.1,9.4
		c-4.4,4.4-5.5,9.7-4.6,15.6c0.2,1.3-0.1,1.5-1.3,1.8c-1,0.3-1.4,0.3-1.6-0.7c-0.7-3.3-2.3-6.2-4.5-8.7c-0.5-0.5-0.6-1.4-0.8-2.1
		c-0.8,0.5-1.7,0.9-2.5,1.4c-2.5,1.8-5.2,3.4-7.4,5.5c-2.1,2-3.5,4.6-3.9,7.6c-0.1,0.5,0,1.1-0.2,1.6c-0.3,0.6-0.8,1.4-1.3,1.5
		c-0.5,0.1-1.5-0.4-1.8-1c-1.1-2.1-2.1-4.2-2.9-6.4c-0.6-1.7-1.5-2.2-3.2-2.5c-2.8-0.5-5.5-1.4-8.2-2.5c-2.3-0.9-4.3-0.6-5.1,1.8
		c-0.9,2.6-1.3,5.4-1.9,8.1c-0.2,0.9-0.1,1.9-1.5,2.1c-1.3,0.2-1.8,0-2.3-1.3c-1.3-3.7-2.9-7.3-4.5-10.9c-0.2-0.5-0.9-0.9-1.4-1.3
		c-3.7-2.7-5.3-6.4-5-10.8c0.1-1.6-0.3-2.1-1.7-2.3c-0.7-0.1-1.5-0.4-2.2-0.3c-5.9,0.2-12.3-7.4-10.1-13.8c0.6-1.8,1-3.7,1.6-5.5
		c0.5-1.6,0.1-2.3-1.5-1.9c-2.7,0.7-5.2,1.8-7.9,2.7c-1.7,0.6-3.4,1.3-5.1,1.6c-1.7,0.3-2.5-0.4-2.2-2.2c0.3-1.9,0.6-3.9,1.6-5.5
		c2.4-3.8,5.7-6.6,9.8-8.4c1.9-0.8,3.6-0.1,4.3,1.8c0.7,2,1.3,4.1,2,6.1c0.9,2.6,1.6,2.9,4,1.7c3.2-1.5,3.3-1.6,2-4.6
		c-1.8-4,1.8-10,5.3-11.1c4.8-1.6,7.9-4.9,10.3-9.1c3.1-5.2,8.1-6.7,13.5-6.2c3.5,0.3,6.8,0.2,10.1-0.6c1.9-0.5,3.7-1.5,5.7-2
		c6.8-1.7,13.4-1.7,19.3,2.6c3.7,2.7,6,6.2,6,11.1c0,1.4,0.6,3,1.3,4.2c2,3.4,4.2,6.6,6.4,9.8C707.2,90.2,707.5,93.4,707.7,96.6z"/>
	<path class="black" fill="#000000" d="M666.4,19c-0.4,1.7-0.9,3.5-1,5.3c-0.2,1.7-0.3,3.5,0.1,5c1.4,5-0.2,9-3.9,12.3c-1.3,1.1-2.9,1.8-4.1,2.9
		c-1.5,1.3-3.3,2.5-4.2,4.2c-1.5,2.6-3.7,4.1-6.4,5.1c-3.2,1.2-6.5,2.3-9.9,0.5c-1.1-0.6-1.9-0.6-2.6,0.7c-1.3,2.5-3.6,3.2-6.2,3.2
		c-0.7,0-1.5-0.2-2.2,0c-2.6,0.4-4.3-0.9-5.4-3.1c-0.6-1.2-1.2-1.4-2.4-1.4c-3.5,0.1-7.5-3-8.3-6.3c-0.3-1.3-0.7-2.1-1.8-2.8
		c-1.3-0.7-2.6-1.6-3.7-2.6c-3.4-3.2-5.3-6.4-2.3-10.2c1.8-2.2,2.3-4.5,1.8-7.4c-0.7-4.4,0.6-8,4.5-10.5c0.4-0.2,0.7-0.7,1-0.7
		c3.1-0.2,5.3-2,7.4-4c0.5-0.4,1.1-1,1.6-0.9c2.6,0.1,4-1.8,5.6-3.2c2.9-2.6,6.4-4,10-4.8c3.7-0.9,7.3,0.2,10.4,2.3
		c2.5,1.7,5.2,2.3,8.2,2.1c7.8-0.5,13.1,4.9,13.3,11.2c0,1,0.1,1.9,0.2,2.9C666.1,19,666.3,19,666.4,19z"/>
	<path class="black" fill="#000000" d="M623.5,64.5c4,0,6.4,1.9,5.7,5c-0.4,1.7-1.7,3.6-3.2,4.5c-1.8,1-4.2,1.3-6.4,1.3c-1.9,0-3.4-1.3-3.7-3.4
		c-0.4-2.4,0.5-4.4,2.6-5.8C620.1,65,621.7,64,623.5,64.5z"/>
	<path class="black" fill="#000000" d="M656.5,147.7c-1.4,0-2.3-1-2.3-2.5c0-1.7,1.5-3,3.1-2.8c1.1,0.1,2.1,1.4,2.1,2.7
		C659.5,146.7,658.3,147.7,656.5,147.7z"/>
	<path class="black" fill="#000000" d="M705.3,144.3c-2.6,0.1-3-0.5-2.3-2.3c1-2.5,2.9-3.1,5.3-1.6c0.9,0.6,0.9,2.3-0.3,2.9
		C707,144,705.8,144.2,705.3,144.3z"/>
	<path class="black" fill="#000000" d="M697.1,150.4c0.3,2.8-1.7,2.3-2.6,3.2c-1.1,1.1-1.5-0.1-2.1-0.5c-0.3-0.2-0.4-0.9-0.3-1.2
		c0.3-0.8,0.8-1.5,1.2-2.2c0.5-0.8,1.3-1.2,2.2-0.7C696.3,149.5,696.9,150.2,697.1,150.4z"/>
	<path class="black" fill="#000000" d="M646.4,157.6c-0.6-0.6-1.6-1.1-1.6-1.6c0-0.7,0.6-1.7,1.2-2c1-0.5,2.2-0.7,3.3-0.8c0.5-0.1,1.5,0.3,1.5,0.6
		c0.1,0.6,0,1.7-0.4,1.9C649.2,156.5,647.9,156.9,646.4,157.6z"/>
	<path class="black" fill="#000000" d="M636.1,168.4c-0.2-0.2-1.1-0.6-1.3-1.2c-0.4-1.1,1.2-3,2.2-3.1c1.3-0.1,3,0.9,3,1.8
		C640,167.2,638.5,168.3,636.1,168.4z"/>
	<path class="black" fill="#000000" d="M657.5,168.1c0,1.3-1.2,2.3-2.6,2.2c-1.3,0-1.9-0.8-1.8-2.1c0.1-1.3,1.2-2.3,2.6-2.3
		C656.7,165.9,657.5,166.8,657.5,168.1z"/>
	<path class="black" fill="#000000" d="M631.1,149.8c0.1,1.4-1.7,3.3-2.9,3.3c-1.2,0-1.6-0.8-1.7-1.9c0-1.4,0.7-2.3,2-2.3
		C629.5,148.9,630.7,148.7,631.1,149.8z"/>
	<path class="black" fill="#000000" d="M680,155.6c1.7,0.1,2.3,1,2.4,2.1c0,1.3-0.9,1.8-2.1,1.8c-1.2,0-2.3-1.2-1.9-2.3
		C678.5,156.6,679.4,156.1,680,155.6z"/>
	<path class="black" fill="#000000" d="M664.3,156.8c0-2,1.6-3.4,3.1-2.9c0.4,0.1,0.8,0.7,0.9,1.1c0.3,1.4-1.8,3.3-3.3,2.8
		C664.6,157.7,664.4,157,664.3,156.8z"/>
	<path class="black" fill="#000000" d="M682.7,143.9c0.3,0.5,0.9,1.3,1.1,2c0.2,1-1.3,2.3-2.5,2.2c-0.5-0.1-1.3-0.5-1.4-0.9
		C679.6,146,681.1,144,682.7,143.9z"/>
	<path class="black" fill="#000000" d="M670.7,166.8c0.4,0.4,1.5,1,1.5,1.6c0.1,1.1-0.3,2.3-1.8,2.5c-1.7,0.2-1.2-1.1-1.4-1.9
		C668.9,168.1,669,167.1,670.7,166.8z"/>
	<path class="white" fill="#FFFFFF" d="M648.3,129.4c-1.6-0.2-3.2-0.2-4.8-0.5c-4.3-0.8-7.5-4.9-7.5-9.2c0-1.4,0.4-1.9,1.9-1.6
		c4.2,0.7,8.4,0.6,12.1-1.6c3.4-2,7-3.9,9.3-7.5c1.8-2.8,2-5.5,1.1-8.5c-0.1-0.4-0.3-0.8-0.4-1.2c-0.3-1.2-1.3-2.8-0.8-3.5
		c0.9-1.3,2.4-2.5,3.9-3.1c2.3-0.9,4.7-1.3,7.1-1.8c2-0.5,4-0.8,5.9-1.3c0.9-0.2,1.8-0.7,2.6-1.3c2.2-1.6,2-3.3-0.5-4.2
		c-5-1.7-10.2-3.1-15.5-3.6c-2.2-0.2-3.4,1-3.8,3.3c-0.5,2.8-1.2,5.6-2,8.4c-0.4,1.3-1.2,1.8-2.7,1.1c-0.8-0.4-1.9-0.3-2.8-0.4
		c-1-0.1-1.6-0.4-2.5-1.1c-1.1-1-2.8-1.6-4.3-1.7c-2.5-0.2-5.1,0-7.6,0.4c-2.3,0.3-4.8-0.2-5.9-1.9c-1-1.5-0.8-4.1,0.7-6
		c1.9-2.4,4.5-3.8,7.5-4.5c1.1-0.2,1.5,0,1.8,1.1c0.2,1.1,0.7,2.2,1.3,3.1c0.3,0.4,1.3,0.4,2,0.5c0.1-0.6,0.4-1.3,0.2-1.8
		c-0.9-2.5-0.3-4.8,0-7.3c0.8-5.9,5.7-8.4,10.5-9.1c1.4-0.2,3-0.5,4,1.1c0.2,0.4,1.5,0.2,2.3,0c1.4-0.4,1.8,0,1.4,1.4
		c-0.1,0.3-0.2,0.7-0.1,1c0.2,0.7,0.4,1.5,0.7,2.2c0.6-0.4,1.5-0.7,1.7-1.3c1.4-4.5,5.2-5.8,9.1-6.6c5.4-1.2,10.8-1.1,15.7,2.3
		c3.2,2.3,4.7,5.4,5.2,9.2c0.2,1.4-1,2.7-2.5,2.5c-1.4-0.2-1.6,0.9-2,1.6c-0.1,0.2,0.6,1.2,1.2,1.6c2.3,1.5,4.9,2.6,7,4.4
		c3.7,3.3,6.2,7.4,5.9,12.6c-0.2,3.6-1.4,6.6-5.2,8c-1.1,0.4-1.8,2.4-1.1,3.5c2.3,3.4,0.9,6.6-0.7,9.6c-1.8,3.3-4.9,5-8.4,5.9
		c-0.6,0.1-1.2,0-1.8-0.1c-0.5-0.1-1.1-0.5-1.4-0.3c-2,1.3-4.3,1.1-6.5,1.2c-0.3,0-0.5,0.2-0.8,0.4c0.2,0.3,0.3,0.8,0.6,0.9
		c1.9,0.5,1.4,1.1,0.2,2c-4.2,3.1-8.9,4.4-14.1,3.7c-1.6-0.2-3.2-0.4-4.7-0.8c-2.9-0.6-5.4-1.9-6.9-4.7c-0.3-0.6-1.2-1-1.8-1.5
		c-0.3,0.8-0.6,1.7-0.9,2.5c0,0.1,0.1,0.2,0.1,0.3c0.3,2.1,0.3,2.1-1.7,2.1c-0.3,0-0.6-0.1-1-0.1
		C648.3,129.3,648.3,129.4,648.3,129.4z"/>
	<path class="white" fill="#FFFFFF" d="M634.6,93.7c0.5,0.2,1.6,0.3,2.5,0.8c1.4,0.6,1.9,1.7,1.1,3.1c-2.4,4.7-1.9,9,1.2,13.2
		c0.4,0.6,0.6,1.1-0.5,1.3c-3.1,0.4-6.3,0.9-9.4,1.3c-2.7,0.3-7.2-3.5-7.5-7.1C621.5,98.8,626.2,93.8,634.6,93.7z"/>
	<path class="white" fill="#FFFFFF" d="M640,102.9c0-5.3,2.8-8,7.5-7.8c1.8,0.1,3.6,0.4,5.3,1c4.9,1.8,6.1,9.5,2.2,12.9c-2.9,2.6-6.1,3.4-9.7,1.8
		C641.7,109.2,639.8,106.3,640,102.9z"/>
	<path class="white" fill="#FFFFFF" d="M618.5,14.2c1.8,0.4,3.8,0.9,5.9,1.4c0.6,0.1,1.2,0.1,1.7,0.2c-0.3-0.6-0.7-1.2-1.1-1.7
		c-0.2-0.2-0.5-0.4-0.8-0.6c-2.6-1.6-2.6-1.9-0.6-4.1c2.6-2.8,5.8-4.8,9.4-5.9c2.4-0.8,5-0.6,7.2,0.5c3.4,1.6,6.6,3.6,7.9,7.5
		c0.1,0.4,0.7,0.7,1,1c0.2-0.3,0.6-0.6,0.7-1c0.2-1,0.1-2.7,0.4-2.8c1.7-0.4,3.6-0.7,5.3-0.3c4.6,1.2,6.7,4.6,7.1,9.2
		c0.1,1.2,0,2.4-0.1,3.5c-0.2,2.8-1.7,4.7-4.1,6.1c-1.4,0.8-2.7,1.7-4,2.7c-0.3,0.2-0.2,0.7-0.4,1.1c0.4,0.1,0.8,0.3,1.2,0.2
		c1.3-0.5,2.6-1,3.8-1.6c1.5-0.8,2.1-0.1,2.8,1.1c1.3,2.4,0.7,6-1.7,8.6c-2.1,2.3-4.7,3.5-7.9,3.8c-1.5,0.1-2.9,0.5-4.4,0.8
		c-0.2,0.1-0.6,0.6-0.6,0.7c0.1,0.3,0.5,0.6,0.8,0.8c0.7,0.4,1.5,0.7,2.2,1c-0.4,0.9-0.6,2-1.3,2.8c-2.9,3.4-11.5,4.8-15.4-0.1
		c-2.5-3.1-8.1-3.4-11.2-0.7c-0.3,0.3-0.7,0.5-1,0.8c-2.9,2.5-6.7,2-8.7-1.2c-0.6-0.9-0.6-1.8,0.1-2.6c0.4-0.5,1-1,1.1-1.5
		c0.1-0.3-0.7-1.2-0.8-1.2c-3.3,1.4-5.3-1-7.2-2.8c-3.9-3.7-2.7-7.7,2.6-9.2c0.3-0.1,0.7-0.1,0.9-0.3c0.4-0.2,1.1-0.6,1.1-0.9
		c0-0.4-0.5-1.1-0.8-1.1c-3,0-3-2.4-3.1-4.3c-0.4-4.6,1.9-7.6,6.3-8.7C614.8,14.7,616.5,14.5,618.5,14.2z"/>
	<path class="white" fill="#FFFFFF" d="M627.5,54.9c-0.6-0.2-2-0.3-3.1-0.9c-0.5-0.3-0.8-1.6-0.7-2.4c0.2-1.1,2.2-2.4,3.6-2.2c1.5,0.2,3.3,0.2,4.1,2
		C632.5,53.7,631.2,55.1,627.5,54.9z"/>
	<path class="white" fill="#FFFFFF" d="M622.8,66.8c1,0.6,2.3,1,2.9,1.9c0.6,0.8-0.7,2.5-2.2,3.1c-0.5,0.2-1,0.4-1.5,0.5c-1.5,0.2-2.6-0.4-3-1.7
		c-0.5-1.4,0.1-2.2,1.5-2.6C621.1,67.7,621.8,67.3,622.8,66.8z"/>
	<path class="black" fill="#000000" d="M627.2,106.3c-1.1,0.2-1.6-0.3-1.6-1.4c0-2.1,2-4.5,3.7-4.2c1.1,0.2,1.9,0.7,1.9,2.1
		C631.1,105,629.7,106.3,627.2,106.3z"/>
	<path class="black" fill="#000000" d="M646.8,104.9c-1.7,0.2-2.6-0.7-2.9-2c-0.4-1.6,0.6-2.3,2.1-2.6c0.1,0,0.2,0,0.3-0.1c1.3-0.7,2.5-0.7,3.4,0.4
		c0.4,0.5,0.5,1.7,0.2,2.3C649.3,104.2,648.4,105.4,646.8,104.9z"/>
	<path class="heart" fill="#AD0000" d="M647.4,22.6c0,2.1-1,3.7-2.3,5.1c-2.3,2.5-4.7,5-6.9,7.6c-1.2,1.5-2.2,3.1-3.3,4.7c-0.5,0.7-1.1,1.3-1.7,1.8
		c-0.8,0.6-1.5,0.4-1.8-0.5c-0.8-2.5-2.9-3.6-4.9-4.8c-2.7-1.6-5-3.6-6.6-6.4c-1.3-2.2-1.1-4.2,0.4-6.3c1.4-1.9,3.4-2.1,5.4-1.7
		c2.1,0.4,4.1,1.2,6.2,1.6c0.7,0.1,1.8-0.1,2.2-0.6c2.3-2.6,5.3-3.5,8.4-4.3C645.3,18.1,647.3,19.7,647.4,22.6z"/>
</g>
<g>
	<path class="black" fill="#000000" d="M391.3,135.7c0.2-1.9,0.6-3.8,0.6-5.7c0-2.3,0.2-4.9-0.7-6.9c-2.4-5-1.5-9.5,0.8-14.1c1.4-2.8,3.3-5.5,3.8-8.7
		c0.1-0.9,0.4-1.9,0.4-2.8c-0.2-3.9,1.4-7,4.3-9.5c2.5-2.1,5.1-4,8.3-5.2c1.9-0.8,3.7-2.9,4.7-4.8c2.2-4.3,5.8-5.9,10.2-5.9
		c3.3,0,6.6,0.2,9.6,2c0.5,0.3,1.2,0.6,1.6,1c1.9,2.4,5,3.2,7.3,5c0.7,0.6,1.8,0.6,2.6,1c1.5,0.8,3.3,1.4,4.3,2.6
		c2.7,3.6,4.6,7.7,3.7,12.5c-0.4,2.2-0.3,2.3,1.8,2.8c0.8,0.2,1.6,0.4,2.4,0.7c2,0.7,3.5,0.1,4.1-2c0.3-1.2,0.5-2.5,0.6-3.8
		c0.3-2.7,1.5-3.8,4.2-3.7c1.7,0.1,3.4,0.4,5.1,0.8c2.2,0.5,4.3,1.2,6.5,1.8c0.5,0.2,1,0.4,1.4,0.7c1.9,1.3,1.8,3.4-0.3,4.2
		c-2.4,0.9-4.9,1.3-7.4,2c-2.4,0.6-4.7,1.1-7.1,1.8c-0.6,0.2-1.1,0.6-1.6,1c-1.1,0.7-1.4,1.6-0.4,2.6c2.2,2.5,2.7,5.5,2.8,8.7
		c0.2,5.8-3.1,7.7-6.7,8.9c-0.4,0.1-0.8,0.2-1.2,0.3c-3.5,0.8-6.5,1.9-7.3,6.3c-0.6,3.1-3.3,5.2-6.2,6.6c-1.7,0.8-2.6,2-3,3.8
		c-0.5,2.8-1.2,5.6-1.8,8.4c-0.1,0.3,0,0.7-0.1,0.9c-0.5,0.7-1.1,1.8-1.8,1.9c-1.3,0.3-1.4-1.1-1.5-2c-0.3-2.5-0.6-5.1-0.8-7.7
		c-0.3-2.5-0.4-2.6-2.9-2.8c-1.4-0.1-2.8-0.3-4.2-0.4c-2.3-0.2-3.1,0-4,2.3c-1.1,3-1.8,6.1-2.7,9.2c-0.1,0.5-0.1,1.1-0.2,1.6
		c-0.2,1.1-0.6,2.3-1.9,2.1c-0.7-0.1-1.5-1.1-1.8-1.9c-0.6-2.1-1-4.4-1.4-6.6c-0.5-2.7-0.5-2.7-3.1-3.3c-0.7-0.2-1.4-0.4-2.2-0.6
		c-3.4-1-5.3-3.3-6.3-6.6c-0.5-1.8-1.4-3.5-2.3-5.2c-0.6-1.2-1.6-1.5-2.4-0.1c-0.6,1-1.2,2-1.7,3c-0.9,2-1.7,4.2-2.6,6.2
		c-0.3,0.7-0.7,1.3-1.2,1.8c-1,0.8-1.9,0.5-2-0.8c-0.1-1.2,0-2.3,0-3.5C391.3,135.7,391.3,135.7,391.3,135.7z"/>
	<path class="black" fill="#000000" d="M482,47.5c0.1,3.6,0,6.4-1.6,9.1c-1.8,3.1-4.6,4.3-7.9,4.8c-1.2,0.2-2.3,0.3-3.5,0.4c-1.5,0.1-2.3,1-3.2,2.2
		c-1.2,1.5-3.2,2.4-4.7,3.6c-1.8,1.4-3.6,1.7-5.7,0.7c-1.2-0.6-1.4,0.4-1.9,1.1c-1.5,2.1-3.5,3.4-6.2,3.4c-1.7,0-3.2-0.4-4.1-1.9
		c-0.7-1.2-1.6-1.5-3-1.3c-0.9,0.1-1.9-0.1-2.9,0c-3.4,0.1-5.6-1.6-7.2-4.5c-1.7-3.1-4-5.3-7.4-6.5c-4.1-1.5-6.7-4.4-7.7-8.8
		c-0.4-2-0.3-3.8,1.1-5.4c2.1-2.4,2.9-5.4,2.8-8.3c-0.2-4.2,1.7-6.9,4.9-9.1c4-2.6,8.3-4.8,13.2-5.1c0.6,0,1.3-0.2,1.9-0.1
		c3.7,0.7,7.2-0.7,10.6-1.6c5-1.3,10-1.8,15,0.1c4.2,1.6,6.6,4.5,7.8,8.7c0.4,1.5,1,2.6,2.2,3.7c1.9,1.8,3.6,3.9,5,6.1
		C481.7,41.5,482.3,44.8,482,47.5z"/>
	<path class="black" fill="#000000" d="M459.3,85.3c-2.3,0-3.5-0.9-4.1-2.6c-0.6-1.8-0.3-3.3,1.1-4.2c1.1-0.7,2.4-1.4,3.7-1.8c1.5-0.5,3,0,4,1.2
		c0.9,1.1,0.8,2.5,0.1,3.6C462.9,83.5,461,84.8,459.3,85.3z"/>
	<path class="black" fill="#000000" d="M419.2,171.6c2.5,0,3.8,0.6,3.6,1.6c-0.2,1.3-1.2,1.9-2.5,2c-1.4,0.1-2.7-0.9-2.5-2.2
		C418,172.3,418.9,171.8,419.2,171.6z"/>
	<path class="black" fill="#000000" d="M412.6,162c0.2,1.1,0.6,2.3,0.5,3.4c-0.1,1.1-1.9,1.7-2.8,1.3c-1.2-0.5-1-1.7-0.6-2.4c0.5-0.9,1.4-1.6,2.2-2.4
		C412.1,161.9,412.4,161.9,412.6,162z"/>
	<path class="black" fill="#000000" d="M404.3,153c-0.6,0.4-1.3,1.4-2.3,1.5c-0.9,0.1-1.7-0.8-1.5-2c0.2-1,0.2-2.2,1.6-2.4
		C403.1,149.9,404.4,151.3,404.3,153z"/>
	<path class="black" fill="#000000" d="M442.3,162.3c-1,0.7-1.6,1.5-2.3,1.7c-1,0.3-1.5-0.5-1.6-1.4c-0.1-1.3,0.8-2.9,1.6-2.6
		C440.8,160.3,441.3,161.3,442.3,162.3z"/>
	<path class="black" fill="#000000" d="M395,165.6c1.1-1,1.8-1.7,2.5-2.4c0.5,0.7,1.3,1.4,1.4,2.2c0.2,1-0.5,1.9-1.7,1.8
		C396.6,167,396,166.3,395,165.6z"/>
	<path class="black" fill="#000000" d="M432.8,163.6c-1.1,1-1.6,1.8-2.4,2.1c-0.9,0.4-1.9-0.8-1.9-2c0-1,0.7-1.6,1.6-1.5
		C430.9,162.4,431.6,163,432.8,163.6z"/>
	<path class="black" fill="#000000" d="M450.6,153.5c0,1.7-0.7,2-1.7,2c-1.3-0.1-1.5-1-1.5-2c-0.1-1,0.4-1.9,1.4-1.6
		C449.6,152.1,450.2,153.1,450.6,153.5z"/>
	<path class="black" fill="#000000" d="M463.1,153.9c1,0.7,1.7,1.2,2.4,1.7c-0.6,0.7-1.1,1.3-1.7,2c-0.6-0.7-1.3-1.2-1.6-2
		C462.1,155.3,462.7,154.6,463.1,153.9z"/>
	<path class="black" fill="#000000" d="M451.5,168.5c-0.8-1.2-1.5-1.9-1.4-2.5c0.1-0.6,0.9-1.3,1.6-1.5c0.9-0.3,1.9,0.2,1.6,1.3
		C453.1,166.5,452.4,167.2,451.5,168.5z"/>
	<path class="white" fill="#FFFFFF" d="M412.6,85.4c1.1,0.1,2.1,0.3,3.2,0.3c0.6,0,1.3-0.1,1.8-0.4c1.1-0.7,1-1.8-0.2-2.4c-2.2-1-2.3-1.4-1.6-3.5
		c0.9-2.8,4.1-5.1,7.5-5c4.7,0.1,8.8,1.5,12,5.2c1.7,1.9,2.6,4.1,2.9,6.7c0.1,0.7,0,1.6,0.2,2.2c0.2,0.6,0.9,0.9,1.3,1.4
		c0.4-0.5,1.1-1,1.3-1.6c0.2-0.7,0-1.5,0-2.2c-0.1-2.3,0.5-2.8,2.7-2.5c0.3,0,0.6,0.1,0.9,0.3c3.8,1.4,6.8,10,4.5,13.4
		c-0.5,0.7-1.7,1.4-2.6,1.4c-5.5-0.2-10.7,1.4-15.9,3c-0.4,0.1-1.3-0.3-1.5-0.7c-0.6-1.1-1-2.3-1.4-3.5c-0.4-1.1-0.5-2.3-1-3.4
		c-0.7-1.7-2.4-2.3-4.2-1.9c-5.3,1.3-9,4.7-11.9,9.1c-0.5,0.8-0.8,2.1-0.5,2.9c0.5,1.3,2,1.7,3.3,1.3c2.5-0.8,5-1.8,7.6-2.6
		c1.2-0.4,2.5-0.6,3.7-0.7c0.5,0,1.3,0.5,1.5,1c0.2,0.4-0.3,1.1-0.6,1.6c-0.1,0.2-0.3,0.3-0.5,0.4c-3.9,3.1-4.3,7.1-3.3,11.6
		c1.1,5.1,4.4,8,9.4,8.7c4.7,0.7,9.5,1.1,14.3,1.6c1.7,0.2,2.1,0.8,1.1,2.2c-1,1.4-1.8,2.9-4,2.6c-0.5-0.1-1.5,0.3-1.6,0.8
		c-0.9,2.1-2.9,2.1-4.6,2.4c-3.8,0.6-7.6,0.8-11.4-0.3c-2.2-0.7-2.2-0.6-2.8,1.6c-0.2,0.6-0.5,1.3-1,1.5c-4.2,1.7-8.3,1.7-12.3-0.6
		c-1.6-0.9-2.4-2.5-2.7-4.2c-0.4-2.6-0.6-5.3-0.9-7.9c-0.2-2-0.3-1.9-2.3-1.4c-2.1,0.5-4.4,0.9-6.5,0.5c-2.1-0.4-3-2.5-3.5-4.6
		c-0.9-3.7-0.1-7.2,1.8-10.5c1.7-3,3.9-5.6,7.2-7c0.4-0.2,0.7-0.4,1.1-0.6c1-0.5,1.6-1.3,1-2.3c-0.7-1.3-1.5-0.4-2.4,0
		c-1.7,1-2.4,0.6-2.8-1.3c-0.7-3.1,1.2-7.3,4.3-9.4C406.2,86.4,409,84.7,412.6,85.4z"/>
	<path class="white" fill="#FFFFFF" d="M433.7,122c-4.6,0-7.9-2.4-8.7-6.5c-1-4.8,0.9-9.1,5.1-10.9c1.4-0.6,2.8-1.2,4.2-1.5c4.6-1,9.4,2.1,11.5,5.8
		c0.6,1,0.7,2.5,0.4,3.6C445.2,116.9,439.4,122.2,433.7,122z"/>
	<path class="white" fill="#FFFFFF" d="M451.2,101.8c3.1,0.1,5.4,1.4,6.8,3.9c1.2,2,2.4,4.1,3,6.3c1.5,5.1-2.1,8.9-7.4,8.1c-0.7-0.1-1.5-0.3-2.2-0.5
		c-1.3-0.4-2.6-0.9-3.9-1.3c0.5-1.1,1-2.3,1.4-3.4c1.2-3.5,1.3-6.7-1.9-9.3c-1.1-0.9-0.9-1.6,0.2-2.2
		C448.5,102.7,449.9,102.3,451.2,101.8z"/>
	<path class="white" fill="#FFFFFF" d="M479.1,48.5c0,0.8,0,2-0.2,3.1c-0.9,5.4-4.7,7.7-10.3,7.1c-0.3,0-0.6-0.2-0.9-0.3c-1.9-1-1.8-1-2.6,0.7
		c-0.3,0.7-0.6,1.4-1,2c-2.6,4.7-6.1,5.4-10.5,2.3c-4.1-3-6.3-2.7-9.5,1.1c-2.6,3.1-8.6,3.1-11-0.1c-0.5-0.6-0.7-1.5-0.9-2.3
		c-0.4-1.2,0.6-1.3,1.3-1.8c0.4-0.3,0.7-1.3,0.6-1.9c-0.1-0.3-1-0.8-1.5-0.7c-4,0.7-7.3-1.1-10.7-2.7c-2.5-1.2-3.7-3.6-4.3-6.1
		c-0.5-2.3,1.2-4.7,4.2-6.1c1.3-0.6,2.6-1.3,4-2c0.9-0.4,1.3-0.8,0-1.4c-4.7-2.3-5.3-6.2-1.4-9.6c5-4.3,11-6,17.6-5.7
		c0.9,0,2.1,0.3,2.7,0.9c0.5,0.6,0.4,1.7,0.7,2.6c0.1,0.4,0.4,0.8,0.7,0.9c0.3,0,0.7-0.3,1-0.6c0.2-0.2,0.3-0.6,0.5-0.8
		c4.9-7.9,17.1-7.6,21.4,0.8c0.9,1.8,0.8,4.1,1.1,6.2c0.1,0.8-0.2,1.7-0.1,2.6c0,0.6,0.4,1.1,0.6,1.7c0.5-0.3,1.1-0.5,1.5-0.9
		c0.7-1,1.4-0.7,2.1-0.1c2.6,1.9,4.2,4.5,4.7,7.7C479.1,46.2,479,47.1,479.1,48.5z"/>
	<path class="white" fill="#FFFFFF" d="M447.7,69.8c-1.1,0.1-2-0.3-2.1-1.7c-0.1-1.4,1.9-3.9,3.2-4c1.2-0.1,2.8,1.3,2.9,2.5
		C451.8,67.8,449.5,69.7,447.7,69.8z"/>
	<path class="white" fill="#FFFFFF" d="M459,82.5c-0.6-0.7-1.1-1-1.1-1.4c-0.1-1,1-2.1,2-1.9c0.5,0.1,1,0.9,1.4,1.3C460.6,81.2,459.9,81.8,459,82.5z"
		/>
	<path class="black" fill="#000000" d="M437.3,112.3c-1.6-0.2-2.4-0.9-2.6-2.1c-0.2-0.8,1.3-1.8,2.6-1.8c1.1,0,2.4,1,2,2
		C438.9,111.2,438,111.7,437.3,112.3z"/>
	<path class="black" fill="#000000" d="M454.8,111.7c-2-0.1-3.3-1.2-2.9-2.4c0.2-0.7,1-1.5,1.6-1.7c1.1-0.3,2.9,1.6,2.5,2.7
		C455.8,111,455.1,111.5,454.8,111.7z"/>
	<path class="heart" fill="#AD0000" d="M441.6,35.8c1.5,0.4,3.3,0.8,4.9,1.5c1.4,0.7,2.3,0.7,3.4-0.6c2.3-2.6,5.4-4.2,8.7-5.2
		c2.5-0.8,4.4,0.2,4.7,2.7c0.2,1.6,0,3.6-0.8,4.9c-1.6,2.6-3.6,5-5.8,7.2c-2.4,2.5-4.5,5.2-5.4,8.6c-0.3,1.3-0.8,1.6-1.9,0.9
		c-4-2.5-8-4.8-11.9-7.4c-2.9-1.9-3.5-5.1-3.2-8.3c0.2-1.7,1.7-3.1,3.5-3.7C438.9,36.2,440.1,36.1,441.6,35.8z"/>
</g>
<g>
	<path class="black" fill="#000000" d="M296,118.2c-0.2-3,1.4-4.8,3.1-6.7c0.4-0.4,0.9-0.6,1.3-1c0.7-0.6,1.9-0.9,1.3-2.2c-0.5-1-1.4-0.7-2.5-0.7
		c-4.4,0.1-8.8,0-13.1-0.2c-1.6-0.1-2.3-1-2.1-2.6c0.2-0.9,0.4-2,1-2.6c3.1-3.4,6.8-5.8,11.5-6.4c3.4-0.4,5,1,5.3,4.4
		c0.1,1.3,0,2.6,0.3,3.8c0.5,2.4,1.7,3.1,4.1,2.7c0.6-0.1,1.3-0.3,1.9-0.3c1.7-0.2,3.4-0.3,5.1-0.5c-0.2-1.5-0.7-3.1-0.5-4.6
		c0.8-5,2.4-8,8.7-9.1c3.3-0.6,5.3-2.2,7.3-4.9c3.9-5.3,8.9-9.2,15.8-10c3.7-0.4,7,0.5,9.7,3.2c0.4,0.4,1,1,1.5,1.1
		c2.6,0.3,4.9,1.8,7.7,1.9c7.6,0.3,13.2,5.3,15.8,12.6c1.5,4.1,1.6,7.7-1.1,11.1c-0.7,0.9-0.3,1.8,0,2.7c0.7,2.1,1.6,4.3,1.8,6.4
		c0.4,4.3-1.1,8.2-3.7,11.7c-0.9,1.2-1.2,2.1-1,3.7c0.3,2.4,0.1,4.9-0.4,7.3c-0.2,1.4-1,3-2,3.9c-1.5,1.3-2.1,2.9-2.4,4.7
		c-0.5,2.4-1,4.8-1.3,7.3c-0.2,1.1-0.2,2.3-1.6,2.4c-1.3,0.1-1.3-1.1-1.6-2c-1-2.4-1.9-4.8-3.1-7c-0.8-1.6-1.2-1.6-2.7-0.4
		c-2,1.6-4.4,2.8-5.9,4.8c-1.9,2.4-3,5.4-4.5,8.1c-0.6,1-1.1,2.1-1.8,2.9c-0.7,0.8-1.6,0.8-2-0.3c-0.4-1.2-0.7-2.4-0.9-3.7
		c-0.3-2-0.4-4-0.8-6c-0.2-0.8-0.9-1.7-1.6-2.2c-1.7-1.5-3.5-2.8-5.3-4.1c-0.6-0.4-1.5-0.6-2.2-0.5c-4.5,0.9-7.1,3.9-8.6,8.2
		c-0.6,1.8-1.2,3.6-1.8,5.5c-0.2,0.5-0.2,1.1-0.6,1.5c-0.4,0.4-1.1,0.7-1.6,0.7c-0.3,0-0.7-0.7-0.8-1.1c-0.3-1.1-0.4-2.3-0.5-3.5
		c-0.3-1.9-0.5-3.8-0.8-5.7c-0.4-2.5-1.2-4.5-3.4-6.2c-2.3-1.8-3.9-4.5-4.5-7.6c-0.2-0.9-0.4-1.9-0.6-2.8c-0.5-1.9-1.5-3-3.7-3.3
		c-4.5-0.7-7.2-4.1-9.3-7.7C297.2,123,296.7,120.5,296,118.2z"/>
	<path class="black" fill="#000000" d="M331.2,22.5c5.3,0.1,8.9,2.8,11,7.5c1.1,2.3,2.6,4.1,4.8,5.4c4.3,2.5,7.2,6.1,7.2,11.3c0,1.9-0.3,3.9-1.1,5.5
		c-0.5,1.1-0.5,1.9-0.2,3c0.4,1.9,0.9,3.8,1,5.7c0.1,2.9-1.1,5.2-3.7,6.6c-2.1,1.1-4.2,1.8-6.6,2.2c-2.9,0.5-5.6,1.8-8.5,2.6
		c-1.8,0.5-3.7,1.2-5.6,1.3c-1.7,0.1-3,0.7-4.3,1.7c-1.2,0.9-2.5,1.7-3.8,2.4c-2.3,1.3-4.6,0.8-6.7-0.4c-1.2-0.7-1.8-1.5-1.8-3.1
		c0.1-2.3-0.4-2.6-2.9-2.7c-4.1-0.2-5.2-1.1-6.6-5.1c-0.9-2.6-2.2-5-4.9-6.4c-1.5-0.8-3-2.1-4-3.5c-1.9-3-1.4-6.4,0.9-8.6
		c3.5-3.4,3.7-7.8,4.1-11.9c0.7-8.6,3.3-8.9,8.6-9.6c2.3-0.3,4.7-0.5,7-0.6c4.1-0.1,7.9-1.2,11.7-2.6
		C328.2,22.7,329.7,22.7,331.2,22.5z"/>
	<path class="black" fill="#000000" d="M308.1,82.8c1.1,0.5,2.4,0.8,3.4,1.4c1.6,1.1,1.8,3,0.6,4.5c-1.6,2-3.7,3.2-6.3,3.3c-2.5,0.1-4.2-2.1-3.6-4.4
		C302.8,85.2,305.6,83.1,308.1,82.8z"/>
	<path class="black" fill="#000000" d="M358,171.8c-0.8-1.5-1.6-2.4-1.8-3.4c-0.2-1.4,1.1-1.6,2.1-1.7c1.3-0.1,2.9,1,2.5,1.8
		C360.4,169.5,359.3,170.3,358,171.8z"/>
	<path class="black" fill="#000000" d="M328.9,174.9c-1.5,1.2-2.5,2.3-3.7,2.6c-1,0.3-1.5-0.9-1.5-2c0-1.2,1.5-2.4,2.7-2.1
		C327.1,173.6,327.7,174.2,328.9,174.9z"/>
	<path class="black" fill="#000000" d="M388.1,156.5c-1.4,1.1-2.1,2-2.9,2.3c-1.2,0.3-1.7-0.8-1.6-1.8c0-0.6,0.6-1.8,0.8-1.8
		C385.4,155.4,386.4,155.9,388.1,156.5z"/>
	<path class="black" fill="#000000" d="M347.8,177.1c-1.3,0.9-2,1.5-2.7,1.7c-0.8,0.2-1.7,0-1.7-1.2c0-1.1,0.3-2,1.5-1.9
		C345.7,175.7,346.4,176.4,347.8,177.1z"/>
	<path class="black" fill="#000000" d="M375.7,165.1c-1,0.6-1.6,1.2-2.3,1.3c-1.2,0.1-1.5-1-1.5-2c0.1-0.9,0.4-2.2,1.6-1.9
		C374.3,162.7,374.8,164,375.7,165.1z"/>
	<path class="black" fill="#000000" d="M309.1,175c-0.7-1.3-1.3-1.9-1.4-2.6c-0.3-1.3,0.9-1.7,1.8-1.6c0.5,0,1.5,0.9,1.5,1.1
		C310.6,172.8,310,173.6,309.1,175z"/>
	<path class="black" fill="#000000" d="M308,155.1c0.3,0.3,1,0.9,1.1,1.5c0.2,1-1.2,2.3-2.2,2.1c-0.4-0.1-0.9-0.8-0.9-1.2
		C306,156.4,306,155.3,308,155.1z"/>
	<path class="black" fill="#000000" d="M296.4,162.9c-1.2,0.9-1.8,1.8-2.5,1.9c-1,0.2-1.4-0.6-1.4-1.6c0-0.9,0.3-1.8,1.4-1.6
		C294.6,161.7,295.2,162.2,296.4,162.9z"/>
	<path class="black" fill="#000000" d="M332.2,168.3c-0.4-1.3-0.7-2-0.7-2.6c0-0.9,0.3-1.9,1.4-1.6c0.5,0.1,1.3,1.1,1.2,1.5
		C333.9,166.4,333.1,167,332.2,168.3z"/>
	<path class="white" fill="#FFFFFF" d="M318.8,133.7c1.9,0.2,3.8,0.4,5.7,0.7c8.4,1.6,17-3.7,18.9-12.9c0.5-2.2-0.8-4.8-1.4-7.1
		c-0.4-1.4-1.8-2.6-0.9-4.2c1-1.6,2.4-3,4.4-3.5c2.5-0.6,5-1.3,7.5-1.9c1.7-0.4,2.7-1.5,3.3-3.2c0.3-0.9,0.1-1.5-0.6-1.8
		c-3.7-1.8-7.4-3.5-11.6-3.1c-3.2,0.3-3.7,0.9-4.2,4c-0.3,2.2-0.8,4.4-1.2,6.6c-0.3,1.6-1.3,2.2-2.8,1.5c-2.5-1.1-5.2-1.2-7.9-1.2
		c-1.1,0-2.3-0.3-3.4-0.6c-2.1-0.5-4-1.4-6.1-1.7c-1.8-0.3-2.6-1.3-2.8-2.9c-0.3-2.4,0.3-4.4,2.4-5.9c2.2-1.5,4.6-1.7,7-1.6
		c0.7,0,1.3,0.8,1.9,1.4c0.4,0.5,0.6,1.1,0.9,1.7c0.1,0.2,0.6,0.4,0.8,0.3c0.3-0.2,0.7-0.5,0.8-0.9c0.1-0.6,0.1-1.3-0.1-1.9
		c-0.7-2.6,0.3-4.9,1.8-6.9c3.1-4.2,7.4-6.9,12.4-8c3.5-0.8,7.1-0.2,9.6,3c0.7,0.9,1.5,1.8,0.6,3.1c-0.5,0.9,0,1.4,1,1.3
		c0.6-0.1,1.3-0.2,1.9-0.5c4.6-1.9,9.1-1.3,13.2,1.2c4.4,2.7,6.6,7.1,7.6,12.1c0.6,3.1-1.9,4.5-3.4,6.4c-0.5,0.6-1.2,0.9-1.7,1.5
		c-0.5,0.6-0.9,1.3-1.3,1.9c0.7-0.1,1.4-0.3,2.1-0.2c0.8,0.2,1.7,0.5,2.1,1.1c3.6,4.9,1.5,14.8-3.8,17.7c-1.1,0.6-2.6,0.8-4,1
		c-1.1,0.1-2.3-0.3-3.5-0.4c-0.5,0-1,0.2-1.5,0.4c0.4,0.4,0.7,1.1,1.2,1.2c1.7,0.4,3.6,1.1,5.3,0.8c2-0.3,2.7,0.5,3.4,2
		c1.1,2.6,0.3,4.8-1.3,6.9c-1.6,2-3.7,2.9-6.2,2.8c-1,0-1.5-0.6-1.2-1.7c0.3-1,1-2.2-0.3-2.8c-0.3-0.1-1.3,1.3-1.9,2.1
		c-0.6,0.8-1,1.6-1.5,2.4c-4.8,7.6-13.3,7.9-19.5,2c-0.9-0.9-1.7-2-2.5-2.9c-1.2-1.4-2.4-1.3-2.8,0.3c-0.4,1.7-1.4,1.9-2.7,2.2
		c-3.5,1-7,1.2-10.4,0.3c-3.2-0.8-4.8-3.4-6.3-6c-0.4-0.6-0.6-1.4-0.7-2.1c-0.2-1.2-0.3-2.5-0.4-3.8c1.1-0.1,2.2-0.1,3.3-0.2
		c0.3,0,0.6,0,1,0C318.7,134,318.8,133.9,318.8,133.7z"/>
	<path class="white" fill="#FFFFFF" d="M317.4,119.6c0.3-1.5,0.6-3.6,1.3-5.6c0.7-2.3,2-2.9,4.6-3.1c1.2-0.1,2.4-0.6,3.7-0.8c1-0.2,2.2-0.7,3-0.4
		c2.4,0.8,4.8,1.7,7,3.1c5.1,3.1,5,10,1.4,13.6c-2.3,2.3-4.6,4.2-7.9,5.1c-5.9,1.6-10.9-1.4-12.5-7.8
		C317.7,122.6,317.7,121.4,317.4,119.6z"/>
	<path class="white" fill="#FFFFFF" d="M299.8,118.1c0.2-2.2,0.7-4.3,2.5-5.9c2.4-2,5.1-3.3,8.2-3.1c1.6,0.1,3.2,0.9,4.7,1.7c1.3,0.7,1.8,2,1,3.5
		c-1.5,3-1.3,6.2-0.9,9.4c0.4,2.5,0.1,2.9-2.2,3.8c-0.7,0.3-1.5,0.4-2,0.9c-1.8,1.7-3.6,1.1-5.2-0.1
		C302.4,125.8,300.2,122.5,299.8,118.1z"/>
	<path class="white" fill="#FFFFFF" d="M311.9,28.5c1,0.1,1.5,0.2,2.1,0.2c1.5,0.1,2.8,0.3,2.1,2.4c-0.2,0.5,0.1,1.3,0.4,1.8c0.2,0.4,0.8,0.6,1.3,0.7
		c0.3,0,0.8-0.5,0.8-0.8c0-4.1,3.4-4.8,6.1-6.1c3.3-1.5,7-1.6,10.3-0.2c4.1,1.7,6.2,6.1,3.7,10.3c-0.2,0.4-0.5,0.7-0.6,1.1
		c-0.1,0.4,0.1,0.9,0.1,1.4c0.4-0.1,0.8-0.2,1.1-0.4c0.4-0.2,0.7-0.6,0.9-0.9c2-2.2,2.2-2.2,4.7-0.6c2.7,1.8,5.1,3.9,6.1,7.2
		c1.1,3.5,0.6,6.5-2.5,8.9c-0.6,0.5-1.1,1-1.6,1.6c-0.2,0.3-0.2,0.7-0.1,1.1c0,0.1,0.6,0.2,0.8,0.2c2.6-0.2,2.6-0.2,3.1,2.1
		c1.2,5.3-3.6,9.9-9,8.5c-0.4-0.1-0.8-0.8-1.1-1.2c-0.1-0.1,0.2-0.4,0.1-0.6c-0.3-0.6-0.6-1.2-1-1.8c-0.5,0.5-1.1,0.9-1.3,1.4
		c-1.9,4.2-5.1,6.2-9.6,6.1c-1.5,0-2.7-0.4-3.7-1.5c-2.6-2.6-5.5-3.1-8.7-1.2c-2.4,1.4-4.9,1-7.4,0.8c-1.8-0.1-2.9-1.4-3.5-2.9
		c-0.7-1.6-0.2-2.8,1.6-3.5c1.1-0.4,1.1-1.3,0-1.8c-1.8-0.8-3.6-1.4-5.4-2c-0.7-0.3-1.4-0.5-2.1-0.8c-4.1-2.1-4.9-5.9-2-9.5
		c0.8-1,1.8-1.9,2.7-2.7c1-0.9,2.1-1.4,3.4-0.3c0.3,0.3,1.5,0.2,1.6,0c0.2-0.6,0.3-1.5,0-2c-0.7-1.3-2-2.3-2.5-3.7
		c-0.7-1.7-1.1-3.7-1.2-5.5c-0.1-2.2,1.6-4,4.2-4.6C308.1,29,310.2,28.8,311.9,28.5z"/>
	<path class="white" fill="#FFFFFF" d="M319.9,69.6c0.6,0.3,1.5,0.5,2.3,1.1c1.5,1.1,1.5,2.4,0,3.6c-0.9,0.7-2,1.3-3,1.5c-1.7,0.3-3.4-1-3.5-2.5
		c-0.2-1.3,0.9-2.9,2.4-3.4C318.5,69.8,319,69.7,319.9,69.6z"/>
	<path class="white" fill="#FFFFFF" d="M310.2,86.8c-0.4,0.5-0.5,0.8-0.7,1c-0.4,0.3-0.8,0.6-1.3,0.9c-0.9,0.5-1.9,1.3-2.8,0.3
		c-0.3-0.3-0.2-1.2,0-1.6c0.5-1.2,1.4-1.9,2.7-1.6C308.7,85.9,309.4,86.4,310.2,86.8z"/>
	<path class="black" fill="#000000" d="M322.6,120.8c0-1.4,0.9-2.7,2.1-2.7c1.4-0.1,2.8,1.4,2.8,2.9c0.1,1.6-1.4,3.3-2.8,3.3
		C323.7,124.2,322.7,122.6,322.6,120.8z"/>
	<path class="black" fill="#000000" d="M304.1,121.5c0-1.8,1.2-3.3,2.1-3.3c0.9,0,2.2,1.2,2.1,2c-0.1,1.3-1.8,3.1-2.9,2.8
		C304.8,122.7,304.3,121.8,304.1,121.5z"/>
	<path class="heart" fill="#AD0000" d="M313.2,47.8c-0.1-4.8,1.7-6.3,5.6-5.2c1.5,0.4,2.9,1.3,4.2,2.2c1,0.7,1.7,1,2.9,0.3c1.1-0.7,2.3-1.2,3.5-1.7
		c0.9-0.4,2-1.2,2.8-0.9c1.5,0.4,3.1,1.2,4.1,2.3c1.9,2.2,1.9,5.5-0.3,7.2c-1.6,1.3-3.1,2.7-4.9,3.6c-2.8,1.4-5.3,3.1-7.4,5.4
		c-0.7,0.8-1.6,1.4-2.4,0.4c-2.7-3.3-5.5-6.6-7.1-10.6C313.5,49.7,313.3,48.4,313.2,47.8z"/>
</g>
<g>
	<path class="black" fill="#000000" d="M163.6,103.3c-0.9,2.7,0.6,5.3,1.9,8c1.3,2.7,2.4,5.6,2.8,8.5c0.5,4,0.1,8.1-4.1,10.7
		c-0.9,0.6-1.7,1.9-1.9,3.1c-0.5,2.5-1.4,4.7-2.9,6.7c-1.1,1.4-1.6,2.9-1.9,4.7c-0.4,2.2-1.2,4.3-1.9,6.4c-0.2,0.5-0.7,0.9-1,1.4
		c-0.6-0.4-1.3-0.8-1.6-1.3c-0.6-1.1-0.9-2.4-1.4-3.6c-0.6-1.7-1.5-2.8-3.5-2.3c-0.5,0.1-1.1,0.2-1.6,0c-4.5-1.9-7.5,1.9-11.1,3.2
		c-0.7,0.3-1.2,1.4-1.6,2.2c-0.6,1.7-1.1,3.5-1.6,5.2c-0.2,0.6-0.3,1.3-0.7,1.8c-0.8,1.2-2.2,1-2.6-0.4c-0.4-1.1-0.6-2.3-0.7-3.4
		c-0.1-2.1-1-3.5-3.2-3.7c-2.2-0.2-3.6-1.8-5-3.2c-1.2-1.2-2.4-1.6-4-1.4c-1,0.2-2.2,0.3-3.2,0.1c-1.9-0.4-2.8,0.4-3.3,2.1
		c-0.6,1.8-1.1,3.7-1.6,5.5c-0.2,0.6-0.2,1.3-0.6,1.8c-0.3,0.4-1,0.7-1.3,0.6c-0.5-0.2-0.9-0.8-1-1.4c-0.6-2.5-1.1-5-1.6-7.5
		c-0.6-3.1-1.9-5.8-3.6-8.5c-2.1-3.2-3.1-6.8-2.8-10.6c0.1-2.1-0.6-3.2-2.3-4c-1.2-0.5-2.3-1.1-3.5-1.6c-6.5-2.9-8.6-9.7-4.6-15.6
		c1.1-1.6,2.7-3,4-4.5c1-1.1,1.1-1.9-0.2-2.5c-2.2-0.9-4.4-2.2-7-1.9c-1.8,0.2-3.6,0.4-5.4,0.5c-0.6,0-1.3,0-1.9-0.1
		c-0.7-0.2-1.7-0.6-1.8-1c-0.1-0.7,0.3-1.6,0.9-2.2c3.3-3.4,7.2-6,11.5-8c3.3-1.5,4.7-0.9,5.4,2.8c0.6,2.8,0.8,5.7,1.1,8.5
		c0.2,1.8,0.3,2,1.8,1.5c2.4-0.8,4.8-1,7.3-0.7c1.1,0.1,1.7-0.1,1.8-1.5c0.5-5.7,3.4-9.5,9-10.5c4.1-0.8,7-3,9.8-5.6
		c2.7-2.5,5.6-4.6,9.3-5.4c5.3-1.2,7-0.7,10.1,3.6c1.8,2.5,3.8,4.1,7,4.2c7.6,0.2,13.8,8.3,14,14.4
		C163.3,99.9,163.4,101.4,163.6,103.3z"/>
	<path class="black" fill="#000000" d="M157.5,46.9c-0.1,6.5-3.4,10.8-8.7,12c-3,0.7-5.4,2.4-7.4,4.8c-2.6,3.2-5.6,5.7-9.8,6.9
		c-2.9,0.8-5.6,1-8.3-0.4c-0.6-0.3-1.6-0.1-2.3,0.1c-1,0.4-1.8,1.1-2.8,1.5c-3.5,1.5-7.1,0.3-8.4-3.2c-0.6-1.6-1.3-2-2.9-2.3
		c-3.4-0.5-5.7-3-6-6.5c-0.1-1.5-0.7-2.1-1.9-2.4c-2.8-0.8-4.6-2.6-5.3-5.4c-0.2-0.6-0.5-1.2-0.8-1.8c-2.2-5-1.3-8.5,3.2-11.7
		c2.2-1.6,3.9-3.5,4.5-6.4c0.6-2.9,2.8-4.7,5.4-6c0.9-0.5,2-0.8,3-1.1c3.1-0.9,6.2-1.5,8.8-3.6c0.5-0.4,1.4-0.5,2.1-0.7
		c1.8-0.6,3.7-1,5.4-1.8c3.5-1.7,6.9-1.7,10.4,0c4.5,2.1,7.9,5.2,10.3,9.6c1.1,2,2.7,4,4.7,5.2c3.4,2,4.8,5.1,6,8.4
		C157.2,43.9,157.3,45.9,157.5,46.9z"/>
	<path class="black" fill="#000000" d="M97.6,81.4c0-3.1,2.7-5.6,5.8-5.4c0.4,0,0.8,0.2,1.3,0.2c1.4,0.1,2.8,0.3,3.4,1.8c0.6,1.7-0.1,3.2-1.2,4.4
		c-1.3,1.4-2.5,2.8-4.7,3.1C99.1,85.7,97.6,84.5,97.6,81.4z"/>
	<path class="black" fill="#000000" d="M98.2,173.7c-1.6,0-2.3-1.2-1.6-2.1c0.8-1,1.8-1.7,2.9-2.4c0.2-0.1,1.1,0.2,1.2,0.5c0.3,0.6,0.7,1.7,0.4,2
		C100.1,172.6,98.9,173.3,98.2,173.7z"/>
	<path class="black" fill="#000000" d="M85.7,165.2c-0.1-2,1-3.5,2.5-3.6c1-0.1,2,0,2,1.4c0,1.3-1.9,3.3-3.1,3.1C86.5,166.1,86,165.4,85.7,165.2z"/>
	<path class="black" fill="#000000" d="M113.5,164.5c-0.3-0.2-1.5-1.1-1.4-1.2c0.7-1.2,1.6-2.3,2.5-3.5c0.6,0.8,1.4,1.5,1.7,2.4
		C116.5,163.4,115.2,164.5,113.5,164.5z"/>
	<path class="black" fill="#000000" d="M165.8,152.7c1.9,0,2.6,1,2,2.1c-0.2,0.4-0.4,0.9-0.7,1c-1,0.4-2.1,0.6-3.2,0.8c0,0-0.4-0.9-0.3-1.1
		C164.3,154.5,165.2,153.4,165.8,152.7z"/>
	<path class="black" fill="#000000" d="M117,175.5c-1,1-1.5,1.9-2.3,2.2c-1.3,0.4-2.4-0.6-2.4-1.8c0-1.1,0.6-2,1.7-1.9
		C114.8,174,115.6,174.8,117,175.5z"/>
	<path class="black" fill="#000000" d="M153.7,164.3c0.7,0.7,1.5,1.3,1.4,1.5c-0.4,1-0.8,2.4-1.6,2.7c-1,0.4-1.5-1.1-1.3-1.9
		C152.3,165.9,153,165.3,153.7,164.3z"/>
	<path class="black" fill="#000000" d="M143.2,171.7c-0.9,0.9-1.5,1.8-2.3,2c-0.5,0.2-1.6-0.5-2-1.1c-0.3-0.5,1.9-2.2,2.8-2.1
		C142.1,170.7,142.4,171.2,143.2,171.7z"/>
	<path class="black" fill="#000000" d="M144.7,159.3c-0.9,0.9-1.4,1.7-2.2,2c-0.3,0.1-1.6-1.2-1.5-1.5c0.3-0.8,1-1.4,1.7-1.9
		C143.1,157.8,143.8,158.6,144.7,159.3z"/>
	<path class="black" fill="#000000" d="M167.9,168.8c-0.8-0.9-1.4-1.3-1.6-1.9c-0.3-0.8,1.1-1.8,2.2-1.7c0.4,0.1,1.1,0.9,1,1.1
		C169.2,167.2,168.6,167.8,167.9,168.8z"/>
	<path class="black" fill="#000000" d="M128.5,171c-0.9,0.6-1.5,1.1-2.2,1.5c-0.3-0.5-0.9-1.1-0.8-1.4c0.2-0.7,0.9-1.2,1.3-1.8
		C127.3,169.7,127.7,170.2,128.5,171z"/>
	<path class="white" fill="#FFFFFF" d="M141.8,86.1c3.3,0.5,6.6,0.7,9.7,1.7c4.2,1.4,6.8,4.8,8,9c0.7,2.2,0.7,4.6,0.9,7c0.1,1.2-0.5,1.8-1.7,1.7
		c-1.1,0-2.1,0.1-3.2,0.2c-0.3,0.1-0.9,0.6-0.8,0.8c0,0.4,0.4,1,0.7,1.2c0.4,0.3,1,0.4,1.5,0.4c2.4,0.1,3.8,1.7,5.1,3.5
		c2.2,3.2,3,6.9,3.3,10.6c0.3,3.3-1.6,5.7-4.9,7.1c-1.5,0.6-3,1.1-4.5,1.8c-0.4,0.2-0.7,0.7-1,1c0.4,0.3,0.8,0.6,1.3,0.9
		c0.1,0.1,0.2,0.1,0.3,0.1c0.8,0,1.5,0,2.3-0.1c-0.1,1.3,0.2,2.7-0.4,3.7c-0.8,1.4-2.1,2.9-3.5,3.6c-2.4,1.2-5,1.8-7.6,2.5
		c-1.5,0.4-3.1,0.2-3.9-1.3c-0.7-1.4-1.3-0.7-1.9-0.1c-2,2.2-4.2,3.9-7.3,4.2c-0.4,0-0.8,0.3-1.1,0.6c-2,2.2-4.7,1.8-7.2,1.6
		c-3-0.2-4.6-2.5-5.7-5c-0.6-1.3-0.9-2.6-1.4-3.9c-0.1-0.3-0.6-0.7-0.9-0.7c-0.3,0-0.7,0.5-0.8,0.8c-0.2,0.5-0.1,1-0.1,1.6
		c0,2.4-0.3,2.8-2.7,3.1c-0.5,0.1-1.1,0.1-1.6,0c-6.3-0.7-12.7-7.4-13.1-13.6c-0.1-2.2,0.3-2.3,2.5-2.3c4.9,0.1,9.8,1,14.5-1
		c4.2-1.8,7.1-5.1,9.6-8.7c0.5-0.7,0.4-2.1,0.3-3.1c-0.1-3.1,1.3-5.5,4.3-6.6c2.2-0.8,4.6-1,6.8-1.6c1.9-0.4,3.8-0.7,5.5-1.5
		c3.3-1.6,3.5-3.4,0.8-5.8c-3.1-2.8-6.8-4-10.9-4.1c-2.6-0.1-3.1,0.4-3.9,2.9c-0.6,1.9-1.3,3.8-2.1,5.7c-0.4,0.8-1,1.6-1.7,2.2
		c-1.8,1.4-2.8,1.4-4.4-0.4c-1-1.1-2-1.7-3.6-1.5c-0.9,0.1-2-0.3-3-0.7c-1.6-0.7-3-1.6-4.5-2.4c-3.1-1.7-4-4.6-2.1-7.4
		c1.6-2.5,4.1-3.7,6.8-4.6c1.1-0.3,2.4,0.8,3.2,2.5c0.4,0.8,0.7,1.6,1.1,2.4c0.5-1,1.1-2,1.3-3c1.1-5.7,7.1-11.5,12.9-12.4
		c3-0.5,5.5,0.3,7.3,2.9c0.6,0.9,0.6,1.6-0.4,2.1c-0.5,0.2-1.1,0.3-1.4,0.7c-0.3,0.4-0.7,1.2-0.5,1.6c0.1,0.4,0.9,0.6,1.5,0.7
		c0.7,0.1,1.5-0.1,2.2-0.2C141.8,86.3,141.8,86.2,141.8,86.1z"/>
	<path class="white" fill="#FFFFFF" d="M111.1,125.1c-5,0-7.9-2.9-7.5-7.1c0.8-8.2,6.1-11.1,13.1-10.8c3,0.2,6.6,4.2,6.9,7.2c0.1,0.9,0,2-0.5,2.8
		C120.1,121.7,115.9,124.6,111.1,125.1z"/>
	<path class="white" fill="#FFFFFF" d="M97,120.7c-1.8-0.6-3.9-1.2-6-2c-3.4-1.3-4.6-6.3-3.5-9c1.9-4.6,8-9.3,13.6-8.2c2.7,0.5,4.3,2.3,5.7,4.2
		c0.3,0.4,0.1,1.6-0.3,1.9c-3.7,2.8-5.3,6.6-5.6,11.1C100.8,121.2,98.8,120.1,97,120.7z"/>
	<path class="white" fill="#FFFFFF" d="M141.9,57.4c-0.5-0.1-1-0.2-1.5-0.1c-0.6,0.1-1.1,0.5-1.6,0.7c0.3,0.5,0.5,1.2,0.9,1.4
		c0.9,0.4,0.8,0.8,0.5,1.5c-1.4,3-4.1,4.6-6.8,6.1c-0.7,0.4-1.6,0.5-2.4,0.8c-2.5,0.9-4.8,0.5-6.9-1.2c-0.6-0.6-1.3-1.1-1.9-1.8
		c-2.5-3.4-6.2-2.7-9.7-2.7c-0.4,0-0.9,0.3-1.1,0.6c-1.6,2-3.5,1.1-5.3,0.5c-2.7-1-3.1-3.2-1.3-5.5c0.3-0.3,0.6-0.7,0.7-1
		c0.1-0.3,0.1-0.8,0.1-1.2c0-0.1-0.6-0.1-0.9-0.1c-7.4,1.1-9.5-3.9-10.4-9.3c-0.4-2.7,4.2-7.3,6.8-7c0.6,0.1,1.1,0.6,1.6,0.9
		c1.3,0.7,2.5,1.5,3.9,2.2c0.4,0.2,1.3,0.3,1.5,0.1c0.3-0.5,0.6-1.5,0.3-1.8c-1.2-1.4-1.4-3.5-3.5-4.2c-2.2-0.8-2.2-0.9-1.4-3.2
		c0.4-1.1,0.9-2.2,1.7-3c2.3-2.1,5.3-3.2,8.3-3.9c1.2-0.3,1.9,0.2,1.3,1.6c-0.1,0.3-0.4,0.6-0.3,0.9c0.2,0.6,0.5,1.1,0.7,1.6
		c0.5-0.3,1.1-0.5,1.3-1c2-4.3,5.6-6.6,9.8-8.1c5.2-1.9,9.4,0.1,13.2,3.4c0.7,0.6,1.3,1.4,2,2.1c2,2,2.8,4.3,1.1,6.9
		c-0.2,0.4-0.2,1-0.3,1.4c0.5-0.1,1-0.1,1.4-0.2c0.6-0.1,1.4-0.6,1.8-0.4c3,1.5,6.1,2.9,7.3,6.3c0.7,2,1.2,4.1,1.4,6.2
		c0.6,5-2.2,8.8-7.1,9.7C145.6,57.1,143.8,57.2,141.9,57.4z"/>
	<path class="white" fill="#FFFFFF" d="M115.9,64.6c0.6,0.2,1.4,0.3,2.2,0.6c1.8,0.8,1.9,2,0.2,3.2c-1.2,0.9-2.5,1.6-4.1,0.9
		c-1.2-0.5-2.3-1.3-1.9-2.5c0.2-0.8,1.3-1.4,2.1-2C114.7,64.6,115.2,64.7,115.9,64.6z"/>
	<path class="white" fill="#FFFFFF" d="M105.7,80.1c-0.7,0.7-1.2,1.6-2.1,2.1c-0.7,0.4-1.8,0.6-2.7,0.4c-1.2-0.3-1-2.4,0.2-3.5
		c0.7-0.7,3.2-0.8,3.9-0.1C105.3,79.2,105.4,79.5,105.7,80.1z"/>
	<path class="black" fill="#000000" d="M113.8,110.5c1.4,0.2,2.2,0.5,2.2,1.8c0,1.5-1.2,2.8-2.6,2.7c-1.1,0-2.2-1.5-1.8-2.9
		C111.9,111.5,113.1,111.1,113.8,110.5z"/>
	<path class="black" fill="#000000" d="M96.7,111c-0.4-0.6-1.4-1.5-1.3-2c0.4-0.9,1.3-1.8,2.3-2.2c0.9-0.4,1.6,0.3,1.6,1.4
		C99.4,109.2,98.1,110.9,96.7,111z"/>
	<path class="heart" fill="#AD0000" d="M116.5,41.9c0-3.4,2.2-5.1,4.7-4c1.7,0.8,3.2,2,4.6,3.3c0.8,0.7,1.1,1.1,2.2,0.3c1.7-1.2,3.7-2.1,5.6-2.9
		c1.7-0.7,3.3,0.3,4.5,2.2c0.9,1.5,0.7,2.9-0.8,4.3c-1,0.9-2.3,1.6-3.4,2.3c-2.2,1.4-4.6,2.7-6.7,4.3c-1.4,1.1-2.3,2.8-3.4,4.2
		c-0.3,0.4-0.8,0.6-1.2,0.9c-0.2-0.5-0.4-1.1-0.6-1.6c-1-2.1-2-4.2-3.2-6.1C117.4,46.7,116.8,44,116.5,41.9z"/>
</g>
<g>
	<path class="black" fill="#000000" d="M724.1,136.5c0.4-2-0.1-3.7-1.1-5.3c-1.3-2.3-2.4-4.6-4.8-6.1c-2.4-1.5-3-4.1-2.7-6.8c0.4-3.5,1.7-6.6,4.6-8.9
		c0.8-0.6,1.5-1.2,1.1-2.4c0-0.1,0-0.2,0-0.3c1.6-4,2-8.2,2.8-12.4c0.8-4.4,4.6-6.9,8.6-8.4c4.2-1.5,8.5-2.7,12.8-4
		c1.5-0.5,3-1,4.5-1.4c6.2-1.7,13.4,1.4,16.3,7.1c0.4,0.8,0.6,1.8,1,2.7c1.4,3.1,3,6,6,7.9c0.9,0.6,1.2,2.1,1.8,3.2
		c0.3,0.7,0.4,2,0.7,2c1.8,0.4,3.7,0.5,5.6,0.5c0.5,0,1.2-0.9,1.4-1.5c0.6-1.9,1.2-3.9,1.4-5.9c0.2-2.7,1.3-4.1,3.8-3.6
		c4,0.9,8,2.2,11.8,3.5c2,0.7,2,1.8,0,2.7c-2.4,1.1-5,1.6-7.5,2.5c-1.9,0.7-3.8,1.4-5.6,2.2c-1.2,0.5-1.3,1.2-0.3,2.1
		c3.1,2.8,4.8,6.3,4.7,10.5c-0.1,2.2-0.6,4.4-1.3,6.5c-0.3,1-1.5,2.1-2.4,2.3c-3.3,0.8-3.8,3.3-3.6,5.9c0.1,1.8-0.5,2.8-1.8,3.6
		c-0.9,0.6-1.7,1.5-2.7,1.7c-2.1,0.4-2.6,2-3,3.7c-0.8,3.2-1.2,6.5-0.9,9.8c0.1,0.6,0.3,1.4,0,1.9c-0.3,0.6-0.9,1.3-1.5,1.4
		c-0.5,0.1-1.3-0.6-1.6-1.1c-1-1.9-1.8-4-2.9-6c-0.6-1.1-1.5-1.4-2.9-1c-2.9,0.7-5.9,1.1-8.8,1.4c-1.1,0.1-1.6,0.3-2,1.5
		c-0.7,2.6-1.6,5.1-2.6,7.6c-0.3,0.7-1.3,1.5-2,1.7c-0.4,0.1-1.4-0.9-1.7-1.6c-0.8-2.6-1.6-5.3-2.1-8c-0.5-2.7-0.5-2.8-3.1-2.2
		c-1.7,0.4-3.4,0.5-5.1,0.6c-3.9,0.2-6,2.7-7.6,5.8c-0.2,0.5-0.3,1.1-0.5,1.5c-0.8,1.2-2.8,1-3.3-0.3
		C725.8,147.8,724.3,142.2,724.1,136.5z"/>
	<path class="black" fill="#000000" d="M768.5,14.4c2.6-0.3,4.9,0.7,6.9,2.2c2.1,1.5,4,1.4,6.3,1.1c7.1-1.2,14-0.5,20.7,2.1c2.7,1.1,4.5,3.1,5.6,5.8
		c1.6,4,2.1,8.1,0.9,12.2c-0.7,2.5-0.3,4.6,0.6,6.8c0.7,1.8,1.3,3.6,1.7,5.5c0.8,3.3,0.3,6.5-1.2,9.6c-1.9,4.2-5.1,6.5-9.6,7
		c-3.2,0.3-6,1.3-8.7,2.9c-1.9,1.2-4,2.1-6,2.9c-2.7,1.1-5.6,1.4-8.5,0.3c-1-0.4-1.9-0.5-3,0c-3,1.5-5.9,1.9-8.3-1.3
		c-0.2-0.2-0.9-0.3-1.3-0.1c-0.7,0.2-1.4,0.6-2.1,0.9c-2.4,0.9-4.8,0.9-7.1-0.5c-1.7-1-3.6-2-5.1-3.4c-2-1.9-4.2-2.6-6.8-3.2
		c-5-1.1-8.5-4.3-10.6-9c-1-2.2-1-4.2,1-5.8c1-0.8,1.1-1.6,0.8-2.8c-0.7-3.5-1.3-7.1-2-10.7c-0.7-4,0.7-7,4.1-9
		c3-1.8,6.1-3.5,9.8-3.5c4,0,6.4-2.7,9-4.9C759.5,16.5,763.7,14.7,768.5,14.4z"/>
	<path class="black" fill="#000000" d="M775.9,90c-1.4-0.6-3.4,0.3-4.2-1.6c-0.7-1.7-0.4-3.3,0.7-4.8c0.4-0.6,0.7-1.3,1.2-1.9
		c2.3-2.9,6.8-2.7,8.7,0.5c0.5,0.8,0.5,2.1,0.3,3C782,87.2,778,90,775.9,90z"/>
	<path class="black" fill="#000000" d="M737.4,162.4c0.3,0.2,1.1,0.5,1.4,1.1c0.2,0.4-0.1,1.4-0.5,1.6c-1.3,0.9-2.6,1.6-4.1,2.2
		c-0.3,0.1-1.2-0.5-1.2-0.8C732.8,165,735.5,162.3,737.4,162.4z"/>
	<path class="black" fill="#000000" d="M716.6,163.2c-1.2,0-2.6-1.5-2.5-2.8c0.1-1.2,0.9-1.9,2.1-2c1.3-0.1,2.3,0.8,2.3,2
		C718.6,162,717.8,163.2,716.6,163.2z"/>
	<path class="black" fill="#000000" d="M762.4,165.4c-1.5,0-1.5-1.2-1.6-2.2c-0.1-0.8,1.9-2.3,3-2.4c1.1-0.1,2.1,0.8,2,1.9
		C765.8,164.1,764.2,165.3,762.4,165.4z"/>
	<path class="black" fill="#000000" d="M787.4,158.9c-1.5,0-2.3-0.7-2.3-2.1c0-1,0.3-2,1.5-2c1.7-0.1,3.2,1.2,3.3,2.6
		C789.9,159.4,788.5,158.9,787.4,158.9z"/>
	<path class="black" fill="#000000" d="M724.3,175.1c-2.1,0-3.7-1.2-3.7-2.4c-0.1-1.1,0.9-1.9,2.4-1.9c1.2,0,2.9,1.2,2.6,2.2
		C725.5,173.8,724.7,174.5,724.3,175.1z"/>
	<path class="black" fill="#000000" d="M776.9,171.6c-0.3-0.4-1.1-0.9-1.3-1.6c-0.3-0.9,1.9-2.8,3-2.6c0.8,0.1,1.7,0.2,1.7,1.4
		C780.3,170.1,778.9,171.5,776.9,171.6z"/>
	<path class="black" fill="#000000" d="M746.2,170c1.4-0.9,2.2-1.8,3.2-2c1.4-0.2,1.1,1.2,1.3,2.1c0.3,1.3-0.6,2.4-1.5,2.3
		C748.3,172.3,747.5,171.1,746.2,170z"/>
	<path class="black" fill="#000000" d="M764.9,174.5c1.8,0,1.8,0,0.9,1.5c-0.1,0.2-0.1,0.4-0.2,0.6c-0.7,1.1-2.5,1.6-3.7,1c-0.2-0.1-0.4-0.5-0.4-0.7
		c0.1-1,1.8-2.5,2.8-2.5C764.4,174.3,764.6,174.4,764.9,174.5z"/>
	<path class="black" fill="#000000" d="M738.7,176.4c0.3,0.4,0.9,1,1.5,1.6c-0.9,0.7-1.7,1.4-2.7,1.9c-0.2,0.1-1.3-1-1.4-1.7
		C735.8,176.7,737,176.6,738.7,176.4z"/>
	<path class="white" fill="#FFFFFF" d="M726.6,100.9c-0.1-3.7,0.3-7.4,3.5-9.9c2.8-2.3,6-3.8,9.7-2.9c1.1,0.3,2.1,1,3,1.6c0.5,0.3,1,0.8,1.5,1.2
		c0.8,0.5,1.8,1.2,2.5,0.1c0.3-0.5-0.2-1.5-0.5-2.2c-0.1-0.4-0.6-0.6-0.9-0.9c-1.4-1.6-1.4-1.8,0.4-2.8c1.1-0.6,2.2-1.3,3.4-1.7
		c2.8-1.2,5.7-1.2,8.3,0.6c1.7,1.2,3.4,2.6,5,4c1.2,1.1,1.8,2.6,1.8,4.3c0,1.4-0.2,2.6-2,2.6c-0.4,0-0.8,0.2-1.2,0.4
		c-0.7,0.4-1.7,0.7-1.2,1.8c0.4,1,1.3,1,2.2,0.7c3.4-1.2,6.3,0,8.7,2.4c0.8,0.8,1.4,1.9,1.6,3c0.5,1.9,0.1,2.3-1.8,2.4
		c-2.9,0.2-5.7,0.2-8.6,0.4c-2.3,0.2-4.5,0.9-6.5,2c-2.1,1.1-3.3,0.7-4.1-1.6c-0.6-1.7-1.1-3.4-1.9-5.1c-1-2.2-3-2.8-5-1.5
		c-4.2,2.7-6.8,6.7-8.9,11c-1.1,2.1,0.3,4,2.7,3.7c1.5-0.1,3-0.9,4.4-1.6c1.8-0.9,3.5-2.1,5.3-3c0.5-0.3,1.5-0.2,2,0.1
		c0.9,0.6,0.5,1.5-0.1,2.3c-1.6,2.2-2.9,4.5-2.6,7.4c0.8,7.4,4.2,10.1,11.3,10.3c1.3,0,2.5-0.5,3.8-0.6c3.1-0.2,6.2-0.4,9.3-0.6
		c2.5-0.2,5.1-0.5,7.6-0.7c1.4-0.1,1.6,0.5,1.4,1.7c-0.4,3.3-0.9,4-4,4.8c-1.1,0.3-2.3,0.5-3.4,0.8c-1.2,0.3-2.9,0.3-1.3,2.3
		c0.2,0.2-0.3,1.3-0.7,1.5c-1.4,0.9-2.8,2-4.4,2.5c-4.8,1.6-9.8,2.1-14.8,0.8c-2.1-0.5-3.8-1.5-4.9-3.3c-0.5-0.7-0.7-1.7-1.9-1.1
		c-1,0.5-1.3,1.4-0.9,2.4c0.1,0.4,0.5,0.8,0.4,1.2c-0.1,0.4-0.4,1-0.8,1.1c-0.9,0.3-1.9,0.4-2.8,0.4c-2.2,0-4.5,0-6.7-0.3
		c-5.5-0.8-8.3-5.2-6.6-10.8c0.8-2.6,2.2-5.1,3.5-7.5c0.4-0.7,0.9-1.4,0.1-1.9c-0.5-0.3-1.5-0.2-2,0.1c-0.8,0.6-1.4,1.6-2.1,2.4
		c-0.8,1-1.6,1-2.8,0.5c-6-2.5-7.4-9.6-2.7-14.1c2.5-2.4,5.2-4.4,8.4-5.7c0.5-0.2,1.1-0.4,1.4-0.8c0.4-0.5,0.4-1.2,0.6-1.9
		c-0.6-0.2-1.1-0.4-1.7-0.4c-0.3,0-0.6,0.2-0.9,0.3C726.1,104.4,726.6,104.6,726.6,100.9z"/>
	<path class="white" fill="#FFFFFF" d="M758.4,126.2c-5.9,0.2-9-4.1-7.2-9.5c1.2-3.7,4.2-5.6,7.4-7c1-0.4,2.3-0.1,3.4-0.1c1.1,0,2.2,0,3.3,0.1
		c2.8,0.4,4.9,1.9,6.5,4.1c1.6,2.1,1.2,4.2-0.5,6.1c-1,1.1-2.1,2.2-3.3,2.9C764.9,124.4,761.9,126.4,758.4,126.2z"/>
	<path class="white" fill="#FFFFFF" d="M777.6,107.2c7.3,0.6,10.8,5.3,9.9,12.1c-0.3,2.5-1.8,4-3.8,4.7c-3.1,1.1-6.3,1.8-9.6,0c-1-0.6-1.3-1-0.5-1.9
		c0.2-0.2,0.4-0.5,0.6-0.8c3-4.3,2.8-7-0.6-10.8c-1.5-1.7-1.5-1.7,0.7-2.5C775.4,107.7,776.5,107.5,777.6,107.2z"/>
	<path class="white" fill="#FFFFFF" d="M797.3,63.9c-0.3,0-0.7,0-1,0c-1.6,0.3-2.7,0-2.8-2c0-0.5-0.7-1-1-1.5c-0.4,0.4-0.9,0.7-1.2,1.2
		c-1.3,2.1-2.5,4.2-3.8,6.3c-1.2,2-6.4,3.4-8.4,2.2c-0.5-0.3-0.7-1.2-0.9-1.8c-0.5-1.5-1-3-2.5-4c-2.2-1.3-4.3-1.2-6.4,0
		c-2.2,1.3-4.3,2.7-6.2,4.3c-1.7,1.5-3.3,1.3-5.1,0.7c-1.3-0.4-2.5-1.1-3.7-1.8c-2.6-1.4-2.6-1.4-0.2-3.4c0.4-0.4,0.8-1,0.9-1.6
		c0.2-1.3-0.9-2.2-1.9-1.4c-4.8,3.3-9.1,1.4-13.4-1.2c-0.2-0.1-0.4-0.2-0.5-0.4c-1.3-1.3-3.5-2.6-3-4.6c0.6-2.3,1.7-4.7,4.5-5.3
		c1.3-0.3,1.5-0.8,0.4-1.6c-4.6-3.3-5.2-8-5-13.1c0.1-1.7,0.7-3.2,2.1-4.1c2.9-1.9,6-3.8,9.7-4c0.8,0,1.6,0.2,2.5,0.3
		c1,0.1,1.5,0.5,1.4,1.7c-0.1,0.5,0.7,1.1,1.1,1.6c0.6-0.4,1.3-0.7,1.6-1.2c0.8-1.5,1.5-3.1,2.2-4.6c2.3-5.1,6.6-7.1,11.9-7.1
		c3.1,0,5.5,1.4,7,4.2c0.6,1,1,2.2,1.6,3.1c0.3,0.5,1.1,0.6,1.7,0.9c0.2-0.6,0.5-1.1,0.6-1.7c0-0.4-0.2-0.8-0.4-1.2
		c-0.4-1-0.2-1.7,1-1.8c3.1-0.4,6.1-1.2,9.2-1.1c4,0.1,8.1,0.5,11.8,2.7c1.2,0.7,2.5,1.4,3.2,2.4c2.9,4.3,3.4,9,1,13.7
		c-0.9,1.9-2.5,3.4-3.6,5.2c-0.3,0.5-0.2,1.3,0,1.9c0,0.2,1,0.2,1.5,0c0.7-0.2,1.6-1.1,2.1-0.9c0.8,0.3,1.6,1.2,1.9,2
		c2,4.9,1.8,9.6-1.3,14c-1.4,2-3.6,2.6-5.9,2.8C799,63.9,798.1,63.9,797.3,63.9z"/>
	<path class="white" fill="#FFFFFF" d="M770.2,70.8c-0.3-0.4-1.1-0.9-1.2-1.6c-0.2-1.3,1.4-2.7,2.9-2.7c1.4-0.1,2.5,0.7,2.6,1.8
		C774.7,69.5,773,70.7,770.2,70.8z"/>
	<path class="white" fill="#FFFFFF" d="M777.7,82.4c0.3,0.2,1.3,0.7,1.7,1.4c0.6,0.9-0.2,1.5-1.1,1.9c-0.6,0.3-1,1-1.5,1.1c-0.8,0.1-1.6-0.1-2.4-0.2
		c0.2-0.6,0.3-1.2,0.5-1.7C775.3,83.7,775.2,82.2,777.7,82.4z"/>
	<path class="black" fill="#000000" d="M766.1,116.2c0,0,0.9,0.5,1,1.1c0.2,1.2-1.2,2.6-2.4,2.2c-0.7-0.2-1.4-1.3-1.5-2
		C763.1,116.3,764,115.8,766.1,116.2z"/>
	<path class="heart" fill="#AD0000" d="M788.1,38.3c0.3,2.3-1,4.6-2.8,6.1c-3.1,2.6-5.5,5.6-7.9,8.8c-1.9,2.5-3.7,3.1-6.3,1.4
		c-4.3-2.7-8.8-5.4-12-9.5c-0.2-0.3-0.4-0.5-0.6-0.8c-2.3-3.3-2.7-7-0.9-8.5c3.5-3.1,8.6-3.4,11.8-0.8c2,1.7,2.2,1.7,4.4,0.1
		c1-0.7,1.9-1.5,2.9-2c3-1.6,6.2-1.3,9.2-0.2C788,33.7,788.1,35.9,788.1,38.3z"/>
	<path class="black" fill="#000000" d="M782.4,115.9c0,0,0.9,0.5,1,1.1c0.2,1.2-1.2,2.6-2.4,2.2c-0.7-0.2-1.4-1.3-1.5-2
		C779.4,116,780.4,115.4,782.4,115.9z"/>
</g>
<g>
	<path class="black" fill="#000000" d="M585.4,98.6c-0.6,2-0.8,3.9-1.6,5.6c-1.4,3.1-1.1,5.9,0.6,8.8c3.1,5.1,2.9,10.3,0.6,15.6
		c-0.1,0.3-0.3,0.6-0.5,0.8c-2.5,2.2-4.6,4.6-4.8,8.1c0,0.3-0.3,0.6-0.5,0.8c-4.2,3.3-3.6,8.1-3.8,12.6c0,0.5,0.1,1.1,0.1,1.6
		c0,1-0.1,2-1.3,2.3c-1.3,0.3-1.6-0.6-2.1-1.5c-1.2-2.1-2.4-4.3-3.7-6.3c-1.7-2.7-3-2.9-5.3-0.8c-1.9,1.7-3.6,3.5-6.2,4.4
		c-1.1,0.4-1.9,2.1-2.6,3.4c-1.2,2.1-2.2,4.3-3.5,6.4c-0.8,1.3-2.7,1.1-3.3-0.4c-1.1-2.6-2.1-5.2-2.9-7.8c-0.5-1.7-1.2-3.1-3.1-3.6
		c-0.4-0.1-0.8-0.4-1.1-0.6c-4.2-2.4-8.5-1.2-10.5,3.1c-0.8,1.7-1.3,3.6-2.1,5.3c-0.3,0.7-1.1,1.4-1.8,1.5c-0.4,0.1-1.4-0.7-1.6-1.3
		c-1.1-3.5-3.3-6.2-5.7-8.8c-0.6-0.6-1.1-1.3-1.7-1.7c-4.5-2.7-6.9-6.6-6.9-11.9c0-1.1,0.4-2.4,1.1-3.2c1.1-1.2,0.3-1.5-0.5-1.8
		c-1.8-0.6-3.7-1.3-5.5-1.6c-2.6-0.4-4.3-1.8-5.4-4c-2.5-4.8-2.4-9.5,1.1-13.8c1.5-1.9,3.5-3.4,5.2-5.1c0.3-0.3,0.8-1,0.6-1.3
		c-0.2-0.5-0.9-1.2-1.3-1.1c-1.9,0.5-3.9,1-5.7,1.8c-1.4,0.6-2.5,1.7-3.9,2.2c-1,0.4-2.5,0.7-3.2,0.1c-1.2-0.9-0.6-2.5,0.1-3.5
		c1.5-2.2,3-4.6,5-6.1c2.4-1.8,5.4-2.9,8.2-4.2c0.9-0.4,1.9,1.1,2,2.6c0.1,1.7,0.3,3.4,0.7,5c0.2,0.8,0.8,1.5,1.4,2
		c0.5,0.4,1.3,0.4,2,0.6c0.1-0.7,0.3-1.4,0.2-2c-1.1-7.3,2.4-11.1,8.6-12.8c3.3-0.9,6.3-2.3,8.1-5.6c1.8-3.2,5.1-4.8,8.1-6.6
		c3.7-2.3,7.8-3.5,12.1-3.9c4.8-0.4,8.7,1.3,12,4.8c1.2,1.2,3.1,2.4,4.7,2.4c6.1-0.2,10.4,2.8,13.9,7.3c1.6,2,3,4.1,4.2,6.4
		C584.6,94.8,584.8,96.7,585.4,98.6z"/>
	<path class="black" fill="#000000" d="M557.7,61.8c-1.2,0-2.3,0-3.5,0c-2.2-0.1-4.1,0.6-6,1.9c-4,2.9-8.6,3.7-13.4,2.2c-1.3-0.4-1.9-0.1-2.6,1
		c-1.6,2.5-6.1,4.1-9.1,2.7c-1.4-0.7-2.7-1.5-3-3.1c-0.3-1.5-1.2-2-2.6-2.4c-1.4-0.4-2.8-1.2-4.1-1.9c-2.9-1.6-4.5-3.8-3.6-7.3
		c0.4-1.6-0.1-2.8-1.5-3.9c-6.2-5.2-5.1-14.4,2-18.2c2.2-1.1,3.6-2.6,3.8-5.1c0.7-6.7,5-10,11-11.7c4-1.2,8.1-2.1,12.3-1
		c0.3,0.1,0.6,0.2,0.9,0.1c3.3-0.6,6.6-1.3,9.9-1.7c3.5-0.4,7-0.1,10.1,1.9c2.1,1.4,4.3,2.9,6.1,4.7c3.7,3.8,4.8,8.6,3.6,13.7
		c-0.6,2.7-0.2,4.7,1.2,6.9c2.6,4.2,3.3,8.7,2.3,13.6c-0.9,4.4-5.2,7.6-9.9,7.6C560.5,61.9,559.1,61.9,557.7,61.8
		C557.7,61.9,557.7,61.8,557.7,61.8z"/>
	<path class="black" fill="#000000" d="M510.5,71.9c1,0.3,2.1,0.4,3,0.8c3.3,1.6,4,4.8,1.7,7.7c-2.5,3.1-8.1,3.5-10.6,0.6c-1.4-1.6-1.2-3.6-0.4-5.4
		c0.9-2.1,2.7-3.3,4.9-3.6c0.4-0.1,0.8,0.1,1.3,0.2C510.5,72.1,510.5,72,510.5,71.9z"/>
	<path class="black" fill="#000000" d="M543.4,175.1c-1.9-0.2-4.1-2.1-3.5-3c0.5-0.8,2-1.2,3.2-1.3c0.5,0,1.5,1.2,1.5,1.9
		C544.6,173.6,543.8,174.5,543.4,175.1z"/>
	<path class="black" fill="#000000" d="M516.9,159.7c-0.1,1.1-1.9,2.8-3,2.4c-0.6-0.2-1.3-1-1.4-1.7c-0.2-1.4,1.1-2.6,2.3-2.6
		C515.9,158,517,158.1,516.9,159.7z"/>
	<path class="black" fill="#000000" d="M503,168.7c-1.5,0.1-3-0.9-2.6-1.7c0.5-1.1,1.4-2.1,2.3-2.7c0.8-0.5,2.3,0.9,2,1.8
		C504.5,167.1,504.6,168.6,503,168.7z"/>
	<path class="black" fill="#000000" d="M583.8,162.7c-0.2-0.1-0.5-0.2-0.7-0.4c-1.2-0.9-0.9-2-0.3-3.1c0.7-1.1,1.7-1.6,3-1.2c0.3,0.1,0.7,0.6,0.8,0.9
		C586.9,160,584.9,162.6,583.8,162.7z"/>
	<path class="black" fill="#000000" d="M572.7,167.7c-1.3,0-1.2-1.1-1.2-2c0-1.3,1-2,2.1-1.8c0.8,0.1,1.9,0.8,2.1,1.5
		C576.2,166.6,574.5,167.8,572.7,167.7z"/>
	<path class="black" fill="#000000" d="M536.9,164c0.1,1.5-1.7,3.7-2.7,3.7c-0.4,0-1-0.4-1.1-0.8c-0.7-1.6,0.5-3.7,2.2-3.9
		C535.8,163,536.5,163.8,536.9,164z"/>
	<path class="black" fill="#000000" d="M523.1,170c0.3,0.2,1.3,0.5,1.7,1.1c0.4,0.7-1.5,2.2-2.6,2.2c-1,0-1.5-0.6-1.4-1.7
		C520.7,170.3,521,170,523.1,170z"/>
	<path class="black" fill="#000000" d="M598.3,154.6c-0.8,0.5-1.5,1.3-2.4,1.4c-0.6,0.1-1.6-0.5-2-1c-0.5-0.7,0.8-2.1,1.8-2c0.8,0.1,1.6,0.5,2.4,0.7
		C598.2,154.1,598.2,154.4,598.3,154.6z"/>
	<path class="black" fill="#000000" d="M559.3,163.8c0,1.7-1.2,3-2.2,2.7c-0.5-0.2-1.2-1-1.2-1.5c0-1.2,0.7-2.3,2-2.4
		C558.5,162.5,559.1,163.5,559.3,163.8z"/>
	<path class="black" fill="#000000" d="M587.5,147.2c1.8,0,2,0.9,2.1,1.9c0,1-0.3,1.7-1.4,1.6c-1.2,0-1.7-0.9-1.6-1.9
		C586.6,148.2,587.2,147.6,587.5,147.2z"/>
	<path class="black" fill="#000000" d="M566.3,172.2c-0.8,0.7-1.4,1.5-2,1.6c-1.1,0.2-1.5-0.9-1.2-1.7c0.2-0.6,0.9-1.2,1.6-1.5
		C564.9,170.6,565.5,171.5,566.3,172.2z"/>
	<path class="white" fill="#FFFFFF" d="M572.1,134.7c1.3,0,2.6-0.1,3.8,0c0.5,0,1.2,0.3,1.3,0.7c0.1,0.4-0.2,1-0.5,1.4c-2.2,2.7-5.2,3.6-8.6,3.5
		c-0.3,0-0.8-0.1-0.9-0.3c-0.9-1.9-1.8-0.5-2.8-0.2c-1.3,0.4-2.3,0.8-1.6,2.4c-1.6,1.5-2.9,3.5-4.8,4.4c-6.5,2.9-12.5,1.1-18.1-2.7
		c-1.2-0.8-2.2-2-3.2-3.1c-0.8-0.9-1.6-0.7-2,0.2c-2.5,4.9-6.6,5.6-11.5,4.4c-4.4-1.1-7.7-3.4-9.7-7.6c-1-2.2-0.5-4.4-0.4-6.6
		c0-0.2,0.9-0.7,1.2-0.6c4.7,1.8,9.6,0.4,14.3,0.7c6.1,0.5,10.1-3.5,12.8-8.2c1.9-3.2,1.9-7.4,0.7-11.3c-0.8-2.6-0.4-4,2.1-5.3
		c3.1-1.7,6.4-2.9,9.9-3.4c2.2-0.3,4.3-1.3,6.4-2c1.4-0.5,1.5-1.8,1.4-2.9c-0.1-0.5-1.2-1.2-1.9-1.3c-4.2-0.7-8.4-1.6-12.6-1.9
		c-2-0.2-4.2,0.6-6.2,1.1c-1.8,0.4-2.3,1.7-2.2,3.4c0,1.6,0,3.2-0.1,4.7c-0.2,2.2-0.8,2.5-2.9,2.1c-3.1-0.7-6.3-1.4-9.4-2
		c-1.7-0.3-3.4-0.6-5.1-0.4c-2.4,0.2-4.4-0.4-5.6-2.2c-1.4-2.1-1.5-4.7-0.1-7c1.4-2.4,3.9-3.5,6.4-4.5c0.2-0.1,0.4,0,0.6,0
		c3.1-0.6,3.1-0.6,3.2,2.5c0,0.5,0,1.1,0.2,1.6c0.4,0.9,1.5,1.1,2,0.2c0.4-0.8,0.5-1.8,0.7-2.7c0.5-2.2,0.8-4.5,1.7-6.4
		c1.9-4.2,6-5.9,9.8-7.9c0.8-0.4,1.8-0.7,2.7-1c5.1-2.1,9.9-1.9,14.7,0.9c1.1,0.7,1.6,1.5,2.1,2.6c0.4,1.1,0.3,1.5-0.8,1.9
		c-0.5,0.2-1.1,0.6-1.3,1.1c-0.2,0.5,0,1.2,0.3,1.7c0.2,0.2,1,0.2,1.4,0.1c1.8-0.6,3.6-1.4,5.4-1.8c4.5-0.9,7.9,1.1,10.8,4.2
		c1.5,1.5,2.6,3.4,4,5c2.2,2.5,2.5,5.7,2.7,8.7c0.2,2.8-1.9,4.6-3.5,6.6c-0.5,0.6-1.1,1-1.6,1.6c-0.4,0.5-0.6,1.2-0.8,1.8
		c0.5-0.2,1.1-0.5,1.6-0.7c0.3-0.1,1-0.1,1.1,0c1,1.5,2.2,2.9,3,4.5c1.9,3.9,2.1,8.1,0.4,12.1c-1.3,3-3.8,4.6-6.9,5.3
		c-2.2,0.5-4.4,0.9-6.6,1.4c-0.4,0.1-0.7,0.5-1,0.7c0.4,0.2,0.9,0.6,1.3,0.6c1,0,1.9-0.2,2.9-0.3
		C572.1,134.6,572.1,134.6,572.1,134.7z"/>
	<path class="white" fill="#FFFFFF" d="M539.4,117.3c0.6,4.7-2.5,7.4-6.1,9.7c-2.5,1.6-9.4,0.3-11.4-1.9c-4.7-5.1-3.3-13.1,2.7-16.7
		c1.5-0.9,2.9-0.5,4.3-0.5c2.1,0.1,4.2,0.4,6.1,1C538.3,110.1,539.7,113,539.4,117.3z"/>
	<path class="white" fill="#FFFFFF" d="M513,105.7c1.3,0.4,2.7,0.7,3.9,1.3c2.9,1.6,3,2.3,1.2,5.1c-2,3.1-2.6,6.6-1.6,10.1c0.4,1.5,0.1,2-1.3,2.1
		c-2.7,0.3-5.4,0.8-8.3,0.4c-2.6-0.4-4-1.7-4.8-4C499.5,113.6,505.1,106.1,513,105.7z"/>
	<path class="white" fill="#FFFFFF" d="M569,50.8c0,0.7,0.1,1.5,0,2.2c-0.2,2.7-1.7,4.8-4.2,5.5c-2.5,0.6-5.3,0.7-7.9,0.6c-1.5,0-3.4-0.5-2.6-2.9
		c0.1-0.2-0.2-0.8-0.4-0.8c-0.4,0-0.8,0.1-1.1,0.3c-0.5,0.5-1,1.1-1.4,1.7c-1.7,2.7-4.4,3.8-7.1,5.2c-3.1,1.6-6,0.9-9-0.2
		c-0.8-0.3-1.4-1.2-1.9-2c-2.6-4.1-6.2-4.7-9.9-1.6c-0.8,0.7-1.8,1.2-2.6,1.8c-1.2,0.8-2.4,0.9-3.6,0.1c-0.8-0.5-1.7-0.9-2.5-1.4
		c-2.3-1.4-2.7-3.2-0.9-5.2c0.7-0.8,1.8-1.2,2.5-1.9c0.3-0.3,0.3-1,0.3-1.4c0-0.2-0.8-0.5-1-0.4c-2.4,1.5-3.8-0.8-5.3-1.7
		c-1.1-0.6-1.9-2.3-2.4-3.6c-1.3-4,0.3-7.7,3.5-9.7c2.3-1.4,4.7-1.7,7.2-2.3c0.6-0.2,1.1-0.7,1.7-1.1c-0.5-0.3-1.1-0.9-1.6-0.8
		c-1.5,0.2-1.5-0.7-1.6-1.7c-0.2-4.3,2.1-8.4,7.4-10.2c2.7-1,5.5-1.7,8.4-1.9c4.1-0.3,7.2,1.4,10,4.2c0.5,0.5,0.8,1,1.3,1.4
		c0.2,0.2,0.6,0.2,0.8,0.1c0.2-0.1,0.3-0.5,0.4-0.8c0-0.2-0.1-0.4-0.2-0.6c-1.2-3-0.9-3.5,1.9-4.6c3.4-1.3,6.6-0.7,9.5,1
		c2.3,1.3,4.5,2.9,6.4,4.8c1.2,1.2,1.9,3.1,2.2,4.8c1.1,5.5-0.3,10.4-4.4,14.4c-0.4,0.4-0.8,0.7-1.1,1.2c-0.2,0.4-0.2,0.9-0.3,1.4
		c0.5-0.1,1-0.1,1.4-0.3c1.1-0.7,2-1.6,3-2.3c1.8-1.3,2.3-1.2,3.5,0.7C568.8,45.1,569.3,47.3,569,50.8z"/>
	<path class="white" fill="#FFFFFF" d="M525.2,67.1c-0.5-0.4-1.4-1-2.1-1.8c-0.9-1-0.1-2.1,0.5-2.9c0.8-0.9,1.6-2.1,2.7-2.5c0.9-0.3,2.3,0,3.2,0.6
		c1.1,0.7,1.6,1.9,1.1,3.4C529.9,65.8,528,67.1,525.2,67.1z"/>
	<path class="white" fill="#FFFFFF" d="M510.1,74.6c2.3,0,3.4,1,3.3,2.8c-0.1,1.4-1.6,2.4-3.6,2.4c-1.9,0-3.1-1.1-3-2.8
		C506.8,75.5,508,74.6,510.1,74.6z"/>
	<path class="black" fill="#000000" d="M527.7,119.2c-1.3-0.1-2.2-1.1-2.1-2.3c0.1-1.4,1.5-2.7,2.8-2.5c1.2,0.2,1.8,1,1.9,2.2
		C530.4,118.1,529.2,119.3,527.7,119.2z"/>
	<path class="heart" fill="#AD0000" d="M523.4,37.7c-0.2-3.6,1.9-5.9,4.1-8.1c0.7-0.8,1.6-1.4,2.6-1.9c1.8-1,3.6-1.4,5.4-0.1c2.2,1.4,4.4,2.7,4.7,5.7
		c0.1,1.1,0.8,1,1.6,0.4c2.4-2.1,5-3.7,8.2-4.2c0.9-0.2,2-0.4,2.8-0.1c1.8,0.6,3.8,1.1,4.3,3.4c0.5,2.3-0.7,4-2.1,5.4
		c-1,1-2.4,1.8-3.7,2.5c-3.9,2.2-6.8,5.4-9.5,8.9c-0.7,0.9-1.4,1.9-2.2,2.8c-1.8,2.1-4.3,1.9-5.9-0.3c-2.3-3.1-4.4-6.3-7.5-8.6
		C524.1,42,523.1,40.1,523.4,37.7z"/>
	<path class="black" fill="#000000" d="M509.7,117.9c-1.3-0.1-2.2-1.1-2.1-2.3c0.1-1.4,1.5-2.7,2.8-2.5c1.2,0.2,1.8,1,1.9,2.2
		C512.4,116.9,511.2,118,509.7,117.9z"/>
</g>
</svg>
