<?xml version="1.0"?>
<!-- 24.1.28  -->
<svg xmlns="http://www.w3.org/2000/svg"
     width="1000" height="220"
     viewBox="0 0 1000 220">
<g>
	<path class="black" fill="#000000" d="M175,123.6c4.8,0.2,8.7-2.7,10-7.6c0.9-3.5,2.5-6.8,3.8-10.2c1.4-3.5,3.7-4.4,7.2-2.7c1.8,0.9,3.5,2.1,5,3.4
		c4.2,3.5,8.4,6.9,11.7,11.4c0.8,1.1,2,2.3,1.3,3.7c-0.8,1.7-2.7,1.8-4.2,1.5c-2.5-0.4-5-1.1-7.5-1.7c-3.5-0.8-6.9-2.2-10.7-1.7
		c-3.4,0.5-6.3,1.8-8.9,4c-0.9,0.8-0.2,1,0.4,1.2c1.2,0.5,2.5,0.7,3.6,1.4c6.8,4.3,10.9,9.9,9.1,17.7c-1,4.4-3.4,8.3-7.1,11.2
		c-3.3,2.6-6.1,5.9-9.9,8c-2.7,1.5-5.3,2.9-8.2,3.4c-1.8,0.3-2.4,0.9-2.5,2.8c-0.1,4-2.7,6.9-5.8,9.1c-1.6,1.1-2.5,2.4-3.1,4.2
		c-1.3,3.6-2.4,7.3-2.5,11.2c0,0.6-0.8,1.6-1.2,1.6c-0.7-0.1-1.7-0.6-1.9-1.2c-1.2-3.2-2.3-6.4-3.4-9.7c-0.4-1.1-0.6-2.3-1.2-3.3
		c-0.7-1.3-1.8-1.4-2.5-0.2c-1.4,2.2-2.8,4.3-5.4,5.3c-0.5,0.2-0.7,1-0.9,1.6c-1.7,4.7-3.3,9.5-3.7,14.5c-0.1,0.7-0.8,1.3-1.2,2
		c-0.6-0.5-1.6-0.8-1.9-1.5c-0.9-2.1-1.7-4.4-2.4-6.6c-0.8-2.4-1.4-4.9-2-7.4c-0.4-1.4-1.1-2.1-2.7-2.2c-4.8-0.4-9.1-2-13.2-4.6
		c-1.9-1.2-2.7-0.9-3.6,1.3c-0.4,1-0.7,2-1.2,2.9c-0.7,1.2-1.8,1.1-2.4-0.1c-0.3-0.7-0.5-1.4-0.6-2.1c-0.4-2.4-1.7-3.9-4.1-4.3
		c-0.6-0.1-1.2-0.4-1.8-0.7c-0.8-0.3-1.4-0.3-1.6,0.8c-0.5,2.1-1.1,4.1-1.7,6.1c-0.2,0.6-0.7,1.5-1.1,1.6c-0.7,0-1.8-0.3-2.1-0.8
		c-0.9-1.5-1.4-3.1-2-4.7c-1.4-3.7-2.7-7.4-4.1-11.1c-1.3-3.5-3.1-6.9-3.9-10.5c-0.7-2.8-0.8-6-0.3-8.9c0.4-2.3,0-4.1-0.9-6.1
		c-1.5-3.5-2.9-7.1-4.1-10.8c-0.6-2-0.9-4.1-0.3-6.3c0.4-1.6,0.4-3.4,0.6-5.1c0.3-4,1.9-7.4,4.1-10.6c0.3-0.4,0.6-1,1-1.2
		c3.2-1.4,3.8-4.1,4.3-7.2c0.5-3.5,2.3-6.7,4.5-9.5c2-2.5,4.6-4.1,7.6-5.1c5.9-2,11.8-1,17.7,0c1.5,0.3,3.2,0,4.7-0.1
		c3-0.2,5.9-0.5,8.9-0.9c6.1-0.8,11.9-0.5,17.4,2.5c3,1.7,4.9,4.1,6,7.2c0.6,1.8,2,2.9,3.3,4.1c2.7,2.4,6.1,3.4,9,5.3
		c4.6,2.9,6.4,7,5.8,12.3C171.7,123.7,171.6,123.7,175,123.6z"/>
	<path class="black" fill="#000000" d="M166.2,9.1c4.4-0.1,8.2,1.3,11.9,3.6c2.1,1.3,4.4,2.1,6.7,2.9c0.7,0.3,1.7,0,2.5-0.1c3.7-0.7,7.4-0.8,11,0.8
		c1.9,0.8,4,1,5.8,1.9c7.7,3.8,13.9,14.3,10.7,24.4c-1.2,3.7-1.6,7.6-0.9,11.7c1.6,8.5-1.3,12.5-8.8,16.5c-2.4,1.3-5.2,2.1-7.8,3
		c-1.8,0.6-3.3,1.4-4.1,3.3c-0.4,1-1.4,2-2.3,2.5c-3.6,1.9-7.4,3.7-11.6,2.3c-2.1-0.7-3.5-0.1-4.8,1.4c-2.4,2.9-5.7,3.6-9.2,3.8
		c-3.8,0.3-6.3-1.2-7.8-4.8c-0.8-1.8-1.6-2.3-3.6-2c-1.9,0.3-4-0.1-6-0.6c-3.6-0.9-5.3-3.9-6.4-7c-0.8-2.4-2.5-3.6-4.5-4.6
		c-3.5-1.7-6.1-4.2-8.3-7.4c-1.3-1.9-1.8-3.9-0.5-6c1.1-1.7,0.8-3.2-0.2-5c-2.1-3.5-3.4-7.4-3.4-11.5c0.1-9,6-14.2,14.7-15.9
		c4.4-0.9,8.2-2.7,11.4-5.8c2.7-2.6,5.8-4.7,9.3-6.1C161.9,9.5,164.1,9.5,166.2,9.1z"/>
	<path class="black" fill="#000000" d="M175.6,105.3c-1.5-0.6-3.2-1.1-4.6-1.9c-2.1-1.2-2.1-3.4-2-5.4c0.1-1.9,1.7-2.7,3.4-3.4c2.7-1.1,5.2-1.6,8-0.1
		c2.3,1.2,3.4,3.6,2.3,6.1C181.5,103.2,178.8,105,175.6,105.3z"/>
	<path class="black" fill="#000000" d="M72.5,191.3c0.9,0.1,2,2.3,1.7,3.4c-0.3,1.4-1.8,2.6-3,2.3c-1.2-0.3-1.5-1.6-0.9-3.3
		C70.9,192.6,71.2,191.4,72.5,191.3z"/>
	<path class="black" fill="#000000" d="M98,206.2c0,1.5-1.2,2.9-2.4,2.9c-1.3,0-2.1-0.9-2.1-2.3c0.1-1.3,1.4-2.7,2.7-2.8C97.3,204,98,204.8,98,206.2z
		"/>
	<path class="black" fill="#000000" d="M146.1,208.7c-0.3-0.4-1.2-1-1.5-1.8c-0.3-0.8,1.9-2.5,2.9-2.4c1.2,0,1.7,0.8,1.6,1.9
		C149.1,207.6,147.9,208.7,146.1,208.7z"/>
	<path class="black" fill="#000000" d="M112.4,208.3c0,1.5-2.3,3.7-3.3,3.4c-0.6-0.2-1.4-1-1.5-1.7c-0.2-1,2-2.7,3.5-2.7
		C111.6,207.4,112.1,208.1,112.4,208.3z"/>
	<path class="black" fill="#000000" d="M86.1,194.1c0.7,1.1,1.5,1.7,1.6,2.5c0.2,1-1.9,2.7-2.9,2.3c-0.8-0.4-1.4-1.4-2-2.1
		C83.8,195.9,84.7,195.1,86.1,194.1z"/>
	<path class="black" fill="#000000" d="M106.4,195.4c-0.1,2-1.2,3.4-2.4,3.3c-1.2-0.1-1.7-0.8-1.7-1.9c0-1.3,1.5-2.7,2.7-2.4
		C105.6,194.6,106.1,195.2,106.4,195.4z"/>
	<path class="black" fill="#000000" d="M183.8,195.5c0,1.2-1.4,2.2-2.7,2.1c-0.9-0.1-2.1-1.5-1.9-2.5c0.3-1.4,1.3-1.5,2.4-1.4
		C183,193.7,183.9,194.5,183.8,195.5z"/>
	<path class="black" fill="#000000" d="M116.9,198.4c1.3,0,2.7,0.8,2.7,1.7c0,1.2-1,2.2-2.2,2.3c-1.4,0.1-2-0.6-1.9-2.2
		C115.5,199.3,115.3,198.4,116.9,198.4z"/>
	<path class="black" fill="#000000" d="M164.6,199.5c-0.2-0.2-1-0.5-1.2-1c-0.3-0.8,1.9-2.9,2.7-2.6c0.7,0.2,1.4,1,1.6,1.6
		C168.1,198.7,166.8,199.5,164.6,199.5z"/>
	<path class="black" fill="#000000" d="M161.9,210c-0.2-0.3-0.8-0.8-0.9-1.4c-0.3-1.3,1-3,2.2-2.9c0.5,0,1.1,0.9,1.2,1.5
		C164.7,208.4,163.4,209.9,161.9,210z"/>
	<path class="black" fill="#000000" d="M126.2,216.8c-0.2-0.3-0.8-0.8-0.9-1.4c-0.1-1.1,1.5-2.8,2.3-2.5c0.6,0.3,1.2,1.1,1.3,1.8
		C129,215.8,127.8,216.8,126.2,216.8z"/>
	<path class="black" fill="#000000" d="M178.4,205.3c0.2,0.3,0.8,0.9,0.9,1.6c0.1,1.1-0.5,1.8-1.7,1.8c-1,0-1.6-0.4-1.4-1.5
		C176.3,206.1,176.5,205.2,178.4,205.3z"/>
	<path class="white" fill="#FFFFFF" d="M157.9,167.5c1.8,0,3.6-0.1,5.5,0c1.4,0.1,1.9,0.9,1.3,2.2c-0.7,1.5-1.3,3.3-2.3,4.5c-1.5,1.7-3.6,2.6-6.1,2.4
		c-3-0.2-6-0.4-9-0.4c-2.6,0-2.5,0.1-3.3,2.7c-0.5,1.7-1.6,3-3.4,3.6c-1.4,0.5-2.9,1-4.3,1.2c-6.7,0.7-13.2,0.1-19.4-3
		c-1.1-0.5-1.2-1.1-0.2-1.9c0.5-0.4,0.8-1,1.1-1.6c0.1-0.3,0.1-0.9-0.1-1.1c-0.2-0.2-0.8-0.1-1.1,0c-4.4,2.8-9,2.2-13.6,0.7
		c-4.6-1.4-8.4-4-11.6-7.7c-2.4-2.7-4.8-5.4-5.5-8.9c-0.6-3-0.6-6.1-0.6-9.2c0-1.3,0.8-1.9,2.2-1.2c0.8,0.4,1.6,0.7,2.4,0.8
		c0.6,0.1,1.3-0.1,2-0.1c-0.3-0.5-0.6-1-1-1.4c-2-1.7-4.1-3.4-6.1-5.1c-0.6-0.5-1.2-1.3-1.5-2c-3.2-7-4.1-14.1-1.8-21.5
		c0.8-2.5,1.5-4.9,3.5-6.7c2.1-1.9,2.3-2,4.3,0c0.6,0.6,1.2,1.2,1.9,1.7c0.3,0.2,0.8,0.2,1.2,0.2c0.1-0.4,0.2-0.8,0.1-1.2
		c-0.2-0.6-0.5-1.2-0.9-1.7c-2.4-4.1-1.9-8.2,0-12.3c2.4-5.2,6.5-8,12.1-8.8c5-0.6,9.8-0.4,14.4,2c1.2,0.6,2.3,1.2,1.7,2.9
		c-0.1,0.3,0.2,0.7,0.3,1.1c0.4-0.2,0.8-0.2,1.1-0.5c2-2.1,4.1-3.9,7-4.9c5.3-1.8,10.5-1.9,15.7,0.1c4.1,1.6,6.9,4.6,7.7,9.1
		c0.4,2.2,0.2,2.4-1.9,3.2c-0.4,0.2-0.8,0.2-1.2,0.5c-0.3,0.2-0.5,0.6-0.8,0.9c0.3,0.2,0.7,0.6,1,0.6c1.3,0,2.6-0.1,3.8-0.2
		c5-0.4,9.2,1.6,13.1,4.5c2.9,2.1,3.9,5.3,3.3,8.8c-0.5,3-3.1,5.1-6.1,5c-4.3-0.1-8.5-0.3-12.7,1c-1.7,0.5-3.6,0.3-5.4,0.4
		c-4.1,0.3-7.9,1.6-11.6,3.4c-2.9,1.4-2.7,1-5.1-1.1c-2.6-2.3-3-5.4-3.7-8.3c-0.4-1.9-1.3-2.9-3.1-3c-8.1-0.8-18.6,2.3-23,10.3
		c-0.6,1.1-1,2.3-1.5,3.5c-0.8,2.3-0.3,4.3,1.5,5.7c1.9,1.5,4,1.3,6.1,0.5c0.8-0.3,1.6-0.7,2.2-1.3c4.4-3.5,9.6-3.9,14.9-4.1
		c1.6-0.1,3.2,0,4.8,0.3c2.3,0.5,2.7,1.4,1.5,3.4c-0.5,0.8-1,1.6-1.7,2.4c-3.7,4.1-5,8.8-3.6,14.2c0.3,1.3,1,2.6,1.9,3.6
		c3.8,4.3,8.4,7.1,14.2,8c3.2,0.5,6.4,1.5,9.6,2.5C151.3,167.2,154.5,167.7,157.9,167.5z"/>
	<path class="white" fill="#FFFFFF" d="M140.5,160.6c-4.6,0.3-9.1-2.2-12.9-6c-2.6-2.6-3.1-6-2.1-9.5c1.3-4.5,4-8.3,7.7-11.1c5.7-4.5,12.3-5.6,19-3
		c4.3,1.6,7.5,4.9,9.6,9c1.7,3.4,0.3,10.4-2.4,12.9C154.3,157.5,148.6,160.4,140.5,160.6z"/>
	<path class="white" fill="#FFFFFF" d="M176.3,157.3c-4.4,0-8-2.4-11.7-4.1c-0.4-0.2-0.7-1.3-0.6-1.8c0.2-1.2,0.7-2.5,1.2-3.6c2-4.3,0.3-7.9-1.9-11.4
		c-0.5-0.8-1.2-1.5-1.7-2.3c-1.3-1.6-1.3-1.6,0.5-2.8c6.5-4.2,13.5-5.1,20.8-2.8c4.9,1.6,7.9,5.3,9.5,10.1c0.6,1.8,0.7,3.8-0.6,5.5
		c-0.3,0.4-0.4,1-0.5,1.5c-1.6,5.4-5.6,8.7-10.6,10.9C179.3,157.1,177.8,157.1,176.3,157.3z"/>
	<path class="white" fill="#FFFFFF" d="M212.3,38.6c-0.4,1.2-0.8,3.3-1.6,5.2c-0.7,1.7-1.7,3.2-3.9,3.2c-0.5,0-0.9,0.7-1.4,1c0.4,0.2,0.8,0.5,1.3,0.6
		c2.5,0.4,3.7,1.9,4,4.3c0.3,3,1.2,6-0.6,8.7c-1,1.6-2.4,3.1-3.9,4.1c-2.5,1.6-5.2,2.9-7.9,4.2c-1.3,0.6-2.5,0.6-2.7-1.4
		c0-0.5-0.6-1.1-0.8-1.6c-0.4,0.6-0.8,1.1-1.1,1.7c-1,2-1.9,4-2.9,6c-2.1,4-8.5,5.1-12.9,3.3c-0.6-0.3-1.2-0.9-1.6-1.4
		c-3.8-4.4-9.4-5.5-14.4-2.3c-3.7,2.4-7.6,3-11.8,2.5c-3.9-0.5-6.4-3.5-6.3-7.4c0-1.4,0.2-2.5-2-3.1c-3.9-1-7.6-2.8-10-6.5
		c-1.2-1.8-1.4-3.3-0.4-5c0.7-1.2,1.6-2.2,2.5-3.3c0.6-0.7,1.4-1.3,2.1-2c0.2-0.2,0.2-0.7,0.2-1.1c-0.4,0-0.8-0.1-1.2-0.1
		c-1.3,0-2.2,2.3-3.6,1c-0.9-0.8-1.1-2.3-1.8-3.4c-1.5-2.6-2-5.4-1.9-8.3c0.2-5,2.6-8.4,7-10.7c3-1.6,6.1-2.5,9.5-2.3
		c1.3,0.1,2,0.6,1.7,2c-0.1,0.7-0.2,1.5-0.2,2.2c0,0.9-0.2,2.1,1.1,2.3c1.2,0.2,1.5-0.9,1.7-1.9c0.5-2.2,1-4.4,1.7-6.5
		c0.4-1.3,1.1-2.6,2.1-3.5c4.4-4.3,9.3-7.4,15.9-6.9c4.2,0.3,7.8,2.2,11.2,4.4c1,0.6,1.7,1.5,0.2,2.5c-0.3,0.2-0.6,0.4-0.6,0.7
		c-0.1,0.6-0.1,1.2,0.1,1.7c0.1,0.2,1,0.2,1.4,0.1c0.7-0.2,1.3-0.7,2-1.1c7.4-4.2,14.4-2.7,21.2,1.3
		C209.6,25.6,211.9,31.1,212.3,38.6z"/>
	<path class="white" fill="#FFFFFF" d="M167.5,75.3c1.6,0.7,3.1,1.3,4.4,2.1c2.1,1.3,2.1,2.3,0.1,3.8c-2.2,1.7-4.8,2.4-7.5,2.6
		c-1.9,0.1-3.6-1.3-4-3.1c-0.1-0.7,0.1-2,0.5-2.3C163.1,77.3,165.2,76.4,167.5,75.3z"/>
	<path class="white" fill="#FFFFFF" d="M176,101.7c-2.2-0.1-3.3-0.6-3.6-2.1c-0.3-1.5,0.7-2,1.9-2.4c1.6-0.6,3-1,4.5,0.3c1.1,0.9,1.2,1.8,0.1,2.6
		C177.9,100.9,176.6,101.4,176,101.7z"/>
	<path class="black" fill="#000000" d="M145.7,143.3c-0.5-0.1-1.3,0.1-1.7-0.3c-0.8-0.7-1.8-1.7-2-2.7c-0.1-0.7,0.9-1.9,1.7-2.3
		c1.1-0.6,2.4-0.8,3.7-0.9c1.7-0.2,3.3,1.2,3.5,2.6c0.1,1.7-0.9,2.9-2.8,3.3C147.4,143.2,146.6,143.2,145.7,143.3z"/>
	<path class="black" fill="#000000" d="M177.8,133.5c2.5,0,4.3,1.1,4.6,2.6c0.2,1.3-1,2.5-3.4,3.1c-0.8,0.2-1.7,0.2-2.5,0.1c-1.2-0.2-2.3-0.6-2.4-2.1
		c-0.1-1.5,0.2-2.8,1.9-3.2C176.6,133.8,177.4,133.6,177.8,133.5z"/>
	<path class="heart" fill="#AD0000" d="M163,37.3c1.7,0.7,3.4,1.2,5,2c2,1,2.9,1.1,4.1-0.6c1.7-2.3,4-3.8,6.4-5.2c2.3-1.4,5.4-1.1,7.2,0.5
		c1.6,1.5,2,4.7,0.8,7.1c-0.8,1.6-1.8,3.2-2.9,4.6c-2.7,3.5-4.8,7.3-5.3,11.8c-0.2,2-0.5,2.2-2.5,1.7c-1.9-0.5-3.9-1.1-5.7-2
		c-3.2-1.5-6.3-3.1-9.4-4.8c-1.6-0.8-3.2-1.8-4.7-2.7c-3.6-2.3-4.8-8.4,1.2-10.8C159.1,38.2,160.9,37.9,163,37.3z"/>
</g>
<g>
	<path class="black" fill="#000000" d="M327,86.4c2.7,0.3,6.6,0.3,10.2,1.9c3.2,1.4,6.6,2.6,9.9,3.7c0.9,0.3,1.9,0.3,2.8,0.3c2.5-0.2,4.9,0.2,7.2,1.3
		c2,1,4,2,6,3.1c7.5,4.1,11.3,10.8,13.1,18.8c0.5,2.4-0.2,5.1-0.7,7.6c-0.5,2.1-0.6,4-0.4,6.2c0.4,4,1.7,7.6,3,11.3
		c1.9,5.4,0.8,10.3-2,15c-1.4,2.4-2.6,4.8-2.6,7.8c0,1.9-0.9,3.7-2.4,5.1c-1.8,1.7-3.1,3.5-3.5,6.2c-0.5,3.2-1.8,6.3-2.7,9.5
		c-0.4,1.3-0.4,2.7-0.8,4.1c-0.2,0.6-0.8,1.5-1.3,1.5c-0.6,0.1-1.3-0.5-1.8-1c-0.4-0.4-0.4-1.2-0.6-1.8c-0.8-1.8-1.8-3.6-2.5-5.5
		c-0.6-1.9-1.8-2-3.5-1.7c-1.8,0.3-3.6,0.3-5.4,0.6c-0.7,0.1-1.4,0.5-2,0.8c-2.5,1.4-4.9,3.1-7.5,4.2c-2.1,0.9-3.4,2.1-4,4.2
		c-0.5,1.7-0.7,3.6-1.3,5.3c-0.2,0.6-0.8,1.3-1.4,1.5c-0.4,0.1-1.2-0.4-1.5-0.8c-1.2-1.9-2.3-3.8-3.3-5.9c-0.8-1.7-1.7-3.1-3.2-4.3
		c-1.7-1.3-3.2-2.8-4.6-4.3c-0.8-0.9-1.6-0.9-2.6-0.6c-2,0.6-4,1.4-6.1,2c-1.5,0.4-2,1.6-2.4,2.8c-0.6,2-0.9,4.2-1.4,6.2
		c-0.3,1.2-0.5,2.5-1.1,3.6c-1.3,2.2-1.8,2.2-2.9,0c-1.7-3.3-3.3-6.7-4.8-10.1c-0.7-1.7-1.6-3.2-3.3-4.1c-4.3-2.5-6.1-6.4-6.4-11.2
		c-0.1-1.6-0.1-3.2-0.2-4.8c0-0.4-0.4-1-0.8-1.2c-3.1-1.3-6.1-2.7-9.2-3.6c-5.5-1.6-8-5.8-9.9-10.5c-1.7-4.5-0.3-8.9,1.3-13.1
		c0.5-1.2,1.6-2.3,2.6-3.2c1.9-1.7,3.9-3.3,6.1-4.7c1.3-0.8,1.3-1.4,0.5-2.5c-0.4-0.5-0.6-1.1-1-1.6c-0.2-0.2-0.5-0.5-0.7-0.5
		c-2.5,0.2-5,0.3-7.5,0.7c-3.5,0.5-6.9,1.3-10.4,2c-1,0.2-2.1,0.6-3.1,0.6c-2.2,0.2-3-0.7-1.8-2.6c1.4-2.4,3.1-4.6,5-6.6
		c2-2,4.3-3.9,6.7-5.4c1.9-1.2,4.2-2,6.5-2.6c3.6-1,6,0.5,6.8,4.3c0.5,2.4,0.7,4.9,1.1,7.3c0.2,1,0.4,2.1,0.9,3
		c0.5,1.2,1.5,1.8,2.9,1.1c0.1,0,0.2-0.1,0.3-0.1c1.4-0.5,3.3-0.6,4-1.6c0.6-0.8-0.4-2.6-0.5-3.9c-0.1-3.6,0.3-7,3.4-9.6
		c0.9-0.7,1.5-1.8,2.3-2.6c1.9-2.3,4.3-3.6,7.4-4.1c3.3-0.6,5.9-2.3,7.1-5.7C311.3,90.9,317.7,86,327,86.4z"/>
	<path class="black" fill="#000000" d="M315.3,50.1c-0.4,2.1-0.9,4.1-1.2,6.2c-0.3,2.1-0.6,4.2,0.2,6.2c0.8,2,0.4,3.6-1,5.3
		c-3.9,4.7-8.6,7.8-14.5,9.5c-0.9,0.3-1.8,1-2.4,1.8c-3.1,4-7,5.9-12.1,4.5c-1.3-0.3-2.1,0.1-3.2,0.7c-2.5,1.4-5.1,2.7-7.8,3.7
		c-2.6,0.9-4,0.3-5.4-2.1c-0.9-1.5-1.8-1.8-3.3-1.5c-1.6,0.3-3.2,0.3-4.8,0.3c-3.7-0.1-5.7-1.6-6.3-5.1c-0.5-2.7-1.8-3.8-4.4-4.2
		c-3.8-0.7-7.3-2.1-10.2-5c-3.7-3.7-5.1-8-3.9-13.1c0.5-2.4-1-4.2-2.2-6.1c-2-3.1-3.6-6.3-4.4-9.9c-0.7-3.1,0.5-5.4,2.6-7.5
		c3.2-3.2,7.1-5.1,11.6-5.7c1.4-0.2,2.8-0.4,4.1-0.8c1.9-0.6,3.2-1.8,4.1-3.7c1.9-4.1,4.8-7.2,8.8-9.4c3-1.7,5.9-1.7,8.9,0
		c0.7,0.4,1.5,0.9,2.3,1.2c2,0.7,3.9,1.1,6-0.4c4.2-3.1,9-3.4,14.1-2.3c3.6,0.8,7,1.6,10.1,3.7c5.6,3.7,8,9,8.7,15.3
		c0.3,2.4,0.9,4.5,2,6.6C313.6,41.9,315.4,45.7,315.3,50.1z"/>
	<path class="black" fill="#000000" d="M284.8,103.9c-2.2,0-4.8-1.9-5.1-3.5c-0.5-2.1,0.3-3.8,2.4-5c3.6-2.2,5.4-2.3,7.8-0.3c2.3,1.9,2.4,4.2,0.1,6.2
		C288.3,102.6,286.7,103.8,284.8,103.9z"/>
	<path class="black" fill="#000000" d="M278.9,206.5c-0.2-0.1-1.2-0.3-1.3-0.8c-0.1-0.6,0.2-1.6,0.7-2.1c0.8-0.9,1.9-1.7,3-2.3c0.5-0.3,1.7-0.1,2,0.3
		c0.4,0.6,0.5,1.6,0.3,2.3C282.9,205.5,281.3,206.4,278.9,206.5z"/>
	<path class="black" fill="#000000" d="M318.7,202.8c-1.4,0-2.4-1.1-2.3-2.4c0.1-1.1,2.2-3,3.3-3c1,0,1.8,1,1.8,2.2
		C321.3,201.5,320.2,202.9,318.7,202.8z"/>
	<path class="black" fill="#000000" d="M376,188c1.3,0.1,1.9,1.3,1,2.4c-0.5,0.7-1.1,1.3-1.8,1.7c-0.6,0.3-1.6,0.6-2.2,0.3c-0.6-0.3-1.2-1.4-1.1-2
		c0.1-0.8,0.8-1.7,1.5-2.1C374.1,187.9,375.1,188.1,376,188z"/>
	<path class="black" fill="#000000" d="M330.3,208.8c0.9-1,1.7-2,2.7-2.6c0.5-0.3,1.7,0.2,2.3,0.7c0.8,0.8,0,1.5-0.7,2.1c-0.4,0.4-0.7,0.8-1.1,1.1
		c-0.5,0.3-1.2,0.8-1.6,0.6C331.3,210.4,330.9,209.7,330.3,208.8z"/>
	<path class="black" fill="#000000" d="M387.2,198c-0.2-0.2-0.9-0.6-0.9-1.1c-0.1-1.4,1.6-3.3,2.7-3.2c0.9,0.1,1.8,1.3,1.6,2.4
		C390.3,197.5,389.3,198.2,387.2,198z"/>
	<path class="black" fill="#000000" d="M309.2,210.9c0.2,0.1,0.8,0.3,1.1,0.7c0.7,0.8,0.1,2.4-1,3.4c-1,0.8-1.9,0.8-2.9,0.1c-0.2-0.1-0.3-0.3-0.4-0.5
		C305.6,213.4,307.6,210.9,309.2,210.9z"/>
	<path class="black" fill="#000000" d="M348,195.7c-0.2,1.9-1.6,3.3-2.8,3.1c-1.2-0.2-1.6-1-1.5-2.1c0.1-1.5,1.4-2.8,2.4-2.4
		C346.9,194.5,347.5,195.3,348,195.7z"/>
	<path class="black" fill="#000000" d="M360.5,200.4c-0.3,0.3-1.3,1.6-1.6,1.5c-1.2-0.6-2.3-1.7-3.4-2.6c0.9-0.5,1.7-1.3,2.6-1.4
		C359.7,197.6,360.5,198.5,360.5,200.4z"/>
	<path class="black" fill="#000000" d="M295.3,206.8c-0.3-0.4-1.1-0.9-1.3-1.6c-0.3-0.9,1.6-2.6,2.6-2.2c0.7,0.3,1.4,1.2,1.7,2
		C298.7,205.9,297.5,206.7,295.3,206.8z"/>
	<path class="black" fill="#000000" d="M353.7,205.7c0,1.8-1.9,3.5-3.2,3.2c-0.4-0.1-1-0.8-1-1.3c-0.1-1.1,2-2.8,3.1-2.7
		C353,204.9,353.4,205.5,353.7,205.7z"/>
	<path class="black" fill="#000000" d="M375,202.7c-0.3,0.3-0.7,0.7-1.1,1c-0.7-0.7-1.4-1.4-2-2.3c-0.1-0.1,0.7-1.1,1.2-1.1
		C374.8,200,374.7,201.3,375,202.7z"/>
	<path class="white" fill="#FFFFFF" d="M306.3,180.3c-3-0.5-5.8-0.5-8.5-2c-4.9-2.7-5.7-7.4-5.8-12c0-1.2,0.7-1.7,1.9-1.3c0.5,0.2,1,0.4,1.5,0.6
		c3.5,1.1,6.8,1.2,10.3-0.6c1.7-0.9,3.7-1,5.5-1.6c1.5-0.5,3.1-0.8,4.5-1.6c3.4-2,6.8-4,10-6.3c5.5-3.9,7.6-12.2,4.8-18.4
		c-0.3-0.7-0.8-1.3-1-2c-0.4-1.3-2.4-2.5-1-4c1.5-1.7,3-3.8,5.7-3.7c2.4,0.1,4.7,0,7,0.3c3.9,0.5,7.7,0.7,11.5-0.2
		c0.9-0.2,1.9-0.3,2.9-0.2c1.5,0.1,2-0.8,2.5-1.9c0.4-1,0.3-1.7-0.6-2.2c-5.3-3.5-10.5-7.3-16.7-9.4c-1-0.3-2.1-0.5-3.2-0.5
		c-1.9,0-2.8,0.6-3,2.5c-0.5,3.7-2.5,6.7-4.5,9.7c-2.1,3.1-4.1,3.6-7.7,2.2c-3-1.2-6.2-1.4-9.4-1.6c-5.6-0.2-11.3-0.8-16.9-1.2
		c-1.9-0.1-2.8-0.8-3.4-2.9c-1.3-4.3-0.4-7.7,2.3-11c2.9-3.5,6.7-5.2,11.2-5.4c1.2-0.1,1.1,0.4,1.1,1.3c0,1.1,0.1,2.1,0.3,3.2
		c0.1,0.3,0.6,0.9,0.8,0.8c0.4-0.1,1-0.4,1.2-0.8c0.3-1,0.5-2.1,0.5-3.1c0.2-2.8,0.8-5.4,1.7-8.1c2.1-6.6,6.9-9.3,13.3-9.6
		c4.9-0.2,9.6,0.8,14.1,2.4c2.2,0.8,2.4,1.8,1.2,3.9c-0.4,0.6-0.8,1.3-1.1,1.9c-0.2,0.4,0,0.9,0,1.4c0.5-0.1,1.2,0.1,1.5-0.2
		c2.7-3.3,6.6-2.5,10.1-3.2c0.8-0.2,1.7,0.1,2.5,0.3c4.1,1.1,7.6,3.4,11,5.8c4.4,3.1,6.6,7.8,8.3,12.7c1.2,3.4,0.6,7-1.2,10.2
		c-0.1,0.3-0.8,0.4-1.2,0.3c-0.2,0-0.5-0.4-0.7-0.6c-0.8-0.9-1.8-1.4-2.7-0.3c-0.8,0.9-0.3,2.1,0.5,2.9c4.7,4.8,6.9,10.8,8,17.2
		c0.7,4-0.2,7.8-3,11.1c-1.5,1.7-3.5,2.4-5.5,3.2c-2.1,0.9-4.1,1.8-6.1,2.7c-0.4,0.2-0.5,0.8-0.7,1.2c0.5,0.1,1,0.2,1.4,0.1
		c1.9-0.4,3.7-0.9,5.6-1.4c1.3-0.3,2.3-0.1,3,1.1c0.6,1.1,0.5,2-0.2,3c-4.4,5.8-9.6,10.7-17.3,11.8c-2,0.3-2.3,0-1.7-2
		c0.3-1.1,0.8-2.2,0.9-3.4c0.1-1.2-0.1-2.5-0.3-3.8c0-0.3-0.6-0.5-0.9-0.8c-0.2,0.3-0.6,0.6-0.6,1c-0.4,3.4-1.7,6.3-3.7,9.1
		c-2.1,2.8-4.8,4.1-8,4.8c-0.7,0.1-1.7,0.1-2.1,0.5c-1.9,2-4.1,1.3-6.3,1c-2.4-0.4-4.9-0.9-6.3-3.4c-1.3-2.3-2.5-4.7-3.7-7
		c-0.3-0.6-0.4-1.4-0.8-2c-0.2-0.3-0.9-0.4-1.4-0.3c-0.2,0-0.4,0.7-0.4,1c0.1,1.5,0.3,3,0.6,4.4c0.2,1.2-0.1,1.9-1.3,2.1
		C313.1,178.8,309.7,179.6,306.3,180.3z"/>
	<path class="white" fill="#FFFFFF" d="M308.3,160.5c-7,0.6-14.2-9.2-12.7-16.7c1-5.1,3.8-9,7.6-12.3c1.2-1.1,3-2,4.5-2.1c4.4-0.4,8.9-0.8,13.1,1.4
		c3.7,1.9,5.6,5.2,6.9,8.9c0.4,1,0.5,2.1,0.7,3.1c0.4,3-0.1,5.7-2.2,8c-4,4.3-8.7,7.6-14.4,9.2C310.7,160.3,309.5,160.4,308.3,160.5
		z"/>
	<path class="white" fill="#FFFFFF" d="M284.3,156.4c-0.9,0-1.2,0-1.5,0c-4.6,0.8-7.2-1.7-9.4-5.7c-3.7-6.7-1.2-13.6,3.9-17.9
		c3.3-2.7,6.9-4.7,11.1-5.6c3.7-0.8,7.4-0.2,10.8,1.8c1.2,0.7,1.4,1.4,0.3,2.7c-2,2.3-3.7,4.9-5.3,7.5c-2.5,4.2-2,8.6-0.7,13.1
		c0.6,2.2,0.6,2.6-1.7,3C289.1,155.9,286.4,156.1,284.3,156.4z"/>
	<path class="white" fill="#FFFFFF" d="M312.2,50.2c0,4-1.2,5.6-4.7,6.6c-0.9,0.2-1,0.7-0.5,1.3c0.7,0.8,1.3,1.7,2.1,2.4c2.9,2.2,3,3.9,0.5,6.7
		c-2.2,2.5-4.6,4.4-7.7,5.6c-1.1,0.4-1.8,0.6-2.8-0.4c-1.3-1.3-2.5-0.7-2.9,1.2c-1.2,4.7-5.5,7.8-10.3,7.3c-1.5-0.2-2.5-0.7-3.1-2.3
		c-1.3-3.3-2.4-4.1-5.8-3.7c-2.9,0.4-5.8,1.2-7.9,3.7c-2.4,2.9-5.7,3.3-9.1,3.3c-1.9,0-3.3-1.6-3.7-3.1c-0.3-1.4-1.1-3.4,0.9-4.6
		c0.3-0.2,0.7-0.6,0.8-1c0.1-0.6,0-1.3-0.3-1.7c-0.2-0.2-1.1-0.3-1.4-0.1c-3.1,2.3-6.3,1.4-9.5,0.4c-1.9-0.6-3.8-1.5-5.4-2.7
		c-3.4-2.5-4.3-8.1-2.2-11.8c0.8-1.5,1.7-3,2.5-4.5c0.2-0.3,0.1-0.8,0.2-1.2c-0.4,0-0.9-0.2-1.1,0c-2,1.5-3.1,0.4-4.6-1
		c-2.5-2.3-4.2-5.1-5.3-8.3c-0.6-2-0.2-3.6,1.2-5.3c3.7-4.7,8.8-6.1,14.3-7.1c1.6-0.3,3,0,3.2,2.1c0,0.5,0.3,1.1,0.7,1.4
		c0.5,0.4,1.3,0.6,1.9,0.8c0.2-0.6,0.8-1.4,0.6-1.9c-1.5-4.6,0.9-8.1,3.4-11.4c1.6-2.1,3.6-3.8,6.3-4.7c2.1-0.6,3.8-0.5,5.4,0.9
		c2.7,2.3,5.3,4.7,7.9,6.9c0.7,0.6,1.2,2.3,2.4,1.4c1.2-1-0.4-1.8-0.9-2.6c-2.2-3.2-2.2-3.5,1.1-5.6c2.6-1.6,5.4-2.7,8.5-2.3
		c2.9,0.4,5.8,0.6,8.5,1.6c5.9,2.2,11.5,8.3,11.5,15.9c0,2.2-0.6,4.2-1.8,6.1c-0.7,1-1.4,1.9-2,2.9c-0.4,0.7-0.5,1.4-0.8,2.2
		c0.6-0.4,1.3-0.8,1.9-1.3c0.4-0.3,0.7-0.8,1.1-1.2c1.5-1.3,3.6-1.1,4.5,0.6C311.3,44.5,312.5,47.3,312.2,50.2z"/>
	<path class="white" fill="#FFFFFF" d="M277.8,77.8c0.5,0.4,1.5,0.9,1.9,1.7c0.6,1-0.2,1.8-1,2.4c-1.7,1.2-3.1,3-5.4,3.3c-1.1,0.1-2.1,0.1-2.8-0.9
		c-0.8-1.1-0.3-2,0.5-2.8C272.7,79.5,274.7,78.1,277.8,77.8z"/>
	<path class="white" fill="#FFFFFF" d="M288.4,98.1c-0.1,1.6-3.1,3.4-4.1,2.8c-0.3-0.2-0.6-0.7-0.5-1c0.1-0.8,0.1-1.8,0.5-2.5c0.4-0.5,1.4-1.1,1.9-1
		C287.2,96.7,287.9,97.6,288.4,98.1z"/>
	<path class="black" fill="#000000" d="M309.6,142.9c-0.1,2.2-1.7,3.8-3.9,3.8c-1.6-0.1-4.5-2.3-4.4-3.5c0.1-1.3,3.6-4.6,5-4.6
		C308,138.6,309.6,140.7,309.6,142.9z"/>
	<path class="black" fill="#000000" d="M285.3,139.6c0,2.3-2,4.2-4.4,4.2c-1.5,0-3.1-1.4-3.1-2.6c0-1.9,3-4.8,5-4.7
		C284.3,136.5,285.3,137.9,285.3,139.6z"/>
	<path class="heart" fill="#AD0000" d="M293.6,39.4c-0.6,2.9-1.4,6.4-3.5,9.5c-2.8,4.1-4.8,8.5-5.2,13.6c-0.2,2.3-0.7,2.2-2.9,1.7
		c-3.9-0.9-7.5-2.5-10.8-4.6c-2.7-1.7-5.4-3.5-7.6-5.7c-1.5-1.5-2.4-3.7-3.3-5.7c-1-2.2-0.1-3.9,1.7-5.3c3.3-2.6,8.6-2.8,12.3-0.3
		c1.8,1.2,1.8,1.2,3.2-0.4c1.4-1.6,2.8-3.3,4.2-4.8c2-2.1,4.5-3.3,7.4-3.2C292.6,34.1,293.6,35.2,293.6,39.4z"/>
</g>
<g>
	<path class="black" fill="#000000" d="M573.1,162.8c0-0.6-0.1-1.3,0-1.9c0.4-2.9,0.5-3-2.5-3.8c-4.5-1.1-8.2-3.4-11.7-6.3c-3.6-3.1-5.9-6.7-5.1-11.7
		c0.6-3.5,2.6-6,5-8.2c1.4-1.3,3.1-2.3,4.6-3.4c0.2-0.2,0.3-1,0.1-1.1c-1.7-0.8-3.3-1.7-5.1-2.1c-2.2-0.5-4.3-0.3-6.5,0.9
		c-2.2,1.2-4.7,2.1-7.1,2.7c-2.9,0.6-4.2-1.1-3.3-4c1-3.2,3.5-5.4,5.9-7.4c2.9-2.3,6.3-3.8,9.9-4.1c1.7-0.1,3.6,0.5,5.2,1.1
		c0.6,0.2,0.9,1.5,1.1,2.4c0.6,2.4,1,4.8,1.6,7.2c0.4,1.5,1.4,2.4,2.9,2.7c0.8,0.1,1.7-0.1,2.5-0.2c-0.1-0.8-0.3-1.5-0.3-2.3
		c-0.2-2.7-0.7-5.3-0.5-8c0.2-2.6,2.3-4.2,4.2-5.8c0.2-0.2,0.5-0.4,0.8-0.5c4.1-1.5,7.3-4.3,10.8-6.7c1.8-1.2,3.5-2.8,4.6-4.7
		c2.2-3.7,5.4-6.2,9.3-7.4c4.9-1.6,9.9-2.5,15.1-2.5c4.3,0,8.3,1.5,12.4,2.5c1.4,2.3,3.7,1.4,5.7,1.7c3.3,0.6,6.3,1.9,8.7,4.4
		c2.9,3.1,6.1,5.9,8.1,9.8c1.4,2.7,2.3,5.5,2.3,8.5c0,2.7,0.2,5.1,2.6,7.1c1.4,1.1,2,3.3,2.7,5c2.6,6.3,2.7,12.4-1.2,18.3
		c-1.1,1.7-1.3,4-2.7,5.4c-2.1,2.2-1.9,4.4-1.6,7c0.7,5.7-1.2,10.6-5.9,14c-1.5,1.1-2.4,2.3-2.8,4c-0.7,2.7-1.4,5.4-2.1,8
		c-0.1,0.4-0.6,0.8-0.9,1.2c-0.5-0.4-1.2-0.6-1.4-1.1c-0.9-2.3-1.7-4.6-2.5-6.9c-0.2-0.5-0.3-1-0.5-1.5c-0.8-1.7-1.6-1.9-2.7-0.3
		c-1.6,2.4-3.9,4-6.5,5c-1.2,0.5-2.4,0.8-3.7,1c-2.2,0.3-3.3,1.6-3.9,3.7c-0.6,2.2-1.1,4.3-1.9,6.4c-0.3,0.8-1.2,1.3-1.8,1.9
		c-0.5-0.6-1.3-1.2-1.5-1.9c-0.7-2.7-1.3-5.4-1.8-8.1c-0.3-1.6-0.9-2.4-2.4-2.9c-1.9-0.6-3.6-1.7-5.5-2.6c-0.6-0.3-1.4-0.7-2-0.6
		c-1.7,0.2-3.4,0.6-5.1,0.8c-2.2,0.3-3.2,1.8-3.7,3.8c-0.6,2.5-1.2,5-1.8,7.5c-0.2,0.6-0.2,1.4-0.6,1.8c-0.5,0.5-1.3,1-1.9,1
		c-0.5,0-1.3-0.8-1.5-1.3c-1-3.2-1.9-6.3-2.6-9.5c-0.5-2.1-1.2-3.7-3.4-4.6C575.6,173.8,573,169.1,573.1,162.8z"/>
	<path class="black" fill="#000000" d="M613.1,77.8c-2.2,0.3-5.3,0.8-8.1,3c-3.4,2.6-7.6,3.9-12,4c-1.2,0-2.5-1.2-3.6-0.9c-1.1,0.3-1.7,2-2.8,2.5
		c-3,1.4-6.3,2.1-9.6,0.9c-1.7-0.6-2.7-1.7-3.2-3.4c-0.3-1-0.8-1.4-1.8-1.3c-1.1,0.1-2.1,0-3.2-0.2c-2.6-0.4-4.6-1.8-5.5-4.3
		c-1.2-3.3-3-5.8-6.3-7.7c-5.2-3-6.7-8.1-5.9-13.8c0.2-1.4,0.9-3.2,2-3.8c4-2.5,3.8-6,3.1-9.9c-0.3-2-0.6-4-0.7-6
		c-0.1-3.6,1.9-6,4.9-7.6c3.9-2.1,8.3-2.8,12.6-3.3c4.5-0.5,8.8-1.2,12.5-4.2c5.2-4.2,11.4-4.6,17.7-3.4c2.3,0.4,4.6,1,6.8,1.9
		c1.5,0.6,3.3,1.6,4.1,2.9c1.2,2,2.8,2.5,4.7,2.7c4.1,0.5,7.8,2,11.1,4.5c4.8,3.5,6.9,9.8,5.4,15.6c-1,3.8-1.6,7.8-2.2,11.7
		c-0.2,1.1,0.1,2.3,0.3,3.4c0.9,3.9,0.4,7.5-1.8,10.7c-1,1.5-2.8,2.7-4.4,3.5C623.8,77.1,618.2,77.9,613.1,77.8z"/>
	<path class="black" fill="#000000" d="M575.8,97.8c0,2-1.5,4.3-3.4,4.9c-1.3,0.5-2.6,1.2-3.9,1.3c-1.6,0.2-3.4,0.2-5-0.2c-0.8-0.2-2-1.5-1.9-2.2
		c0.2-2.1,0.4-4.8,1.7-6.1c2.3-2.4,5.5-3.6,9.1-2.2C574.2,94,575.8,96,575.8,97.8z"/>
	<path class="black" fill="#000000" d="M563.3,198.8c-1.5-0.3-2-0.8-1.6-2c0.6-2.1,2.3-3.2,4-4.4c0.6-0.4,1.5-0.4,2,0.7c0.6,1.2,1.4,2.4,0.1,3.4
		C566.4,197.5,564.8,198.1,563.3,198.8z"/>
	<path class="black" fill="#000000" d="M625.2,215.2c0,1.7-1.5,3-2.9,3c-1.1,0-2-1.3-2-2.8c0-1,1.9-3.2,2.5-2.7C623.9,213.4,624.6,214.6,625.2,215.2z
		"/>
	<path class="black" fill="#000000" d="M651.9,188c-0.2-0.3-1.3-1.2-1.2-1.4c0.8-1.2-0.8-3.3,1.4-3.8c1-0.2,3.3,2,3.3,3
		C655.5,187.1,654.1,188.1,651.9,188z"/>
	<path class="black" fill="#000000" d="M594.8,197.5c1.3,0,2.2,1,2.1,2.2c-0.1,1.1-1.9,2.9-3.1,2.8c-0.7-0.1-1.6-0.8-1.7-1.3
		C591.8,199.6,593.6,197.5,594.8,197.5z"/>
	<path class="black" fill="#000000" d="M618,203.7c0.1,1.6-2.2,4.1-3.4,3.9c-0.6-0.1-1.5-0.9-1.6-1.5c-0.3-1.9,2.2-4,4-3.3
		C617.5,202.8,617.8,203.4,618,203.7z"/>
	<path class="black" fill="#000000" d="M630.5,193.1c-0.1,1.3-1.9,2.7-3.5,2.7c-1.3,0-1.5-1-1.5-2c0-1.5,1.2-2.8,2.5-2.7
		C629.5,191.2,630.5,192,630.5,193.1z"/>
	<path class="black" fill="#000000" d="M635.3,204.1c0,1.2-1.1,2.5-2.3,2.6c-1.1,0.1-2.6-1.2-2.7-2.3c-0.1-1,1.5-2.4,2.8-2.5
		C634.3,201.8,635.3,202.8,635.3,204.1z"/>
	<path class="black" fill="#000000" d="M577.8,199.3c1.2-0.2,1.9,0.3,1.9,1.7c0,1.5-1.5,3.1-3,3c-1.6-0.2-1.1-1.7-1.3-2.5
		C575.1,200,575.9,199.3,577.8,199.3z"/>
	<path class="black" fill="#000000" d="M645.1,194c-0.1,1.4-1.7,3-3,2.8c-1.3-0.2-1.2-1.4-1.3-2.2c-0.1-1.4,1.1-2.6,2.3-2.6
		C644.3,192,645.1,192.9,645.1,194z"/>
	<path class="black" fill="#000000" d="M605.1,194.1c0.7,1.1,1.4,1.7,1.3,2.1c-0.4,1.2-1.2,2.4-1.9,3.5c-0.1,0.1-0.8,0.1-0.8,0
		c-0.4-0.9-1.1-2-0.9-2.8C603,196,604.1,195.3,605.1,194.1z"/>
	<path class="black" fill="#000000" d="M585.6,212.7c-0.2-0.4-0.8-0.9-0.8-1.5c-0.2-1.5,1.2-2.9,2.7-2.9c1,0,1.6,0.5,1.6,1.6
		C589.2,210.9,587.2,212.7,585.6,212.7z"/>
	<path class="black" fill="#000000" d="M604.1,207.3c-0.2,1.8-0.7,2.6-2,2.6c-1.4-0.1-1.7-1-1.5-2.2c0.2-1.2,1.4-2.4,2.3-2
		C603.6,206,603.9,207,604.1,207.3z"/>
	<path class="black" fill="#000000" d="M653.1,205c-0.7-1-1.3-1.5-1.4-2c0-1,0.3-2.3,1.6-2.2c0.6,0,1.7,1.1,1.6,1.5C654.8,203.1,654,203.8,653.1,205z
		"/>
	<path class="white" fill="#FFFFFF" d="M591.2,109.2c0-3.5-0.1-7,1.8-10.2c1.7-2.9,4.2-4.6,7-5.9c5.6-2.5,11.6-2.8,17.6-2.9c1.2,0,2.7-0.1,3.4,1.7
		c0.5,1.2,0.3,1.5-0.7,1.8c-1.3,0.5-2.6,1-3.1,2.6c-0.1,0.4-0.1,1,0.1,1.2c0.4,0.2,1,0.4,1.4,0.3c1.8-0.6,3.5-1.5,5.4-2
		c6.2-1.8,11.7-1.3,16.3,4.1c2.3,2.8,5.2,5,6.7,8.5c1.4,3.1,2,6.4,1.6,9.7c-0.3,2.9,0.4,6.1-2,8.5c-0.2,0.2-0.2,0.8,0,0.9
		c0.3,0.2,0.9,0.5,1.1,0.3c1.1-0.7,2.6-0.9,2.9-2.6c0.2-1,1-1.3,1.7-0.1c3.2,5.1,4.5,10.4,2.2,16.2c-1.1,2.7-1.9,5.4-3.6,7.8
		c-1.9,2.8-4.3,4.3-7.5,4.8c-1.5,0.2-3,0.3-4.4,0.7c-0.7,0.2-1.8,0.8-1.8,1.2c-0.1,1.2,1.1,1,1.9,0.9c2.3-0.3,4.6-0.5,7-0.9
		c2.4-0.4,2.5-0.4,2.6,2.1c0.3,4.1-1.3,7.5-3.9,10.6c-1.9,2.2-4.7,1.7-7.2,2.1c-0.1,0-0.4-0.8-0.4-1.2c-0.1-1.5-0.5-1.8-1.6-1
		c-1.4,1.1-2.9,2.3-3.9,3.8c-3,4.4-7.3,5.7-12.2,5.8c-4.6,0.1-9.2-0.2-13.2-3c-2.1-1.4-3.2-3.4-3.9-5.7c-0.2-0.7-1.1-1.8-1.4-1.8
		c-1.1,0.3-1.8,1.1-1.6,2.4c0.1,1,0,2.1,0.5,2.8c1.5,2.1,0,1.9-1.3,2.1c-5.9,0.9-11.7,0.9-17.1-2.3c-4.6-2.7-5.4-8-4.9-12
		c0.2-1.3,1.2-1.3,2.2-1.1c1.7,0.2,3.4,0.4,5.1,0.7c5.6,0.8,11.1-0.1,16.4-1.7c4-1.2,6.9-4.2,9.5-7.4c1.1-1.3,1.8-2.9,2.7-4.3
		c2.5-4.1,1.7-9.3-1.8-12.5c-1.8-1.6-1.6-2.1,0.6-3.3c5.9-3,11.7-1.8,17.3,0.8c1.3,0.6,2.2,1.1,3.4,0.1c1.5-1.3,1.9-2.6,1.1-4.2
		c-0.5-1-1.2-2.1-2-2.8c-3.2-2.6-6.6-5.1-10.5-6.7c-2.7-1.1-6.1,0.3-7.6,3.1c-1.1,2.1-2.1,4.2-3.2,6.3c-0.5,0.9-1.2,1.8-2,2.5
		c-0.4,0.4-1.6,0.5-2,0.2c-2.3-1.9-5.1-1.6-7.7-2c-4.6-0.7-9.3-1.3-13.9-1.8c-2.4-0.3-4.9-0.4-7.4-0.5c-1.3,0-2.2-0.5-2.6-1.8
		c-0.2-0.7-0.6-1.4-0.9-2c-1.9-4.6-1-8,3.8-10.7c2.3-1.4,5.1-2.1,7.8-2.8c2.3-0.6,2.9,0.2,3.3,2.6c0.2,1.1,0.5,2.3,0.9,3.4
		c0.2,0.4,1,0.6,1.5,1c0.2-0.4,0.6-0.9,0.7-1.3C591.3,112.2,591.2,110.7,591.2,109.2z"/>
	<path class="white" fill="#FFFFFF" d="M594.8,155.8c-4.7-0.1-10.7-4.8-12.2-9c-1-2.8-1.9-5.5-0.7-8.6c1.7-4.7,5-7.2,9.5-8.1c6.5-1.4,14.9,2.6,18,8.5
		c1.1,2.1,1.3,4.1-0.2,6.6c-2.2,3.4-4.6,6.4-8.1,8.4C599.1,154.5,596.9,155,594.8,155.8z"/>
	<path class="white" fill="#FFFFFF" d="M556.8,140.5c0.7-1.8,1-3.5,2-4.8c3.7-4.8,8.6-7.7,14.8-7.2c2.6,0.2,5.3,0.2,7.7,1.8c1.1,0.8,1.3,1.3,0.3,2.5
		c-3.4,4.2-4.3,8.9-2.5,14.1c0.8,2.4,0.7,2.2-1.6,3.4c-4.5,2.4-8.9,2-13.1-0.3c-2.2-1.2-4.2-2.9-5.8-4.8
		C557.6,144,557.4,142.1,556.8,140.5z"/>
	<path class="white" fill="#FFFFFF" d="M576.6,28.3c0.6-0.1,1.3-0.2,1.9-0.3c1.3-0.1,2,0.1,2,1.7c0,1,0.2,2.1,0.5,3.1c0.1,0.4,0.7,1,1,1
		c0.4,0,1-0.5,1.1-1c0.2-0.7,0.3-1.5,0.2-2.2c-0.2-2.3,0.7-4,2.4-5.3c4-3.1,8.6-4.9,13.7-4.3c3.4,0.4,6.8,0.7,9.8,2.6
		c2.1,1.3,3.7,2.9,4.3,5.3c0.1,0.5,0.3,1.1,0.5,1.5c0.5,0.8,1,2.1,1.5,2.1c1.2,0.1,1.3-1.2,1.3-2.2c0-1,0.7-1.1,1.6-1.1
		c4.5-0.1,11.1,2.9,13.2,8.6c0.5,1.5,1,3.1,1.2,4.6c0.7,4.2-1.8,7.2-4.3,9.9c-1.4,1.5-3.5,2.4-5.3,3.6c-0.7,0.5-1.6,0.7-2.2,1.2
		c-0.4,0.3-0.4,1.1-0.6,1.7c0.5,0.1,1,0.3,1.4,0.1c1.9-0.8,3.7-1.6,5.5-2.5c1.8-0.9,2-0.9,2.3,1c0.5,3,1.5,6,0.9,9.2
		c-0.6,2.9-2.1,4.9-4.5,6.2c-4.3,2.3-9,2.6-13.7,2.6c-1.7,0-3.4-0.3-3.8-2.7c-0.1-1-0.8-0.7-1.3-0.1c-0.1,0.1-0.1,0.2-0.2,0.3
		c-1.8,6.1-7.2,7-12.2,8.5c-2.3,0.7-4.1-0.5-5.4-2c-2-2.3-4.5-2.8-7.2-2.6c-2.3,0.2-4.6,0.5-6.7,1.8c-2.5,1.6-7.6,1.9-9.3-1.1
		c-0.7-1.2-1.2-2.7-1.4-4.2c-0.2-1.5,1.1-2.1,2.3-2.7c0.4-0.2,0.5-0.8,0.8-1.2c-0.4-0.2-0.9-0.5-1.3-0.6c-0.3-0.1-0.6,0-0.9,0.1
		c-4.9,1.1-8.9-1-11.6-5.6c-1.4-2.5-1.3-4.6-0.1-7c1.3-2.7,3.8-3.3,6.3-3.8c0.7-0.1,1.7,1,2.6,1.5c0.7,0.4,1.7,1,2.2,0.7
		c1.1-0.5,0.7-1.8,0.2-2.5c-0.7-1.2-1.8-2.1-2.7-3.2c-2.3-3-4.4-6.1-4.7-10c-0.3-3.8,1.2-6.4,4.7-7.8c2.9-1.1,5.8-2.1,8.8-2.9
		c1.6-0.4,3.4-0.4,5.1-0.5C576.6,28.1,576.6,28.2,576.6,28.3z"/>
	<path class="white" fill="#FFFFFF" d="M580.1,84.7c-0.5-0.2-1.2-0.2-1.7-0.6c-0.6-0.4-1.4-1-1.3-1.5c0-0.7,0.6-1.7,1.2-2c2.4-1.2,4.9-1.3,7.4-0.3
		c1.2,0.5,1,1.3,0.3,2C584.5,84.1,582.4,84.4,580.1,84.7z"/>
	<path class="white" fill="#FFFFFF" d="M567,101.5c-0.8-0.3-2-0.5-2-0.8c-0.1-0.7,0.1-1.8,0.6-2.2c1.4-1.3,2.7-3.4,5.2-2.3c0.7,0.3,1.4,0.9,1.8,1.5
		c0.5,1-0.1,1.9-1.1,2.3C569.9,100.5,568.4,100.9,567,101.5z"/>
	<path class="black" fill="#000000" d="M590.6,135.3c2,0.1,3.4,1.6,3.2,3.5c-0.1,1.6-1.9,2.9-3.7,2.7c-1.3-0.1-3.1-2.1-3-3.2
		C587.2,136.7,589,135.3,590.6,135.3z"/>
	<path class="black" fill="#000000" d="M567.9,138.7c-0.8-0.2-1.5-0.3-2.2-0.6c-1.1-0.5-1.3-1.2-0.6-2.3c1.5-2.1,2.5-2.7,4.4-1.9
		c0.8,0.3,1.8,1.1,1.9,1.7c0.1,0.7-0.8,1.6-1.4,2.2C569.4,138.4,568.6,138.5,567.9,138.7z"/>
	<path class="heart" fill="#AD0000" d="M583.2,40.3c4-0.2,5.8,1.5,7.6,3.1c0.6,0.5,1,1,1.5,1.6c0.7,0.7,1.1,0.5,1.8-0.1c1.7-1.5,3.4-2.9,5.3-4
		c2.5-1.4,5.2-0.3,7.7,0.3c1.4,0.3,3,0.9,4,1.9c3,2.9,3.6,6.1,0,10.5c-3,3.6-6.8,6.4-10.9,8.8c-3.5,2-7,3.9-9.5,7.3
		c-0.8,1.1-1.8,1-2.7,0c-0.1-0.2-0.3-0.3-0.4-0.5c-2.3-3.3-5.4-5.3-9-6.9c-7.1-3.1-8.7-11.1-4.3-16.5
		C576.8,42.6,580.3,40.6,583.2,40.3z"/>
</g>
<g>
	<path class="black" fill="#000000" d="M674.8,137.6c0.7-3.2,0.9-6.6,2.1-9.7c1.3-3.3,0.9-6.4-0.6-9.2c-4-7.5-0.9-14.4,5.7-17.8
		c0.8-0.4,1.5-0.9,2.3-1.1c5.7-1.2,10.4-4.8,15.5-7.3c1-0.5,1.9-1.3,2.8-2c4.6-3.6,9.8-5.4,15.8-4.7c4.5,0.5,8.2,2.7,11.2,5.7
		c3.2,3.1,7.1,4.1,11.2,4.8c5,0.8,8.8,3.2,10.1,8.1c0.7,2.7,0.6,5.7,0.5,8.6c-0.1,2.2-0.3,2.2,1.8,2.7c0.4,0.1,0.8,0.1,1.3,0.2
		c1.1,0.2,2.7,0.9,3.3,0.4c1.2-0.9,2-2.5,2.6-3.9c0.7-1.9,1-3.9,1.6-5.9c0.4-1.3,1-2.6,1.7-3.8c0.8-1.4,2.2-2.1,3.8-1.7
		c1.3,0.2,2.6,0.4,3.7,0.9c4.8,2.2,9.6,4.6,14.4,6.9c1,0.5,2.4,0.9,2,2.5c-0.4,1.6-1.8,1.6-3.1,1.6c-1.7,0-3.4-0.3-5.1-0.3
		c-3.8,0.1-7.7,0-11.5,0.4c-1.2,0.1-2.3,1.4-3.3,2.3c-0.9,0.8-2.3,1.8-2.4,2.8c-0.1,0.8,1.5,1.7,2.3,2.7c2.8,3.5,3.5,7.7,3.7,12
		c0.1,1,0,2.1-0.1,3.2c-0.4,4-2,7.2-6.1,8.5c-0.7,0.2-1.4,0.6-2,0.9c-1.5,0.8-3.6,1.3-4.3,2.6c-0.7,1.2,0,3.2,0,4.9
		c0,5.3-2.5,9.4-6.1,12.9c-1.5,1.5-2.9,3-4.2,4.7c-0.6,0.7-0.9,1.7-1.1,2.6c-0.4,2.1-0.7,4.2-1.1,6.3c-0.3,1.5-1.3,2.5-2.6,2.2
		c-0.6-0.1-1.3-0.7-1.4-1.3c-1-4-2-8.1-2.9-12.1c-0.2-0.9-0.5-1.1-1.3-0.9c-0.4,0.1-0.9,0-1.2,0.3c-1.8,1.5-4.3,2-5.9,4
		c-2.9,3.5-6.2,6.8-7.2,11.5c-0.2,1.1-1.1,2.1-1.5,3.2c-0.4,1.1-1,1.6-2.1,1.5s-1.3-0.9-1.5-1.7c-0.7-2.8-1.5-5.6-2.3-8.3
		c-0.4-1.6-1.3-2.4-3.1-2.6c-3.9-0.5-7.3-2-10.6-4.3c-2.9-2-5.2-4.4-6.4-7.8c-0.3-0.8-0.6-1.6-1.1-2.3c-0.2-0.3-0.6-0.5-0.9-0.7
		c-0.1,0.3-0.3,0.6-0.4,0.9c-1.2,3.5-2.3,7.1-3.5,10.6c-0.2,0.6-0.4,1.3-0.8,1.7c-0.5,0.5-1.2,0.8-1.9,0.9c-0.3,0-0.8-0.9-0.8-1.5
		c-0.5-3.6-0.9-7.2-1.4-10.8c-0.4-2.9-0.8-5.7-1.2-8.6c-0.1-0.5-0.4-1-0.8-1.3C676,147.9,675.2,142.9,674.8,137.6z"/>
	<path class="black" fill="#000000" d="M784.2,38.2c-0.3,2.3-0.6,4.7-0.9,7c-0.2,1.5,0.1,2.9,1,4.2c3.8,6.1,1.8,13.4-4.5,16.8
		c-1.4,0.8-2.9,1.3-4.4,1.9c-3.3,1.5-6.5,3.1-9,6c-2.8,3.3-6.8,3.8-10.8,4.3c-1.6,0.2-3,0.5-4.3,1.6c-3.6,3-7.5,3.3-11.6,0.9
		c-1.1-0.7-2.1-0.9-3.3-0.8c-3.1,0.3-5.9-0.5-8.6-2.1c-0.8-0.5-1.7-0.9-2.6-0.9c-2.9-0.2-5.8-0.2-8.7-0.3c-7-0.3-11-5.1-10.1-12.1
		c0.2-1.8,0.1-3.4-0.7-5c-0.4-0.7-0.7-1.6-1.3-2.1c-2.6-2.7-3.2-5.8-2.1-9.4c2.5-8.5,8.2-13.7,16.5-16.3c0.9-0.3,1.8-0.6,2.6-1.2
		c2.5-2,4.8-4.1,7.3-6.2c0.8-0.7,1.7-1.3,2.6-1.8c7.4-4.1,14.9-4.9,22.6-1c1,0.5,1.8,0.7,3,0.5c2.1-0.3,4.2-0.1,6.3-0.1
		c0.7,0,1.5,0.2,2.2,0c5.7-1.7,10.1,0.7,13.6,4.9C781.8,30,784.5,33.5,784.2,38.2z"/>
	<path class="black" fill="#000000" d="M755,95.7c-0.2,0-1.1-0.1-1.9-0.3c-2.6-0.9-3.4-3.6-1.6-5.6c1.3-1.4,2.9-2.6,4.5-3.6c2.1-1.3,4-0.7,5.7,1.6
		c1.3,1.7,1.1,4.4-0.5,5.8C759.6,94.9,757.8,95.8,755,95.7z"/>
	<path class="black" fill="#000000" d="M715.2,201.8c-1-0.2-2.6,0.2-2.5-1.8c0.1-1.5,1.9-3.6,3.1-3.7c0.9,0,2.1,1.6,2.1,2.8
		C717.8,200.8,716.7,202,715.2,201.8z"/>
	<path class="black" fill="#000000" d="M695.1,184.3c-1.2,0-2.1-0.3-2.2-1.7c-0.1-1.3,1.2-4,2-4c1.1-0.1,2.9,1.6,3,2.8
		C698,183,696.7,184.3,695.1,184.3z"/>
	<path class="black" fill="#000000" d="M757.6,182.9c-0.1,1.5-2.2,3.2-3.6,3c-1.4-0.2-1.6-1.2-1.6-2.3c0-1.2,1.7-3.1,2.6-3
		C756.4,180.7,757.6,181.9,757.6,182.9z"/>
	<path class="black" fill="#000000" d="M682.4,190.7c-1.2,0-2.2-1.3-2.2-3c0-1.2,1-2.4,2.1-2.4c1.2,0,2.5,1.5,2.5,2.8
		C684.8,189.2,683.4,190.7,682.4,190.7z"/>
	<path class="black" fill="#000000" d="M729.9,191.5c-0.1,1.6-1.6,2.9-3.3,2.9c-1.2,0-1.4-0.9-1.4-1.7c0-1.5,1.4-2.8,2.9-2.8
		C729.2,189.9,729.9,190.4,729.9,191.5z"/>
	<path class="black" fill="#000000" d="M745.4,194.5c1,0.2,1.6,0.7,1.3,1.7c-0.5,1.8-2.2,2.5-4,1.7c-0.4-0.2-0.8-0.4-1.1-0.6
		c-0.3-0.2-0.6-0.5-0.9-0.8c0.4-0.3,0.7-0.7,1.1-0.9C743,195.2,744.2,194.8,745.4,194.5z"/>
	<path class="black" fill="#000000" d="M763.4,198c-1.5,0.9-2.5,1.9-3.6,2c-1.2,0.1-1.6-1.2-1.5-2.3c0.1-1.5,1-2.6,2-2.2
		C761.3,195.9,762.1,196.9,763.4,198z"/>
	<path class="black" fill="#000000" d="M767.6,190.2c-0.3-0.3-1-0.9-1.2-1.5c-0.3-1,1.9-3.2,3.1-3c0.6,0.1,1.3,1,1.4,1.6
		C771.2,188.3,769.3,190.1,767.6,190.2z"/>
	<path class="black" fill="#000000" d="M671.4,178.2c0.2,0.4,0.8,0.9,0.9,1.6c0.1,1.3-1.3,3.1-2,2.8c-0.8-0.4-1.6-1.5-1.9-2.4
		C668.2,179.1,669.7,178.1,671.4,178.2z"/>
	<path class="black" fill="#000000" d="M729.6,204.8c-0.2-0.2-0.9-0.6-1-1.2c-0.2-0.9,1.4-2.6,2.4-2.6c1,0,1.5,0.7,1.4,1.7
		C732.2,204.1,731.3,204.9,729.6,204.8z"/>
	<path class="black" fill="#000000" d="M696.1,197.9c-0.9-0.9-1.7-1.4-2-2.1c-0.3-0.6,1.5-2.2,2.3-2.2c1,0,2.2,0.2,1.9,1.5
		C698,196.1,697,196.8,696.1,197.9z"/>
	<path class="black" fill="#000000" d="M670.6,171.7c-0.8-1-1.7-1.8-2-2.6c-0.3-0.8,1.1-2.3,2-2c0.8,0.2,2.2,1.2,2.1,1.5
		C672.3,169.5,671.5,170.4,670.6,171.7z"/>
	<path class="white" fill="#FFFFFF" d="M715.7,172c-5.8-0.2-11.2-1.7-15.9-5.3c-3-2.3-4.1-5.7-5.5-8.9c-0.5-1,0.3-1.2,1.1-1.4c0.7-0.2,1.3-0.7,2-1.1
		c-0.7-0.4-1.3-1.1-2.1-1.3c-1.3-0.4-2.7-0.5-4-0.8c-4.7-1.2-8.9-3.2-11.4-7.6c-1.8-3-1.3-6.4-1.4-9.7c-0.2-5.6,2.2-10.1,5.6-14.3
		c0.2-0.2,0.6-0.4,0.7-0.7c0.1-0.6,0.1-1.3,0.1-2c-0.7,0.1-1.7,0-1.9,0.3c-1,1.4-1.4,1.1-2.2-0.1c-4.6-6.3-2.7-13.2,4.5-16.3
		c4.7-2,9.5-3,14.7-1.9c1.2,0.3,2.6,0.2,3.8,0.1c0.6-0.1,1.2-0.6,1.8-0.9c-0.6-0.7-1-1.6-1.7-2c-0.7-0.4-1.7-0.2-2.5-0.2
		c-1.3,0-1.1-0.6-0.5-1.4c4.2-6.3,10.3-8.9,17.6-8.2c4,0.4,7.4,2.6,9.7,6.4c1.3,2.1,2,4.1,2,6.5c0,0.6,0.7,1.1,1.1,1.7
		c0.6-0.5,1.4-0.8,1.8-1.4c0.3-0.5,0.1-1.3,0.3-1.9c0.1-0.4,0.4-0.9,0.7-0.9c2-0.2,4-0.7,6-0.5c6.6,0.8,10.5,8.2,7.8,15
		c-0.3,0.8-0.6,1.1-1.6,0.8c-2.1-0.5-4.3-1-6.5-0.8c-5.9,0.4-11.3,2.7-16.7,5.1c-0.8,0.4-1.8,1.4-2.4,1.2c-1.6-0.5-3.2-1.3-4.4-2.4
		c-1.5-1.5-2.7-3.3-3.7-5.2c-0.8-1.4-1.7-1.6-3.1-1.3c-3.1,0.7-5.7,2.4-8.2,4.3c-3,2.3-5.7,4.9-7.6,8.1c-0.4,0.6-0.8,1.3-0.9,2
		c-0.2,0.9-0.1,1.9-0.2,2.8c1.2,0,2.6,0.4,3.6,0c1.5-0.6,2.8-1.6,4-2.6c4.4-3.5,9.4-4.9,15-4.3c0.6,0.1,1.3,0.2,1.9,0.4
		c0.2,0.1,0.4,0.8,0.2,0.9c-0.5,0.5-1.1,1-1.7,1.4c-6.7,4.4-6.9,17.4,2.4,22.3c1,0.5,1.8,1.4,2.8,2.1c5.5,3.9,11.7,5.6,18.4,4.3
		c4.1-0.8,8.1-1.8,12.1-2.8c1.1-0.3,1.3,0.2,1.4,1.1c0.8,4.2-3.3,11.9-7.3,13.3c-1.5,0.5-3.4,0.4-5,0.2c-2.2-0.2-4.4-0.8-6.6-1
		c-1.3-0.1-2.8,0-4.1,0.2c-2,0.4-2.1,0.9-1.6,3.1c0.1,0.5-0.2,1.4-0.6,1.7C724,171.3,720,172.1,715.7,172z"/>
	<path class="white" fill="#FFFFFF" d="M728.6,120.8c2.9-0.4,5.3,0.1,7.2,2.4c1.1,1.3,2.6,2.1,3.7,3.4c3,3.6,2.7,7.6-0.1,11.4
		c-2.5,3.4-5.4,6.2-9.7,6.8c-4.6,0.7-9.1,0.2-12.7-3.5c-3.8-3.9-3.8-10.8-0.1-14.9c2.4-2.6,5.4-4.2,8.5-5.6
		C726.4,120.4,727.6,120.8,728.6,120.8z"/>
	<path class="white" fill="#FFFFFF" d="M764.8,133.1c-0.1,1.4-0.1,3.1-0.6,4.7c-0.4,1.2-1.3,2.7-2.4,3.2c-2,0.9-4.2,1.4-6.4,1.8
		c-3.6,0.6-7.2,0.5-10.8-0.7c-3-1-3.1-1.3-1.4-3.9c2.8-4.1,2.5-9.6-1-13.4c-1.1-1.2-1.2-1.9,0-3.1c2.5-2.7,5.6-3.2,9-3
		c2.9,0.2,5.6,1.1,8.2,2.4c2.6,1.3,3.9,3.5,4.5,6.3C764.4,129.1,764.5,130.9,764.8,133.1z"/>
	<path class="white" fill="#FFFFFF" d="M744.7,21.7c4.4,0.5,7.8,2,10.8,4.6c1.2,1.1,2.4,2.1,3.7,3c0.6,0.4,1.3,0.8,2,1c0.5,0.1,1.4,0,1.7-0.4
		c0.2-0.2,0.1-1.2-0.2-1.6c-1.2-1.9-1.2-1.9,0.7-2.8c5.9-3,10.8-1.1,14.9,4.7c3.1,4.4,4,9.4,1.2,14.5c-0.4,0.7-0.7,1.6-1,2.3
		c-0.6,1.4-0.7,2.2,1.4,2.5c2.3,0.3,3.6,3.3,3.3,6.2c-0.3,3.4-2,6-5,7.8c-3.5,2.1-7.4,3.1-11.4,4c-1.3,0.3-2.4,0.7-1.2,2.3
		c0.2,0.3,0.1,1.1-0.2,1.4c-3.1,3.3-7.1,4.7-11.6,4.3c-0.5,0-1.1-0.8-1.5-1.4c-2.3-3.7-5.8-4.6-9.9-2.5c-2,1-3.7,2.1-4.9,4
		c-0.9,1.6-2.5,2.2-4.1,1.8c-1.5-0.3-3-1-4.4-1.8c-1.5-0.9-1.4-1,0.1-2.3c0.3-0.3,0.6-0.6,0.7-1c0.1-0.4,0.2-0.9,0-1.2
		c-0.2-0.2-0.8-0.3-1.1-0.2c-1.4,0.5-2.8,1.1-4.2,1.5c-2.9,0.8-5.7,1.6-8.8,1.4c-4.8-0.4-7.6-6.9-6.1-10.9c0.7-1.8,1.4-3.5,3.9-3.1
		c0.4,0.1,0.9-0.4,1.3-0.7c-0.5-0.3-0.9-0.7-1.4-0.9c-1.7-0.7-3.4-1.2-5.1-1.9c-2.1-0.9-3.1-2.5-3.1-4.8c0.1-4.1,1.4-7.8,4.2-10.8
		c2.7-2.8,5.7-5.2,9.7-5.9c1-0.2,2.1-0.3,3.1-0.4c1.4-0.2,2.2,0.5,2.6,1.8c0.3,0.9,0.7,1.8,1.1,2.6c0.2,0.4,0.9,0.7,1.3,0.6
		c0.4-0.1,0.6-0.8,0.8-1.2c0.1-0.3-0.1-0.6-0.2-0.9c-1-7,2.5-12.5,9.3-14.2C740,22.5,742.6,22.1,744.7,21.7z"/>
	<path class="white" fill="#FFFFFF" d="M744.1,79.4c-0.3,0-0.8,0-1.2-0.2c-1.1-0.4-2.6-0.8-2.4-2.1c0.1-0.9,1.4-1.8,2.3-2.2c1.3-0.6,3,0,4.1-1.3
		c0.9,0.7,1.9,1.2,2.5,2.1c0.6,0.9-0.3,2.7-1.5,3.1C746.7,79,745.5,79.1,744.1,79.4z"/>
	<path class="white" fill="#FFFFFF" d="M754.9,92.6c-1,0-1.4-0.6-0.7-1.7c0.4-0.7,0.9-1.5,1.6-1.9c0.8-0.4,1.9-0.6,2.6-0.2c0.5,0.2,1,1.5,0.8,2.1
		c-0.1,0.6-1.1,1.2-1.8,1.5C756.8,92.6,756,92.5,754.9,92.6z"/>
	<path class="black" fill="#000000" d="M731,127.4c0,2.6-2.5,4.2-4.9,3.1c-1.4-0.6-1.6-3.2-0.4-4.4c0.4-0.4,1-0.7,1.6-1
		C729.5,124,731,124.9,731,127.4z"/>
	<path class="black" fill="#000000" d="M755,126.4c-0.7,0.7-1.4,2-2.5,2.4c-1.1,0.5-3.7-2.2-3.6-3.3c0.1-1.2,2.2-2.8,3.5-2.7
		C753.5,122.9,755.2,124.8,755,126.4z"/>
	<path class="heart" fill="#AD0000" d="M738.9,43.4c1.1,0.4,2.7,0.9,4.2,1.6c2.5,1.3,2.8,1.4,4.1-1.3c1.2-2.5,3-4.3,5.4-5.6c2.2-1.2,4.3-1.3,6.5-0.4
		c1,0.4,2,0.9,2.9,1.3c2.3,1,3,1.9,2.6,4.4c-0.5,3.1-1.4,6.2-3.8,8.6c-4.2,4.1-8,8.5-13,11.8c-2.1,1.4-4,1.3-5.6,0.4
		c-4.4-2.6-8.8-5.2-11.9-9.5c-2.5-3.5-2.4-6,0.9-8.6C733.3,44.4,735.7,43.5,738.9,43.4z"/>
</g>
<g>
	<path class="black" fill="#000000" d="M875.6,85.1c7.2-0.1,11.9,2,16.1,5c2,1.5,3.8,3.5,5.2,5.6c1.9,2.8,4.3,4.3,7.5,5.2c6.3,1.7,10.8,5.8,13.7,11.6
		c2.6,5.3,1.9,9.7-2.4,13.7c-1.9,1.8-3.5,3.8-4.1,6.3c-0.4,1.8-0.5,3.8-0.3,5.7c0.3,4.6-0.9,8.7-4.2,12c-2.4,2.4-2.9,5.3-3.2,8.4
		c-0.1,1.5,0,3-0.3,4.5c-0.1,0.7-0.8,1.7-1.4,1.8c-0.6,0.1-1.6-0.6-2-1.2c-0.8-1.4-1.3-2.9-2.1-4.3c-0.9-1.7-1.3-1.7-3-0.6
		c-1.9,1.3-3.9,2.6-5.7,4.1c-1.1,1-1.9,2.3-2.5,3.6c-1.2,2.5-2.2,5.1-3.3,7.7c-0.4,1-1,1.9-2,1.7c-0.8-0.2-1.8-0.8-2.1-1.6
		c-1.2-2.6-2.3-5.3-3.2-8c-0.3-1-0.5-1.8-1.7-2c-2.7-0.6-4.8-2.3-6.6-4.3c-0.8-0.9-1.5-1-2.5-0.3c-1.5,1.2-3.1,2.3-4.6,3.5
		c-2.1,1.7-3.2,4-3.5,6.6c-0.2,1.4-0.2,2.8-0.6,4.1c-0.2,0.6-0.9,1.3-1.5,1.4c-0.5,0.1-1.5-0.5-1.7-1c-0.9-2.4-1.6-4.8-2.4-7.3
		c-1.2-3.6-2.4-7.1-5.5-9.7c-2.3-1.9-4.1-4.4-4.4-7.6c-0.2-1.6-1.2-2-2.6-2.5c-3.6-1.3-7.2-2.3-10.4-4.6c-3.1-2.2-4.2-5.3-5.3-8.5
		c-0.7-2.1-1-4.4-1.3-6.6c-0.9-6.1,1.2-10.9,6.4-14.3c0.4-0.3,0.6-0.7,0.9-1.1c-0.4-0.3-0.8-0.9-1.2-1c-1.1-0.2-2.4-0.3-3.5-0.1
		c-3,0.8-5.9,1.8-8.9,2.6c-1.3,0.4-2.7,0.7-4.1,0.8c-2,0.1-2.5-0.6-1.9-2.5c0.8-2.8,2.6-5,5-6.4c3.3-2,6.7-3.7,10.7-4.2
		c2.7-0.3,3.1,0,3.7,2.6c0.4,1.8,1.1,3.7,1.9,5.4c0.5,1.1,1.5,1.6,2.9,1.3c1.3-0.2,2.7-0.1,4.1,0c1.3,0.1,1.4-0.4,1-1.5
		c-0.6-1.7-1.2-3.4-1.6-5.2c-0.5-2.1,0.1-3.9,1.9-5.4c4.2-3.5,9.1-5,14.3-6c3.8-0.7,7.3-2.1,10.8-3.8
		C868.5,86.8,872.9,85.6,875.6,85.1z"/>
	<path class="black" fill="#000000" d="M862.8,80.6c-3.5-1.9-6.7,0.2-10.1,1c-0.9,0.2-1.9,0.4-2.8,0.6c-3.3,0.5-4.3-0.1-5.7-3.2
		c-0.3-0.6-0.9-1.3-1.4-1.4c-7.3-0.9-11.4-5.2-13.3-12c-0.6-2-1.6-3.5-3.4-4.8c-3.3-2.2-4.9-5.9-6.5-9.4c-0.6-1.3-0.9-2.6-1.3-3.9
		c-1.7-5.5,1.8-9.2,5.6-10.6c1.2-0.5,2.5-0.9,3.7-0.9c2.4-0.1,4.2-1.4,6-2.8c2.9-2.2,5.6-4.6,8.6-6.7c5.1-3.7,10.9-5.2,17.1-5.6
		c6.1-0.3,11.9,0.4,17.3,3.4c1.5,0.8,3.1,1.3,4.4,2.3c2.3,1.6,4.8,1.5,7.3,1.7c4.6,0.4,8.7,1.7,12.1,5.1c3,3.1,3.9,9.6,0.8,12.9
		c-1,1-1.1,2.9-1.5,4.4c-0.1,0.4,0.2,1,0,1.2c-3,3-1.2,6.9-1.7,10.3c-0.8,4.9-3.3,7.8-7.7,9.2c-2.6,0.8-5.4,1-8,1.8
		c-2.9,0.8-5.7,1.8-8.4,2.9c-2.6,1.1-5.1,2.5-7.7,3.7C865.2,80.3,864.1,80.3,862.8,80.6z"/>
	<path class="black" fill="#000000" d="M837.5,81.5c2.4,0.2,4.3,0.8,5.3,2.9c1,2.1,0.2,4.5-1.9,6.2c-2.8,2.3-6,3.1-9.5,1.8c-1.2-0.5-2.2-1.4-1.7-2.6
		c0.9-2.2,2-4.5,3.5-6.2C834,82.4,836,82.1,837.5,81.5z"/>
	<path class="black" fill="#000000" d="M921.4,166.7c1.3,0,1.9,1.4,1.2,2.9c-0.9,1.9-4.4,2.8-6.1,1.5c-0.9-0.7-1-1.5-0.2-2.4
		C917.6,166.9,919.6,167.1,921.4,166.7z"/>
	<path class="black" fill="#000000" d="M898.2,178.5c0.1,2.2-1.1,3.2-3.3,3.3c-0.9,0-1.7-0.2-1.8-1.4c-0.1-1.5,2-3.9,3.4-3.6
		C897.3,177,897.9,178.1,898.2,178.5z"/>
	<path class="black" fill="#000000" d="M835.8,185.2c-0.5,0-1.1,0.1-1.6,0c-0.4-0.2-0.9-0.5-1.1-0.9c-0.4-0.9,0.6-2.7,1.6-3.2
		c0.9-0.4,2.5,0.1,2.8,1.3c0.3,0.8,0.3,1.8,0.1,2.7c-0.1,0.3-1.2,0.4-1.8,0.6C835.9,185.4,835.9,185.3,835.8,185.2z"/>
	<path class="black" fill="#000000" d="M896.8,195c-1.2,0.1-1.8-0.5-1.8-1.6c-0.1-1.4,1.3-3,2.7-3c0.9,0,2.4,1.3,2.4,2.2
		C900.1,193.7,898.4,195,896.8,195z"/>
	<path class="black" fill="#000000" d="M863.8,191.9c0.5,0.5,1.6,1.2,2.1,2.2c0.4,0.9-1.3,2.3-2.5,2.4c-1.3,0-2.6-1.2-2.5-2.3
		C860.8,193.1,862.1,191.9,863.8,191.9z"/>
	<path class="black" fill="#000000" d="M928.5,183.5c-1.5,0-3.5-1.9-3.4-3c0.1-0.9,0.3-1.9,1.7-2c1.2,0,3.4,1.7,3.1,2.6
		C929.6,182.1,928.9,182.9,928.5,183.5z"/>
	<path class="black" fill="#000000" d="M879.9,189.2c1.1-0.2,1.5,0.5,1.6,1.4c0.2,1.3-1.7,2.8-3.3,2.8c-1,0-1.8-1-1.8-2.2
		C876.6,190,877.9,189.2,879.9,189.2z"/>
	<path class="black" fill="#000000" d="M912,182.9c-0.1,0.8-1.7,1.7-2.9,1.4c-1.1-0.2-2.1-0.6-2-2.1c0.1-1.3,1.1-2.1,2.4-1.9
		C911,180.5,912.1,181.6,912,182.9z"/>
	<path class="black" fill="#000000" d="M869,177.8c0.7,0.4,1.9,0.9,2.4,1.7c0.5,0.8-1.8,2.6-3.2,2.4c-0.7-0.1-1.8,0-1.7-1.4
		C866.7,179.1,867.6,177.7,869,177.8z"/>
	<path class="black" fill="#000000" d="M849.3,190.3c-0.8-1.1-1.7-1.7-1.8-2.4c-0.2-1.2,1.1-2.2,2.2-2c1.3,0.2,1.6,1.1,1.4,2.1
		C850.8,188.7,850.1,189.3,849.3,190.3z"/>
	<path class="white" fill="#FFFFFF" d="M880.6,161.2c-1.9-0.3-3.8-0.5-5.7-0.9c-0.9-0.2-1.9-0.6-2.5-1.3c-2-2-3.8-4.1-5.7-6.2c-0.3-0.3-0.4-0.9-0.7-1
		c-0.7-0.3-1.5-0.4-2.3-0.6c-0.1,0.7-0.3,1.3-0.4,2c0,0.1,0,0.2,0.1,0.3c0.4,1.3,0.9,2.5,1.3,3.8c-1.3,0.3-2.7,0.5-4,1
		c-6.6,2.5-14.1-3.3-15.7-8.7c-0.3-1.1,0.1-1.2,1-1.4c3-0.7,5.9-1.5,8.9-2.3c0.7-0.2,1.4-0.4,2.1-0.5c4.5-0.8,8.5-2.7,11.3-6.5
		c1.3-1.8,3.3-2.9,4.1-5.2c1.7-4.5,1.9-8.7-1-12.8c-0.8-1.1-0.3-1.6,0.7-1.8c2.4-0.6,4.8-1.2,7.2-1.6c2.4-0.4,4.9-0.7,7.3-1.1
		c0.9-0.2,1.9-0.5,2.7-0.9c1.6-0.8,1.8-2.4,0.4-3.6c-0.4-0.4-0.8-0.7-1.3-0.9c-3.3-1.5-6.5-3.2-9.8-4.5c-2.8-1.1-5.4-0.1-7.1,2.5
		c-1.3,2-2.6,3.9-3.9,5.9c-0.6,0.9-1.3,1.1-2.4,0.7c-5.8-1.8-11.7-3.5-17.8-3.5c-4.4,0-5.2-3.4-6.2-6.5c-0.7-2.1,0.3-4.6,2.3-5.9
		c1.5-1,3.1-1.9,4.8-2.5c2.4-0.8,4.7-2,7.4-1.8c1.9,0.1,2.2-0.1,2.9,2.5c0.2,0.6,0.1,1.3,0.3,1.9c0.2,0.5,0.7,1.2,1.1,1.2
		c0.5,0,1.3-0.5,1.5-0.9c0.3-0.8,0.5-1.9,0.3-2.8c-0.5-2,0.4-3.5,1.9-4.3c3.1-1.6,6.4-3,9.7-4.1c4.5-1.5,9-0.3,13,1.8
		c2.5,1.3,4.8,3.1,7,5c1.5,1.3,2.9,2.9,1.1,5.1c-0.2,0.2,0.2,1.3,0.6,1.4c0.8,0.4,1.8,0.5,2.7,0.5c6.5,0,15.7,4.6,18,12.5
		c1,3.4,0.7,6.1-1.9,8.8c-2.6,2.7-5.5,4.7-8.6,6.6c-1.4,0.8-2.6,1.8-3.9,2.8c-0.2,0.1-0.3,0.6-0.2,0.8c0.1,0.2,0.5,0.4,0.8,0.4
		c0.8-0.2,1.6-0.5,2.5-0.7c1.7-0.6,2.4-0.3,3,1.2c1.8,4.6,0.3,10.3-3.5,13.7c-2.5,2.2-5.1,3.7-8.5,4c-1.5,0.1-2.9,0.7-4.3,1.1
		c-0.3,0.1-0.5,0.5-0.8,0.8c0.3,0.3,0.6,0.5,0.9,0.8c0.1,0.1,0.2,0,0.3,0c0.7,0.1,1.4,0.1,2.2,0.2c-0.6,0.6-1.2,1.4-1.9,1.9
		C886.6,160.5,885.1,161,880.6,161.2z"/>
	<path class="white" fill="#FFFFFF" d="M852.3,142c-5.4,0.1-9-1.5-11.1-5.7c-2.2-4.3-1.2-9.6,2.6-13.5c2-2.1,4.5-3.6,7.2-4.5c0.8-0.3,1.7-0.3,2.5-0.3
		c0.5,0,1.2,0.3,1.6,0.1c3-2.3,5.7-0.1,8.4,0.6c2.6,0.7,4.2,3,5.4,5.2c1.8,3.1,1.6,6.4-0.6,9.6c-1.3,2-2.7,3.7-4.5,5.3
		C860.1,141.6,855.7,141.5,852.3,142z"/>
	<path class="white" fill="#FFFFFF" d="M836.5,113.6c2.8,0.9,5.6,1.7,8.4,2.6c1.5,0.5,1.2,1.2,0.2,2c-1.1,1-2.4,1.8-3.4,2.9
		c-2.9,3.2-5.3,6.7-5.1,11.3c0.1,1.5,0.3,3,0.8,4.4c0.4,1.2,0.2,1.7-1,2.1c-3,1-7.8-1.1-8.8-4c-1-3-2-6.1-2.4-9.2
		C824.6,119.1,829.9,113.7,836.5,113.6z"/>
	<path class="white" fill="#FFFFFF" d="M863.3,23.8c4.2,0,8.1,0.9,11.8,2.7c0.9,0.4,1.6,1.1,2.4,1.6c0.8,0.5,0.6,1-0.1,1.4c-0.5,0.4-1.2,0.7-1.4,1.2
		c-0.3,0.6-0.2,1.4-0.2,2.1c0.6-0.1,1.3,0,1.9-0.2c6.9-2.5,13.4-2.1,19.5,2.1c2.8,1.9,3.1,5,2.6,7.8c-0.3,1.7-2.3,3.3-3.9,4.5
		c-1.6,1.3-3.7,2.1-5.5,3.2c-0.5,0.3-1,0.4-1.4,0.7c-0.9,0.8-1.7,1.7-2.6,2.6c1.2,1.1,2.4,0.1,3.5-0.2c3.3-0.9,4.1-0.7,4.5,2.6
		c0.4,2.5,0.1,5.1-0.1,7.6c-0.1,0.8-0.7,1.5-1.2,2.2c-3.1,3.6-7.9,4.6-12.4,2.7c-0.9-0.4-2.2-0.9-3-0.6c-1.6,0.5-3,0.6-4.5-0.3
		c-0.9-0.6-1.8-0.2-2.1,0.7c-0.1,0.5,0.4,1.3,0.8,1.8c0.5,0.6,1.3,1,1.9,1.4c-0.7,0.5-1.3,1.1-2,1.6c-2.5,1.7-4.8,4-8.1,4.3
		c-2.4,0.2-2.4,0.3-3.2-1.9c-0.9-2.6-4.4-4.7-7.6-4.7c-0.5,0-1.2,0.4-1.5,0.2c-3.3-1.8-4.9,0.9-6.7,2.6c-1,0.9-1.7,1.5-3,1
		c-2.4-1-4.6-2.2-6.4-4.1c-2.4-2.6-2-5.1,1.2-6.9c0.4-0.2,0.7-0.7,1-1c-0.5-0.3-1-0.9-1.5-0.8c-5.3,0.4-8.2-3.2-11.1-6.6
		c-1.5-1.8-2.4-4-3.3-6.2c-2-5.3-0.4-8.3,5.1-9.9c2.1-0.6,4.5-0.1,6.6-0.6c1.7-0.4,1.9,0,1.9,1.5c0,1.1,0.3,2.4,0.8,3.4
		c0.3,0.6,1.2,1.5,1.8,1.4c1.1-0.2,1.7-1.2,1.4-2.4c-0.1-0.4-0.2-0.8-0.4-1.2c-1.4-4.8,0.9-8.2,4.3-11.1
		C849,24.7,856.1,24.1,863.3,23.8z"/>
	<path class="white" fill="#FFFFFF" d="M852.1,73.7c0.2,0,0.8-0.1,1.2,0.2c1.3,0.8,2.6,1.7,3.8,2.5c-1.1,0.7-2.2,1.5-3.4,2.1c-1,0.5-2.2,0.6-3.4,0.9
		c-1.9,0.4-3.1-0.1-3.4-1.4c-0.3-1.3,0.8-3.4,2.2-3.8C850.1,73.8,850.9,73.8,852.1,73.7z"/>
	<path class="white" fill="#FFFFFF" d="M840.2,86.5c-0.2,0.5-0.4,0.9-0.7,1.2c-0.8,0.7-1.6,1.4-2.5,1.8c-1.1,0.5-2.4,1.3-3.5,0.1
		c-1.3-1.5,0.4-2.3,0.9-3.3c0.8-1.4,3.9-1.8,5.2-0.8C839.9,85.6,840,86.1,840.2,86.5z"/>
	<path class="black" fill="#000000" d="M861.2,124.1c-0.4,0.7-0.8,1.6-1.5,2.2c-0.5,0.5-1.3,0.8-2,1.1c-2.3,1-3.5,0.6-4.3-1.2
		c-0.9-1.9-0.3-3.5,1.6-4.6c1.6-0.9,4.5-0.4,5.6,1.1C860.9,123,861,123.5,861.2,124.1z"/>
	<path class="heart" fill="#AD0000" d="M854.8,38.5c3.1-0.2,5.5,1.2,7.6,3.1c1.3,1.2,2.1,0.9,3.2,0.1c2.4-1.7,5-2.9,7.8-3.6c2.4-0.6,4.8-0.7,7.3,0
		c1.8,0.5,2.9,1.7,3.8,3.2c1.1,2.1,0.7,4.2-1.6,5.9c-3,2.2-6.2,4.2-9.3,6.3c-1.1,0.7-2.3,1.1-3.5,1.7c-3.5,1.8-6.3,4.3-7.8,8.1
		c-0.8,2.1-1.2,2.1-2.8,0.5c-2.5-2.3-5.1-4.5-7.3-7.1c-4-4.6-4.9-9.8-2.6-15.5C850.5,38.6,852.9,39,854.8,38.5z"/>
	<path class="black" fill="#000000" d="M837.4,119.6c-0.4,0.6-0.7,1.4-1.3,1.9c-0.4,0.4-1.1,0.7-1.7,0.9c-2,0.8-3.1,0.5-3.8-1c-0.8-1.7-0.3-3.1,1.4-4
		c1.4-0.8,4-0.4,4.9,0.9C837.2,118.6,837.2,119,837.4,119.6z"/>
</g>
<g>
	<path class="black" fill="#000000" d="M422.6,131.7c0.1-4.8,1.5-10.4,5.7-15c0.9-1.1,1.9-2.6,1.8-3.9c-0.2-2.7,0.6-5.4-0.4-8.1
		c-0.9-2.5,0.4-4.9,1.4-7.1c3.4-8,9.7-12.3,18.3-13.1c2-0.2,4.1,0.2,6-0.1c2.2-0.4,4.3-1.2,6.3-2.2c6.4-3.6,12.7-3.5,19.4-1
		c5,1.8,8.3,5.2,10.5,9.7c0.8,1.5,1.6,2.4,3.3,2.6c7.1,0.7,12.6,7.7,11.7,14.7c-0.1,0.9,0.1,1.5,1.1,1.4c5.3-0.4,9.9-2.1,12.3-7.1
		c1.1-2.3,1.5-5.1,2.2-7.6c0.2-0.7,0.2-1.5,0.4-2.2c0.2-1.2,1-1.7,2.2-1.9c3.7-0.6,7.1,0.4,10,2.4c3.3,2.2,6.3,4.8,9.4,7.3
		c1.6,1.3,1.5,2.1,0,3.3c-0.6,0.5-1.5,0.9-2.3,1c-2.8,0.4-5.7,0.8-8.6,1.1c-3.3,0.4-6.6,0.7-9.8,1.2c-0.7,0.1-1.5,0.4-2.1,0.8
		c-3.2,2.1-3.2,2.6,0,4.5c5.1,3.1,8.8,7.3,10.3,13.3c0.7,2.9,0.2,5.3-1.5,7.5c-3.7,4.9-8.9,7.1-14.9,7.8c-1.9,0.2-3.8,0.6-5.7,0.8
		c-1.2,0.1-2,0.6-2,2c-0.3,6.1-3,11.3-7,15.8c-1,1.2-2.3,2.3-3.7,3c-2,1.1-3.3,2.6-3.7,4.9c-0.5,2.7-1.2,5.4-1.7,8.1
		c-0.2,1.2-0.3,2.3-1.8,2.6c-1.7,0.3-1.9-1.1-2.3-2.1c-1.1-2.5-2.2-5.1-3.1-7.7c-0.7-1.8-1.3-3.4-3.6-3.5c-0.3,0-0.6-0.2-0.9-0.4
		c-3.4-2.5-6.7-1.2-9.3,1.2c-1.6,1.5-2.6,3.8-3.4,5.9c-0.7,1.7-0.9,3.7-1.3,5.6c-0.1,0.6-0.1,1.3-0.4,1.9c-0.4,0.7-1,1.6-1.6,1.6
		c-0.5,0.1-1.5-0.7-1.8-1.4c-1.3-2.8-2.5-5.7-3.7-8.5c-0.7-1.8-1.7-3-3.9-3.3c-2.1-0.3-4.1-1.2-6.1-2c-3.9-1.7-6.2-4.8-7.6-8.7
		c-0.1-0.3-0.3-0.6-0.4-0.8c-0.2,0.3-0.6,0.6-0.6,0.9c-1,3.8-2,7.6-3,11.5c-0.1,0.3,0,0.7-0.2,0.9c-0.6,0.5-1.2,1.2-1.9,1.3
		c-1.1,0.2-1.4-0.7-1.5-1.6c-0.4-3.8-0.8-7.7-1.2-11.5c-0.3-3-0.7-5.9-0.9-8.9c-0.1-1.6-1.1-2.4-2.2-3.4
		C424.9,142,422.7,138,422.6,131.7z"/>
	<path class="black" fill="#000000" d="M516.1,25.1c0,3.6,1.3,6.6,3.8,9.2c2.8,2.8,3.8,7.7,2.6,11.5c-1.6,4.8-4.7,8.3-8.7,11.2
		c-2,1.4-3.8,2.9-4.4,5.6c-0.3,1.5-1.9,2.7-3.1,3.9c-0.8,0.8-2,1.2-3,1.8c-2.3,1.3-4.5,2.6-6.4,4.6c-2.2,2.4-5.3,4.2-8.9,2.6
		c-0.7-0.3-1.5-0.6-1.8-1.2c-0.9-1.8-1.9-1-3.1-0.5c-4.1,1.9-8.4,2.7-12.7,0.9c-1.4-0.6-2.9-1.4-4-2.5c-1.9-1.7-3.9-2.5-6.6-2.8
		c-5.6-0.5-11-1.8-15.2-6c-1.5-1.5-2.8-3.3-3.9-5.1c-1.3-2.3-0.8-4.9,1.2-7.1c2.2-2.4,2.6-5.3,1.7-8.3c-2.6-8.4,0.9-15.6,8-19.5
		c1.2-0.7,2.5-1.4,3.8-1.6c4.2-0.8,7.2-3.4,10.5-5.7c2.1-1.5,3.5-3.3,5.1-5.1c3.7-4.4,8.5-7.1,13.9-8.8c5.4-1.7,9.9,0.9,13,4.9
		c2.1,2.6,4.7,3.5,7.4,4.2C511.3,12.9,516.2,18.8,516.1,25.1z"/>
	<path class="black" fill="#000000" d="M508.5,91.9c-4.6,0-6-2.3-5.3-6.6c0.5-3,2.2-4.2,4.8-4.7c2.5-0.5,4.6,0.5,6.2,2.5c2.4,3,0.6,8.5-3.4,8.6
		C509.9,91.6,509,91.8,508.5,91.9z"/>
	<path class="black" fill="#000000" d="M431.1,188.3c-1.9,0-2.8-0.7-2.9-2.2c-0.1-1.2,1.3-2.4,2.8-2.4c1.5,0,2.6,1.1,2.7,2.6
		C433.6,187.7,432.9,188.3,431.1,188.3z"/>
	<path class="black" fill="#000000" d="M504.2,177.1c1-0.1,2.3-0.6,2.5,1.2c0.2,1.5-2.2,3.4-4.1,3.3c-1.3-0.1-1.5-1-1.5-2
		C501.1,177.6,501.8,177.1,504.2,177.1z"/>
	<path class="black" fill="#000000" d="M445.7,192.1c0-1.9,1.1-3.2,2.4-3c1.1,0.2,1.7,0.8,1.9,1.8c0.2,1.2-0.2,2.1-1.3,2.6
		C446.8,194.5,445.7,194,445.7,192.1z"/>
	<path class="black" fill="#000000" d="M487,189.1c0-1.6,0.6-2.1,2.1-2.1c1.6,0,2.5,0.8,2.5,1.9c-0.1,1.1-1.8,2.6-2.9,2.6
		C487.6,191.4,487,190.5,487,189.1z"/>
	<path class="black" fill="#000000" d="M447.8,178.8c-0.1,2-1.4,3.4-2.7,3c-0.6-0.2-1.4-1-1.6-1.7c-0.3-1.2,1.8-3,3-2.6
		C447.1,177.8,447.6,178.6,447.8,178.8z"/>
	<path class="black" fill="#000000" d="M513.7,188.8c0,1.1-1.6,2.3-3.1,2.1c-0.8-0.1-1.8,0-1.8-1.3c0-1.4,1.2-2.5,2.7-2.5
		C512.8,187,513.8,187.8,513.7,188.8z"/>
	<path class="black" fill="#000000" d="M477.9,182.9c-0.5,0.3-1.2,0.8-1.9,0.9c-1.2,0.1-2.5-1.4-2.4-2.8c0.1-0.5,0.8-1.2,1.3-1.3
		C476.1,179.6,477.9,181.5,477.9,182.9z"/>
	<path class="black" fill="#000000" d="M465.7,192.8c-0.2-0.3-0.8-0.7-0.9-1.2c-0.2-1.4,1.7-3.1,3.2-2.8c0.5,0.1,1.1,1,1.2,1.5
		C469.4,191.5,467.3,192.9,465.7,192.8z"/>
	<path class="black" fill="#000000" d="M474.1,198.7c-0.1-1.8,0-3,1.5-2.9c1.5,0.1,1.1,1.6,1.4,2.5c0.3,1.3-0.5,2-1.5,1.7
		C474.7,199.8,474.3,198.9,474.1,198.7z"/>
	<path class="white" fill="#FFFFFF" d="M461.6,165.4c-3.6-0.8-7-1.4-10.2-2.3c-5.1-1.5-9.3-8.2-8.2-13.7c0.2-0.8,0.4-1.7,0.3-2.5
		c-0.1-0.6-0.6-1.6-1-1.6c-0.6-0.1-1.2,0.5-1.8,0.9c-0.1,0.1-0.1,0.4-0.2,0.6c-0.9,2.4-0.9,2.4-2.9,1.1c-4-2.7-8-5.5-10.2-9.9
		c-0.7-1.3-1.1-2.8-1.2-4.2c-0.6-7.2,2-13.2,7.1-18.2c1.8-1.7,3.7-3.3,5.5-4.9c0.4-0.4,0.9-0.6,1.2-1c0.3-0.5,0.3-1.2,0.5-1.8
		c-0.7-0.1-1.4-0.3-2-0.2c-0.4,0-0.8,0.4-1.1,0.6c-2.3,1.3-2.6,1.1-3.6-1.4c-0.8-2.1-0.9-4.2-0.1-6.3c3.5-9,7.9-12.1,16.1-13
		c2-0.2,4,0.2,6,0.6c0.4,0.1,0.9,1,1,1.6c0.1,0.4-0.4,1-0.3,1.5c0.1,0.5,0.5,1,0.8,1.5c0.4-0.3,1-0.6,1.1-1c1-3.2,3.2-5.5,5.7-7.5
		c1.6-1.3,3.4-2.2,5.5-2.3c6.4-0.1,12.4,1.1,16.8,6.2c1.3,1.5,2.2,3.4,3.1,5.1c0.2,0.3-0.3,1-0.7,1.4c-0.6,0.8-2,2-1.9,2.1
		c1.2,1.6,2-0.2,2.9-0.6c4.3-2.1,9.1,0.6,10.9,3.1c1.2,1.6,2.2,3.5,2.8,5.4c0.8,2.6,0.2,4.1-2.9,4.1c-4.9,0-9.8,0.9-14.5,2.2
		c-1.9,0.5-3.9,0.9-5.8,1.5c-2.2,0.7-4.5,1.5-6.5,2.6c-2.3,1.3-3.7,1.4-5.2-0.8c-1.2-1.7-2.2-3.6-3.1-5.5c-2-3.8-3.3-4.3-7-2
		c-3.5,2.1-6.6,4.7-9,8c-2.6,3.5-1.6,8.3,0.7,11c0.8,0.9,1.5,1.2,2.5,0.5c1.3-0.9,2.6-1.9,3.7-3c2.4-2.5,4.9-4.7,8-6.3
		c1.3-0.7,4.1,0.4,4.6,1.7c0.1,0.3-0.1,0.8-0.3,1.1c-0.5,0.8-1.1,1.5-1.8,2.3c-4.9,5.6-4.6,11.9,1.2,16.5c5.1,4,10.9,6.8,17.8,5.1
		c0.7-0.2,1.6-0.3,2.2-0.1c4.6,2,9.3,1,13.9,0.1c3-0.6,3.2-0.6,2.4,2.2c-2.2,8-6.8,14.2-15.1,16.3c-3.8,1-7.9,0.4-11.5-1.5
		c-1.8-0.9-3.3-2.2-5-3.4c-0.7-0.5-1.4-1.1-2.1-1.4c-0.7-0.2-2.2-0.3-2.3,0c-0.6,1.2,0.9,1.1,1.4,1.6c1.1,1.1,2.1,2.3,3.1,3.4
		c-1.3,0.7-2.5,1.6-3.9,2.1C466.5,164.1,464,164.7,461.6,165.4z"/>
	<path class="white" fill="#FFFFFF" d="M483.8,114.5c2.7,0.3,4.8,0.6,6.5,2.2c0.6,0.5,1.5,0.7,2.3,0.9c6.1,1.4,8.3,7.3,4.8,12.4
		c-1.3,1.8-2.5,3.7-4,5.4c-3.8,4.3-8.4,6.3-14.3,4.7c-3.3-0.9-6.6-1.7-9.1-4.2c-3.5-3.5-4-6.9-1.3-10.9c2.7-4,6.1-7.4,10.8-9.2
		C480.9,115,482.7,114.8,483.8,114.5z"/>
	<path class="white" fill="#FFFFFF" d="M511.9,137.9c-3.8,0.4-7.6-1.4-11.5-3.1c-1.8-0.8-0.9-2-0.3-2.8c1.6-2.1,2.4-4.5,2.4-7.1c0-1.8,0-3.7-1.4-5.1
		c-0.7-0.8-0.5-1.4,0.1-2.2c3.1-4.5,8.3-6.3,13.9-4.5c6.4,2.1,11.1,6.2,12.7,13.1c0.7,3.2-0.3,6.2-3.1,8.1
		C521.6,136.6,516.8,138.1,511.9,137.9z"/>
	<path class="white" fill="#FFFFFF" d="M445.3,38.5c0.4-6.8,4.3-11.9,12.1-14.3c1.8-0.5,3.8-0.8,5.7-1.1c1.3-0.2,2,0.2,2.2,1.6
		c0.1,0.8,0.2,1.7,0.6,2.5c0.2,0.4,0.9,1,1.1,0.9c0.5-0.3,0.9-0.8,1.2-1.3c0.1-0.2,0.1-0.6,0-0.9c-0.7-4.9,1.4-8.7,4.4-12.3
		c2.8-3.3,6.3-5.9,10.2-7.6c6.2-2.6,12.4,0.3,14.6,5.4c0.9,1.9,2,3.8,3.1,5.6c0.2,0.3,0.9,0.3,1.3,0.5c0.1-0.4,0.4-0.8,0.4-1.2
		c0-0.5-0.2-1-0.4-1.5c-0.4-1,0.1-1.4,1.1-1.4c0.5,0,1.1,0.1,1.6,0.2c5.1,1,9.6,7.4,8.8,12.5c-0.1,0.6-0.4,1.3-0.3,1.9
		c0.1,1.6-0.2,2.7-2.1,2.8c-0.4,0-0.8,0.3-1.1,0.5c-0.2,0.2-0.3,0.6-0.3,0.8c0.1,0.2,0.4,0.5,0.6,0.6c0.3,0.1,0.6,0,1,0
		c6.8-0.5,10.9,6.5,8.1,13.1c-1.6,3.9-4.7,6.5-7.7,9.3c-0.9,0.9-2.1,1.2-2.7-0.6c0-0.1-0.1-0.2-0.1-0.3c-0.6-1-1.2-2.2-2.6-1.6
		c-0.2,0.1,0,1.7,0.3,2.6c1.5,4.7,0.6,7-3.6,9.7c-0.8,0.5-1.7,0.8-2.5,1.3c-1.5,0.9-2.7,0.9-4.3-0.4c-2.5-2.1-5.8-2-8.3-0.2
		c-0.1,0.1-0.2,0.1-0.3,0.2c-0.8,2.2-3.1,2.8-4.7,4.2c-4.7,4.1-12.8,3.6-16.7-1.3c-0.8-1.1-0.5-2-0.3-3c0.1-0.3-0.1-0.8-0.2-0.9
		c-0.3-0.1-0.9-0.1-1.1,0.1c-1.2,1.4-2.8,1.4-4.4,1.4c-4.7,0-9.1-1.1-12.9-4c-0.3-0.3-0.7-0.5-1-0.8c-4.5-4.4-4.3-7,0.4-10.3
		c1.6-1.2,3.5-2.1,5.2-3.2c0.4-0.2,0.5-0.8,0.8-1.3c-0.5-0.2-1.1-0.7-1.6-0.6c-2.8,0.4-2.8,0.5-3.8-2
		C446.4,42.4,445.9,40.4,445.3,38.5z"/>
	<path class="white" fill="#FFFFFF" d="M490.9,72.6c-2.3,0-3.1-1.1-2.4-2.7c0.9-2,4.6-2.7,5.9-1c0.7,0.9,0.8,1.8-0.3,2.4
		C493,71.8,491.7,72.3,490.9,72.6z"/>
	<path class="white" fill="#FFFFFF" d="M511.9,86.3c0,1.2-2,2.4-4,2.4c-1.4,0-2.1-0.9-2.1-2.2c0.1-1.6,1.5-3.2,3-3.1C510.6,83.4,512,84.7,511.9,86.3z
		"/>
	<path class="black" fill="#000000" d="M480.9,129.4c-3.1-0.3-4-1.9-3-3.9c1-2.3,3-3.3,5.3-3.6c0.9-0.1,2.1,0.6,2.6,1.3c0.4,0.5,0.1,2-0.5,2.6
		C483.8,127.4,482.7,129.7,480.9,129.4z"/>
	<path class="heart" fill="#AD0000" d="M495,31.7c-0.7,2.6-1.2,5.1-2.2,7.4c-1.3,3.1-2.6,6.1-2.4,9.5c0,0.5-0.1,1.1-0.2,1.6c-0.6,3.4-1.2,3.8-4.7,2.8
		c-5.9-1.7-11.9-3.4-17.8-5.1c-2.6-0.8-4.4-2.6-5.7-4.9c-1.4-2.4-0.9-4.5,1.4-6.1c4-2.7,8.2-4.1,12.8-1.4c1.5,0.9,1.7-0.4,1.6-1.3
		c-0.1-2.7,0.7-4.9,2.6-6.9c2.3-2.4,4.8-3.4,8-2.7c1.4,0.3,3.3,0.4,4,1.3C493.7,27.4,494.1,29.6,495,31.7z"/>
	<path class="black" fill="#000000" d="M509.1,127.6c-2.8-0.2-3.5-1.7-2.7-3.4c0.9-2,2.6-3,4.7-3.1c0.8-0.1,1.9,0.5,2.3,1.2c0.3,0.5,0,1.8-0.4,2.3
		C511.7,125.8,510.7,127.8,509.1,127.6z"/>
	<path class="black" fill="#000000" d="M419.3,177.8c-0.2-0.2-0.9-0.6-0.9-1.1c-0.1-1.4,1.6-3.3,2.7-3.2c0.9,0.1,1.8,1.3,1.6,2.4
		C422.5,177.2,421.4,178,419.3,177.8z"/>
</g>
</svg>
