<?xml version="1.0"?>
<!-- 24.1.11  -->
<svg xmlns="http://www.w3.org/2000/svg"
     width="1000" height="350"
     viewBox="0 0 1000 350">
<path d="M61.7,311.4c10.6,0.6,20.7,1.5,30.8,1.8c9.1,0.3,18.1-0.1,27.8-0.2c0.1-1.3,0.1-2.9,0.4-4.6c0.4-2.8,1.7-4,4.1-3.9
c2.6,0.1,3,1.7,3.2,4c0.5,5.4,0.6,5.1,6.3,5.1c8.2,0,16.5-0.2,24.6,0.6c9.7,1,19.2-0.4,28.8-0.7c7.1-0.2,14.2-0.3,21.3-0.4
c7.8-0.1,15.6-0.3,23.4-0.3c4.1,0,8.2,0.6,12.2,0.9c1.2,0.1,2.5,0.1,3.6,0.1c2.8-3.3,0.4-7.2,2.2-11c1.8-0.3,4-0.6,6.8-1.1
c0,2.8,0,4.8,0.1,6.9c0.2,4,0.9,5.1,4.9,5.6c13.3,1.5,26.6,3.5,39.9,4.1c8.3,0.4,16.7-1.1,25-2.1c8.8-1,17.4,0.3,26.1,0.7
c4.3,0.2,8.5,0.3,12.8,0.3c2,0,2.8-1.3,2.8-3.1c0.1-2.3,0.3-4.6,0.3-6.9c0-2.6,1.3-3.9,3.6-4.6c3.2-0.9,4.8,0.4,4.4,3.8
c-0.3,2.1-0.8,4.2-0.9,6.3c-0.1,3.4,0.6,4.1,3.9,4.3c2.5,0.2,5,0.3,7.5,0.2c12.8-0.1,25.6-0.4,38.5-0.5c11.6-0.1,23.2,0.2,34.8,0.1
c9.8-0.1,19.6-0.5,29.4-0.7c3,0,6,0.4,9.1,0.4c3,0.1,6.1,0.4,9,0c8.5-1.2,17-1.3,25.6-0.3c3.8,0.5,7.8-0.1,11.7-0.2
c1.2,0,2.5-0.3,3.7-0.3c8.2-0.2,16.4-0.4,24.6-0.4c3.2,0,6.4,0.3,9.6,0.6c5.5,0.5,10.9,1.1,16.8,1.7c0.9-4,1.9-7.6,7.2-7.6
c0.4,2.7,0.8,5.2,1.2,8.2c2,0.3,3.9,0.8,5.7,0.9c5.3,0.3,10.7,0.5,16,0.5c20.9,0.2,41.7,0.5,62.6,0.5c4.8,0,9.5-0.9,14.3-1.3
c3.9-0.4,7.8-1,11.6-1c12.5-0.1,24.9,0.1,37.4,0c19.4-0.2,38.9,1,58.3-1c1.2-0.1,2.4-0.3,3.8-0.5c2.4-4.8-1.1-12.9,7.9-14.5
c0.2,5,0.3,9.7,0.4,14.9c24.4-0.2,48.2-0.3,72.4-0.5c0.4-2.3,0.7-4.3,1-6.4c3.8-2.1,7.4-0.5,11,0.2c9.8,1.9,19.5,4.1,29.3,6
c3,0.6,6.2,0.6,9.4,0.9c0.1,3.3-1.6,4-3.7,4.2c-5,0.6-10,0.8-14.9,1.7c-9.6,1.8-19.4,2.8-27.8,8.6c-0.3,0.2-0.7,0.1-1.8,0.2
c-0.3-3-0.6-5.9-1-9.7c-10.2-0.2-20.1-0.6-30-0.7c-15.7-0.2-31.4-0.6-47.1-0.4c-10.9,0.1-21.7,1.1-32.5,1.5
c-8.6,0.3-17.1,0.1-25.7,0.4c-7.8,0.3-15.6,1-23.5,1.4c-2.1,0.1-4.3-0.1-6.4-0.1c-7.3-0.1-14.6-0.3-21.9-0.2
c-10,0.1-20,0.6-29.9,0.5c-13.2-0.1-26.4-0.7-39.6-0.9c-10.9-0.2-21.8,0.5-32.6-0.3c-10.3-0.8-20.7-0.9-31-1
c-8.5-0.1-17.1,0.5-25.6,0.4c-8.2-0.1-16.4-0.8-24.6-1c-8.4-0.2-16.8,0.2-25.1-0.5c-16.9-1.3-33.8,0.7-50.8,0.2
c-6.6-0.2-13.2,0.2-19.8,0.2c-3.4,0-6.8-0.3-10.1-0.3c-4.1,0-8.1,0.2-12.2,0.3c-2,0.1-3.9,0.3-5.9,0.3c-17.3,0-34.6-0.1-51.9,0
c-6.6,0-13.2,0.6-19.8,0.7c-18.1,0.3-36.3,1-54.4-0.8c-11.7-1.1-23.5-1.1-35.2-1.4c-8-0.2-16,0.1-24.1,0.1c-3.4,0-6.7-0.6-10.1-0.8
c-13.9-0.7-27.8-1.3-41.7-0.4c-7.8,0.5-15.7-0.1-23.5-0.1c-11.2,0-22.5-0.1-33.7,0.3c-9.8,0.3-19.5,1.3-29.3,2c-2.7,0.2-5.4,0-8,0.2
c-3.9,0.2-7.8,0.6-11.7,1c-2.7,0.3-5.3,0.8-7.7-0.9c0.1-4.3,0.3-8.5,0.3-12.7c0-9.6-0.3-19.2-0.2-28.8c0.1-5,0.9-9.9,1.2-14.9
c0.6-10.3,1.3-20.6,1.5-30.9c0.2-13.7,0.1-27.5,0-41.2c0-3.9-0.6-7.8-0.7-11.7c-0.3-12.5-0.5-25-0.8-37.4
c-0.2-13.2-0.6-26.4-0.7-39.5c-0.1-10.7,0.1-21.4,0.2-32.1c0-3.2,0-5.8-3.9-7c-2.6-0.8-3-3.6-2.1-7.5c0.8-3.5,1.9-6.9,2.3-10.4
c0.8-8,1.3-16,1.9-24c0.1-1.4,0.2-2.7,0.5-5.1c1.5,1.1,2.5,1.6,3.1,2.5c0.5,0.7,0.4,1.7,0.5,2.6c0.8,12.2,6.2,22.9,10.6,34
c0.3,0.7,0.7,1.2,1,1.9c0.9,2.5,0.4,3.7-2.2,4.3c-2,0.5-4.2,0.6-6.9,1c-0.1,2.1-0.2,4-0.1,5.9c0.2,4.6,0.6,9.2,0.7,13.8
c0.3,8.6,0.7,17.1,0.6,25.7c-0.1,10.7-0.6,21.3-0.9,32c-0.1,2.1-0.3,4.3-0.3,6.4c0.6,22.1,1.5,44.2,1.7,66.3
c0.2,18.2-0.5,36.4-0.8,54.5c-0.1,3.6-0.1,7.1-0.1,10.7c-0.2,8.9-0.3,17.8-0.5,26.7C61.3,308,61.5,309.2,61.7,311.4z"/>
<path d="M879.1,222c-0.6,5-0.9,5.5-4.3,4.7c-4.2-1-8.3-2.1-12.3-3.5c-9.4-3.2-18.8-6.6-28.1-10.1c-2.3-0.8-3.9-0.5-5.8,1
c-2.2,1.7-4.8,3.2-7.5,3.7c-5.8,1.1-10.3-2.1-13.5-9c-0.6-1.3-0.8-2.8-1.5-4c-0.7-1.1-1.9-2.4-3-2.5c-7.2-0.8-14.3-2.9-21.7-1.8
c-4.7,0.7-9.6,0.9-14.3,1.7c-3.9,0.6-6.5-0.9-8.4-4.1c-0.9-1.5-2-2.9-3.3-4.8c-4.4,1.9-8.9,3.5-13.1,5.7c-2.4,1.3-3.7,0.8-5.6-0.7
c-3.7-3-5.7-6.8-6.3-11.4c-0.9-7.5-5.6-11.2-12.9-12.7c-3.1,5.4-8.2,7.7-14.2,7c-6.6-0.7-9.5-5.5-10.5-12.3
c-2.1,0.9-3.8,1.2-4.9,2.1c-2.7,2.3-6,2.9-9.4,3.6c-5.8,1.2-11.6,2.2-17.2,3.7c-5.9,1.6-6.1,2.5-2.8,7.7c-1.2,2.1-2.8,2.8-4.6,1
c-2.5-2.5-5.8-3.1-8.9-4.5c-8.6-3.7-17.4-7.6-21.3-17.4c-1.6-4.2-3.8-4.4-7-1.2c-0.4,0.4-0.8,0.6-1.8,1.5c-1.6-4.2-3.4-7.9-4.4-11.9
s-0.2-8.5-2.9-12.9c-4.7,1.8-9.5,3-14.4-0.3c-2.3,3.4-4.2,6.4-6.2,9.3c-2.6,3.9-5.3,7.6-9.5,10c-4.9,2.8-7.7,7.4-9.5,12.5
c-0.8,2.4-0.6,5.2-0.8,7.8c-0.2,3.8-2.2,6.3-5.4,8c-5.5,2.9-10.9,6.1-17.4,6.1c-1.6,0-3.2,0.4-4.8,0.6c-4.9,0.9-8.8,2.8-11.4,7.7
c-2.6,5-6.3,9.5-9.6,14.1c-2.9,4-4.5,8.4-4.7,13.4c-0.4,9.8-10.9,15.1-19.1,9.7c-2.2-1.4-4.4-3.2-6-5.2c-3-3.9-6.9-6.6-11.2-9
c-0.8-0.4-1.7-0.8-2.2-1.4c-4-4.3-8.4-3.8-13.1-1.4c-2.4,1.2-5,1.9-7.3,3.3c-7.3,4.3-14.9,2.5-22.4,1.2c-1.2-0.2-2.6-1.3-3.3-2.4
c-2.8-3.9-5.4-7.9-7.9-12c-2.7-4.6-3-4.7-8-3.2c-1.7,0.5-3.5,0.8-5.2,1.1c-1.9,0.4-3.8,0.8-5.8,1.2c-0.3,0.1-0.5,0.4-1,0.9
c0.8,1.6,1.7,3.2,3,5.5c-1.6-0.3-2.6-0.3-3.1-0.7c-6.1-5.2-12-10.5-15.8-17.9c-2.2-4.2-5.4-8-8.4-11.7c-0.8-1-2.7-1.6-4.1-1.7
c-2.5-0.3-5,0.2-7.5-0.1c-5.7-0.6-9.4-3.9-10-9.4c-0.4-3.4-2-4.8-4.7-6.4c-4.3-2.4-8.5-5.2-12.4-8.3c-2.5-2-4.9-2.8-7.9-1.7
c-2.2,0.8-4.3,1.7-6.5,2.5c-2.5,0.9-4.6,1-6.4-1.8c-1.9-3-4.5-5.5-7-8c-2-2.1-4.2-2.7-7.2-1.4c-4.1,1.7-8.5,2.5-12.7,3.9
c-5.7,1.9-11.6,3.6-15.6,8.7c-0.5,0.6-1.3,1-2.4,1.9c-0.3-1.3-0.9-2.1-0.7-2.8c2-7.3-0.3-14.2-2.6-20.8c-1.1-3.3-4.5-5.7-7.2-9.1
c-7.9,7.2-15.8,7-24.7,1.6c-7.1,3.8-15,7.5-22.3,12.2c-4.3,2.8-6.9,7.7-7.9,12.9c-0.8,4.2-1.6,5-5.9,5.3c-2.8,0.2-5.7,0.2-8.6,0.3
c-4,0.1-5.4,0.8-6.2,4.5c-1,4.6-3.8,6.7-7.9,8.4c-9.7,4.1-8.3,1.6-9.3,12.4c-0.1,0.8-0.6,1.6-1,2.8c-5.8-1.6-11.4-3.1-17.6-4.8
c-1.1,1.2-2.4,2.6-3.7,4.1c-2.2,2.6-4.3,5.3-6.6,7.7c-1.7,1.8-2.1,3.3-1.2,5.7c3.5,9.8-2.6,19.1-12.9,19.6c-3.3,0.1-6.8-0.5-9.9-1.6
c-4.1-1.5-7.9-1-11.9,0.1c-5.7,1.5-11.4,2.6-17.2,3.9c-0.8,0.2-1.8,0.2-2.6,0c-0.6-0.2-1.5-0.8-1.5-1.3c0-0.7,0.5-1.9,1-2.1
c1.8-0.7,3.8-1.1,5.7-1.6c4.8-1.2,9.7-2.4,14.5-3.7c2.3-0.6,3.4-2.1,2.9-4.9c-1.1-7.1,2.9-12.8,10.1-14.5c3.4-0.8,7.1-1.1,10.6-0.9
c3.5,0.2,6.4-0.6,8.9-2.8c2.4-2.1,4.8-4.2,7.1-6.5c2.1-2.1,4-4.4,6.4-7.1c1.6,0.9,3.2,1.8,4.9,2.7c4.8,2.7,8.9,1.4,10.5-3.8
c1-3.3,3-5.1,6.1-6c1.7-0.5,3.4-1.1,5.1-1.6c2.9-0.9,5.1-2.8,5.8-5.8c1.2-4.5,4.5-6.1,8.7-6.7c1.1-0.1,2.1-0.1,3.2-0.2
c3.9-0.6,7.1-2.2,8.9-6c0.7-1.6,1.5-3.2,2.3-4.8c2-4,4.9-7,9.1-8.6c6.6-2.6,12.2-6.7,16.5-12.3c1.3-1.6,2.4-3.5,2.9-5.5
c1.6-5.7,6.2-10.2,12.3-10.9c2.5-0.3,5-0.3,7.5,0.1c7.3,1.1,9.1,3.2,10.9,10.5c0.7,3,2.1,6.1,3.7,8.7c2.7,4.4,5.2,8.9,6.5,14
c1.4,5.4,4.4,6.9,10,5.7c3.1-0.7,6.4-1,9.4-2c2.8-0.9,5.5-2.3,8.1-3.8c2.8-1.6,4.8-1.8,7.3,0.2c2,1.5,4.2,3,5.6,4.9
c2.6,3.6,6.1,4.7,9.8,3.5c5.9-1.9,10.3,0.4,14.7,3.9c2.6,2.1,5.6,3.9,8.5,5.5c4.3,2.4,8.5,2.3,12.5-0.8c4.3-3.3,8.9-3.2,13.6-0.8
c4.7,2.4,7.7,6.5,6.7,11.7c-2.4,12.5,4.9,21,11.6,29.8c1.5,1.9,3.8,2.9,6.2,2.4c4-0.8,8-1.5,11.9-2.8c6-1.9,8-1.4,11.8,3.7
c2.2,3,4.5,6,6.7,9c4.6,6.5,11,8.3,18.4,6.4c4.6-1.2,9-3.3,13.5-4.9c2-0.7,4-1.4,6-2c2.8-0.9,5.2-0.2,7.4,1.8c3.3,3,6.9,5.6,10.9,6
c3.4-1.5,6.1-3.4,9.1-4c2.6-0.6,5.7-0.2,8.3,0.5c5.3,1.4,6.8,1.1,10-3.4c4.1-6,9.1-11.4,12.3-18.1c2.5-5.4,7.5-8.3,13.4-8.2
c5.7,0,10.8-1.8,15.7-4.3c3.5-1.8,5.9-5.2,6-9c0.4-10,6.6-15.9,13.9-20.9c5.8-3.9,9.3-9.3,12.1-15.3c1.1-2.3,1.1-5.2,1.3-7.8
c0.2-1.6-0.3-3.2-0.1-4.8c0.4-4.3,1.8-8.3,6-10c4.5-1.9,9.4-2.6,13.7,1c4.9,4.2,7.5,9.3,5.9,16.1c-1.7,7.5,0.8,14.1,4.9,20.1
c0.7,1,2.3,1.5,3.6,2c3.1,1,5.3,2.5,6.4,5.8c2.5,7.6,8.8,11.6,15.8,13.8c3,1,7.2,0.1,10.4-1.2c7.4-2.9,15-4.4,22.7-5.8
c1.9-0.4,3.8-1,5.5-1.9c6.2-3.1,12.3-6.3,18.5-9.5c3.3-1.7,6.7-1.3,9.9-0.3c3.3,1,5.8,2.9,6.8,6.7c0.6,2.2,2.4,4.8,4.4,5.6
c7.8,3.3,10.4,10.3,13.7,17c0.6,1.3,1,2.7,1.7,3.8c1.2,1.8,2.9,2.6,5.1,1.9c2.2-0.8,4.3-1.7,6.5-2.5c1.8-0.7,3.6-1.4,5.5-2
c2.7-0.8,4.8,0.1,6.4,2.5c3.2,4.8,8,6.3,13.5,5.5c7.8-1.2,15.4-1.6,23.3,0.2c3.5,0.8,7.6-0.8,11.4-1.7c2.4-0.6,4.6-2,6.9-2.8
c3.7-1.3,7.2-1.3,10.8,0.6c2.3,1.2,3.9,2.7,4.3,5c1.3,7.5,7.1,10.9,13.1,13.6c9.1,4.1,18.8,6.7,28.7,8.2
C875.3,221.3,877.1,221.6,879.1,222z M135.5,213.7c0.2-5.8-3.8-9.7-9.7-9.7c-3.8,0-9.7,4.8-9.7,7.9c0.1,4.7,3.8,9.5,7.5,9.8
C130.2,222,135.3,218.6,135.5,213.7z M248.9,134.1c6.7,0.1,11.5-3.6,11.7-9c0.2-4.1-5-8.3-10.1-8.2c-4.6,0.1-7.8,4.2-7.9,10.2
C242.6,131.5,245,134.1,248.9,134.1z M828.7,205.1c0.3-4.9-2.5-8.4-6.8-8.5c-4.6-0.1-9.5,3.9-9.9,8.1c-0.3,3.7,3.6,8.1,7.5,8.4
C823.4,213.4,828.4,209.1,828.7,205.1z M369.2,166.8c-4.9-0.3-8,2.4-8.2,7c-0.2,4.7,2.3,7.9,6.4,8.1c5.6,0.3,10-2.7,10.3-7.1
C378.1,170,374.9,167.1,369.2,166.8z M602.6,137.3c4.8,0.1,8.3-2.5,7.5-6.2c-1.7-7.6-6.9-9.9-13.5-6.7c-3,1.5-4.5,5.5-2.8,7.6
C596.1,134.7,598.7,137.3,602.6,137.3z M500.3,237.3c1.5-0.1,2.3-0.1,3-0.2c3-0.4,5.2-2.3,5.7-4.9c0.4-2.5-1.1-5.1-4.2-6
c-2.1-0.6-4.6-0.7-6.8-0.4c-2,0.2-5.4,4.6-4.7,6.4c0.6,1.6,2.3,2.9,3.8,3.9C498.2,236.9,499.7,237.1,500.3,237.3z M704.3,177.1
c4.4,0.1,8.7-3.2,8.8-6.8c0.1-3-3.4-5.9-7.5-6.2c-3.1-0.2-6.2,3.7-6.5,8.4C698.9,175.3,700.8,177,704.3,177.1z"/>
<path d="M366.6,233c0.1-5.2,0.1-10.1,0.4-15c0.1-1.8,1.4-3.1,3.2-2.7c1.1,0.3,2.5,1.6,2.7,2.6c0.6,3.1,0.8,6.3,0.7,9.5
C373.6,232.8,373.2,233.1,366.6,233z"/>
<path d="M248.8,261.9c-0.2-1.6-0.6-2.8-0.5-4c0.1-3.2,0.3-6.4,0.5-9.6c0.2-2.5,1.6-3.8,4.1-3.9c2.5-0.1,3,1.6,3.1,3.5
c0.2,1.9,0.3,3.9,0.2,5.9C256,259.1,255.4,259.8,248.8,261.9z"/>
<path d="M367.2,208.8c-1.7-5.8-1.9-10.8-0.7-15.8c0.4-1.9,2.4-2.5,4.4-2.3s2.8,1.5,2.8,3.3c0,3.2,0,6.4-0.3,9.6
C373,206.6,370.3,207.2,367.2,208.8z"/>
<path d="M249.4,288.6c-0.3-4.4-0.8-7.9-0.7-11.4c0.2-4.2,3.2-5.4,6.6-3c2.9,2,3,5,3,8.1c0,2.9-1.9,4-4.2,4.8
C252.8,287.5,251.5,287.9,249.4,288.6z"/>
<path d="M248.7,218.6c5.8-1,6.3-0.7,6.9,4.3c0.3,2.6,0.2,5.3-0.1,7.9c-0.2,2-1.8,3-3.7,3.2c-1.9,0.3-3.3-0.3-3.3-2.4
C248.4,227.3,248.6,222.9,248.7,218.6z"/>
<path d="M606.2,260c1,5.2,1.3,10.5,1.2,16.2c-2.3-0.1-4.2-0.1-6.3-0.2c-1.5-4.4-0.6-8.8-0.3-13.1c0.1-1.3,2.5-2.4,3.9-3.6
C605.3,259.6,605.8,259.8,606.2,260z"/>
<path d="M602.7,202.8c0.3,0.9,0.8,1.8,0.9,2.7c0.1,2.6-0.1,5.3,0.1,7.9c0.2,3.5-1.4,5.6-4.5,7.1c-3-1.6-3.6-4-3.3-7.1
C596.2,208.7,596.6,204.2,602.7,202.8z"/>
<path d="M377.2,281.1c0.2,2.9-0.2,5.4-2.9,6.9c-2.6,1.5-4.4,0.5-4.6-2.5s-0.5-6-0.4-9c0-1.2,0.6-3,1.4-3.4c1-0.5,2.8-0.1,3.9,0.6
C377.3,275.5,377.8,278.2,377.2,281.1z"/>
<path d="M367.8,262c-0.3-4.4-0.8-8.3-0.8-12.3c0-2.1,1.6-2.9,3.7-2.6c4.1,0.6,5.3,2.2,5,6.5C375.2,259.4,374.1,260.7,367.8,262z"/>
<path d="M824.2,223c-0.1,5.7-0.3,10.9-0.4,16c-4.8,1.2-6.9-0.2-7.1-4.2c-0.1-2.1,0.1-4.2,0.4-6.3C817.6,226,818,225.7,824.2,223z"/>
<path d="M602.8,174.3c0.3,1.4,0.6,2.7,0.8,4c0.2,2.3,0.2,4.6,0.5,6.8c0.5,3.8-0.6,5.5-5.5,7.3c-0.3-1.2-0.7-2.3-0.7-3.4
c-0.2-2.8-0.3-5.7-0.4-8.5C597.4,176.1,597.4,176.1,602.8,174.3z"/>
<path d="M708.6,224.6c0,1.8,0.2,3.5-0.2,5c-0.3,1.2-1.2,2.4-2.3,3c-0.4,0.2-2.1-1-2.6-1.8c-2.7-4-1.6-8.5-0.8-12.8
c0.1-0.8,2.2-1.7,3.3-1.7c0.8,0,2.1,1.3,2.3,2.2C708.7,220.5,708.6,222.7,708.6,224.6z"/>
<path d="M601.4,147.2c2.9,5.2,1.4,10.3,1.1,15.3c-0.1,1.1-1.5,2.1-2.2,2.9c-3-1.1-4.7-2.7-4.2-5.4
C596.9,155.7,595.2,150.2,601.4,147.2z"/>
<path d="M120.1,265c-0.1-5.2,1.4-6.8,4.9-6.1c0.3,0.1,0.7,0.1,1,0.3c2.9,1.9,2.4,4.9,2.3,7.7c0,2.5-1.1,4.5-3.8,5.1
c-2.2,0.5-3.7-0.5-4.2-2.9c-0.1-0.3-0.1-0.7-0.1-1.1C120.1,266.8,120.1,265.6,120.1,265z"/>
<path d="M248.5,165.4c6.3,2.5,7,3.4,6.9,7.5c-0.1,6.1-0.1,6.1-6.7,8.4C247.4,176.1,248.9,171.1,248.5,165.4z"/>
<path d="M708.4,271.4c-0.1,5.3-0.1,9.8-0.5,14.3c-0.1,0.9-1.8,2.1-2.9,2.3c-0.8,0.1-2.5-1.1-2.6-1.8c-0.4-3.3-0.9-6.7-0.4-10
C702.3,273.6,705,272.7,708.4,271.4z"/>
<path d="M119.5,239.1c0.5-1.8,0.6-3.9,1.5-5.5c0.5-1,2.2-1.9,3.3-1.8c1,0.1,2.4,1.5,2.6,2.6c0.5,2.2,0.7,4.6,0.2,6.8
c-0.3,1.5-1.6,3.1-3,3.9c-2.3,1.5-4.1,0.5-4.4-2.3c-0.1-1.2,0-2.5,0.1-3.7C119.7,239.2,119.6,239.1,119.5,239.1z"/>
<path d="M709.2,297.2c0.4,5.4,1,10.2,1.1,14.9c0.1,2.6-2.1,3.3-4.2,3.9C701.7,309.6,703,300.3,709.2,297.2z"/>
<path d="M505.9,295.3c0.3,1,0.6,1.9,0.8,2.9c0.3,2.8,0.4,5.6,0.9,8.4c0.4,2,0.2,3.5-1.9,4.3c-2.4,0.8-3.9-0.3-4.4-2.5
c-0.6-2.7-1.6-5.7-1.1-8.3c0.4-2,2.9-3.6,4.4-5.4C505,294.9,505.4,295.1,505.9,295.3z"/>
<path d="M818.6,279.4c0.4-0.8,0.9-2.6,2-3.8c0.9-1,2.7-1.3,4-1.8c0.3,1.4,0.9,2.8,1,4.3c0.1,2.3-0.2,4.6-0.4,6.8
c-0.1,1.4-0.2,2.8-0.9,4c-0.4,0.7-1.8,1.4-2.6,1.3c-0.8-0.1-1.9-1.2-2-2C819.2,285.6,819,283,818.6,279.4z"/>
<path d="M126.7,296.1c-3,0.9-5,0.2-5.4-2.4c-0.5-3.3-0.4-6.7-0.2-10c0.1-2,1.9-2.4,3.6-2.3c1.6,0.1,2.7,1,2.6,2.7
C127.2,288.2,126.9,292.2,126.7,296.1z"/>
<path d="M824.1,248.1c0.4,2,0.9,3.2,0.9,4.4c-0.1,3.7-0.3,7.5-0.8,11.2c-0.1,1-1.3,2.7-1.9,2.7c-1.2-0.1-3.2-1-3.3-1.8
c-0.8-4.7-0.7-9.5,1.3-14C820.7,249.5,822.3,249.2,824.1,248.1z"/>
<path d="M246.9,145.2c5.9-1.6,7.1-1.2,8.2,2.6c1.1,3.5-0.5,6.6-4.1,8c-2,0.8-3.9-0.2-4.2-2.6C246.5,150.6,246.8,148,246.9,145.2z"/>
<path d="M706.2,187.2c1.7,4.8,0.8,9.5,1,14c0.1,1.8-1.9,2.6-3.6,1.7c-0.3-0.2-0.6-0.4-0.8-0.7c-3.3-2.8-1.7-6.7-2-10.1
C700.5,189.5,702.6,187.8,706.2,187.2z"/>
<path d="M248.5,199.8c0-1.2-0.2-2.6,0.2-3.7c0.3-1,1.3-2.5,2-2.5c1.2,0,3.1,0.8,3.3,1.6c0.7,2.9,1.2,5.9,0.9,8.9
c-0.1,1.1-2.5,2.4-4,2.7c-2,0.3-2.4-1.6-2.5-3.3C248.5,202.3,248.5,201,248.5,199.8C248.6,199.8,248.5,199.8,248.5,199.8z"/>
<path d="M604.5,301.8c-3.7-3.7-3-8.2-2.8-12.6c0.1-2.3,1.8-3.2,4.4-4.3c0.5,1.6,1.3,3,1.5,4.4c0.3,2.6,0.2,5.3,0.2,7.9
C607.8,299.4,606.5,300.8,604.5,301.8z"/>
<path d="M504.8,265.3c-4.6-2.4-7.2-7.7-5.5-11.8c0.6-1.4,2.4-2.5,3.9-3.1c1.5-0.6,2.7,0.3,2.7,2.2c0,3.7,0,7.3-0.1,11
C505.7,264.1,505.3,264.5,504.8,265.3z"/>
<path d="M506.8,287.3c-2.7-0.6-4.6-1-6.5-1.5c-0.4-3.5-0.8-7.1,1.2-10.3c0.6-1,2.3-2,3.2-1.8c1,0.2,2.2,1.9,2.3,2.9
C507.2,280,506.9,283.4,506.8,287.3z"/>
<path d="M600.6,248.2c-0.3-0.8-0.8-1.5-0.9-2.3c-0.1-3.4-0.1-6.7-0.2-10.1c-0.1-2.8,1.1-4.4,4.6-4.1c0.1,1.5,0.2,3.1,0.4,4.6
c0.2,1.9,0.2,3.9,0.6,5.8C606.2,246.8,606.2,246.9,600.6,248.2z"/>
<path d="M706.5,243.6c0.3,2,0.5,3,0.6,4c0.2,3,0.2,5.9,0.4,8.9c0.1,1.8,0.7,3.7-1.9,4.1c-1.9,0.3-3.7-1.4-3.8-3.6
c-0.1-2.8-0.2-5.6-0.1-8.4C701.8,246,703.9,245.3,706.5,243.6z"/>
<g>
<path fill="hsl(359, 54%, 53%)" d="M136.7,213.8c0.2-6.5-4.3-10.9-10.9-10.9c-4.3,0-10.9,5.4-10.9,8.9c0.1,5.3,4.3,10.6,8.4,11 C130.7,223.1,136.4,219.3,136.7,213.8z"/>
<path fill="hsl(359, 54%, 53%)" d="M248.5,135.3c7.6,0.1,13.1-4.1,13.3-10.2c0.2-4.7-5.7-9.4-11.5-9.3c-5.2,0.1-8.9,4.8-9,11.6 C241.4,132.3,244.1,135.3,248.5,135.3z"/>
<path fill="hsl(359, 54%, 53%)" d="M830,205.1c0.3-5.7-2.9-9.7-7.9-9.9c-5.3-0.1-11,4.5-11.5,9.4c-0.3,4.3,4.2,9.4,8.7,9.7 C823.9,214.8,829.7,209.8,830,205.1z"/>
<path fill="hsl(359, 54%, 53%)" d="M369.2,165.3c-5.9-0.4-9.6,2.9-9.8,8.4c-0.2,5.6,2.8,9.5,7.7,9.7c6.7,0.4,12-3.2,12.3-8.5 C379.8,169.1,376,165.7,369.2,165.3z"/>
<path fill="hsl(359, 54%, 53%)" d="M602.8,138.6c5.7,0.1,9.8-3,8.9-7.4c-2-9-8.2-11.7-16-7.9c-3.6,1.8-5.3,6.5-3.3,9 C595.1,135.5,598.2,138.6,602.8,138.6z"/>
<path fill="hsl(359, 54%, 53%)" d="M500.2,238.3c1.8-0.1,2.7-0.1,3.5-0.2c3.5-0.5,6.1-2.7,6.7-5.7c0.5-2.9-1.3-6-4.9-7c-2.5-0.7-5.4-0.8-8-0.5 c-2.3,0.2-6.3,5.4-5.5,7.5c0.7,1.9,2.7,3.4,4.5,4.6C497.7,237.8,499.5,238.1,500.2,238.3z"/>
<path fill="hsl(359, 54%, 53%)" d="M704,178.3c5.2,0.1,10.3-3.8,10.4-8c0.1-3.5-4-7-8.8-7.3c-3.7-0.2-7.3,4.4-7.7,9.9 C697.6,176.1,699.9,178.1,704,178.3z"/>
</g>
</svg>
