<?xml version="1.0"?>
<!-- 24.1.28  -->
<svg xmlns="http://www.w3.org/2000/svg"
     width="1000" height="200"
     viewBox="0 0 1000 200">
<g>
	<path class="black" fill="#000000" d="M774.2,112.6c-0.2-6.3,2.7-10.4,5.8-14.4c0.4-0.5,0.9-1,1.3-1.4c2.6-2.8,5.3-5.2,7.1-8.9
		c1.5-3.1,4.6-5.5,7.4-7.7c3.9-3.1,8.4-5.5,13.5-6.4c1.1-0.2,2.3-0.2,3.5-0.3c0.5,0,1.1,0.1,1.6,0c3.3-0.8,6.5-2,9.9-2.5
		c4.2-0.6,8.3,0.4,12.1,2.2c1.3,0.6,2.2,2,3.1,3.1c0.9,1.2,1.7,2.5,2.4,3.8c0.9,1.5,2.2,2.5,3.9,3.1c6.8,2.5,9.1,7.4,6.8,14.4
		c-0.6,2-0.2,2.6,1.8,2.6c1.9,0,3.2-1.1,4.2-2.5c1.4-2,1.9-4.3,2-6.7c0.1-3.1,0.8-4,3.9-4.3c1.9-0.2,3.8-0.1,5.7,0.1
		c3.5,0.5,7,1,9.8,3.6c1,1,2.4,1.8,0.4,3.1c0.2,2-1.2,2.1-2.6,2.4c-2.4,0.5-4.8,1.2-7.2,1.7c-3.5,0.7-6.6,2.3-9.4,4.6
		c-0.9,0.7-0.8,1-0.1,1.7c0.6,0.6,1.2,1.2,1.7,1.9c3.6,5,2.4,10.9-2.8,14.1c-1.7,1.1-5.5,5.4-6.3,7.1c-0.4,1-0.9,2-1.6,2.7
		c-4.4,4.1-4.5,9.3-4.3,14.7c0,0.9,0.2,1.7,0.2,2.5c0,0.6,0.3,1.4,0,1.8c-0.4,0.6-1.2,1.1-2,1.4c-0.2,0.1-0.9-0.3-1.1-0.7
		c-0.7-1.7-1.2-3.4-1.9-5.1c-0.4-1.1-0.9-2.1-1.6-3.1c-0.6-0.9-1.4-1.6-2.1-2.3c-0.7,0.8-1.3,1.6-2,2.4c-0.1,0.2-0.3,0.3-0.4,0.5
		c-3.9,2.6-4.8,6.6-5.3,10.8c-0.1,0.8-0.1,1.8-0.6,2.5c-0.6,0.9-1.7,1.5-2.5,2.3c-0.4-0.8-0.9-1.6-1.3-2.4c-1.2-2.4-2.3-4.8-3.6-7.1
		c-0.3-0.5-1.1-0.8-1.8-1.1c-1.7-0.8-3.4-1.7-5.2-2.5c-3.6-1.7-7.2-2.1-10.9-0.7c-0.6,0.2-1.1,1-1.3,1.7c-0.6,1.6-1.2,3.2-1.4,4.9
		c-0.2,1.9-1.3,3-2.6,4.1c-1.1,0.9-1.9,0.6-2.5-0.6c-0.9-2.2-1.9-4.3-2.7-6.5c-0.8-2.2-2-3.5-4.4-4.1c-6.4-1.6-10.1-6.5-10.2-13.1
		c0-1.4,0-2.8,0-4.2c-0.1-2-0.7-3.9-2.3-5.1C775.3,118.4,774.3,115.3,774.2,112.6z"/>
	<path class="black" fill="#000000" d="M924.3,33.2c0.1,2.2-0.5,4.6-2.3,6.7c-1.9,2.2-2.3,5.1-1.9,7.9c0.7,5.4-0.7,10-4.9,13.5
		c-1.3,1.1-2.9,1.8-4.5,2.3c-1.5,0.5-2.7,1.1-3.6,2.4c-0.7,1-1.9,1.7-2.8,2.5c-0.5,0.4-0.9,0.9-1.2,1.4c-2.5,4.1-8.1,6-12.5,4.2
		c-0.5-0.2-1-0.4-1.4-0.7c-2.3-1.5-4.4-2.1-7.3-0.8c-3.4,1.5-9-0.9-10.9-4.1c-0.8-1.3-1.5-1.4-2.9-1c-4.4,1.6-7.1,0.4-8.3-4
		c-0.4-1.3-0.9-1.6-2.1-1.7c-3.1-0.3-6.1-1.2-8.3-3.6c-0.9-1-1.7-2.3-1.8-3.6c-0.2-1.7-0.8-3.4-0.1-5.3c0.5-1.5-0.7-2.7-2-3.7
		c-1.5-1.1-3.2-2.2-4.3-3.7c-4.4-5.8-3.5-12,1.8-17.2c1.6-1.5,3.5-2.9,5.5-3.7c3.1-1.3,5-3.4,6-6.5c0.1-0.3,0.1-0.7,0.3-0.9
		c4.3-6.1,12-11.6,20.6-7.6c1.2,0.5,2,0.8,3.5,0.2c1.9-0.7,4.2-0.5,6.3-0.3c1.6,0.2,2.9,0.2,4.3-0.5c7.8-3.9,18.9,1.6,20.9,8.7
		c0.1,0.5,0.5,1,0.6,1.5c0.7,2.1,2,3.3,4.1,4C920.5,21.2,924.4,27.2,924.3,33.2z"/>
	<path class="black" fill="#000000" d="M855.4,81.2c-2.6,0.1-3.6-1.6-2.5-3.9c0.3-0.7,0.8-1.3,1.1-2c1.2-2.8,4.5-4.1,6.9-2.6c0.7,0.5,1.2,1.7,1.3,2.6
		C862.3,78.6,859.2,81.1,855.4,81.2z"/>
	<path class="black" fill="#000000" d="M800.7,163.4c2.1,0.2,3,1.2,2.8,2.6c-0.2,1-2.1,2.4-3.1,2.3c-1.2-0.1-2.4-1.4-2.3-2.6
		C798.2,164.2,799.3,163.3,800.7,163.4z"/>
	<path class="black" fill="#000000" d="M845.7,157.7c-0.1,1.4-2.1,3.4-2.9,3.2c-0.9-0.2-2-0.3-2.1-1.6c0-0.9,2.2-3.2,3-2.9
		C844.5,156.7,845.2,157.3,845.7,157.7z"/>
	<path class="black" fill="#000000" d="M870.1,156.2c0.2,0.4,0.9,1,1,1.6c0.2,1.1-1.5,2.9-2.5,2.9c-1.1-0.1-1.7-0.8-1.7-1.9
		C866.8,157.5,868.3,156.2,870.1,156.2z"/>
	<path class="black" fill="#000000" d="M783.8,165.3c-0.1,1.7-0.7,2.4-1.9,2.4c-1.3-0.1-2.3-1-2.3-2.1c0-0.7,1.8-2.2,2.8-2.2
		C783.3,163.3,783.8,164.1,783.8,165.3z"/>
	<path class="black" fill="#000000" d="M856.2,150.6c0.1-1.7,1.2-2.8,2.3-2.8c1.3,0.1,1.9,0.9,2.1,2.1c0.2,1.1-1.3,2.4-2.7,2.1
		C857.2,151.8,856.6,151,856.2,150.6z"/>
	<path class="black" fill="#000000" d="M817.3,154.2c0.2,0.3,0.8,0.8,0.9,1.3c0.2,1.4-1.1,2.8-2.4,2.8c-1.4,0-2.2-0.8-2.1-2.2
		C813.7,155.2,815.3,154.2,817.3,154.2z"/>
	<path class="black" fill="#000000" d="M856.8,161.3c0.4,0.4,1.2,1,1.4,1.8c0.3,1.4-0.8,2.4-2.2,2.5c-1.1,0.1-1.9-0.2-2-1.5
		C853.9,162.8,855.2,161.4,856.8,161.3z"/>
	<path class="black" fill="#000000" d="M841.3,172.2c-1,0-2.3-1-1.9-1.9c0.4-1,1.1-2,1.9-2.8c0.5-0.4,2,1.8,2.1,3
		C843.6,172.3,842.1,171.8,841.3,172.2z"/>
	<path class="black" fill="#000000" d="M829.3,168.8c-0.9-0.9-1.9-1.4-2.1-2.1c-0.3-1.2,1.1-2.1,2.6-2.1c1.1,0,2.1,0.6,1.8,1.7
		C831.4,167.1,830.3,167.8,829.3,168.8z"/>
	<path class="black" fill="#000000" d="M817.7,169.5c0.1,1.2-0.4,2.1-1.7,2.2c-1.2,0.1-2.5-0.9-2.5-2c0-0.9,1.3-2,2.5-2
		C817.1,167.8,817.8,168.3,817.7,169.5z"/>
	<path class="white" fill="#FFFFFF" d="M844.5,99.4c-1.9-0.1-3.8-0.1-5.7-0.4c-4.1-0.6-7.8,0.3-11,2.9c-1.2,1-1.9,0.9-2.8-0.3c-1.6-2.4-3.3-4.7-5-7.1
		c-1.9-2.6-3.1-2.9-6-1.6c-4.9,2.3-8,6.3-10.5,10.9c-0.5,1-0.8,2.2-0.9,3.4c-0.3,3.2,1.5,4.6,4.6,3.5c1.8-0.6,3.4-1.8,5.1-2.7
		c2-1.1,3.9-2.2,5.9-3.2c0.8-0.4,1.9-0.6,2.8-0.6c2.4,0.1,2.8,1,2,3.2c-0.7,1.9-1.2,3.9-1.3,5.9c-0.2,2.9,1,5.1,3.3,7.2
		c3.2,2.9,6.8,3.7,10.9,3.7c1.6,0,3.2,0.7,4.7,0.5c2.4-0.3,4.8-1.1,7.1-1.6c1.1-0.2,2.2-0.3,3.3-0.4c-0.1,1.2,0,2.4-0.5,3.4
		c-1.8,3.9-4.8,7-9,8.1c-1.9,0.5-3.2,1.3-4.5,2.6c-1.7,1.7-3.5,3.4-5.5,4.8c-3,2.2-6.3,2.4-9.7,1.2c-1.9-0.6-1.8-1-0.5-2.6
		c0.3-0.3,0.4-1,0.2-1.4c-0.2-0.3-0.9-0.7-1.3-0.6c-3.4,0.5-6.7,1.2-10.1,1.6c-4.3,0.5-8.6,1.5-13,1.1c-3.3-0.3-6.6-0.9-9.2-3.3
		c-3.2-3-4.6-6.6-3.4-11c0.1-0.3,0.2-0.6,0.2-0.9c0.1-0.9-0.1-2.1,0.4-2.7c0.3-0.4,1.6,0,2.5,0c0.3,0,0.7-0.3,0.9-0.6
		c0.1-0.1-0.1-0.7-0.3-0.8c-0.9-0.5-1.8-1.1-2.7-1.5c-2.6-0.9-5-1.8-6.4-4.5c-1.6-3.2-1.5-6.5-0.2-9.7c1.9-4.7,5-8.7,9.4-11.5
		c1.3-0.8,2.6-1,3.8,0.2c0.5,0.4,1,0.8,1.6,1.1c0.3,0.2,1,0.1,1.2-0.1c0.2-0.4,0.2-0.9,0.2-1.4c0-0.2-0.2-0.4-0.3-0.5
		c-2.8-3.7-1-7.9,1.8-10.3c3.7-3.2,7.6-6.2,12.8-6.7c2.6-0.3,5.5,0.3,7.5,1.9c0.2,0.2,1,0.1,1.3-0.1c0.6-0.6,1.2-1.2,1.6-2
		c1-2.2,2.9-2.6,5-2.7c3.3-0.2,6.3,0.8,9.3,1.9c1.9,0.7,2.9,2.4,3.3,4.4c0.3,1.7,1.2,3.5-0.5,5.1c-0.2,0.2-0.2,0.7-0.4,1.1
		c0.4,0.1,0.8,0.3,1.2,0.3c2-0.1,4-0.5,6.1-0.4c4.5,0.2,7.1,3.7,6.2,8.2c0,0.1-0.1,0.2-0.1,0.3C848.5,99.6,849.6,99.2,844.5,99.4z"
		/>
	<path class="white" fill="#FFFFFF" d="M835.2,120.4c-1.1-0.1-2.1-0.1-3.2-0.4c-6.7-1.7-8.8-9-4.2-14.1c4.5-5,12-5,16.6,0c0.7,0.8,1.3,1.7,2,2.5
		c2.3,2.4,1.1,6.4-1.3,8.2C842.2,118.8,839.1,120.6,835.2,120.4z"/>
	<path class="white" fill="#FFFFFF" d="M851.2,118.6c-0.5,0-1.1,0.2-1.6,0.1c-0.2,0-0.5-0.9-0.4-1c2.5-2.2,2.2-5.2,2.3-8c0-0.9-1.1-1.9-1.7-2.9
		c-0.8-1.1-1.6-2.1-2.4-3.2c1.3,0,2.7-0.1,4,0c3.7,0.3,6.3,2.3,8.5,5.1c1.8,2.3,1.4,5.6-0.7,7.5C857,118.3,854.1,118.6,851.2,118.6z
		"/>
	<path class="white" fill="#FFFFFF" d="M905.4,60.8c-1.7,0.1-3.4,0.2-5.1,0.4c-0.3,0-0.6,0.5-1,0.7c0.2,0.3,0.5,0.8,0.7,0.8c1.7,0.2,1.6,1.4,1.4,2.6
		c-0.9,5.2-4.3,7.3-9.3,5.7c-1.9-0.6-3.8-1.2-5-3.1c-0.7-1.1-2.3-1.8-3.7-2.2c-0.9-0.3-1.7,0.7-1.3,1.6c0.7,1.7-0.3,1.9-1.4,2
		c-2.3,0.2-4.5-0.3-6.4-1.6c-1.5-1.1-1.6-2-0.5-3.6c1.7-2.6,1.3-5.7-1-7.8c-2.3-2-6.6-2.4-8.5-0.3c-2.6,2.8-5.6,2.6-8.8,2
		c-3.1-0.5-5.1-3.1-4.8-6.3c0.1-0.9,0.8-1.9,1.5-2.6c1.8-1.9,1.5-3.8-1-4.9c-1.3-0.5-2.6-1-3.9-1.6c-4.1-1.9-6.5-7.1-4.8-11
		c1.7-3.8,4.2-7,8.4-8.2c1.2-0.4,2.5-0.8,3.3,0.9c0.2,0.4,1,0.5,1.6,0.8c0.2-0.5,0.4-1,0.5-1.5c0.1-0.8,0.3-1.7,0.3-2.5
		c-0.2-5,2.5-9.3,7-11.6c5.7-2.9,10.8-1.3,15.6,2c0.8,0.5,1.4,1.3,2.1,1.9c0.6,0.6,1.3,0.9,1.8-0.1c1.7-3.1,4.7-4.2,7.8-5.3
		c5.7-2,13.1,0.6,15.6,6.1c1.3,2.8,1.5,6.1,2.3,9.2c0.1,0.4,0.4,1.2,0.6,1.2c0.5,0,1-0.2,1.4-0.6c1.9-2.1,2-2.4,4.2-0.8
		c4.9,3.5,7.7,8.6,5.1,14c-0.9,2-3.1,3.4-5,4.8c-1.4,1.1-3.2,1.8-4.7,2.7c-0.3,0.2-0.4,0.6-0.6,1c0.4,0.2,0.9,0.4,1.3,0.6
		c0.2,0.1,0.4-0.1,0.6-0.1c1.1-0.2,3-0.9,3.2-0.7c1,1.7,2.1,3.7,2.1,5.6c0,3.4-1.5,6.5-4.4,8.5c-1.1,0.8-2.8,1-4.2,1.3
		c-0.9,0.2-1.9,0-2.9,0C905.4,60.9,905.4,60.8,905.4,60.8z"/>
	<path class="white" fill="#FFFFFF" d="M866.9,57.4c1.4,0.4,2.4,0.5,3.2,1c1.8,1,2.1,2.8,0.4,4.1c-1.3,1-2.9,1.8-4.5,2.3c-0.6,0.2-1.8-0.3-2.2-0.8
		c-0.4-0.7-0.4-1.8-0.2-2.6c0.1-0.7,0.6-1.4,1-1.9C865.3,58.6,866.2,57.9,866.9,57.4z"/>
	<path class="white" fill="#FFFFFF" d="M859.2,76.1c-0.8,0.6-1.4,1.1-2.1,1.5c-0.5,0.3-1.1,0.4-1.7,0.5c0.2-0.6,0.3-1.4,0.7-1.8
		c0.5-0.5,1.4-0.7,2.1-0.9C858.5,75.4,858.7,75.8,859.2,76.1z"/>
	<path class="black" fill="#000000" d="M841.7,111.7c-0.1,1.5-1.2,2.8-2.3,2.7c-1.1-0.1-3-1.6-3.1-2.4c-0.1-1.3,1.9-2.7,3.7-2.7
		C842,109.3,841.2,111,841.7,111.7z"/>
	<path class="black" fill="#000000" d="M856.7,109.7c0.2,0.3,0.8,0.7,0.8,1.2c0.2,1.7-0.9,3.3-2.2,3.3c-1.1-0.1-1.4-0.7-1.4-1.7
		C853.8,111,854.9,109.8,856.7,109.7z"/>
	<path class="heart" fill="#AD0000" d="M874.3,22.6c4.6,0.6,8.6,1,10.9,5c0.7,1.2,1.4,0.9,1.9,0.2c2.3-3,5.6-3.7,9-4.5c3.4-0.8,8.7,2.6,9.5,6
		c0.3,1.4,0,2.6-1.1,3.5c-2,1.6-4,3.2-6,4.7c-2.8,2.1-5.8,3.9-8.4,6.2c-1.4,1.3-3.6,2-4,4.3c0,0.1-1.6,0.3-1.8,0
		c-1.5-2.5-3.7-4.5-5.6-6.6c-1.9-2.2-4.5-3.9-6.7-5.8c-2.1-1.8-4.2-3.6-4.5-6.7c-0.2-2.2,0.1-3.6,2-4.5
		C871.2,23.5,873,23.1,874.3,22.6z"/>
</g>
<g>
	<path class="black" fill="#000000" d="M350.6,113.4c-4.6-0.5-8.3,1.1-11.8,2.9c-1.7,0.8-3.4,1.3-5.2,1c-1-0.2-1.6-0.7-0.8-1.8c3-4,6.5-7.4,10.9-9.7
		c4.6-2.4,8.6-1.8,11.7,2.3c0.8,1,1,2.5,1.2,3.9c0.3,1.7,1,1.2,2,0.7c1.4-0.7,2.9-1.4,4.5-1.6c1.8-0.2,2-0.9,1.6-2.5
		c-0.9-4.2,1.8-9.5,5.7-11.1c0.7-0.3,1.5-0.6,2.1-0.6c3,0.3,4.7-1.7,5.7-3.8c3.3-6.6,9.3-9.1,15.8-10.9c2.7-0.7,5.5,0,8.1,1
		c1.5,0.6,3,0.9,4.6,1.3c4.4,1,8.8,1.6,13.1,3c5.4,1.8,8.1,6.4,9.3,11.7c0.4,1.7,0.6,3.3,2.7,3.8c0.5,0.1,0.9,0.6,1.2,1
		c4.9,7.3,6.3,15.3,4.8,23.8c-0.3,1.7-1.5,3.3-2.1,5c-0.4,1.2-0.7,2.4-0.8,3.6c-0.4,4.2-0.3,8.5-2.7,12.2c-0.6,0.9-1.6,1.7-2.6,2.3
		c-1.1,0.8-1.8,1.7-2,3.1c-0.3,2.8-0.9,5.5-1.2,8.2c-0.2,1.1-0.4,1.9-1.7,2.3c-1.5,0.5-2,0.6-2-1.3c0-2.3-1.4-4.2-2.7-6
		c-1-1.4-2.2-1.4-3.3-0.5c-2.4,2.1-5.1,3.4-8.2,4.2c-0.8,0.2-1.6,1.1-1.9,1.9c-0.9,2-1.5,4-2.1,6c-0.2,0.5-0.1,1.2-0.4,1.5
		c-0.7,0.9-1.5,1.7-2.3,2.5c-0.5-0.7-1.3-1.4-1.6-2.2c-1.4-3.6-2.9-7.1-2.7-11c0-0.3,0-0.7-0.2-0.9c-1.5-1-3-2.2-4.6-2.8
		c-0.9-0.3-2.2,0.3-3.4,0.7c-1,0.3-2,1-3,1.1c-2.4,0.1-3.4,1.5-3.9,3.5c-0.8,2.9-1.8,5.7-2.2,8.7c-0.2,1.7-2,1.3-2.3,2.4
		c-0.5-0.5-1.2-0.9-1.3-1.5c-0.7-2.8-1.5-5.6-1.9-8.4c-0.5-3-1.2-5.7-4-7.7c-2.5-1.8-4-4.4-4.7-7.5c-0.2-0.9-0.3-1.9-0.2-2.9
		c0.3-3.1,0.3-3.3-2.8-3.9c-4.5-0.9-8.1-3.3-10.7-7c-1.8-2.5-3.1-5.2-3.1-8.5c0-2.9,1.3-5.1,2.8-7.3c0.3-0.5,1-0.9,1.3-1.4
		c0.4-0.8,0.6-1.7,0.8-2.6c-0.8-0.1-1.5-0.3-2.3-0.4C351.2,113.4,350.6,113.4,350.6,113.4z"/>
	<path class="black" fill="#000000" d="M387.6,15.2c2.6-0.3,7.6-1.1,12.7-1.6c6.5-0.6,12.6,0.5,17.3,5.6c3.6,3.9,5.5,8.3,3.7,13.7
		c-0.9,2.5-0.5,4.5,1.3,6.8c3.6,4.4,5.3,9.7,5,15.5c-0.2,4.4-2,7.4-6,9.4c-1.7,0.9-3.2,2.4-4.4,4c-4,5-9.5,5-15.1,5.3
		c-4.2,0.2-8.5,0.1-12.1,2.8c-1.7,1.2-3.6,1.1-5.6,0.6c-0.8-0.2-1.6-0.6-2.4-0.8c-1.5-0.5-2.5-0.5-3.9,0.8
		c-2.9,2.7-6.6,3.4-10.4,2.4c-1.9-0.5-3.4-2.4-3.3-4.5c0.1-2.2-0.7-3.5-2.8-4.4c-3.1-1.3-4.2-4.4-5.3-7.3c-0.7-1.8,0-3.6,1.6-4.9
		c1.1-0.8,0.9-1.4,0.1-2.3c-1.3-1.7-2.5-3.4-3.8-5.2c-2.2-3-1.9-7.2,0.9-9.9c1.1-1,2.2-2,3.5-2.8c2.8-1.7,4.6-4,5-7.4
		c0.4-3.1,1.9-5.7,3.9-8C372.3,18.1,377.9,14.9,387.6,15.2z"/>
	<path class="black" fill="#000000" d="M359,94.9c-0.4,0-0.9,0-1.3,0c-1.6,0-2.9-0.7-3.1-2.1c-0.2-1.3-0.3-3.1,0.5-4.1c1.4-1.9,3.4-3.1,5.9-3.4
		c3.3-0.4,5.4,2.3,4.2,5.5C364,93.8,362.4,94.9,359,94.9z"/>
	<path class="black" fill="#000000" d="M365.8,178.2c0,1.1-1.9,2.8-3.3,3c-1.6,0.1-2.7-1.3-2.8-3.5c0-1.3,0.8-2.2,2.2-2.2
		C363.5,175.5,365.8,177.1,365.8,178.2z"/>
	<path class="black" fill="#000000" d="M422.3,183.9c1.2,0,2.3,1.1,2.3,2.2c0,1.1-1.6,2.6-2.8,2.6c-1.1,0-1.8-0.7-1.8-1.8
		C419.9,185.6,421.4,183.8,422.3,183.9z"/>
	<path class="black" fill="#000000" d="M383,183.7c0,1.1-1.7,2.6-2.8,2.6c-1,0-2.4-1.6-2.3-2.7c0.2-1.2,1-1.8,2.2-1.8
		C381.8,181.9,383,182.7,383,183.7z"/>
	<path class="black" fill="#000000" d="M416,174.2c0.1,2.5-0.8,3.8-2.3,3.9c-1,0.1-1.9-0.9-1.9-2.1c0-1.5,1.5-3.1,2.8-2.9
		C415.3,173.3,415.8,174.1,416,174.2z"/>
	<path class="black" fill="#000000" d="M351.9,171.7c0,1.9-1.4,3.4-2.6,3.2c-0.5-0.1-1.2-0.8-1.4-1.4c-0.3-1.4,1-2.8,2.4-2.7
		C350.9,170.8,351.5,171.5,351.9,171.7z"/>
	<path class="black" fill="#000000" d="M391,172.9c0,1.4-1.2,2.8-2.6,2.8c-1.1,0-1.1-0.8-1-1.6c0.1-2.2,0.8-3.5,2-3.5
		C391,170.7,390.7,172.1,391,172.9z"/>
	<path class="black" fill="#000000" d="M363.4,165.1c0,1.6-1.2,2.5-2.7,2.7c-1.2,0.1-1.4-0.6-1.4-1.5c0-1.5,1-2.6,2.3-2.4
		C362.4,164,363,164.8,363.4,165.1z"/>
	<path class="black" fill="#000000" d="M400.6,184.8c-1.1,0.9-1.8,1.7-2.7,2.1c-0.8,0.3-2.1-1.3-1.7-2.2c0.4-0.8,1.3-1.7,2.2-1.9
		C398.8,182.7,399.6,183.8,400.6,184.8z"/>
	<path class="black" fill="#000000" d="M431,172.5c0,1.8-0.9,2.5-2.3,2.6c-1.4,0.1-1.2-1-1.3-1.7c-0.3-1.4,0.8-2,1.8-2
		C429.9,171.4,430.6,172.2,431,172.5z"/>
	<path class="white" fill="#FFFFFF" d="M434.9,122.4c0.3,5.6-1.5,11.1-8.1,13.5c-0.4,0.1-0.9,0.2-1.2,0.5c-0.4,0.5-0.7,1.1-1.1,1.7
		c0.6,0.1,1.2,0.4,1.7,0.3c0.9-0.2,1.8-0.6,2.7-0.9c1.9-0.5,2.2-0.4,2.4,1.7c0.1,1.6,0.1,3.2-0.2,4.8c-0.7,3.6-4.1,6.4-8,6.8
		c-0.8,0.1-1.2-0.1-1.1-1c0.1-1.6-0.9-1.2-1.6-0.7c-1.2,0.9-2.4,1.8-3.3,3c-4.1,5.1-10.3,7.3-15.6,4.9c-2.8-1.2-5.3-3.2-7.7-5.1
		c-2.1-1.7-2-1.9-3.5,0.2c-0.3,0.5-0.8,1-1.3,1.3c-4.9,2.3-12.2,2.5-16.5-1.4c-1.9-1.7-3.1-3.8-3.7-6.2c-0.6-2.2,0.2-3.3,2.4-2.9
		c5.1,0.9,9.7-1.1,14.4-2.4c1.4-0.4,2.6-1.4,3.7-2.4c1.9-1.7,3.6-3.7,5.3-5.6c2.8-3.3,2.9-7.7,0.3-11.2c-0.3-0.4-0.7-0.8-1-1.3
		c-1.4-1.8-1.4-1.8,0.7-2.8c0.4-0.2,0.9-0.3,1.1-0.6c2-2.6,5.1-2.9,8-3.7c2.5-0.7,4.9-1.4,7.3-2.3c0.9-0.3,1.7-0.9,2.3-1.6
		c1.4-1.7,1-3.1-1-4c-3.1-1.4-6.3-2.2-9.6-1.9c-1.3,0.1-2.8,0.8-3.6,1.7c-1.4,1.7-2.4,3.8-3.6,5.6c-0.9,1.4-1.9,2.7-3,4.1
		c-1.3,1.6-2.8,1.6-4.6,0.9c-1-0.4-2.1-0.9-3.1-0.7c-3.8,0.6-7.2-0.8-10.6-1.8c-1-0.3-2.1-0.2-3.1-0.5c-0.8-0.3-2-0.7-2.3-1.3
		c-1-2.6-1.7-5.3,0.2-8c1.9-2.6,4.5-3.5,7.6-3.2c0.4,0,0.8,0.5,1,0.9c0.2,0.5,0,1.1,0.2,1.6c0.1,0.3,0.5,0.8,0.8,0.8
		c0.3,0,0.9-0.3,1-0.6c0.3-1,0.7-2.1,0.7-3.1c0.4-11.1,14.9-17.2,24.2-12.2c0.8,0.4,1,0.8,0.7,1.7c-0.6,2.1-0.2,2.6,1.9,1.6
		c3-1.4,6-1.2,9.1-0.6c2.6,0.5,4.9,1.5,6.3,3.9c0.7,1.2,1.6,2.3,2.4,3.4c2.2,3.2,1.6,6.7,0.9,10.2c-0.2,1.2-0.6,2.3-0.8,3.4
		c-0.1,0.3,0.2,1,0.4,1c0.3,0.1,0.9-0.1,1.1-0.3c0.7-1.1,1.3-2.2,1.8-3.3c0.4-0.9,1-1.1,1.7-0.5c1.8,1.4,3.4,3,3.8,5.3
		C434.2,116.3,434.5,119.4,434.9,122.4z"/>
	<path class="white" fill="#FFFFFF" d="M383.1,118.3c4.6-1.4,6.8,2.6,9.4,5.5c1.5,1.6,1.9,3.9,0.5,5.6c-2.6,3.2-5.1,6.6-9.3,8.1
		c-4.1,1.5-7.5,0.3-9.8-3.5c-2.9-4.8-2-11.3,2.4-14.8c1-0.8,2.5-0.9,3.9-1.1C380.9,117.9,381.8,118.2,383.1,118.3z"/>
	<path class="white" fill="#FFFFFF" d="M352.5,124.7c0.1-2.5,0.9-4.5,2.8-6c1.7-1.4,3.5-2.8,5.5-3.9c3.9-2.1,8.7-0.5,10.6,3.4c0.3,0.5,0.2,1.5-0.1,2
		c-3.2,4.4-3,9-1.1,13.7c0.5,1.3,0.2,1.7-1,1.9c-6.3,1.4-12.2,0-15.4-6.9C353.2,127.7,352.9,126.2,352.5,124.7z"/>
	<path class="white" fill="#FFFFFF" d="M403.8,70.7c-1.4-0.1-2.8-0.1-4.1-0.4c-0.7-0.1-1.5-0.4-2-0.9c-0.5-0.5-0.7-1.3-1-2c-0.9,0.7-1.9,1.4-2.8,2.1
		c-1.5,1.1-2.9,2.4-4.5,3.4c-2.6,1.6-5.2,0.8-7.6-0.5c-0.6-0.3-1-1.1-1.4-1.7c-2.1-4-7.7-5.7-11.4-3.5c-4.4,2.6-8.4,0.8-9.6-4.3
		c-0.5-2.2,1-3.9,3.4-3.6c0.9,0.1,2,0.6,2.5-0.6c0.4-1-0.6-2.3-1.9-2.7c-3.8-1.1-5.8-4-7-7.3c-0.9-2.5,0.3-4.9,2.5-6.5
		c1.4-1,2.9-1.7,4.4-2.5c1.1-0.6,2-0.5,2.4,0.9c0.3,1,1.1,1.5,1.9,1c0.4-0.3,0.6-1.3,0.5-1.9c-0.1-1.1-0.4-2.1-0.7-3.1
		c-1.4-4.4-0.4-8.3,2.7-11.6c3.3-3.5,7.4-5.8,12-7.1c2.7-0.8,3.5-0.1,4.2,2.6c0.1,0.3,0,0.7,0,1c0.3,1.1,1.3,1.5,2.1,0.7
		c4.9-4.9,10.8-5.9,17.4-5.1c5.3,0.7,9.2,3.2,11.9,7.7c2.2,3.7,2.1,7.4-0.6,10.8c-1.4,1.8-3,3.3-4.5,5c-0.3,0.4-0.4,0.9-0.6,1.4
		c0.6,0,1.2,0,1.8,0c0.2,0,0.3-0.2,0.5-0.3c1.2-0.6,2.7-2.1,3.5-1.8c1.4,0.7,2.8,2.1,3.5,3.6c1.4,3.2,3,6.3,3.1,10
		c0.2,5.8-2.4,9-8.3,9.6c-2.5,0.3-5,0.6-7.6,0.8c-0.3,0-0.7,0.1-0.9,0.2c-0.4,0.3-0.7,0.7-1,1.1c0.4,0.2,0.7,0.5,1.1,0.5
		c1.4,0.2,2.8,0.2,4.1,0.4c0.5,0.1,1.4,0.6,1.4,0.9c0,0.6-0.2,1.6-0.7,1.9c-0.9,0.6-2.1,1.1-3.2,1.3
		C407.5,70.5,405.6,70.6,403.8,70.7z"/>
	<path class="white" fill="#FFFFFF" d="M370.2,76.6c-0.3,0-1,0-1.5-0.3c-0.6-0.5-1.4-1.5-1.2-1.9c0.7-1.6,1.5-3.3,2.8-4.3c1.4-1.1,3.5-0.8,5.2,0
		c1.7,0.8,2,3,0.6,4.6C375.1,75.8,372.5,76.7,370.2,76.6z"/>
	<path class="white" fill="#FFFFFF" d="M358.8,92.2c-0.7-0.5-1.4-0.8-1.8-1.3c-0.1-0.2,0.4-1.1,0.9-1.4c0.9-0.6,2-1,3-1.3c0.3-0.1,1.1,0.3,1.2,0.7
		c0.1,0.5,0.1,1.4-0.3,1.7C361,91.2,360,91.6,358.8,92.2z"/>
	<path class="black" fill="#000000" d="M382.7,129.3c0,1.9-2.5,4-4.4,3.5c-0.1,0-0.2,0-0.3-0.1c-1.1-0.6-1.3-1.6-1.1-2.7c0.3-1.4,2.4-3.1,3.6-3
		C381.9,127.1,382.7,127.9,382.7,129.3z"/>
	<path class="black" fill="#000000" d="M360.4,125.7c1.2-0.1,2.7,1.1,2.7,2.1c0.1,1.6-1.1,2.9-2.7,2.9c-1.4,0-2.3-0.8-2.4-2
		C358,127.4,359.2,125.8,360.4,125.7z"/>
	<path class="heart" fill="#AD0000" d="M383.5,36.8c2.2,0.1,3.7,1.4,5,2.8c1.7,1.8,1.7,1.9,2.7-0.6c0.5-1.2,0.7-2.7,1.6-3.4c1.9-1.6,4.2-2.9,6.3-4.2
		c0.4-0.2,1.1-0.2,1.6,0c3.2,0.8,5.6,5.3,4.3,8.4c-0.9,2.2-2.3,4.4-3.6,6.4c-2.4,3.6-4.9,7.2-7.7,10.6c-0.9,1.2-2.5,1.8-3.9,2.6
		c-0.4,0.2-1.2-0.2-1.6-0.5c-3.2-3-6.6-5.8-9.4-9.2c-1.7-2-3.2-4.5-3-7.6c0.1-1.8,0.8-3.1,2.5-3.7S381.7,37.3,383.5,36.8z"/>
</g>
<g>
	<path class="black" fill="#000000" d="M624.2,88c0.5,0,1.2-0.2,1.6,0c3.9,1.8,8.1,0.2,12.1,1.2c1.3,0.3,2.9-0.5,4.4-0.7c6.5-0.9,11.9,1.1,16.5,5.6
		c0.4,0.4,0.7,0.9,0.8,1.3c1.2,4.2,4.3,7.2,7,10.4c3.6,4.2,6.1,11.7,1.9,17.4c-1.5,2.1-1.8,4.6-1.2,7c1,3.8-0.1,7.2-1.4,10.6
		c-0.3,0.9-1.3,1.8-2.1,2.3c-1.7,0.9-2.1,2.3-2.2,4c-0.3,5.2-0.8,10.5-0.7,15.7c0.1,2.4-1.8,1.5-2.6,2.2c-1,0.9-1-0.8-1.5-1.3
		c-0.3-0.3-0.4-0.7-0.7-1.1c-1-1.4-2-2.7-3-4.1c-1.3,0.9-2.5,1.7-3.8,2.6c-3.1,2.2-6.4,3.9-10.2,4.4c-3.3,0.4-4.5,1.7-4.6,5.1
		c0,1.4-0.3,2.7-0.4,4.1c-0.1,0.9-0.1,1.8-0.2,2.7c-0.1,0.6,0,1.4-0.3,1.8c-1,1.5-2.6,1.2-3.3-0.4c-1.2-2.8-2.4-5.7-3.7-8.5
		c-0.9-1.8-1.1-1.8-3-0.6c-1.7,1-3.5,1.5-5.5,1c-2-0.5-4-0.7-5.9-1.3c-1.5-0.5-2.2,0-2.6,1.4c-0.4,1.2-0.6,2.5-1,3.7
		c-0.2,0.6-0.3,1.3-0.7,1.7c-1.9,1.8-2.6,1.6-3.4-0.9c-1.6-5-3.3-9.9-4.8-15c-0.4-1.2-0.9-1.8-2-2.2c-4.8-1.6-7.2-7.3-6.7-11.6
		c0.2-1.7,0.4-3.4,1-5c0.5-1.7,0.1-2.4-1.4-3.2c-4.9-2.6-7.4-8.4-5.8-13.9c0.8-2.8,2.2-5.4,4.3-7.4c1-0.9,1.3-1.9,1-3.1
		c-0.5-2.4-0.8-2.6-3.2-1.8c-2.9,0.8-5.7,1.8-8.6,2.6c-1.9,0.5-4.2,0.8-5.3-1c-1.1-1.9,0.8-3.4,2-4.6c2.2-2.3,4.7-4.3,7.1-6.5
		c0.4-0.3,0.9-0.6,1.4-0.8c4-2.1,5.7-1.3,7.3,2.8c1,2.8,2.5,5.4,3.6,8.2c0.6,1.5,1.8,0.7,2.7,0.7c0.1,0,0.4-0.7,0.3-1
		c-1.6-3.1-0.7-5.7,1.4-8.3c1.9-2.4,4.1-3.8,7.2-4.2c2.4-0.3,4.1-2.3,5.1-4.3C613.8,90.3,618.1,87.8,624.2,88z"/>
	<path class="black" fill="#000000" d="M609.7,26.8c3.7-0.1,7.2-0.9,10.1-3.2c2-1.6,4-3.1,6.6-3.7c6-1.3,10.7,1,14.6,5.3c1.9,2.2,3.9,3.5,6.9,3.2
		c4.6-0.5,7.3,2.7,9.5,6c3.3,5,4.5,10.3,1.4,16c-0.7,1.3-0.6,3.1-0.7,4.6c-0.3,2.9-0.3,5.8-0.9,8.6c-0.6,3.2-3.4,4.8-5.7,6.7
		c-2,1.7-4.4,2.6-6.9,3.3c-3,0.8-6,1.6-8.9,2.6c-2.3,0.8-4.6,1.6-6.8,2.7c-3.3,1.7-6.4,1.2-9.4-0.6c-1.2-0.8-2-0.8-3.1,0.1
		c-0.9,0.7-2.1,1.1-3.2,1.5c-3.7,1.5-7.2,0-8.2-3.9c-0.4-1.4-0.9-1.9-2.1-1.6c-3.5,0.7-5.6-2.2-8.3-3.5c-0.6-0.3-0.9-1.5-1-2.2
		c-0.1-2-1.3-3.1-2.7-4.1c-2.7-1.9-3.9-4.6-4.5-7.7c-0.3-1.8,0.3-3.3,1.5-4.7c3-3.4,5-7.3,5.2-12c0.2-5.1,5.8-11.2,10.8-12.2
		C606,27.3,607.9,27.1,609.7,26.8z"/>
	<path class="black" fill="#000000" d="M601.4,83c1.7,0.6,4.1,0.9,5.2,3.2c1,2.2,0.1,4.2-1.5,5.9c-1.1,1.1-2.4,2.1-3.8,2.9c-3.9,2.3-7-1.1-7.1-4.1
		C594,86.1,596.6,83,601.4,83z"/>
	<path class="black" fill="#000000" d="M619.1,181.9c-0.1,1.7-2.9,4.5-3.9,4.2c-0.5-0.1-1.1-0.7-1.3-1.2c-0.7-1.6,1.7-4.6,3.4-4.2
		C618.1,180.8,618.7,181.6,619.1,181.9z"/>
	<path class="black" fill="#000000" d="M588.1,180.4c-0.7,1.3-1.4,2.7-2,4c-0.9-0.9-2.2-1.7-2.5-2.8c-0.4-1.4,1.5-3.2,2.9-3.1
		C587.4,178.5,587.9,179.1,588.1,180.4z"/>
	<path class="black" fill="#000000" d="M623.1,196.1c-0.8-0.4-1.7-0.6-1.7-1c-0.1-0.9-0.2-2.2,0.3-2.6c1-0.8,2.7-1.7,3.6-1.3c1.6,0.7,0.4,2.2-0.1,3.2
		C624.7,195.2,623.8,195.6,623.1,196.1z"/>
	<path class="black" fill="#000000" d="M657.6,177c-0.1-1.9,0.5-2.6,1.9-2.7c1.7-0.1,2.4,0.7,2.5,2.5c0.1,1.7-1.2,1.2-2.1,1.5
		C658.5,178.6,657.8,178,657.6,177z"/>
	<path class="black" fill="#000000" d="M601.1,189.4c0.3,0.4,1,1.1,1.2,1.8c0.2,1.4-1.1,2.5-2.6,2.5c-1,0-2-0.1-2-1.4
		C597.6,190.9,599.2,189.4,601.1,189.4z"/>
	<path class="black" fill="#000000" d="M650.3,175.6c0,1.7-1.4,2.9-2.9,2.8c-0.9-0.1-2-0.1-2.2-1.3c-0.1-1.2,1.9-3,3.3-2.7
		C649.3,174.4,649.9,175.3,650.3,175.6z"/>
	<path class="black" fill="#000000" d="M641.6,188.4c0.1,1.2-0.8,1.9-2.6,2.2c-1.3,0.2-1.8-0.4-1.9-1.5c-0.2-1.1,0.8-2.4,1.9-2.5
		C640,186.5,641.5,187.5,641.6,188.4z"/>
	<path class="black" fill="#000000" d="M670.8,172.2c-0.6-0.5-1.1-0.8-1.2-1.2c-0.5-1.3,0.3-3,1.7-3.2c0.7-0.1,1.6,0.2,2.2,0.7
		c0.2,0.2-0.1,1.4-0.4,1.9C672.4,171.1,671.6,171.5,670.8,172.2z"/>
	<path class="black" fill="#000000" d="M653.4,190c-0.3-0.4-1-0.9-1.2-1.6c-0.2-0.9,1.9-3,2.6-2.6c0.6,0.3,1.3,1.1,1.4,1.7
		C656.4,188.7,655,190.1,653.4,190z"/>
	<path class="white" fill="#FFFFFF" d="M657.9,103.8c0,0.4-0.1,0.9-0.1,1.3c0,0.7,0.2,1.4,0.3,2.1c0.7-0.2,1.3-0.5,2-0.5c0.9,0,2.1,0,2.6,0.6
		c1.2,1.3,2.2,2.8,3.1,4.4c3.4,6.6,1.8,10.3-3.9,15c-0.6,0.5-1.4,1-2,1.6c-0.3,0.3-0.5,1.1-0.3,1.4c0.2,0.3,0.9,0.5,1.4,0.5
		c0.9-0.1,2.4-0.7,2.6-0.5c0.6,1.1,1.1,2.4,1.2,3.6c0.1,4.8-1,7.9-5,9.4c-2.6,1-4.6,2.5-5,5.6c-0.2,1.6-1.2,3.2-1.9,4.7
		c-0.2,0.4-0.4,0.8-0.6,1.1c-3,4.9-11.5,8.8-17.2,7.9c-1-0.2-1.9-0.7-2.9-1.1c0.5-0.9,0.8-1.9,1.4-2.8c0.7-1,1.7-1.9,2.5-2.9
		c0.2-0.3,0.1-0.9,0.1-1.4c-0.6,0.1-1.3-0.1-1.7,0.3c-1.1,1-2.1,2.1-3.1,3.3c-2,2.2-3.9,4.5-5.8,6.8c-3.1,3.8-6.9,3.9-12,2
		c-2.7-1-4.8-3.2-6.6-5.5c-0.5-0.7-0.5-1.1,0.5-1.2c1.2-0.1,2.3-0.2,3.4-0.4c0.5-0.1,0.8-0.7,1.2-1.1c-0.4-0.3-0.9-0.8-1.3-0.9
		c-3.4-0.6-6.7-1.1-10.1-1.6c-4.6-0.6-8.9-8.2-5.1-14.1c0.5-0.8,0.9-0.7,1.8-0.4c3.6,1.3,7.2,2.5,10.9,3.6c3.6,1,6.9,0,9.4-2.6
		c2-2.1,3.8-4.3,5.6-6.6c2.6-3.2,1.9-7.1,1.6-10.7c-0.1-1.2-0.6-1.8,1.2-1.5c0.7,0.1,1.8-0.5,2.3-1.1c1-1.2,2.2-1.4,3.7-1.4
		c3.7,0,7.4-0.1,11.2-0.4c1-0.1,2-0.8,2.8-1.3c1.2-0.8,1.4-2,0.7-3.1c-1.6-2.5-3.1-5.1-5.8-6.7c-2.4-1.4-4.7-1.2-6.7,0.8
		c-1.2,1.3-2.3,2.8-3.5,4.2c-1.6,1.7-3.2,3.4-5,4.9c-1.4,1.2-3.1,1.5-4.8,0.8c-3.5-1.2-7-2.6-10.5-3.8c-2.1-0.7-4.2-1.3-6.3-2.1
		c-0.9-0.3-1.8-0.8-2.5-1.4c-1.9-1.7-2.2-4.2-0.3-5.9c1.4-1.3,3.3-2.4,5.1-3.1c2-0.8,2.5-0.3,3.3,1.9c0.2,0.6,0.5,1.3,0.9,1.7
		c0.4,0.4,1.2,0.7,1.5,0.6c0.4-0.2,0.7-1,0.8-1.5c0.1-0.4-0.2-0.8-0.3-1.2c-1.4-5.3,2.7-11.4,7.7-12.8c3.4-0.9,6.8-0.7,10,1
		c0.8,0.5,1.6,1.4,2,2.2c0.8,1.8,0.9,2,2.2,0.8c4.4-4.3,9.5-4.8,15.2-3.6C655.1,93.8,658.3,98.1,657.9,103.8z"/>
	<path class="white" fill="#FFFFFF" d="M622,128.4c-0.8,1.8-1.3,3.8-2.3,5.5c-1.2,2-2.8,3.8-4.5,5.4c-3,3-7.3,2.6-10.2-0.5c-1.4-1.5-2.4-3.2-3-5.2
		c-2.3-7.3,2.5-11.9,9.8-11.9c1.7,0,3.4,0.4,5.1,0.7C620,123,621.7,125.1,622,128.4z"/>
	<path class="white" fill="#FFFFFF" d="M595.1,136.6c-0.5-0.2-1.2-0.6-2-0.9c-5.2-2.1-7.2-9.7-3.2-14.8c3.3-4.2,7.2-5,11.8-4.3c1.1,0.2,2.3,1,3.2,1.9
		c1.6,1.5,1.6,1.7-0.4,2.9c-5,2.9-6.1,7.8-5.9,12.9c0,1.9-0.2,2.3-1.9,2.2C596.3,136.4,595.8,136.5,595.1,136.6z"/>
	<path class="white" fill="#FFFFFF" d="M657.4,44.8c0.2,3.2-1.3,5.6-4.8,6.9c-1.4,0.5-2.5,1.9-3.6,3c-0.2,0.2-0.3,0.9-0.2,1.1
		c0.2,0.3,0.8,0.5,1.1,0.4c0.7-0.2,1.4-0.6,2-0.9c2.4-1.1,3.4-0.5,3.3,2.2c-0.1,2.6-0.7,5.1-2.4,7.2c-3.2,3.9-7.2,6.2-12.4,6.2
		c-2.4,0-2.4,0-2.7-2.3c0-0.3,0-0.6-0.1-1c-0.1-0.3-0.3-0.8-0.4-0.8c-0.4,0-0.9,0.1-1.1,0.4c-0.3,0.4-0.5,0.9-0.7,1.4
		c-1.1,4.6-4.7,6.5-8.7,7.6c-2.4,0.7-4.6-0.7-6.5-2.1c-0.4-0.3-0.6-0.9-0.6-1.4c-0.8-6.9-6.4-7.2-10.9-3.4c-1.4,1.2-2.8,1.9-4.5,2.1
		c-1,0.1-2.2-0.1-3.1-0.6c-2.4-1.2-2.6-2.1-1.3-4.6c0.3-0.6,0.8-1.1,0.9-1.7c0.2-0.7,0.1-1.4,0.1-2.1c-0.6,0.3-1.4,0.4-1.8,0.9
		c-0.9,1.1-1.7,0.7-2.8,0.4c-3.4-0.8-5.1-3.3-6.6-6.1c-0.6-1.2-0.5-2.3,0.3-3.3c2-2.5,4-5,6.9-6.6c0.7-0.3,1.3-0.7,1.9-1.2
		c0.3-0.2,0.4-0.7,0.5-1.1c-0.3-0.1-0.8-0.5-1-0.4c-2,0.6-1.9-0.5-2-2.1c-0.2-8,5.7-12.5,12.7-13.2c1.3-0.1,2.6,0.5,3.9,0.9
		c0.2,0.1,0.4,0.8,0.3,1.2c-0.2,1-1.2,2.3,0,2.9c1.6,0.8,1.8-1.1,2.3-2c2.5-3.9,5.9-6.7,9.9-8.8c6-3.2,15.6,1.7,15.5,9.2
		c0,0.6,0.6,1.2,0.9,1.8c0.5-0.5,1.3-0.9,1.4-1.5c0.4-1.8,1.6-2,3.1-2.2c2.6-0.3,4.8,0.4,6.6,2.4C656.4,37.5,657.8,40.5,657.4,44.8z
		"/>
	<path class="white" fill="#FFFFFF" d="M611.3,76.6c-2.6,0.1-3.2-1.1-2.1-3.4c1-2,2.7-2.6,4.6-2.9c0.6-0.1,1.6,0.5,2,1.1c0.4,0.6,0.5,1.8,0.2,2.3
		C614.9,75.4,613.5,76.6,611.3,76.6z"/>
	<path class="white" fill="#FFFFFF" d="M603.6,88.1c0,1.5-3.5,4.7-4.7,4.5c-0.6-0.1-1.3-0.7-1.7-1.3c-0.6-0.8,0.4-4.1,1.6-4.5c1.2-0.4,2.6-0.2,3.9,0
		C603.1,86.8,603.4,87.8,603.6,88.1z"/>
	<path class="black" fill="#000000" d="M609.9,129.9c0,1.3-1.2,2.5-2.7,2.7c-1.1,0.1-2-1-2-2.4c0-1.3,0.7-2.3,2-2.5
		C608.3,127.5,609.8,128.8,609.9,129.9z"/>
	<path class="black" fill="#000000" d="M594.6,125.1c-0.2,1.7-1.8,3.4-3,3c-0.6-0.2-1.4-1.1-1.5-1.8c-0.1-1.7,1.8-3.3,3.4-3
		C594.7,123.4,594.8,124.1,594.6,125.1z"/>
	<path class="heart" fill="#AD0000" d="M617,40.5c3.7,0.6,7.1,0.2,9.6,3.1c0.2,0.2,1.1,0.1,1.6-0.2c2.9-1.8,6-3.3,9.5-3.5c1.5-0.1,3.2,0.2,4.7,0.6
		c1.6,0.4,2.1,1.3,1.6,2.9c-0.4,1.3-1.1,2.6-1.9,3.7c-3,4.1-6.1,8.2-9.2,12.3c-0.7,0.9-1.6,1.7-2.5,2.4c-2,1.3-4.2,1-6.1-0.5
		c-3-2.4-6.1-4.6-9-7.1c-1.9-1.7-3.7-3.6-5.2-5.6c-2.2-3.2-1.3-5.7,2.4-6.9C614,41,615.8,40.8,617,40.5z"/>
</g>
<g>
	<path class="black" fill="#000000" d="M281.5,101.6c-0.2,3.1-0.2,3.1,2.2,3.6c1.7,0.3,3.3,0.8,5,1.1c1.9,0.4,3-0.2,3.9-1.9c1-1.8,1.1-3.7,0.8-5.6
		c-0.6-4,0-4.8,4.1-4.6c4.2,0.2,7.9,1.8,11.3,4.1c2.3,1.6,2.1,3.8-0.4,5c-1.1,0.5-2.5,0.5-3.7,0.8c-2.7,0.5-5.4,0.9-8.1,1.6
		c-0.8,0.2-1.5,0.8-2.1,1.4c-1.7,1.5-1.7,1.8-0.4,3.7c4.4,6.1,2.8,14.9-1.8,20.2c-0.9,1-2.3,1.5-3.5,2.1c-1.2,0.5-1.6,1-1,2.4
		c1.7,3.7,0.7,8.5-2.4,10.7c-3.2,2.4-4.8,5.6-5.7,9.3c-0.3,1.3-0.5,2.7-0.6,4.1c-0.1,1.3-1,1.5-2.1,1.5c-1.1,0.1-1.1-0.8-1.2-1.5
		c-0.5-3.6-3-6.1-4.9-8.9c-0.8-1.2-1.8-1.1-3.1-0.8c-2.4,0.6-4.8,1-7.2,1.3c-1.1,0.1-1.9,0.3-2.3,1.3c-1,2.5-1.9,4.9-2.9,7.4
		c-0.3,0.7-0.5,1.6-1.1,2.1c-1.5,1.4-1.9,1.2-2.5-0.7c-1-3.3-2.1-6.5-3.2-9.8c-0.4-1.1-0.8-1.8-2.2-1.8c-3.6,0-7.3-0.1-10.9-0.3
		c-2.1-0.2-3.3,0.5-3.9,2.4c-0.4,1.1-0.7,2.2-1.1,3.3c-0.3,0.8-0.7,1.6-1.2,2.2c-0.9,1-1.9,0.9-2.4-0.5c-0.4-1-0.5-2.1-0.8-3.1
		c-1.4-4.4-3.4-8.7-3.5-13.5c0-1.2-0.7-1.6-1.7-2c-2.6-1-4.9-2.5-6.7-4.8c-5.1-6.8-4.8-15,1.1-21.7c0.5-0.6,1-1.1,1.6-1.6
		c2-1.6,2.6-3.4,2.1-6.1c-0.7-3.4,1.2-6.3,3.3-8.8c2.6-3.2,5.8-5.7,10.1-6.4c1.1-0.2,2.1-1,3-1.7c2.5-2.2,4.9-4.6,7.4-6.9
		c0.5-0.4,1.1-0.7,1.6-1.1c6.6-5.2,13.2-2.3,17.1,2.7c1.3,1.7,2.3,3.4,4.3,4.6c2.4,1.5,4.5,2.5,7.4,2.4c2.9-0.1,5,1.2,6.1,4.2
		C280.3,96.2,281.5,99.1,281.5,101.6z"/>
	<path class="black" fill="#000000" d="M312.5,34.1c-1.9,3.2,0.7,5.7,1.9,8.6c2.1,5.1,1.7,9.2-3,13.2c-2.1,1.7-3.9,3.6-5.5,5.8
		c-3.1,4.2-7.1,7.1-12.2,8.3c-1.9,0.5-4.1,0.6-6,0.2c-2-0.4-3.3,0-4.6,1.4c-0.7,0.7-1.4,1.3-2.1,2c-2.1,1.8-4.5,2.4-7.2,1.6
		c-2.3-0.6-3.9-1.9-4-4.4c0-1.7-0.8-1.9-2.2-1.7c-1.7,0.1-3.4-0.1-5.1-0.2c-3.6-0.1-6-2.2-7.5-5.2c-1.2-2.4-2.9-4.4-5-6.2
		c-1.4-1.3-2.9-2.6-4-4.1c-5.2-6.8-4.1-10.8,2.3-15.2c1.2-0.8,2.5-1.6,3.5-2.6c1.8-1.7,2.5-4,2.8-6.3c0.1-0.5,0-1.1,0.1-1.6
		c0.3-4,2.2-6.5,6.3-7.4c3.4-0.7,6.9-1.4,10.2-2.4c2.7-0.8,5.4-1.4,7.9-2.9c4.2-2.6,8.8-2.4,13.3-0.6c0.8,0.3,1.4,0.9,2,1.5
		c2.3,2.2,4.8,3.9,8.1,4.6c5.1,1.1,7.9,4.9,9.3,9.6C312.2,31.1,312.3,32.4,312.5,34.1z"/>
	<path class="black" fill="#000000" d="M293.6,85.3c0,2.4-2.6,3.2-4.7,4.4c-1.7,1-3.7,1.5-5.4,0.2c-0.7-0.6-1.4-1.7-1.4-2.6c-0.2-3.2,2.7-6.5,5.8-7.2
		C290.8,79.4,293.7,81.7,293.6,85.3z"/>
	<path class="black" fill="#000000" d="M211.8,168.6c-2.1-0.1-2.5-0.7-1.9-2.4c0.2-0.6,0.5-1.2,0.8-1.7c1.3-2.4,1.7-2.4,3.3-0.6
		c0.7,0.7,1.3,1.3,0.6,2.4C213.8,167.4,213.3,168.9,211.8,168.6z"/>
	<path class="black" fill="#000000" d="M268.1,159.9c0.2,0.5,1.1,1.5,0.9,1.9c-0.6,1.2-1.6,2.4-2.7,3.3c-0.5,0.4-2-1.5-1.9-2.5
		C264.6,161.2,266.3,159.8,268.1,159.9z"/>
	<path class="black" fill="#000000" d="M293.1,163.1c-0.3-0.5-0.9-1.2-1.1-2c-0.2-1,1.4-2.7,2.3-2.7c1,0,2,1,2,2C296.3,161.7,295,163,293.1,163.1z"/>
	<path class="black" fill="#000000" d="M237.5,174.3c0.8,1.1,1.5,1.7,1.6,2.3c0.2,1.2-0.3,2.4-1.7,2.7c-0.6,0.1-1.6,0-1.7-0.3c-0.3-0.5-0.2-1.4,0-2
		C236.1,176.2,236.7,175.5,237.5,174.3z"/>
	<path class="black" fill="#000000" d="M269.2,172.7c-0.1,1.6-1.2,2.6-2.4,2.6c-1.1,0-1.4-0.7-1.3-1.7c0.1-1.2,1.5-2.7,2.5-2.3
		C268.6,171.6,269,172.4,269.2,172.7z"/>
	<path class="black" fill="#000000" d="M231,169.3c-0.5,0.4-1.1,1.2-1.8,1.4c-1.2,0.4-2.3-0.5-2.3-1.5c0-1.2,0.8-1.7,1.9-1.7
		C229.9,167.4,230.7,167.6,231,169.3z"/>
	<path class="black" fill="#000000" d="M239.9,162.9c-0.5-0.3-1.1-0.4-1.3-0.8c-0.2-0.4,0-1,0.2-1.4c0.2-0.4,0.5-0.7,0.8-1c1-0.9,1.9-0.8,2.7,0.2
		c0.9,1.1-0.2,1.5-0.8,2C241.2,162.4,240.5,162.6,239.9,162.9z"/>
	<path class="black" fill="#000000" d="M282.2,166.5c0.7,1.4,1.2,2,1.3,2.7c0.1,0.9-0.1,2-1.4,2.1c-1.2,0.1-2-0.7-1.8-1.7
		C280.4,168.8,281.2,168,282.2,166.5z"/>
	<path class="black" fill="#000000" d="M253.8,174.4c-0.9,1-1.5,2.2-2.1,2.2c-1.2,0-1.7-1.2-1.5-2.3c0.1-0.6,0.9-1.5,1.1-1.5
		C252.1,173.1,252.8,173.7,253.8,174.4z"/>
	<path class="white" fill="#FFFFFF" d="M241.6,147.1c-3.6-0.5-7.2-0.8-10.7-1.7c-4.1-1-5.6-4.1-4.5-8.1c0.3-1.1,0.6-2.3,0.7-3.4
		c0-0.4-0.3-0.9-0.7-1.2c-0.2-0.1-0.8,0.2-1.1,0.4c-0.7,0.7-1.5,2.2-2,2.1c-1.4-0.3-2.8-1-3.9-1.9c-4.7-4-6.2-9.1-4.6-15
		c1-3.6,3.9-5.8,6.5-8.2c0.4-0.3,1.4-0.1,2.1,0c0.7,0.1,1.4,0.5,2.1,0.6c0.4,0,1-0.4,1.1-0.8c0.1-0.3-0.3-1-0.6-1.1
		c-3-1.2-3.8-3.7-3.6-6.5c0.4-5.1,3.5-8.6,7.8-11c1-0.6,2.5-0.2,3.8-0.3c1.3-0.1,2.5-0.2,3.8-0.4c1-0.2,1.5-0.8,2-1.8
		c1.2-3,2.8-5.8,5.9-7.3c1.9-0.9,4-1.6,6-1.8c1.8-0.2,3.4,0.5,4.7,2.1c2.6,3.1,5.7,5.8,7.3,9.6c0.1,0.4,1,0.6,1.4,0.6
		c2.3-0.2,4.6-0.5,6.9-0.6c2.6-0.1,4.3,1.5,5.1,4.4c0.4,1.4,0.7,2.9,1.1,4.4c0.7,3-0.2,4.1-3.2,4.4c-3.7,0.3-7.4,0.3-10.7,2.8
		c-1.3,1-3.5,0.8-5.2,1.3c-1.7,0.5-3.4,1.2-5,2.1c-1.3,0.7-1.7,0.3-2.1-0.8c-0.7-2.5-1.4-4.9-2.1-7.4c-0.9-3.3-3.1-4.5-5.9-2.9
		c-3,1.7-6,3.8-8.5,6.2c-1.2,1.1-1.5,3.2-1.8,5c-0.2,1.1,1,2,2.5,1.7c2-0.4,3.9-1.2,5.9-1.6c1.6-0.4,3.4-0.6,5-0.6
		c0.8,0,1.7,0.7,2.5,1.1c1.1,0.7,1.3,1.3,0.2,2.4c-5.8,5.9-4.8,12.8-0.5,17.5c2.2,2.4,5.1,3.5,8.1,4.2c3.5,0.8,7.1,1.2,10.7,1.9
		c4.8,1,9.6,0.6,14.3-0.8c2.2-0.7,2.9-0.2,3.2,2c0.4,2.6-1.2,5.9-3.8,6.7c-3.2,0.9-6.4,1.4-9.7,2.1c-0.8,0.2-1.1-0.3-1.1-1.1
		c0-0.6-0.4-1.2-0.7-1.9c-0.6,0.2-1.2,0.3-1.7,0.7c-4.6,4.1-9.4,4.5-14.9,1.3c-1.6-0.9-3.2-1.7-4.9-2.2c-0.8-0.3-1.9,0.1-2.8,0.4
		c-0.2,0-0.4,0.9-0.2,1c1.8,1.4,0.4,1.2-0.6,1.3c-1.3,0-2.6,0-3.9,0C241.7,147,241.6,147.1,241.6,147.1z"/>
	<path class="white" fill="#FFFFFF" d="M274.3,122.8c0.9,4.4-2.7,6.2-5.8,7.9c-4.2,2.3-8.8,2.6-13.3,0.5c-4.2-1.9-6.4-6.1-5.7-10.4
		c0.9-5.8,4.6-8.4,9.2-9.2c1.1-0.2,2.4,0.1,3.4,0.6c1,0.4,1.7,0.5,2.7-0.1c0.6-0.3,1.5-0.5,2.1-0.2
		C270.4,113.2,275.3,118.9,274.3,122.8z"/>
	<path class="white" fill="#FFFFFF" d="M281.7,130.5c-1.5-0.3-3.2-0.6-5-1c0.1-1.6,0.2-3.3,0.5-4.9c0.7-3.9,0-7.3-2.8-10.4c-1.7-1.9-1.4-2,0.5-3.8
		c4.8-4.8,15.1-1.4,17.4,3.8c2.1,4.7,0.8,11.1-2.4,14.3c-0.8,0.8-2,1.3-3.1,1.5C285.3,130.4,283.6,130.4,281.7,130.5z"/>
	<path class="white" fill="#FFFFFF" d="M258.4,36.5c-0.3-2.6-0.6-4.8-0.9-6.9c-0.3-2.6,0.9-5,3.3-6c3-1.2,6.1-1.9,9.4-1.1c1.4,0.3,2.1,0.8,1.8,2.4
		c-0.2,1-0.4,2.5,0.9,2.7c1.6,0.3,1.8-1.2,1.9-2.4c0.3-3.9,3.5-5.6,6.1-7.7c2.1-1.7,4.8-1.7,7.4-1.2c3.9,0.7,5.1,1.9,5.8,5.8
		c0.1,0.5,0.1,1.1,0.2,1.6c0.2,0.8,0.2,2,0.7,2.2c1.2,0.5,1.1-0.9,1.5-1.5c0.6-1.3,1.8-1.4,3-1.4c3.5,0,6.2,1.7,7.9,4.6
		c0.8,1.2,1.2,2.7,1.6,4.2c0.9,3.2,0.4,5.9-2.7,7.8c-1.4,0.9-2.7,2.1-4,3.2c-0.6,0.5-1.1,1.1-1.4,1.7c-0.2,0.4-0.1,1-0.2,1.5
		c0.6-0.1,1.4,0.1,1.7-0.2c1.8-1.9,4.1-2.2,6.5-2.3c2.1,0,2.6,0.5,3,2.5c0.9,4.9-1.4,8.8-6.2,10.4c-1.8,0.6-3.7,1.2-5.4,1.9
		c-0.8,0.3-1.4,0.9-2.1,1.4c-0.2,0.2-0.3,0.8-0.2,0.9c0.3,0.2,0.7,0.4,1,0.4c0.3,0,0.6-0.2,0.9-0.2c0.5,0,1,0.1,1.5,0.2
		c-0.1,0.6-0.1,1.3-0.5,1.7c-4.5,4.7-9.3,6.1-15.4,4c-1-0.3-1.7-1.3-2.6-1.8c-2.4-1.5-4.6-2-7.5-0.7c-3.9,1.7-8,3.1-12.4,1.9
		c-0.9-0.2-1.9-0.5-2.7-0.9c-2.1-1.1-2.4-2.5-1.1-4.6c0.9-1.5,0.7-2.1-0.9-2c-2.5,0.1-4.2-1.3-5.9-2.9c-1.3-1.2-2.8-2.3-4-3.7
		c-3.5-4.3-3.4-7.6,0.9-10.6c1.2-0.9,2.6-1.5,3.9-2.2c0.6-0.4,1.3-0.6,2-0.9c0.2,0.7,0.3,1.4,0.6,2c0.2,0.4,0.6,1,1,1
		c0.3,0,1-0.5,1.1-0.9C258.1,38.8,258.3,37.4,258.4,36.5z"/>
	<path class="white" fill="#FFFFFF" d="M276.1,72.2c-1.9-0.1-3.1-1.2-3-2.9c0-0.4,0.1-1,0.3-1.2c1.5-0.8,2.9-1.7,4.5-2c1-0.2,2.1,0.7,3.1,1.2
		c0.3,0.2,0.5,0.9,0.4,1.3C280.8,70.5,278,72.3,276.1,72.2z"/>
	<path class="white" fill="#FFFFFF" d="M286.3,87.4c-0.4-0.5-0.9-0.8-0.9-1.2c0-1.5,1.4-3.1,2.8-2.9c0.7,0.1,1.4,0.8,2,1.2c-0.4,0.6-0.7,1.3-1.2,1.6
		C288.3,86.7,287.3,87,286.3,87.4z"/>
	<path class="black" fill="#000000" d="M258.7,120.6c-0.1-1.3,2.4-4.1,3.6-4.1c1.1,0,2.5,1.6,2.5,2.9c0,1.6-1.2,2.7-2.9,2.7
		C260.5,122.2,258.8,121.3,258.7,120.6z"/>
	<path class="black" fill="#000000" d="M283.5,118c-1.5,0-2.5-0.9-2.4-1.9c0.1-1.2,1.9-2.9,3-2.8c1.3,0,2.3,1.1,2.3,2.5
		C286.4,117.2,285.3,118.1,283.5,118z"/>
	<path class="heart" fill="#AD0000" d="M292.9,36.9c-0.5,1.2-1,3.1-1.9,4.7c-2.4,4-5,7.9-7.5,11.9c-0.5,0.8-1,1.6-1.4,2.5c-0.8,2-1.9,2.4-3.5,1.1
		c-1.3-1.1-2.5-2.4-3.9-3.3c-2.3-1.6-4.7-3-7-4.4c-0.5-0.3-1-0.5-1.4-0.8c-3.6-2.7-4.2-7.5-1.6-11c1.1-1.5,4.8-2.3,6.8-1.4
		c1.5,0.7,3.2,1.4,4.5,2.5c1.2,1,1.8,0.6,2.6-0.3c1.3-1.4,2.4-3,3.8-4.3c1.8-1.7,3.9-2.7,6.4-1.2c0.5,0.3,1.2,0.4,1.8,0.5
		C292.5,33.4,292.7,34.7,292.9,36.9z"/>
</g>
<g>
	<path class="black" fill="#000000" d="M101.9,129.3c0.8-2.5-1-3.2-2.9-4.2c-2.2-1.1-4.4-2.2-6.3-3.7c-4.7-3.6-5.6-8.8-2.6-13.8
		c1.4-2.3,3.1-4.3,5.4-5.8c0.6-0.4,1.1-1.2,1.6-1.8c-0.9-0.6-1.8-1.9-2.7-1.8c-4.3,0.1-8.7,0.6-13,0.9c-1.3,0.1-2.6,0.4-3.8,0.3
		c-1.8-0.2-2.3-1.2-1.4-2.6c2.6-4.2,6-7.5,10.7-9.3c6.1-2.3,7.5-1.6,9.7,4.6c0.5,1.4,0.9,2.8,1.4,4.2c0.9,2.7,4.3,4.2,6.8,3.1
		c0.3-0.1,0.5-0.7,0.5-1c-0.3-4.4,2.7-6.8,6-8.3c3.4-1.6,5.4-4.3,7.6-7c1.8-2.3,3.4-5.1,6.6-5.8c2.9-0.7,5.9-1.5,8.8-1.5
		c2.7,0,5.5,0.1,8.3-0.2c0.9-0.1,1.9,0.2,2.8,0.3c0.8,0.1,1.6,0.2,2.5,0.1c7.7-0.8,14.4,1.3,19.6,7.1c1.5,1.7,2.2,4.1,3.5,6
		c1.1,1.6,2.5,3.2,4,4.5c2.2,1.8,4.1,3.7,4.9,6.5c0.8,3,2.2,5.8,2.9,8.8c0.9,3.8,0.5,7.5-1.7,11c-2.5,3.8-4.8,7.8-5,12.7
		c0,1.4-0.8,2.9-1.7,4.1c-3.1,4.4-4.8,9.3-5.2,14.6c-0.1,0.7-0.2,1.5-0.5,2.2c-0.6,1.3-2.2,1.5-3.1,0.4c-1-1.3-1.7-2.7-2.7-4
		c-2.5-3.3-5.5-4-9.2-2.2c-2.3,1.1-4.8,2.1-6.6,3.8c-2.4,2.3-4.3,5.2-6.3,7.9c-0.5,0.6-0.4,1.6-0.6,2.5c-0.1,0.6-0.2,1.3-0.5,1.8
		c-0.5,0.9-1.3,1.6-1.9,2.4c-0.5-0.8-1.2-1.5-1.6-2.3c-1.4-2.9-2.7-5.8-4.3-8.6c-0.6-1.2-1.6-2.3-2.7-3c-3.1-2-4.9-1.9-5.7,1.6
		c-0.4,1.8-1.1,3.4-1.6,5.2c-0.3,0.8-0.3,1.8-0.8,2.4c-0.5,0.6-1.3,1.4-2,1.4c-0.5,0-1.3-1-1.6-1.7c-0.9-2.1-1.6-4.2-2.4-6.3
		c-1.2-3.2-3.2-5.8-5.9-7.8c-4.6-3.3-5.7-8.3-6.7-13.4C102.1,132.3,102.1,130.9,101.9,129.3z"/>
	<path class="black" fill="#000000" d="M160,26.3c-0.2,0.9-0.6,2.4-0.8,4c-0.2,1.2-0.5,2.6-0.2,3.8c0.5,2.3,1.3,4.5,1.9,6.7c0.8,3,0.7,5.8-1.9,8.2
		c-2.6,2.3-5.1,4.7-8.1,6.6c-1.8,1.2-3.2,3.1-4.6,4.9c-3.3,4.5-8.2,5.1-13.1,5.5c-1.6,0.1-3.2-0.2-4.7-0.6c-1.4-0.4-2.1,0-3,1
		c-2.6,3.2-4.9,3.7-8.6,2.3c-1.8-0.7-3.3-1.8-3.5-3.8c-0.3-1.7-1.3-2.2-2.6-2.2c-3.5,0.1-5.8-1.9-8.2-3.9c-1.1-0.9-1.6-1.9-1.6-3.3
		c0-2.7-0.9-5-3.1-6.7c-0.6-0.5-1-1.1-1.5-1.7c-5-6-4-6.1-1.3-11.9c1.2-2.5,3-4.7,5.5-6.1c1.7-1,2.7-2.3,3.5-4c1-2.4,2-4.7,3-7.1
		c1.6-3.6,4.5-5.9,8-7.6c0.5-0.2,1-0.5,1.5-0.4c2.2,0.5,4.1-0.2,6.2-0.8c1.8-0.5,3.4-1.1,4.8-2.2c2.8-2.2,6.1-2.5,9.4-2.7
		c3.4-0.2,5.6,2,7.4,4.4c2.1,2.7,4.6,4.5,7.7,5.9c2.3,1.1,4.4,2.7,6.3,4.3C160.3,20.7,159.9,23.2,160,26.3z"/>
	<path class="black" fill="#000000" d="M110.9,75.9c0,2.6-3.3,6.7-5.8,6.8c-0.9,0-1.9-0.4-2.6-1c-2.2-1.6-3.3-5.9-2.2-8.4c1.2-2.8,3.1-3.9,5.7-3.4
		C108.8,70.5,110.9,73.1,110.9,75.9z"/>
	<path class="black" fill="#000000" d="M156,168.1c-0.2,0.6-0.3,0.9-0.4,0.9c-0.8,0.4-1.8,1.1-2.4,0.9c-1-0.3-2.2-1.1-2.6-1.9
		c-0.3-0.6,0.8-1.7,1.2-2.6c0.1-0.1,0.5-0.3,0.5-0.2C153.7,166.1,154.9,167.1,156,168.1z"/>
	<path class="black" fill="#000000" d="M141.1,180.7c-1.1,0-1.8-0.6-1.8-1.9c-0.1-1.5,0.6-2.4,1.9-2.4c1.5-0.1,2.6,0.9,2.6,2.2
		C143.6,179.8,142.7,180.6,141.1,180.7z"/>
	<path class="black" fill="#000000" d="M101.2,169.9c-1.4-0.4-3.1,0.1-3.1-1.8c0-0.7,0.8-2.1,1-2c1,0.2,2.1,0.7,3,1.3c0.4,0.3,0.6,1.2,0.4,1.7
		C102.4,169.5,101.6,169.7,101.2,169.9z"/>
	<path class="black" fill="#000000" d="M123.1,175.7c-0.2-0.3-0.8-0.8-0.9-1.3c-0.2-1.2,1-2.8,1.8-2.5c1,0.4,2.1,1,2.8,1.9
		C127.2,174.4,125.2,175.6,123.1,175.7z"/>
	<path class="black" fill="#000000" d="M115.3,180.4c0.2,0.4,0.8,1.1,0.8,1.8c0.1,1.6-1.1,2.9-2.4,2.7c-0.5-0.1-1.3-0.8-1.4-1.3
		C112.1,182.3,113.8,180.3,115.3,180.4z"/>
	<path class="black" fill="#000000" d="M179,156.6c1,0.7,2,1,2.2,1.6c0.4,1.2-0.9,2.5-2.1,2.6c-1,0.1-2.2-1.2-2-2.3
		C177.3,157.9,178.2,157.4,179,156.6z"/>
	<path class="black" fill="#000000" d="M162.2,181.1c-0.5-1.1-1-1.7-0.9-2.3c0.2-1.2,0.8-2.3,2.2-2.3c1.2,0,2.1,0.8,1.6,1.8
		C164.7,179.3,163.4,180,162.2,181.1z"/>
	<path class="black" fill="#000000" d="M167.5,165.3c-1.2,1-1.9,2-2.8,2.3c-0.4,0.1-1.3-1-1.9-1.6c0.9-0.7,1.7-1.5,2.6-1.9
		C165.7,163.9,166.4,164.6,167.5,165.3z"/>
	<path class="black" fill="#000000" d="M128.8,187.2c-0.8-1-1.7-1.6-1.7-2.2c-0.1-1,0.2-2.3,1.6-2.3c1,0,2.1,0.6,1.9,1.7
		C130.5,185.2,129.6,186,128.8,187.2z"/>
	<path class="black" fill="#000000" d="M111.8,173.6c-0.6-1.5-1.3-2.4-1.3-3.3c0-0.6,0.8-1.5,1.4-1.7c0.7-0.2,2,1.7,1.7,2.7
		C113.4,171.9,112.8,172.4,111.8,173.6z"/>
	<path class="white" fill="#FFFFFF" d="M167.8,95.1c-0.1,1.3-0.2,2.5-0.3,3.8c0,0.3,0.2,0.7,0.4,0.8c0.2,0.1,0.7-0.1,0.8-0.3c0.5-0.8,1-1.7,1.3-2.5
		c0.5-1.2,1.3-1.5,2.3-0.7c1,0.9,2.2,1.8,2.8,3c2.8,4.9,4.6,10.1,4.2,15.9c-0.1,1.9-0.8,3.3-2.4,4.2c-1.2,0.7-2.4,1.3-3.6,2
		c-1,0.6-2,1.2-2.9,1.9c-0.6,0.5-1.1,1.3,0.3,1.4c1.1,0.1,1.5,0.9,1.5,1.7c-0.1,3.8-0.2,7.7-2.5,11.1c-1.8,2.7-4,4.7-7.4,5
		c-3,0.3-6,1.1-8.9,0.8c-2-0.2-2.8-0.2-3.2,2c-0.2,1-1.3,2.1-2.2,2.6c-4.9,2.7-10,4.5-15.6,2.5c-2.4-0.8-4-2.3-4.8-4.8
		c-0.2-0.5-0.2-1.1-0.5-1.5c-0.2-0.3-0.6-0.7-0.9-0.7c-0.3,0-0.7,0.4-0.9,0.8c-0.2,0.2-0.1,0.6-0.2,0.9c-0.7,2.3-2.1,3.2-4.5,2.7
		c-1.8-0.4-3.5-1-5.3-1.3c-4.7-0.7-7.3-4-9-7.9c-1-2.4-1.3-5.2-1.6-7.8c-0.3-1.9,0.6-2.6,2.4-2.1c4,1.1,8.2,1.5,12.3,1.9
		c4.9,0.5,8.8-1.4,12-4.7c3-3.1,3-10.4,0.6-13.9c-2-2.8-1.3-4.4,2.1-5c2-0.4,4-0.3,6-0.6c1.9-0.3,3.8-0.6,5.6-1.1
		c2.6-0.7,3.1-3.4,1.1-5.1c-0.5-0.5-1.2-1-1.9-1.2c-3-0.8-6-1.7-9-2.2c-3.1-0.5-4.1,0.5-4.3,3.6c-0.2,2.1-0.5,4-2.1,5.5
		c-1.3,1.2-2.8,1.7-4.4,1.2c-2.1-0.5-4.1-1.2-6-2.2c-3.1-1.5-6-3.3-9-4.9c-2.5-1.4-2.8-2.6-0.7-4.7c1.5-1.6,3.5-2.7,5.4-3.9
		c0.9-0.6,1.6-0.2,1.8,0.9c0.1,0.4,0.1,0.9,0.3,1.2c0.3,0.4,0.8,0.8,1.2,0.8c0.4-0.1,0.8-0.7,0.9-1.1c0.2-0.7,0.1-1.5,0-2.2
		c-0.4-5.5,5-11.2,10.1-11.4c2.5-0.1,5.1-0.9,7.6-0.1c1.3,0.4,2.4,0.6,1.2,2.2c-0.3,0.4-0.4,1.2-0.2,1.8c0.1,0.5,0.6,1,1,1.5
		c0.4-0.3,0.9-0.5,1.2-0.9c3.8-4.7,8-6.2,13.8-4.5c2.1,0.6,4.3,1.3,6.3,2.3C165.2,84.8,167.9,89.1,167.8,95.1z"/>
	<path class="white" fill="#FFFFFF" d="M120.2,127.6c-3.1,0-6-0.5-8.3-2.6c-1.1-1-1.8-2-1.4-3.6c0.3-1,0.1-2.1,0-3.2c-0.5-5.4,4.6-9.7,9.2-9.1
		c2.1,0.3,4.3,0.5,6.2,1.3c4.6,2.1,5.9,5.5,5,10.6c-0.6,3.6-4.6,6.5-8.8,6.7C121.4,127.6,120.8,127.6,120.2,127.6z"/>
	<path class="white" fill="#FFFFFF" d="M102.7,102.4c4.1,0,7.3,3.1,7.1,7c0,0.7-0.5,1.4-0.8,2c-1.8,2.9-3,5.9-2.4,9.3c0.2,1.2-0.3,1.8-1.6,1.7
		c-4.3-0.5-8.3-1.3-11.4-4.9c-3-3.5-2.9-6.4-0.6-10.2C94.7,104.7,99.5,102.4,102.7,102.4z"/>
	<path class="white" fill="#FFFFFF" d="M147.8,51.3c-1.3-0.2-2.5-0.4-3.8-0.5c-0.4,0-0.9,0.2-1.4,0.4c0.2,0.4,0.4,0.9,0.6,1.3
		c0.1,0.1,0.4,0.2,0.6,0.3c3,1.6,3.1,2.6,1,5.3c-0.2,0.2-0.4,0.5-0.7,0.7c-4.9,3.6-10.4,4.9-16.3,3.4c-0.8-0.2-1.4-0.9-2.1-1.4
		c-1.1-0.9-2-1.9-3.1-2.7c-2.1-1.5-4-1.5-6.2,0.1c-3.1,2.2-7.9,2.1-10.9-0.4c-1.6-1.3-1.7-2.5-0.7-4.2c0.4-0.7,0.8-1.5,1.1-2.2
		c0.4-1,0.6-1.8-1.1-1.6c-0.8,0.1-1.8-0.5-2.5-1.1c-1.8-1.4-3.5-2.8-5-4.4c-1.8-1.9-1.8-3.5-0.6-5.8c1.6-2.9,3.8-5.1,6.6-6.8
		c1.2-0.8,2.2-1.1,3.3,0.3c0.3,0.4,1.1,0.3,1.7,0.4c0.1-0.7,0.4-1.4,0.3-2.1c-0.3-1.4-1.1-2.9-1.1-4.3c0.3-5.5,3-9.5,8-11.8
		c1.1-0.5,2.5-0.5,3.7-0.3c2.5,0.4,2.7,0.9,2.5,3.4c-0.1,1-0.7,2.5,0.6,2.8c1.5,0.3,1.7-1.3,2-2.4c1.6-6.4,4.7-9.2,10.9-9.8
		c3.5-0.4,6,1,7.7,4.1c0.6,1.1,1,2.1-0.3,3.1c-0.4,0.3-0.6,1.3-0.4,1.6c0.3,0.4,1.1,0.6,1.7,0.5c3.5-0.5,6.5,0.3,9.4,2.2
		c5.2,3.4,5.2,10.2,0,13.7c-0.4,0.2-0.8,0.3-1.1,0.6c-1,0.8-0.8,1.9,0.3,2.1c4,0.7,5,3.9,5.4,7.1c0.5,4-3.8,8.1-8.1,8.3
		c-0.6,0-1.3-0.1-1.9-0.1C147.8,51.1,147.8,51.2,147.8,51.3z"/>
	<path class="white" fill="#FFFFFF" d="M122.8,63.3c-0.1,1.4-1.8,2.8-3.4,2.7c-1.4-0.1-3-1.6-3.1-2.8c0-1.4,1.8-3.3,3-3.2
		C120.8,60.1,122.9,62.1,122.8,63.3z"/>
	<path class="white" fill="#FFFFFF" d="M103.3,77.5c0.2-1.1,0.3-1.8,0.6-2.5c0.3-0.6,0.8-1.7,1.1-1.7c0.7,0,1.7,0.5,2.1,1.1c0.4,0.6,0.4,1.6,0.3,2.3
		c-0.1,0.5-0.7,1-1.2,1.5c-0.5,0.5-1.2,0.8-1.8,1.2C104,78.6,103.6,78,103.3,77.5z"/>
	<path class="black" fill="#000000" d="M125.8,117.5c-0.1,1.5-1.1,3-2.3,3c-1.3,0-2.2-1.3-2.1-3c0.1-1.4,1.1-2.4,2.4-2.3
		C125.1,115.2,125.8,116.1,125.8,117.5z"/>
	<path class="black" fill="#000000" d="M102.4,111c1.2,0.1,1.7,0.9,1.7,2.1c0,1.2-0.3,2.4-1.6,2.8c-1.1,0.3-2.3-1-2.3-2.4
		C100.2,112.3,101.2,111.1,102.4,111z"/>
	<path class="heart" fill="#AD0000" d="M139.2,30.9c-0.2,3.2-1.4,5.7-3.7,7.7c-1.7,1.4-2.7,3.3-3.1,5.4c-0.5,2.4-2,2.9-4.1,1.4
		c-1.3-0.9-2.7-1.7-4.1-2.3c-3.7-1.7-7.2-3.5-9.5-7.2c-1.4-2.3-0.5-5,2.2-5.8c3-0.9,5.9-0.9,8.6,0.9c1,0.6,1.5,0.6,1.8-0.6
		c1.3-3.9,4.7-5,8.2-5.9c1.1-0.3,1.9,0.3,2.3,1.3C138.3,27.4,138.7,29.2,139.2,30.9z"/>
</g>
<g>
	<path class="black" fill="#000000" d="M696.4,112.9c-0.2-4.6,2.2-7.8,6.9-9.4c2.7-0.9,2.7-0.9,2.8-3.7c0.3-9,7.9-15.7,16.8-14.2
		c4,0.7,7.6-0.5,11.3-1.3c3.6-0.8,7.2-1.7,10.9-1.9c5.1-0.3,9.5,1.6,12.6,5.7c1.9,2.6,3.4,5.6,3.9,8.9c0.2,1.7,1.3,3.3,1.6,5.1
		c0.4,2.5,2.4,3.8,3.6,5.7c1.9,3,2.5,6.4,1.7,9.9c-1.1,5.1-1.9,10.2-1.5,15.5c0,0.4-0.2,1-0.4,1c-1,0.2-1,0.7-0.9,1.5
		c0,2.8-0.9,5.5-2.9,7.2c-3,2.7-3.1,6.2-3.5,9.6c-0.1,1.1,0,2.1-0.1,3.2c0,0.7,0.1,1.7-0.3,2.2c-0.6,0.9-1.6,1.5-2.4,2.3
		c-0.4-0.7-0.8-1.4-1.1-2.1c-1-2-2-4-3.2-5.9c-0.3-0.5-1.3-0.9-1.8-0.8c-2.8,0.7-5.7,1.2-8.2,2.5c-2.6,1.3-5.2,3.1-7.1,5.3
		c-1.4,1.7-1.7,4.3-2.4,6.5c-0.4,1.3-0.5,2.6-2.1,3.3c-1,0.5-1.5,0.4-2-0.6c-1-2-2.1-4-3.1-6c-0.8-1.9-2-3.2-4.1-3.6
		c-1-0.2-1.9-0.9-3-1.2c-2.4-0.7-3.3-0.3-4.2,2c-0.6,1.5-1,3-1.6,4.5c-0.4,1.1-0.9,2.1-1.6,3c-0.9,1.1-2.9,0.6-2.9-0.8
		c0-3.8-2.3-6.8-3.4-10.1c-0.1-0.5-0.6-0.9-1-1.2c-3.7-3.5-5.3-7.9-5.1-13c0-0.9,0-1.3-1.1-1.5c-2.5-0.5-4.9-1.2-7.4-1.7
		c-1.8-0.4-3-1.5-3.4-3.4c-0.6-3-1.7-6-1.8-9c-0.1-3.3,1.8-6.1,4.3-8.2c0.5-0.4,1.1-1.1,1.1-1.7c0.1-1.6-0.1-3.2-0.2-4.8
		c0-0.2-0.7-0.4-1.1-0.4c-0.9,0.1-1.9,0.2-2.8,0.5c-2.3,0.7-4.6,1.6-7,2.3c-0.7,0.2-1.5,0.4-2.2,0.3c-1.9-0.1-2.5-1-1.6-2.7
		c0.5-0.9,1.2-1.8,2-2.5c2.5-2.2,4.8-4.5,7.5-6.4c3.2-2.2,5.8-1.4,7,2.3c0.9,2.7,1.1,5.6,1.6,8.4c0.2,0.9-0.5,2.3,1.5,2.1
		c1.6-0.1,2-0.9,1.6-2.3C696.4,113.4,696.4,113,696.4,112.9z"/>
	<path class="black" fill="#000000" d="M719,79.3c-0.7,0-1.5,0.1-2.2,0c-1.5-0.3-3.1-1.2-4.5-1c-1.3,0.2-2.4,1.6-3.7,2.2c-2.6,1.4-4.9,0.8-7.1-0.9
		c-0.3-0.3-0.8-0.6-0.8-0.9c-0.4-2.2-1.8-2.6-3.8-2.9c-2.5-0.3-4.2-1.8-4.6-4.6c-0.4-3-1.6-5.6-3.9-7.8c-0.7-0.7-1.3-1.4-1.9-2.2
		c-3.7-4.6-3.2-7.8,0.7-12.2c0.4-0.5,0.9-0.9,1.5-1.2c3-1.3,4.3-3.2,3.6-6.7c-0.5-2.6,1.3-4.8,2.9-6.6c2.3-2.7,5.2-4.7,8.7-5.7
		c1.7-0.5,3.5-0.9,5.1-1.8c1.7-0.9,3.2-2.1,4.6-3.4c5.7-5.2,12.3-6.5,19.6-4.2c0.7,0.2,1.3,0.7,1.9,1.1c1.8,1.1,3.8,1.8,6,2
		c1.3,0.1,2.8,0.4,3.9,1.1c2.7,1.5,5.3,3.2,7.9,4.8c0.4,0.3,0.9,0.7,1.1,1.1c1.7,3.4,3.9,6.7,3.8,10.7c0,1.1-0.1,2.5-0.7,3.4
		c-1.4,2.1-1.2,4.2-0.5,6.4c1.4,4,0.2,7.6-2.6,10.3c-2.1,2-4.8,3.5-7.5,4.8c-4.1,2-8.4,3.4-12.5,5.4c-1.3,0.6-2.2,2-3.1,3.1
		C727.8,77.3,723.9,79.3,719,79.3z"/>
	<path class="black" fill="#000000" d="M689.3,90.7c0.1-3.2,2.5-6.3,5.4-7.2c2.9-0.9,5.4,0.8,5.7,3.8c0.4,4.3-4.3,8.5-8.3,7.3
		C689.9,93.9,689.3,93.1,689.3,90.7z"/>
	<path class="black" fill="#000000" d="M733,181.4c-1.1,0-1.8-0.5-1.8-1.8c0.1-1.6,1.6-3,3.3-2.6c0.7,0.2,1.7,1.1,1.8,1.8
		C736.7,180.1,734.7,181.5,733,181.4z"/>
	<path class="black" fill="#000000" d="M690.9,161.7c0.3-0.3,0.9-1.1,1.6-1.3c1-0.3,3.6,1.6,3.6,2.3c-0.1,1.3-1.6,2.7-3,2.7
		C691.8,165.3,691,164.1,690.9,161.7z"/>
	<path class="black" fill="#000000" d="M695,175c-1.2,1-1.9,2.1-2.9,2.4c-0.9,0.2-2-0.3-2.9-0.8c-0.3-0.1-0.2-1.7,0.1-1.9c1.2-0.6,2.5-1,3.8-1.2
		C693.6,173.5,694.2,174.3,695,175z"/>
	<path class="black" fill="#000000" d="M711,180.1c0,1-2.1,2.6-3.6,2.7c-1.3,0.1-1.6-0.9-1.7-1.8c-0.1-1.3,1.2-2.4,2.8-2.4
		C709.6,178.4,711,179.3,711,180.1z"/>
	<path class="black" fill="#000000" d="M742.9,170.9c-0.3-0.4-1.1-1-1.2-1.8c-0.2-1.3,0.9-2.5,2.2-2.6c1.2-0.1,2.2,0.7,2.2,1.7
		C746.2,169.4,744.7,170.8,742.9,170.9z"/>
	<path class="black" fill="#000000" d="M721.8,175.1c-0.5,0.4-1.2,1.5-1.9,1.5c-1-0.1-2.2-0.9-2.7-1.7c-0.5-0.8,1.2-2.5,2.3-2.5
		C720.7,172.3,721.8,173.3,721.8,175.1z"/>
	<path class="black" fill="#000000" d="M757.5,176.8c-0.7,0.2-1.6,0.7-2.5,0.7c-1.1,0-2-0.8-1.7-2.1c0.3-1.2,1-1.9,2.3-1.5
		C756.8,174.2,757.9,175.4,757.5,176.8z"/>
	<path class="black" fill="#000000" d="M769.3,166.8c-1.1,0.9-1.8,1.6-2.6,2c-0.2,0.1-1.3-1-1.3-1.7c-0.1-1.1,0.6-2.2,1.8-2
		C767.8,165.2,768.3,166,769.3,166.8z"/>
	<path class="white" fill="#FFFFFF" d="M723,88.4c2,0.6,4,1.2,6.1,1.7c0.9,0.2,0.9,0.6,0.5,1.4c-0.6,1-1.8,2.3-0.6,3.1c1.3,0.9,1.8-1,2.6-1.7
		c3.6-3.7,7.4-6.6,12.9-6.8c4.4-0.2,10.8,2.4,12.4,6.9c0.9,2.4,2.2,4.6,2.1,7.2c0,1.4-0.5,1.9-1.9,1.4c-0.5-0.2-1.3-0.2-1.7,0.1
		c-1,0.8-0.8,1.9,0.4,2.6c1.4,0.8,2.9,1.4,4.3,2.2c5.5,3,7.3,8.5,4.5,14.1c-0.7,1.4-1.8,2.7-2.6,4c-0.6,0.9-1.1,1.8-1.5,2.8
		c-0.1,0.3,0.1,1.1,0.2,1.1c1.2,0.2,1.6,1,1.5,2c-0.1,2.5,0,5.1-0.5,7.6c-0.6,2.7-2.7,4.5-4.8,6.2c-3.7,2.8-7.8,4.8-12.6,5
		c-1.7,0.1-1.9-0.1-1.5-1.8c0.1-0.5,0.4-1,0.4-1.5c0-0.6-0.2-1.1-0.4-1.7c-0.4,0.4-0.9,0.8-1.2,1.2c-1.5,2.4-2.9,5-4.6,7.3
		c-0.7,1-1.9,1.9-3,2.3c-4.1,1.6-8.3,1.8-12.5,0.1c-1.2-0.5-0.9-0.9,0-1.4c0.3-0.2,0.7-0.2,0.8-0.5c0.3-0.4,0.5-0.8,0.8-1.3
		c-0.5-0.2-1.1-0.7-1.6-0.6c-2.2,0.6-4.3,1.2-6.4,2c-8.6,3-13.2-4.5-13.8-10.3c-0.1-1.4,0.6-1.7,1.8-1.4c3.1,0.7,6.1,0.1,9.2-0.5
		c3.8-0.8,7-2.6,10.3-4.1c2.4-1.2,4.4-3,5-5.9c0.2-0.7,0.4-1.4,0.6-2.1c1.3-4,0.9-7.5-2.3-10.6c-1.6-1.6-1.6-2,0.3-3.1
		c1.6-0.9,3.3-1.6,5-2c2.5-0.6,5-0.8,7.6-1.2c0.2,0,0.4-0.1,0.6-0.1c2-0.1,3-1.6,3.5-3.3c0.5-1.8-1-2.8-2.3-3.5
		c-2-1-4.1-1.9-6.2-2.5c-2.1-0.6-4.4-1-6.6-1.1c-2.7-0.1-3.2,0.4-3.2,3.1c0,3-1.1,5.6-2.8,8c-0.8,1.2-1.8,1.7-3.2,1.7
		c-1.6,0-3.2,0.3-4.8,0.3c-1.4,0-2.7-0.2-4.1-0.2c-2.5-0.1-5.1-0.2-7.6-0.1c-1.7,0.1-2.4-0.1-2.5-1.7c-0.1-2.2,0.4-4.2,2.5-5.5
		c0.5-0.3,0.9-0.6,1.3-0.9c2.5-1.6,2.5-1.6,3.7,1.1c0.3,0.6,0.9,0.9,1.4,1.4c0.3-0.6,0.8-1.2,0.8-1.8c0-2-0.3-4-0.5-6
		C708.5,94.4,716.1,87.3,723,88.4z"/>
	<path class="white" fill="#FFFFFF" d="M715.3,117.7c1.7,0.3,3.4,0.4,5,0.9c4.1,1.1,6.2,4.6,5.2,8.8c-1.1,5-4.7,7.4-9.1,8.8c-0.5,0.2-1.1,0.1-1.6,0.2
		c-1.5,0.4-3.1,1.2-4.6,0.2c-2-1.4-4.2-2.8-4.9-5.3c-0.7-2.2-0.9-4.6-1.3-6.8c-0.4-2.3,1-3.6,2.7-4.6
		C709.2,118.4,712.1,117.8,715.3,117.7z"/>
	<path class="white" fill="#FFFFFF" d="M698.5,136.8c-1.8-0.3-3.8-0.6-5.8-0.9c-1.5-0.3-2.6-1.1-2.9-2.6c-0.6-2.3-1.1-4.5-1.4-6.8
		c-0.3-2.5,0.5-4.5,2.9-5.8c3.5-1.9,7.2-2.5,11-1.3c0.2,0.1,0.4,0.8,0.3,1.1c-2.6,5-2.2,9.9,0.5,14.6c0.7,1.2,0.5,1.8-0.9,1.8
		C701.1,136.8,699.9,136.8,698.5,136.8z"/>
	<path class="white" fill="#FFFFFF" d="M719,75.9c-1.9,0.3-3.4-0.4-4.5-1.8c-0.9-1.1-1.9-2-2.7-3.1c-2.5-3.2-6.2-2.9-8.3-0.4c-1.5,1.8-3.4,2.1-5.4,2
		c-2.2-0.1-3.1-1.9-2-3.9c0.2-0.4,0.5-0.7,0.7-1.1c1.3-1.9,1.2-1.7-1.1-2.7c-3.7-1.8-6.8-4.4-8.3-8.5c-0.6-1.7,0.4-3.5,2.5-4.6
		c1.6-0.8,3.2-1.5,4.8-2.4c1.1-0.6,2.2-1.3,3.2-2.1c0.5-0.3,0.8-0.9,1.1-1.4c-0.6-0.3-1.1-1-1.7-1c-1.1,0-1.2-0.7-1.3-1.4
		c-0.4-2.3-0.3-4.5,1.3-6.3c2.2-2.4,4.6-4.3,7.9-5.2c3.2-0.9,6.1-0.4,8.9,1.2c0.5,0.3,1.1,0.3,1.6,0.5c-0.2-0.5-0.2-1.2-0.6-1.6
		c-1.9-2.3-2-2.3,0.5-5.3c4.4-5.6,13.9-6.9,19-2.1c2.3,2.1,3.7,5.1,5.5,7.7c0.4,0.6,1.1,1.1,1.6,1.7c0.2-0.8,0.6-1.6,0.4-2.3
		c-0.3-1.3-0.8-2.6-1.3-3.9c-0.6-1.5-0.2-2.2,1.4-2c0.1,0,0.2,0,0.3,0.1c4.2,2,8.5,4,10.6,8.7c0.3,0.7,0.4,1.5,0.7,2.1
		c1.6,3,1,5.7-0.9,8.4c-0.5,0.7-1,1.5-1,2.3c-0.1,0.7,0.3,1.9,0.8,2.1c2.2,1,1.8,2.7,1.3,4.4c-1.1,4-4.2,6.3-7.7,8.1
		c-2.9,1.5-6.1,1.8-9.3,2.1c-1.1,0.1-2.2-0.7-3.3-0.9c-0.6-0.1-1.6-0.1-2,0.3c-0.3,0.4-0.3,1.6,0,1.9c1.4,1.2,0.6,2.2-0.1,3.2
		C728.6,72.8,724.5,75.6,719,75.9z"/>
	<path class="white" fill="#FFFFFF" d="M710.6,74.8c-0.1,0.3-0.2,0.4-0.2,0.5c-0.5,1.6-5.1,2.9-6.4,1.7c-0.2-0.2-0.6-0.6-0.6-0.7
		c0.3-0.9,0.5-1.9,1.1-2.4c1-1,2.1-2.5,3.8-1.5C709.2,73,709.9,74,710.6,74.8z"/>
	<path class="white" fill="#FFFFFF" d="M693.5,91.4c-0.2-0.2-0.9-0.7-1-1.2c-0.2-1.2,1.9-3.6,3.1-3.5c1.2,0,1.6,0.8,1.6,1.9
		C697.2,89.9,695.4,91.4,693.5,91.4z"/>
	<path class="black" fill="#000000" d="M708.1,125.1c0.1-2.1,0.8-3.1,2.1-3.1c1.1,0,2.2,1.6,2.1,3.1c-0.1,1.1-1.3,2.1-2.5,2
		C708.7,127,707.7,126.6,708.1,125.1z"/>
	<path class="heart" fill="#AD0000" d="M736.1,38c-0.2,0.7-0.3,2-0.7,3.2c-1.2,4-2,8.1-1.9,12.3c0,3.2-1.8,4.5-4.9,4.1c-4.3-0.5-8.7-0.6-13-1.2
		c-2.9-0.4-5.7-1.4-8.6-2.2c-1.6-0.4-2.1-1.8-2.6-3.1c-0.8-2.2,0.9-6.2,3.1-7.3c3-1.7,6.1-2.7,9.4-0.9c0.2,0.1,0.4,0.1,0.6,0.1
		c1.4,0.2,2.9,1,4,0.6c1-0.4,1.4-2.2,2-3.3c1.7-2.9,4.2-5.1,7.4-6.4C734.1,32.5,736.2,34,736.1,38z"/>
	<path class="black" fill="#000000" d="M695.1,125.2c-0.2,1.7-1.8,3.4-3,3c-0.6-0.2-1.4-1.1-1.5-1.8c-0.1-1.7,1.8-3.3,3.4-3
		C695.1,123.5,695.3,124.3,695.1,125.2z"/>
</g>
<g>
	<path class="black" fill="#000000" d="M472.1,80.8c2.1,0.4,4.2,0.7,6.2,1.3c1.2,0.4,2.2,0.3,3.3-0.1c5.4-2,10.9-2.1,16.4-0.5c3.8,1.1,7,3.1,8.9,6.8
		c0.9,1.7,2.6,2.2,4.2,2.7c6.2,1.9,8.3,5.2,7.4,11.7c-0.1,0.5,0.3,1.1,0.6,1.5c0.4,0.5,0.9,0.9,1.5,1.2c2.4,1.3,3.3,1.1,4.6-1.4
		c0.9-1.8,1.6-3.7,2.2-5.7c0.7-2.4,2.3-3.3,4.5-3.2c2,0,4.1,0.3,6,0.7c1.9,0.4,3.7,1,5.5,1.7c1,0.4,2.6,0.4,2.4,2.1
		c-0.1,1.5-0.6,3-2.2,3.7c-2,0.8-4,1.5-6.1,1.9c-2.6,0.6-5.3,0.8-7.8,1.5c-0.9,0.2-1.8,1.2-2.3,2c-0.2,0.4,0.3,1.5,0.7,2.1
		c1.8,2.6,2.8,5.5,3.1,8.7c0.4,4.1-2.5,8.7-6.4,10.2c-0.7,0.3-1.4,0.5-2.1,0.8c-1.4,0.5-2.1,1.4-2.1,3.1c-0.1,4.8-2.6,8.5-7,9.7
		c-3.4,0.9-4.6,3.1-5.3,5.9c-0.9,3.5-1.3,7.1-2,10.7c-0.2,0.9-0.2,2-0.6,2.8c-0.3,0.6-1.1,1.4-1.5,1.3c-0.7-0.1-1.6-0.8-1.8-1.4
		c-0.7-3.4-3-5.8-5.2-8.2c-0.4-0.4-1-0.5-1.6-0.7c-0.2-0.1-0.4,0.1-0.6,0.1c-7.2-0.3-7.8,5.5-9.7,10.3c-0.3,0.7-0.1,1.6-0.5,2.1
		c-0.5,0.7-1.4,1.3-2.2,1.4c-0.5,0-1.3-1-1.5-1.6c-1-3.8-1.9-7.7-2.7-11.5c-0.2-1.2-0.6-1.3-1.7-1c-1.3,0.4-2.5,0.4-3.9,0.3
		c-2-0.2-4.5,0.4-5.6,2.7c-0.8,1.6-1.5,3.3-2.2,4.9c-0.3,0.8-0.6,1.7-1.2,2.2c-0.6,0.6-1.5,1.2-2.4,1.4c-0.3,0-1-1.2-1.3-2
		c-0.8-2.3-1.5-4.7-2-7.1c-0.4-1.8-1.4-2.9-3.1-3.3c-3.6-1-6.3-3.3-7.9-6.5c-1.8-3.6-2.3-7.6-0.9-11.5c1.5-4,0.5-7.7-1.1-11.3
		c-2.1-4.6-2.1-9-0.2-13.6c1-2.5,2.5-4.7,3.9-6.9c1.3-2.1,2.1-4.7,2.5-7.1c0.5-2.6,1.3-4.9,3.2-6.8C459.7,84,465.4,81.5,472.1,80.8z
		"/>
	<path class="black" fill="#000000" d="M555.3,47.9c0.7,3.1-1,6-2.5,8.9c-0.9,1.6-2.4,3-3.9,4.1c-2,1.5-4.4,2.5-6.6,3.9c-0.9,0.6-1.6,1.4-2.3,2.2
		c-3.7,3.7-8,5.5-13.1,3.9c-2.8-0.9-4.6,1-6.8,1.8c-1.8,0.6-3.4,1.8-5.2,2.5c-1.4,0.6-3,1-4.6,1c-2.9,0.1-4.1-0.9-4.7-3.8
		c-0.4-2-1.4-2.8-3.4-3c-3.8-0.3-7-1.9-9.7-4.4c-0.8-0.8-1.7-2.2-1.6-3.2c0.1-1.7-0.6-2.7-1.7-3.6c-2.7-2.2-3.9-5.3-5.2-8.3
		c-3.3-7.5,1.6-14.2,7.6-16c2.5-0.8,3.9-2.9,5.8-4.4c0.2-0.2,0.4-0.5,0.6-0.8c3.8-6.6,10.1-7.9,16.9-7.2c5.3,0.5,10.3-0.1,15.4-1.2
		c4.9-1,11.2-0.5,14.5,5c0.9,1.5,1.6,3.3,1.9,5c0.4,2.3,1.2,4.1,3.3,5.5C554.2,38.5,556.2,42.4,555.3,47.9z"/>
	<path class="black" fill="#000000" d="M530.4,84.2c-0.1,4.1-4,7.7-8,5.7c-0.8-0.4-1.7-1.2-1.9-2c-0.5-2.4-0.4-4.9,1.5-6.9c1.7-1.8,3.2-2.3,5.1-1.5
		C528.9,80.2,530.3,82.2,530.4,84.2z"/>
	<path class="black" fill="#000000" d="M457.1,182.8c-0.7-0.6-1.9-1-2.2-1.7c-0.5-1.3,0.5-2,1.7-2.5c1.4-0.6,2.7-0.8,3.8,0.2c0.3,0.3,0.3,1.2,0.1,1.7
		C460.1,182,458.9,182.6,457.1,182.8z"/>
	<path class="black" fill="#000000" d="M498.3,169.2c-0.9,1-1.4,2.1-2.3,2.4c-0.8,0.4-2.1,0.3-3,0c-0.5-0.2-0.6-1.4-0.7-2.2c0-0.3,0.3-0.8,0.6-0.9
		c1.1-0.3,2.2-0.6,3.3-0.6C496.8,167.9,497.4,168.6,498.3,169.2z"/>
	<path class="black" fill="#000000" d="M443.4,173.9c-0.2-0.3-1.1-0.8-1.2-1.5c-0.3-1.6,1.1-3.6,2.3-3.1c0.9,0.4,1.7,1.5,2.2,2.5
		C447,172.7,445.5,173.9,443.4,173.9z"/>
	<path class="black" fill="#000000" d="M478.9,184.2c-1.1-0.1-1.5-0.8-1.5-1.9c0-1.4,0.9-2.7,2-2.8c1-0.1,2.3,1.1,2.3,2.1
		C481.7,182.9,480.3,184.2,478.9,184.2z"/>
	<path class="black" fill="#000000" d="M470.5,170.6c0.3,0.5,1,1.2,1.1,2c0.2,1.1-1.4,2.5-2.5,2.3c-1.1-0.1-1.7-0.8-1.5-2
		C467.6,171.8,469,170.5,470.5,170.6z"/>
	<path class="black" fill="#000000" d="M520.4,162.2c-0.2,2-1.4,3.1-2.8,3c-1.3-0.1-1.5-1-1.5-2c0.1-1.1,1.5-2.3,2.8-2
		C519.5,161.2,520,161.9,520.4,162.2z"/>
	<path class="black" fill="#000000" d="M528.8,168.2c0.3,0.3,1,0.9,1.1,1.5c0.3,1.3-1.1,2.4-2.7,2.4c-0.9,0-1.8-0.2-1.8-1.3
		C525.5,169.7,527,168.3,528.8,168.2z"/>
	<path class="black" fill="#000000" d="M499.9,180.2c-0.1,1.8-1.3,3-2.3,2.6c-0.5-0.2-1-1.1-1-1.6c0-1.2,0.5-2.5,1.9-2.5
		C499,178.6,499.6,179.8,499.9,180.2z"/>
	<path class="black" fill="#000000" d="M511.3,173c0.2,0.5,0.9,1.3,0.9,2.1c0,1.1-0.9,1.6-2,1.4c-1-0.1-1.9-0.5-1.9-1.7
		C508.2,173.9,509.5,172.9,511.3,173z"/>
	<path class="white" fill="#FFFFFF" d="M489.4,151.4c-1.7-0.3-3.5-0.3-4.8-1c-2.5-1.3-5.6-0.8-7.7-2.9c-0.2-0.2-1.2,0-1.3,0.3
		c-3.1,4.9-7.7,4.1-12.3,3.2c-1.8-0.4-3.5-0.9-5.3-1.3c-6.2-1.4-8.4-5.5-8.8-11c-0.2-3.2,1-6.1,2.5-8.8c0.7-1.2,1.6-1,2.7-1
		c1,0,2-0.5,3-0.8c-0.8-0.5-1.6-1.3-2.5-1.6c-6-2-8.8-8.5-6.6-15c0.6-1.6,1.4-3.1,2.2-4.6c1.1-1.9,2.5-3.4,4.5-4.4
		c1.5-0.7,2.9-1.4,4.3-2.2c0.4-0.2,0.6-0.9,0.9-1.4c-0.6-0.2-1.1-0.6-1.7-0.6c-1-0.1-2,0.1-3,0.2c0-1.1-0.1-2.3,0.2-3.4
		c0.6-2.7,2-4.7,4.4-6.4c3.6-2.5,7.6-3.8,11.8-4.6c2.8-0.5,5.3,0.4,7.6,1.8c0.5,0.3,0.9,1.1,1,1.8c0.1,0.8-0.2,1.7-0.1,2.5
		c0.1,0.4,0.6,0.8,1,1c0.1,0.1,0.7-0.4,0.9-0.7c0.7-1.3,1.1-2.8,2.1-3.9c3.4-3.9,7.8-3.5,12.1-2.4c1.7,0.4,3.2,1.6,4.8,2.5
		c2.2,1.3,3.4,3.4,3.4,5.8c-0.1,1.8,0.8,2,2.1,2c1.8,0,3.5-0.1,5.3,0c0.6,0,1.4,0.5,1.8,1c2.2,2.5,2.3,6.3,0.4,9
		c-0.3,0.4-0.8,0.7-1.3,0.8c-0.8,0.1-1.7,0.1-2.6,0c-5-0.3-10-0.1-14.7,2.2c-0.9,0.5-1.6,0.4-2.2-0.3c-1.5-1.7-3.2-3.1-4.5-4.9
		c-1.4-1.9-3.2-2.6-5.2-2.5c-4.9,0.4-11.4,4.8-12.7,9.5c-0.2,0.7-0.4,1.5-0.4,2.2c-0.1,2.1,1.4,3.5,3.4,2.9c2-0.6,4-1.4,6-2.3
		c3.3-1.6,6.7-2.8,10.4-2.8c0.3,0,0.7,0.2,1,0.4c0.1,0.1-0.1,0.6-0.3,0.8c-1.1,1.4-2.3,2.8-3.3,4.3c-3.2,4.8-2.9,12.3,2.6,16
		c1,0.7,2.2,1.4,3.4,1.5c5.9,0.4,11.8,1.7,17.8,0.7c1.4-0.3,3,0.1,4.5,0.2c1.5,0,1.8,1,1.6,2.2c-0.4,2.3-1.7,3.9-3.6,5
		c-2,1.2-4.2,1.6-6.5,1.6c-1.8,0-3.6,0.3-5.4,0.7c-0.7,0.1-1.4,0.5-2,1c-0.3,0.3-0.5,1.1-0.4,1.4c0.2,0.3,0.9,0.5,1.4,0.5
		c0.8,0,1.5-0.3,2.2-0.4c-0.5,0.9-0.8,2-1.6,2.5c-1.5,1.1-3.2,2.2-5,2.7C494.4,150.8,491.8,151,489.4,151.4z"/>
	<path class="white" fill="#FFFFFF" d="M498.2,128.6c-3,0.7-5.4,0.2-7.2-2.3c-1.3-1.7-2-3.5-1.8-5.7c0.5-5.4,3.5-9,8.1-11.5c2.2,0.8,4.4-1.4,6.7,0.2
		c1.2,0.8,2.8,1.2,4.1,2.1c4.9,3.2,4,12.6-1.6,15.1C503.8,127.8,501.4,129.8,498.2,128.6z"/>
	<path class="white" fill="#FFFFFF" d="M518.7,127.6c-1,0-1.6,0.1-2.1,0c-1.4-0.2-2.7-0.5-4.1-0.8c0.5-1.2,1-2.5,1.5-3.7c1.8-4.1,0.6-8-1.2-11.7
		c-1-2.1-1.1-1.9,1.1-3c3.1-1.5,5.6-0.3,8,1.6c4.1,3.1,6.2,7.2,5.4,12.5c-0.4,2.5-1.9,3.8-4.1,4.4
		C521.6,127.3,519.9,127.4,518.7,127.6z"/>
	<path class="white" fill="#FFFFFF" d="M543.8,32.6c-0.3,3.8-0.5,6.5-2.8,8.7c-0.6,0.6-0.9,1.7-1.2,2.6c-0.1,0.4,0.2,0.9,0.3,1.4
		c0.5-0.2,1.1-0.3,1.4-0.6c1.3-1.4,2.5-2.9,3.8-4.4c1.1-1.3,2.1-1.5,3.5-0.7c1.5,0.8,2.3,2.2,2.8,3.8c2.1,6.5-0.3,13-6.3,16.5
		c-0.4,0.2-0.7,0.5-1,0.8c-1,0.9-1.6,0.9-1.8-0.7c-0.1-0.5-0.6-1.3-1-1.4c-0.5-0.1-1.1,0.4-1.5,0.9c-0.3,0.3-0.5,0.9-0.6,1.4
		c-1.2,4.7-4.3,7.3-9.1,7.2c-2.2-0.1-4.4-0.6-6.7-0.9c-0.8-0.1-1.7-0.7-2.5-0.5c-2,0.4-3.3-0.1-4.6-1.8c-0.5-0.6-1.9-0.7-2.9-0.8
		c-0.5,0-0.9,0.4-1.4,0.6c-6.7,2.7-6.7,2.7-13.7,0.6c-0.5-0.2-1-0.3-1.5-0.6c-3.2-1.9-3.4-3.7-0.7-6.3c0.4-0.4,1-0.5,1.4-0.8
		c0.3-0.2,0.3-0.7,0.5-1c-0.4-0.2-0.9-0.4-1.3-0.5c-0.2,0-0.4,0.1-0.6,0.2c-2.3,1.7-4.1,0.2-5.6-1.2c-2.9-2.8-4-6.5-4.5-10.4
		c-0.1-1,0.4-2.1,0.9-3c1.2-2.3,3.1-3.8,5.3-5c2.6-1.3,2.9-1.1,3.9,1.7c0.2,0.6,1,0.9,1.5,1.4c0.3-0.5,0.8-1,0.9-1.5
		c0.2-0.8,0.2-1.7,0.2-2.6c0.4-5.7,5.7-11.4,12-11c2.6,0.2,5.3,0.4,7.9,0.9c1.3,0.3,2.8,1,3.5,2c1.3,1.7,2,0.9,3-0.1
		c0.4-0.4,0.6-0.9,1.1-1.2c2.1-1.3,3.5-3.6,6.6-3.2c3.8,0.5,7.3,1.2,9.3,4.8C543.1,29.5,543.4,31.6,543.8,32.6z"/>
	<path class="white" fill="#FFFFFF" d="M510.7,73.5c-0.8-0.8-1.7-1.3-2.1-2.1c-0.6-1-0.1-2,0.8-2.7c1.9-1.4,4.1-1.6,5.5-0.3c1.2,1,1.3,2.3,0,3.2
		C513.8,72.3,512.4,72.7,510.7,73.5z"/>
	<path class="white" fill="#FFFFFF" d="M527.2,83.9c0,1.5-1.5,3.1-2.5,3c-1.6-0.2-1-1.7-1.4-2.6c-0.3-0.7,1.2-2.2,2.1-1.9
		C526.2,82.7,526.8,83.5,527.2,83.9z"/>
	<path class="black" fill="#000000" d="M519,116.9c1.1-0.1,2.5,1.1,2.5,2c-0.1,1.5-1.6,3.2-3,3.3c-1.1,0.1-2.2-1-2.2-2.2
		C516.3,118.7,517.9,116.9,519,116.9z"/>
	<path class="heart" fill="#AD0000" d="M503.1,40.8c-0.1-2.7,1.3-4.4,3.2-4.4c1.4,0,3,0.4,4.3,0.9c1.9,0.8,3.7,1.7,5.4,2.8c1.1,0.7,1.8,0.6,2.6-0.5
		c0.9-1.2,1.9-2.3,3.1-3.1c1.9-1.4,4.1-2.4,6.6-1.2c0.3,0.1,0.6,0.2,0.9,0.3c1.2,0.3,2.6-0.1,3.2,1.6c0.6,1.8,1.7,3.6,0.7,5.5
		c-1.2,2.2-2.5,4.4-4.1,6.5c-2.6,3.5-5.3,6.9-8,10.4c-1.4,1.8-1.7,1.8-3.6,0.8c-0.6-0.3-1.4-0.6-2-0.9c-0.4-0.2-0.9-0.2-1.1-0.5
		c-3.4-4.7-6.8-9.4-10-14.2C503.5,43.3,503.4,41.6,503.1,40.8z"/>
	<path class="black" fill="#000000" d="M502.3,116.7c1.1-0.1,2.5,1.1,2.5,2c-0.1,1.5-1.6,3.2-3,3.3c-1.1,0.1-2.2-1-2.2-2.2
		C499.6,118.6,501.2,116.8,502.3,116.7z"/>
</g>
</svg>
