<?xml version="1.0"?>
<!-- 24.4.6  -->
<svg xmlns="http://www.w3.org/2000/svg"
     width="1000" height="1000"
     viewBox="0 0 1000 1000">
<path fill="#000000" d="M963.1,121.2c1.101,8.1,0.301,10.9-7.1,12.9c-18.6,5-30.1,19.2-42.7,31.9c-6.2,6.2-11.5,13.4-17.3,20
	c-6.9,8-7.5,16.9-5,26.8c4,15.5,13.9,27.4,23.7,39.2c4.5,5.5,10.5,9.7,15.7,14.7c1.6,1.5,2.5,3.8,4.1,5.4c4.8,5,9.9,9.6,14.6,14.6
	c12.7,13.6,25,27.6,33.9,44.2c2.5,4.6,1.3,7.9-2.7,11c-8.6,6.6-16.8,13.6-25.5,20.1c-5.2,3.9-9.6,8.3-13.8,13.5
	c-4.9,6.3-12.4,10.6-19,15.4c-4.6,3.3-8.6,6.6-10.3,12.6c-1.101,3.9-4.3,7.3-6.9,10.7c-3.899,5.1-5.2,11-3.899,16.8
	c2.6,12.1,5.8,24.3,14.199,34c8.601,9.9,17.2,19.6,25.601,29.6c10.8,12.7,22.7,24.4,31.6,38.601c5.7,9.1,11.2,18.3,16.8,27.5
	c-6.199,4.7,3.301,8.899,0.2,14.899c-4.7,3.301-10.899,0.601-16.8,0.301c-5.5-0.2-11.1-1.7-16.4-0.801
	c-23.8,4-47.6,8.801-71.399,13.2c-15.2,2.8-30,6.601-44,13.4c-15,7.399-29.5,15.7-40.601,28.6c-5.1,5.9-9.199,12.2-9.699,20.8
	C789.7,664,792,675.9,795.3,688.4c3.9,15.199,11.4,27.6,20,39.8c6.3,9.1,13.4,17.6,19.9,26.5c5.2,7.1,10.1,14.5,15.1,21.8
	c3.4,5,6.7,10.2,9.7,14.7c-4.1,8.899-10.2,12.1-18.7,12.6c-3.899,0.2-7.7,3.3-11.5,5.101c-13.899,6.6-27.5,13.899-39.1,23.8
	c-8.8,7.5-16,17.3-22.601,26.899c-11.3,16.5-21.3,33.9-26.1,53.5c-2.1,8.5-2.2,17.4-3.2,26.2c-0.3,2.7-0.399,5.5-0.6,9.3
	c-2.4-1.3-4.3-1.699-4.5-2.5c-2-7.5-8.101-12.5-10.2-20.6c-2.6-10.5-9.8-19.8-15.2-29.6c-1.1-2-2.8-3.7-3.7-5.801
	c-10.1-22-25.5-40.3-40-59.199c-6.199-8-11.399-16.9-18.1-24.5c-11.7-13.301-24-26-36.4-38.601c-14.399-14.7-29-29.3-44.1-43.3
	c-13.4-12.4-27.7-23.9-41.5-36c-9.3-8.2-17.6-17.8-27.6-24.9C489.3,658.2,482.6,651.9,475.4,646.2
	c-16.2-12.8-34.5-21.601-55.101-25.3c-4.2-0.7-7.399,0.3-11,2.6c-6,4-12.1,8-18.8,10.6c-12.9,5.101-24.8,0.301-34.9-7.3
	c-11.199-8.3-22-17.6-31.399-27.899c-8.601-9.5-18.8-12.101-30.6-12.801c-11.7-0.6-23.5-1-35.2-2.199
	c-21.7-2.2-39.9-12.101-55.7-26.7c-0.7-0.7-1.4-1.4-2.1-2.101c-7.1-6.8-14.3-12-25.1-13.399c-21.7-2.7-43.1-8.101-64.7-12.101
	c-6.1-1.1-12.7,0-18.6-1.5c-15.8-4-31.7-3.699-47.8-3.1c-3.1,0.1-5.5-1.2-5.5-4.2c0-2.3,1.4-4.7,2.7-6.7
	c0.5-0.8,2.4-0.899,3.6-1.199c19.5-4.301,38.9-8.801,58.4-12.801c12.2-2.5,24.6-4.199,36.8-6.8c11.8-2.5,23.6-5.399,35.3-8.3
	c6.7-1.7,8.2-6.8,7.7-14.1c-9.8-4.601-20-9.601-30.3-14.301c-10.4-4.8-21-8.899-30.3-15.899c-9.7-7.3-14.8-17.4-20-27.601
	c-6.5-12.6-9.1-25.899-10.3-40.399c-1.2-13.6,3-25.2,6-37.2c2.7-10.7,9.5-19.3,21-22.8c0.9-0.3,1.6-1.1,3-2.2c-3.2-4.3-6-8.3-9.1-12
	c-7.4-9-15.1-17.9-22.5-27c-6-7.5-14.9-8.2-23.1-8.8c-4.8-0.4-8.8,4.4-9.7,9.7c-2.7,15.2-3,30,7.7,43c3.7,4.5,6.8,9.7,9.1,15.1
	c4.2,9.5-1.2,16.4-11.6,15.4c-3.8-0.4-8-1.2-11.2-3.1c-8.6-5.1-17.8-8.1-27.7-9.2c-2.3-0.3-4.5-1.3-6.7-1.5
	c-5.3-0.5-7.7-3.9-8.1-8.4c-0.4-4.8-0.2-9.8,0.4-14.7c2.5-19.9,4.9-39.7,7.9-59.5c1.4-9.4,3.9-18.6,6.5-27.7c1-3.7,3.2-7.2,5.7-10.2
	c5.5-6.7,14.4-8.8,21.1-3.5c11,8.7,22.3,17.6,31.2,28.3c8.7,10.4,14.2,23.4,21.7,34.8c6.4,9.8,11,20.7,20.5,28.5
	c5.9,4.8,11.4,7.8,19.5,6.5c12.9-2,26.1-2.8,39.2-3.7c4.1-0.3,7.4-1.2,7.7-5.7c0.8-12.8,8.4-23.2,11.9-35.1c2.9-10,6.6-19.9,9.3-30
	c5.3-20.4,15.2-38.1,29.9-53.1c11.7-11.9,23.5-23.8,35.6-35.3c5.4-5.1,11.4-9.8,17.6-14c15-10,29.9-20.2,45.5-29.2
	c11-6.3,23-11.1,34.7-16.1c9.9-4.3,19.9-8.7,30.2-11.7c22.3-6.5,44.6-13.8,67.5-17.5c21.8-3.6,44.399-3.5,66.6-4.2
	c18-0.5,36-0.1,53.9,0.7c19.6,0.8,39.2,2.2,58.8,3.7c15.7,1.2,31.3,3,47,4.6c6.2,0.6,12.4,1.4,18.6,2.3
	c28.801,4.5,57.601,8.8,86.2,13.8c11.9,2.1,23.601,5.7,35.3,8.6c1.9,0.5,3.801,1.2,5.7,1.4c14.8,1.2,28.4,6.8,42.3,11.4
	c18,6,36.4,11,54.601,16.6C949.4,116.3,955.6,118.6,963.1,121.2z"/>
<path fill="#ED1C24" d="M932,126.6c-1.3,7.2-6.7,10.5-11.1,14.6c-4.101,3.7-8.2,7.3-11.9,11.4c-5.7,6.3-10.7,13.2-16.5,19.4
	c-7.7,8.1-14.5,16.8-20.7,26.1c-4.899,7.4-4.7,14.8-0.6,22.1c4,7.1,8.6,13.9,12.899,20.8c0.7,1.1,1.601,2.1,2.5,3
	c19.101,17,36.101,36.2,57.101,51.1c3.8,2.7,6.5,7.3,9.2,11.4c5.8,8.6,11.3,17.5,17.5,27.1c-2.801,3.1-5,6.9-8.301,9.2
	c-16.3,11.4-31.3,24.6-49.3,33.6c-10.399,5.2-19.3,13.2-29.1,19.7c-5.2,3.4-6.101,7.7-5.2,13.5c1.9,12.2,6.3,23.4,11.6,34.4
	c1.7,3.5,3.2,7.2,5.2,10.5c4.9,8.1,9.601,16.1,16.2,23.3c14.4,15.7,28.5,31.7,41.1,48.8c8.2,11.101,17.4,22.2,19.4,38
	c-4.4,0.301-8.8,0.601-13.2,0.801c-9.399,0.5-19.1,2.3-28.3,0.899c-9.3-1.5-17,4.2-25.8,3.2c-0.9-0.1-2.101,0-2.9,0.4
	c-10.6,6-22.899,5.399-34,9c-19.899,6.5-40,12.3-57.6,24.5C797.4,612.3,787.5,623.8,778,635.8c-14.1,17.9-14.8,39.101-14.1,60.3
	c0.1,4.7,3.8,9.801,7.1,13.601c4.8,5.6,10.9,10.1,16.1,15.399c8.7,8.9,16.9,18.301,25.5,27.101c10.5,10.8,14.101,25.3,22,38.2
	c-2.199,1.3-4,2.699-6,3.6c-14.3,6.3-27.8,14.3-39.899,24c-16.7,13.5-28.9,31.1-40.601,49c-5.8,8.9-9.899,18.4-12.5,28.6
	c-1.1,4.5-3.199,8.601-8.8,10.2c-1.5-2.1-3.2-4-4.3-6.3c-7.7-16.8-20-30.6-29.8-46.1c-9.101-14.4-18.4-28.601-28.2-42.5
	c-5.8-8.301-12.6-15.9-19.3-23.5C637.3,778.2,629.1,769.3,621.1,760.3c-3.699-4.1-6.899-8.8-11.1-12.399
	c-23.9-21.4-45.8-45.101-71.8-64c-4.2-3.101-7.6-7.2-11.6-10.601C505.7,655.5,483.9,638.9,461,623.9c-3.3-2.2-7.3-3.2-10.899-4.801
	c0.199-0.699,0.399-1.5,0.6-2.199c3.3,0.699,6.8,0.899,10,2.1c14.4,5.4,28.5,11.6,43,16.5c12.3,4.1,24.8,9.3,38.2,7.9
	c12.1-1.301,23.7-4.7,33.3-12.801c1.7-1.399,3.6-2.899,5.7-3.699c12.6-4.5,21.2-13.7,28.899-24.101c2.9-3.899,6.7-7.2,9.601-11.2
	c7.5-10.1,12.6-21.3,15.8-33.5c1.4-5.399,3.5-10.6,5.3-15.8c1.9-5.399,6.7-7.2,11.5-8.2c9.6-2.1,19.4-3,28.9-5.3
	c18.8-4.6,38.399-3.8,56.899-10.1c8.5-2.9,18-3.3,27.101-4.4c10.399-1.2,20.899-1.7,31.3-2.7c1.6-0.1,3.1-0.699,4.7-1.1
	c0.3-3.8,0.7-7.4,1.1-11.9c-2.9,0-5.4-0.199-7.8,0c-17.1,1.601-33.9,0.101-50.6-3.6c-2.5-0.6-5.2-1-7.801-0.9
	c-13.3,0.4-25.899-3.3-38.6-6c-4.5-0.899-9.1-1.399-13.6-2.199c-12.801-2.2-25.301-5.4-36.801-12.2c-0.6-11.2,4.601-20,11.101-27.8
	c5.399-6.5,11.899-12,14.5-20.7c0.5-1.7,3.8-3.3,6-3.8c14.7-3.101,29.6-5.601,44.3-8.7c18.2-3.9,36.3-8.3,54.5-12.101
	c5.1-1.1,10.4-1,15.6-1.3c5-0.2,8.7-2.2,10.9-6.8c-7.8-5.1-16.3-6.6-25.4-6.6c-6.8,0-13.5-1.5-20.3-2.2c-9.8-0.9-19.6-2.6-29.3-2.2
	c-9.6,0.4-17.8-3.4-26.5-5.9c-6.3-1.8-12.1-4.9-18.2-7.4c-6-2.4-8.8-6.8-10.3-13.2c-3.2-14-6.6-28-11.1-41.7
	c-6.301-19-17.4-35-32.4-48.4c-11-9.8-21.7-19.7-35.2-26.4c-10.7-5.3-16.2-15.7-19.3-26.4c-4-13.8-11.9-25.1-21.3-35
	c-6.5-6.9-15.8-11.6-24.601-15.8c-14.8-7.1-30.699-11-47-13.3c-7.1-1-14-3.5-21-5.1c-16.699-3.8-33.399-6-50.399-0.7
	c-15.3,4.8-30.8,8.8-46.2,13.2c-2.5,0.7-4.9,1.8-7.3,2.7c-7.9,3-15.9,6-23.8,9.2c-2,0.8-4.2,1.7-5.8,3.2
	C318,179.6,308,188.9,297.6,197.8c-2.1,1.8-5.3,3.2-8,3.1c-20.6-0.5-36.7,10.2-53,20.8c-2,1.3-4.4,2.1-7.4,3.6
	c0.4-9.2,6-14.8,9.7-21c4.5-7.4,10.5-13.9,15.6-21c7.9-10.9,17.4-20.1,28.2-27.9c9.5-6.8,18.7-14.3,28.6-20.5
	c10.9-6.8,22.7-12.1,34.9-16.6c17.7-6.7,34.8-15,51.7-23.5c18.7-9.5,37.7-18.2,57.9-23.8c12.199-3.4,25-5.2,37.699-6.2
	c19.9-1.5,40-2,59.9-2.4c11.1-0.2,22.2,0.4,33.3,1.1c7.5,0.4,14.9,1.8,22.4,2.3c4.5,0.3,9.1-0.5,13.7-0.7
	c16.5-0.8,32.3,4.2,48.5,5.5c10.5,0.9,20.899,2,31.3,3.1c7.2,0.8,14.3,1.6,21.399,2.6c12.801,1.9,25.5,3.8,38.301,5.9
	c4.8,0.8,9.3,2.6,14.1,3.4c5.1,0.9,10.3,1.1,15.4,1.7c2.199,0.2,4.5,0.3,6.699,0.8c15.9,3.7,31.9,7.2,47.7,11.4
	c11.8,3.2,23.8,5.2,35.2,10.7c8.9,4.3,19.4,5.6,29.4,7.3C919.2,118.5,926.2,121,932,126.6z"/>
<path fill="#FFFFFF" d="M332.7,212.2c1.6-5.5,1.6-5.5-11.2-12.5c5.7-10.2,13.1-18.2,24.7-21.7c1.2-0.4,2.5-0.8,3.6-1.5
	c15.7-9.5,33.601-12.6,50.7-18.2c19.3-6.3,38.9-4.7,58.5-1.6c17.8,2.8,35.5,5.4,52.7,11.5c24.7,8.8,41.8,24.9,53.1,48
	c8.601,17.6,12.5,36.4,14.4,56.2c4.5-0.5,6.1-3.4,6.8-7.1c0.6-3.5,1-7,1.6-10.6c11.101-1.5,19.7,2.6,26.7,9.1
	c10.3,9.6,20,19.8,29.3,30.3c3.301,3.8,4.801,9.2,6.9,14c7.4,17.2,13.2,34.6,12.2,54c-0.601,11.7,1.399,23.5,3.2,35.2
	c3.1,20.4-6.4,32.8-19.2,42c-4.3,3.101-11.2,2.7-17.2,4c-1.9-7-6.5-7.3-13.5-5.3c2.7,8.4,4.4,16.8,8.1,24.3
	c4.5,9.101,6.2,18.601,7.2,28.3c1.8,17.7-0.399,35.4-3.1,52.9c-0.8,5-3.601,9.8-5.8,14.5c-4.2,8.9-8.7,17.6-12.9,26.5
	c-4.8,10-11.8,18.4-21,24.2c-13.4,8.399-28.2,14.2-44.2,15.3c-4.8,0.4-9.8-0.3-14.6-0.9c-4.9-0.6-9.7-2-14.601-2.3
	c-19.699-1.2-37.5-9.2-55.699-15.5C446.8,601,444.6,592.9,451.7,581.6c1-1.5,1.5-3.3,0.899-6.399c-1.8,1.3-4,2.399-5.5,4
	c-8.8,10-19.699,17.399-31.1,23.7c-14.2,7.8-30.1,8.6-45.8,5.199c-16.4-3.5-30.7-10.8-42.2-23.5c-7.7-8.5-16.1-16.199-24.1-24.5
	c-2.9-3-5.1-6.699-8-9.699c-2.2-2.301-5.3-2.9-7.9-0.301c-2.9,2.9-0.9,5.301,1.1,7.7c3.1,3.7,6.2,7.5,9.9,12c-3,1.3-4.9,2.7-6.9,2.8
	c-30.6,1.4-58.9-4.3-80.5-28.199c-8.2-9-13.4-20-15.7-32.101c-1.5-8-3.1-15.899-3.8-24c-0.4-4.7,1.1-9.6,1.6-13.6
	c17.8-0.5,34.6-1,51.4-1.5c1.3,0,2.7,0.1,3.8-0.4c18.2-7.399,35.9-16,51.4-28c11.5-9,23.799-18.3,29.5-32.1
	c9.3-22.4,13.5-45.6-1.899-67.5c-5.101-7.2-11.9-13-17.7-19.7c-2.2-2.5-3.9-5.5-6.3-9c11.5-6,21.3-12.4,32.1-16.4
	c13.2-4.9,27.3-6.7,41.4-2.4c2.899,0.9,6.6,2.6,7.8,5c4.1,7.7,10,14.8,10.1,24.3c0.101,5.8,0.2,11.6,0.3,17.4c0,2.2,0,4.3,0,6.4
	c6.2,1.4,9.5-1.5,12.301-5.4c4.399-6.1,8.3-12.8,13.399-18.1c7.2-7.5,15.5-14,23.3-21.1c2.4-2.2,4.5-4.8,6.7-7.1
	c6.4-6.7,6.2-14.2,2-21.8c-8.399-15.2-20.1-27.2-35.8-34.9c-10.3-5-20.7-9.6-31.2-14.2c-10-4.3-16.6-0.4-21.3,6.5
	c-2.8,4-5.2,8.3-7.6,12.7c-5,9.2-9.4,18.8-17.601,25.8c-0.7,0.6-1.8,1.3-2,2.1c-6.399,18.3-25.1,21.8-38.4,31.7
	c-4.4,3.3-10.1,3.1-15.9,1.1c-8.3-2.9-17-4.8-25.6-6.5c-3.7-0.7-7.7-0.1-11.6,0.2c-12.1,0.8-24.2,1.8-36.3,2.5
	c-2.5,0.1-5-0.8-8.4-1.4c0.9-4.8,1-9.2,2.6-12.9c5.3-12.6,9.3-25.7,16.5-37.5c7.9-13,20.6-19.8,32.9-27.2c3.4-2,6.7-4.1,10.2-6
	c2.9-1.5,5.8-3.7,8.9-4.1c13.5-1.7,27.1-3.1,40.7-4C319.7,211,326.2,211.9,332.7,212.2z"/>
<path fill="#FFFFFF" d="M232.5,313.1c10,0.3,17.8,1.2,25.4,0.6c18.4-1.3,32.8,7,45.6,18.6c6.5,5.9,12,12.9,17.4,19.9
	c7.3,9.4,8.199,20.4,6.399,31.8c-2.2,13.8-6.5,26.6-16.6,36.8c-9,9-17.6,18.3-29.7,23.4c-3.8,1.6-7,4.8-10.6,7.2
	c-19.3,13.1-39.5,11.5-59.9,3.3c-2.6-1.101-5.1-3.101-7-5.2c-9.9-11.3-20.6-22.1-25.6-36.7c-6.9-20-11.7-39.5-0.3-60.2
	c8-14.4,18-25.2,33.3-31c3.3-1.3,6.5-3,9.9-4.3C225.3,315.4,229.8,314,232.5,313.1z"/>
<path fill="#FFFFFF" d="M178.1,328.1c-3.9,7.1-7.1,13.5-10.8,19.7c-7.5,12.5-12,25.4-5.9,39.9c0.2,0.6,0.4,1.3,0.4,1.9
	c0.1,16.5,5.4,31.5,13.3,45.7c0.3,0.5,0,1.3,0,2.601c-1.1,0.6-2.4,1.8-3.8,2c-26.3,3-39.7,0.399-54-21.9c-3.9-6-6.4-12.9-9.8-19.3
	c-5-9.5-5.1-19.6-4-29.8c0.6-5.8,2.2-11.6,3.5-17.3c1.9-8.4,6.7-15.5,13.8-19.6c9.3-5.4,19.2-10.1,29.5-13
	C160.4,316.3,170.4,318.6,178.1,328.1z"/>
<path fill="#000000" d="M523.4,554.5c-3.4,3.1-6.801,5.4-11.9,2.1c-2.3-1.5-5.5-2.1-8.4-2.5c-15.5-2.3-31-4.6-46.5-6.5
	c-20.899-2.6-40.899-8.699-61.1-14c-6.9-1.8-14.2-2.5-21-4.5c-8.3-2.399-8.8-3.6-8-11.899c0.9-9.101,1.6-18.2,3.1-27.2
	c0.601-3.7,2.101-7.8,4.4-10.6c5.1-6.101,10.1-6.601,17.4-2.7c8.899,4.8,17.5,9.899,26.3,14.7c14.5,7.899,29.2,15.5,43.7,23.399
	c12,6.601,23.8,13.5,35.899,20c6,3.2,12.3,6,18.7,8.4C521.5,545.3,524.5,548.2,523.4,554.5z"/>
<path fill="#000000" d="M220.1,392.4c0.2,8.4-5.5,16.5-11.9,16.9c-8.3,0.5-17.1-8.5-17.3-17.6c-0.2-8.3,5.1-12.6,16-13.1
	C214.3,378.3,219.9,384.1,220.1,392.4z"/>
<path fill="#000000" d="M117,381.4c0.1-8.4,6.5-12.6,12.8-9.7c4.8,2.2,9.4,4.7,11.5,10.1c3.1,8.3-4.5,18.601-13.1,17.3
	c-1.5-0.199-3.2-1.199-4.1-2.3C120.1,391.9,117.5,386.3,117,381.4z"/>
</svg>
