<svg xmlns="http://www.w3.org/2000/svg" xml:space="preserve"
	 width="1000" height="100"
	 viewBox="0 0 1000 100">
<path class="range" fill="#222222" d="M1000,0v41.2c-1.3,1.9-2.6,2.6-3.9,3c-10.8,3.8-22,5.3-33.4,5.4c-2.3,0-4.5-0.6-6.8-0.6c-6.7,0-12.3,3.1-17.2,7.1
	c-6.4,5.3-13.4,9.5-20.5,13.6c-1.3,0.8-2.9,1.1-4.4,1.5c-8.8,2.2-17.3,2.6-25.8-1.5c-5.3-2.6-11.1-4.3-16.7-6.2
	c-3.2-1.1-6.1-0.5-8.9,1.8c-6,4.8-12.5,8.8-19.6,11.7c-2.8,1.2-5.9,1.9-8.9,2.5c-7.4,1.4-14.8,1.5-22.3,0c-7.9-1.6-15-4.6-21.8-8.5
	c-6.6-3.8-13.1-3.6-19.1,0.9c-6.2,4.7-12.6,9.1-19.4,12.7c-4.2,2.2-8.5,4.3-13.7,4.5c-5.7,0.2-11.4,0.7-17.1,0.6
	c-5.3-0.1-10.4-1-15.5-2.1c-8.9-2-17.5-4.9-25.3-9.6c-5.5-3.3-10.9-6.9-16-10.8c-4.4-3.4-8.7-3.6-13.3-1.5c-2.6,1.3-5.3,2-8.1,2.5
	c-3.4,0.6-6.7,1.5-10.1,2c-2.3,0.3-4.7,0.5-7.1,0.3c-6.9-0.6-13.7-2.2-20.3-4.2c-5.8-1.8-11.3-1.7-17,1.1
	c-7.2,3.6-14.1,7.4-20.4,12.3c-1.5,1.1-3.3,1.8-5.1,2.4c-4.7,1.6-9.2,4-14.3,4.2c-2.8,0.1-5.6,1.3-8.4,1.4
	c-9.7,0.4-19.4,0.2-29.2-1.2c-8.4-1.2-15.9-4.1-22.9-8.5c-5.3-3.4-10.1-7.5-14.8-11.6c-2.5-2.2-5.2-2.6-8.2-2.9
	c-4.5-0.4-9-0.8-13.5-1.2c-0.9-0.1-1.9-0.4-2.7-0.9c-5.2-3.4-10.3-2.3-15.7-0.5c-6.7,2.2-12.1,6.5-17.5,10.8c-3,2.4-6.2,4.4-9.2,6.7
	c-1.6,1.2-3.3,2.4-4.8,3.7c-3.8,3.5-8.6,4.9-13.1,7c-8.4,3.9-17.5,4.6-26.3,6.6c-13.9,3.3-28.1,3.5-42.2,2.7
	c-6.6-0.4-13.1-2.2-19.3-4.9c-7.1-3.1-13.1-7.8-19.7-11.6c-5.6-3.2-11.1-6.6-16.9-9.3c-5.1-2.4-10.5-1.9-15.6,0.5
	c-2.1,1-4.1,2.4-6.2,3.5c-4.6,2.5-9.3,4.8-14.5,5.9c-3.1,0.7-6.1,2.4-9.2,2.7c-5.8,0.5-11.7,0.8-17.4,0.4
	c-7.8-0.5-15.7-1.3-23.4-2.8c-5.2-1-10.3-1.8-15.6-2c-6.5-0.2-12.8,0.8-18.9,3.3c-6.4,2.6-12.9,5.3-19.8,5.6
	c-4.1,0.2-8.3-0.2-12.5-0.4c-5.3-0.2-10.4-1-15.4-2.9c-4.3-1.6-8.8-3.1-13-5c-7.6-3.5-15.5-5.4-23.9-4.7c-2,0.2-4-0.1-6-0.2
	c-1.1,0-2.1,0.3-3.2,0.2c-3.4-0.1-6.9,0.1-10.3-0.6c-4.5-0.9-9-2.4-13.4-3.7c-5.8-1.6-10.4-5.2-14.6-9.3c-2.8-2.7-7.8-7.3-10.7-10
	L0.1,0H1000z"/>
<path class="slope" fill="#FFFFFF" d="M0,0v40.1c1.3,0.8,2.6,1.1,3.1,1.7c2.8,2.9,4.4,6.5,5.5,10.3c2.7,9.2,8.7,15.3,17.7,18.2
	c9.3,2.9,18.9,4.1,28.6,1.6c6.3-1.6,11.8-4.9,17.2-8.5c8.4-5.6,15.8-12.2,23.3-18.9c0.9-0.8,1.7-2.2,3.6-0.5
	c-0.7,0.8-1.4,1.7-2.2,2.5c-5.5,4.9-11.2,9.7-16.5,14.8c-2.7,2.6-5,5.7-5.9,9.6c-0.3,1.4-0.2,2.3,0.8,3.2c0.9,0.8,1.8,1.6,2.8,2.2
	c10.4,6.4,21.7,9.8,34,9.4c4.9-0.2,9.9,0.2,14.6-0.7c9.8-1.9,19.6-4.2,28.5-8.9c0.8-0.4,1.7-0.8,2.9-1.3c-1.8-4.2-6.8-6.4-7.2-11.2
	c0.2-0.2,0.5-0.4,0.7-0.6c0.8,0.6,1.6,1.2,2.2,1.9c8.5,9.8,19.4,14.6,32.1,15.9c6.6,0.7,13.3,1.7,20,1.1c11.1-1,22-2.8,31.7-9
	c4.1-2.6,8.5-4.9,12.6-7.5c2.7-1.7,4.2-4.2,3.5-7.6c-0.4-1.9-0.9-3.7-1.2-5.6c-0.1-0.7-0.1-1.3-0.1-2c2.1-0.6,2.4,0.9,3,2
	c1.6,2.9,2.9,6,4.7,8.8c2.4,3.7,5.3,7,9.4,9.1c1.3,0.7,2,2.3,3.2,3.2c3.5,2.5,6.9,5.1,10.6,7.3c5.3,3.2,10.8,6,16.3,8.9
	c7.5,4,15.7,5.3,24.1,5.8c14.8,0.8,29-2.1,43-6.2c7.1-2.1,14.1-4.4,21.1-6.9c3-1.1,5.7-3,8.6-4.3c5.9-2.7,11.2-6.2,16.1-10.4
	c2.9-2.5,6.1-4.6,9.2-6.8c5.2-3.6,9.1-8.3,12.3-13.8c4.5-7.8,9.1-15.7,13.7-23.5c0.9-1.6,0.9-1.6,3.1-1.5c-0.9,4-2.3,7.8-4.6,11.1
	c-3.7,5.4-3.9,11.6-4.6,17.8c-0.2,2.2,1.4,3.3,3,4c6.3,2.5,12.7,4.1,19.9,1.8c0.3-3.5,0.7-7.1,1-10.9c1.8,0.4,1.7,2,2.2,3
	c1.9,3.8,3.4,7.9,5.7,11.5c3.9,5.9,9.3,10.2,15.7,13.3c8.6,4.1,17.6,7.6,27,9.3c12.8,2.4,25.7,1.9,38.3-1.7
	c3.7-1.1,7.4-2.7,10.8-4.7c7.8-4.4,15.4-9.1,23.1-13.7c7.1-4.2,12.4-10.4,17.6-16.6c0.9-1.1,1.8-2.2,2.9-3.5c1.3,1.8,0.9,3.1,0,4.3
	c-1.7,2.3-3.4,4.6-5.1,6.9c-0.8,1.1-1.5,2.1-2.2,3.3c-1.1,2.1-0.8,2.7,1,4.2c3.4,2.7,7.5,2.8,11.4,3.7c4.1,0.9,8.2,1.4,12.4,1.8
	c2.8,0.2,5.8,0.3,8.5-0.5c5.7-1.8,11.1-4.2,16.7-6.3c1.8-0.7,2.9-2.1,3-4.1c0.2-2.4,0.6-4.7,0.7-7.1c0.1-3,0.6-5.9,3-8.5
	c0.9,1.5,1.2,2.8,0.9,4.4c-0.9,4.3,0.2,8.1,2.2,12c3.8,7.2,9.7,12.2,16.3,16.6c7.7,5.2,16.6,7.7,25.2,10.7c4.9,1.7,9.9,2.8,15.1,2.7
	c8.3-0.2,16.3-1.5,24.3-4.1c7.8-2.5,15-6.2,21.8-10.6c1-0.6,1.9-1.4,2.8-2.2c2.6-2.3,5-4.7,7.7-7c1.2-1,1.9-2,2.1-3.5
	c0.5-3.6,0.8-7.1-0.4-10.6c-0.1-0.5-0.4-1-0.3-1.4c0.2-0.6,0.6-1.2,0.9-1.8c0.6,0.3,1.4,0.5,1.6,1c0.7,1.4,1,2.9,1.7,4.3
	c1.6,3.3,3,6.7,4.9,9.9c3.8,6.4,10,9.7,16.8,12c8.8,2.9,17.7,4.6,27.1,3.8c4.6-0.4,8.5-2.3,12.5-4.2c5.8-2.8,11.5-5.7,17-9.1
	c3.5-2.2,6.8-4.9,9.7-7.9c3.4-3.5,6.3-7.5,9.4-11.2c3-3.5,6.1-7,9.3-10.3c0.9-0.9,1.9-2.2,3.6-1.4c0.6,1.5-0.5,2.3-1.2,3.2
	c-4.6,5.6-9.3,11.1-13.9,16.7c-0.9,1-0.9,2-0.4,3.3c0.9,2.2,2.6,3.8,4.5,5c7.8,4.9,16.2,8.1,25.6,7.9c6.7-0.1,12.6-1.9,17.8-6.4
	c2.4-2.1,5.3-3.7,8-5.4c4.6-2.9,9.2-6.1,12-10.9c2.2-3.7,2.1-4.1-0.8-7.1c-3.2-3.3-5.8-6.9-6.7-11.6c-0.1-0.4-0.2-0.7-0.3-1
	c-0.1-1.1-0.4-2.4,1-2.7c1.4-0.3,2.4,0.3,2.7,2c1.2,6.3,5.6,10.6,9.9,14.8c5.3,5.3,12.2,5.5,19,5.4c3.3-0.1,6.6-0.8,9.9-1.2
	c4.3-0.5,8-2.3,11-5.4c2.4-2.5,9.3-8.8,11.6-11.3V0"/>
</svg>
