<?xml version="1.0"?>
<!-- 24.1.29 valle -->
<svg xmlns="http://www.w3.org/2000/svg" xml:space="preserve"
	 width="1000" height="100"
	 viewBox="0 0 1000 100">
<rect opacity="0" width="1000" height="100"/>
<path fill="hsl(212, 20%, 65%)" d="M712.9,97.8c-6.601,0.9-13-1.1-19.301-3.8c-2.699-1.1-5.5-1.9-8.3-2.6c-0.899-0.2-1.899-0.101-2.8,0.1
c-4.9,1.1-9.6,0.8-14.1-1.5c-1.4-0.7-2.801-1.2-4.2-2c-4.4-2.4-7-8.2-5.5-12.9c0.5-1.6,1.5-3.199,3.3-3.899c3-1.101,6.1-2,9.3-1.7
c3.2,0.2,5.9-1,7.9-3.5c2.2-2.8,5.399-3.7,8.6-4.3c4-0.7,7.4-2.101,10.9-4.2c3.8-2.3,8-4.3,12.6-5.1c4.3-0.7,8.601-1.601,12.9-2.2
c6.5-0.9,11.7,1.7,15.8,6.7c2,2.399,3.9,4.8,4.7,7.899c0.2,0.7,0.5,1.3,0.5,2c0.1,7.2-0.9,14-5.601,20c-4,5.101-9,8.101-15.3,9.601
C720.5,97.4,717,97.7,712.9,97.8z"/>
<path fill="hsl(212, 20%, 65%)" d="M573.1,60.4c0.601,5-0.8,8.699-3.399,11.8c-1.5,1.8-4.2,2.6-6.2,4c-2.7,1.8-5.9,1.399-8.8,2c-2.9,0.6-6,0.6-8.9,0.6
c-3-0.1-5.899-0.5-8.899-0.8c-0.4,0-0.801,0.1-1.101-0.1c-3.899-2.301-7.6-0.4-11.1,1C520,80.8,515.3,81,510.5,80
c-0.9-0.2-2-0.5-2.7-1c-3.1-2.3-6.6-2.3-10.2-2.3c-4.6,0-9-0.4-12.899-3.4c-2.9-2.2-3.5-5.1-0.9-7.6c2-1.9,4.5-3.3,6.9-4.601
c3.2-1.699,6.2-3.399,8.6-6.199c2.101-2.4,4.5-4.5,7.8-5.3c1.7-0.4,3.2-0.4,4.801,0.3c1.6,0.7,3.3,1.2,4.8,2
c1.899,0.899,3.5,0.5,4.899-1c1-1.101,2.101-2,3.101-3.101c1.7-2,4.1-2.6,6.5-2.6c2,0,4,0.4,6,0.8c3.3,0.8,6.5,2.2,9.899,1.8
c1.801-0.2,3.7-0.4,5.4-0.8c5.6-1.3,10.3,0.4,14.4,4.1c1.399,1.2,2.699,2.5,3.899,3.9C572.8,57.1,572.9,57.6,573.1,60.4z"/>
<path fill="hsl(212, 20%, 65%)" d="M57.3,86.4c-2.4,0.6-4.7-0.2-7.1-1.5c-2.3-1.301-5.1-1.7-7.7-2.2c-0.9-0.2-2.2,0.1-3,0.6c-3.6,2.4-7.7,2.9-11.9,3.2
c-1,0.1-1.9,0-2.9,0.2c-4.2,0.6-8-0.7-11.7-2.5c-1.6-0.8-3.3-1.8-4.5-3.101c-3.1-3.3-3.6-7.3-2.3-11.6c0.7-2.3,2.2-3.5,4.6-3.9
c1.2-0.199,2.5-0.3,3.7-0.5c2.3-0.5,4.3-1.199,5.7-3.399c2.7-4.2,6.5-7.4,10.6-10.2c2.6-1.7,5.5-2.6,8.5-2c4.5,0.9,8.5-0.5,12.6-2.1
c3.7-1.4,7.5-2.7,11.4-3.3c3.3-0.5,6.8-0.2,10.1,0.4c5.9,1.2,11.5,3.4,15.8,8c1.4,1.5,2.8,2.9,3.9,4.6c1.4,2.2,1,4.7,0.5,7.101
c-1.3,6.8-5.4,11.8-11,15.7c-3.2,2.3-6.8,3.6-10.6,4.5C67.3,85.4,62.6,86.6,57.3,86.4z"/>
<path fill="hsl(212, 20%, 65%)" d="M963.5,86.4c-7.6,0.699-14.5-1.5-21-5.2c-1.3-0.8-2.8-1.4-4.2-2c-2-0.9-3.8,0.3-5.5,1.1c-1.5,0.7-2.899,0.9-4.399,1
c-4.101,0.3-8.101-0.3-11.9-1.8c-3.4-1.4-5.6-5.3-5-9c1-5.5,4.7-8.9,10.2-10.1c2.399-0.5,4.8-0.601,7.2-0.101
c1.8,0.4,3.399,0.101,4.699-1.399c1.101-1.2,2.301-2.301,3.5-3.5c2.801-2.801,6.2-4.4,10.2-4.101c3,0.2,5.4-1.3,7.9-2.3
c1.8-0.8,3.399-2.2,5.1-3.2c3.8-2.3,7.8-4.2,12.5-3.7c2.3,0.2,4.8-0.1,6.9,0.6c5.7,1.9,11.2,4.5,13.2,10.7
c2.3,7.1,2.699,14.199-2.4,20.3c-2.6,3.1-5.6,5.8-9.6,7.2c-0.4,0.1-0.801,0.3-1,0.5c-4.5,3.5-9.7,4.6-15.2,4.699
C964.2,86.3,963.9,86.4,963.5,86.4z"/>
<path fill="hsl(212, 20%, 65%)" d="M278.2,33.6c-0.4,1.7-0.7,3.9-1.5,5.8c-2,4.5-4.6,8.7-8.8,11.6c-0.7,0.5-1.5,0.9-2.3,1.2c-2.7,0.899-5.4,1.3-8.3,0.899
c-3-0.399-6.1-0.3-9.2-0.399c-3-0.101-5.8-0.7-8.1-2.6c-1.9-1.5-4.2-1.5-6.4-1.4c-3,0.1-5.9,0.6-8.9,0.7c-4.4,0.2-8.5-0.9-11.9-3.6
c-4.2-3.3-4.3-8.9-0.3-12.6c2.1-2,4.9-2.6,7.5-3.6c1-0.4,2.2-0.6,2.9-1.3c2.3-2.4,5.4-2.8,8.3-3.4c2.9-0.6,5.9-1.1,8.9-0.6
c1.6,0.3,3.2-0.1,4.3-1.2c2.7-2.5,6.1-3.7,9.1-5.5c1.6-0.9,3.3-1.6,4.9-2.5c4.1-2.2,10.5,0.6,12.7,3.7c0.7,0.9,1.4,1.9,2.2,2.7
C276.7,24.3,277.5,29.3,278.2,33.6z"/>
<path fill="hsl(212, 20%, 65%)" d="M881.7,68.5c-0.2,4.7-0.601,8.5-2.9,11.9c-3.1,4.6-8.2,6.8-13.6,5.699c-1.601-0.3-3.2-0.899-4.8-1.199
c-3.2-0.5-6.301-1.101-9.7-0.2c-4,1.1-8,0.2-12-1c-1.9-0.601-4-0.7-5.9-1.2c-3.8-1-7.7-0.2-11.5-0.3c-4.3-0.101-7.399-2-10.1-5.3
c-1.5-1.801-2.101-3.7-1.8-5.801c0.5-3.399,3.5-7.699,8-8c0.699,0,1.699-0.1,2.199,0.301c2.801,1.8,5.301,0.6,7.5-1
c4-2.7,8.2-4.301,13-3.7c2.5,0.3,4-0.8,5.601-2.4c2.2-2.2,4.399-4.3,6.7-6.4c2.199-1.9,4.899-2.7,7.8-2.4c4,0.3,7.5,1.6,10.399,4.5
c3.4,3.4,6.601,7.1,9,11.3C880.7,65.2,881.2,67.2,881.7,68.5z"/>
<path fill="hsl(212, 20%, 65%)" d="M209,72c-0.3,3.3-0.8,6.5-3.3,9c-3.2,3.2-6.5,6.4-11.3,6.9c-3.3,0.399-6.5,0.5-9.7-0.801c-1.9-0.699-3.9-1.199-5.8-1.899
c-2.7-0.9-5.1-0.5-7.5,0.8c-1.7,0.9-3.5,1.7-5.2,2.6c-2.7,1.4-5.5,1.4-8.4,0.5c-2.9-0.899-5.7-2.399-8.9-2.199
C147,87.1,145,87.1,143.1,87.1c-3.1-0.1-6.2-0.3-8.9-1.899c-6-3.7-6.7-8.4-4.5-13.9c1.7-4.2,4.8-7.2,9.2-9
c3.1-1.3,5.8-3.399,8.6-5.3c5.1-3.2,10.4-5.1,16.3-2.3c1.2,0.6,2.3,1.399,3.3,2.3c1.4,1.1,3,1.2,4.6,1c4.9-0.7,9.8-0.9,14.7-0.6
c2.8,0.199,5.5,0.699,8.3,1.3c4.3,0.899,7.7,3.399,11,6.1C208,66.6,209.1,69,209,72z"/>
<path fill="hsl(212, 20%, 65%)" d="M422.7,42.8c3.2-0.7,6.1-1.4,9-2c4.6-0.9,8.6,0.2,12,3.6c1.5,1.5,3.2,2.8,4.6,4.4c1.101,1.2,1.9,2.601,2.7,4
c1.5,2.9,0.2,5.5-1.2,7.9c-1.2,2-2.8,3.7-4.2,5.5c-1.5,1.899-3.699,2.7-5.8,3.6c-2.2,0.9-4.5,1.7-6.8,2.5
c-6.4,2.601-13.2,3-19.9,2.101C409,73.9,405,72.5,402,69.3c-2.1-2.3-5.2-2.399-8-2.899c-2.3-0.5-4.6-0.7-6.8-1.301
c-4-1.1-5.7-4.1-4.9-8.199c0.4-2.101,0.8-4.101,2.101-6c2.3-3.5,5.6-4.7,9.5-4.101c2.199,0.3,3.8,0,5.199-1.6
c2.4-2.7,5.5-4.3,8.601-5.8c5-2.6,9.6-2.8,13.7,1.8C421.6,41.7,422.1,42.2,422.7,42.8z"/>
<path fill="hsl(212, 20%, 65%)" d="M337.5,58.8c-0.8-0.1-2.3-0.1-3.9-0.3c-2.699-0.4-5.199-0.1-7.6,1.1c-3,1.4-6.1,1.601-9.3,1.601
c-4.5-0.101-9-0.601-13.6-0.8c-2.2-0.101-4.5,0.199-6.6,0.699c-4.3,1.101-8.5,0.7-12.4-1.199c-2.9-1.4-5-3.601-5.3-7.101
c-0.3-3.3,1.2-5.8,4.5-6.8c1.8-0.6,3-1.5,3.9-3.1c2.5-4,5.6-7.6,9.6-10.3c2.9-2,6.2-3.2,9.5-4.3c2.101-0.7,4,0,6,0.4
c6.3,1.3,12.3,3.4,18.2,5.8c1.2,0.5,2.8,0.3,4.2,0.3c1,0,2.1-0.3,3.1-0.4c2.5-0.4,4.7,0.3,6.7,2c2,1.7,4.4,2.8,6.2,4.6
c4.8,4.8,3.399,9.6-0.8,13.3C346.7,57.2,342.6,58.4,337.5,58.8z"/>
<path fill="hsl(212, 20%, 65%)" d="M130.5,50.6c-1.3-0.1-3-0.3-4.7-0.5c-2.2-0.3-4.4-0.6-6.6-0.8c-2.2-0.2-4.4-0.6-6.3-1.9c-0.8-0.6-2-0.8-3-0.8
c-4.8-0.3-9.3-1.8-13.6-3.7c-3.6-1.6-4.8-5.2-3.3-8.8c1.5-3.8,4-6.4,8.1-7.4c0.5-0.1,1.1-0.4,1.7-0.3c3.7,0.7,6.9-0.8,9.8-2.7
c2.9-1.8,6.1-2.8,9.3-3.9c1.5-0.5,3-0.3,4.5,0.4c1,0.5,2.1,1,3.1,1.5c2,1.1,4.1,1.6,6.3,0.4c0.7-0.4,1.7-0.6,2.5-0.5
c5,0.6,10-0.1,15,1.2c3.4,0.8,6.1,2.4,8,5.2c1.8,2.6,2.1,5.5,0.8,8.4c-1.9,4-4.9,6.7-9.1,8.6c-6.7,2.9-13.7,4.6-20.9,5.5
C131.7,50.5,131.4,50.5,130.5,50.6z"/>
<path fill="hsl(212, 20%, 65%)" d="M656.3,51c-0.1,3.8-0.6,7.5-2.899,10.7c-1.7,2.399-4.2,3.6-6.7,4.1c-2.7,0.5-5.601,0.2-8.101-1.5c-1.1-0.8-2.399-1.3-3.5-2
c-2.6-1.6-5.399-1.8-8-0.399c-2.399,1.3-4.8,0.699-7,0.199c-3.5-0.8-6.699-2.199-9.199-5.1c-1.2-1.5-3.4-1.7-5.301-0.7
c-4.699,2.4-9.399,0.2-12-3.3c-0.699-0.9-1.3-1.9-1.8-3c-1.8-3.7,0.3-7.2,4.4-7.6c1.1-0.1,2.1-0.2,3.2-0.3c1.1,0,1.699-0.5,2.3-1.4
c1.2-1.9,2.6-3.6,4-5.4c0.8-1.1,2-1.5,3.3-1.2c2.7,0.5,5.3,1.1,7.4,3c1.399,1.4,3.3,1,4.899,0.8c4.5-0.6,9-1.2,13.5-2
c2.2-0.4,4.3-0.3,6.3,0.3c4.4,1.1,8.7,2.9,11.9,6.2C655.4,44.6,656.4,47.6,656.3,51z"/>
<path fill="hsl(212, 20%, 65%)" d="M769.8,30.4c1.4-0.4,2.8-0.8,4.101-1.1c3.5-0.7,6.8-1.8,10.199-3.1c4.9-1.9,10.101-2.6,15.4,0.4c4.4,2.4,6.8,5.9,7.7,10.5
c0.5,2.4,0,4.8-1.3,7c-0.7,1.2-1.301,2.6-2,3.8c-3.5,6.3-8.9,9.7-16,10.6c-3,0.4-6,0.5-9,0.3c-4.301-0.2-8.2-1.399-11.601-4.5
c-1.3-1.1-3.8-1.1-5.8-1.2c-3.1-0.199-6.2,0-9-1.699c-2.1-1.2-4.2-2.3-5.7-4.3c-4.1-5.3-0.3-10.7,5-11.3c3.3-0.4,6.101-1.2,8.9-3
C763.3,31,766.4,30.3,769.8,30.4z"/>
<path fill="hsl(212, 20%, 65%)" d="M895.3,47.5c-3.8-0.7-8-1.2-12.1-2.2c-4.7-1.1-4.7-1.2-9.4-0.8c-5.7,0.6-10.6-1.4-15.1-4.7c-1-0.7-1.8-2.2-2-3.4
c-0.8-5.3,3.1-12,9.899-10.4c1.5,0.4,3.101,0.4,4.601,0.6c1.399,0.2,2.6-0.4,3.8-0.9c2.3-0.9,4.7-1.9,7.1-2.1
c2.801-0.2,5-1.2,7.101-2.9c4.8-4.1,10.1-4.8,15.899-2.6c0.301,0.1,0.5,0.2,0.801,0.3c7.699,3.7,8.3,4.5,9.5,12.4
c0.699,4.5-0.601,8.6-5.7,11.6c-0.9,0.5-1.9,0.9-2.8,1.6C903.7,46.6,899.6,46.6,895.3,47.5z"/>
<path fill="hsl(212, 20%, 65%)" d="M484.3,50.9c-5.3-0.5-12-0.4-17.8-4.4c-0.9-0.7-1.7-1.6-2.7-2.1c-2.5-1.3-5.2-1.9-8.1-1.7c-3.101,0.3-6.101,0.2-8.9-1.6
c-2.8-1.9-3.399-4.7-3.2-7.6c0.301-2.8,2.7-4.1,5.101-5.1c0.6-0.3,1.5,0,2.3,0c1.8,0.2,3.5,0,5-1c5-3.3,10.3-3,15.5-0.7
c3.3,1.5,6.5,1.6,9.9,0.7c5.699-1.6,14.5,1.8,17.199,7.8c1.601,3.5,1,8.6-1.8,11.3C493.7,49.3,490.7,50.5,484.3,50.9z"/>


<path fill="hsl(212, 15%, 85%)" d="M40.9,72.7c1.8,0.8,2.5,1.7,2.6,3.3c0.1,1.5,0.4,3.3,1.9,4c2.5,1.1,5.2,2.3,7.9,2.8
c10.5,1.7,20.2-0.3,29-6.399C86.4,73.6,89.1,69.6,90.5,64.8c0.6-2,1-4.1,0-6c-0.9-1.7-2.2-3.2-3.5-4.5c-5.4-5.2-11.9-7.8-19.4-7.6
C65,46.8,62.4,46.8,60,48c-0.8,0.4-1.7,0.4-2.5,0.7c-2.4,0.9-5.4,0.8-7.1,3.1c0.4,1.4,0.8,2.601,1.2,3.9c-1.5-0.3-2.5-1-3.6-1.601
C43.7,51.7,39.1,51,34.6,52.9c-4.5,1.899-8.3,5-11.3,8.899c-1.9,2.5-3.4,5.4-2.7,8.9c0.2,0.8-0.2,1.7-0.3,2.6
c-0.2,0.101-0.5,0.101-0.7,0.2c-0.5-0.7-1.3-1.4-1.5-2.2c-0.3-0.899-0.5-1.899-1.6-2.2c-0.9-0.199-1.9-0.6-2.8-0.5
c-5,0.5-6.9,5.301-3.8,9.5c1.8,2.5,4.5,3.801,7.4,4.301c2.7,0.5,5.4,0.699,8.1,0.6c4.3-0.2,8.5-0.8,12.4-2.6c2.2-1,3.2-2.7,3.3-5
C40.9,74.5,40.9,73.7,40.9,72.7z"/>
<path fill="hsl(212, 15%, 85%)" d="M136,31.5c-0.2,0.1-0.4,0.2-0.7,0.3c-0.3-0.2-0.6-0.4-0.9-0.7c-1.5-1.8-2.9-3.8-4.6-5.5
c-3.3-3.3-8.1-3.5-11.9-0.9c-0.7,0.5-1.5,0.8-2.2,1.3c-1.7,1.1-3.8,1.9-3.3,4.7c0.2,1-1.3,1.6-1.7,0.8c-1-1.9-3-1.7-4.5-2
c-3.1-0.6-6.2-0.3-8.6,2.1c-3,2.8-2.3,7.9,1.5,9.5c2,0.9,4.2,1.6,6.4,1.8c2.1,0.2,4.4,1,6.4-0.3c0.3-1.2,0.6-2.2,1-3.5
c1.2,0.8,1.9,1.3,2.6,1.8c-0.4,3.2,0,4,2.8,5.1c1.5,0.6,3.1,1.1,4.7,1.1c3.8,0.2,7.5,0.2,11.3,0.1c7.2-0.2,13.8-2.7,20.1-6
c1.8-1,3.3-2.4,4.2-4.2c1.7-3.5,1.2-7.3-2-9c-1.6-0.8-3.3-1.5-5-2.1c-4.5-1.6-9.1-1.4-13.8-0.8c-2,0.3-2.3,0.6-2.1,2.6
C135.7,28.9,135.8,30.2,136,31.5z"/>
<path fill="hsl(212, 15%, 85%)" d="M179.6,76.5c0.2,0,0.4,0,0.6,0c0.1,1.1,0.5,2.2,0.3,3.2c-0.6,3-0.2,3.6,2.6,4.5c4,1.2,7.9,1.5,12,0.399
C201,83,204.5,79.2,206,73.4c0.4-1.5,0.1-2.7-0.8-4.101c-1.2-1.7-2.7-2.899-4.4-4.1c-2.3-1.7-5.1-2.3-7.5-3.7
c-3.2-1.8-6.6-2-10.1-1.8c-0.6,0-1.2,0.1-1.7,0.1c-2.8-0.3-5.4,0.5-7.9,1.5c-1.5,0.5-3.2,0.601-4,2.5c-0.4,0.9-1.6,0.4-2-0.6
c-1.2-3.101-3.6-5-6.5-6.5c-4.1-2.101-10.5-0.4-12.8,3.7c-0.1,0.1,0.1,0.3,0.1,0.5c4.1,2.3,4.1,2.3,3.4,4.5
c-0.4-0.2-0.9-0.4-1.2-0.7c-2-1.8-4.3-1.9-6.8-1.4c-5.5,1.101-9.9,3.7-12.2,9.101c-1.5,3.6-0.1,8.1,3.3,10.199
c2.5,1.601,5.2,1.4,7.9,1c2.2-0.399,2.6-1.1,2.5-3.399c-0.1-0.9-0.5-1.9,0.6-2.601c0.2,0.301,0.6,0.4,0.6,0.601
c0.8,3.7,2.9,6,6.8,6.5c0.3,0,0.5,0.2,0.8,0.3c3.9,1.9,7.9,2.1,11.8,0.5c3.7-1.5,7.4-3.2,11-5.1c0.9-0.5,1.5-1.7,2.2-2.601
C179.3,77.6,179.4,77,179.6,76.5z"/>
<path fill="hsl(212, 15%, 85%)" d="M248.8,30.6c-1.8-0.8-3.6-1.6-5.4-2.3c-4.8-1.7-9.5-2.1-14.1,1.1c-2.3,1.7-4,3.6-4.5,6.5
c-0.3,1.6-0.9,2.8-3,2.5c0-1.3,0.1-2.5-0.1-3.7c-0.2-1.1-0.6-2.3-2.1-2.3c-1.9,0-5.6,2.1-6.1,3.8c-0.4,1.3-0.3,2.7-0.3,4
c0.1,2.1,1.1,3.6,3.2,4.4c3,1.2,6.1,1.6,9.4,1.7c4,0.1,7.3-0.8,8.7-5c0.2-0.5,1-1,1.5-1c0.4,0.1,1.1,0.9,1.1,1.4
c0,1.7,0.6,3.2,1.9,4c1.8,1.2,3.8,2.6,5.9,3c8.4,1.7,16.6,1.899,23.6-4.3c0.3-0.3,0.7-0.4,1-0.6c3.8-2.3,5-6.1,5.2-10.1
c0.3-5.5-2.8-9.6-6.4-13.4c-0.6-0.6-1.6-1.1-2.5-1.2c-4.6-0.8-9-0.9-12.9,2.3c-0.5,0.4-1.2,0.7-1.8,1c-3,1.6-3.4,2.6-1.9,5.8
C249.7,29.1,250,29.8,248.8,30.6z"/>
<path fill="hsl(212, 15%, 85%)" d="M289.5,44.8c3.9,1.7,3.9,1.7,4,3.6c-0.1,0-0.2,0.1-0.2,0.1c-0.3,0-0.6,0.1-0.8-0.1c-1.9-1.5-4.1-1.1-6.1-0.8
c-3.6,0.6-5,3.3-3.7,6.6c0.8,1.899,2.1,3.2,4.1,3.8c4.7,1.6,9.2,0.7,13.6-1.1c1.9-0.801,2.1-1.601,1.7-3.7
c-0.2-0.8-0.3-1.601-0.5-2.7c1.9,0.4,2.3,1.8,2.8,2.8c0.7,1.601,1.7,2.8,3.3,3.5c1.6,0.7,3.2,1.4,4.899,1.601
c7,0.899,13.301-0.4,17.601-6.7c0.3-0.5,0.8-0.9,1.2-1.3c0.1,0.1,0.3,0.2,0.399,0.3c-0.399,0.899-0.7,1.899-1.1,2.899
c0.399,0.301,0.7,0.601,1.1,0.801c4.5,2.699,13.4,1.199,17.3-2.101c2.801-2.4,3.4-7.2,0.101-9.6c-1.9-1.4-3.601-2.9-5.4-4.3
c-1.6-1.3-3.6-1.7-5.5-1.4c-2.5,0.4-5.1,1-7.5,1.8c-1.5,0.5-2.899,0.9-4.5-0.1c0.8-0.5,1.601-1,2.3-1.5c0-0.3,0-0.4-0.1-0.5
c-0.2-0.2-0.4-0.5-0.6-0.6c-5.601-2.7-11.101-5.4-17.7-4.2c-5.9,1-11.6,2.4-16.1,6.6C291.9,40.3,290.3,42.4,289.5,44.8z"/>
<path fill="hsl(212, 15%, 85%)" d="M396.6,59.7c1.9,0.899,2.7,2.7,3.7,4.3c1.601,2.5,3.7,4.4,6.8,4.9c1.7,0.3,3.4,0.699,5.101,1.1
c8.1,1.7,16,1.3,24-1.4c5.2-1.8,8.3-5.5,11.1-9.699c1.8-2.601,1.5-5.7-0.399-7.601c-5-5-10.801-8-18.2-6.2c-1.101,0.3-1.7,0.7-1.4,2
c0.5,2.4,0.4,2.4-1.899,3c-1.2-1.7-2.301-3.4-3.601-4.9c-0.7-0.9-1.8-1.4-2.5-2.3c-1.8-2.2-4.2-2.6-6.8-2.3
c-5.3,0.7-9.4,3.6-13.1,7.4c0.899,1,1.699,1.9,2.5,2.8c-1,1.2-1.801,0.601-2.5,0.101c-3-1.9-6.2-1.9-9.5-0.9
c-1.801,0.5-3,1.7-3.801,3.3c-0.3,0.601-0.5,1.3-0.8,1.9c-1.1,2.5-0.6,4.2,1.7,5.6C390.6,62.9,393,62.4,396.6,59.7z"/>
<path fill="hsl(212, 15%, 85%)" d="M479.5,34.9c-2.5,1.3-3,1.4-3.9-0.3c-2.3-4.2-5.899-6.1-10.5-6.8c-3.699-0.6-6.8,0.1-9.5,2.6
c-0.1,1.1,1.5,2.1-0.199,3.5c-0.2-0.3-0.301-0.8-0.5-1c-2-1.6-4.101-1.9-6.5-0.8c-1.7,0.8-2.5,2.3-2,4c0.5,1.9,1.699,3.2,3.699,3.7
c3.101,0.9,6.301,0.9,9.5,0.5c1.2-0.1,2.5-0.4,2.801-2c0.1-0.5,0.899-0.8,1.6-1.4c0.2,1,0.4,1.6,0.5,2.3c0.3,2.4,1.4,4.1,3.8,4.9
c1.601,0.6,3.101,1.6,4.7,2.3c1.4,0.6,2.8,1.5,4.3,1.6c6,0.6,11.8-0.3,16.9-3.8c0.899-0.6,1.8-1.6,2.1-2.6
c0.8-2.9,0.101-5.6-2.1-7.7c-1.8-1.8-3.9-3.2-6.4-3.8c-3.6-0.9-7-0.6-10.5,0.8C478.2,32.4,478.8,33.6,479.5,34.9z"/>
<path fill="hsl(212, 15%, 85%)" d="M535.7,74.4c1,0.399,2,1,3.1,1.199c4.7,1,9.4,1,14.101,0.301c4.1-0.601,8.199-1.101,12-3.2
c6.699-3.7,7.6-12.8,3.8-17.2c-2-2.3-4.3-3.8-6.9-5.2c-2.8-1.6-5.7-1.6-8.7-1.1c-2.6,0.4-3.5,2.399-2,4.7
C551.6,54.6,552.2,55.3,552.7,56c1.1,1.5,2.1,3,3.1,4.5c0.8,1.2,0.7,2.3-0.7,3.6c-0.7-1-1.3-1.899-1.899-2.699
c-2.2-3.4-4.9-6.5-8.2-8.9c-4.601-3.3-9.8-3.6-15.2-3c-3.4,0.4-6.1,1.7-7.7,4.9c0.101,0.199,0.3,0.5,0.3,0.8c0,0.7,0,1.399,0,2.1
c-0.699-0.2-1.399-0.3-2-0.7c-5-3.5-10.3-4.3-15.899-2c-2.601,1-4.8,2.801-5.601,5.7c1.2,1.7,4.101,1.3,4.2,4.5
c-1.3-0.5-2.2-0.8-3.1-1.3c-1.7-1.1-3.601-1.4-5.601-1c-3.399,0.7-6.3,2.3-8.6,5c-1,1.2-0.9,2.5,0.3,3.6c0.8,0.7,1.9,1.5,3,1.7
c2.601,0.5,5.3,0.8,8,1.101c2.8,0.3,5.4,0,6.601-3.2c0-0.101,0.199-0.101,0.399-0.2c0.2,0.3,0.4,0.6,0.5,0.9
c0.601,1.1,0.9,2.5,1.7,3.3c2,2,4.5,3.399,7.5,3c2.1-0.3,4.3-0.4,6.3-0.9c6.2-1.7,12.3-3.7,16.601-8.899
c0.3-0.301,0.8-0.4,1.3-0.601c0.899,1.3,0.2,2.2-0.601,2.9C536.3,71.2,535.6,72.5,535.7,74.4z"/>
<path fill="hsl(212, 15%, 85%)" d="M635.5,51.8c0.3,0.5,0.6,0.7,0.5,0.8c-0.2,0.9-0.5,1.801-0.8,2.7c-0.8,2.4-0.3,3.601,1.7,4.8
c2.399,1.4,4.899,2.301,7.699,2.4c1.101,0,2.301-0.2,3.301-0.7c2.8-1.5,4.6-3.7,5.1-6.899c0.2-1.2,0.2-2.301,0.4-3.5
c0.399-2-0.2-3.601-1.301-5.2c-2.899-4.4-7.199-6.6-12.199-7.7c-1.601-0.3-3.301-0.7-4.801-0.4c-3.5,0.6-7,1.4-10.5,2.3
c-0.8,0.2-1.399,0.7-2,1c0.101,1.5,1.801,2.3,1,3.5c-1.199-1-2.3-1.9-3.5-2.8c-1.3-0.9-2.6-1.7-4-2.4c-6-3-10.899-0.8-12.8,5.6
c-0.3,1-0.399,2.4-2,2.4c-1.2-2.7-3.399-3.4-5.3-1.6c-1.2,1.1-1.6,2.5-1,4c0.7,1.8,1.8,3.1,3.8,3.7c2.3,0.601,4.4,0.3,6.601-0.2
c2-0.5,3.699-1.1,3.699-3.6c0-0.2,0.4-0.3,1-0.7c0.4,0.9,0.801,1.7,1.101,2.601c1,2.399,2.1,4.8,4.899,5.8c3.2,1.2,6.601,1.6,10,1.1
c1.2-0.2,2.301-0.8,3.4-1.5c1.7-1,3.2-2.1,4.1-4C633.9,52.7,634.7,52.4,635.5,51.8z"/>
<path fill="hsl(212, 15%, 85%)" d="M676.1,81.9c-0.699-0.5-1.3-0.7-1.5-1.101c-0.8-1.399-0.699-2.899-0.1-4.5c0.7-1.899,0.5-2.2-1.3-3.2
c-2-1.1-4.101-1-6.2-0.5c-1.6,0.4-3.2,0.601-4.3,2.101c-2.3,3.2-1.3,7.6,2.2,9.3c4.8,2.4,10.1,3.2,15.399,3.8
C680.9,87.9,681.5,87.9,682,87.9c1.3,0,2.2-0.7,2.4-2.101c0.1-0.5,0-1,0.1-1.399c0.1-0.801,0-1.801,1-1.601c0.5,0.101,1.3,1,1.3,1.5
c0.2,2.8,2,4.3,4.2,5.5c0.5,0.3,1,0.5,1.6,0.8C700,93.7,707.7,95.3,715.8,94.7c5.9-0.5,11.5-1.8,16.4-5.2c5.6-3.9,9.1-9,9.6-16.1
c0.3-4.7-1.2-8.801-3.3-12.7c-1-1.9-2.4-3.9-4.2-5.101c-2.899-2-6-4-9.899-1.899c-0.2,0.1-0.601,0-0.9,0.1c-7.9,0.8-15.6,2-22.5,6.4
c-0.7,0.399-1.5,1.1-1.6,1.8c-0.2,1.1,0.399,2,1.6,2.4c1.7,0.699,3.4,1.399,5,2.199c1.2,0.7,2.4,1.601,3.4,2.601
c0.3,0.3,0.399,1.3,0.199,1.5c-0.399,0.399-1.1,0.6-1.699,0.7c-0.4,0-0.9-0.4-1.2-0.7c-4.601-4.2-10.101-5.9-16.2-6.3
c-3.7-0.2-7.4,0.899-9.3,3.8C678.8,72.2,676.4,76.5,676.1,81.9z"/>
<path fill="hsl(212, 15%, 85%)" d="M755,38.5c-1.5,0.2-2.7,0.4-3.9,0.5c-0.199,0-0.399,0-0.6,0.1c-1.6,0.5-2.6,2-2.4,3.8
c0.301,2.6,2,4.3,4.4,4.9c3.3,0.7,6.8,1,10.5,1.6c-0.3-1.4-0.5-2.3-0.7-3.2c0.601-0.3,1.101-0.6,1.601-0.8
c0.1-0.1,0.399,0.1,0.6,0.2c2.2,6.7,7.1,9.7,14,9.9c1.1,0,2.1,0.1,3.2,0.1c7.5,0.301,14-1.899,19.2-7.6c2-2.2,2.899-4.8,3.399-7.5
c0.601-3.4-0.3-6.2-2.8-8.7c-2.2-2.2-4.9-3.4-7.8-4.2c-0.4-0.1-1-0.2-1.4-0.1c-3.7,1.3-7.399,2.5-11.1,3.9c-0.3,0.1-0.4,0.6-0.601,1
c1.801,2,4.801,3.1,5,6.4c-1.6,0.2-2.199-0.6-2.899-1.4c-1.2-1.4-2.5-2.5-4.3-3.3c-3.7-1.6-7.301-1.4-11.101-0.6
c-3.6,0.8-6.399,2.4-8.1,5.8c-0.5,1-1.101,2-1.7,3C755.1,41.5,755.1,41.5,755,38.5z"/>
<path fill="hsl(212, 15%, 85%)" d="M857.9,80.1c3.8,2.9,8.3,3.301,12.8,3.4c0.3,0,0.6-0.1,0.8-0.3c2.5-1.8,5.2-3.5,6.1-6.7
c1.801-6.1,0.601-11.6-3.1-16.7c-4-5.5-8.8-9.1-16-8.7c-2.3,0.101-4.4,0.5-6.1,2.101c-1.801,1.7-3.801,3.3-4.601,5.8
c-0.6,2.1-0.5,2.3,1.2,3.6c2,1.5,3.9,3.2,5.8,4.801c0.8,0.699,1.101,1.6,0,2.3c-0.3-0.101-0.5-0.101-0.6-0.2
c-0.2-0.1-0.3-0.2-0.5-0.3c-3.8-3.4-7.7-6.7-13.101-7.3c-1.699-0.2-3.5-0.301-5.1,0.1c-2.4,0.6-4.7,1.7-6.9,2.8
c-1.699,0.9-3.399,2-4.6,3.4c-1.1,1.2-2.2,1.5-3.7,2c0-0.8,0-1.4-0.1-1.9c-0.3-2.399-2.3-3.7-4.3-2.3c-4.2,2.9-4.601,7.4-0.8,10.7
c3.5,3.1,7.8,3.2,12.1,2.1c2.2-0.5,4-1.5,4-4.3c0-0.9,0.1-2.2,1.8-2.4c0.2,0.7,0.4,1.4,0.4,2c0.1,2.5,1.3,4.2,3.399,5.4
c4.3,2.4,8.9,3.3,13.7,2.4c1-0.2,1.9-0.9,2.7-1.5c1.4-1.101,2.6-2.301,3.9-3.5c0.7-0.601,1.399-1.301,2.8-0.601
C859.2,77.7,858.5,78.9,857.9,80.1z"/>
<path fill="hsl(212, 15%, 85%)" d="M895,28.2c-0.9,0.1-1.1,0.2-1.2,0.2c-4.6-2.8-9.5-2.6-14.5-1.4c-3,0.7-5.6,2-7.1,5c-0.5,1-1.2,1.9-1.8,2.8
c-0.2,0-0.5-0.1-0.7-0.1c-0.101-0.9-0.3-1.7-0.4-2.6c-0.1-2.5-0.5-2.9-3.1-3.3c-0.8-0.1-1.601-0.4-2.3-0.1c-1.2,0.4-2.7,0.9-3.4,1.9
c-1.9,2.5-0.8,7.6,1.7,9c4.1,2.4,8.399,2.8,12.8,1.4c2.5-0.7,2.7-1.1,2.8-3.9c0-0.2,0.3-0.4,0.7-0.9c0.7,1.2,1.3,2.2,2,3.3
c1.4,2.3,3.4,3.7,6,4.1c1.3,0.2,2.7,0.2,4,0.5c4.6,0.9,8.9,0.3,13.2-1.7c3.3-1.6,5.5-3.8,7.1-6.9c1.8-3.5,1.5-6.8-0.399-10.2
c-1.7-3.1-8.9-6.9-13.4-5.7c-2.7,0.7-5.4,1.5-7.4,4.3C891.4,25.2,893,26.6,895,28.2z"/>
<path fill="hsl(212, 15%, 85%)" d="M963.6,56.8c-0.1,0.3-0.199,0.5-0.199,0.8c-0.5,0-1.101,0.2-1.601,0.101c-3.1-0.9-6.2-1.9-9.399-2.8
c-0.7-0.2-1.5-0.2-2.301-0.2C942.9,55,934.9,59,932,67.4c-0.4,1.1-0.5,2.5-2,3c-1-1.2-0.4-2.2-0.1-3.301
c0.3-1.1,0.6-2.1,0.899-3.199c-3.8-1.4-7.2-0.801-10.6,0.1c-2,0.5-4,1.7-4.7,3.9c-1.4,4,1.8,9.899,5.9,10.899
c4.6,1.101,9,0.3,13.1-2.1c0.8-0.5,1.6-1.2,1.9-2.101c0.6-1.5,1.5-2.1,3.199-2.1c0.2,0.7,0.4,1.3,0.601,1.9
c0.3,0.8,0.6,1.6,1.2,2.199c4.1,4.4,9.5,6.301,15.199,7c6.601,0.801,13.101-0.5,19-3.8c2.7-1.5,5.5-2.899,8.2-4.399
c4.3-2.4,6.101-6.5,7-10.9c1.101-5.5,0.3-10.9-4.1-15c-3.9-3.6-8.7-5.2-14.101-5c-4.899,0.1-8.899,2.9-13,5.1
c-1.399,0.7-2.699,1.6-4.199,2.5C957.9,54.4,961.5,54.4,963.6,56.8z"/>
</svg>
