<?xml version="1.0"?>
<!-- 24.1.29 valle -->
<svg xmlns="http://www.w3.org/2000/svg" xml:space="preserve"
	 width="1000" height="100"
	 viewBox="0 0 1000 100">
<path class="range" fill="hsl(212,  14%, 56%)" d="M1000,0v57.5c-4.1,2.2-8.7,4.8-12.7,6.9c-5.4,2.9-10.7,6.1-16.3,8.4c-7.9,3.2-16.2,4.9-24.8,2.1c-4-1.3-8-2.7-12.1-3.7
	c-2.7-0.6-5.5-0.6-7.8-0.9c-1.5,1.9-2.5,3.3-3.7,4.6c-1.5,1.6-3.4,2.4-5.7,2.5c-3.9,0.2-7.7,0.7-11.6,0.6c-2.4-0.1-4.8-1-7.2-1.6
	c-2.2-0.5-4.3-1.2-6.4-1.6c-1.5-0.3-2.9-0.6-4.4,0.5c-0.7,0.5-1.8,0.5-2.7,0.6c-1.1,0.1-2.1-0.1-3.2,0.1c-5.7,0.7-11-0.4-16.1-2.8
	c-1.9-0.9-3.4-0.5-5.3,0.5c-4,2.3-7.8,4.7-12.4,5.9c-2.4,0.6-4.7,0.3-7-0.1c-2.8-0.5-5.5-1.4-8.2-2.3c-3.9-1.3-7.8-1.5-11.7-0.2
	c-0.3,0.1-0.7,0.2-1,0.1c-5.4-1.2-10.8-0.2-16.2-0.1c-5.1,0.1-8.8,2.9-12,6.5c-1.2,1.3-2.2,2.8-3.1,4.2c-1.7,2.5-4.1,3.8-7,4.6
	c-7,2-14.1,2.5-21.2,2.1c-2.9-0.1-5.9-0.5-8.7-1.1c-7.1-1.5-14.1-1-20.7,1.9c-4.9,2.2-10.1,2-15.2,1.9c-0.9,0-1.8-0.5-2.6-0.9
	c-6.6-3.8-13.5-3.8-20.7-1.9c-3.1,0.8-6.5,0.4-9.8,0.3c-4.1-0.2-8.3-0.4-12.3-1.2c-5-0.9-9.3,0.4-13.2,3.4c-2.6,1.9-5.5,2.8-8.5,1.7
	c-4.8-1.6-9.4-3.6-13.3-7.1c-3.1-2.8-6.8-4-11-3.7c-8.1,0.7-16.2,0.6-24.3-0.1c-5.6-0.5-11.3-1.3-16.4-3.9c-2.2-1.1-4.2-2.5-6.4-3.7
	c-3-1.7-5.8-2.1-8.8,0.2c-3.5,2.6-7.8,2.8-12.1,3.4c-7.2,1-14.1-0.5-21-1.7c-1.2-0.2-2.3-0.3-3.5-0.4c-1.7-0.2-3.1,0.3-4.4,1.6
	c-5.9,5.8-13.1,8.4-21.3,8.7c-5.6,0.2-10.8-1.8-16.1-3.5c-4.6-1.5-9.1-2.3-13.6,0.3c-0.8,0.5-1.8,0.7-2.7,0.9
	c-6.6,0.9-13.1,1.4-19.4-1.6c-3.4-1.6-6.7-3.3-10.1-4.9c-1-0.5-2.2-0.9-3.3-0.8c-6.1,0.8-11.9-0.1-17.6-2.3
	c-5.6-2.2-11.6-2.7-17.6-1.8c-4.3,0.7-8.6,0.9-12.9,1.3c-6.4,0.5-11.3-2.6-15.8-6.6c-3.6-3.2-7.3-3.2-10.9,0c-2.9,2.5-5.5,5.5-9,7.2
	c-1.3,0.7-2.8,1.4-4.2,1.4c-4.1,0.1-8.2,0.3-12.2-1.3c-1-0.4-2-0.7-3-1c-3.2-0.9-6.1-1.4-8.5,1.9c-0.7,1-2.3,1.5-3.6,2
	c-7.1,2.3-14.3,2.4-21.7,2.1c-3.6-0.1-7.3,0-10.9,0c-1.7,0-3.1,0.7-4.4,1.9c-2.5,2.3-5.1,4.4-7.8,6.6c-0.5,0.4-1.3,0.6-1.9,0.6
	c-1-0.1-2-0.5-3.1-0.8c-3.4-1-6.7-1.7-10.3-1.7c-3.2,0-6.6-1.3-9.7-2.7c-2.4-1.1-4.4-3.1-6.5-4.8c-1.6-1.3-3.1-1.8-5.2-1.2
	c-2.8,0.8-5.7,1.6-8.6,1.7c-2.3,0-4.7-1-7.1-1.7c-1.2-0.4-2.3-1.2-3.4-1.9c-4.1-2.7-7.9-2-11.6,1c-1.9,1.5-4.1,2.8-6.2,4
	c-5.9,3.3-16.2,3.7-21.7-2.1c-2.4-2.6-5.6-2.8-8.8-2.7c-4.2,0.2-8.4,0.8-12.7,1c-4,0.2-7.9-0.7-11.7-2.1c-2.4-0.8-4.8-1.6-7.3-1.8
	c-1.2-0.1-2.7,0.7-3.8,1.5c-2.7,1.9-5.2,4.1-7.8,6c-2.1,1.6-4.3,1.8-6.9,0.7c-5.1-2.1-10.3-3.9-15.6-5.5c-1.2-0.4-2.7,0-4,0.3
	c-1.9,0.5-3.7,1.5-5.6,2.1c-2.7,0.9-3.9,0.4-5.7-1.9c-0.3-0.4-0.6-0.7-0.9-1.1c-2.9-3.7-2.9-3.7-7.1-1.4c-4.2,2.3-8.5,2.5-12.8,0.2
	c-0.8-0.4-1.7-0.8-2.6-1.1c-5.4-2.1-6.1-2.1-9.9,2.5c-1.8,2.2-4,3-6.5,2.4c-3-0.6-5.9-1.4-8.8-2.4c-4.2-1.4-8.4-2.9-12.6-4.5
	c-1.6-0.6-3.1-0.6-4.7,0.2c-3.9,2-7.8,2.2-11.8,0c-2.4-1.3-5.1-2.2-7.7-3.3c-2-0.9-8-0.9-10.1-0.4V0H1000z"/>
<path class="slope" fill="hsl(212, 21%, 70%)" d="M0,0v63c2.4,0.2,5.1,2.4,6.5,3.7c3.8,3.4,8.1,5.6,13,6.7c5.2,1.1,9.8,0,13.9-3.3c1.4-1.1,2.7-2.3,4-3.4
	c1.2-1,2.3-2,4.5-1.6c-2.3,2.5-4.4,4.8-6.7,7.2c7.1,5.7,14.7,6.6,22.9,4.6c4-1,6.9-3.2,8.5-7.2c0.9-2.3,1.1-2.3,3.7-3.2
	c1.2,1.5,0,2.6-0.5,3.8c-0.9,2.2-0.7,3,1.6,3.7c5.5,1.7,11.1,2.2,16.6,0c2.9-1.2,4.7-3.8,6.7-6c0.4-0.5,0.8-1,1.5-1.8
	c1.5,3.6-1.6,5.3-2.4,7.8c2,3.2,5,4.6,8.6,4.6c1.8,0,3.1-0.7,3.9-2.5c0.5-1.3,1.3-2.4,2.2-3.9c1,1.1,1.7,1.8,2.4,2.5
	c4.1,4.4,9.2,6.8,15.1,7.5c4.1,0.5,7.7-0.5,10.9-3.1c3.8-3,7.3-6.2,8.7-11.1c0.4-1.5,1.4-2.9,2.3-4.7c1.8,2.2,1.9,4,0.8,6.3
	c-1.7,3.4-1.4,5,2,6.8c2.5,1.3,5.4,2.4,8.3,2.8c5.9,0.8,11.4-0.9,16.6-3.6c1.4-0.7,2-1.7,1.7-3.4c-0.3-1.6-1-3.4,0.3-5.6
	c0.6,0.9,1,1.5,1.3,2.1c2,3.6,3.6,7.4,6,10.7c3,4.1,7.9,5.1,12.7,5.1c5.5-0.1,10.4-1.8,14.6-6c3.5-3.4,6.6-7,8.8-11.3
	c0.7-1.5,1.6-1.9,3-0.6c-1.3,2.6-2.5,5.1-3.8,7.8c0.7,0.8,1.3,1.7,2.2,2.3c7.5,5.4,15.4,6.6,23.8,1.9c1.5-0.8,3.2-1.3,4.9-1.8
	c0.4-0.1,0.8,0.2,1.6,0.3c-0.6,0.9-1,1.5-1.5,2.3c1.3,1.9,1.1,4.8,3.8,6c4,1.9,7.9,4,12.7,3.4c2-0.3,4.2,0.3,6.2,0.7
	c5.4,1.1,10.7-2.3,11.5-7.6c0.1-0.9-0.5-1.9-0.9-2.9c-0.6-1.3-2.3-2.7-1.1-4.1c1.6-1.8,2.9,0.4,4.2,1.2c7.9,5.1,16.5,7.3,25.9,6.3
	c6.7-0.7,12-4.4,17.1-8.4c1.4-1.1,3-2,4.9-3.3c0.8,3.7,2.8,5.7,5.7,6.7c4,1.4,8.1,1.8,12.1,0.1c5.5-2.3,9.8-6.3,13.4-11.1
	c1.3-1.7,1.8-3.2-0.1-4.9c-0.4-0.3-0.3-1.2-0.5-2.2c2.5,0.5,4.2,1.2,5.3,3.3c2.5,4.7,6.4,8.2,11,10.7c2.6,1.4,5.8,2.3,8.7,2.3
	c6.8,0.2,13.6-0.6,20.2-2.6c5.1-1.5,9.4-4.2,12.5-8.6c0.7-1.1,1.6-1.7,2.9-1.3c0.8,1.7,0.1,2.7-1.1,3.7c-1,0.9-1.9,1.7-2.8,2.7
	c-2.7,3-1.9,6.8,2,8.1c2.9,0.9,5.9,1.6,8.9,2.1c4,0.6,5.9-1,6.5-5c0.1-0.3,0.1-0.7,0.3-1.5c0.9,0.3,1.8,0.4,2.4,0.8
	c0.7,0.6,1.3,1.4,1.6,2.3c1.6,4.4,4.8,6.9,9.1,8.6c6.8,2.6,13.5,2.9,20.3,0.7c1.3-0.4,2.7-1.1,3.7-1.9c3.7-3.1,7.3-6.3,10.9-9.5
	c1.1-1,2.2-1.8,3.7-2.5c0.1,4.6-4.5,6.9-5,11.5c3,2.6,6.7,4.3,10.8,4.8c3.6,0.4,7.3,0.5,10.9,0.3c6.6-0.4,11.9-3.4,16-8.5
	c2-2.4,3.3-5.4,5.1-8c1-1.3,1.1-3.7,3.9-3.6c0.1,2.6-1.8,4.4-2.3,6.6c1.4,3.6,4.7,4.4,7.9,5.3c6.6,1.8,13,1.1,19.5-0.9
	c4.1-1.3,7.1-3.9,9.3-7.2c-0.2-1.9-2.6-2.8-1.3-4.8c2.2-0.5,3.3,1.2,4,2.7c2.3,5,7,7,11.2,9.7c10.1,6.3,21.3,6,32.5,5.8
	c7.2-0.1,14.3-1.2,21.2-3.5c1.9-0.6,3.9-0.8,5.8-1.2c0.9,1.2,1,2.1-0.4,2.7c-1.2,0.5-2.5,0.8-3.7,1.2c-1.2,0.4-2.4,0.7-4.1,1.2
	c0.8,1,1.1,1.7,1.7,2.1c2.8,1.9,5.7,3.8,8.6,5.5c1.1,0.6,2.5,0.9,3.7,0.9c5.1-0.3,9.5-2.4,13.3-5.4c-0.1-2.9-4.1-3.8-2.8-7.1
	c1.9-0.2,2.8,1.3,3.6,2.5c2.7,3.9,6.4,6,11.1,6.7c4.4,0.6,8.6,0.9,13,0.2c5.6-0.9,11.1-1.7,16.5-3.6c4.5-1.6,8.4-4.1,12-7.1
	c1-0.9,1.9-1.7,3.8-1.1c-1.5,5-6.6,6.1-9.7,9.1c1.8,3.8,6.5,6.7,10.7,6.1c3.5-0.5,7-1.3,10.2-2.7c4-1.8,6.7-5.4,9-9.1
	c1-1.5,2.1-2.5,4.3-3.1c-0.9,2.3-1.7,4.3-2.6,6.6c4.3,2.7,9.2,4.1,14.3,5c8.1,1.4,15.9,0.2,23.8-1.5c4.2-0.9,7.3-2.9,9.5-6.5
	c1-1.7,2.4-3.2,3.8-5c-0.8-2.3-2-4.6-4.9-5.5c-0.2-0.1-0.4-0.2-0.6-0.3c-2-1-2.8-2-2.1-3c0.9-1.3,2.4-1.1,3.5-0.5
	c10.4,5.2,21.7,4.8,32.8,4.9c4.4,0,8.6-0.9,12.1-3.9c1.1-1,2.5-1.6,3.9-2.5c1.4,2.6,0.3,4.4-1.4,6.2c1.4,1.7,3.3,2,5,2.4
	c6.1,1.4,11.4,0,15.9-4.4c3.4-3.3,6.8-6.4,10.2-9.8c1.4-1.4,2.4-3.1,3.6-4.7c2.5,1.4,2.5,1.6,1.1,4c-0.8,1.3-1.6,2.6-2.4,3.9
	c-1.8,3-1.6,4.5,1.1,6.6c1,0.8,2.3,1.6,3.5,1.6c3.9,0.1,7.8,0.1,11.6-0.4c3.3-0.5,3.8-1.7,3.4-5.2c-0.1-0.6,0-1.2,0-1.7
	c0-0.2,0.3-0.4,0.6-0.8c1.4,0.9,3,1.5,3.4,3.5c0.1,0.7,0.8,1.4,1.4,1.9c3.3,3.1,7.5,4.4,11.9,4.7c2.7,0.2,5.4-0.2,8.1-0.2
	c5.4,0.1,8-3.3,9.7-7.7c2.1-5.3,4.5-10.3,7.8-15.2c0.8,0.5,1.6,0.9,2.3,1.3c-1.6,3.1-3,5.9-4.5,8.7c-0.7,1.4-0.5,2.5,1,3.1
	c6.9,2.6,13.8,5.4,20.9,7.5c4.3,1.3,8.9,0.4,13.3-0.7c6-1.5,11.5-4.1,16.7-7.4c2.9-1.8,6-3.3,8.8-5.1c2.6-1.7,8.5-5.9,11-7.6V0H0z"
	/>
</svg>
