<?xml version="1.0"?>
<!-- 24.1.29 valle -->
<svg xmlns="http://www.w3.org/2000/svg" xml:space="preserve"
	 width="1000" height="100"
	 viewBox="0 0 1000 100">
<path class="range" fill="hsl(212,  12%, 61%)" d="M1000,0v44.8c-9.2,6.5-22.7,13.1-33.2,16.7c-2.8,1-6.1,0.7-9.1,1.1c-2.9,0.3-5.9,0.6-8.8,1.1c-4.3,0.8-7.7,3-10.9,6.1
	c-5.2,5.1-11.7,7.6-19,6.8c-2.9-0.3-5.7-1.4-8.5-1.9c-2.3-0.4-4.7-0.8-7-0.5c-9.3,1.3-18.3,1-26.9-3.4c-3.2-1.6-6.6-1.5-9.9-0.1
	c-3.4,1.4-6.8,2.8-10.1,4.3c-2.1,1-4.2,2-6.3,3.2c-4,2.3-8.4,2.5-12.7,2.5c-6.6,0-13.2,0.4-19.7-1.4c-5.3-1.5-10.5-3.3-15.8-5
	c-3.2-1-6.4-1.4-9.7-0.5c-7.5,2.1-15.2,2.6-22.8,1.3c-5.3-0.9-10.1,0-14.8,2c-2.2,1-4.2,2.6-6.1,4.2c-6.5,5.2-13.7,8.7-22,9.9
	c-4.1,0.6-7.9-0.4-11.6-2.2c-1.3-0.6-2.5-1.2-3.8-1.7c-3.3-1.2-6.7-2.2-9.9-3.7c-3-1.4-6.1-1.5-9.3-1.3c-3.4,0.2-6.8,0.3-10.3,0.4
	c-3.3,0.1-6.4-0.8-9.2-2.2c-4-2.1-7.6-1.3-10.9,1.4c-5.4,4.4-11.6,7.1-18,9.6c-7.4,2.9-15.3,3.7-23,5c-8,1.3-16.1,2.7-24.2,2.8
	c-8.6,0-17.2-0.4-25.7-1.9c-3.4-0.6-6.7-1.4-10.1-2c-6.3-1.1-12.2-3.6-17-7.5c-4.3-3.6-8.7-4.5-13.9-3.9c-4.9,0.6-9.7-0.8-14.2-2.3
	c-5.2-1.7-10.1-0.9-14.9,0.7c-2.7,0.9-5.3,2.6-7.7,4.2c-4.6,3.2-9.5,5.7-15.1,6.6c-3.7,0.6-7.4,1.2-11.1,1.7
	c-0.9,0.1-1.9-0.2-2.7-0.6c-4.8-2.1-9.9-3.1-15.1-3.8c-1.1-0.1-2.3,0.1-3.4,0.4c-1.2,0.4-2.4,0.9-3.5,1.6c-3.7,2.3-7.8,3.8-11.8,5.4
	c-3.9,1.5-8,1.2-11.8,0.2c-3.9-1.1-7.9-2.7-11.4-4.8c-6.1-3.7-12.6-4.7-19.4-4.3c-5,0.3-10.1,1-15.1,1.8c-8.1,1.2-16.1,2.2-24.3,2.2
	c-4.5,0-8.9-0.8-13.2-2.1c-3.2-0.9-6.4-1.6-9.5-2.7c-5.6-2-10.7-4.9-15-9.1c-2.3-2.2-4.8-2.7-7.7-2.2c-3.2,0.5-6,2-8.7,3.8
	c-4.4,3-9.4,3.9-14.5,2.9c-3.9-0.8-7.8-1.8-11.7-2.9c-4.4-1.3-8.8-1.3-12.8,0.7c-5.8,2.9-12,4.3-18.2,5.6c-4.8,1-9.8,1.6-14.7,2
	c-9.7,0.9-17.2-3.1-22.9-10.7c-1.4-1.9-2.7-3.9-3.8-6c-0.7-1.4-1.7-2-3.1-1.8c-1.7,0.2-3.5,0.6-5.2,1.1c-1.5,0.4-2.9,1-4.3,1.6
	c-5.7,2.6-11.7,2.8-17.6,1.1c-4.7-1.4-8.6,0.1-12.4,2.3c-3.1,1.9-5.8,4.4-8.7,6.6c-5.1,3.9-10.1,7.8-16.8,8.4
	c-1.9,0.2-3.8,0.2-5.6,0.1c-6-0.4-11.9-1-17.6-3.1c-2.8-1-5.4,0-7.9,0.9c-1.9,0.7-3.7,0.8-5.5,0.2c-3.5-1.1-6.9-2.4-10.3-3.6
	c-2.8-1-5.5-0.7-8.2,0.5c-3.5,1.5-7,2.9-10.6,3.8c-2.3,0.6-5,0.9-7.3,0.5c-5.8-1.1-11.4-2.6-16.6-5.7c-4.5-2.7-9.6-3.7-15-3.6
	c-4.1,0.1-8.3,0.1-12.4,0.1c-2.3,0-8.6,1.2-10.5,2.6V0H1000z"/>
<path class="slope" fill="hsl(212, 17%, 80%)" d="M0,0v67.6c7.8,9.4,22.4,12.8,32.4,6.6c1.8-1.1,3.7-2,6.1-3.3c-0.6,2.4-2,2.9-3.2,3.7
	c-2.4,1.6-2.5,2.4-0.5,4.4c1.9,1.9,3.9,3.6,6.7,4.4c2.8,0.8,5.3,2.5,8.1,3.4c2.2,0.7,4.7,1.2,6.9,0.9c8.7-1.4,17-4.1,23.5-10.5
	c2.2-2.2,3.7-5.1,5.5-7.7c0.8-1.1,1.5-2.2,2.3-3.3c0.2,0.1,0.5,0.2,0.7,0.3c-0.1,0.7,0.1,1.6-0.3,2.2c-1.6,3-3.2,6-5,8.9
	c-1.4,2.3-1.6,2.7,0.8,4.2c1.9,1.2,3.9,2.1,6,2.9c3,1.2,5.8,0.6,8.5-1.4c-1.3-5.4-1.3-5.4,0-8c0.6,0.7,1.3,1.2,1.4,1.8
	c0.9,4.8,4.5,7.4,8.4,9c8.2,3.4,16.8,3.8,25.3,0.8c2.8-1,5.2-3.1,7.8-4.8c5.4-3.6,9.5-8.4,13.3-13.6c1.8-2.3,2.6-4.7,2.1-7.6
	c-0.2-1.1-1-3,0.7-3.3c2-0.4,1.7,1.8,2,3c0.3,1.3,0.3,2.6,0.4,3.9c0.1,2.4,1.5,3.7,3.6,4.3c3,0.9,6.2,1.6,9.2,2.3
	c3.7,0.9,7.3,0.3,10.8-1c1.9-0.7,3.8-1.4,5.6-2.2c3.4-1.5,4.1-3.4,2.6-6.8c-0.6-1.4-1.6-2.6-0.9-4.4c2.1-0.7,3,0.7,3.6,2.3
	c0.9,2.3,1.8,4.6,2.6,7c1.7,4.6,4,8.9,7.6,12.2c6.9,6.4,15.1,8.8,24.5,7.4c12.4-1.8,23.6-6.6,34.3-12.8c1.6-0.9,2.9-2.4,4.1-3.8
	c1.3-1.4,2.3-2.9,3.6-4.5c0.9,0.1,1.8,0.1,3.1,0.2c-1.4,3.2-4.3,5.1-6,7.8c3.8,7.8,11.5,9,18.3,7.7c3.3-0.6,6.4-2.3,9.5-3.8
	c3.5-1.7,5-5.2,6.2-8.7c0.3-0.7-0.2-1.8-0.5-2.6c-0.4-0.9-1-1.7-1.5-2.6c0.1-0.2,0.3-0.4,0.4-0.6c0.7,0.1,1.5,0.1,2,0.5
	c0.7,0.7,1.2,1.7,1.8,2.6c1.3,2.2,2.6,4.5,4,6.6c1,1.4,2,2.6,3.9,3.3c1.6,0.6,3.1,1.9,4.1,3.3c2.7,3.6,6.4,5.4,10.5,6.9
	c8.6,3.1,17.3,5.6,26.6,4.4c3.4-0.4,6.7-1.1,10.1-1.9c8.8-1.9,17.6-3.7,26.2-6c4.5-1.2,8.8-3.4,13.1-5.2c2.5-1.1,4.8-2.5,7.3-3.6
	c6-2.6,11.2-6.5,16-10.9c0.9-0.9,1.7-2.6,3.5-1.2c1,0.8,0.4,2.1-1.4,3.7c-5.5,5-11.8,9-18.5,12.1c-2.3,1.1-4.6,2.4-6.8,3.7
	c-1,0.6-1.9,1.4-2.4,1.8c0.8,3.9,3.1,5.5,5.6,6.8c3.9,2,7.8,3.9,11.7,5.8c3,1.4,6.1,1.4,9.4,0.8c5.4-1,10.4-3,14.8-6.3
	c1.6-1.2,2.8-3.1,3.9-4.2c0.3-2.5-2.5-3.7-1.2-6.4c0.9,1,1.7,1.6,2.3,2.5c3.7,5.5,8.6,8.3,15.4,8.6c4.5,0.2,8.9,0.5,13.4,0.1
	c7.7-0.7,13.9-4.1,18.4-10.5c1.9-2.7,1.8-5.3,0.5-7.9c-0.9-1.8-1.2-3.5-1.2-5.7c0.8,0.3,1.5,0.3,2,0.7c4.1,3,7.9,6.4,12.3,8.9
	c3.4,1.9,7.4,3,11.3,3.8c3.8,0.7,7.8,0.8,11.6,0.8c4.1-0.1,7.8-1.4,11-4.1c2.4-2,5.3-3.5,7.8-5.4c2.8-2,5.4-4.1,7.4-7
	c0.9-1.3,2.6-2.2,3.8-3.2c1.4,0.7,1.3,1.7,0.8,2.5c-0.8,1.4-1.7,2.8-2.7,4.1c-2.5,3.3-5.2,6.4-7.6,9.7c-3.3,4.6-1.8,9.9,3.5,12.2
	c3.7,1.6,7.5,3.1,11.3,3.8c6.9,1.3,13.9,2.3,20.9,3c8.2,0.8,16.5,0.1,24.7-0.8c5.3-0.6,10.5-1.7,15.6-3.2c5.8-1.7,11.6-3.2,17.4-4.7
	c7-1.8,12.5-5.9,17.4-11.1c5-5.3,9.8-10.8,14.7-16.2c0.9-1,2-1.7,3.2-2.7c1.1,2.1-0.1,3-0.9,4.1c-2.2,3.4-4.3,6.7-6.3,10.2
	c-0.4,0.7-0.6,1.6-0.8,2.3c-0.4,1.5-0.1,2.9,1.5,3.5c1.5,0.6,3,1.3,4.6,1.7c4.6,1,9.2,0.3,13.7-0.5c2.2-0.4,2.9-2.2,3.6-3.9
	c0.4-1.1,0.5-2.2,0.8-3.4c1.7,0,1.9,1.4,2.4,2.3c5.5,9.9,15.6,12.6,24.4,11.3c4.6-0.7,9.2-2.1,13.7-3.5c7.8-2.3,14.8-6.3,21.1-11.2
	c2.4-1.8,4.2-4.4,6.2-6.7c0.8-0.9,1.5-2,2.6-3.6c0.3,1.4,0.5,2.1,0.5,2.9c0,0.9-0.5,1.9-0.5,2.8c0,1.9,0,3.9,0.6,5.6
	c0.8,2.3,3.2,1.4,5,1.7c6,1.1,11.4-0.6,16.6-3.6c1.1-0.6,2.2-1.3,3.5-2c-2-2.9-5.5-4.5-6.7-8.2c1.9-1.2,3.2-0.1,4.4,0.9
	c2.9,2.4,5.9,4.7,8.8,7.1c3,2.4,6.3,4,10,4.9c4.2,0.9,8.4,2.4,12.7,2.8c6,0.6,12,1,18,0.1c2.8-0.4,5.7-0.4,8.4-0.9
	c5.7-1,11.2-2.9,16.5-5.3c4-1.8,7.7-4.2,11.8-5.6c3.4-1.2,5.8-3.4,8.5-5.4c1.7-1.3,3.8-2,6-2.7c-1.9,5.3-8.1,6.8-10,12.5
	c0.8,0.6,1.8,1.6,2.9,1.9c4.4,1.2,8.8,2.5,13.4,3.2c4.2,0.6,5.4-0.6,6.1-4.9c0.2-1.4,0.5-2.7,0.9-4.8c0.9,1,1.6,1.5,1.8,2.1
	c2.6,6.7,8,9.1,14.6,9.2c5.7,0,11.1-1.6,15.4-5.5c2.1-1.9,3.7-4.6,4.7-7.3c1-2.6-0.6-4.8-2.9-6.3c-2.2-1.4-3.1-3.5-3.7-5.8
	c-0.4-1.6,0.6-2.5,1.9-1.7c1.1,0.6,2.1,1.5,2.7,2.5c1.9,3.2,4.5,5.4,8.3,6.1c1.5,0.3,3,0.8,4.4,1.5c7.2,3.2,14.2,2,21.3-0.6
	c5.9-2.2,11.6-4.7,16.9-7.9c2.3-1.4,4.1-3.8,5.9-5.9c1.2-1.4,3.5-5.6,4.7-7.4V0H0z"/>
</svg>
