<?xml version="1.0"?>
<!-- 24.1.29 valle -->
<svg xmlns="http://www.w3.org/2000/svg" xml:space="preserve"
	 width="1000" height="100"
	 viewBox="0 0 1000 100">
<path class="range" fill="hsl(212,  8%, 66%)" d="M1000,0v50.3c-0.2,0.8-3,1.6-3.9,2.2c-1.2,0.8-2.3,1.5-3.6,2.1c-3.5,1.8-7.1,3.6-10.7,5.4c-0.9,0.5-2.1,0.6-2.9,1.1
	c-5.6,3.7-11.9,4.9-18.4,5.3c-2.8,0.2-5.6,0.5-8.4,0.4c-14.6-0.4-28.7-3.3-42-9.6c-3.3-1.6-6.7-3-10.2-4.1c-2.7-0.8-5.6-1.2-8.3-1.1
	c-4.7,0.2-9.4,0.9-14,1.7c-2,0.3-3.9,1.5-5.9,2.2c-2.4,0.9-4.9,1.6-7.2,2.7c-7.5,3.6-15.6,5.2-23.7,6.4c-4.1,0.6-7.9-0.8-11.8-1.6
	c-7.2-1.5-14.1-3.6-21-6.1c-3.8-1.4-8-1.7-12.1-2.4c-1.4-0.2-2.8-0.1-4.2-0.5c-3.9-1-7.4,0.2-10.8,2c-4.1,2.3-8.3,4.4-12.4,6.7
	c-5.1,2.9-10.9,3.5-16.5,4.9c-4.8,1.2-9.7,1.5-14.7,1.2c-5.3-0.4-10.6-0.3-15.9-0.5c-0.8,0-1.8-0.1-2.4-0.5c-2.1-1.5-4.6-1.8-7.1-2
	c-5.5-0.3-10.5-2.1-15.7-3.7c-4.3-1.3-8.6-2.4-12.9-3.5c-3.4-0.8-6.7-0.4-10.2,0.1c-3.3,0.5-6.3,1.4-9.3,3c-1.8,1-4.1,1.1-6.1,1.4
	c-9.9,1.5-19.7,0.5-29.3-2.3c-6-1.7-12.2-1.5-18.1,0.3c-2.3,0.7-4.2,2.9-6,4.7c-2.8,2.8-5.4,5.9-8.2,8.7c-1.7,1.7-3.6,3-5.4,4.5
	c-6.3,5-13.1,9.1-20.7,11.7c-5,1.7-10.1,3.2-15.2,4.6c-3.9,1.1-7.9,2.1-12,2.7c-3,0.4-6.1,0.3-9.2,0.1c-8-0.5-15.9-1.8-23.6-3.7
	c-10.8-2.7-21.4-6.2-31.8-10.4c-9.9-4-20.2-6.5-30.9-6.3c-4.8,0.1-9.7,0.8-14.3,3.3c-4.5,2.5-9.3,4.6-14.2,6.2
	c-4.3,1.4-9,1.8-13.4,2.9c-5.8,1.6-11.7,0-17.5,0.7c-0.9,0.1-1.8-0.3-2.8-0.5S383,90,382,90.2c-4.7,0.8-9-0.9-13.5-2.1
	c-1.9-0.5-3.9-0.8-5.9-1.2c-0.6-0.1-1.2,0-1.7-0.2c-7.4-3.2-14.8-6.6-22.3-9.7c-6.5-2.6-12.6-6.3-19.6-7.9c-8.3-1.9-16.5-1-24.8,0.3
	c-5.2,0.8-9.2,3.8-14,5.4c-10.8,3.7-21.5,6.9-33.1,6.3c-2.2-0.1-4.5,0.1-6.7,0.4c-10.7,1.4-21.3,0.2-32-1.3
	c-10-1.4-19.2-5.5-28.6-8.7c-7.5-2.5-14.7-2.1-21.9,1.3c-7.2,3.3-14.5,6.7-22.7,7.5c-4.5,0.4-9.1,1.2-13.6,1.7
	c-1.3,0.1-2.6-0.1-3.8-0.2c-10.2-1.3-20.2-3.2-29.4-8.1c-8.7-4.6-18.1-5.5-27.8-4.8c-4.1,0.3-8.2,0.5-12.3-0.3
	c-0.3-0.1-0.7-0.2-1-0.2c-8.4,0.6-15.6-2.9-22.7-6.5C17.4,58.5,7.3,52.1,0,48.1V0H1000z"/>
<path class="slope" fill="hsl(212, 12%, 90%)" d="M0,0v34.7c0.9,0.4,2.6,0.7,2.9,1.1c0.8,1.4,1.6,2.9,1.9,4.5c0.5,2.7,1.6,4.8,3.5,6.8
	c3.5,3.7,7.5,6.8,12.2,8.9c3.1,1.4,6.1,3,9.2,4.6c0.5,0.3,1,0.6,1.6,0.8c6.9,2.4,13.8,4.6,21.3,4.2c3.2-0.2,6.3,0.1,9.5,0
	c6.6-0.1,12.7-2.5,18.4-5.6c1.8-1,3.2-2.6,4.9-3.8c0.8-0.6,1.9-1,3-1.6c0.8,2.3,0.2,3.6-1.1,4.9c-2,2-3.9,4.1-6.1,6.5
	c1.3,0.9,2.4,1.9,3.6,2.4c2.4,1,4.9,1.8,7.3,2.7c6.2,2.5,12.4,5,19,6.4c3,0.6,6,1.1,9.1,1.1c10.6,0.1,20.8-2.2,30.6-6.4
	c2.9-1.2,5.4-3.3,7.9-5.2c1.8-1.4,2.6-3.4,1.9-5.7c-0.8-2.4-1.7-4.8-2.7-7.2c-0.3-0.8-1-1.3-1.3-2.1c-0.2-0.5-0.2-1.4,0.1-1.5
	c0.5-0.3,1.3-0.3,1.9-0.2c0.5,0.2,1,0.7,1.3,1.1c3,4.9,7.5,8.1,12.2,11.1c6.9,4.3,13.8,8.6,21.7,11c10.3,3.1,20.7,5.5,31.5,5.8
	c2.2,0.1,4.5-0.2,6.7-0.3c11-0.7,22.1-0.8,33.1-2.6c4-0.7,7.9-2.3,11.8-3.7c5.9-2,11.5-4.8,16.8-8.1c1-0.6,2-1.2,3.1-1.7
	c8.1-3.4,15.6-7.6,23-12.4c0.8-0.5,1.6-1,2.5-1.4c0.2-0.1,0.4,0,0.7,0.1c1,2.5,0.9,2.5-0.9,4c-1.6,1.3-3.2,2.7-4.5,4.4
	c-1.3,1.6-0.9,3,0.8,4.1c8.2,5.6,16.7,10.5,25.8,14.4c9.3,4,18.7,7.9,28.7,9.7c4,0.7,8.2,0.7,12.3,0.9c5,0.2,10.1,0.5,15.1,0.3
	c8.1-0.2,15.9-1.6,23-5.6c3.1-1.7,6.5-2.7,9.6-4.4c3.6-2,7.1-4,9.9-7.2c4-4.4,8.4-8.5,12.7-12.8c1.1,1.3,1.3,2.7,0.3,4.5
	c-1.3,2.3-2.6,4.8-3.6,7.3c-0.9,2.1-0.6,2.7,1.5,3.5c7.2,2.6,14.4,5,21.6,7.7c3.5,1.3,6.9,2.9,10.4,4.3c1.7,0.7,3.6,1.2,5.3,1.8
	c4,1.3,8.2,2.3,12.1,3.9c7.4,2.9,15.2,3.2,22.9,3.8c5.3,0.4,10.6,0.6,15.9,0.6c7.8,0.1,15.1-1.8,22.3-4.8c4-1.7,8.1-3.2,12-5.2
	c3.8-2,7.3-4.6,10.8-7.2c5.3-3.9,9.3-9,13.9-13.5c2.4-2.4,4.1-5.4,6-8.2c0.9-1.3,1.8-2.8,2.7-4.2c0.6-1,1.6-1.9,1.8-3
	c0.8-3.4,3.2-5.6,5.4-8.1c1.1-1.2,1.9-2.7,3-3.9c1-1.1,2.1-2,3.2-3c2.1,1.5,1.3,2.6,0.5,3.9c-2.1,3.1-4.2,6.3-6.3,9.4
	c-2.1,3.1-2.1,6.1,2.6,8.2c9.7,4.4,20.1,6.7,30.9,6.2c4.6-0.2,9.1-0.9,13.3-3c4.9-2.5,6-6.8,2.5-11.2c-0.9-1.1-1.8-2.2-0.8-4.4
	c2.9,2.1,5.6,3.9,8.1,6c3.4,2.9,7.2,4.8,11.2,6.5c9.5,4,19.3,6.9,29.4,8.9c12,2.4,24,3.2,36.2,1c6.6-1.2,12.9-3.6,18.9-6.6
	c4.5-2.2,8.7-5,12.9-7.7c5.6-3.5,10.8-7.6,15.1-12.6c0.2-0.2,0.3-0.3,0.5-0.5c0.9-0.8,2-1.8,3-0.6c0.4,0.5,0.1,2.1-0.4,2.8
	c-1.6,1.9-3.5,3.5-5.3,5.2c-0.9,0.9-1.9,1.7-3.1,2.7c2.9,2.3,6.1,3.7,9.3,4.6c7.8,2.4,15.6,4.5,23.5,6.5c4.8,1.2,9.7,2,14.6,2.7
	c4.3,0.6,8.5-0.9,12.4-2.2c7-2.3,13.9-5.1,20.9-7.7c3.2-1.2,5.4-3.6,7.5-6.2c1.1-1.3,0.8-2.4-0.3-3.4c-1.7-1.6-3.6-3.1-5.3-4.7
	c-1-0.9-1.8-2-2.9-3.3c2.6-0.9,4.2,0,5.7,1.2c2.5,2.1,5,4.4,7.7,6.2c7,4.8,14.8,8.2,22.6,11.5c5.2,2.2,10.4,4.5,15.8,6.1
	c5.4,1.6,11,2.5,16.6,3.3c4.8,0.7,9.6,1,14.4,1.3c7,0.5,13.5-1.6,19.7-4.6c2.1-1,4.3-2.1,6.5-2.7c5.8-1.7,9.8-5.8,13.5-10.3
	c0.6-0.8,5.3-2.2,5.6-3.2v7.7V0H0z"/>
</svg>
