<?xml version="1.0"?>
<!-- 24.1.29 valle -->
<svg xmlns="http://www.w3.org/2000/svg" xml:space="preserve"
	 width="1000" height="100"
	 viewBox="0 0 1000 100">
<path class="range" fill="hsl(212, 25%, 40%)" d="M0,100V89.7c2.7-0.4,7.6-0.8,10.3-1.3c5.5-1.1,10.5-3.1,14.8-7c3.5-3.1,7.4-5.9,11.2-8.7c0.7-0.5,2.1-0.7,2.9-0.4
	c5.1,1.8,10.1,0.9,15.1-0.5c1-0.3,2-0.7,2.9-1.3c3.1-2.2,6.1-4.6,9.2-6.8c1.9-1.3,3.9-2.9,6-3.6c11-3.4,21.2-8.5,31.3-14
	c0.9-0.5,1.8-1.1,2.8-1.5c3.1-1.2,5.2-0.6,6.5,2.4c2,4.6,5.4,7.1,10.3,7.8c2,0.3,3.9,0.8,5.8,0.9c4.7,0.3,8.4,2.6,11.1,6.1
	c2.6,3.4,6,5.1,10,5.7c5.5,0.8,10.2,3.3,15.1,5.5c4.8,2.1,10.1,1.3,13.3-3c1.2-1.6,2.2-1.7,3.9-1.3c6.2,1.4,12.4,1.9,18.6-0.5
	c8.1-3.1,16.5-5.5,24.4-9c5.1-2.3,10.1-3.5,15.6-3.7c1.3-0.1,3-0.6,3.9-1.6c3-3,6.3-5.4,10-7.5c0.8-0.5,1.3-1.5,1.8-2.4
	c1.2-2,2.2-2.7,4.1-1.8c5,2.2,10.3,4.2,14.9,7.2c6.3,4.1,13.2,5.8,20.4,6.8c3.3,0.5,6.6-2,7.3-5.9c1.2-7.4,6-11.5,12.3-14
	c8.3-3.3,16-8,24-11.9c1.8-0.9,3.6-1.5,5.4-2.3c2.6-1.2,5.2-2.5,7.7-3.9c2.7-1.5,5.4-0.3,5.8,2.7c0.2,1.4,0.3,2.9,0.3,4.3
	c-0.1,2.4,0.9,4.3,2.3,6.1c0.6,0.7,1.2,1.5,1.4,2.3c1,4.2,4.2,6.6,7.2,9.2c1.4,1.3,3.2,2.1,5.4,2c4.5-0.2,8.2,2.5,12.3,3.9
	c3.1,1.1,6.2,2.3,9.3,3.1c3.2,0.8,5-0.2,6.4-3.1c1.4-3,2.8-5.9,4.2-8.9c0.9-2,2.3-3.6,4.5-4.1c3.9-0.9,7-3.5,10.4-5.5
	c3.8-2.2,7.7-2.6,11.5-0.3c4.2,2.5,8,5.5,12.3,7.9c3.5,2,7.3,3.6,11.1,4.8c3.5,1.1,7.2,1.6,10.8,2.2c5.6,0.9,9.8-1.4,13.4-5.6
	c2.9-3.4,3.8-7.7,5.9-11.5c0.7-1.3,1.2-2.6,1.9-3.9c1.1-2,2.8-2.9,5-3.3c3.6-0.6,7.1-1.7,10.6-2.7c1.9-0.6,3.1-0.2,3.8,1.6
	c1.7,4.8,5,8.3,8.9,11.3c1.5,1.1,2.9,2.4,4.1,3.7c4.9,5.1,11.1,8.3,17.2,11.6c2.6,1.4,5,3.4,7.2,5.4c9.1,8.5,19.7,9.7,30.8,3.7
	c4.7-2.5,7.4-6.7,10.3-10.6c2.2-3,4.6-5,8.4-5c0.8,0,1.7,0,2.3-0.3c3.6-1.9,6.7-0.7,10,1.2c6.6,4,13.4,7.8,20.2,11.5
	c2.4,1.3,5,2.2,7.6,3.3c6,2.4,11.8,5.2,18,7.1c5.3,1.6,10.9,3.2,16.4,0.2c1.1-0.6,2.3-1.4,3.1-2.3c3.1-3.3,6.3-6.3,10.6-8
	c2.4-0.9,4.5-2.7,6.7-4.2c2.4-1.6,4.7-2,7.3-0.5s5.5,2.6,8,4.3c5,3.2,9.7,2.9,14.3-0.5c2.1-1.6,3.9-3.5,5.8-5.2
	c0.9-0.8,1.7-1.7,2.6-2.4c3-2.4,5.9-4.7,8.2-7.8c2.2-3,5.7-4.6,9.4-5.4c3.5-0.7,6.9-1.6,10.4-2.4c1.9-0.4,3.1-1.6,4.4-3.1
	c3.3-3.9,7.1-6.2,12.7-6.7c6-0.6,9.5,0.9,11.3,6.6c0.7,2.2,2.3,4.1,3.3,6.2c1,2.3,2.5,3.8,5,4.6c4.7,1.4,9.3,2.9,13.9,4.5
	c1.2,0.4,2.5,1,3.5,1.8c7.3,5.5,15.9,8.2,24.3,11.2c6.2,2.3,13.3-1.9,14.3-8.4c1-5.8,4.5-10,7.8-14.4c4.4-5.8,10.5-7.6,17.3-7.2
	c4.7,0.3,7.8-1.8,10.5-5.1c1-1.2,2-1.9,3.5-2.2c3.7-0.6,7.3-1.9,11.1-2.1c3.8-0.3,7.2-2,10-5c3.1-3.3,4.8-3.4,8.6-1
	c0.9,0.6,1.9,1.1,2.5,1.9c3.9,4.6,9.3,6.6,14.7,8.7c4.8,1.8,9.4,4,14.1,6.1c0.7,0.3,1.4,0.8,1.9,1.3c7.6,8,17.5,11.8,27.6,15.5
	c4.9,1.8,9.7,4.1,14.5,6.2c1,0.4,5.9,2.1,6.7,2.8V100H0z"/>
<path class="slope" fill="hsl(212, 25%, 45%)" d="M1000,100V53.1c-6.9-4.2-18.4-7.3-25.9-10.1c-6-2.3-12.1-4.5-17.4-8.3c-0.2-0.1-0.5,0-0.9,0
	c-2.3,2.9-1.2,6.7-2,10.1c-2.6,0.2-2.9-1.6-3.2-3.3c-0.5-3.5-1-7-1.3-10.6c-0.2-3.2-1.5-5.4-4.7-6.5c-6.1-2-12.1-4.2-18.5-6.4
	c-0.4,1-0.7,2-1.2,2.8c-0.4,0.6-1,1.4-1.6,1.4c-0.6,0-1.6-0.6-1.8-1.1c-0.9-2.2-1.4-4.5-2.3-6.7c-0.7-1.5-1.6-3-2.8-4.1
	c-1.1-1.1-2.8-1.1-3.8,0.4c-3.4,4.7-8.5,6.1-13.6,7.2c-4.4,1-8.5,2.6-12.2,4.8c-5.3,3.1-10.9,5.2-16.9,5.9c-4.2,0.4-7,2.3-9.2,5.8
	c-3.5,5.3-6.6,10.7-9,16.7c-0.8,2.1-2.5,4-3.9,6.3c3,2.4,6,4.8,9,7.3c-1.3,1.3-2.5,0.7-3.4,0.1c-1.8-1-3.6-2.2-5.3-3.3
	c-3.2-2.2-6.4-4-10.5-3.7c-1.3,0.1-2.8-0.7-4.1-1.2c-6.2-2.4-12.5-4.8-18.7-7.3c-3.5-1.4-7.2-2.6-9.7-5.8c-0.5-0.7-1.5-1.3-2.3-1.4
	c-2.3-0.4-4.7-1-7-0.8c-2.4,0.1-4.5,1.4-5.5,3.9c-0.2,0.5-0.9,0.7-1.4,1c-0.4-0.6-1.2-1.2-1.1-1.7c1.1-9.3-4.7-15.6-9-22.5
	c-3.1,0.3-5.7,0.6-8.2,0.9c-0.9,0.1-1.8,0.6-2.4,1.1c-1.5,1.3-2.8,2.8-4.3,4c-1.4,1.1-2.8,2.5-4.4,3c-3.9,1.2-7.8,2.2-11.8,3
	c-2.9,0.6-5,2.1-7.1,4.1c-2.2,2.2-4.7,4.2-7,6.3c-1.4,1.3-2.7,2.8-4.2,4.2c-2.6,2.4-5.3,4.7-7.9,7.1c-1.3,1.3-2.4,2.9-4.1,4.8
	c-3.8-2.7-9.3-2.5-13.1-6.1c-0.8-0.7-2.2-0.9-3.3-1.1c-2.6-0.4-5.2-0.7-7.8-1c-0.9-0.1-2,0-2.7,0.4c-2.8,1.7-5.5,3.5-8.1,5.4
	c-1.7,1.2-3.3,2.6-4.9,4c-1,0.9-1.8,2.1-3,3.5c4.4,1.2,8.5,1,11.9,3.3c-0.7,1.9-1.7,2.4-3.4,2c-5.5-1.1-11.1-2.2-16.6-3.3
	c-1.2-0.2-2.3-0.4-3.5-0.4c-11.3-0.1-21.2-4.7-31.2-9.2c-3.8-1.7-7.6-3.5-11.3-5.5c-5-2.6-9.8-5.6-14.8-8.2c-3.8-1.9-8-2.9-12-0.3
	c-1.3,0.8-2.4,2-3.3,3.3c-3.5,4.9-7.3,9.4-12.9,11.9c-3.4,1.5-7.1,2.9-10.8,3.4c-4.3,0.6-7.7,2.4-11,4.8c-0.5,0.4-0.9,1-1.5,1.3
	c-0.5,0.2-1.4,0.4-1.8,0.2c-0.4-0.3-0.7-1.3-0.5-1.6c2.7-4.2,0-6.4-2.7-9.3c-3.3-3.7-7.7-5.5-11.7-7.9c-6.4-3.8-13.3-6.9-19.9-10.5
	c-2.3-1.2-4.2-2.6-5-5.6c-1-3.9-3.1-7.5-5.9-10.6c-1.4-1.5-2.6-1.9-4.5-0.8c-1.5,0.9-3.4,1.4-5.1,1.9c-3.4,0.9-6.2,2.3-6.9,6.1
	c-1.3,6.7-5.9,11.2-10.6,15.8c2.4,3.4,6.2,4.9,9.5,8.1c-1.5,0-2.3,0.1-3-0.1c-3.8-1.5-7.5-3.1-11.3-4.6c-1.1-0.4-2.3-1-3.4-0.8
	c-4.7,0.7-8.9-1-13.1-2.3c-6.1-2-12.1-4.4-17.4-8.3c-3.5-2.6-7.4-4.5-11.9-4.9c-0.9-0.1-2.1-0.4-2.7,0.1c-3.4,2.8-7.8,2.9-11.5,4.9
	c-0.6,0.3-1.2,0.6-1.6,1.1c-3.3,4.5-6.9,8.9-8.4,14.6c3.4,2.9,7.7,4.4,11,8.5c-1.4-0.4-2.1-0.4-2.5-0.7c-3.8-2.3-7.9-3.6-12.2-4.3
	c-3.8-0.6-7.4-1.7-10.5-4.2c-1.9-1.5-4.1-2.2-6.5-2.5c-5.6-0.5-10.8-2.4-15.8-4.9c-1.4-0.7-2.5-1.9-3.5-3c-2.2-2.5-4.2-5-6.2-7.5
	c-4.4-0.3-4.7,3.5-6.4,6.4c-1.7-1.8-1.2-3.5-0.6-5c0.5-1.5,1.3-2.9,1.9-4.4c1.1-2.8,1.1-5.6,0-8.7c-1.1,0.3-2.2,0.4-3.1,0.8
	c-8.5,3.9-17.1,7.5-25.4,11.8c-4.5,2.3-8.7,5.4-12.6,8.7c-2,1.7-3.7,4.3-4.5,6.8c-1.1,3.5-3.3,5.8-6.1,7.4c-3.4,2-5.7,4.6-6.5,8.5
	c-0.1,0.3-0.4,0.6-1.1,1.4c-2.6-3.3-7.1-4.4-8.6-8.8c-0.4-1.1-1.7-2-2.8-2.7c-1.8-1.1-3.7-2-5.5-3.1c-1-0.6-2.4-1.1-2.9-2
	c-2.5-4.3-7.4-4.8-11.2-6.8c-0.6-0.3-1.9,0-2.4,0.5c-2.8,2.2-5.3,4.7-8.1,6.8c-3,2.4-5.2,5.2-5.7,9.1c0,0.3-0.4,0.6-0.9,1.4
	c-1.1-0.9-2.3-1.6-3.3-2.6c-2-2.1-4.3-2.9-7.1-1.9c-7,2.6-14.1,5.1-21.2,7.6c-3.5,1.3-7.1,2.2-10.3,4c-5.1,2.8-10.4,2.9-16,3.3
	c-4.3,0.3-8.5,2.5-12.6,4c-2.8,1-5.4,2.3-8.6,3.7c0-4.7-2.6-6.5-6-7.5c-7.1-2-14.2-4.2-21.7-2.4c-3.7,0.9-7.1,2.7-10.6,4.1
	c-2,0.8-3.8,2.4-6.3,1.6c0-2.2,1.6-2.7,3-3.4c3.5-1.8,7-3.6,10.5-5.4c0.8-0.4,1.5-1,2.4-1.6c-0.8-3.4-2.6-5.6-5.9-6.7
	c-6.2-2.1-12.5-3.2-19-3c-4,0.1-5.2-1.1-5.1-5.1c0-1.4,0.1-2.8,0.1-4.7c-1.2,0.4-2.1,0.5-2.9,0.8c-4.4,2.3-8.8,4.7-13.2,7
	c-5,2.6-10,5.3-15.1,7.7c-2.1,1-2.1,2.4-1.8,4.2c0.3,1.3,0.7,2.6,1.1,3.9c-0.3,0.2-0.6,0.4-0.8,0.6c-1.9-1.8-3.9-3.6-6-5.5
	c-0.8,0.3-1.8,0.5-2.4,1c-2.6,2-5.1,4.1-7.8,6c-1.1,0.8-2.4,1.8-3.7,1.9c-3.2,0.4-5.1,1.9-5.3,5.2c0,0.5-0.4,0.9-0.6,1.5
	c-3-0.3-5.1-2.1-7.5-3.5c-3.9-2.4-4.7-2.5-7.7,0.9c-6.6,7.6-15,10.7-24,12.4C7.9,92.3,2.7,92,0,92.3v7.7H1000z"/>
</svg>
