<?xml version="1.0"?>
<!-- 24.1.29 valle -->
<svg xmlns="http://www.w3.org/2000/svg" xml:space="preserve"
	 width="1000" height="100"
	 viewBox="0 0 1000 100">
<path class="range" fill="#222222" d="M1000,0v6.5c-2.2,1.9-8.2,17.3-10.1,19.7c-1.8,2.3-3.4,4.6-5.2,6.9c-3.1,3.9-7.2,6.8-11.2,9.8
	c-2.7,2-5.5,3.9-8.4,5.6c-3.3,1.9-6.8,3.6-10.2,5.4c-0.1,0.1-0.2,0.1-0.3,0.1c-7.9,0.4-15.4,3.2-23.2,4.3c-1.6,0.2-3.3,0-4.9,0
	c-6.5-0.2-13-0.1-19.3-1.7c-4.1-1.1-8.1-2.3-12.2-3.5c-6.2-1.9-12.2-4.2-18.4-5.8c-5.3-1.4-10.8-2.3-16.4-2
	c-5,0.3-10.1,0.3-15.1,0.7c-2.9,0.2-5.8,0.9-8.4,2.4c-2.3,1.3-4.7,1.8-7.4,2.1c-8.7,1-17.3,0.1-26-1.1c-4.6-0.6-9.4-0.6-14.1-0.7
	c-7.2-0.1-13.8-2.4-20.6-4.5c-5.7-1.7-11.6-2.9-17.5-3.9c-2.4-0.4-5,0.4-7,1.9c-2.4,1.8-4.6,3.9-6.8,5.9
	c-8.2,7.3-17.1,13.2-28.7,13.5c-3.6,0.1-7.3,0-10.9,0c-3.8,0-7.5,0.2-11.3-0.1c-4.8-0.4-9.5-1.4-14.3-1.9c-4.5-0.5-9.1-1-13.7-1
	c-2.8,0.1-5.7,1-8.5,1.9c-6,1.9-11.8,2.5-17.7-0.3c-2.4-1.1-4.8-2.4-7.4-2.8c-2.2-0.4-4.7,0.2-7,0.3c-0.1,0-0.2,0.1-0.3,0.1
	c-8.2,1.8-8.1,1.8-13.1,8.5c-4.1,5.4-8.4,10.8-12.6,16.1c-3.1,3.8-7.6,5.4-12.1,6.7c-2.9,0.8-6,0.6-9.1,0.9
	c-2.9,0.3-5.9,0.4-8.8,0.9c-9.6,1.6-19.3,2.7-28.8,5.3c-12.8,3.5-25.8,4-38.8,1.1c-5.7-1.2-11.2-2.5-16.4-5.2
	c-2.5-1.3-5.3-1.9-7.9-2.9c-6.2-2.4-12.4-4.9-18.7-7.3c-1.4-0.5-2.9-0.9-4.4-1.3c-2.1-0.6-4.4-0.9-6.4-1.8
	c-6.7-3.1-13.2-2.1-19.9,0.1c-4.1,1.4-8.3,2.3-12.5,3.4c-0.7,0.2-1.7,0-2.4-0.2c-3.9-1.2-7.9-2.2-11.8-3.6c-5.5-2-11-4.1-16.2-6.7
	c-5.1-2.5-10.4-4.7-15.2-7.9c-5-3.3-10.5-6.1-16.1-8.4c-3.3-1.4-7.1-1.5-10.6-2.3c-3.2-0.8-6.2-2.3-9.4-2.6
	c-6.5-0.7-13.1-0.9-19.7-1.3c-1.6-0.1-3.2-0.7-4.8-0.9c-5.1-0.8-9.7-2.7-14.1-5.2c-0.8-0.4-1.7-0.9-2.6-0.9
	c-5.4-0.1-10.8,0.2-16,2.2c-5.8,2.2-12,3.2-18.3,3.1c-7.7-0.2-15.4-0.9-22.1-4.5c-7.7-4.1-15.5-3.4-23.6-1.9
	c-4.7,0.9-8.6,3-11.5,6.8c-1.5,1.9-3.1,3.7-4.6,5.6c-2.9,3.8-6.9,5.9-11.2,7.8c-6.2,2.8-12.7,3.7-19.3,3.6c-8-0.1-16-0.2-23.8-2.6
	c-4.7-1.4-9.4-3.1-14.1-4.6c-1.1-0.3-2.3-0.5-3.4-0.5c-6.5-0.1-12.9,0.8-19.2,2.3c-5.9,1.4-11.6,1-17.3-0.8
	c-2.3-0.7-4.8-0.9-7.2-1.4c-0.4-0.1-1,0-1.3-0.3c-3.3-1.8-6.5-3.7-9.7-5.6c-0.7-0.4-1.3-1-1.8-1.6c-3.7-4.5-8.6-6.5-14.4-6.8
	c-7.4-0.4-14.8-1.4-21.8-3.9c-4.4-1.6-7.6-5.7-11.7-7.9C9.8,29.8,2.6,14.7,0,13V0H1000z"/>
<path class="slope" fill="#FFFFFF" d="M0,0v1c1.7,1.9,2.3,11,4.8,15c2.7,3.7,5.4,7.5,8.3,11c2.2,2.5,4.7,4.7,7.3,6.9c1.3,1.1,3,2,4.6,2.4
	c6.3,1.9,12.8,3.2,19.5,2.7c3.6-0.3,6.9-1.3,9.7-3.7c1.4-1.3,3.1-2.3,4.8-3.6c1.1,2,0,3-0.9,3.9s-1.8,1.7-2.9,2.7
	c0.8,1.2,1.5,2.3,2.2,3.3c7.6,9.3,17,14.5,29.6,13.5c6.2-0.5,12.1-1.6,17.6-4.4c1-0.5,2.2-0.7,3.3-1.2c1.6-0.7,3.2-1.4,4.6-2.4
	c1.3-1,2.6-1.2,3.8-0.3c1.3,1,2.6,2,3.5,3.3c2.2,3.2,5.2,4.8,9,6c9.4,2.9,19.1,3.9,28.7,5.2c5.9,0.8,11.4-0.7,16.4-4.1
	c3.9-2.6,7.8-5.2,11.7-7.7c2.6-1.7,4.2-4,5.2-6.8c1.6-4.5,4.3-8.5,7.6-11.8c3.5-3.5,3.6-7.2,2.2-11.4c-0.8-2.2-1.9-4.2-3.1-6.2
	c-2.1-3.3-4.4-6.5-6.5-9.8c-0.3-0.5-0.3-1.5,0.1-2.1c0.2-0.3,1.4-0.4,1.9-0.2c2,1.1,3.5,2.6,4.6,4.6c3,5.3,5.8,10.7,9.6,15.6
	c4.8,6,10,11.5,17.2,14.9c6.7,3.2,13.6,5.8,21,6.9c2.5,0.4,5.2,0.1,7.7,0.2c8.2,0.2,15.8-2.3,23.3-5.2c1.3-0.5,2.4-1.3,3.5-1.9
	c0.3-3.6-4.4-3.1-4.8-6.1c1.7-1.3,3.1-1.1,4.7,0.1c2.7,2,5.7,3.7,8.5,5.5c3.7,2.4,7.4,4.9,11.2,7.1c1.7,1,3.5,2.1,5.4,2.3
	c7.6,0.7,15.3,1.5,22.9-0.3c1.2-0.3,2.4-1,3.4-1.6c1.6-0.9,2-2.3,1.8-4.1c-0.7-5.9-1.2-11.8-1.8-17.7c-0.1-1.2,0.2-2,1.4-2.5
	c1.5-0.6,2.3-0.2,2.4,1.3c0.2,2.5,0.2,5,0.3,7.6c0.4,5.4,2.4,10.3,5.1,14.9c2.6,4.4,6.6,7.9,11.1,10.4c9.7,5.3,19.6,10.6,29.7,15.1
	c8.3,3.7,17.2,6.2,26.6,5.8c4.8-0.2,9.6-0.1,14.4-0.5c5.3-0.3,9.4-2.7,11.7-7.5c0.1-0.2,0.4-0.3,0.8-0.5c0.6,0.4,1.2,0.8,1.8,1.2
	c4.1,3.1,8.3,6,13.1,8.1c7.9,3.5,15.9,7,23.5,11.1c7.6,4.1,15.5,6.6,23.9,8.1c5.8,1,11.7,1.9,17.6,1.1c5.6-0.8,11-2.4,16.5-3.6
	c0.1,0,0.2-0.1,0.3-0.1c1.9-0.6,4.1-0.9,5.6-2s2.3-3,3.6-4.8c5.7,0.6,11.5,1.8,17.3,1.6c7-0.3,14.1-1.1,20.5-4.4
	c0.6-0.3,1.2-0.7,1.9-0.9c5.1-1.3,9-4.5,12.5-8.1c3.3-3.5,6.3-7.3,9.3-11.1c3.5-4.5,6.4-9.4,10.1-13.6c4.3-4.8,8.2-10.1,13.6-13.9
	c1.5-1.1,2.9-2.5,5.5-1.5c-0.9,1.1-1.6,2.2-2.5,3.2c-2.5,2.6-5,5.2-7.5,7.7c-1.3,1.4-1.6,2.8-0.2,4.3c1.3,1.4,2.6,3,4.2,4
	c2.8,1.7,5.7,3.2,8.7,4.6c5,2.5,12.2,2.3,16.7-3.1c1.3-1.6,2.8-1.8,4.7-1.5c7.7,1.5,15.4,3.2,23.2,4.4c11.5,1.7,23,2.4,34.3-1.1
	c3.3-1,6.6-1.8,9.7-3.1c6.2-2.6,10.9-7,14.7-12.3c1.4-2,2.5-4.2,4-6.1c1.6-2,1.5-4,0.7-6.2c-1.6-4.4-4-8.3-7.1-11.8
	c-1.9-2.2-4-4.2-5.9-6.4c-1.6-1.8-3.2-3.5-3.6-6.6c1.1,0.6,1.8,0.9,2.4,1.3c6.2,4.5,11.1,10.3,15.4,16.4c1.6,2.3,3.7,3.8,5.7,5.5
	c4.7,3.9,9.5,7.9,14.6,11.4c6,4.1,13.1,5.6,20.3,6.4c7.6,0.9,15.3,1,22.9,1.8c4.4,0.4,8.7,0.9,13,0.1c6-1.1,11.9-2.6,17.8-4
	c3.1-0.7,6-1.8,9.1-2.7c3.5-1.1,6.5-3.1,9.4-5.3c7.3-5.5,14.8-10.6,23.8-13.1c1.7-0.5,3.3-1.3,4.9-1.9c1.3-0.5,2.5-1,3.4,0.5
	c0.6,1.1-0.1,1.9-1.8,2.7c-4.2,1.8-8.3,3.7-12.4,5.6c-0.9,0.4-1.7,1.2-2.6,1.8c-2.6,1.7-3,2.7-1.6,5.3c0.9,1.6,2.1,3.2,3.5,4.2
	c4.4,3,8.8,6.1,13.9,7.9c5.5,1.9,11.1,3.7,16.7,5.3c9,2.6,18.4,3.4,27.6,2.1c6.1-0.9,12.1-2.8,18.1-4.4c3.2-0.9,6.2-2.2,9.3-3.3
	c8.4-2.9,14.4-8.8,20.1-15.2c1.4-1.6,2.7-3.2,4-4.7c2.7-3.2,5.5-6.3,8.1-9.6c1.1-1.4,1.8-3.2,2.5-4.9c1.1-2.9,5.5-7.4,6.5-10.3V0H0z
	"/>
</svg>
