<?xml version="1.0"?>
<!-- 24.1.29 valle -->
<svg xmlns="http://www.w3.org/2000/svg" xml:space="preserve"
	 width="1000" height="100"
	 viewBox="0 0 1000 100">
<path class="range" fill="hsl(212, 35%, 26%)" d="M0,100V74c0.7-0.5,3-1.5,3.9-1.5c5.2-0.2,9.2-3,12.8-6.3c2.3-2,4.3-2.9,7.2-1.6c2.3,1,4.6,0.4,6.5-1.1
	C36,59,42.7,56.3,49,53.1c1-0.5,2.1-1,3-1.7c5.4-4.2,10.8-8.4,16.2-12.7c0.9-0.7,1.4-1.8,2.1-2.7c1.5-2,1.9-2.2,4.1-0.8
	c2.1,1.3,3.8,1.1,5.5-0.5c1.6-1.5,3.2-1.4,5.2-0.7c9.7,3.6,19.4,7.1,29.2,10.2c4.9,1.6,10.1,2.5,15.2,3.6c1.3,0.3,2.8,0,4.2-0.1
	c4.9-0.5,9.5-2.5,13.6-4.8c4.1-2.3,7.5-6,8.9-10.9c0.1-0.5,0.3-1,0.5-1.5c2.9-7.8,5.5-8.9,13.3-6.4c6.3,2,12.8,3.6,19.1,5.5
	c5.5,1.7,10.8,3.7,16.3,5.3c8,2.3,14.4,7.5,21.5,11.5c3,1.7,5.9,3.6,8.7,5.5c3.8,2.6,7.9,2.8,12.4,2.1c5.2-0.8,9.5-2.6,13.3-6.5
	c3.9-4,8.4-7.3,13.9-9.2c4-1.3,6.4-4.9,9.2-7.9c1-1,1.8-2.2,2.7-3.2c2.3-2.5,3.9-2.7,6.7-0.9c1.7,1.1,3.3,2.4,4.8,3.8
	c2.3,2.1,4.9,3,8.1,2.5c4.6-0.8,8.5,0.6,12.6,3c5.6,3.4,11.2,7.1,17.8,8.6c1.1,0.3,2.1,0.9,3.2,1.4c2.8,1.2,5.5,0.8,7.4-1.3
	c2.2-2.4,4.4-5.1,5.6-8.1c1.9-4.7,4.5-8.8,8.3-12.2c2.6-2.4,4.8-5.2,7.1-7.9c2.6-3,3.3-3.4,6.8-1.4c2.1,1.2,3.9,2.8,5.7,4.4
	c1.8,1.8,3.2,3.9,5,5.7c0.8,0.8,2.1,1.6,3.2,1.7c7.4,0.5,13.8,3.2,19.6,7.8c2.8,2.3,6.2,2.9,9.7,2.8c1.8,0,3.2,0.4,4.5,1.6
	c0.8,0.7,1.9,1.2,3,1.6c2.8,1.1,5.6,2.2,8.5,3.2c2.5,0.9,5.1,1.8,7.7,2.4c2.8,0.7,5.2,2,7.4,3.9c5.2,4.3,10.9,3.2,14.5-2.5
	c1.9-3,3.2-6,3.9-9.4c1.3-7,6.2-11.1,12.6-14c2.9,5.3,6.8,8.2,12.5,8.9c3.3,0.4,6.5,1.3,9.7,2.1c3.6,0.9,7,1.3,10.3-0.8
	c0.4-0.3,0.9-0.4,1.4-0.5c5.7-1.6,10.5-4.8,14.1-9.5c4-5.2,10.1-7.1,15.3-10.5c1.7-1.1,3.8-1,5.9-0.3c5,1.8,9.9,3.9,14.2,7.2
	c3.5,2.6,7.6,3.9,11.9,4.9c4.4,1,8.5,3.4,12.7,5.2c2,0.8,4.1,1.4,6,2.4c2.5,1.3,5,2.6,7.1,4.3c4.4,3.5,8.8,7,14.1,9
	c1.8,0.6,3.7,1.2,5.5,1.5c3.7,0.6,6.9-0.4,9.7-3.3c4.1-4.2,8.6-8,11.9-12.9c0.4-0.6,1.2-1.1,1.4-1.8c0.7-3.1,3-3.2,5.5-3.5
	c4-0.5,8-1.3,11.8-2.6c2-0.7,3.6-0.7,5,0.3c2.6,2,5.4,4,7.4,6.5c2.7,3.6,5.9,6.4,9.7,8.5c5.5,3.1,10.7,6.9,17.1,8.3
	c1.3,0.3,2.4,1.4,3.6,2.1c1,0.5,2,1,3,1.5c0.9,0.5,2,0.7,2.5,1.5c2.3,3.1,5.5,4.6,8.9,6.1c3.2,1.4,6,3.5,8.3,6.5
	c2,2.8,5.6,3,9.1,2.8c1.4-0.1,2.9-0.3,4.1,0.2c4.9,2,8.9,0.6,12.7-2.6c4.9-4.3,10-8.3,14.9-12.5c1.8-1.6,3.5-1.6,5.5-0.4
	c6.1,3.6,12.9,4.7,19.8,5.3c4.6,0.4,7.9-2.5,10.8-5.6c1.9-2,3.5-4.3,4-7.3c0.4-2.3,1.8-3.5,4.3-3.5c2.8,0,5.6-0.4,8.4-0.6
	c2.3-0.1,4.4-0.5,6.1-2.5c1.4-1.5,3.4-2.6,5.4-3.5c2-0.9,4.3-0.7,5.7,0.9c4.3,5,10.4,7.9,14.6,13.3c3.5,4.6,8.6,7.9,13,11.7
	c4,3.5,8.7,6,13.7,7.8c5.2,1.9,9.9,1.4,13.9-3.1c3.5-3.9,7.2-7.5,9.7-12.2c0.7-1.4,2.2-2.6,3.6-3.3c1.8-1,3-2.3,3.9-4
	c0.5-0.9,1.1-1.7,1.8-2.5c1.8-1.8,2.6-2,4.6-0.4c1.7,1.3,3.3,2.9,4.7,4.5c2.5,2.7,5.2,3.6,8.9,2.5c4-1.2,8-2.3,11.5-4.8
	c0.3-0.2,0.7-0.5,1-0.5c4-0.2,6.5-3,9.3-5.4c1.5-1.2,2.9-1.6,4.5-0.5c2.2,1.7,4.4,3.4,6.4,5.3c3.4,3,6,7,10.4,8.9
	c3.5,1.6,5.2,4.9,6.7,8c3.8,8,9.5,14.8,14.6,21.9c1.3,1.8,3.8,1.2,5.1,2.9V100H0z"/>
<path class="slope" fill="hsl(212, 35%, 35%)" d="M1000,100v-7c-3.2-6.9-10.8-10-15.2-16.1c-3.2-4.4-5.8-9.3-8.4-14.1c-1.6-3.1-3.9-5-7.1-6
	c-4.9-1.4-8.2-4.5-10.3-9c-0.6-1.4-1.3-2.7-2-4.2c-3.1,0.7-5.6,1.9-7.5,4c-2.3,2.4-5.1,4.1-8.3,4.2c-5.8,0.2-11.1,2.7-16.7,4
	c-3.1,0.7-6,2.1-8.9,3.3c-1.1,0.4-2.3,0.9-2.9-0.6c-0.5-1.3,0.3-2.2,1.5-2.8c0.8-0.4,1.7-0.5,2.6-0.8c0.9-0.3,1.9-0.5,2.8-0.8
	c-0.9-3.4-1.8-4.8-4.7-7c-8.6,9.6-17.2,19.4-26.8,28.1c1.1,2.5,5.6,2.2,5.2,6.1c-0.6,0.1-1,0.3-1.3,0.2c-4-2-8.2-3.4-11.8-6
	c-5.3-3.8-10.9-7.1-16.2-10.9c-8.7-6.3-16.7-13.4-23.7-21.5c-0.9-1.1-1.8-2.1-2.8-3.1c-2.5-2.5-3.7-2.6-6.6-0.5
	c-0.3,0.2-0.6,0.4-0.9,0.7c-2.7,3.2-6.2,4.1-10.2,4.4c-4.6,0.4-8,2.9-10.5,6.9c-1.9,3.2-4.3,5.9-7.6,8c-4.6,2.9-9.7,3.1-14.8,2.2
	c-3.9-0.7-7.7-1.8-11.4-3.2c-4.9-1.9-8.8-0.5-12.2,2.9c-3.4,3.4-7.2,6.4-9.9,10.5c-2.7,4.1-7,4.9-11.4,2.9c-3.1-1.4-6.1-2.4-9.6-1.9
	c-2.4,0.3-4.4-0.5-6.1-2.5c-2-2.3-4.2-4.5-6.7-6.2c-2.3-1.5-5-2.4-7.7-3.1c-2.4-0.6-4.5-1.4-6.4-3.1c-4.1-3.7-8.5-7-13.6-9
	c-7-2.8-12.6-7.7-18.4-12.3c-2-1.6-3.5-3.7-5.1-5.7c-2.5-3.1-5.4-3.5-9.2-1c-3.1,2-6.2,3.5-10,3.3c-2-0.1-3.3,1.1-4.5,2.5
	c-3.3,3.7-6.9,7.2-10,11c-3,3.6-5.7,7.4-8.4,11.3c-0.7,1-1.4,1.8-2.8,1.4c-1.2-0.3-1.7-1.2-1.5-2.3c0.5-2-0.7-2.7-2.3-3.4
	c-7-2.8-13.1-7-19.2-11.5c-8-5.8-17-10.2-26.7-12.7c-4.7-1.2-9.2-2.9-13-6.2c-3.1-2.7-7-4.1-11-5.3c-2.3-0.7-4.5-0.2-6.7,0.9
	c-5.5,2.6-10.4,6-14.4,10.5c-2.6,3-6,4.8-9.4,6.3c-5.3,2.4-10.2,5.3-14.2,9.5c-0.9,1-2.2,1.9-3.4,2.3c-0.9,0.3-2.2-0.3-3-0.8
	c-0.3-0.2,0.2-1.8,0.7-2.5c1-1.6,2.1-3,3.4-4.8c-4.9-2-9.5-2.5-14-2c-3.7,0.4-5.7-1.1-7.4-4c-0.7-1.2-1.9-2.2-2.8-3.4
	c-3.1,1.3-4.7,3.3-5.6,6c-0.8,2.4-1.6,4.8-2.3,7.3c-1.6,6.1-6,9.9-10.8,13.4c-1.9,1.4-4.1,1.7-6.5,0.8c-2.5-1-5.1-1.7-7.6-2.6
	c-0.9-0.3-2-0.7-2.7-1.4c-2.5-2.4-5.5-3.9-8.9-4.5c-1.5-0.3-3-0.8-4.3-1.4c-3.9-1.9-7.9-1.8-11.8-0.2c-1.2,0.5-2.4,1-3.6,1.2
	c-0.6,0.1-1.5-0.5-1.8-1s-0.2-1.7,0.2-2c1.2-1.2,2.7-2.1,4.3-3.3c-0.7-0.4-1.4-0.9-2-1c-5.6-1.5-10.6-4.3-15.6-7
	c-2.8-1.5-5.5-1.5-8.7-1.3c1.1,2,2,3.7,2.9,5.4c-1.7,1-2.5,0.1-3.2-0.8c-4-4.9-8-9.9-12-14.8c-0.1-0.1-0.2-0.2-0.2-0.3
	c-3.7-4.6-5-4.5-8.8-0.1c-1.5,1.8-3.4,3.3-5.3,4.9c-2.6,2.3-4.8,4.7-6.3,8c-1.9,4.1-4.6,7.9-6.9,11.8c-0.4,0.6-0.8,1.2-1.6,2.2
	c1.5,0.9,2.9,1.8,4.3,2.6c1.2,0.7,2.6,1.2,3.6,2.1c0.4,0.4,0.5,1.7,0.2,2.3c-0.2,0.5-1.2,0.6-1.9,0.8c-0.3,0.1-0.7-0.2-1-0.5
	c-6.3-4.5-13.8-6.5-20.9-9c-4.5-1.6-8.7-3.5-12.7-6.1c-2.4-1.5-4.9-2.8-7.4-3.9c-1.3-0.6-2.8-0.6-4.7-1c0.1,1.4,0.1,2.2,0.3,3
	c0.2,1.2,0.4,2.6-1,2.9c-0.9,0.2-2.3-0.3-3-0.9c-2.9-2.5-5.5-5.3-8.4-7.7c-4.6-3.9-4.5-3.6-8.8,0.5c-3.8,3.5-8,6.6-12.9,8.6
	c-4.6,1.9-8.6,4.7-11.5,9c-1.5,2.2-4.2,3.6-6.4,5.4c-0.5,0.4-1,0.7-1.5,1c0,1.9,1.5,1.9,2.5,2.6c1.3,0.9,2.6,2,3.5,3.3
	c0.9,1.4,0.1,2.6-1.6,2.4c-1.5-0.2-3-0.8-4.3-1.4c-2.3-1-4.5-1.4-7-0.9c-1.6,0.3-3.6-0.1-5-0.9c-5.7-3.3-11.3-6.9-17-10.3
	c-4.6-2.8-9.4-5.2-13.7-8.3c-9.8-6.9-20.8-10.6-32.4-13.1c-3-0.6-5.9-1.6-8.9-2.3c-1.2-0.3-2.5-0.2-3.7,0c-3.5,0.6-5.5,2.7-6,6.3
	c-0.1,1.1-0.7,2.2-1.1,3.2c-0.7,1.5-1.7,2.6-3.5,2.3c-1.8-0.3-2.7,0.7-3.2,2.1c-0.7,2.4-2.6,3.3-4.7,3.9c-3.9,1.1-7.4,2.7-9.5,6.5
	c-0.4,0.7-1.7,1.2-2.5,1.1c-2.1-0.2-4.3-0.6-6.4-1.1c-4-0.9-7.8-2.2-11.8-2.8c-2.7-0.4-5.6-0.2-8.3,0.1c-2.1,0.2-3.8,0-5.2-1.7
	c-2.8-3.3-6.4-4.6-10.6-5.3c-3.2-0.5-6.2-2.2-9.1-3.7c-2.8-1.5-5.2-1.4-7.9,0.3c-1.4,0.8-3.1,1.5-4.6,1.5c-2.4,0.1-4,1-5.7,2.6
	c-2,1.8-4.3,3.1-6.5,4.6c-0.6,0.4-1.3,0.8-1.9,1.3c-8,7.6-18.1,11.7-27.8,16.6c-3.6,1.8-7.2,3.3-11.2,3.7c-1.4,0.2-2.9,1-4,2
	C12.3,77.1,5.2,79,0,79v21H1000z"/>
</svg>
